<svg width="53.385pt" height="53.404pt" preserveAspectRatio="xMidYMid" version="1.0" viewBox="0 0 53.385 53.404" xmlns="http://www.w3.org/2000/svg"><g transform="matrix(.1 0 0 -.1 -17.9 72.004)"><path d="m382 710c-62-159-159-408-179-460l-24-64 53 50c29 27 74 65 101 82 42 30 47 37 47 72 0 21-5 40-10 42-11 3 19 98 31 98 3 0 11-11 17-25 9-19 19-25 42-25 16 0 30 1 30 3 0 1-22 58-49 127-44 113-50 123-59 100z"/><path d="m438 443c-25-4-28-9-28-43v-38l47 14c25 8 57 14 70 14 18 0 23 6 23 24 0 33-32 41-112 29z"/><path d="m580 405c0-19 5-25 23-25 12 0 44-11 70-24 45-22 47-22 30-3-26 29-94 77-110 77-7 0-13-11-13-25z"/><path d="m535 330c10-11 19-20 21-20 1 0 0 9-3 20s-12 20-21 20c-13 0-12-3 3-20z"/></g></svg>
