<?xml version="1.0" standalone="no"?>
<!DOCTYPE svg PUBLIC "-//W3C//DTD SVG 20010904//EN"
 "http://www.w3.org/TR/2001/REC-SVG-20010904/DTD/svg10.dtd">
<svg version="1.0" xmlns="http://www.w3.org/2000/svg"
 width="90.000000pt" height="90.000000pt" viewBox="0 0 90.000000 90.000000"
 preserveAspectRatio="xMidYMid meet">

<g transform="translate(0.000000,90.000000) scale(0.100000,-0.100000)"
fill="#000000" stroke="none">
<path d="M382 710 c-62 -159 -159 -408 -179 -460 l-24 -64 53 50 c29 27 74 65
101 82 42 30 47 37 47 72 0 21 -5 40 -10 42 -11 3 19 98 31 98 3 0 11 -11 17
-25 9 -19 19 -25 42 -25 16 0 30 1 30 3 0 1 -22 58 -49 127 -44 113 -50 123
-59 100z"/>
<path d="M438 443 c-25 -4 -28 -9 -28 -43 l0 -38 47 14 c25 8 57 14 70 14 18
0 23 6 23 24 0 33 -32 41 -112 29z"/>
<path d="M580 405 c0 -19 5 -25 23 -25 12 0 44 -11 70 -24 45 -22 47 -22 30
-3 -26 29 -94 77 -110 77 -7 0 -13 -11 -13 -25z"/>
<path d="M535 330 c10 -11 19 -20 21 -20 1 0 0 9 -3 20 -3 11 -12 20 -21 20
-13 0 -12 -3 3 -20z"/>
</g>
</svg>
