<?xml version="1.0" encoding="UTF-8" standalone="no"?>
<svg
   viewBox="0 0 61 60.999999"
   version="1.1"
   id="svg4"
   width="61"
   height="61"
   xmlns="http://www.w3.org/2000/svg"
   xmlns:svg="http://www.w3.org/2000/svg">
  <defs
     id="defs8" />
  <path
     d="m 56.09969,34.363756 c 2.6,-0.2 4.7,1.5 4.9,4.1 0.2,2.7 -1.7,4.9 -4.3,5.1 -2.5,0.2 -4.7,-1.7 -4.9,-4.2 -0.2,-2.7 1.6,-4.7 4.3,-5 z m -31.6,21.3 c 0,-2.6 2,-4.6 4.4,-4.6 2.4,0 4.7,2.2 4.7,4.7 0,2.4 -2,4.5 -4.3,4.6 -2.9,0.1 -4.8,-1.8 -4.8,-4.7 z m 7.1,-29.2 c -0.4,0.2 -0.6,-0.1 -0.7,-0.4 -3.7,-6.9 -2.6,-15.6 3.9,-20.8000001 1.7,-1.4 4.9,-1.7 6.3,-0.3 0.6,0.5 0.7,1.1 0.8,1.8 0.2,1.5 0.5,3 1.5,4.2000001 1.1,1.3 2.5,1.8 4.1,1.7 1.4,0 2.8,-0.2 3.7,1.4 0.5,0.9 0.3,4.4 -0.5,5.1 -0.4,0.3 -0.7,0.1 -1,0 -2.3,-0.8 -4.7,-0.9 -7.1,-0.5 -0.8,0.1 -1.2,-0.1 -1.2,-1 -0.1,-1.5 -0.4,-2.9 -1.2,-4.2 -1.6,-2.7 -4.3,-2.8 -6.1,-0.3 -1.5,2 -1.9,4.4 -2.3,6.8 -0.4,2.1 -0.3,4.3 -0.2,6.5 z m 2.5,1.5 c -0.2,-0.3 -0.1,-0.6 0.2,-0.8 5.7,-5.2 14.3,-6.3 20.8,-1.1 1.7,1.4 2.8,4.3 1.9,6 -0.4,0.7 -0.9,1 -1.5,1.2 -1.4,0.6 -2.7,1.2 -3.6,2.5 -0.9,1.3 -1.1,2.8 -0.7,4.4 0.3,1.3 0.8,2.7 -0.5,3.9 -0.7,0.7 -4.1,1.3 -5,0.7 -0.4,-0.3 -0.3,-0.6 -0.2,-1 0.3,-2.5 -0.3,-4.8 -1.2,-7 -0.3,-0.8 -0.2,-1.2 0.6,-1.4 1.4,-0.4 2.7,-1.1 3.7,-2.1 2.2,-2.1 1.7,-4.8 -1.2,-6 -2.3,-1 -4.7,-0.8 -7,-0.6 -2.2,0.2 -4.3,0.7 -6.3,1.3 z m -1.3,2.6 c 0.3,-0.3 0.5,-0.2 0.8,0 6.5,4.1 10,11.9 7,19.6 -0.8,2 -3.4,4 -5.3,3.5 -0.8,-0.2 -1.2,-0.6 -1.6,-1.1 -0.9,-1.2 -1.9,-2.3 -3.4,-2.8 -1.6,-0.5 -3,-0.2 -4.4,0.6 -1.2,0.7 -2.4,1.6 -3.9,0.7 -0.9,-0.5 -2.4,-3.6 -2.1,-4.6 0.2,-0.4 0.6,-0.4 1,-0.4 2.5,-0.4 4.5,-1.6 6.4,-3.2 0.6,-0.5 1.1,-0.5 1.6,0.2 0.8,1.2 1.8,2.2 3.1,2.9 2.6,1.5 5.1,0.2 5.4,-2.8 0.3,-2.5 -0.6,-4.7 -1.4,-6.9 -0.9,-2 -2,-3.9 -3.2,-5.7 z m -3.2,0.6 c -0.4,2 -1.3,3.9 -2.5,5.6 -3.7,5.4 -8.8,7.6 -15.2,7 -2.3000002,-0.2 -4.2000002,-2.1 -4.4000002,-4 -0.1,-0.8 0.1,-1.4 0.6,-2 0.7,-0.9 1.3,-1.7 1.6,-2.8 0.6000002,-2.2 -0.2,-4 -1.8,-5.6 -2.2,-2.2 -1.9,-4.2 0.7,-5.8 0.3,-0.2 0.7,-0.4 1.1,-0.6 0.6000002,-0.3 1.1000002,-0.3 1.3000002,0.4 0.9,2.3 2.7,4 4.7,5.4 0.7,0.6 0.7,1 0.1,1.7 -1.2,1.3 -1.9,2.9 -2,4.7 -0.2,2.2 1.1,3.6 3.3,3.6 1.4,0 2.7,-0.5 3.9,-1.1 3.1,-1.6 5.5,-3.9 7.8,-6.3 0.3,-0.1 0.4,-0.3 0.8,-0.2 z m -16.4,-21 c 0.2,0 0.7,0.1 1.2,0.2 3.7,0.7 6,-0.6000001 7.2,-4.1000001 0.8,-2.3 2.5,-3 4.7,-1.8 0.1,0 0.1,0.1 0.2,0.1 2.2,1.3 2.2,1.5 0.7,3.5 -1.2,1.6 -1.8,3.4000001 -2.1,5.3000001 -0.2,1.1 -0.6,1.3 -1.6,0.9 -1.6,-0.6 -3.3,-0.6 -5,0 -1.9,0.6 -2.7,2.3 -2.1,4.2 0.8,2.5 3,3.6 4.9,4.9 1.9,1.3 4.1,2 6.2,2.9 0.3,0.1 0.8,0.1 0.7,0.6 -0.1,0.3 -0.5,0.3 -0.9,0.3 -4.5,0.1 -8.8,-0.5 -12.3,-3.5 -3.3,-2.7 -5.7000002,-6 -5.3000002,-10.6 0.5000002,-1.5 1.6000002,-2.6 3.5000002,-2.9 z m -8.2000002,28.1 c -2.4,0.3 -4.79999997,-1.7 -4.9999999666,-4.2 -0.2000000034,-2.4 1.7999999666,-4.8 4.0999999666,-5 2.6,-0.3 5,1.5 5.2,3.9 0.2,2.3 -1.4,5.1 -4.3,5.3 z M 46.99969,2.6637559 c 2.5,-0.2 4.9,1.8 5.1,4.3 0.2,2.4 -1.8,4.7000001 -4.2,4.9000001 -2.6,0.2 -4.9,-1.7 -5.1,-4.2000001 -0.2,-2.5 1.6,-4.8 4.2,-5 z m -26.1,1.9 c 0.3,2.6 -1.5,4.8 -4.2,5.2 -2.3,0.3000001 -4.7,-1.6 -5,-3.8 -0.3,-2.9 1.3,-4.99999997 4,-5.29999997 2.5,-0.3 4.9,1.59999997 5.2,3.89999997 z"
     id="path2" />
</svg>
