<svg width="100.54mm" height="56.65mm" version="1.1" viewBox="0 0 100.54 56.65" xmlns="http://www.w3.org/2000/svg"><g transform="translate(-54.769 -120.39)"><path d="m128.18 162.71c-0.82788 2.6e-4 -1.6375-0.24527-2.3262-0.70512-0.68871-0.45984-1.2253-1.1139-1.5425-1.8788-0.31697-0.76491-0.40005-1.6068-0.23865-2.4191 0.16139-0.81227 0.56012-1.5584 1.1456-2.1439 0.58526-0.58579 1.3314-0.98451 2.1434-1.1464 0.81227-0.16166 1.6542-0.0788 2.4194 0.23786 0.76491 0.31671 1.419 0.85328 1.8793 1.5417 0.46011 0.68845 0.70591 1.4981 0.70591 2.326-1e-3 1.1102-0.44265 2.1744-1.2274 2.9594-0.78475 0.78502-1.8486 1.2269-2.9588 1.2285zm-46.275 0c-0.82815 2.6e-4 -1.6375-0.24527-2.3262-0.70512-0.68871-0.45984-1.2256-1.1139-1.5425-1.8788s-0.40005-1.6068-0.23865-2.4191 0.55986-1.5584 1.1454-2.1439c0.58552-0.58579 1.3314-0.98451 2.1437-1.1464 0.81227-0.16166 1.6539-0.0788 2.4191 0.23786 0.76518 0.31671 1.4192 0.85328 1.8793 1.5417 0.46038 0.68845 0.70591 1.4981 0.70617 2.326-0.0011 1.1102-0.44238 2.1746-1.2271 2.9596-0.78476 0.78502-1.8489 1.2269-2.9591 1.2282zm47.777-25.219 8.3669-14.492c0.1143-0.19793 0.18864-0.41648 0.21854-0.64315 0.0302-0.22666 0.0151-0.45701-0.0439-0.67788-0.059-0.22091-0.16113-0.42799-0.30004-0.60945-0.13917-0.18147-0.31273-0.33377-0.51064-0.4482s-0.41646-0.18878-0.6432-0.21873c-0.22649-0.03-0.45694-0.015-0.67787 0.044-0.22092 0.059-0.42783 0.16102-0.60933 0.30011-0.18151 0.13907-0.33391 0.31253-0.44821 0.51049l-8.4725 14.675c-6.4788-2.9571-13.755-4.6036-21.52-4.6036-7.7639 0-15.04 1.6489-21.519 4.6036l-8.4717-14.675c-0.1143-0.19801-0.26644-0.37155-0.44794-0.51073-0.18124-0.13919-0.38841-0.2413-0.60907-0.30051-0.22093-0.0592-0.45111-0.0743-0.67786-0.0445-0.22648 0.0298-0.44503 0.10398-0.6432 0.21825-0.19791 0.11428-0.37148 0.26644-0.51065 0.44778-0.13917 0.18135-0.2413 0.38833-0.30057 0.60915-0.059 0.2208-0.07435 0.45112-0.04445 0.67776 0.0299 0.22667 0.10398 0.44521 0.21828 0.6432l8.3677 14.494c-14.368 7.8145-24.195 22.36-25.632 39.545h100.54c-1.4391-17.185-11.265-31.73-25.632-39.545" fill="#010101" stroke-width=".26458"/></g></svg>
