<svg version="1.1" viewBox="0 0 58.699 57" xmlns="http://www.w3.org/2000/svg"><path d="m29.048 0.5a28 28 0 0 0-6.7012 0.87695c4.4371 2.4604 9.5933 7.993 14.75 14.623 5-5 8.0646-8 9-8h2.0117a28 28 0 0 0-19.061-7.5zm-15.826 4.959a28 28 0 0 0-12.174 23.041 28 28 0 0 0 7.2598 18.756c6.2413-7.4837 15.502-18.377 23.789-27.256-6.9574-8.3488-12.465-13.306-18.875-14.541zm37.479 6.7676c-2.186-0.11816-3.6035 1.7734-3.6035 1.7734l-6 7c4.6003 7.229 8.7568 15.319 11.131 23.141a28 28 0 0 0 4.8203-15.641 28 28 0 0 0-4.9863-15.936c-0.47946-0.2044-0.93538-0.31487-1.3613-0.33789zm-13.604 13.773-20.273 27.645a28 28 0 0 0 12.225 2.8555 28 28 0 0 0 16.844-5.7227c-0.86902-10.877-4.4528-17.83-8.7949-24.777z"/><path d="m17.848 0.5c-3.8 0-5.8 0-13.8 6 11-3 18 2 28 14-14 15-31 36-31 36h14l22-30c5 8 9 16 9 30h8.2c-0.2-11-6.2-24-13.2-35l6-7s3-4 7 0c0-4 3-6 3-6h-11c-0.93542 0-4 3-9 8-7-9-14-16-19.2-16z" fill="none" stroke="#000"/></svg>
