<?xml version="1.0" encoding="UTF-8" standalone="no"?>
<svg
   width="512"
   height="512"
   id="svg3037"
   version="1.1"
   xmlns="http://www.w3.org/2000/svg"
   xmlns:svg="http://www.w3.org/2000/svg"
   xmlns:rdf="http://www.w3.org/1999/02/22-rdf-syntax-ns#"
   xmlns:cc="http://creativecommons.org/ns#"
   xmlns:dc="http://purl.org/dc/elements/1.1/">
  <defs
     id="defs5498" />
  <metadata
     id="metadata5594">
    <rdf:RDF>
      <cc:Work
         rdf:about="">
        <dc:format>image/svg+xml</dc:format>
        <dc:type
           rdf:resource="http://purl.org/dc/dcmitype/StillImage" />
      </cc:Work>
    </rdf:RDF>
  </metadata>
  <path
     id="path2518"
     d="m 243.0023,12.90627 c -21.63981,53.05505 -34.6919,87.75929 -58.78499,139.23721 14.77209,15.6584 32.90413,33.89339 62.35049,54.4881 C 214.91007,193.60462 193.31562,180.52586 177.17775,166.954 146.34319,231.29506 98.0343,322.94602 0,499.09371 c 77.05167,-44.48326 136.78074,-71.90767 192.44539,-82.3721 -2.39027,-10.28049 -3.74922,-21.40082 -3.65692,-33.0037 l 0.0914,-2.46842 c 1.22263,-49.36496 26.90225,-87.32662 57.32221,-84.74912 30.41998,2.57752 54.0651,44.70927 52.84249,94.07426 -0.22995,9.28893 -1.2777,18.22477 -3.10838,26.51266 55.06028,10.77077 114.15068,38.12498 190.15982,82.00642 -14.98752,-27.59306 -28.36518,-52.46619 -41.14035,-76.15534 -20.12297,-15.59664 -41.11223,-35.89574 -83.9263,-57.87075 29.42793,7.64662 50.49796,16.46877 66.92162,26.32982 C 298.06225,149.56729 287.54404,117.43306 243.0023,12.90627 Z" />
  <path
     id="path3940"
     d="m 488.49503,455.69905 v -13.32983 h -4.97933 v -1.78346 h 11.97928 v 1.78346 h -4.99996 v 13.32983 h -1.99999" />
  <path
     id="path3942"
     d="m 497.57744,455.69905 v -15.11329 h 3.0103 l 3.5773,10.70093 c 0.32987,0.99657 0.57042,1.74227 0.72162,2.23712 0.1717,-0.54984 0.43986,-1.35739 0.80412,-2.42268 l 3.61855,-10.51537 h 2.69068 v 15.11329 h -1.92781 v -12.6494 l -4.39173,12.6494 h -1.80409 l -4.37111,-12.86589 v 12.86589 h -1.92783" />
</svg>
