<svg version="1.1" viewBox="0 0 64 64" xmlns="http://www.w3.org/2000/svg"><path d="m32 4c-10 23-10 24-28 56 0 0 13.672-7.6858 25.219-8.8477a3.5 3.5 0 0 1-1.2188-2.6523 3.5 3.5 0 0 1 3.5-3.5 3.5 3.5 0 0 1 3.5 3.5 3.5 3.5 0 0 1-1.1348 2.5742c11.726 0.8259 26.135 8.9258 26.135 8.9258-13.362-23.754-16.809-30.444-21.787-41.713l0.65234 1.4785-3.8652 19.234-4 3s1-8 1-14c0-7-1-7-1-10 4 0 6.5508-1.2129 6.5508-1.2129l0.33008 0.74805c-1.6482-3.7459-3.4558-7.9574-5.8809-13.535zm0 47c-0.27038 0-0.5435 0.006764-0.81836 0.017578 0.27379-0.008905 0.54839-0.017578 0.81836-0.017578z"/></svg>
