<?xml version="1.0" encoding="UTF-8"?>
<svg width="48" height="48" version="1.1" viewBox="0 0 12.7 12.7" xmlns="http://www.w3.org/2000/svg">
 <path d="m6.35 0v2.88e-4c-0.565 1.39-0.906 2.29-1.54 3.64 0.548 0.277 1.03 0.717 1.63 1.42-0.685-0.541-1.22-0.868-1.81-1.04-0.806 1.68-2.07 4.07-4.63 8.68 0.759-0.445 5.05-1.57 4.66-2.58-0.105-0.253-0.317-0.287-0.643-0.403v-0.645c0.326-0.116 0.537-0.149 0.643-0.403 0.105-0.254-0.0205-0.427-0.169-0.74l0.456-0.456c0.314 0.149 0.486 0.274 0.74 0.169h1.58e-4c0.253-0.105 0.287-0.316 0.403-0.642h0.645c0.117 0.328 0.15 0.537 0.403 0.642h1.59e-4c0.254 0.105 0.428-0.0209 0.74-0.169l0.456 0.456c-0.149 0.314-0.274 0.486-0.169 0.74v1.58e-4c0.105 0.253 0.313 0.286 0.643 0.403v0.645c-2.13 1.19 2.85 2.57 3.89 2.98-0.392-0.721-0.741-1.37-1.07-1.99-0.526-0.407-1.07-0.938-2.19-1.51 0.769 0.2 1.32 0.43 1.75 0.688-3.39-6.32-3.67-7.16-4.83-9.89zm0.0657 8.6c-0.441 0-0.798 0.357-0.798 0.798s0.357 0.798 0.798 0.798c0.441 0 0.798-0.357 0.798-0.798s-0.358-0.798-0.798-0.798z" fill="#000000"/>
</svg>
