<?xml version="1.0" encoding="UTF-8"?>
<svg version="1.1" viewBox="0 0 2419 2424" xmlns="http://www.w3.org/2000/svg">
 <path d="m2.0048 2370.9c0-7.9783 1157.3-2209.5 1196.1-2275.3l26.803-45.474 29.274 51.365c16.101 28.25 134.09 252.85 262.21 499.11 128.11 246.26 386.45 741.39 574.08 1100.3 263.29 503.6 337.52 654.83 325.24 662.61-8.7488 5.5438-114.18 10.161-234.29 10.261l-218.39 0.1766-64.403-65.304c-161.58-163.84-443.98-312.37-759.59-399.52l-141.39-39.042 176.74-8.8653c166.03-8.3276 353.34-2.7135 455.74 13.662 34.228 5.4734 45.029 3.231 45.029-9.3488 0-31.079-433.26-823.05-450.26-823.05-12.391 0-99.855 152.46-439.38 765.89-166.79 301.35-304.18 549.02-305.31 550.39-5.0262 6.0992-478.21 18.126-478.21 12.154z" fill="#000000"/>
</svg>
