<?xml version="1.0" encoding="UTF-8"?>
<svg version="1.1" viewBox="0 0 48 48" xmlns="http://www.w3.org/2000/svg">
 <path d="m11.8 12.6c-6.51 0-11.8 5.1-11.8 11.4 0 6.33 5.29 11.5 11.8 11.5 0.598 0.0074 1.2-0.0326 1.79-0.121 5.11-0.755 8.51-4.35 10.4-7.18 1.89 2.83 5.29 6.42 10.4 7.18 0.594 0.0796 1.19 0.111 1.79 0.0956 6.43-0.0957 11.8-5.2 11.8-11.4h0.00463c0-6.33-5.29-11.4-11.8-11.4-0.599-0.0159-1.2 0.0166-1.79 0.0962-5.1 0.756-8.51 4.35-10.4 7.18-1.89-2.84-5.29-6.43-10.4-7.18-0.594-0.0797-1.19-0.112-1.79-0.0962zm0.0046 4.06c0.412-0.0158 0.825 0.0168 1.23 0.0962 4.82 0.66 7.75 5.38 8.69 7.27-1.04 1.89-3.97 6.52-8.79 7.28-0.405 0.0752-0.817 0.106-1.23 0.091-4.25 0-7.75-3.3-7.75-7.37 0-4.06 3.5-7.37 7.84-7.37zm24.3 0c4.35 0 7.84 3.3 7.84 7.37 0 4.06-3.5 7.37-7.75 7.37-0.412 0.015-0.824-0.0157-1.23-0.091-4.91-0.755-7.84-5.39-8.77-7.28 1.01-1.89 3.86-6.61 8.68-7.27 0.403-0.0794 0.814-0.112 1.22-0.0962zm-1.51 3.78v2.46h-2.36v2.27h2.36v2.46h2.36v-2.46h2.36v-2.27h-2.36v-2.46zm-26.2 2.46v2.27h7.09v-2.27z"/>
</svg>
