<svg width="178.38mm" height="178.38mm" version="1.1" viewBox="0 0 178.38 178.38" xml:space="preserve" xmlns="http://www.w3.org/2000/svg"><path d="m8.5e-5 177.84v-0.53983h0.30847l0.83534 0.83534 0.92304-0.83534h0.31403l3.6921-2.0744 6.7478-3.5345 9.177-4.5826 8.6372-4.0394 4.3186-1.9442 7.2876-3.0467 2.6991-0.97472 7.8274-2.7677 8.0973-2.3874 6.7478-1.5928 2.4748-0.36469 0.32162-0.19878 0.32162-0.19877-0.41524-1.7905-0.41524-1.7905-2.6153-6.6351-1.6947-5.3982-0.67327-2.6991-0.67327-2.6991-0.0025-0.48715-0.0025-0.48716-0.50767-1.1323-0.50767-1.1323-0.60437-5.3982-0.66634-6.4779 0.02478-1.7544 0.02478-1.7544 1.1925-6.7478 0.65673-2.5511 0.65673-2.5511 1.5606-1.6456 1.3563-4.0487 0.18791-0.94469 0.18791-0.94469 1.2962-2.3622v-0.62202l1.8173-3.7635 3.6388-5.3982 1.9425-2.5642h0.63691l3.3008-3.5286v-0.45667l-7.6925-4.2065-7.5013-5.0708-0.67791 0.71168-7.3123 14.305-2.4059 4.3186-3.4911 6.4779-5.5382 9.9867-2.702 4.8584-2.5694 4.5885-3.526 6.208-3.313 5.9381-3.1139 5.3982-1.5698 2.6991-1.5698 2.6991-3.3302 5.938-3.9669 6.7478-2.8097 4.8584-2.945 5.1283-3.9555 6.7478-2.948 5.1283-2.2725 3.7788-4.236 7.2876-0.7643 0.80974 0.84503-2.0617 3.4402-5.7657 3.7956-6.4779 1.7208-2.969 4.0792-7.0177 2.8148-4.8584 6.9151-11.876 3.3304-5.938 4.2393-7.2876 1.8139-3.2389 0.50812-0.80973 4.2643-7.5575 6.3423-11.336 4.0393-7.2876 2.838-5.1283 3.1261-5.938 0.65395-0.80973 5.1531-9.9867 4.2696-8.3323 0.90681-0.572 0.76138 0.53706 6.3913 4.3613 4.8584 2.7346 3.5088 1.8112v1.2306l-2.969 3.4609-1.0495 0.37155-0.96424 1.145-4.7783 7.0177-1.4403 2.9401v1.1775l-0.81518 0.67654-0.84382 3.0334-1.3714 4.2347-1.6111 1.8349-1.0382 3.9171-0.69349 3.6438-0.69349 3.6438-0.07758 3.7788 0.33957 3.3739 0.33957 3.3739 0.28212 2.4292 0.28212 2.4292 0.9873 2.6991 0.73489 3.1957 0.73489 3.1957 2.0263 6.3054 2.4403 6.1971 0.32338 1.5808 0.32338 1.5808-0.50046 0.50046-9.6715 2.1601-8.2433 2.4282-8.2213 2.8873-8.3673 3.3762-7.5575 3.3801-5.8999 2.7891-11.104 5.5809-6.208 3.3114-3.5088 1.6742-0.46868 0.23253-0.46868 0.23252h-1.087zm176.25 0.0229-1.2146-0.46558-8.0974-4.3534-10.257-5.1392-5.938-2.8106-7.5575-3.4944-10.796-4.34-11.876-3.92-7.9898-2.0377-0.44924-0.85796 0.34891-2.1593 0.3489-2.1593 1.0738-4.3186 0.63364-3.7788 0.25029-1.462 0.25028-1.462 6e-3 -2.2042 0.40444-1.3333 0.40443-1.3333 0.4086-0.6236 0.4086-0.62359h1.0672v1.7994l0.32995 0.32995 0.68666-0.81606 0.68666-0.81605 0.12946-2.0172 0.12945-2.0172-0.33266-2.4826-0.33267-2.4826-0.79688-3.5088-0.55763-1.7544-0.55762-1.7544-2.3165-4.9926-1.2518-0.47866-0.4398-0.50332-0.43979-0.50332-0.43742-0.86381-0.43741-0.86381v-0.97949l-0.50205-0.94069-0.50204-0.9407-0.20815-0.67478-0.20814-0.67477-0.94343-1.3496-1.4641-4.5885-0.10189-0.33738-0.10189-0.33739h-1.0353l-0.19172-1.2785-0.19173-1.2785-0.77135-1.4916h-0.58832l-1.0485-1.147-1.0485-1.147v3.5356l-0.6056 0.6056-0.38204-0.1466-0.38203-0.1466-0.36105-0.86411-0.36104-0.8641-0.8435-0.96069-0.8435-0.9607v-0.50941l1.2494-1.1738h1.1412l0.8483 0.8483v-0.32752l-1.0819-2.042-1.0819-2.042-1.8849-2.202v-1.478l-1.4412-2.8784-0.68445-0.53983-0.84332-3.3168v-2.0459l-1.2146-2.4647 0.0139-2.9016 0.0139-2.9015h-0.65753l-0.18 0.40486-1.2142 0.80974-1.2142 0.80973-4.3195 3.2119-3.5979 3.1311h-1.1229l-6.8854-5.7622-7.087-6.7014-0.68619-1.2822 1.5535-3.1813 1.5535-3.1813 3.1451-6.7478 3.7158-8.3307 1.0443-0.57633 0.20003-0.11006-1.7197-2.1713 0.08506-0.88144 0.08506-0.88144 1.0067-0.1909 2.2322 2.1058 0.94469 0.71094v-0.5715l-2.985-3.4083-0.28219-1.0942 1.8848-4.8439 1.6794-4.036 0.7141-0.8224 0.27946-2.6283 2.0016-4.1194 0.55248-1.0427 0.26211-0.82819 0.26211-0.82819 0.43705-1.8894 2.1907-6.1355 0.38238-0.58359 0.38239-0.58359 1.1574-0.08718-0.31344 0.50715h-0.73909l-1.1813 3.104-1.3227 3.7788-0.46198 1.8894-0.17998 0.67478-0.17998 0.67478-0.82953 1.8894-0.73454 1.3496-1.1429 2.3637-0.3923 2.8909-0.85629 0.95338-1.067 2.6991-2.217 5.5712v0.71031l2.7435 2.8954 1.0436 2.1593 2.5107 3.3739h0.68096l-2.93-8.7537v-1.1609l2.7358-8.0262 0.23322-0.23322 0.14222 0.14222 0.14222 0.14222-1.6723 7.9192 3.2773 10.192v0.85826h-2.9155l0.0407 2.6316 0.0407 2.6316 0.67478 0.0788 0.67478 0.0787v14.958h7.0177v-14.98l0.94469 3e-4 0.0592-2.5642 0.10286-1.7544 0.10286-1.7544 0.25806-0.67478h0.78913l0.0863 0.58616 0.0862 0.58616 0.6478 0.21323 2.5017-2.306 0.99015-1.9136 2.7431-3.0555v-1.1281h-0.44396l-3.0755 3.4814-2.4323 1.9931-0.12931-0.12932-0.12932-0.12932 0.30518-0.92098 0.30517-0.92098 1.8565-1.8894 1.1785-1.4052 1.1785-1.4052-0.56328-2.048-0.9452-1.8894-0.95368-2.969-1.8557-4.0487-1.0434-1.9963 8.1e-4 -0.6213 8.1e-4 -0.6213-1.9619-5.1283-1.2787-1.7184v-1.2824l-0.79256-1.0479-0.018-1.2089-0.70814-1.7689-0.70813-1.7689 0.18298-0.18299 0.18299-0.18299 0.22454 0.3633 0.22453 0.3633 0.60615 1.9231 0.60614 1.9231 0.36925 0.88637 0.36924 0.88637v1.1615l0.5183 0.55722 0.51829 0.55722 1.1012 2.772 1.1012 2.772v1.1118l2.4301 5.131 1.5697 4.4079 1.1167 2.4292 6e-3 0.95818 6e-3 0.95819-0.67478 0.72724 0.53982-0.20939 0.53983-0.20939 1.2146-0.26342v1.9195l-2.217 2.5616 1.4073 1.0251v0.45254l4.8998 10.434 7.605 15.385 12.54 23.752 4.4477 8.0973 1.6093 2.969 1.6093 2.969 1.2844 2.2942 1.2844 2.2942 2.4143 4.3186 3.2717 5.938 0.84594 1.4845 0.84593 1.4845 0.95551 1.7544 0.95551 1.7544 1.159 2.0243 1.159 2.0243 3.9418 7.0177 3.4757 6.208 1.2883 2.1593 4e-3 0.47235 4e-3 0.47234h-1.365l-3.2518-1.6415-5.7748-2.3543-6.6245-2.2121h-0.62325l8.3763 5.0281 5.3493 3.7072 7.0177 5.2615 3.2043 2.6028 2.5665 4.3186 1.65 2.969 1.9036 3.2389 1.6329 2.969 3.3989 5.938 2.5275 4.4218 0.8027 1.9211h-0.25129l-1.0014-1.6869-1.0014-1.687-3.2263-5.6681-3.352-5.938-3.5259-6.208-2.5564-4.3047-0.68294-0.55372-8.8365-6.7925-6.7478-4.5981-6.4779-3.8021-3.9137-2.2403v-0.31515l2.0961 0.33518 7.7556 2.4942 5.1283 2.05 4.7772 2.2072h0.21616v-0.97168l-0.24323-0.25642-0.24324-0.25641-2.3949-4.3186-3.9647-7.0177-3.4855-6.208-2.2714-4.0487-4.4684-8.0973-2.0213-3.5088-3.4029-6.208-2.8026-5.1283-2.3703-4.3186-2.3702-4.3186-11.292-21.323-10.14-20.513-2.0558-4.3186-2.0689-4.4943-0.94379 0.18176-2.336 3.5028-2.6642 3.1572v5.8187l-0.80974 0.67202v12.512l-0.32389 0.3239-0.32389 0.32389h1.11l-0.0287 3.3064-0.0287 3.3064 1.2146 2.2727v2.3527l0.83902 2.8253 0.78045 0.29949v0.66049l1.3473 2.6556 2e-3 1.483 1.7922 2.0259 0.54893 1.0796 0.54892 1.0796 0.84212 1.4845 0.84212 1.4845 1.7686 1.7475 0.71378 0.63751 0.71378 0.63752 0.34134 1.5253 0.34133 1.5252h0.98346l0.34516 1.4845 0.54056 1.7544 0.54055 1.7544 1.553 2.7648v0.81288l0.39773 0.33008 0.39772 0.33008 0.17817 0.98505 0.17818 0.98505 0.40134 0.80973 0.40134 0.80974 0.41415 0.47234 0.41415 0.47235 0.86103 5.4e-4 1.438 2.5636 1.7197 4.3186 0.4971 1.6195 0.49709 1.6195 0.94882 4.8584 0.0138 3.5543 0.0138 3.5543-1.1888 1.266-0.42137 1.0085-0.42138 1.0085h-0.53257l-4e-3 -1.417-4e-3 -1.417-0.53156-0.80973-0.53168 0.80973-0.37979 1.3496-0.37978 1.3496-0.32328 3.8201-1.0393 5.9715-0.53984 2.2568-0.53983 2.2568-0.49064 3.09 0.15869 0.25675 0.15868 0.25676 6.7408 1.6888 9.4469 2.9997 8.3673 3.1451 7.1542 2.9756 9.0405 4.1889 14.305 7.1153 6.7478 3.6362 2.8429 1.5728 0.31884-0.83088h0.36719l0.0407 0.53983 0.0407 0.53982-0.91114-0.0514zm-74.382-89.836-0.46819-0.87721h-0.92855l-0.35478 0.42749-0.35479 0.42749 0.65889 0.89944 1.739 2.6604 0.1766-2.6604zm-0.83922 0.90254-0.59099-0.91267 0.32726-0.32726h0.43599l0.4118 0.79633 0.41179 0.79633v0.56663l-0.40486-6e-3zm-16.585-20.347 1.7906-1.5632 4.8584-3.5312 0.87721-0.6033 0.87722-0.6033 3.8e-4 -0.18406 3.8e-4 -0.18405-7.4803 0.1744-0.88773-0.88774v-12.568l-1.3496-1.4562v-2.4369l0.48934-0.91433-0.64116-2.5252-3.2458-3.4078-1.8167-2.2889-0.72367 0.60059v0.50715l-1.2956 2.8006-4.8489 10.527-3.3403 6.8474 0.56289 1.0518 7.2079 6.8008 6.4374 5.3914 0.73748 0.018zm-4.7988-0.96756-2.4521-1.9909-8.11-7.4676-0.41851-0.63872-0.41851-0.63873 2.5451-5.2222 2.1375-4.5885 1.7628-3.7788 0.59949-1.3496 0.59949-1.3496 0.83534-1.8894 0.83534-1.8894 0.35679-0.42847 2.1087 2.5739 1.3744 1.3565 1.3744 1.3565 0.1486 1.1222 0.1486 1.1222-0.43858 0.45477 0.15118 1.8326 0.15118 1.8326 1.004 0.53734v12.607l0.47234 0.56744 0.47234 0.56745 3.5089 0.0697 3.5088 0.0698-2.1593 1.326-1.7544 1.3398-1.7544 1.3398-3.5811 3.1471h-0.55621zm13.228-6.5695 0.7839-0.46306v-12.503l0.80973-0.67202v-3.5264l-1.0711 0.96934-0.1434 14.634h-8.2327l2.2e-4 0.85472 2.21e-4 0.85471 0.67478 0.27228 6.3946 0.0426zm-7.8533-14.758v-1.4556l-0.85845-0.32942-0.49111 0.30352v2.2894l0.64779 0.64779h0.70177zm10.397-5.6031 0.89513-0.9908 0.31262-0.58414 0.31262-0.58413-0.58539 0.31329-0.5854 0.31329-0.64964-0.16304-0.64964-0.16305-0.0295 0.34253-0.0296 0.34253-0.0675 1.7544-0.0675 1.7544 0.24872-1.3445zm-11.672-1.036-0.14446-1.077 0.57933-0.69805-0.44587-0.72144-0.52716 0.94198h-1.4536l-1.1863-1.0797-1.2958-0.66975 1.1434 1.6058 3.0424 3.0424 0.21624-0.13365 0.21624-0.13364zm2.721-2.3643-0.18429-0.74226-2.8806-8.6188-0.0551-1.368-0.58757 1.8408 1.6034 4.8115 1.6034 4.8115 0.68507 0.0074zm-3.4387-0.18604 0.14907-0.38847-0.45004-0.71224-4.949-4.7188h-0.58418v1.1023l1.7544 2.4756 1.4404 1.4154 1.5286 1.1952 0.96163 0.0194zm-1.7855-0.69688-0.94469-0.79962-0.70997-0.67919-1.9072-2.6012 0.21967-0.21967 4.6917 4.3494v0.76569l-0.40487-0.0158zm16.341-2.7114 0.17792-0.28787-0.24704-0.24704-0.68285 0.82278h0.57406zm2.4553-2.8689-0.13621-0.13622-0.57958 0.3582-0.83666 1.7202 1.6887-1.806zm-98.78 145.92 0.55219-0.92435 4.7455-8.0973 2.5298-4.3186 3.9298-6.7478 2.8397-4.8584 3.7641-6.4779 5.211-8.9868 4.2305-7.4778 3.1317-5.3982 3.5051-6.208 1.999-3.5088 3.5064-6.208 3.9383-7.0177 4.3194-7.8274 2.8428-5.1283 3.2475-5.938 5.391-10.257 4.1652-8.0973 0.1462-0.1612 6.6765 4.5342 3.7788 2.1698 3.9137 2.0111v0.65117l-1.2821 1.405-1.2821 1.4049-0.85425-4e-3 -1.305 1.8865-4.6633 6.8856-1.3325 2.6991-0.1946 0.80973-0.1946 0.80974-0.73365 0.81464-1.1553 4.3137-1.0756 2.969-1.3458 1.0827-1.0929 4.0456-0.67146 3.2389-0.67146 3.2389-0.21267 2.2347-0.21267 2.2347-0.17199 0.172-0.172 0.17199-0.40487-0.40456-0.18692-4.4605 1.1497-5.9301-0.32562-0.84854 1.1474-2.8866 1.5893-3.2603v-0.65343h-0.76175l-1.4274 1.6964-0.6992 1.3786-0.6992 1.3786-0.77493 2.2909-0.77493 2.2909-0.8006 6.1073 0.0054 6.0454 0.78155 6.7478 1.6191 5.7044 0.55509 1.295 0.55509 1.295 1.109 1.5575h0.56433l-0.13239-0.74226-0.13239-0.74226-1.6815-6.4875-0.39282-2.7991-0.39281-2.7991 0.28366-1.6797 0.55221-2.9126 0.42556 0.68857 0.18277 2.8664 0.18277 2.8664 0.40507 2.8144 0.40507 2.8144 0.77339 1.1042 2e-3 0.54725 2e-3 0.54724 1.6423 6.4779 1.907 5.9381 2.3148 5.6681 0.62094 2.9128-0.07308 0.0616-0.07307 0.0616-5.6681 1.1732-7.2876 1.9051-11.066 3.6802-4.3186 1.5986-6.7478 2.8224-10.257 4.6593-15.925 7.9805-4.0487 2.1988-4.016 2.2151zm174.99 0.12556-1.2146-0.698-3.5088-1.9073-11.336-5.8372-13.226-6.2899-8.88-3.7875-7.8545-2.957-5.4493-1.8128-10.328-2.997h-1.0605l-0.12055-0.20243-0.12056-0.20243 0.53382-3.2389 0.52793-2.2698 0.52793-2.2698 0.65935-3.8921 0.65934-3.8921 4e-3 -1.9814 0.33056-1.0796 0.33055-1.0796 0.14029 1.6171 0.14028 1.6171 0.95548 0.1814 1.3783-3.0107h0.73132l0.19313-1.5458 0.19314-1.5458-0.35338-6.7601-0.78094-3.7788-1.0327-3.2389-0.81871-2.0243-0.81871-2.0243-1.8267-3.2389-1.203-0.1736-1.0709-2.0991v-1.2983l-1.0796-1.3726v-0.65887l-1.5738-2.7648-1.3624-4.7219-0.16729-0.27068-0.16728-0.27067h-0.77788v-1.0349l-0.53269-1.2427-0.53268-1.2427-0.47948-0.17236-0.47948-0.17237-0.91347-0.96902-0.91347-0.96903-1.5522-2.6991-0.42935-0.93349-0.42936-0.93348-1.8351-2.1439-0.016-1.6573-1.3299-2.1593-2e-3 -1.2651-1.0263-0.26839-0.84136-3.3495 0.15757-0.60256 0.15758-0.60257-0.7469-1.6643-0.7469-1.6643 0.17133-3.1865 0.17134-3.1865h-0.53526v-12.62l0.40486-0.33601 0.40487-0.33601v-5.6102l1.5528-1.954 1.5528-1.954 1.6179-2.5607 0.20019-4.83e-4 0.2002-4.82e-4 3.7832 7.8938v0.20405l4.6248 9.3771 4.6248 9.3771 3.8873 7.2917 3.948 7.5575 4.1796 7.8274 4.726 8.6372 3.2121 5.938 1.2717 2.2942 1.2717 2.2942 5.7174 10.257 1.6859 2.969 1.911 3.5088 2.3004 4.0487 3.965 7.0177 3.2827 5.9421 0.46614 0.65647 0.46613 0.65647-0.1944 0.1944-5.5457-2.4924-1.7797-0.68114-1.7797-0.68115-6.208-2.0797-5.3612-1.3901-0.57689 0.59019 0.80974 0.65329 0.80973 0.65329 0.34979 2e-3 7.4776 4.2064 2.6991 1.7159 2.6991 1.7159 8.0973 5.8351 5.3617 4.206 2.5685 4.3186 1.6607 2.969 1.8822 3.2389 1.7526 3.1365 0.80974 1.4569 0.80973 1.4569 4.2594 7.4453 1.048 1.7544-0.179-6e-3zm-59.678-29.207 0.56416-1.533 1.1145-3.5088 1.3176-6.4172v-1.8151h-0.98843l-0.30639 0.6073-0.3064 0.6073-0.88244 5.3982-0.99009 3.9658-0.99008 3.9658 0.0901 0.27019 0.0901 0.27018 0.72323-0.27753zm0.92578-6.0118 0.17379-0.6495 8e-3 -0.67478h0.44633l-0.11933 0.81304-0.11933 0.81303-0.56262 0.34772zm0.53577-3.0787 0.13251-1.3496 0.19057-0.74226 0.19056-0.74226h0.4813v0.44068l-0.29175 1.6016-0.29175 1.6016-0.54396 0.53982zm-0.44526-3.527 0.16233-0.42301-0.61151-0.6115-0.6115 0.6115 0.16233 0.42301 0.16232 0.42301h0.57371zm-8.0473 20.474-0.41227-0.48234-0.97203-1.7544-0.97202-1.7544-2.8664-3.5541-4.8584-4.5554-4.7137-3.9516-4.7332-4.3436-5.7617-5.6415-1.8716-3.5953-0.599-2.8606v-2.6251l0.79142-4.1364 0.93505-1.9367 0.93505-1.9367 3.21-4.3702 0.9447-0.36252 0.74132 0.61524v3.9473l0.40175 1.9098 0.40174 1.9098 1.4181 2.8284 2.7331 4.0487 2.698 3.3739 2.698 3.3739 4.4199 6.7478 1.2676 2.3742 1.2676 2.3742 2.5652 6.8579 0.63122 2.1593 0.56133 1.9721 0.56132 1.9721-0.1668 1.7195-0.84294 0.1594zm0.89616-1.0502-0.0891-0.51182-0.96129-3.3739-0.96128-3.3739-2.2775-5.6681-2.0316-4.0332-2.4462-4.0641-3.2702-4.5885-4.9459-6.208-2.5213-3.7788-1.3121-2.6991-0.82234-3.949v-3.7116l-0.45721-0.28258-1.3607 1.4653-2.7942 4.1487-0.64751 1.5935-0.64751 1.5935-0.64185 3.6858 0.15862 1.9118 0.15862 1.9118 0.56057 1.9215 2.0274 3.2911 7.5575 7.1232 6.695 5.7482 2.5905 2.4141 2.5905 2.4141 2.8784 3.5391 1.2339 2.1005 1.2339 2.1005 0.59184-0.2083zm-1.7811-2.3511-1.0037-1.7162-1.8587-2.1826-1.8587-2.1826-9.8441-8.5438-9.0779-8.5754-1.9486-3.9427-0.13784-2.4176-0.13784-2.4176 0.6717-3.5599 1.9851-3.9187 1.3391-1.8498 1.3391-1.8498 0.3672 4.3493 0.41705 1.6279 0.41706 1.6279 0.7195 1.4212 0.7195 1.4212 2.5926 3.8444 4.6816 5.8631 1.5293 2.164 1.5293 2.164 2.3165 3.6934 2.9563 5.9246 1.653 4.4174 0.90285 3.0931 0.90284 3.0931-0.1686 0.1686zm-6.0867-1.4139-2.0189-1.2018-9.7878-3.2092-5.4229-2.4044-1.88-1.098-1.88-1.098-4.2525-3.1776-3.8142-3.9915-2.2374-2.9896-2.6854-5.6475-1.1568-4.573 0.08911-4.7312 0.08911-4.7312 1.2207-2.6495-0.67848-2.4904-0.67848-2.4905v-7.5351l1.0679-3.1039 1.3518-2.3622 1.3518-2.3622 0.6784-1.534 0.6784-1.534v-1.5009l0.72759-0.99504 1.1598 0.18545 1.1598 0.18546 1.6763 1.1675 1.6195 1.7581 2.0243-0.416 2.0243-0.41599 5.1283-0.0516 2.143 0.62755 0.55608-0.55991v-2.5333l1.72-0.1666 1.6327 0.8443 2.8962 2.8311 1.0592 2.1453 1.0592 2.1453-8e-3 8.1253-0.76072 2.0243-0.76071 2.0243-0.50331 1.4845-0.50332 1.4845-0.16625 1.0364-0.16626 1.0364-2.1393 2.3209-1.6064 0.66539-0.75476-0.6264-0.729-3.0261-0.729-3.0261-2.0233-4.3186-1.2568-1.6581-1.2568-1.6581-2.2479-0.89944-2.0523 0.34674-1.3805 1.0859-1.0195 1.9984-0.36903 1.9671 0.91274 2.748 1.3627 1.6195 2.3671 1.6286v1.3279l-2.6886 4.7287-1.2963 3.8112-0.18149 1.5985-0.18149 1.5985 0.42314 1.9918 0.42314 1.9918 1.8955 3.6071 3.9211 4.551 5.6474 4.7818 8.9071 7.1645 4.4322 4.5227 1.1009 1.4347v1.3994l-1.2146-0.0272zm2.6937 0.33791v-0.35113l-3.2066-3.7513-3.4062-3.0067-9.7088-7.7898-5.887-5.6681-2.0222-2.7281-1.7248-3.4167-0.80208-3.8419 0.18503-1.5985 0.18503-1.5985 1.2783-3.7583 2.7066-5.0207v-0.77914l-2.9568-2.2812-1.4774-3.0197 4.9e-4 -1.3636 4.9e-4 -1.3636 1.2496-2.5788 1.7961-1.37 2.8721-0.26743 2.0285 1.2634 2.4436 3.2228 1.8429 3.7788 0.69741 2.8341 0.69742 2.8341 0.5202 1.2348 0.60847-0.31302 0.60848-0.31301 0.76635-0.70928 0.76635-0.70927 0.34323-0.67478 0.34324-0.67478 0.18254-1.19 0.18255-1.19 1.5705-3.8279 0.44468-1.7544 0.44468-1.7544-0.0929-3.2452-0.0929-3.2452-1.7868-3.6284-1.4289-1.6982-2.6358-2.0835h-1.64l0.16813 1.0514 0.16812 1.0514-0.48097 0.59398-0.48097 0.59397-1.2046-0.34557-1.2046-0.34558-5.3982 0.0568-4.0487 0.83145-2.1593-2.3699-0.89513-0.44018-0.89513-0.44019-1.4447 0.1674-0.34813 2.4528-2.2001 4.295-2.584 5.1166-0.17298 8.2458 1.42 4.9358-1.2401 2.7548-0.09297 4.803-0.09297 4.803 0.70623 2.4846 0.70623 2.4846 1.8658 3.9597 2.9775 4.2251 3.3702 3.4679 4.0487 2.9563 3.3579 2.0199 5.1633 2.4128 10.493 3.4777 2.0384 1.0618 0.94469 0.67953 0.94469 0.67954 0.67478 0.0264zm-2.889-1.66-1.4045-0.87655-6.368-2.0094-5.938-2.1953-4.614-2.3049-5.0587-3.3837-3.7192-3.5085-3.291-4.3587-2.336-4.8584-1.3582-5.1283 0.0022-3.6438 0.0022-3.6438 0.76142-2.5088 0.86555-1.6738-1.4207-4.7245-0.10165-3.4825-0.10165-3.4825 0.8554-3.0218 3.1922-5.7292 1.3418-3.3021v-1.0904h1.4012l1.5801 0.93337 1.4508 2.0934 1.2254-0.1432 1.2254-0.14319 5.1007-0.65425 5.3623 0.70973 0.73831-1.0097v-2.326h0.46449l2.0997 1.384 2.0668 2.2598 1.5767 3.088 0.28471 1.9649 0.28471 1.9649-0.17193 1.8894-0.17192 1.8894-0.38497 1.3393-0.38497 1.3393-0.78252 2.0346-0.78252 2.0346-0.19438 1.3496-0.19438 1.3496-2.4474 2.369-0.72222-0.98768v-0.9864l-0.54948-2.0504-0.54948-2.0505-0.68475-1.6269-0.68474-1.6269-2.4285-3.6862-1.7159-1.4469-1.7371-0.72793h-1.4018l-2.5874 1.1131-0.59375 0.80309-0.59375 0.80308-0.77868 2.207 0.0059 1.3831 0.0059 1.3831 1.0983 2.4292 1.7239 1.79 1.7588 1.0907-2.937 5.4865-1.4345 4.2884-0.03684 4.0788 0.94271 3.2159 0.68072 1.3611 0.68072 1.3611 2.2039 2.969 2.73 2.9018 6.208 5.2428 7.0177 5.5716 5.5332 5.415v0.43731l-0.20244-0.0275-0.20243-0.0275zm-27.533-4.8863-0.86709-0.68342-0.46633-1.4794-0.46633-1.4794 0.88633-0.88634 2.182 2.182 1.5841 0.65615 0.13236 0.34491 0.13236 0.34491-0.51386 0.84498-0.51386 0.84497-1.2225-6e-3zm2.1105-0.44413 0.31775-0.59373-1.2864-0.83688-1.9489-1.7447-0.15144 0.15144-0.15144 0.15144 0.81352 2.3875 1.3713 1.0786h0.71794zm-1.6013-0.5708-0.58687-0.6247v-0.66745l1.8841 1.4371-0.14826 0.23989-0.14826 0.23988h-0.41386zm31.432-2.5594-0.15205-0.24603-0.71874-1.9962-0.71874-1.9962-1.206-2.2942-1.206-2.2942-1.6828-2.5642-1.6827-2.5642-1.8945-2.0243-1.8945-2.0243-0.89583-1.7409-0.16335-1.5629-0.16336-1.5629 0.8853-3.4556 1.6992-3.0139 1.9953-1.9569 1.9953-1.9568h1.0409l0.93528 1.2821 0.93528 1.2821 3.6149 7.8274 1.063 2.8139 1.063 2.8139 0.43752 1.9095 0.43752 1.9095-0.0262 7.2876-0.5621 2.0504-0.5621 2.0504-0.989 2.1073-0.71626 0.0829-0.71626 0.083zm1.9477-2.2177 0.63361-1.7509 0.7399-4.0487 0.018-3.8541-0.41722-2.2566-0.41722-2.2566-0.42648-1.3496-0.42649-1.3496-2.4194-5.9222-3.1739-6.5281-1.3055-1.2265-0.51735 0.27688-0.51735 0.27687-1.7349 1.8443-1.7349 1.8443-1.55 3.1913-0.57364 3.3489 0.67162 3.0011 4.3188 4.7515 1.5458 2.2942 1.5458 2.2942 1.5101 2.969 1.5101 2.969 1.2241 3.3979 0.862-0.166zm-1.8166-0.33385-0.64203-1.687-2.7438-5.3982-3.1583-4.726-4.2361-4.5724-0.6524-1.9768 0.12702-1.9793 0.12702-1.9792 1.6691-3.3902 1.9319-2.2568 2.2108-1.751 1.04 1.3088 1.6289 3.3474 1.6289 3.3474 2.6587 6.5814 0.56609 2.6738 0.56608 2.6738-0.12275 3.2389-0.12276 3.2389-0.75515 2.4967-0.75516 2.4967h-0.32412zm-45.665-9.8143-0.30492-0.77969-0.75997-2.1068-0.51472-2.1856-0.51472-2.1856-0.35523-2.0243-0.35523-2.0243 0.04706-9.4469 1.3623-5.938 0.71585-1.8841 0.71585-1.884 0.52348-0.52348v1.2091l-0.53349 1.0457-0.53349 1.0457-0.29273 1.3053-0.29273 1.3052 0.03928 9.1464 0.82179 1.2542-0.2645 1.0076-0.26451 1.0076-0.17616 1.6195-0.17616 1.6195 0.90126 6.208 0.82335 3.6819-0.15337 0.15336-0.15336 0.15337zm-1.2503-12.565 0.35266-2.0683-0.70192-0.95994v-5.295h-0.49136l-0.19552 2.3472-0.19552 2.3472 0.36532 5.6507 0.173 0.27991 0.173 0.27992 0.08384-0.25662 0.08384-0.25661zm53.574 6.8719-0.42272-1.0248-2.2754-6.3412 0.1557-0.40573 0.15569-0.40573 0.96163 2e-3 0.75404 0.60596 0.75403 0.60596 1.281 4.9271 0.09 1.4502 0.09 1.4502-1.1212 0.1602zm0.30906-4.0572-0.59216-2.3659-0.55058-0.6073-0.55057-0.6073h-0.7786l0.14684 0.47234 0.14683 0.47235 2.2144 6.208 0.18364 0.40487 0.18365 0.40486 0.0944-1.008 0.0944-1.008zm-0.51957 0.60313v-0.13495h0.26992v0.26991h-0.26992zm-0.26991-0.67478v-0.35988l0.17994 0.17994 0.17995 0.17994-0.35989 0.35989zm-0.49712-1.4653-0.36217-1.0043 0.30437-0.30437 0.5767 1.5169-0.0784 0.39805-0.0784 0.39806zm-48.225 2.4918-0.15762-0.62801 0.0806-2.0212 0.0806-2.0212h1.0796l0.08578 0.80973 0.08578 0.80974 1.161 0.90105-1.0784 2.6078-1.1798 0.17zm1.3781-0.89507 0.17024-0.67828-0.31878-0.3841-0.31878-0.38411-0.22798-0.75951-0.22798-0.75952-0.0232 1.8219-0.0232 1.8219h0.79945zm17.349-14.622-0.70966-0.44042-1.3928-2.148-0.33506-2.2343 0.08908-0.93754 0.08908-0.93753 1.0796-0.1518 6.4779 4.6116 0.26442 0.69973 0.26441 0.69972-0.75181 0.64669-0.75181 0.64668-3.6137-0.014zm4.5633-0.50521 0.59988-0.42017v-0.74686l-6.433-4.6208h-0.58473l0.0059 1.2821 0.0059 1.2821 0.49549 1.0908 0.49549 1.0908 1.7377 1.4622h3.0774zm-4.6796-1.063-0.88966-0.94332-0.62583-3.0146 0.12942-0.12943 0.12942-0.12942 5.9873 4.2154 4e-3 0.30852 4e-3 0.30851-0.42694 0.16383-0.42695 0.16383h-2.9961zm0.55297-19.845-0.16986-0.27483 1.082-1.7446 0.89502-0.84102 0.89502-0.84101 1.835-0.61222h1.5389v1l-3.104 2.4365-0.94469 0.57499-0.94469 0.57498-0.91283 2e-3zm3.7692-2.2566 1.8768-1.3798-0.9782-0.1884-2.4105 0.92056-0.78972 1.0902-0.78972 1.0902v0.47783l1.2146-0.63086zm-1.202-0.0327 0.63392-0.67478h0.82051l-1.8292 1.3496h-0.25913zm0-23.357v-1.359l0.38552-0.59781 0.38552-0.5978 0.57852-4.2227v-0.25451l0.87308 0.1586 0.61143-1.0796 0.67478-0.43169v-3.7519h2.6991v13.496h-6.208zm0.18716-5.6249-0.18716-0.91095 4e-3 -2.463 4e-3 -2.4629 0.1983-0.29716 0.1983-0.29717 1.6137-0.3002 0.95044 0.50866v1.8704h-0.52439l-0.46576 1.7544-0.87153-0.1522-0.161 1.0208-0.16101 1.0208-0.41102 1.6195zm1.4728-4.3523 0.28228-0.80974h0.48701v-0.80973h-1.5617l-0.16383 0.42694-0.16384 0.42694v1.2154l0.17994 0.17994 0.17995 0.17994h0.47793zm-3.0095-5.9381v-2.1593h2.1151l0.85389-0.32766v-0.87053l-1.6444-5.1088-1.6444-5.1088 0.1119-0.83743 0.1119-0.83743 1.0459-4.7916 1.0459-4.7916-0.32322-0.32321-0.32321-0.32321-0.49422 0.51283-3.8244 11.631v0.64178l2.4352 7.1095-0.11052 0.11052-0.11052 0.11052-2.2141-3.092v-0.69736l-2.969-3.09v-0.8903l1.9366-4.8164 1.2613-3.1016 1.1207-1.4247 0.0026-1.1107 0.0026-1.1107 1.2888-2.7679 0.5953-0.36792v-1.2516l0.80973-0.67202v-0.84026l0.2656-0.8289 0.2656-0.8289 1.884-5.6681 0.51209-1.3293 0.51208-1.3293 0.26488 0.51956 0.26487 0.51956 0.93386 2.969 0.54824 1.6195 0.41962 2.0529 0.57237 0.60926 0.57236 0.60926 1.0807 2.8679 1.0807 2.8679v1.0547l2.2382 4.5133 1.0655 2.8341 1.0655 2.8341 0.89398 2.3477-2.0243 1.7582v0.53455l-2.4292 2.2108v1.0518l-2.4292 3.2998-2e-3 1.4163-2e-3 1.4163-0.17021 1.417-0.1702 1.417h-8.2921zm5.1858-8.3703 0.19243-1.7514 0.0213-2.4292 0.0214-2.4292-0.17626-5.5332-0.17625-5.5332-0.3417-0.80973-0.34171-0.80974-0.27439 0.68427-0.27438 0.68427-0.32788 5.7936-0.32787 5.7936 0.0358 1.6195 0.0358 1.6195 0.27365 2.1593 0.27366 2.1593 0.12383 0.35734 0.12383 0.35734 0.47316-0.09047 0.47316-0.09046zm-0.96079-0.19993-0.16828-0.27229-0.2573-2.9338-0.25729-2.9338 0.25005-1.9902 0.25006-1.9902-0.16144-0.64324-0.16145-0.64324 0.17689-0.94292 0.1769-0.94292h0.47247l0.16191 0.74226 0.16192 0.74226 0.0956 11.066-0.2859 0.50701-0.28589 0.50701zm0.27353-4.0256-0.17994-0.17994v0.71976l0.35988-0.35988zm7.3475 3.0401 2.1894-3.0779v-0.85617l-4.2655-10.667-0.6796-1.4845h-0.72308l2e-3 0.6073 2e-3 0.6073 1.0714 3.5088 2e-3 0.17716 2e-3 0.17716-1.0796-0.28233v1.2301l0.90918 2.8842-1.0145 0.74182 0.32763 1.7781 0.32764 1.7781 0.3535 0.92122-0.86398-0.33154-0.56862 0.68514 0.55836 3.4664 0.25098 1.2146h1.0092zm-2.8126 2.2543-0.18086-0.29264-0.12539-1.6686-0.12539-1.6686 0.76967 0.94469h0.41556l-0.31584-2.2942-0.19077-1.2146-0.19078-1.2146 0.91014 0.7517 0.16415-0.16415 0.16415-0.16415-0.5453-2.1713-0.54529-2.1713 0.44203-0.27319 0.34452 0.55743 0.43408-0.26828-0.6926-2.9795h0.40448l0.69902 1.4845 2.6266 6.4413v1.0155l-1.9146 2.6816-1.9146 2.6816-0.22607 0.13972-0.22608 0.13972zm2.2942-3.213 1.6282-2.2546v-0.71241l-1.6612-4.1817-0.26098-0.42227-0.97758 0.52318 0.43123 1.8023 0.43124 1.8023-1.1093 0.73653 0.3449 1.6736 0.34489 1.6736-0.57838 0.69691h-0.74364v0.71976l0.35988 0.35988 0.1626-0.16254zm-0.53112 6.7828v-0.52954l3.6353-3.5298 0.1702 0.17012-0.67901 1.0438-0.67902 1.0438-0.82248 1.174-1.6249 1.157zm5.5332-6.2551 0.16682-0.26991h0.23805v0.53982h-0.57168z"/></svg>
