<svg version="1.1" viewBox="0 0 57 57" xmlns="http://www.w3.org/2000/svg"><path d="m17.5 0.5c-0.50668-3.431e-4 -0.99461 0.19162-1.3652 0.53711l-15 14c-0.40523 0.37856-0.63511 0.90835-0.63477 1.4629v38c1.104e-4 1.1045 0.89548 1.9999 2 2h37c0.50668 3.43e-4 0.99461-0.19162 1.3652-0.53711l15-14c0.40523-0.37856 0.63511-0.90835 0.63477-1.4629v-38c-1.1e-4 -1.1045-0.89548-1.9999-2-2z" fill="none" stroke="#000"/><path d="m19.752 4.5c-0.52372 6.62e-5 -1.0265 0.20553-1.4004 0.57227l-13.252 13c-0.38346 0.3761-0.59954 0.89062-0.59961 1.4277v31c1.104e-4 1.1045 0.89548 1.9999 2 2h30.748c0.52372-6.6e-5 1.0265-0.20553 1.4004-0.57227l13.252-13c0.38346-0.3761 0.59954-0.89062 0.59961-1.4277v-31c-1.1e-4 -1.1045-0.89548-1.9999-2-2z"/></svg>
