<?xml version="1.0" encoding="UTF-8"?>
<svg width="40" height="40" version="1.1" viewBox="0 0 10.583 10.583" xmlns="http://www.w3.org/2000/svg">
 <g transform="translate(.0045972 -.34144)" fill="#000000">
  <path d="m8.4194 2.1149c-0.10969-1.929e-4 -0.22562 0.00939-0.34911 0.029988-1.9758 0.32962-1.8904 2.6271-1.8904 2.6271s-0.0022 1.0173 0.94888 1.5317c0.7903 0.45505 1.2445-0.037272 1.3223-0.11486 0.077783-0.077586 1.6835-2.0879 1.4253 1.7308 0 0 0.56551-0.61522 0.6009-2.0805 0.035388-1.4653-0.90587-1.5543-0.90587-1.5543 0 0-0.41643-0.10443-1.2431 0.78875-0.82667 0.89317-0.88437 0.85325-0.88437 0.85325s-0.23342 0.16449-0.26084-0.24953c-0.027417-0.41401-0.11705-1.6689 1.1452-2.3481 1.2623-0.67926 1.8751 0.98452 1.8751 0.98452s-0.13872-2.1959-1.784-2.1988zm-3.5403 0.94944a0.6709 0.89473 77.92 0 0-0.25179 0.026026 0.6709 0.89473 77.92 0 0-0.73443 0.84363 0.6709 0.89473 77.92 0 0 1.0151 0.4685 0.6709 0.89473 77.92 0 0 0.73443-0.84307 0.6709 0.89473 77.92 0 0-0.76329-0.49509zm-4.182 0.28065s-0.56494 0.61598-0.60033 2.0811c-0.035388 1.4651 0.90587 1.5554 0.90587 1.5554s0.41587 0.10443 1.2425-0.78875c0.82667-0.89317 0.88494-0.85325 0.88494-0.85325 0 0 0.23342-0.16449 0.26084 0.24953 0.027417 0.41401 0.11668 1.6689-1.1458 2.3481-1.2625 0.67926-1.8751-0.98452-1.8751-0.98452s0.15736 2.4982 2.1337 2.1688c1.9763-0.32942 1.8898-2.6271 1.8898-2.6271s0.00223-1.0163-0.94944-1.5317c-0.7903-0.45505-1.2445 0.036699-1.3223 0.1143-0.077783 0.077586-1.6828 2.0879-1.4247-1.732zm4.419 1.225a0.68432 0.68432 0 0 0-0.66257 0.89399s0.40021 1.5845 2.5417 1.6352c0 0-1.237-0.88578-1.208-1.8972a0.68432 0.68432 0 0 0-0.67106-0.63202z" fill="#000000"/>
 </g>
</svg>
