<svg width="45.841mm" height="45.812mm" version="1.1" viewBox="0 0 45.841 45.812" xml:space="preserve" xmlns="http://www.w3.org/2000/svg"><path d="m18.374 45.423c-15.107-3.2959-23.086-20.629-15.414-33.484 1.7218-2.8852 2.7714-1.8558 1.1431 1.121-10.351 18.923 13.112 40.16 30.94 28.004 1.0866-0.74085 1.7198-0.70801 1.7198 0.0892 0 2.9458-11.847 5.6965-18.389 4.2694zm22.815-2.8504c-1.4886-1.3448-4.7307-4.4142-7.2045-6.8209-5.1951-5.0541-5.7905-5.4165-7.3842-4.494-5.8742 3.4002-10.445 3.4563-12.754 0.1565-1.2819-1.8321-1.748-2.5984-2.6181-4.3044-0.53308-1.0453-1.0351-2.4145-1.1156-3.0427-0.08048-0.62816-0.35652-1.5616-0.61341-2.0743-0.94605-1.8881-1.8919-6.3477-1.7122-8.0732 0.21026-2.0192-0.08373-2.7913-1.6591-4.3575-1.4724-1.4638-4.1414-5.206-4.8782-6.8398-0.63215-1.4017-0.26254-2.1278 0.47148-0.92623 3.8065 6.2311 6.2973 8.2994 9.3402 7.7556 3.1073-0.5553 8.3566 0.0624 9.9957 1.1763 0.55654 0.37818 1.1658 0.68759 1.354 0.68759 0.18814 0 1.0196 0.23813 1.8476 0.52917 0.82807 0.29104 1.7894 0.52917 2.1362 0.52917 0.9414 0 2.2565 0.7091 2.7143 1.4636 0.22252 0.36675 0.98769 1.0507 1.7004 1.5199 3.6967 2.4337 4.1862 7.3096 1.0464 10.424-2.9634 2.9398-1.6534 5.0662 8.8419 14.352 2.18 1.9288 4.0319 3.6848 4.1153 3.9023 0.63064 1.6434-0.71776 1.0616-3.624-1.5638zm-1.075-5.1397c-0.35462-0.35462-0.15477-0.91988 0.85078-2.4063 13.16-19.453-12.662-43.791-30.794-29.023-2.177 1.7732-3.7313 1.22-1.7012-0.60546 14.105-12.683 37.383-1.5196 37.371 17.923-4e-3 6.8214-3.7606 16.077-5.7269 14.111z"/></svg>
