<?xml version="1.0" encoding="UTF-8"?>
<svg version="1.1" viewBox="0 0 48 48" xmlns="http://www.w3.org/2000/svg">
 <path d="m24 1.45e-6a24 24 0 0 0-24 24 24 24 0 0 0 24 24 24 24 0 0 0 24-24 24 24 0 0 0-24-24zm-5.76 5.75c0.193 0 0.347 0.155 0.347 0.348v17.6h10.7v-17.6c0-0.193 0.155-0.348 0.348-0.348 0.193 0 0.347 0.155 0.347 0.348v17.6h11.9c0.193 0 0.347 0.155 0.347 0.347s-0.155 0.348-0.347 0.348h-17.6v17.6c0 0.193-0.155 0.347-0.347 0.347-0.193 0-0.348-0.155-0.348-0.347v-17.6h-17.6c-0.193 0-0.347-0.155-0.347-0.348 0-0.193 0.155-0.347 0.347-0.347h11.8v-17.6c0-0.193 0.155-0.348 0.348-0.348zm5.56 7.83c0.613 0 1.14 0.161 1.58 0.472 0.121 0.101 0.191 0.141 0.211 0.141 0.0302 0 0.0802-0.05 0.161-0.171l0.1-0.161c0.0503-0.0803 0.101-0.13 0.151-0.151 0.0402-0.0201 0.141-0.0301 0.302-0.0301h0.201c0.0905 0 0.151 0.02 0.171 0.0402 0.0201 0.0301 0.0402 0.0902 0.0402 0.181v1.95c0 0.101-0.02 0.181-0.0502 0.221-0.0302 0.0502-0.0907 0.0702-0.191 0.0702h-0.372c-0.0704 0-0.12-0.03-0.141-0.0903-0.0302-0.0603-0.0502-0.141-0.0602-0.252-0.0101-0.111-0.0206-0.181-0.0206-0.211-0.131-0.402-0.372-0.714-0.724-0.945-0.362-0.231-0.744-0.352-1.16-0.352-0.483 0-0.845 0.0902-1.09 0.261-0.241 0.171-0.362 0.402-0.362 0.704 0 0.271 0.0806 0.503 0.241 0.684 0.161 0.181 0.382 0.322 0.643 0.423 0.261 0.101 0.543 0.191 0.865 0.271 0.322 0.0804 0.634 0.181 0.955 0.292 0.322 0.111 0.613 0.241 0.875 0.402 0.261 0.161 0.473 0.392 0.634 0.694 0.161 0.302 0.252 0.664 0.252 1.09 0 0.704-0.272 1.26-0.805 1.66-0.543 0.402-1.25 0.603-2.11 0.603-0.734 0-1.34-0.181-1.81-0.563-0.111-0.0704-0.171-0.111-0.191-0.111-0.0302 0-0.0802 0.0706-0.151 0.201-0.0201 0.0301-0.0401 0.0702-0.0602 0.12-0.0201 0.0502-0.0402 0.0803-0.0502 0.1-0.0201 0.0201-0.0401 0.0507-0.0602 0.0808-0.0302 0.0302-0.0707 0.0501-0.111 0.0602-0.0402 0.0101-0.1 0.0101-0.161 0.0101h-0.272c-0.111 0-0.181-0.0101-0.211-0.0401-0.0402-0.0201-0.0502-0.0706-0.0502-0.141v-0.1c0-0.0402 0.0101-0.0802 0.0101-0.12v-1.87c0-0.02-0.0101-0.0601-0.0101-0.1v-0.0903c0-0.0603 0.0099-0.101 0.0402-0.121 0.0302-0.0201 0.0907-0.0301 0.191-0.0301h0.272c0.111 0 0.181 0.02 0.221 0.0401 0.0402 0.0302 0.0607 0.101 0.0708 0.201 0.0101 0.101 0.0201 0.181 0.0402 0.221 0.121 0.432 0.392 0.794 0.804 1.1 0.402 0.302 0.865 0.442 1.39 0.442 0.593 0 1.03-0.121 1.3-0.362 0.271-0.241 0.412-0.553 0.412-0.935 0-0.292-0.0906-0.543-0.252-0.744-0.161-0.201-0.372-0.352-0.634-0.462-0.261-0.101-0.543-0.201-0.854-0.282-0.322-0.0804-0.634-0.171-0.945-0.272-0.322-0.101-0.603-0.221-0.864-0.362-0.261-0.141-0.473-0.352-0.634-0.634-0.161-0.271-0.241-0.603-0.241-1.01 0-0.664 0.231-1.17 0.714-1.51 0.483-0.342 1.08-0.513 1.8-0.513zm8.31 0.0803c0.0201 0 0.0702 0.0101 0.131 0.0101 0.0603 0.0101 0.101 0.0101 0.141 0.0101h3.3c0.945 0 1.65 0.181 2.11 0.533 0.463 0.362 0.704 0.865 0.704 1.53 0 0.684-0.242 1.24-0.714 1.65-0.483 0.412-1.18 0.613-2.1 0.613h-0.985c-0.0603 0-0.101-0.0101-0.121-0.0101-0.141 0-0.201 0.07-0.201 0.211v2.02c0 0.121 0.0099 0.191 0.0502 0.211 0.0302 0.02 0.121 0.0301 0.272 0.0301h0.523c0.0302 0 0.0802 5.9e-5 0.141-0.0101 0.0603 0 0.101-0.0101 0.131-0.0101 0.121 0 0.191 0.06 0.191 0.171v0.322c0 0.141-0.0201 0.221-0.0402 0.241-0.0201 0.03-0.0902 0.0401-0.211 0.0401h-3.28c-0.121 0-0.191-0.0101-0.211-0.0401-0.0201-0.0301-0.0306-0.121-0.0306-0.262v-0.201c0-0.121 0.0105-0.191 0.0306-0.211 0.0201-0.0201 0.0701-0.0401 0.171-0.0401h0.714c0.131 0 0.201-0.0605 0.201-0.191 0-0.0201-0.0101-0.0601-0.0101-0.12v-5.43c0-0.131-0.02-0.211-0.0502-0.241-0.0402-0.0301-0.141-0.0502-0.302-0.0502h-0.523c-0.121 0-0.181-0.0101-0.201-0.0301-0.0201-0.0201-0.0306-0.0801-0.0306-0.201v-0.362c0-0.121 0.0605-0.181 0.201-0.181zm-22.8 0.0101c0.0201 0 0.0501 0.0101 0.1 0.0101h3.82c0.804 0 1.46 0.161 1.96 0.462 0.503 0.312 0.754 0.774 0.754 1.4 0 0.955-0.563 1.55-1.67 1.77 0.613 0.0906 1.1 0.282 1.45 0.583 0.342 0.302 0.523 0.704 0.523 1.22 0 0.724-0.262 1.26-0.765 1.6-0.513 0.342-1.2 0.513-2.05 0.513h-3.81c-0.0402 0-0.1 0.0101-0.161 0.0101h-0.131c-0.0804 0-0.141-0.0101-0.171-0.0502-0.0402-0.0402-0.0502-0.111-0.0502-0.221v-0.231c0-0.121 0.0101-0.191 0.0301-0.221 0.0201-0.0201 0.0707-0.0401 0.161-0.0401h0.482c0.211 0 0.332-0.0101 0.372-0.0502 0.0402-0.0402 0.0602-0.171 0.0602-0.393v-5.39c0-0.0804-0.0101-0.141-0.0301-0.161-0.0201-0.0202-0.0501-0.0402-0.11-0.0402h-0.754c-0.101 0-0.161 2.8e-5 -0.181-0.0201-0.0201-0.0101-0.0301-0.0501-0.0301-0.131v-0.332c0-0.111 0.00993-0.181 0.0402-0.221 0.0201-0.0402 0.0807-0.0602 0.161-0.0602zm2.55 0.764c-0.141 0-0.231 0.0201-0.252 0.0502-0.0302 0.0301-0.0402 0.121-0.0402 0.272v1.79c0 0.181 0.0099 0.292 0.0502 0.332 0.0302 0.0503 0.111 0.0702 0.231 0.0702h1.38c0.865 0 1.31-0.412 1.31-1.26 0-0.835-0.443-1.26-1.31-1.26zm22.8 0c-0.151 0-0.241 0.02-0.272 0.0402-0.0402 0.0201-0.0502 0.0907-0.0502 0.201v2.16c0 0.201 0.0099 0.312 0.0402 0.352 0.0302 0.0402 0.121 0.0602 0.282 0.0602h0.985c0.422 0 0.744-0.131 0.965-0.402 0.221-0.271 0.342-0.643 0.342-1.11 0-0.865-0.443-1.31-1.31-1.31zm-22.9 3.27c-0.111 0-0.181 0.02-0.211 0.0602-0.0402 0.0402-0.0502 0.151-0.0502 0.312v2.15c0 0.101 0.02 0.171 0.0602 0.201 0.0402 0.0301 0.131 0.0401 0.282 0.0401h1.42c0.402 0 0.744-0.111 1.01-0.352 0.261-0.231 0.402-0.583 0.402-1.06 0-0.463-0.131-0.804-0.392-1.03-0.261-0.221-0.603-0.332-1.02-0.332zm7.33 9.44v5.06e-4c0.0536 0 0.101 0.0133 0.128 0.0401 0.0268 0.0268 0.0402 0.0675 0.0402 0.135v0.375c0 0.0804-0.0133 0.128-0.0402 0.141-0.0268 0.0198-0.0872 0.0266-0.188 0.0266h-0.154c-0.107 0-0.154 0.0265-0.154 0.0667 0 0.0268 0.0063 0.0736 0.0332 0.154l0.503 1.53c0.0938 0.295 0.161 0.516 0.201 0.664 0.0804 0.302 0.127 0.449 0.147 0.449 0.0135 0 0.0672-0.114 0.148-0.349 0.107-0.335 0.208-0.616 0.288-0.844l0.463-1.33c0.0469-0.147 0.0733-0.228 0.0733-0.248 0-0.0402-0.0264-0.0604-0.0733-0.0738-0.0536-0.0133-0.155-0.0201-0.309-0.0201-0.127 0-0.201-0.0068-0.228-0.0336-0.0268-0.0201-0.0402-0.0802-0.0402-0.181v-0.208c0-0.134 0.0068-0.215 0.0336-0.241 0.0201-0.0268 0.0872-0.0401 0.208-0.0401h1.68c0.107 0 0.174 0.0132 0.194 0.0266 0.0201 0.0201 0.0336 0.0806 0.0336 0.181v0.376c0 0.0537-0.0132 0.087-0.0266 0.1-0.0201 0.0133-0.0673 0.0206-0.141 0.0206h-0.282c-0.0938 0-0.167 0.013-0.207 0.0331-0.0402 0.0268-0.0671 0.0468-0.0738 0.0602-0.0067 0.0135-0.0269 0.0738-0.0537 0.168l-1.29 3.74c-0.0135 0.0268-0.0202 0.0668-0.0336 0.12-0.0135 0.0537-0.0269 0.087-0.0336 0.1-0.0135 0.0201-0.0268 0.0475-0.0402 0.0743-0.0201 0.0268-0.04 0.0469-0.0668 0.0537-0.0268 0.0135-0.0537 0.0198-0.0939 0.0266-0.0402 0.0133-0.0938 0.013-0.154 0.013h-0.241c-0.0603 0-0.108 2.72e-4 -0.141-0.0068-0.0402 0-0.0667-0.0139-0.0868-0.0407-0.0268-0.0269-0.0405-0.0399-0.0472-0.0467-0.0067-0.0068-0.0197-0.0402-0.0332-0.0938l-0.0336-0.1-0.617-1.63c-0.134-0.349-0.228-0.637-0.288-0.864-0.0536-0.201-0.1-0.309-0.127-0.309-0.0268 0-0.067 0.0872-0.134 0.248-0.201 0.496-0.309 0.778-0.335 0.845l-0.711 1.69c-0.0135 0.0201-0.0197 0.0468-0.0332 0.0803l-0.0271 0.0667c-0.0067 0.0135-0.0132 0.0271-0.0266 0.0472-0.0135 0.0269-0.0202 0.0399-0.0336 0.0467-0.0135 0.0068-0.0268 0.0137-0.0402 0.0271-0.0201 0.0135-0.0405 0.0266-0.0673 0.0266-0.0268 0-0.0535 0.0068-0.0803 0.0068-0.0335 0.0068-0.0737 0.0068-0.114 0.0068h-0.302c-0.0469 0-0.0872-2.34e-4 -0.114-0.0068-0.0268 0-0.0534-0.013-0.0668-0.0331-0.0201-0.02-0.0336-0.0332-0.0336-0.0466-0.0067-0.0135-0.0132-0.0336-0.0266-0.0738-0.0135-0.0402-0.0204-0.0672-0.0271-0.0873l-1.39-3.84c-0.0135-0.02-0.0202-0.0534-0.0336-0.1-0.0135-0.0469-0.0269-0.0804-0.0336-0.0938-0.0067-0.0135-0.0201-0.0269-0.0402-0.0537-0.0268-0.0201-0.0533-0.0333-0.0868-0.0401-0.0335-0.0068-0.0804-0.0136-0.134-0.0136h-0.201c-0.114 0-0.181-0.0068-0.201-0.0266-0.0268-0.0135-0.0332-0.0673-0.0332-0.161v-0.355c0-0.107 0.0469-0.168 0.154-0.168 0.0135 0 0.047 0.0068 0.0939 0.0068h2.15c0.0402 0 0.0669-0.0068 0.0803-0.0068 0.0469 0 0.0806 0.0133 0.107 0.0401 0.0201 0.0268 0.0332 0.0738 0.0332 0.148v0.322c0 0.0938-0.0132 0.154-0.0266 0.174-0.0135 0.0198-0.0603 0.0266-0.134 0.0266h-0.268c-0.161 0-0.235 0.0337-0.235 0.0873 0 0.0201 1.48e-4 0.0394 0.0136 0.0663 0.0135 0.0268 0.0271 0.0601 0.0472 0.1 0.0135 0.0402 0.0268 0.0806 0.0402 0.107l0.53 1.51c0.0201 0.067 0.0533 0.188 0.107 0.348 0.0536 0.161 0.101 0.295 0.141 0.396 0.0268 0.0938 0.06 0.141 0.0868 0.141 0.0133 0 0.0605-0.0804 0.134-0.241 0.0135-0.027 0.047-0.114 0.114-0.262 0.0603-0.141 0.107-0.248 0.134-0.322l0.583-1.37c0.0402-0.0938 0.0602-0.161 0.0602-0.188 0-0.0268-0.0135-0.0737-0.0336-0.134l-0.0537-0.141c-0.0268-0.067-0.0936-0.101-0.201-0.101h-0.221c-0.067 0-0.107-0.0068-0.127-0.0266-0.0201-0.0135-0.0271-0.0464-0.0271-0.0934v-0.0743c0-0.0335 0.0065-0.0605 0.0065-0.0873v-0.201c0-0.0938 0.0068-0.161 0.0336-0.188 0.0201-0.0268 0.0605-0.0396 0.128-0.0396 0.0135 0 0.0336 0.0068 0.0738 0.0068h1.72c0.0268 0 0.0603 2.71e-4 0.114-0.0068 0.0469 0 0.0806-0.0068 0.107-0.0068zm7.35 0.0068c0.0135 0 0.0404 0.0068 0.0874 0.0068h2c0.0804 0 0.134 0.0132 0.161 0.0266 0.0268 0.0201 0.0535 0.067 0.0803 0.134l0.55 1.76c0.134 0.416 0.228 0.757 0.295 1.02 0.0603 0.268 0.107 0.396 0.148 0.396 0.0402 0 0.0941-0.12 0.161-0.368 0.067-0.268 0.181-0.596 0.328-0.992l0.556-1.52c0.0135-0.0335 0.0268-0.0807 0.0402-0.141 0.0135-0.0536 0.0338-0.1 0.0472-0.127 0.0135-0.0268 0.0269-0.0603 0.0537-0.0938 0.0268-0.0335 0.06-0.0604 0.107-0.0738 0.0402-0.0133 0.1-0.0201 0.174-0.0201h1.73c0.0402 0 0.0738-0.0068 0.0939-0.0068 0.0536 0 0.0942 0.0204 0.121 0.0472 0.0268 0.0268 0.0402 0.087 0.0402 0.174v0.248c0 0.121-0.0133 0.188-0.0402 0.208-0.0268 0.0268-0.101 0.0336-0.228 0.0336h-0.188c-0.107 0-0.181 0.0132-0.208 0.0266-0.0268 0.0135-0.0402 0.0536-0.0402 0.114v0.0803c0 0.0402 0.0065 0.067 0.0065 0.0938l0.114 2.87v0.215c0 0.0804 0.0137 0.141 0.0472 0.174 0.0268 0.0335 0.0936 0.0467 0.201 0.0467h0.349c0.0804 0 0.127 0.0137 0.154 0.0271 0.0201 0.0201 0.0332 0.0533 0.0332 0.107v0.389c0 0.0871-0.013 0.141-0.0332 0.154-0.0268 0.0198-0.0875 0.0266-0.195 0.0266h-2.27c-0.0268 0-0.0533 0.0068-0.0868 0.0068h-0.0738c-0.0469 0-0.0808-0.0068-0.101-0.0271-0.0201-0.0201-0.0266-0.06-0.0266-0.127v-0.396c0-0.067 0.0068-0.107 0.0336-0.128 0.0268-0.0201 0.0872-0.0336 0.188-0.0336h0.322c0.0938 0 0.154-0.0068 0.187-0.0331 0.0335-0.0268 0.0537-0.0672 0.0537-0.128 0-0.0135-0.0065-0.0467-0.0065-0.1-0.0067-0.0536-0.0065-0.0938-0.0065-0.134l-0.0537-1.57-0.0069-0.348c-0.0067-0.235-0.0133-0.436-0.0201-0.603-0.0135-0.161-0.0268-0.248-0.0402-0.248-0.0268 0-0.0735 0.141-0.141 0.409-0.101 0.375-0.168 0.624-0.208 0.737l-0.818 2.43c-0.0135 0.0268-0.0202 0.0668-0.0336 0.12-0.0135 0.0604-0.0268 0.101-0.0402 0.128-0.0133 0.0268-0.0338 0.0535-0.0673 0.0803-0.0402 0.0268-0.0869 0.0336-0.141 0.0336h-0.503c-0.107 0-0.174-0.0068-0.201-0.0266-0.0335-0.0135-0.0671-0.0673-0.0939-0.161l-0.778-2.37c-0.154-0.469-0.268-0.831-0.342-1.07-0.0804-0.268-0.141-0.402-0.168-0.402-0.0201 0-0.0334 0.1-0.0402 0.301-0.0133 0.201-0.0201 0.436-0.0201 0.704-0.0067 0.268-0.0065 0.402-0.0065 0.402l-0.0537 1.46c0 0.0268-0.0069 0.0668-0.0136 0.12-0.0067 0.0536-0.0065 0.0938-0.0065 0.114 0 0.0602 0.0135 0.101 0.0537 0.128 0.0335 0.0263 0.107 0.0331 0.214 0.0331h0.409c0.0402 0 0.0669 0.0137 0.0803 0.0271 0.0133 0.0135 0.0201 0.0536 0.0201 0.114v0.429c0 0.0536-0.0135 0.094-0.0336 0.107-0.0268 0.0198-0.0737 0.0266-0.154 0.0266h-1.81c-0.0268 0-0.0607 0.0068-0.101 0.0068h-0.0733c-0.0536 0-0.0873-0.0068-0.107-0.0336-0.0268-0.0268-0.0336-0.0738-0.0336-0.148v-0.308c0-0.107 0.0068-0.168 0.0336-0.188 0.0201-0.0201 0.0937-0.0331 0.214-0.0331h0.335c0.0804 0 0.134-0.0139 0.161-0.0407 0.0268-0.0268 0.0402-0.08 0.0402-0.147v-0.168l0.141-2.95c0.0067-0.107 0.0136-0.168 0.0136-0.195 0-0.0402-0.0139-0.0737-0.0407-0.0938-0.0268-0.0135-0.0867-0.0266-0.167-0.0266h-0.309c-0.107 0-0.168-0.0068-0.188-0.0271-0.0268-0.0135-0.0332-0.0671-0.0332-0.148v-0.328c0-0.0804 0.0063-0.141 0.0332-0.168 0.0268-0.0268 0.0672-0.0396 0.128-0.0396z" fill="#000000" stroke-width=".971"/>
</svg>
