<svg version="1.1" viewBox="0 0 48 48" xmlns="http://www.w3.org/2000/svg">
 <path d="m24 0a24 24 0 0 0-24 24 24 24 0 0 0 24 24 24 24 0 0 0 24-24 24 24 0 0 0-24-24zm-5.87 5.75h0.105c0.193 0 0.348 0.155 0.348 0.348v17.6h10.7v-17.6c0-0.193 0.155-0.348 0.348-0.348 0.193 0 0.348 0.155 0.348 0.348v17.6h11.9c0.193 0 0.346 0.156 0.346 0.348s-0.154 0.348-0.346 0.348h-17.6v17.6c0 0.193-0.154 0.348-0.346 0.348-0.193 0-0.348-0.156-0.348-0.348v-17.6h-17.6c-0.193 0-0.346-0.155-0.346-0.348s0.154-0.348 0.346-0.348h11.8v-17.6c0-0.193 0.155-0.348 0.348-0.348zm5.66 7.83c0.491-0.00196 0.988 0.109 1.41 0.363 0.521 0.625 0.777-0.659 1.47-0.223 0.0879 0.612 0.0154 1.25 0.0391 1.87 0.174 0.51-0.415 0.717-0.754 0.463-0.0305-0.948-0.878-1.71-1.81-1.75-0.947-0.259-2.15 0.717-1.37 1.64 0.804 0.73 1.99 0.686 2.92 1.17 1.49 0.501 1.77 2.78 0.496 3.66-1.17 0.794-2.91 0.864-4.05-0.043-0.228 0.29-0.691 0.798-1.18 0.453-0.00494-0.655 0.00296-1.31 0-1.97-0.218-0.547 0.418-0.713 0.762-0.438 0.107 1.26 1.48 2.09 2.67 1.87 1.01 0.035 1.7-1.22 1.04-2.02-0.754-0.787-1.95-0.736-2.89-1.18-0.878-0.26-1.41-1.19-1.27-2.08 0.0598-1.24 1.41-1.83 2.5-1.78zm8.31 0.0801c0.667 0.0415 1.34 0.00947 2.01 0.0195 1.26 0.0535 2.69-0.23 3.76 0.604 1.15 1 0.623 3.15-0.854 3.53-0.833 0.318-1.76 0.11-2.6 0.236-0.108 0.585-0.0178 1.21-0.0469 1.81-0.135 0.516 0.226 0.697 0.689 0.607 0.576-0.26 0.814 0.373 0.51 0.744-0.984 0.0212-1.97 0.00386-2.95 0.00976-0.53 0.124-0.887-0.163-0.682-0.715 0.336-0.136 0.793 0.0974 1.07-0.145 0.00761-1.74 0.00171-3.48 0.00391-5.22 0.126-0.533-0.189-0.828-0.719-0.709-0.498 0.215-0.53-0.709-0.189-0.775zm-22.8 0.00977c0.174 0.0206 0.351 0.00491 0.525 0.00977 1.41 0.0278 2.83-0.0658 4.24 0.0664 0.923 0.107 1.94 0.755 1.87 1.8 0.217 1-1.15 1.71-1.56 1.79 1.03 0.0846 2.07 0.929 1.85 2.05-0.0307 1.07-1.09 1.71-2.05 1.8-1.39 0.101-2.8 0.0288-4.19 0.0508-0.372-0.00542-1.02 0.152-0.877-0.439-0.0757-0.668 0.937-0.0154 1.09-0.492 0.035-1.81 0.00583-3.63 0.0156-5.45 0.139-0.527-0.404-0.409-0.738-0.41-0.501 0.21-0.483-0.705-0.166-0.771zm26.5 0.744c-0.0583-8.73e-4 -0.118 0.00347-0.18 0.0117l-0.146 0.00195c-0.376 0.0445-0.839-0.0922-1.15 0.113-0.0238 0.747-0.00311 1.49-0.00976 2.24-0.149 0.648 0.606 0.427 0.994 0.465 0.699 0.104 1.47-0.265 1.57-1.03 0.265-0.794-0.203-1.79-1.08-1.81zm-22.4 0.00391c-0.0559-9.6e-5 -0.113 0.00334-0.172 0.0117l-0.533 0.00195c-0.363 0.0554-0.871-0.127-1.12 0.143 0.00682 0.766-0.0577 1.55 0.041 2.3 0.351 0.141 0.762 0.0398 1.14 0.0703 0.667 0.0424 1.58-0.0208 1.73-0.828 0.265-0.782-0.253-1.7-1.09-1.7zm0.0449 3.27c-0.0598-0.00166-0.121 6.21e-4 -0.184 0.00781l-1.35 0.00977c-0.589-0.116-0.381 0.599-0.418 0.957 0.0326 0.586-0.0698 1.2 0.0605 1.77 0.403 0.0769 0.822 0.0229 1.23 0.0391 0.719 0.0642 1.64-0.103 1.82-0.926 0.307-0.846-0.272-1.83-1.17-1.86zm5.66 9.46-0.0156 0.00195c0.411 0.265 0.104 0.87-0.367 0.785 0.269 0.939 0.608 1.86 0.883 2.8 0.353-0.91 0.67-1.84 0.973-2.77-0.44-0.0395-0.84-0.201-0.617-0.758 0.339-0.0805 0.703-0.0205 1.05-0.0391 0.342 0.0715 0.961-0.177 1.06 0.207 0.165 0.58-0.37 0.451-0.73 0.59-0.414 1.22-0.839 2.44-1.26 3.66-0.0104 0.563-0.576 0.816-1.03 0.539-0.365-0.999-0.757-1.99-1.1-3-0.409 0.877-0.748 1.8-1.14 2.69-0.0521 0.482-0.598 0.451-0.947 0.363-0.536-1.4-1.03-2.83-1.54-4.24-0.451-0.0735-0.949-0.253-0.609-0.805 0.796-0.0165 1.6 0.00558 2.39-0.0117 0.385 0.365 0.0148 0.875-0.51 0.762 0.245 0.848 0.597 1.71 0.865 2.56 0.292 0.209 0.462-0.839 0.684-1.19 0.124-0.424 0.503-0.837 0.359-1.28-0.373-0.169-0.79-0.243-0.555-0.82 0.696-0.0797 1.43 0.00524 2.14-0.0449zm9.29 0.00586c0.197 0.00536 0.363 0.0607 0.414 0.285 0.332 1.02 0.615 2.06 0.957 3.06 0.291-0.691 0.493-1.44 0.775-2.14 0.188-0.381 0.214-0.878 0.518-1.17 0.687-0.0438 1.38-0.0178 2.07-0.0137 0.342 0.505-0.132 0.787-0.604 0.762 0.00328 0.864 0.0639 1.73 0.0898 2.6 0.0934 0.307-0.164 0.915 0.27 0.957 0.485-0.134 0.653 0.261 0.502 0.678-0.627 0.0599-1.26 0.012-1.89 0.0273-0.3-0.0654-0.92 0.197-0.861-0.281-0.174-0.588 0.49-0.328 0.77-0.508-0.0239-1.02-0.0354-2.06-0.119-3.08-0.343 1.15-0.731 2.29-1.12 3.43 0.00889 0.615-0.686 0.581-1.09 0.432-0.467-1.31-0.838-2.66-1.33-3.95-0.104 0.737-0.0474 1.49-0.0977 2.24 0.078 0.337-0.29 1.06 0.268 1.02 0.485-0.151 0.55 0.311 0.432 0.678-0.442 0.055-0.891 0.0116-1.34 0.0254-0.293-0.0839-0.858 0.192-0.941-0.174-0.165-0.574 0.339-0.531 0.742-0.57 0.103-0.829 0.0871-1.69 0.146-2.54-0.0654-0.351 0.281-1.07-0.26-1.04-0.49 0.218-0.593-0.591-0.258-0.717 0.451 0.0183 0.905 0.00255 1.36 0.00781 0.171 0.0287 0.397-0.0151 0.594-0.00976z"/>
</svg>
