<?xml version="1.0" encoding="UTF-8" standalone="no"?>
<svg
   height="186.74606"
   viewBox="0 0 49.409897 49.409896"
   width="186.74606"
   version="1.1"
   id="svg12"
   sodipodi:docname="bspwm.svg"
   inkscape:version="1.2.2 (b0a8486541, 2022-12-01)"
   xmlns:inkscape="http://www.inkscape.org/namespaces/inkscape"
   xmlns:sodipodi="http://sodipodi.sourceforge.net/DTD/sodipodi-0.dtd"
   xmlns="http://www.w3.org/2000/svg"
   xmlns:svg="http://www.w3.org/2000/svg">
  <defs
     id="defs16" />
  <sodipodi:namedview
     id="namedview14"
     pagecolor="#ffffff"
     bordercolor="#000000"
     borderopacity="0.25"
     inkscape:showpageshadow="2"
     inkscape:pageopacity="0.0"
     inkscape:pagecheckerboard="0"
     inkscape:deskcolor="#d1d1d1"
     showgrid="false"
     inkscape:zoom="4.4552479"
     inkscape:cx="67.448548"
     inkscape:cy="93.709713"
     inkscape:window-width="1920"
     inkscape:window-height="1011"
     inkscape:window-x="0"
     inkscape:window-y="32"
     inkscape:window-maximized="1"
     inkscape:current-layer="svg12" />
  <g
     transform="translate(5.914112 -253.86182)"
     id="g10"
     style="fill:#000000">
    <path
       id="circle2"
       style="fill:#000000"
       d="M 18.79084 253.86182 A 24.704948 24.704948 0 0 0 -5.914112 278.56677 A 24.704948 24.704948 0 0 0 18.79084 303.27172 A 24.704948 24.704948 0 0 0 43.495793 278.56677 A 24.704948 24.704948 0 0 0 18.79084 253.86182 z M 12.861486 259.77567 C 13.059722 259.77567 13.219087 259.93554 13.219087 260.13379 L 13.219087 278.20917 L 24.209114 278.20917 L 24.209114 260.13379 C 24.209114 259.93554 24.368993 259.77567 24.567232 259.77567 C 24.765468 259.77567 24.924833 259.93554 24.924833 260.13379 L 24.924833 278.20917 L 37.223824 278.20917 C 37.422068 278.20917 37.581425 278.36853 37.581425 278.56677 C 37.581425 278.76501 37.422068 278.92489 37.223824 278.92489 L 19.148958 278.92489 L 19.148958 297.00027 C 19.148958 297.19852 18.989594 297.35787 18.791357 297.35787 C 18.593118 297.35787 18.433239 297.19852 18.433239 297.00027 L 18.433239 278.92489 L 0.35785666 278.92489 C 0.15961264 278.92489 0.00025574797 278.76501 0.00025574797 278.56677 C 0.00025574797 278.36853 0.15961264 278.20917 0.35785666 278.20917 L 12.503369 278.20917 L 12.503369 260.13379 C 12.503369 259.93554 12.66325 259.77567 12.861486 259.77567 z M 18.588785 267.83616 C 19.220157 267.83616 19.758595 268.00158 20.214009 268.32244 C 20.338217 268.42593 20.410867 268.46713 20.431567 268.46713 C 20.462618 268.46713 20.514132 268.41563 20.596932 268.29143 L 20.700284 268.12555 C 20.752037 268.04282 20.804081 267.99122 20.855831 267.97052 C 20.897233 267.94982 21.0008 267.93951 21.166406 267.93951 L 21.373112 267.93951 C 21.46627 267.93951 21.528638 267.96016 21.549328 267.98086 C 21.570028 268.01189 21.590669 268.07379 21.590669 268.16689 L 21.590669 270.17504 C 21.590669 270.27855 21.570043 270.36153 21.538993 270.40293 C 21.507941 270.45463 21.445611 270.47528 21.342106 270.47528 L 20.959183 270.47528 C 20.886728 270.47528 20.835179 270.44436 20.814489 270.38226 C 20.783439 270.32016 20.762828 270.23721 20.752478 270.12336 C 20.742138 270.00951 20.73129 269.9368 20.73129 269.9058 C 20.596736 269.49179 20.348378 269.17131 19.986116 268.93325 C 19.613505 268.69519 19.220373 268.571 18.796008 268.571 C 18.299191 268.571 17.926654 268.66376 17.678247 268.83972 C 17.429838 269.01567 17.30566 269.25371 17.30566 269.56422 C 17.30566 269.84368 17.388616 270.08174 17.554223 270.26805 C 17.719827 270.45435 17.94709 270.59967 18.216198 270.70317 C 18.485307 270.80667 18.775372 270.89942 19.106583 270.98222 C 19.437795 271.06502 19.758775 271.16861 20.089986 271.28246 C 20.421196 271.39631 20.721081 271.53078 20.990189 271.69639 C 21.259297 271.86199 21.476741 272.10005 21.642346 272.41056 C 21.807956 272.72107 21.901245 273.09412 21.901245 273.52884 C 21.901245 274.25336 21.621438 274.82221 21.072872 275.23623 C 20.513951 275.65024 19.78949 275.85738 18.899361 275.85738 C 18.143786 275.85738 17.522892 275.67139 17.036425 275.27808 C 16.92257 275.20558 16.860238 275.16388 16.839538 275.16388 C 16.808487 275.16388 16.756959 275.23655 16.684509 275.3711 C 16.663809 275.40213 16.643197 275.44343 16.622497 275.49513 C 16.601797 275.54688 16.581171 275.57778 16.570821 275.59848 C 16.550121 275.61918 16.529509 275.65068 16.508809 275.68168 C 16.477754 275.71278 16.436004 275.73329 16.394604 275.74369 C 16.353203 275.75406 16.291338 275.75402 16.22924 275.75402 L 15.94967 275.75402 C 15.835816 275.75402 15.763162 275.74368 15.732112 275.71268 C 15.690712 275.69197 15.680436 275.63997 15.680436 275.56747 L 15.680436 275.46412 C 15.680436 275.4227 15.690771 275.3815 15.690771 275.3401 L 15.690771 273.41463 C 15.690771 273.39398 15.680436 273.35268 15.680436 273.31128 L 15.680436 273.21826 C 15.680436 273.15612 15.690727 273.11442 15.721777 273.09372 C 15.752828 273.07302 15.815162 273.06272 15.918664 273.06272 L 16.198234 273.06272 C 16.312088 273.06272 16.38421 273.08336 16.42561 273.10406 C 16.46701 273.13512 16.488124 273.20778 16.498474 273.31128 C 16.508824 273.41478 16.519115 273.49777 16.539815 273.53917 C 16.66402 273.98423 16.943308 274.35676 17.367671 274.66727 C 17.781686 274.97778 18.257789 275.12254 18.796008 275.12254 C 19.406677 275.12254 19.851867 274.99836 20.131327 274.74995 C 20.410787 274.50154 20.55559 274.18053 20.55559 273.78722 C 20.55559 273.48706 20.462295 273.22838 20.296692 273.02137 C 20.131086 272.81436 19.913644 272.65929 19.644535 272.54543 C 19.375425 272.44193 19.085863 272.33833 18.765002 272.25553 C 18.43379 272.17273 18.112796 272.07947 17.791935 271.97596 C 17.460723 271.87246 17.171174 271.74828 16.902067 271.60337 C 16.632957 271.45847 16.415517 271.24103 16.24991 270.95122 C 16.084297 270.67176 16.001346 270.33016 16.001346 269.91614 C 16.001346 269.23302 16.23937 268.71569 16.736185 268.36378 C 17.233002 268.01187 17.843561 267.83616 18.588785 267.83616 z M 27.147953 267.91884 C 27.168654 267.91884 27.220212 267.92918 27.282312 267.92918 C 27.344421 267.93945 27.386123 267.93951 27.427523 267.93951 L 30.822147 267.93951 C 31.795079 267.93951 32.52006 268.12606 32.996175 268.48832 C 33.472291 268.86094 33.720679 269.37822 33.720679 270.06135 C 33.720679 270.76517 33.471789 271.33455 32.985323 271.75892 C 32.488507 272.18328 31.774381 272.39041 30.822147 272.39041 L 29.95295 272.39041 L 29.808256 272.39041 C 29.746147 272.39041 29.704406 272.38007 29.683716 272.38007 C 29.53881 272.38007 29.47701 272.4522 29.47701 272.59711 L 29.47701 274.6776 C 29.47701 274.80176 29.487286 274.87446 29.528686 274.89516 C 29.559737 274.91576 29.653001 274.92617 29.808256 274.92617 L 30.346207 274.92617 C 30.377256 274.92617 30.428803 274.92623 30.490901 274.91583 C 30.553008 274.91583 30.594727 274.9055 30.625777 274.9055 C 30.749985 274.9055 30.822147 274.96735 30.822147 275.0812 L 30.822147 275.41244 C 30.822147 275.55735 30.801496 275.64031 30.780806 275.66101 C 30.760105 275.69191 30.687971 275.70235 30.563765 275.70235 L 27.189294 275.70235 C 27.065093 275.70235 26.992943 275.69201 26.972253 275.66101 C 26.951553 275.62996 26.940731 275.53668 26.940731 275.39177 L 26.940731 275.18455 C 26.940731 275.06031 26.951563 274.98821 26.972253 274.96751 C 26.992954 274.94681 27.044453 274.92617 27.147953 274.92617 L 27.882792 274.92617 C 28.017344 274.92617 28.090014 274.86384 28.090014 274.72928 C 28.090014 274.70858 28.079679 274.66736 28.079679 274.60526 L 28.079679 274.46005 L 28.079679 269.01593 C 28.079679 268.88138 28.059053 268.79837 28.028003 268.76737 C 27.986601 268.73637 27.883032 268.71569 27.717427 268.71569 L 27.178959 268.71569 C 27.054754 268.71569 26.992943 268.70539 26.972253 268.68469 C 26.951553 268.66399 26.940731 268.60219 26.940731 268.47798 L 26.940731 268.1054 C 26.940731 267.98115 27.003054 267.91884 27.147953 267.91884 z M 3.6749669 267.92918 C 3.6956675 267.92918 3.7265678 267.93951 3.7783198 267.93951 L 3.9126785 267.93951 L 7.7114131 267.93951 C 8.5394401 267.93951 9.2123776 268.10494 9.7298945 268.41545 C 10.247413 268.73631 10.506075 269.21241 10.506075 269.85413 C 10.506075 270.8374 9.9263702 271.44802 8.7878332 271.67572 C 9.4192041 271.76888 9.9159196 271.96568 10.278181 272.2762 C 10.630093 272.58671 10.81665 273.00097 10.81665 273.52884 C 10.81665 274.27406 10.547134 274.82229 10.029618 275.17421 C 9.5017507 275.52612 8.7984147 275.70235 7.9186356 275.70235 L 3.9953608 275.70235 C 3.9539594 275.70235 3.892098 275.71268 3.8299962 275.71268 L 3.6956375 275.71268 C 3.612835 275.71268 3.5504718 275.70241 3.5194208 275.66101 C 3.478019 275.61961 3.4677444 275.54696 3.4677444 275.43311 L 3.4677444 275.1954 C 3.4677444 275.07119 3.4780493 274.99851 3.4987503 274.96751 C 3.5194508 274.94681 3.5714788 274.92617 3.6646316 274.92617 L 4.1612421 274.92617 C 4.3785993 274.92617 4.5027625 274.91589 4.5441645 274.87449 C 4.5855655 274.83308 4.6061762 274.69809 4.6061762 274.47038 L 4.6061762 268.92292 C 4.6061762 268.84014 4.5958712 268.77774 4.5751704 268.75704 C 4.5544694 268.73624 4.523584 268.71569 4.4614822 268.71569 L 3.6853022 268.71569 C 3.5817986 268.71569 3.5194511 268.71572 3.4987503 268.69502 C 3.4780493 268.68467 3.4677444 268.64346 3.4677444 268.56066 L 3.4677444 268.21908 C 3.4677444 268.10523 3.4780347 268.03259 3.5090855 267.99119 C 3.5297862 267.94979 3.5921641 267.92918 3.6749669 267.92918 z M 6.303747 268.71569 C 6.1588426 268.71569 6.0655491 268.73637 6.0448481 268.76737 C 6.0137971 268.79842 6.003507 268.89169 6.003507 269.04694 L 6.003507 270.8892 C 6.003507 271.0755 6.0137824 271.18939 6.0551834 271.23079 C 6.0862347 271.28259 6.1692077 271.30313 6.2934117 271.30313 L 7.7114131 271.30313 C 8.6015423 271.30313 9.0570674 270.8791 9.0570674 270.00967 C 9.0570674 269.15059 8.6015423 268.71569 7.7114131 268.71569 L 6.303747 268.71569 z M 29.808256 268.71569 C 29.653001 268.71569 29.559736 268.73634 29.528686 268.75704 C 29.487276 268.77774 29.47701 268.85041 29.47701 268.96426 L 29.47701 271.18944 C 29.47701 271.39644 29.487301 271.5103 29.518351 271.5517 C 29.549403 271.5931 29.642651 271.61371 29.808256 271.61371 L 30.822147 271.61371 C 31.256862 271.61371 31.588176 271.47924 31.815885 271.19978 C 32.043593 270.92032 32.167802 270.53746 32.167802 270.06135 C 32.167802 269.17122 31.712279 268.71569 30.822147 268.71569 L 29.808256 268.71569 z M 6.2727412 272.07983 C 6.1588875 272.07983 6.0862344 272.10044 6.0551834 272.14184 C 6.0137814 272.18324 6.003507 272.29715 6.003507 272.46275 L 6.003507 274.6776 C 6.003507 274.7811 6.0241167 274.85383 6.0655187 274.88483 C 6.1069198 274.91583 6.2001683 274.92617 6.3554235 274.92617 L 7.8147659 274.92617 C 8.2287801 274.92617 8.5807362 274.81233 8.8498449 274.56392 C 9.1189538 274.32587 9.2637731 273.96362 9.2637731 273.47716 C 9.2637731 273.00104 9.1292889 272.64912 8.8601802 272.42141 C 8.591071 272.1937 8.2391301 272.07983 7.8147659 272.07983 L 6.2727412 272.07983 z M 13.821634 281.795 L 13.821634 281.79552 C 13.876842 281.79552 13.925293 281.80926 13.952893 281.83686 C 13.980493 281.86446 13.994234 281.90635 13.994234 281.97535 L 13.994234 282.36137 C 13.994234 282.44418 13.980493 282.49278 13.952893 282.50658 C 13.925292 282.52698 13.863126 282.53397 13.759623 282.53397 L 13.600976 282.53397 C 13.49057 282.53397 13.442329 282.5613 13.442329 282.6027 C 13.442329 282.6303 13.448836 282.67855 13.476436 282.76135 L 13.994234 284.33438 C 14.090838 284.63799 14.160056 284.86573 14.201456 285.01754 C 14.284258 285.32805 14.332168 285.48005 14.352868 285.48005 C 14.366668 285.48005 14.421997 285.36239 14.504797 285.12089 C 14.615201 284.77588 14.71862 284.48631 14.80142 284.2517 L 15.277876 282.88537 C 15.326176 282.73357 15.353324 282.65079 15.353324 282.63009 C 15.353324 282.58869 15.326176 282.56793 15.277876 282.55413 C 15.222675 282.54043 15.118772 282.53346 14.960066 282.53346 C 14.828962 282.53346 14.753055 282.52643 14.725455 282.49883 C 14.697855 282.47813 14.684114 282.4163 14.684114 282.3128 L 14.684114 282.09886 C 14.684114 281.96086 14.691137 281.87789 14.718737 281.85029 C 14.739438 281.82269 14.808474 281.80895 14.932678 281.80895 L 16.657637 281.80895 C 16.768044 281.80895 16.836925 281.82254 16.857625 281.83634 C 16.878325 281.85704 16.892248 281.91938 16.892248 282.02289 L 16.892248 282.40943 C 16.892248 282.46468 16.87866 282.49898 16.86486 282.51278 C 16.84416 282.52648 16.795549 282.53397 16.719649 282.53397 L 16.429744 282.53397 C 16.333141 282.53397 16.25772 282.54738 16.21632 282.56808 C 16.17492 282.59568 16.147256 282.61629 16.140356 282.63009 C 16.133456 282.64389 16.112662 282.70609 16.085062 282.80269 L 14.753361 286.6531 C 14.739561 286.68072 14.732537 286.72192 14.718737 286.77712 C 14.704937 286.83237 14.691014 286.86668 14.684114 286.88048 C 14.670314 286.90118 14.656573 286.92936 14.642773 286.95696 C 14.622073 286.98456 14.601643 287.00525 14.574043 287.01225 C 14.546443 287.02605 14.518808 287.03264 14.477408 287.03964 C 14.436007 287.05339 14.380862 287.05308 14.318762 287.05308 L 14.070198 287.05308 C 14.008087 287.05308 13.959487 287.05336 13.924987 287.04636 C 13.883587 287.04636 13.856287 287.0321 13.835587 287.0045 C 13.807997 286.9768 13.793911 286.96344 13.787011 286.95644 C 13.780111 286.94954 13.766705 286.91501 13.752905 286.85981 L 13.718282 286.75645 L 13.083178 285.07955 C 12.945174 284.72074 12.848655 284.42428 12.786556 284.18968 C 12.731355 283.98268 12.683414 283.87187 12.655814 283.87187 C 12.628212 283.87187 12.586838 283.96156 12.517838 284.12716 C 12.310831 284.63778 12.200239 284.92787 12.17264 284.99687 L 11.440901 286.73578 C 11.427101 286.75648 11.420595 286.78397 11.406795 286.81847 L 11.37889 286.88719 C 11.37199 286.90099 11.365301 286.91507 11.351501 286.93577 C 11.337701 286.96347 11.330678 286.97683 11.316878 286.98383 C 11.303078 286.99073 11.289337 286.99793 11.275537 287.01173 C 11.254837 287.02553 11.23389 287.03912 11.20629 287.03912 C 11.17869 287.03912 11.151208 287.04584 11.123608 287.04584 C 11.089103 287.0531 11.047702 287.05308 11.006302 287.05308 L 10.695727 287.05308 C 10.647421 287.05308 10.606022 287.05284 10.578422 287.04584 C 10.550822 287.04584 10.523492 287.03243 10.509692 287.01173 C 10.488992 286.99113 10.475069 286.97748 10.475069 286.96368 C 10.468169 286.94988 10.46148 286.92911 10.44768 286.88771 C 10.43387 286.84631 10.426675 286.81849 10.419775 286.79779 L 8.9847204 282.84403 C 8.9709174 282.82338 8.9639002 282.78898 8.9500972 282.74068 C 8.9362942 282.69238 8.9223739 282.65784 8.915474 282.64404 C 8.908576 282.63024 8.8948338 282.61635 8.8741328 282.58875 C 8.8465318 282.56805 8.8192355 282.55441 8.7847326 282.54741 C 8.7502312 282.54041 8.7019584 282.53346 8.6467565 282.53346 L 8.439534 282.53346 C 8.3222296 282.53346 8.2530125 282.52677 8.2323115 282.50607 C 8.2047055 282.49227 8.1982051 282.43679 8.1982051 282.34019 L 8.1982051 281.97483 C 8.1982051 281.86443 8.246448 281.80223 8.3568517 281.80223 C 8.3706527 281.80223 8.4051847 281.80895 8.4534866 281.80895 L 8.5635574 281.80895 L 10.571704 281.80895 L 10.661621 281.80895 C 10.703021 281.80895 10.730503 281.80223 10.744303 281.80223 C 10.79261 281.80223 10.827291 281.81597 10.85489 281.84357 C 10.87559 281.87117 10.888997 281.9196 10.888997 281.9955 L 10.888997 282.32675 C 10.888997 282.42337 10.875408 282.48537 10.861608 282.50607 C 10.847808 282.52647 10.799532 282.53346 10.723632 282.53346 L 10.44768 282.53346 C 10.282074 282.53346 10.205834 282.56817 10.205834 282.62337 C 10.205834 282.64407 10.205987 282.66399 10.219787 282.69159 C 10.233587 282.71924 10.247663 282.75354 10.268363 282.79494 C 10.282163 282.83633 10.295904 282.87793 10.309704 282.90553 L 10.85489 284.4584 C 10.875591 284.5274 10.909761 284.65144 10.964961 284.81704 C 11.020162 284.98265 11.068772 285.12074 11.110172 285.22425 C 11.137772 285.32085 11.171972 285.36894 11.199572 285.36894 C 11.213357 285.36894 11.261798 285.28613 11.337548 285.12089 C 11.351393 285.09313 11.385964 285.00321 11.454854 284.85166 C 11.51696 284.70674 11.56523 284.59631 11.59283 284.52041 L 12.19331 283.11275 C 12.23471 283.01618 12.255322 282.94708 12.255322 282.91948 C 12.255322 282.89188 12.241399 282.8436 12.220699 282.7815 L 12.165405 282.63681 C 12.137805 282.56784 12.069103 282.53294 11.958699 282.53294 L 11.730806 282.53294 C 11.661805 282.53294 11.620765 282.52625 11.600065 282.50555 C 11.579355 282.49175 11.572159 282.45773 11.572159 282.40943 L 11.572159 282.33295 C 11.572159 282.29845 11.578877 282.27063 11.578877 282.24303 L 11.578877 282.03633 C 11.578877 281.93976 11.585901 281.87066 11.613501 281.84306 C 11.6342 281.81546 11.675759 281.80223 11.744759 281.80223 C 11.758569 281.80223 11.779323 281.80895 11.820723 281.80895 L 11.917358 281.80895 L 13.593741 281.80895 C 13.621346 281.80895 13.655847 281.80923 13.711047 281.80223 C 13.759355 281.80223 13.794035 281.795 13.821634 281.795 z M 21.383447 281.80223 C 21.397247 281.80223 21.425064 281.80947 21.473364 281.80947 L 21.597387 281.80947 L 23.536287 281.80947 C 23.61909 281.80947 23.674568 281.82306 23.702168 281.83686 C 23.729768 281.85756 23.757251 281.90583 23.784851 281.97483 L 24.350708 283.78299 C 24.488712 284.21081 24.585048 284.5624 24.654048 284.83151 C 24.716157 285.10753 24.764577 285.23872 24.805977 285.23872 C 24.847379 285.23872 24.902858 285.11472 24.971858 284.85941 C 25.040858 284.5834 25.158018 284.2454 25.309822 283.83829 L 25.882397 282.27869 C 25.896197 282.24419 25.909928 282.19558 25.923738 282.13348 C 25.937538 282.07824 25.958524 282.03034 25.972314 282.00274 C 25.986114 281.97514 26.000018 281.9406 26.027608 281.9061 C 26.055207 281.8716 26.089379 281.84394 26.137679 281.83014 C 26.179081 281.81644 26.241096 281.80947 26.316996 281.80947 L 27.987178 281.80947 L 28.097249 281.80947 C 28.138649 281.80947 28.173194 281.80223 28.193884 281.80223 C 28.249083 281.80223 28.290834 281.82321 28.318424 281.85081 C 28.346004 281.87841 28.359765 281.94043 28.359765 282.03013 L 28.359765 282.28541 C 28.359765 282.40966 28.346014 282.47865 28.318424 282.49935 C 28.290826 282.52695 28.214917 282.53397 28.083813 282.53397 L 27.890543 282.53397 C 27.780137 282.53397 27.704193 282.54756 27.676603 282.56136 C 27.649023 282.57516 27.635262 282.61657 27.635262 282.67867 L 27.635262 282.76135 C 27.635262 282.80275 27.64198 282.83038 27.64198 282.85798 L 27.759285 285.81129 L 27.759285 286.03247 C 27.759285 286.11529 27.773351 286.17728 27.807861 286.21178 C 27.835462 286.24628 27.904159 286.25984 28.014567 286.25984 L 28.373718 286.25984 C 28.456525 286.25984 28.504775 286.27395 28.532365 286.28775 C 28.553065 286.30843 28.566471 286.34262 28.566471 286.39782 L 28.566471 286.79831 C 28.566471 286.88805 28.553055 286.94316 28.532365 286.95696 C 28.504761 286.97736 28.442262 286.98435 28.33186 286.98435 L 25.999703 286.98435 C 25.972093 286.98435 25.944802 286.99158 25.910302 286.99158 L 25.834338 286.99158 C 25.786038 286.99158 25.751158 286.98438 25.730468 286.96368 C 25.709778 286.94298 25.70308 286.90193 25.70308 286.83293 L 25.70308 286.42572 C 25.70308 286.35676 25.710103 286.31517 25.737703 286.29447 C 25.765301 286.27377 25.827468 286.25984 25.930973 286.25984 L 26.262219 286.25984 C 26.358821 286.25984 26.420452 286.25334 26.454972 286.22574 C 26.489462 286.19814 26.510266 286.15658 26.510266 286.09448 C 26.510266 286.08072 26.503548 286.04633 26.503548 285.99113 C 26.496665 285.93596 26.49683 285.89455 26.49683 285.85315 L 26.441536 284.23826 L 26.434301 283.87963 C 26.427421 283.63812 26.420531 283.43099 26.413631 283.25848 C 26.399821 283.0929 26.3861 283.00319 26.37229 283.00319 C 26.344692 283.00319 26.296596 283.14783 26.227596 283.42384 C 26.124096 283.81025 26.055055 284.06567 26.013655 284.18297 L 25.171846 286.68101 C 25.158046 286.70863 25.151013 286.74983 25.137223 286.80503 C 25.123423 286.86719 25.109692 286.90869 25.095882 286.93629 C 25.082092 286.96389 25.061135 286.99137 25.026635 287.01897 C 24.985233 287.04657 24.937141 287.05359 24.881941 287.05359 L 24.36466 287.05359 C 24.254259 287.05359 24.185038 287.0469 24.157438 287.0262 C 24.122938 287.0124 24.088403 286.95692 24.060803 286.86032 L 23.260335 284.41758 C 23.10163 283.93456 22.984318 283.56217 22.908418 283.31377 C 22.825608 283.03775 22.763419 282.89984 22.735819 282.89984 C 22.715119 282.89984 22.701378 283.00289 22.694478 283.2099 C 22.680718 283.41691 22.673807 283.65891 22.673807 283.93492 C 22.666924 284.21092 22.66709 284.34885 22.66709 284.34885 L 22.611796 285.85315 C 22.611796 285.88077 22.604743 285.92197 22.597843 285.97717 C 22.590961 286.03238 22.591125 286.07378 22.591125 286.09448 C 22.591125 286.15653 22.605019 286.19814 22.646419 286.22574 C 22.680921 286.25284 22.756672 286.25984 22.867077 286.25984 L 23.28824 286.25984 C 23.32964 286.25984 23.357143 286.27395 23.370923 286.28775 C 23.384683 286.30155 23.391593 286.34295 23.391593 286.40505 L 23.391593 286.84637 C 23.391593 286.90155 23.37766 286.94316 23.35697 286.95696 C 23.329368 286.97736 23.281123 286.98435 23.198323 286.98435 L 21.335388 286.98435 C 21.307791 286.98435 21.272918 286.99106 21.231518 286.99106 L 21.156071 286.99106 C 21.100864 286.99106 21.066173 286.98404 21.045483 286.95644 C 21.017863 286.92884 21.01086 286.88041 21.01086 286.80451 L 21.01086 286.48722 C 21.01086 286.37685 21.017883 286.31465 21.045483 286.29395 C 21.066184 286.27325 21.141936 286.25984 21.266141 286.25984 L 21.61134 286.25984 C 21.694145 286.25984 21.749105 286.24558 21.776705 286.21798 C 21.804315 286.19038 21.818046 286.13557 21.818046 286.06657 L 21.818046 285.89397 L 21.963257 282.85798 C 21.970096 282.74757 21.977209 282.68508 21.977209 282.65748 C 21.977209 282.61608 21.962951 282.58154 21.935351 282.56084 C 21.907749 282.54704 21.846069 282.53346 21.763269 282.53346 L 21.445459 282.53346 C 21.335049 282.53346 21.272879 282.52625 21.252189 282.50555 C 21.224579 282.49175 21.218082 282.43642 21.218082 282.35362 L 21.218082 282.01566 C 21.218082 281.93286 21.224589 281.87066 21.252189 281.84306 C 21.27979 281.81546 21.321347 281.80223 21.383447 281.80223 z " />
  </g>
</svg>
