<?xml version="1.0" encoding="UTF-8" standalone="no"?>
<svg
   xmlns:dc="http://purl.org/dc/elements/1.1/"
   xmlns:cc="http://creativecommons.org/ns#"
   xmlns:rdf="http://www.w3.org/1999/02/22-rdf-syntax-ns#"
   xmlns:svg="http://www.w3.org/2000/svg"
   xmlns="http://www.w3.org/2000/svg"
   id="svg2"
   version="1.1"
   viewBox="0 0 175.15235 175.15235"
   height="175.15234pt"
   width="175.15234pt">
  <metadata
     id="metadata26">
    <rdf:RDF>
      <cc:Work
         rdf:about="">
        <dc:format>image/svg+xml</dc:format>
        <dc:type
           rdf:resource="http://purl.org/dc/dcmitype/StillImage" />
        <dc:title></dc:title>
      </cc:Work>
    </rdf:RDF>
  </metadata>
  <defs
     id="defs24" />
  <path
     transform="scale(0.75000004)"
     d="M 111.90625 0 C 85.228288 1.2034275 59.003334 11.640592 39.128906 29.537109 C 15.691858 50.11453 1.4417301 80.475545 0 111.58594 L 0 122.20117 C 1.5251358 153.22816 15.751434 183.48196 39.128906 204.01172 C 58.931842 221.83674 85.026924 232.23836 111.59766 233.53711 L 122.28516 233.53711 C 153.58619 231.96431 184.0759 217.48729 204.59375 193.72852 C 221.89451 174.2592 231.94047 148.8199 233.53711 122.89258 L 233.53711 112.0625 C 232.26218 80.523167 217.71384 49.721961 193.83594 29.025391 C 174.35471 11.67697 148.86755 1.5966266 122.89258 0 L 111.90625 0 z M 143.37109 61.730469 C 145.68828 61.74952 147.99412 61.877606 150.26172 62.089844 C 163.10622 63.531574 176.15392 68.500482 184.82812 78.425781 C 190.71419 84.883777 193.75185 93.378725 194.94336 101.92188 C 198.6728 103.20871 202.42662 104.42509 206.16797 105.65234 C 202.74833 107.59451 199.34035 109.54806 195.99219 111.60938 C 197.04072 128.65991 190.77241 145.59001 180.40625 158.9707 C 169.14645 170.93349 154.16998 179.19202 138.28711 183.18359 C 115.06454 188.97435 89.446933 185.42281 69.083984 172.68555 C 56.227566 164.67859 45.694654 152.77665 39.927734 138.7168 C 34.851891 124.95483 34.910697 109.86983 37.603516 95.607422 C 39.855474 104.24589 46.481658 111.64567 55.060547 114.30273 C 62.948358 116.78109 72.741273 115.89763 78.603516 109.54688 C 91.900794 97.310036 99.89593 80.057969 114.86133 69.548828 C 123.08053 63.604671 133.32997 61.647915 143.37109 61.730469 z "
     style="fill:#404552;stroke-width:1.33333"
     id="path6" />
  <path
     style="fill:#5294e2"
     id="path16"
     d="m 68.53282,89.917494 c 1.858759,-3.306453 5.361806,-5.335001 9.061452,-5.853309 6.827367,-0.750653 13.502816,5.549472 12.582372,12.466201 -1.19747,4.369864 -3.976673,8.882734 -8.614635,10.107004 -11.83172,2.70772 -23.547266,-1.61748 -34.842805,-4.70945 8.319736,-1.17066 17.300762,-4.432428 21.813616,-12.010446 z" />
  <path
     transform="scale(0.75000004)"
     d="M 161.13281 87.037109 C 156.99869 87.037109 153.63867 90.397121 153.63867 94.53125 C 153.63867 98.665378 156.99869 102.02539 161.13281 102.02539 C 165.26696 102.02539 168.63086 98.665378 168.63086 94.53125 C 168.63086 92.949476 168.13455 91.483719 167.29492 90.273438 C 167.42033 90.567473 167.49219 90.889961 167.49219 91.228516 C 167.49219 92.602668 166.34816 93.718749 164.96094 93.71875 C 163.57371 93.718757 162.42773 92.602676 162.42773 91.228516 C 162.42773 89.854356 163.57371 88.74218 164.96094 88.742188 C 165.46682 88.742188 165.93843 88.891909 166.33594 89.146484 C 164.98619 87.843244 163.15328 87.037109 161.13281 87.037109 z "
     style="color:#000000;font-style:normal;font-variant:normal;font-weight:normal;font-stretch:normal;font-size:medium;line-height:normal;font-family:sans-serif;font-variant-ligatures:normal;font-variant-position:normal;font-variant-caps:normal;font-variant-numeric:normal;font-variant-alternates:normal;font-variant-east-asian:normal;font-feature-settings:normal;font-variation-settings:normal;text-indent:0;text-align:start;text-decoration:none;text-decoration-line:none;text-decoration-style:solid;text-decoration-color:#000000;letter-spacing:normal;word-spacing:normal;text-transform:none;writing-mode:lr-tb;direction:ltr;text-orientation:mixed;dominant-baseline:auto;baseline-shift:baseline;text-anchor:start;white-space:normal;shape-padding:0;shape-margin:0;inline-size:0;clip-rule:nonzero;display:inline;overflow:visible;visibility:visible;isolation:auto;mix-blend-mode:normal;color-interpolation:sRGB;color-interpolation-filters:linearRGB;solid-color:#000000;solid-opacity:1;vector-effect:none;fill:#404552;fill-opacity:1;fill-rule:nonzero;stroke:none;stroke-width:0.953209;stroke-linecap:butt;stroke-linejoin:miter;stroke-miterlimit:4;stroke-dasharray:none;stroke-dashoffset:0;stroke-opacity:1;color-rendering:auto;image-rendering:auto;shape-rendering:auto;text-rendering:auto;enable-background:accumulate;stop-color:#000000"
     id="path884" />
</svg>
