<svg width="300" height="300" version="1.1" viewBox="0 0 300 300" xmlns="http://www.w3.org/2000/svg"><g><path d="m68.44 44.65-60.52 104.8 63.19 109.5h131l33.1-57.33h-134.9l-29.21-50.58 28.81-49.88h69.14l32.27-55.92-132.9-0.5311zm168.1 17.44a8.503 8.503 0 0 0-8.503 8.503 8.503 8.503 0 0 0 8.503 8.503 8.503 8.503 0 0 0 8.503-8.503 8.503 8.503 0 0 0-8.503-8.503zm-22.28 55.73a16.52 16.52 0 0 0-16.51 16.51 16.52 16.52 0 0 0 16.51 16.51 16.52 16.52 0 0 0 16.51-16.51 16.52 16.52 0 0 0-16.51-16.51zm55.73 40.56a21.75 21.75 0 0 0-21.75 21.75 21.75 21.75 0 0 0 21.75 21.76 21.75 21.75 0 0 0 21.75-21.76 21.75 21.75 0 0 0-21.75-21.75z" stop-color="#000000"/><path d="m68.42 44.21 0.3984 0.5586-0.8125-0.3672-60.67 105 63.48 110h131.6l33.68-58.33h-135.5l-28.92-50.08 28.52-49.38h69.14l32.85-56.92zm0.2715 1.002 131.8 0.5254-31.69 54.92h-69.14l-29.1 50.38 29.5 51.08h134.3l-32.52 56.33h-130.4l-62.9-109zm167.8 16.38c-4.966 0-9.002 4.038-9.002 9.004s4.036 9.002 9.002 9.002c4.966 0 9.004-4.036 9.004-9.002s-4.038-9.004-9.004-9.004zm0 1c4.426 0 8.004 3.578 8.004 8.004s-3.578 8.002-8.004 8.002c-4.426 0-8.002-3.576-8.002-8.002s3.576-8.004 8.002-8.004zm-22.28 54.73c-9.386 0.00568-17 7.624-17.01 17.01 0.00568 9.386 7.624 17 17.01 17.01 9.386-0.00568 17-7.624 17.01-17.01-0.00568-9.386-7.624-17-17.01-17.01zm0 1c8.846 0.00536 16 7.164 16.01 16.01-0.00535 8.846-7.164 16-16.01 16.01-8.846-0.00535-16-7.164-16.01-16.01 0.00535-8.846 7.164-16 16.01-16.01zm55.73 39.56c-12.28 0-22.25 9.967-22.25 22.25-0.00564 12.29 9.964 22.26 22.25 22.26 12.29 1e-5 22.25-9.974 22.25-22.26 0-12.28-9.968-22.25-22.25-22.25zm0 1c11.74 0 21.25 9.508 21.25 21.25 0.0054 11.75-9.504 21.26-21.25 21.26-11.75 1e-5 -21.26-9.514-21.25-21.26 0-11.74 9.508-21.25 21.25-21.25z" stop-color="#000000"/></g></svg>
