<svg width="280mm" height="303.26mm" version="1.1" viewBox="0 0 280 303.26" xml:space="preserve" xmlns="http://www.w3.org/2000/svg"><g transform="translate(-50 -30)"><circle cx="190" cy="190" r="190" fill="none" stroke-width=".26753" style="paint-order:markers fill stroke"/><g transform="matrix(2.8602 0 0 2.8602 139.1 289.8)"><g transform="matrix(.26458 0 0 .26458 -49.021 -103.23)" stroke-width=".89105px"><path d="m258.54 305.73s59.943 16.281 80.531-17.747c26.844-44.367 7.1584-67.437 35.792-88.733 35.792-26.62 82.544 13.755 53.688 70.986-26.844 53.24-90.548 79.595-125.27 70.986-35.792-8.8733-44.74-35.493-44.74-35.493z"/><path d="m111.42 145.91c35.792 0 17.896 70.987 35.792 88.733l17.896 17.747s-62.636 8.8733-80.531-44.367c-12.772-35.668 0-62.113 26.844-62.113z"/><path d="m257.4 46.881c-5.0996 0.25017-11.332 3.3174-11.762 10.297 0 0-2.6387 14.123 17.896 26.619 23.195 14.115 41.941 1.7457 44.738-8.873 2.797-10.619-4.4167-13.911-8.9473-13.311-0.98348 0.13033-1.9646 0.64623-2.9434 1.3516 0.0274-6.5709 1.0512-14.721-10.941-5.2441-1.6333 1.2907-3.4153 2.5561-5.2402 3.5723-4.9356-12.64-8.7342-6.4982-12.248-0.82812-1.9662-3.6623-2.3301-10.208-4.9531-12.281-1.1979-0.9467-3.2816-1.4164-5.5996-1.3027z"/><path d="m335.11 447.6s-121.31-26.523-166.05-106.38c-27.483-49.057-30.435-257.39 76.569-248.55 107.38 8.8733 48.702 150.94 30.806 221.93-17.896 70.986 58.673 133 58.673 133z"/><path d="m79.586 314.6c-26.844 8.8733-4.7919 57.361 26.844 88.733 26.844 26.62 71.584 44.367 80.531 26.62 8.9479-17.747-26.844-8.8733-62.636-44.367-35.792-35.493-17.896-79.86-44.74-70.986z"/><path d="m428.56 154.88c22.016-7.4117-3.1001-36.774-20.996-54.521s-41.64-34.212-50.588-16.465c-8.9479 17.747 14.796 16.465 32.692 34.212 17.896 17.747 16.876 44.186 38.892 36.774z"/></g></g></g></svg>
