<?xml version="1.0" encoding="UTF-8" standalone="no"?>
<svg
   xmlns:dc="http://purl.org/dc/elements/1.1/"
   xmlns:cc="http://creativecommons.org/ns#"
   xmlns:rdf="http://www.w3.org/1999/02/22-rdf-syntax-ns#"
   xmlns:svg="http://www.w3.org/2000/svg"
   xmlns="http://www.w3.org/2000/svg"
   id="svg4"
   version="1.1"
   viewBox="0 0 512 512"
   height="512"
   width="512">
  <metadata
     id="metadata10">
    <rdf:RDF>
      <cc:Work
         rdf:about="">
        <dc:format>image/svg+xml</dc:format>
        <dc:type
           rdf:resource="http://purl.org/dc/dcmitype/StillImage" />
        <dc:title></dc:title>
      </cc:Work>
    </rdf:RDF>
  </metadata>
  <defs
     id="defs8" />
  <path
     id="path2"
     d="M 343.58938,14.867426 C 306.76184,1.4450561 269.10241,-2.2185039 232.51485,1.2050861 190.10399,4.6286661 169.4345,17.699086 170.68235,15.363366 101.26677,40.112366 42.69787,93.353906 15.53317,168.01685 -32.79697,301.00872 35.69072,448.06288 168.42662,496.47301 301.24251,544.88314 448.13669,476.31546 496.46683,343.32359 544.79697,210.33172 476.30928,63.277556 343.57338,14.867426 Z M 177.19356,472.39593 c -13.83832,-5.08738 -27.16471,-11.58259 -39.83517,-19.24566 61.91249,4.75142 142.6547,-9.50285 197.0641,-60.48867 0,0 103.8274,-82.90194 28.74851,-219.06143 0,0 12.07853,54.90534 -3.3276,99.98787 0,0 -14.75021,61.41655 -80.15027,79.15841 C 183.36881,379.07925 73.55813,311.58344 27.6437,278.9154 24.22012,245.33547 27.22775,210.66768 39.56225,176.76779 57.81604,126.61388 92.13188,87.450626 134.04679,61.197806 c -10.49472,73.239124 -2.15973,140.734934 9.66283,168.987504 15.99806,37.9154 43.73869,82.15003 97.90812,87.82934 54.24942,5.66332 84.06981,-45.00254 84.06981,-45.00254 27.83662,-42.25087 32.1561,-102.89951 31.74015,-104.40333 -0.41595,-1.42383 -7.4231,-5.42334 -7.4231,-5.42334 -18.66974,75.65482 -49.498,100.97975 -49.498,100.97975 -48.6661,46.90631 -83.15791,14.33426 -83.15791,14.33426 -37.00351,-39.73918 -11.08666,-104.40334 -11.08666,-104.40334 14.49424,-43.99466 56.74512,-108.402844 104.65931,-141.230864 7.99903,1.99975 15.99806,3.2476 23.9171,6.07926 27.9966,10.25476 53.73748,25.91686 75.73481,46.07441 -35.00375,12.83044 -91.4929,39.835174 -91.4929,39.835174 -89.57314,37.73942 -95.6524,94.82049 -95.6524,94.82049 -9.32687,58.82487 37.41946,33.91589 37.41946,33.91589 47.99418,-23.42116 71.65531,-96.32432 71.65531,-96.32432 -15.00618,-2.91164 -26.82875,1.6638 -26.82875,1.6638 -19.16567,47.41825 -58.32892,66.8239 -58.32892,66.8239 -15.42213,8.15901 -19.0057,-6.25524 -19.0057,-6.25524 -2.57568,-10.83069 11.16665,-12.67047 11.16665,-12.67047 21.32541,-8.255 35.00375,-30.66828 38.07538,-39.83517 3.07163,-9.16688 8.75094,-9.91879 8.75094,-9.91879 18.1578,-5.66332 36.90752,-9.50285 55.91322,-11.42262 36.2516,-4.41546 91.73287,12.91044 91.73287,12.91044 12.49449,5.00739 24.41304,8.75094 35.00375,11.74257 20.41353,50.82584 23.58114,108.73881 3.42359,164.23608 -43.49872,119.64949 -175.6427,181.402 -295.21219,137.82329 z" />
</svg>
