<?xml version="1.0" encoding="UTF-8"?>
<svg width="180pt" height="180pt" version="1.0" viewBox="0 0 180 180" xmlns="http://www.w3.org/2000/svg">
 <g transform="matrix(.12339 0 0 -.12339 -22.104 220.33)">
  <path d="m575 1721c-44-9-93-24-110-32-28-13-30-18-29-69 2-73 40-154 100-214 26-25 52-46 57-46 6 0-8-16-31-36-52-44-69-75-78-143-4-35-13-55-25-62-25-13-66-85-74-130-8-42 8-107 33-140 10-13 30-62 43-109 33-116 75-160 239-247 25-13 60-35 79-49 78-56 168-55 253 3 29 19 73 46 98 60 161 87 185 115 225 253 11 36 27 77 38 91 24 34 38 95 31 139-8 44-49 116-73 130-12 6-21 26-26 57-10 71-28 105-74 145l-42 35 28 18c39 26 82 75 100 115 8 19 20 45 25 56 5 12 11 45 11 75 2 50 0 55-28 68-71 34-193 51-263 36-79-17-123-44-151-95-26-47-27-46-62 18-19 33-80 65-157 81-29 6-54 11-55 10-1 0-38-8-82-18zm123-35c5-3 17-3 25 0s18 0 22-5c3-6 11-9 16-5 6 3 19-2 30-12 10-9 19-13 19-9 0 20 41-31 55-69 12-32 14-48 6-69-16-40-35-42-83-9-43 30-161 92-174 92-4 0 33-27 82-59 50-33 96-67 103-75 29-35-47-96-119-96-16 0-30 5-30 10 0 6-11 10-25 10s-25 4-25 9-9 13-20 16-20 12-20 20-9 17-21 20c-11 4-18 13-15 20 2 7-2 16-11 19-8 4-13 13-10 20 3 8-1 20-9 27s-13 18-10 25c2 6 2 15-2 19-3 3-7 22-8 41-1 29 2 34 23 34 12 0 23 5 23 11 0 7 11 9 30 6 19-4 30-2 30 4s9 9 20 6 20-1 20 3c0 10 61 7 78-4zm442 4c0-7 8-7 22 1 15 8 23 8 26 1 1-5 12-8 22-5 11 3 20 0 20-6s11-8 30-4c19 3 30 1 30-6 0-6 11-11 25-11 22 0 25-3 19-25-4-17-2-25 6-25 9 0 8-6-3-18-10-10-14-22-11-25 4-4 1-13-5-21-7-8-10-20-6-25 3-6-3-16-14-22-10-7-17-18-14-25 2-7-5-15-16-19-12-3-21-12-21-20s-9-17-20-20-20-11-20-16-11-9-25-9-25-4-25-10c0-16-62-11-99 8-19 9-41 27-49 39-13 21-11 25 24 57 21 19 67 52 101 72 35 20 63 38 63 40 0 11-80-30-203-104-27-16-29-16-43 2-21 30-17 88 9 127 12 19 26 32 29 29s15 3 26 13c12 11 25 16 31 13 5-4 13-2 16 4 4 6 15 8 25 5s21-1 25 5c8 13 25 13 25 0zm-430-719c121-51 144-69 119-93-35-33-68-39-150-27-70 11-83 16-110 46-35 39-50 100-28 114 25 16 52 9 169-40zm544 43c30-11 20-70-18-112-32-35-42-39-115-51-77-13-81-12-120 10-60 33-54 50 24 82 22 9 72 29 110 46 73 31 93 35 119 25zm-374-262c0-43-6-53-26-45-17 6-18 24-2 58 16 36 28 31 28-13zm70 19c14-28 13-58-4-64-20-8-26 2-26 45 0 41 13 50 30 19z"/>
  <path d="m1140.8 334.07c-0.242-0.02-0.4579-0.19522-0.6299-0.36622-0.2069-0.2056-0.1628-0.23335-0.3369-0.41015 0.7667 0.3621 1.8537 0.85047 0.9668 0.77637zm-176.97-29.575c-0.42219 0.078 0.79122-0.35016 1.2158-0.41016 0.17138-0.0252 0.29039 0.0303 0.45411 0.0147-0.55389 0.147-1.1066 0.29231-1.6699 0.39551z"/>
  <path d="m1600.3 336.05c-0.067-0.62759-0.059-1.2599-0.088-1.8896 0.1876 1e-4 0.3294-0.0273 0.5127-0.0293-0.1389 0.6401-0.2812 1.2798-0.4248 1.9189z"/>
  <path d="m893.14 309.17c0.2618-0.66704 0.58266-1.3066 0.83496-1.9775 1.7149-1.8207 2.9803-4.03 4.3066-6.1816-1.3626 2.6205-2.7964 4.9932-4.292 6.9873-0.28837 0.41196-0.56399 0.77504-0.84961 1.1719zm-33.53-30.264c6.9e-4 -5e-3 -6.9e-4 -0.01 0-0.0147 0.11698-0.0251 0.23447-0.0489 0.35156-0.0732-0.11358 0.0556-0.23639 0.0416-0.35156 0.0879z"/>
 </g>
</svg>
