<svg width="45.396mm" height="58.172mm" version="1.1" viewBox="0 0 45.396 58.172" xmlns="http://www.w3.org/2000/svg"><g transform="translate(-103.19 -44.979)"><path d="m111.55 45.768c-1.9153 0.39176-4.0482 1.0447-4.7882 1.3929-1.2188 0.56588-1.3059 0.78353-1.2624 3.0035 0.0871 3.1776 1.7412 6.7035 4.3529 9.3153 1.1318 1.0882 2.2635 2.0023 2.4812 2.0023 0.26117 0-0.34823 0.69647-1.3494 1.5671-2.2635 1.9153-3.0035 3.2647-3.3953 6.2247-0.17412 1.5235-0.56588 2.3941-1.0882 2.6988-1.0882 0.56588-2.8729 3.7-3.2212 5.6588-0.34824 1.8282 0.34823 4.6576 1.4365 6.0941 0.43529 0.56588 1.3059 2.6988 1.8718 4.7447 1.4365 5.0494 3.2647 6.9647 10.403 10.752 1.0882 0.56588 2.6118 1.5235 3.4388 2.1329 3.3953 2.4376 7.3129 2.3941 11.013-0.13058 1.2624-0.82706 3.1776-2.0024 4.2659-2.6118 7.0082-3.787 8.0529-5.0059 9.7941-11.013 0.47882-1.5671 1.1753-3.3518 1.6541-3.9612 1.0447-1.48 1.6541-4.1353 1.3494-6.0506-0.34824-1.9153-2.1329-5.0494-3.1776-5.6588-0.52235-0.26118-0.91411-1.1318-1.1318-2.4812-0.43529-3.0906-1.2188-4.5706-3.2212-6.3117l-1.8282-1.5235 1.2188-0.78353c1.6976-1.1318 3.5694-3.2647 4.3529-5.0059 0.34824-0.82706 0.87059-1.9588 1.0882-2.4376 0.21765-0.52235 0.47882-1.9588 0.47882-3.2647 0.0871-2.1765 0-2.3941-1.2188-2.96-3.0906-1.48-8.4012-2.22-11.448-1.5671-3.4388 0.74-5.3541 1.9153-6.5729 4.1353-1.1318 2.0459-1.1753 2.0023-2.6988-0.78353-0.82705-1.4365-3.4823-2.8294-6.8341-3.5259-1.2624-0.26118-2.3506-0.47882-2.3941-0.43529-0.0435 0-1.6541 0.34823-3.5694 0.78353zm5.3541 1.5235c0.21765 0.13059 0.74 0.13059 1.0882 0 0.34824-0.13059 0.78353 0 0.95765 0.21765 0.13058 0.26118 0.47882 0.39176 0.69646 0.21765 0.26118-0.13059 0.82706 0.08706 1.3059 0.52235 0.43529 0.39176 0.82706 0.56588 0.82706 0.39176 0-0.87058 1.7847 1.3494 2.3941 3.0035 0.52235 1.3929 0.6094 2.0894 0.26117 3.0035-0.69647 1.7412-1.5235 1.8282-3.6129 0.39176-1.8718-1.3059-7.0082-4.0047-7.5741-4.0047-0.17411 0 1.4365 1.1753 3.5694 2.5682 2.1765 1.4365 4.1788 2.9165 4.4835 3.2647 1.2624 1.5235-2.0459 4.1788-5.18 4.1788-0.69646 0-1.3059-0.21765-1.3059-0.43529 0-0.26118-0.47883-0.43529-1.0882-0.43529-0.60941 0-1.0882-0.17412-1.0882-0.39176s-0.39176-0.56588-0.87058-0.69647-0.87059-0.52235-0.87059-0.87058-0.39176-0.74-0.91411-0.87058c-0.47882-0.17412-0.78353-0.56588-0.65294-0.87058 0.0871-0.3047-0.0871-0.69647-0.47882-0.82706-0.34823-0.17412-0.56588-0.56588-0.43529-0.87059 0.13058-0.34823-0.0435-0.87058-0.39177-1.1753-0.34823-0.3047-0.56588-0.78353-0.43529-1.0882 0.0871-0.26118 0.0871-0.65294-0.0871-0.82706-0.13059-0.13059-0.3047-0.95764-0.34823-1.7847-0.0435-1.2623 0.0871-1.48 1.0012-1.48 0.52235 0 1.0012-0.21765 1.0012-0.47882 0-0.3047 0.47883-0.39176 1.3059-0.26118 0.82706 0.17412 1.3059 0.08706 1.3059-0.17412 0-0.26118 0.39176-0.39176 0.87058-0.26118 0.47883 0.13059 0.87059 0.04353 0.87059-0.13059 0-0.43529 2.6553-0.3047 3.3953 0.17412zm19.24-0.17412c0 0.3047 0.34823 0.3047 0.95764-0.04353 0.65294-0.34823 1.0012-0.34823 1.1318-0.04353 0.0435 0.21765 0.52235 0.34823 0.95765 0.21765 0.47882-0.13059 0.87058 0 0.87058 0.26118 0 0.26118 0.47882 0.34823 1.3059 0.17412 0.82705-0.13059 1.3059-0.04353 1.3059 0.26118 0 0.26118 0.47882 0.47882 1.0882 0.47882 0.95764 0 1.0882 0.13059 0.82705 1.0882-0.17411 0.74-0.0871 1.0882 0.26118 1.0882 0.39176 0 0.34823 0.26118-0.13059 0.78353-0.43529 0.43529-0.60941 0.95764-0.47882 1.0882 0.17412 0.17412 0.0435 0.56588-0.21765 0.91411-0.3047 0.34823-0.43529 0.87058-0.26117 1.0882 0.13059 0.26118-0.13059 0.69647-0.60941 0.95764-0.43529 0.3047-0.74 0.78353-0.60941 1.0882 0.0871 0.3047-0.21765 0.65294-0.69647 0.82706-0.52235 0.13059-0.91411 0.52235-0.91411 0.87058s-0.39177 0.74-0.87059 0.87058-0.87058 0.47882-0.87058 0.69647-0.47883 0.39176-1.0882 0.39176c-0.60941 0-1.0882 0.17412-1.0882 0.43529 0 0.69647-2.6988 0.47882-4.3094-0.34823-0.82706-0.39176-1.7847-1.1753-2.1329-1.6976-0.56588-0.91411-0.47882-1.0882 1.0447-2.4812 0.91411-0.82706 2.9165-2.2635 4.3964-3.1341 1.5235-0.87058 2.7423-1.6541 2.7423-1.7412 0-0.47882-3.4823 1.3059-8.8364 4.527-1.1753 0.69647-1.2624 0.69647-1.8718-0.08706-0.91412-1.3059-0.74-3.8306 0.39176-5.5282 0.52235-0.82706 1.1318-1.3929 1.2624-1.2623 0.13059 0.13059 0.65294-0.13059 1.1318-0.56588 0.52235-0.47882 1.0882-0.69647 1.3494-0.56588 0.21764 0.17412 0.56588 0.08706 0.69647-0.17412 0.17411-0.26118 0.65293-0.34823 1.0882-0.21765 0.43529 0.13059 0.91411 0.04353 1.0882-0.21765 0.34823-0.56588 1.0882-0.56588 1.0882 0zm-18.718 31.298c5.267 2.22 6.2682 3.0035 5.18 4.0482-1.5235 1.4365-2.96 1.6976-6.5294 1.1753-3.047-0.47882-3.6129-0.69647-4.7882-2.0023-1.5235-1.6976-2.1765-4.3529-1.2188-4.9623 1.0882-0.69647 2.2635-0.39176 7.3564 1.7412zm23.68-1.8718c1.3059 0.47882 0.87059 3.047-0.78352 4.8753-1.3929 1.5235-1.8282 1.6976-5.0059 2.22-3.3518 0.56588-3.5259 0.52235-5.2235-0.43529-2.6118-1.4365-2.3506-2.1765 1.0447-3.5694 0.95764-0.39176 3.1341-1.2623 4.7882-2.0023 3.1776-1.3494 4.0482-1.5235 5.18-1.0882zm-16.28 11.405c0 1.8718-0.26117 2.307-1.1318 1.9588-0.73999-0.26118-0.78352-1.0447-0.0871-2.5247 0.69646-1.5671 1.2188-1.3494 1.2188 0.56588zm3.047-0.82706c0.60941 1.2188 0.56588 2.5247-0.17412 2.7859-0.87058 0.34823-1.1318-0.08706-1.1318-1.9588 0-1.7847 0.56588-2.1765 1.3059-0.82706z" stroke-width=".043529"/></g></svg>
