<svg viewBox="0 0 200 200" xmlns="http://www.w3.org/2000/svg"><path d="M19.20894013 151.3023553c-6.57226357-1.07943065-17.61020123-3.33451695-18.2645975-3.73152582-.03497245-.02120828-.08219318-.05221276-.07030544-.0960432.17509767-.6454689 3.57213905-5.38378196 27.07724397-33.67248397 32.50216271-39.11677114 59.22655021-70.5906303 71.8536903-84.6235227 4.12852458-4.58813929 8.28804355-9.48846543 11.51165131-12.89925038 2.87534764-3.04230324 5.04138947-4.85834789 5.22121547-4.85834789.12749204 0-2.80837998 3.67484923-4.6074984 6.10163471C103.32792901 29.12635475 77.03389181 70.169903 39.88549428 129.980815l-13.70245431 22.061689-1.50413148-.0443354c-.8272723-.02444001-3.28875656-.33752469-5.46996836-.6957729zm5.73906607 24.72250987c-6.8311611-.16561646-12.5010892-.38870734-12.599841-.49574855-.23461606-.25433775 13.41517607-22.7626327 13.91315351-22.94257989.20949941-.07574385 5.61210524.38125415 12.00578904 1.01548265 22.81591698 2.26320604 49.16167714 4.4029395 70.6949821 5.7416868 12.18406481.7574789 34.7127904.73493753 39.02635216-.00201983 15.86025723-2.86191573 25.17950786-9.03768549 28.2199266-20.5505487.78926101-2.98862004 1.29712857-4.03336002 1.28293923-10.482151-.32732453-7.93306748-.78739267-10.85989064-3.4670182-19.76051006-6.64895674-22.0850363-22.77833692-50.39300551-48.47917455-85.16333398-3.82616523-5.17637005-9.0645897-12.39139593-8.44001601-11.9028592.3114688.24362554 3.13205869 2.77336207 4.46685721 4.20315853 7.33834697 7.86061394 25.99940979 29.35773354 31.20195187 35.64944895 27.27692576 32.9874374 42.93929965 60.1300673 46.1262373 80.01337328 2.16576914 13.51224838-1.45765505 23.7429298-10.81101061 30.52469076-6.74691879 4.8919418-15.18727817 7.54444093-30.28463325 9.38340061-34.727616 4.23008194-83.2460198 5.97168553-132.8564944 4.76898429z"/><path d="M116.16542087 16.29691497c-6.53213952 8.91013991-12.52449807 18.51768274-18.64712999 27.87789463-13.79768554 21.20812752-27.2829378 42.72074633-40.74994589 64.228259-8.6109719 13.80338754-17.26788094 27.57470008-25.70848069 41.50163088.01836031.3460484 1.03684444.16227363 1.45095223.29718857 21.57541046 2.05453679 43.1219009 4.01162658 64.7267939 5.48835898 10.6198715.70244846 21.24850102 1.3386968 31.89247118 1.51956302 3.71154964.0479711 7.62841561.00201983 11.17111707-.18341121 7.19675646-.43691073 14.59744566-1.26208443 21.16325585-4.72501245 4.93320705-2.60883028 9.2876503-6.85811076 11.4454512-12.41356869 2.3189232-5.76598543 2.28382856-12.2742808 1.30940917-18.3731554-.12994614-.79291691-.30596475-1.90750282-.4901233-2.82195327-.43828421-2.28124317-.93807243-4.35809914-1.54996155-6.61159987-.55986824-2.03527765-1.1343096-3.8894972-1.8104295-5.9105451-2.36132968-6.99931042-5.3230455-13.7433368-8.56115568-20.3117233-.57045219-1.12893885-1.2550756-2.51671464-1.89231366-3.73293768-9.09157471-17.455962-19.92056185-33.76578827-31.21315185-49.61072-3.95444502-5.50299066-8.02100104-11.40123698-12.15496909-16.74752372-.08392418.10552431-.29787531.42373534-.3817894.52925561z"/></svg>
