<svg xmlns="http://www.w3.org/2000/svg" viewBox="0 0 200 200"><path d="M19.278062 151.996492c-6.55122-.992542-17.553814-3.066109-18.206115-3.431158-.03486-.019529-.08193-.048-.07008-.08829.174537-.593522 3.560701-4.950434 26.990543-30.962039C60.3905 81.54693 87.02932 52.606558 99.616021 39.703236c7.786004-7.981859 14.73593-14.774887 15.11614-14.774887.12708 0-1.236236 1.825726-3.02959 4.057168-8.574873 10.669514-34.784714 48.40927-71.814162 103.405715L26.22983 152.67707l-1.499315-.040804c-.824623-.02251-3.278227-.31035-5.452453-.639754zM24.99875 174.728963c-6.809287-.152281-12.46106-.357413-12.559495-.455847-.233865-.233859 13.37222-20.93036 13.868602-21.095818.208829-.069583 5.594135.350567 11.967348.93374 22.74286 2.081029 49.00426 4.048536 70.468613 5.27951 12.145053.69651 34.601648.675778 38.901393-.002056 15.809474-2.631548 25.098884-8.3102 28.129564-18.896344.78673-2.74805 1.292982-3.708699 1.278829-9.638385-.32628-7.294502-.784871-9.985735-3.455918-18.169893-6.627666-20.307309-22.7054-46.336634-48.323937-78.308131-3.813916-4.759699-6.42502-8.286463-5.802452-7.837255 2.017325 1.455587 26.814895 26.699626 32.944049 33.537193 27.189574 30.332134 42.80181 55.289918 45.978542 73.572718 2.158835 12.424578-1.452982 21.831745-10.776382 28.067607-6.725329 4.498164-15.13865 6.93715-30.187673 8.628093-34.616408 3.889574-82.979461 5.490983-132.431082 4.385094z"/><path d="M116.132026 28.05008c-6.511224 8.19292-12.692334 16.835311-18.795362 25.442074C83.58316 72.993137 70.141087 92.774102 56.7172 112.550367c-8.583399 12.692292-17.21259 25.355087-25.626162 38.160974.018305.318192 1.033525.149208 1.446307.273255 21.506326 1.889167 42.983824 3.688719 64.519537 5.046587 10.585878.6459 21.18047 1.230933 31.790347 1.397233 3.699664.044094 7.603988.002056 11.135347-.168633 7.173723-.401753 14.550708-1.160507 21.0955-4.344681 4.91741-2.39883 9.257908-6.306072 11.408798-11.414338 2.311496-5.301854 2.27651-11.28626 1.305223-16.89421-.129536-.729091-.304994-1.753967-.488552-2.594803-.436883-2.097618-.935086-4.0073-1.545002-6.079397-.558073-1.871458-1.13069-3.57641-1.80464-5.434783-2.35377-6.435905-5.305996-12.637069-8.533739-18.676734-.568629-1.038065-1.251057-2.314132-1.886248-3.432456-9.062468-16.050847-19.856776-31.047817-31.11322-45.617314-3.941777-5.060028-7.91701-10.09613-12.03774-15.012068-.083663.097026-.167286.194054-.25093.29108z"/></svg>
