<?xml version="1.0" encoding="UTF-8"?>
<svg version="1.1" viewBox="0 0 48 48" xmlns="http://www.w3.org/2000/svg" xmlns:xlink="http://www.w3.org/1999/xlink">
 <g transform="matrix(.073623 0 0 .073623 -4.1739 -12.783)" fill="#000000" fill-rule="evenodd">
  <path d="m253.1 451.55 298.08 199.02c12.334-12.843 12.334-12.843 20.218-24.621 67.018-100.11 43.708-243.64-62.101-314.01-106.19-71.55-247.77-38.409-315.25 61.784-64.58 97.083-49.13 239.61 62.398 315.13 97.527 64.428 188.98 36.104 245.01 5.0054l-27.977-47.98c-60.4 31.845-131.16 35.64-185.69-1.4596-83.858-55.543-100.35-164.66-48.689-241.07 50.833-76.698 156.03-100.08 239.23-45.138 87.582 59.382 82.47 162.56 60.763 208.74-9.5889-6.5965-19.178-13.193-28.767-19.789 24.996-64.762-0.4326-128.69-50.488-162.2-58.889-39.423-144.4-32.707-192.21 38.547-9.3484 14.134-9.3484 14.134-14.517 28.041z"/>
  <path d="m381.95 173.62c-4.4291 44.291-10.63 72.638-28.346 79.724 17.716-1.7717 19.488-1.7717 28.346-1.7717 8.8583 0 10.63 0 28.346 1.7717-17.716-7.0867-23.917-35.433-28.346-79.724z"/>
  <path d="m314.55 180.67c4.8241 44.25 4.618 73.266-11.25 83.863 16.967-5.3964 18.701-5.7627 27.368-7.5942 8.6669-1.8315 10.4-2.1978 28.1-4.1274-18.799-3.2706-30.726-29.722-44.218-72.141z"/>
  <path d="m251.09 201.04c13.723 42.344 19.423 70.795 6.0412 84.398 15.515-8.7345 17.138-9.4457 25.251-13.002 8.1133-3.5559 9.7359-4.2671 26.674-9.7563-19.071 0.6212-36.129-22.852-57.966-61.64z"/>
  <path d="m192.19 234.55c22.182 38.592 33.64 65.25 23.36 81.325 13.374-11.754 14.815-12.785 22.017-17.942 7.2028-5.1565 8.6433-6.1879 24.08-15.06-18.531 4.5508-40.074-14.888-69.458-48.323z"/>
  <path d="m141.73 279.24c29.644 33.205 46.34 56.937 39.586 74.783 10.671-14.253 11.869-15.558 17.857-22.086 5.9884-6.5276 7.1859-7.8332 20.468-19.691-17.199 8.2645-42.279-6.3285-77.911-33.006z"/>
  <path d="m450.08 180.71c-4.8241 44.25-4.618 73.266 11.25 83.863-16.967-5.3964-18.701-5.7627-27.368-7.5942-8.6669-1.8315-10.4-2.1978-28.1-4.1274 18.799-3.2706 30.726-29.722 44.218-72.141z"/>
  <path d="m513.54 201.08c-13.723 42.344-19.423 70.795-6.0412 84.398-15.515-8.7345-17.138-9.4457-25.251-13.002-8.1133-3.5559-9.7359-4.2671-26.674-9.7563 19.071 0.6212 36.129-22.852 57.966-61.64z"/>
  <path d="m572.44 234.59c-22.182 38.592-33.64 65.25-23.36 81.325-13.374-11.754-14.815-12.785-22.017-17.942-7.2028-5.1565-8.6433-6.1879-24.08-15.06 18.531 4.5508 40.074-14.888 69.458-48.323z"/>
  <path d="m622.89 279.28c-29.644 33.205-46.34 56.937-39.586 74.783-10.671-14.253-11.869-15.558-17.857-22.086-5.9884-6.5276-7.1859-7.8332-20.468-19.691 17.199 8.2645 42.279-6.3285 77.911-33.006z"/>
  <path d="m382.68 825.59c-4.4291-44.291-10.63-72.638-28.346-79.724 17.716 1.7717 19.488 1.7717 28.346 1.7717 8.8583 0 10.63 0 28.346-1.7717-17.716 7.0867-23.917 35.433-28.346 79.724z"/>
  <path d="m315.28 818.55c4.8241-44.25 4.618-73.266-11.25-83.863 16.967 5.3964 18.701 5.7627 27.368 7.5942 8.6669 1.8315 10.4 2.1978 28.1 4.1274-18.799 3.2706-30.726 29.722-44.218 72.141z"/>
  <path d="m251.82 798.17c13.723-42.344 19.423-70.795 6.0412-84.398 15.515 8.7345 17.138 9.4457 25.251 13.002 8.1133 3.5559 9.7359 4.2671 26.674 9.7563-19.071-0.6212-36.129 22.852-57.966 61.64z"/>
  <path d="m192.92 764.67c22.182-38.592 33.64-65.25 23.36-81.325 13.374 11.754 14.815 12.785 22.017 17.942 7.2028 5.1565 8.6433 6.1879 24.08 15.06-18.531-4.5508-40.074 14.888-69.458 48.323z"/>
  <path d="m142.46 719.97c29.644-33.205 46.34-56.937 39.586-74.783 10.671 14.253 11.869 15.558 17.857 22.086 5.9884 6.5276 7.1859 7.8332 20.468 19.691-17.199-8.2645-42.279 6.3285-77.911 33.006z"/>
  <path d="m450.8 818.5c-4.8241-44.25-4.618-73.266 11.25-83.863-16.967 5.3964-18.701 5.7627-27.368 7.5942-8.6669 1.8315-10.4 2.1978-28.1 4.1274 18.799 3.2706 30.726 29.722 44.218 72.141z"/>
  <path d="m514.26 798.13c-13.723-42.344-19.423-70.795-6.0412-84.398-15.515 8.7345-17.138 9.4457-25.251 13.002-8.1133 3.5559-9.7359 4.2671-26.674 9.7563 19.071-0.6212 36.129 22.852 57.966 61.64z"/>
  <path d="m573.17 764.62c-22.182-38.592-33.64-65.25-23.36-81.325-13.374 11.754-14.815 12.785-22.017 17.942-7.2028 5.1565-8.6433 6.1879-24.08 15.06 18.531-4.5508 40.074 14.888 69.458 48.323z"/>
  <path d="m623.62 719.93c-29.644-33.205-46.34-56.937-39.586-74.783-10.671 14.253-11.869 15.558-17.857 22.086-5.9884 6.5276-7.1859 7.8332-20.468 19.691 17.199-8.2645 42.279 6.3285 77.911 33.006z"/>
 </g>
</svg>
