<?xml version="1.0" encoding="UTF-8"?>
<svg version="1.1" viewBox="0 0 48 48" xmlns="http://www.w3.org/2000/svg">
 <path d="m23.9 8.7e-8c-0.31 3.1-0.741 5.14-1.91 5.78-1.27-0.386-2.11-2.29-3.06-5.26 0.335 3.07 0.34 5.15-0.641 6.03-1.31-0.144-2.51-1.83-4.03-4.53 0.961 2.97 1.39 5.01 0.578 6.06-1.32 0.159-2.85-1.25-4.91-3.59 1.55 2.7 2.39 4.6 1.82 5.8-1.26 0.416-3.05-0.646-5.54-2.51 2.18 2.44 3.41 4.19 2.92 5.51 0.786-1.05 0.874-1.15 1.31-1.63 0.405-0.442 0.543-0.584 1.32-1.28 0.863-0.757 1-0.863 1.51-1.22 0.493-0.353 0.653-0.463 1.58-1 0.986-0.554 1.15-0.629 1.71-0.877 0.547-0.24 0.734-0.316 1.71-0.635 1.06-0.337 1.24-0.381 1.84-0.508 0.61-0.129 0.783-0.161 1.93-0.287 1.05-0.103 1.24-0.107 1.85-0.107 0.652 0 0.782 4.42e-4 2.09 0.131 0.965 0.108 1.17 0.147 1.74 0.268 0.599 0.127 0.782 0.168 1.83 0.5 0.992 0.324 1.17 0.4 1.72 0.641 0.551 0.242 0.731 0.325 1.65 0.838 1 0.578 1.15 0.676 1.65 1.04 0.491 0.352 0.646 0.47 1.45 1.17 0.837 0.749 0.962 0.88 1.38 1.33 0.441 0.481 0.531 0.578 1.32 1.63-0.497-1.31 0.732-3.06 2.91-5.51-2.49 1.86-4.28 2.92-5.54 2.51-0.565-1.2 0.273-3.1 1.82-5.8-2.06 2.34-3.59 3.75-4.91 3.59-0.811-1.05-0.385-3.09 0.576-6.06-1.52 2.69-2.72 4.38-4.03 4.53-0.981-0.88-0.976-2.95-0.641-6.03-0.953 3-1.8 4.91-3.09 5.27-1.18-0.626-1.61-2.67-1.93-5.79zm-0.0938 7.36c-5.4 0.0771-10.6 2.76-13.7 7.37-4.75 7.15-3.62 17.6 4.59 23.2 7.18 4.74 13.9 2.66 18 0.369l-2.06-3.53c-4.45 2.34-9.66 2.62-13.7-0.107-6.17-4.09-7.39-12.1-3.58-17.7 3.74-5.65 11.5-7.37 17.6-3.32 6.45 4.37 6.07 12 4.47 15.4-0.706-0.486-1.41-0.971-2.12-1.46 1.84-4.77-0.0316-9.47-3.72-11.9-4.34-2.9-10.6-2.41-14.2 2.84-0.688 1.04-0.688 1.04-1.07 2.06l21.9 14.7c0.908-0.946 0.908-0.945 1.49-1.81 4.93-7.37 3.22-17.9-4.57-23.1-2.93-1.98-6.23-2.87-9.47-2.82zm15 27.4c-0.786 1.05-0.874 1.14-1.31 1.62-0.416 0.454-0.544 0.588-1.38 1.33-0.801 0.702-0.957 0.818-1.45 1.17-0.496 0.355-0.653 0.462-1.6 1.01-0.974 0.547-1.14 0.624-1.71 0.871-0.55 0.241-0.733 0.317-1.72 0.641-1.05 0.332-1.23 0.373-1.83 0.5-0.59 0.125-0.782 0.163-1.83 0.279-1.2 0.119-1.36 0.119-1.99 0.119-0.611 0-0.799-0.0021-1.89-0.109-1.1-0.122-1.29-0.158-1.89-0.285-0.599-0.127-0.782-0.168-1.83-0.5-0.992-0.324-1.17-0.4-1.72-0.641-0.565-0.248-0.73-0.325-1.71-0.875-0.936-0.54-1.09-0.648-1.59-1-0.49-0.351-0.647-0.469-1.44-1.16-0.843-0.755-0.969-0.884-1.39-1.34-0.441-0.481-0.529-0.578-1.31-1.63 0.497 1.31-0.732 3.06-2.91 5.51 2.49-1.86 4.28-2.92 5.54-2.51 0.565 1.2-0.272 3.1-1.82 5.8 2.06-2.34 3.59-3.75 4.91-3.59 0.808 1.05 0.383 3.09-0.578 6.06 1.52-2.69 2.72-4.38 4.03-4.53 0.982 0.88 0.976 2.95 0.641 6.03 0.945-2.97 1.79-4.88 3.06-5.26 1.17 0.639 1.59 2.68 1.9 5.78 0.312-3.12 0.745-5.17 1.93-5.79 1.29 0.364 2.14 2.28 3.09 5.27-0.335-3.07-0.34-5.15 0.641-6.03 1.31 0.144 2.51 1.83 4.03 4.53-0.962-2.97-1.39-5.01-0.576-6.06 1.32-0.157 2.86 1.25 4.91 3.59-1.55-2.7-2.39-4.6-1.82-5.8 1.26-0.416 3.05 0.646 5.54 2.51-2.18-2.44-3.41-4.19-2.91-5.51z"/>
</svg>
