<?xml version="1.0" encoding="UTF-8"?>
<svg version="1.1" viewBox="0 0 48 48" xmlns="http://www.w3.org/2000/svg">
 <path d="m1.34 0.304a1.32 1.32 0 0 0-0.829 0.277 1.32 1.32 0 0 0-0.238 1.86l3.81 4.94c-0.135 0.353-0.211 0.736-0.211 1.14v7.41c0 1.76 1.42 3.18 3.18 3.18h33.9c1.76 0 3.18-1.42 3.18-3.18v-7.41c0-0.402-0.0761-0.784-0.211-1.14l3.81-4.94a1.32 1.32 0 0 0-0.238-1.86 1.32 1.32 0 0 0-1.86 0.238l-3.63 4.7c-0.33-0.115-0.683-0.182-1.05-0.182h-33.9c-0.37 0-0.723 0.0668-1.05 0.182l-3.63-4.7a1.32 1.32 0 0 0-1.03-0.515zm12.5 9a3.57 3.57 0 0 1 3.57 3.57 3.57 3.57 0 0 1-3.57 3.57 3.57 3.57 0 0 1-3.57-3.57 3.57 3.57 0 0 1 3.57-3.57zm20.7 0a3.57 3.57 0 0 1 3.57 3.57 3.57 3.57 0 0 1-3.57 3.57 3.57 3.57 0 0 1-3.57-3.57 3.57 3.57 0 0 1 3.57-3.57zm-27.4 10.9c-1.76 0-3.18 1.42-3.18 3.18v21.2c0 1.76 1.42 3.18 3.18 3.18h33.9c1.76 0 3.18-1.42 3.18-3.18v-21.2c0-1.76-1.42-3.18-3.18-3.18zm16.9 2.65c6.13 0 11.1 4.99 11.1 11.1 0 6.13-4.99 11.1-11.1 11.1s-11.1-4.99-11.1-11.1c0-6.13 4.99-11.1 11.1-11.1zm0 2.01c-5.04 0-9.11 4.07-9.11 9.11s4.07 9.11 9.11 9.11 9.11-4.07 9.11-9.11-4.07-9.11-9.11-9.11zm0 2.49c3.64 0 6.62 2.98 6.62 6.62 0 3.64-2.98 6.62-6.62 6.62-3.13 0-5.76-2.21-6.44-5.14h3.34c0.549 1.16 1.72 1.96 3.1 1.96 1.92 0 3.44-1.52 3.44-3.44 0-1.92-1.52-3.44-3.44-3.44-1.3 0-2.4 0.704-2.99 1.75h-3.4c0.756-2.82 3.34-4.93 6.39-4.93z" color="#000000" fill="#000000" fill-rule="evenodd" stroke-linecap="round" stroke-width="1.06" style="-inkscape-stroke:none"/>
</svg>
