<?xml version="1.0" encoding="UTF-8"?>
<svg width="48" height="48" version="1.1" viewBox="0 0 12.7 12.7" xmlns="http://www.w3.org/2000/svg">
 <path d="m7.03 0.0018a1.21 1.21 0 0 0-1.28 1.15 1.21 1.21 0 0 0 1.15 1.28 1.21 1.21 0 0 0 1.28-1.15 1.21 1.21 0 0 0-1.15-1.28zm-1.38 1.43-3.46 1.76a1.34 1.34 0 0 1 0.364 0.719l3.46-1.76a1.34 1.34 0 0 1-0.364-0.719zm2.5 0.401a1.34 1.34 0 0 1-0.572 0.569l2.74 2.75a1.34 1.34 0 0 1 0.572-0.569zm-2.12 0.332-2.03 3.96 0.598 0.601 2.15-4.19a1.34 1.34 0 0 1-0.717-0.368zm1.54 0.24a1.34 1.34 0 0 1-0.678 0.145 1.34 1.34 0 0 1-0.117-0.0123l0.307 1.96 0.837 0.134zm-6.27 0.503a1.21 1.21 0 0 0-1.28 1.15 1.21 1.21 0 0 0 1.15 1.28 1.21 1.21 0 0 0 1.28-1.15 1.21 1.21 0 0 0-1.15-1.28zm1.25 1.01a1.34 1.34 0 0 1 0.0147 0.273 1.34 1.34 0 0 1-0.139 0.523l1.97 0.316 0.386-0.755zm3.37 0.541-0.386 0.755 4.65 0.746a1.34 1.34 0 0 1-0.0135-0.266 1.34 1.34 0 0 1 0.143-0.53zm5.65 0.0945a1.21 1.21 0 0 0-1.28 1.15 1.21 1.21 0 0 0 1.15 1.28 1.21 1.21 0 0 0 1.28-1.15 1.21 1.21 0 0 0-1.15-1.28zm-9.15 0.182a1.34 1.34 0 0 1-0.571 0.569l3.14 3.15 0.756-0.383zm-0.589 0.578a1.34 1.34 0 0 1-0.667 0.14 1.34 1.34 0 0 1-0.129-0.0135l0.599 3.83a1.34 1.34 0 0 1 0.667-0.14 1.34 1.34 0 0 1 0.129 0.0135zm5.43 0.328 0.725 4.64a1.34 1.34 0 0 1 0.658-0.135 1.34 1.34 0 0 1 0.14 0.0153l-0.686-4.39zm2.92 0.34-1.78 0.9 0.131 0.838 2.01-1.02a1.34 1.34 0 0 1-0.364-0.719zm0.378 0.733-1.77 3.45a1.34 1.34 0 0 1 0.717 0.368l1.77-3.45a1.34 1.34 0 0 1-0.717-0.368zm-7.09 0.432-1.03 2a1.34 1.34 0 0 1 0.717 0.368l0.907-1.77zm3.9 0.258-4.2 2.13a1.34 1.34 0 0 1 0.365 0.719l3.97-2.01zm-0.823 1.49-0.756 0.383 1.59 1.6a1.34 1.34 0 0 1 0.572-0.569zm-4.26 0.365a1.21 1.21 0 0 0-1.28 1.15 1.21 1.21 0 0 0 1.15 1.28 1.21 1.21 0 0 0 1.28-1.15 1.21 1.21 0 0 0-1.15-1.28zm1.25 1.02a1.34 1.34 0 0 1 0.014 0.269 1.34 1.34 0 0 1-0.141 0.527l3.83 0.615a1.34 1.34 0 0 1-0.014-0.269 1.34 1.34 0 0 1 0.141-0.527zm5.09 2e-3a1.21 1.21 0 0 0-1.28 1.15 1.21 1.21 0 0 0 1.15 1.28 1.21 1.21 0 0 0 1.28-1.15 1.21 1.21 0 0 0-1.15-1.28z" color="#000000" color-rendering="auto" dominant-baseline="auto" fill="#000000" image-rendering="auto" shape-rendering="auto" solid-color="#000000" style="font-feature-settings:normal;font-variant-alternates:normal;font-variant-caps:normal;font-variant-ligatures:normal;font-variant-numeric:normal;font-variant-position:normal;isolation:auto;mix-blend-mode:normal;shape-padding:0;text-decoration-color:#000000;text-decoration-line:none;text-decoration-style:solid;text-indent:0;text-orientation:mixed;text-transform:none;white-space:normal"/>
</svg>
