<?xml version="1.0" encoding="UTF-8"?>
<svg version="1.1" viewBox="0 0 48 48" xmlns="http://www.w3.org/2000/svg">
 <path d="m26.5 0.0777a4.56 4.56 0 0 0-4.82 4.33 4.56 4.56 0 0 0 4.33 4.82 4.56 4.56 0 0 0 4.82-4.33 4.56 4.56 0 0 0-4.33-4.82zm-5.2 5.39-13 6.63a5.05 5.05 0 0 1 1.37 2.7l13-6.63a5.05 5.05 0 0 1-1.37-2.7zm9.42 1.51a5.05 5.05 0 0 1-2.15 2.14l10.3 10.4a5.05 5.05 0 0 1 2.15-2.14zm-7.99 1.25-7.65 14.9 2.25 2.26 8.1-15.7a5.05 5.05 0 0 1-2.7-1.38zm5.8 0.904a5.05 5.05 0 0 1-2.55 0.546 5.05 5.05 0 0 1-0.441-0.0463l1.16 7.38 3.15 0.505zm-23.6 1.89a4.56 4.56 0 0 0-4.82 4.33 4.56 4.56 0 0 0 4.33 4.82 4.56 4.56 0 0 0 4.82-4.33 4.56 4.56 0 0 0-4.33-4.82zm4.71 3.8a5.05 5.05 0 0 1 0.0554 1.03 5.05 5.05 0 0 1-0.524 1.97l7.42 1.19 1.45-2.84zm12.7 2.03-1.45 2.84 17.5 2.81a5.05 5.05 0 0 1-0.0508-1 5.05 5.05 0 0 1 0.539-1.99zm21.2 0.356a4.56 4.56 0 0 0-4.82 4.33 4.56 4.56 0 0 0 4.33 4.82 4.56 4.56 0 0 0 4.82-4.33 4.56 4.56 0 0 0-4.33-4.82zm-34.4 0.686a5.05 5.05 0 0 1-2.15 2.14l11.8 11.9 2.84-1.44zm-2.21 2.17a5.05 5.05 0 0 1-2.51 0.527 5.05 5.05 0 0 1-0.486-0.0508l2.25 14.4a5.05 5.05 0 0 1 2.51-0.527 5.05 5.05 0 0 1 0.486 0.0508zm20.4 1.24 2.73 17.4a5.05 5.05 0 0 1 2.47-0.508 5.05 5.05 0 0 1 0.527 0.0576l-2.58-16.5zm11 1.28-6.7 3.39 0.493 3.15 7.57-3.84a5.05 5.05 0 0 1-1.37-2.7zm1.42 2.76-6.67 13a5.05 5.05 0 0 1 2.7 1.38l6.67-13a5.05 5.05 0 0 1-2.7-1.38zm-26.7 1.62-3.88 7.53a5.05 5.05 0 0 1 2.7 1.38l3.41-6.67zm14.7 0.972-15.8 8.02a5.05 5.05 0 0 1 1.37 2.7l14.9-7.57zm-3.1 5.61-2.84 1.44 5.99 6.03a5.05 5.05 0 0 1 2.15-2.14zm-16 1.37a4.56 4.56 0 0 0-4.82 4.33 4.56 4.56 0 0 0 4.33 4.82 4.56 4.56 0 0 0 4.82-4.33 4.56 4.56 0 0 0-4.33-4.82zm4.71 3.84a5.05 5.05 0 0 1 0.0527 1.01 5.05 5.05 0 0 1-0.531 1.98l14.4 2.31a5.05 5.05 0 0 1-0.0527-1.01 5.05 5.05 0 0 1 0.531-1.98zm19.1 0.0076a4.56 4.56 0 0 0-4.82 4.33 4.56 4.56 0 0 0 4.33 4.82 4.56 4.56 0 0 0 4.82-4.33 4.56 4.56 0 0 0-4.33-4.82z"/>
</svg>
