<?xml version="1.0" encoding="UTF-8" standalone="no"?>
<!-- Created with Inkscape (http://www.inkscape.org/) -->

<svg
   xmlns:dc="http://purl.org/dc/elements/1.1/"
   xmlns:cc="http://creativecommons.org/ns#"
   xmlns:rdf="http://www.w3.org/1999/02/22-rdf-syntax-ns#"
   xmlns:svg="http://www.w3.org/2000/svg"
   xmlns="http://www.w3.org/2000/svg"
   xmlns:xlink="http://www.w3.org/1999/xlink"
   xmlns:sodipodi="http://sodipodi.sourceforge.net/DTD/sodipodi-0.dtd"
   xmlns:inkscape="http://www.inkscape.org/namespaces/inkscape"
   inkscape:version="0.92.2 2405546, 2018-03-11"
   sodipodi:docname="fedora-inverse.svg"
   id="svg2855"
   height="512"
   width="512"
   version="1.1">
  <metadata
     id="metadata953">
    <rdf:RDF>
      <cc:Work
         rdf:about="">
        <dc:format>image/svg+xml</dc:format>
        <dc:type
           rdf:resource="http://purl.org/dc/dcmitype/StillImage" />
        <dc:title></dc:title>
      </cc:Work>
    </rdf:RDF>
  </metadata>
  <sodipodi:namedview
     inkscape:current-layer="svg2855"
     inkscape:window-maximized="1"
     inkscape:window-y="0"
     inkscape:window-x="0"
     inkscape:cy="120.74261"
     inkscape:cx="26.859554"
     inkscape:zoom="0.5"
     showgrid="false"
     id="namedview951"
     inkscape:window-height="1415"
     inkscape:window-width="2560"
     inkscape:pageshadow="2"
     inkscape:pageopacity="0"
     guidetolerance="10"
     gridtolerance="10"
     objecttolerance="10"
     borderopacity="1"
     bordercolor="#666666"
     pagecolor="#ffffff"
     fit-margin-top="0"
     fit-margin-left="0"
     fit-margin-right="0"
     fit-margin-bottom="0"
     showguides="false" />
  <defs
     id="defs2857">
    <inkscape:path-effect
       effect="spiro"
       id="path-effect7404"
       is_visible="true" />
    <pattern
       inkscape:collect="always"
       xlink:href="#pattern7287"
       id="pattern7297"
       patternTransform="matrix(2.8814775,0,0,0.72701614,222.65563,-338.20403)" />
    <pattern
       inkscape:collect="always"
       xlink:href="#Wavy"
       id="pattern7287"
       patternTransform="translate(-46.044951,-314.1624)" />
    <pattern
       inkscape:stockid="Wavy"
       id="Wavy"
       height="5.1805778"
       width="30.066020"
       patternUnits="userSpaceOnUse"
       inkscape:collect="always">
      <path
         id="path2314"
         d="M 7.597,0.061 C 5.079,-0.187 2.656,0.302 -0.01,1.788 L -0.01,3.061 C 2.773,1.431 5.173,1.052 7.472,1.280 C 9.770,1.508 11.969,2.361 14.253,3.218 C 18.820,4.931 23.804,6.676 30.066,3.061 L 30.062,1.788 C 23.622,5.497 19.246,3.770 14.691,2.061 C 12.413,1.207 10.115,0.311 7.597,0.061 z "
         style="fill:black;stroke:none;" />
    </pattern>
    <inkscape:path-effect
       effect="spiro"
       id="path-effect6568"
       is_visible="true" />
    <inkscape:path-effect
       effect="spiro"
       id="path-effect6564"
       is_visible="true" />
    <inkscape:path-effect
       fuse_tolerance="0"
       vertical_pattern="false"
       prop_units="false"
       tang_offset="0"
       normal_offset="0"
       spacing="0"
       scale_y_rel="false"
       prop_scale="1"
       copytype="repeated"
       pattern="m -3.5295516,-1.5553956 h 1"
       is_visible="true"
       id="path-effect6560"
       effect="skeletal" />
    <inkscape:path-effect
       effect="skeletal"
       id="path-effect6551"
       is_visible="true"
       pattern="m -60,-320 h 1"
       copytype="repeated"
       prop_scale="1"
       scale_y_rel="false"
       spacing="0"
       normal_offset="0"
       tang_offset="0"
       prop_units="false"
       vertical_pattern="false"
       fuse_tolerance="0" />
    <inkscape:path-effect
       effect="skeletal"
       id="path-effect6474"
       is_visible="true"
       pattern="M 0,0 H 1"
       copytype="repeated_stretched"
       prop_scale="0"
       scale_y_rel="true"
       spacing="0"
       normal_offset="0"
       tang_offset="0"
       prop_units="false"
       vertical_pattern="false"
       fuse_tolerance="0" />
    <inkscape:path-effect
       effect="curvestitching"
       id="path-effect6472"
       is_visible="true"
       count="11"
       startpoint_edge_variation="0;719949167"
       startpoint_spacing_variation="0;371072991"
       endpoint_edge_variation="0;1"
       endpoint_spacing_variation="0;1"
       strokepath="m 68.323967,138.95869 h 9.554719"
       prop_scale="1"
       scale_y_rel="false" />
    <inkscape:path-effect
       effect="copy_rotate"
       starting_point="73.101327,138.95869"
       origin="68.323967,138.95869"
       id="path-effect6470"
       is_visible="true"
       copies_to_360="true"
       fuse_paths="false"
       starting_angle="0"
       rotation_angle="60"
       num_copies="2" />
    <inkscape:path-effect
       is_visible="true"
       id="path-effect2516"
       effect="spiro" />
    <inkscape:path-effect
       effect="spiro"
       id="path-effect2502"
       is_visible="true" />
    <clipPath
       clipPathUnits="userSpaceOnUse"
       id="clipPath7289">
      <path
         inkscape:connector-curvature="0"
         id="path7291"
         d="m 341.41795,-253.93281 c 0.26001,-0.25295 0.51555,-0.50071 0.76507,-0.72096 -0.25975,0.23203 -0.51339,0.47536 -0.76507,0.72096 z m 0.85487,-0.79689 c 0.96292,-0.83876 1.89692,-1.47853 3.09082,-2.17657 2.36782,-1.38467 5.43916,-1.37942 7.2299,0.41018 2.16394,2.16281 2.16456,5.30701 -0.1823,7.65388 -1.1185,1.11849 -1.73613,1.308 -3.37395,2.94582 4.83766,-4.83624 12.71707,-4.87221 17.55475,-0.0345 4.83843,4.8356 4.83758,12.7517 0,17.58928 l -0.008,0.008 -1.73186,1.73186 c 2.14537,-2.11723 5.57178,-2.12569 7.71326,0.0124 2.15035,2.15035 2.12779,5.59515 -0.0152,7.73813 l -6.99096,6.99096 10e-4,0.001 8.75458,-8.75459 0.003,-0.003 c 9.16433,-9.16433 9.23948,-23.95035 0.0746,-33.11524 -8.81746,-8.81746 -22.90296,-9.14697 -32.1195,-0.99851 z m -7.94252,17.59342 c 0,0.75072 0.0361,1.50044 0.10772,2.24838 -0.0715,-0.74703 -0.10764,-1.49858 -0.10772,-2.24838 z m 0.42951,4.48156 c 0.14303,0.73874 0.32277,1.47242 0.53724,2.19729 -0.21481,-0.72571 -0.39404,-1.45768 -0.53724,-2.19729 z m 2.25528,6.42888 c 0.35831,0.68198 0.75074,1.34982 1.18082,2.00116 -0.4296,-0.65064 -0.82282,-1.31994 -1.18082,-2.00116 z m 1.18082,2.00116 c 0.4296,0.65065 0.89505,1.28447 1.39626,1.89897 -0.50122,-0.61449 -0.96666,-1.24832 -1.39626,-1.89897 z m 3.04386,21.2353 c -9.16546,9.16546 -9.20104,23.98601 -0.0373,33.14978 8.83624,8.83624 22.96394,9.15171 32.18026,0.94879 -0.98472,0.86494 -1.93385,1.51037 -3.1516,2.22352 -2.36725,1.38524 -5.43833,1.38024 -7.2285,-0.4088 -2.16337,-2.16337 -2.1679,-5.30645 0.17953,-7.65388 1.11737,-1.11736 1.73865,-1.30774 3.37534,-2.94443 -4.83702,4.83701 -12.71637,4.87292 -17.55338,0.0359 -4.83758,-4.83757 -4.8743,-12.78956 -0.0373,-17.62657 0.004,-0.004 0.009,-0.006 0.0124,-0.01 l 7.50473,-7.50472 c 0.002,-0.002 0.002,-0.005 0.004,-0.007 l -0.004,0.004 -5.7508,5.74797 c -2.14356,2.14356 -5.58614,2.16718 -7.73536,0.018 -2.16422,-2.16139 -2.11568,-5.61555 0.0511,-7.78232 l -1.80644,1.80644 z m 32.14298,34.09857 c 0.34276,-0.30514 0.67952,-0.61871 1.0082,-0.94739 1.71893,-1.71893 3.11472,-3.63857 4.18878,-5.68309 -1.07395,2.04366 -2.47046,3.96202 -4.18877,5.68033 -0.34759,0.34758 -0.67996,0.66185 -1.00817,0.95019 z m 5.19695,-6.63051 c 0.35752,-0.68053 0.68069,-1.37439 0.96676,-2.07988 -0.28615,0.70543 -0.60917,1.39941 -0.96676,2.07988 z m -12.00976,-19.65535 c 0.28651,0.28743 0.55552,0.5862 0.80795,0.89351 -0.25277,-0.30792 -0.51955,-0.60695 -0.80654,-0.89493 z m 14.26505,13.22648 c -0.14311,0.73872 -0.32269,1.47243 -0.53723,2.19728 0.21443,-0.7249 0.39423,-1.45851 0.53723,-2.19728 z"
         style="fill:#707070;fill-opacity:1"
         clip-path="none" />
    </clipPath>
    <clipPath
       clipPathUnits="userSpaceOnUse"
       id="clipPath7299">
      <path
         clip-path="none"
         style="fill:#707070;fill-opacity:1"
         d="m 341.41795,-253.93281 c 0.26002,-0.25295 0.51554,-0.50071 0.76507,-0.72096 -0.25975,0.23203 -0.51339,0.47536 -0.76507,0.72096 z m 0.85487,-0.79689 c 0.96292,-0.83876 1.89692,-1.47853 3.09082,-2.17657 2.36782,-1.38467 5.43916,-1.37942 7.2299,0.41018 2.16394,2.16281 2.16456,5.30701 -0.1823,7.65388 -1.1185,1.11849 -1.73613,1.308 -3.37395,2.94582 4.83766,-4.83624 12.71707,-4.87221 17.55475,-0.0345 4.83843,4.8356 4.83758,12.7517 0,17.58928 l -0.008,0.008 -1.73186,1.73186 c 2.14538,-2.11723 5.57178,-2.1257 7.71326,0.0124 2.15035,2.15035 2.12779,5.59515 -0.0152,7.73813 l -6.99096,6.99096 7.1e-4,7e-4 8.75458,-8.75459 0.003,-0.003 c 9.16433,-9.16433 9.23948,-23.95035 0.0746,-33.11524 -8.81746,-8.81746 -22.90296,-9.14697 -32.1195,-0.99851 z m -7.94252,17.59342 c 0,0.75072 0.0361,1.50044 0.10772,2.24838 -0.0715,-0.74703 -0.10764,-1.49858 -0.10772,-2.24838 z m 0.42951,4.48156 c 0.14303,0.73874 0.32277,1.47242 0.53724,2.19729 -0.21481,-0.72571 -0.39404,-1.45768 -0.53724,-2.19729 z m 2.25528,6.42888 c 0.35831,0.68198 0.75074,1.34982 1.18082,2.00116 -0.4296,-0.65064 -0.82282,-1.31994 -1.18082,-2.00116 z m 1.18082,2.00116 c 0.4296,0.65065 0.89505,1.28447 1.39626,1.89897 -0.50122,-0.61449 -0.96666,-1.24832 -1.39626,-1.89897 z m 3.04386,21.2353 c -9.16546,9.16546 -9.20105,23.98601 -0.0373,33.14978 8.83624,8.83624 22.96394,9.15172 32.18026,0.94879 -0.98472,0.86494 -1.93385,1.51037 -3.1516,2.22353 -2.36725,1.38523 -5.43833,1.38023 -7.2285,-0.40881 -2.16337,-2.16337 -2.1679,-5.30645 0.17953,-7.65387 1.11737,-1.11737 1.73865,-1.30776 3.37534,-2.94445 -4.83702,4.83702 -12.71637,4.87293 -17.55338,0.0359 -4.83758,-4.83757 -4.8743,-12.78956 -0.0373,-17.62657 0.004,-0.004 0.009,-0.006 0.0126,-0.01 l 7.50473,-7.50472 c 0.002,-0.002 0.002,-0.005 0.004,-0.007 l -0.004,0.004 -5.75079,5.74796 c -2.14357,2.14357 -5.58614,2.16718 -7.73537,0.018 -2.16422,-2.16139 -2.11568,-5.61555 0.0511,-7.78232 l -1.80644,1.80644 z m 32.14298,34.09857 c 0.34276,-0.30514 0.67952,-0.61871 1.0082,-0.94739 1.71893,-1.71893 3.11472,-3.63857 4.18878,-5.68309 -1.07395,2.04366 -2.47046,3.96202 -4.18877,5.68033 -0.34759,0.34758 -0.67995,0.66186 -1.00817,0.95019 z m 5.19695,-6.63051 c 0.35752,-0.68053 0.68069,-1.37439 0.96676,-2.07988 -0.28615,0.70542 -0.60917,1.39941 -0.96676,2.07988 z m -12.00976,-19.65535 c 0.28651,0.28742 0.55552,0.58621 0.80795,0.89351 -0.25277,-0.30793 -0.51955,-0.60695 -0.80654,-0.89493 z m 14.26505,13.22647 c -0.14311,0.73873 -0.32269,1.47243 -0.53723,2.19729 0.21443,-0.7249 0.39423,-1.45851 0.53723,-2.19729 z"
         id="path7301"
         inkscape:connector-curvature="0" />
    </clipPath>
  </defs>
  <path
     style="fill:#000000;fill-opacity:1;stroke-width:5.11614227"
     d="m 335.64062,61.523438 c -1.08033,-0.0073 -2.16342,0.0022 -3.24804,0.0293 -52.55004,-0.715159 -101.69975,36.499897 -115.51758,87.189456 -7.94098,31.5232 -3.31154,64.34314 -4.55664,96.5039 h -49.42578 c -0.37455,0.19291 -0.80493,0.32708 -1.32813,0.33008 -15.29815,0.10094 -27.53858,12.2638 -27.55078,27.61719 0,15.42862 12.3538,27.60937 27.74024,27.60937 0.5391,0 0.97667,0.13931 1.35937,0.33985 5.6894,0 11.37931,0.007 17.06836,0.01 10.41572,1.61248 24.32666,-4.27546 31.44727,5.44532 1.62605,14.55143 0.24344,29.40545 0.69921,44.07422 2.25358,25.90681 -5.7631,54.35072 -29.80859,68.11718 -13.43762,9.07751 -29.66724,11.3234 -44.95898,8.33203 -1.17154,-0.15758 -1.95769,-0.30337 -3.57617,-0.42968 -18.67174,-1.45988 -31.34368,9.47743 -32.66797,26.46875 -0.90322,11.59741 7.03631,22.39694 18.48828,28.45703 57.91992,15.28302 124.18188,-19.51869 142.60742,-77.2168 10.83167,-33.38182 5.20597,-68.79648 6.60547,-103.25781 16.57423,-0.0715 33.15005,2.2e-4 49.72461,-0.0508 0.36475,-0.17343 0.78096,-0.29102 1.27929,-0.29102 15.38647,0 27.73047,-12.17883 27.73047,-27.60742 -0.0122,-15.35342 -12.24283,-27.51637 -27.54101,-27.61719 -0.35348,-0.003 -0.64224,-0.0956 -0.92774,-0.18945 -6.1219,-0.0196 -12.23294,-0.17599 -18.13867,-0.15039 -10.40886,-1.61033 -24.31904,4.27973 -31.42773,-5.45703 -1.64035,-16.87063 -0.23159,-34.05128 -0.69922,-51.03907 -4.23878,-36.16417 26.55904,-71.62833 63.36523,-70.50195 5.18492,-0.0126 10.35233,0.66437 15.37891,1.91797 16.88517,0.0172 28.18358,-10.60167 29.42969,-26.589844 0.92427,-11.86759 -7.38049,-23.423352 -19.26563,-29.515625 -7.27001,-1.59083 -14.72283,-2.475901 -22.28516,-2.527343 z m 37.89649,7.134765 c 3.13074,3.374382 5.71847,7.142179 7.40234,11.259766 19.23016,17.93468 39.48202,36.247371 62.32617,55.605471 1.15262,2.76807 2.19977,5.58474 3.14649,8.45312 -23.03279,-19.21803 -43.76297,-37.55986 -63.26367,-55.374998 -0.0103,-0.04033 -0.0208,-0.08009 -0.0312,-0.121093 0.0491,0.44027 0.0642,0.886018 0.0898,1.330078 0.0882,1.39342 0.12079,2.799792 0.01,4.226562 -0.36527,4.68613 -1.56971,9.012101 -3.4375,12.898441 -0.11563,0.23984 -0.20984,0.49463 -0.33008,0.73047 21.94239,20.31466 45.40366,41.19566 72.54883,63.58984 0.17037,1.99617 0.28777,4.00249 0.35937,6.02539 -27.97214,-22.87606 -52.59104,-44.52015 -75.49609,-65.41797 -3.24787,4.55356 -7.59218,8.20442 -12.75977,10.68164 25.95604,24.26922 53.73168,49.19228 87.09766,76.41797 -0.24063,1.65782 -0.53183,3.30101 -0.83984,4.93555 -22.64973,-18.37534 -43.11652,-35.96257 -62.28516,-53.01758 8.8043,16.49789 10.15113,36.97812 3.4668,54.44726 13.75859,12.09878 28.09179,24.42885 43.93945,37.37891 11.14689,-18.22124 17.51496,-39.28354 16.97851,-61.08984 C 453.77646,131.6945 419.164,85.814422 373.53711,68.658203 Z m 2.80469,6.753906 c 7.32337,10.45559 7.32179,10.45693 0,0 z m 19.61718,105.046871 c 15.31407,13.53234 31.40643,27.37368 49.34375,41.97461 -0.52255,1.43766 -1.0826,2.85656 -1.6582,4.26758 -17.07676,-13.83956 -32.85493,-27.2075 -47.86719,-40.27734 0.12031,-1.59146 0.24072,-3.18568 0.24024,-4.80664 0,-0.39097 -0.0534,-0.76907 -0.0586,-1.15821 z m -6.39648,29.2754 c -2.45135,5.13561 -5.59232,9.955 -9.54297,14.21874 13.30852,11.78108 27.21931,23.80018 42.44922,36.36133 3.8735,-4.3738 7.44094,-9.01362 10.66211,-13.8789 -15.45411,-12.58141 -29.82593,-24.7591 -43.56836,-36.70117 z m -12.88086,17.42578 c -0.53856,0.49133 -1.00643,1.03704 -1.56836,1.50976 -3.7565,3.79309 -7.84372,6.72819 -12.18164,9.01172 13.62276,12.24048 27.98232,24.76356 43.55859,37.79102 4.59641,-3.64999 8.93553,-7.62462 12.98047,-11.88086 -15.20602,-12.49529 -29.2403,-24.56253 -42.78906,-36.43164 z m -18.33594,12.65039 c -6.73386,2.76776 -13.96668,4.12159 -21.375,4.83593 0.17996,0.10641 0.36152,0.21082 0.53907,0.32032 0.51924,-0.044 1.05257,-0.0253 1.56835,-0.0801 15.14902,13.94709 30.96513,28.1571 48.36524,42.99609 5.37123,-2.83173 10.53283,-6.06735 15.42969,-9.67383 -15.81354,-13.17448 -30.49141,-25.91066 -44.52735,-38.39843 z m 29.09766,48.07226 c -1.44556,0.74145 -2.90762,1.45266 -4.38672,2.13672 -11.03632,-9.36678 -21.40559,-18.47211 -31.50781,-27.4668 1.13246,3.34038 1.7763,6.90959 1.77929,10.64063 10e-6,4.80137 -1.04083,9.3421 -2.86718,13.44922 4.66758,3.76878 9.05369,7.29403 13.16992,10.63086 8.27288,-2.22633 16.25218,-5.40479 23.8125,-9.39063 z m -243.4375,-42.75586 c -8.75407,0.39747 -17.41001,1.80297 -25.81445,4.11524 1.56235,-0.41077 3.13303,-0.79914 4.7207,-1.14844 3.25615,3.068 6.43914,6.10255 9.63281,9.14258 2.61269,-4.74655 6.35425,-8.77172 10.86133,-11.74024 -0.0338,-0.0323 -0.0658,-0.0689 -0.0996,-0.0996 0.0929,-0.005 0.18845,-0.005 0.28125,-0.01 0.13763,-0.0895 0.27891,-0.17227 0.41797,-0.25977 z m -27.05664,4.46875 c -5.81662,1.66743 -11.50976,3.76206 -17.021486,6.27149 10.488106,9.71281 20.602446,19.25175 30.568356,28.72851 -1.30314,-3.5552 -2.04882,-7.38302 -2.04882,-11.40234 0.003,-3.82262 0.68304,-7.47076 1.86914,-10.88086 -4.4489,-4.24549 -8.91025,-8.4876 -13.36719,-12.7168 z m -21.847658,8.61914 c -5.086028,2.58425 -10.043315,5.43613 -14.730468,8.6836 14.875304,13.55927 28.926726,26.77351 42.589846,39.80859 5.53896,-2.60707 11.45131,-4.42937 17.64844,-5.16601 -15.12,-14.5586 -30.14111,-28.95635 -45.507818,-43.32618 z m -18.777343,11.74219 c -4.434429,3.34509 -8.67843,6.92673 -12.621094,10.83008 14.476243,13.02483 28.178525,25.72602 41.371095,38.20898 -1.24792,1.2006 -2.42976,2.46069 -3.57813,3.75782 C 88.050116,309.92977 74.484708,297.15192 60.376953,284.30469 47.809252,297.77704 38.254617,314.021 33.435547,332.18555 c -6.708767,21.77996 -6.044561,44.85734 0.388672,66.26757 21.836087,19.84559 41.815599,38.9052 61.427734,57.76368 -0.04689,-1.16261 -0.05378,-2.33575 0.03906,-3.52735 0.414064,-5.31251 1.903273,-10.16556 4.226562,-14.42773 -23.266868,-22.40768 -46.029281,-44.31746 -70.429687,-66.48633 -0.121312,-2.18527 -0.205985,-4.38076 -0.208985,-6.5957 26.581888,23.73844 50.43351,46.34913 73.566404,68.58593 3.29936,-4.24322 7.6042,-7.61921 12.65235,-9.90234 -1.23973,-1.18725 -2.48424,-2.37897 -3.69727,-3.54687 -26.653407,-25.66449 -52.540609,-50.60029 -80.71289,-75.96875 0.317312,-1.82357 0.679564,-3.63184 1.078125,-5.42578 21.893187,19.41913 41.9742,38.08922 61.117187,56.34374 -1.926462,-3.5801 -3.567055,-7.34276 -4.6875,-11.38085 -2.093127,-5.94186 -2.982893,-12.0307 -3.027343,-18.07618 -15.573291,-14.83726 -31.423253,-29.62593 -48.015625,-44.54297 0.617744,-1.5724 1.267612,-3.12704 1.949218,-4.66601 16.340738,14.49301 31.777025,28.62628 46.40625,42.40625 2.235321,-20.3887 14.883298,-39.39791 32.587888,-49.75195 C 104.38775,296.11067 90.52954,283.05242 76.324219,269.95703 Z M 347.96289,291.25 c -2.53772,3.89285 -5.86483,7.21139 -9.76367,9.74219 0.11971,-10e-4 0.23971,0.001 0.35937,0 6.35986,-0.16699 12.62849,-0.93972 18.76758,-2.20899 -3.06307,-2.45542 -6.04414,-4.85743 -9.36328,-7.5332 z m -298.099609,6.07422 c 14.8528,13.23961 29.01403,26.20192 42.449219,38.84961 -0.828128,1.62176 -1.596959,3.26865 -2.287109,4.96484 -13.928101,-13.24458 -28.077015,-26.45843 -42.820313,-39.76758 0.860415,-1.36717 1.744687,-2.71783 2.658203,-4.04687 z M 37.302734,408.46484 c 12.01019,30.37966 35.832577,56.15875 66.662106,68.08594 -3.00906,-3.40157 -5.440811,-7.17112 -6.935543,-11.31055 -0.157589,-0.15195 -0.321251,-0.30751 -0.478516,-0.45898 C 76.801503,445.76484 57.418644,427.14681 37.302734,408.46484 Z m 71.794926,5.83594 c 3.45726,2.76986 7.1955,5.20691 11.18554,7.22461 0.12177,0.11766 0.24722,0.23239 0.36914,0.34961 0.17768,-0.0476 0.36199,-0.0848 0.54102,-0.13086 -4.28731,-2.05043 -8.34965,-4.54303 -12.0957,-7.44336 z m 10.89648,13.07031 -5.49609,1.50782 z m -17.75781,11.08008 -2.449221,4.60742 z M 97.75,453.88867 c 2.147884,12.3477 2.148497,12.34858 0,0 z"
     id="path35"
     inkscape:connector-curvature="0"
     sodipodi:nodetypes="sccccccsccccccccccccsccccccccccscccccccccccccccccccccccccccccccccccccccccccccccccccccccccccccccccccccccccccccccccccccccccccccccccccccccccccccccccccccccccccccc" />
  <path
     inkscape:connector-curvature="0"
     d="M 503.76487,255.98389 C 503.76487,119.14802 392.8339,8.2161598 255.9997,8.2161598 119.22542,8.2161598 8.3423895,119.05501 8.2426325,255.80934 l -0.0075,-0.008 v 191.73289 l 0.0075,0.008 c 0.07781,31.05054 25.2565965,56.1875 56.3272755,56.1875 l 0.26923,-0.008 0.0151,0.008 H 256.0979 c 136.79031,-0.0514 247.66573,-110.94427 247.66573,-247.74584"
     style="fill:none;fill-opacity:1;fill-rule:nonzero;stroke:#1a1a1a;stroke-width:16.76200104;stroke-miterlimit:4;stroke-dasharray:none"
     id="path3584" />
</svg>
