<?xml version="1.0" encoding="UTF-8" standalone="no"?>
<svg
   version="1.1"
   width="512"
   height="512"
   id="svg2855"
   xmlns="http://www.w3.org/2000/svg"
   xmlns:svg="http://www.w3.org/2000/svg"
   xmlns:rdf="http://www.w3.org/1999/02/22-rdf-syntax-ns#"
   xmlns:cc="http://creativecommons.org/ns#"
   xmlns:dc="http://purl.org/dc/elements/1.1/">
  <metadata
     id="metadata20">
    <rdf:RDF>
      <cc:Work
         rdf:about="">
        <dc:format>image/svg+xml</dc:format>
        <dc:type
           rdf:resource="http://purl.org/dc/dcmitype/StillImage" />
      </cc:Work>
    </rdf:RDF>
  </metadata>
  <defs
     id="defs2857" />
  <path
     id="path1616"
     d="M 255.98988,1.6799999e-6 C 114.66024,1.6799999e-6 0.13737814,114.53647 0.04522463,255.83441 H 0 V 453.95111 H 0.04522463 C 0.11304922,486.02926 26.109925,512 58.204369,512 H 58.480533 58.52598 256.09055 C 397.43784,511.9096 511.92633,397.38884 511.92633,256.05513 511.92652,114.66165 397.37557,1.6799999e-6 255.98192,1.6799999e-6 Z M 307.85262,105.38319 C 350.84025,105.38319 391.41859,138.30277 391.41859,183.70222 391.41859,187.91258 391.44329,192.12724 390.75532,196.90265 389.56456,208.9816 378.52716,217.66044 366.5084,215.95761 354.48968,214.2349 346.33446,202.82081 348.55794,190.88217 348.76172,189.5194 348.83411,187.37971 348.83411,183.70222 348.83411,157.9617 327.77119,148.02223 307.85192,148.02223 287.94467,148.02223 270.0105,164.76429 269.96295,183.70222 270.30701,205.60816 269.96295,227.345 269.96295,249.20727 L 306.9129,248.93105 C 335.75797,248.33345 336.08506,291.79081 307.2457,291.5701 L 269.96431,291.84631 C 269.87391,309.46601 270.10016,306.28 270.0095,315.15416 270.0095,315.15416 270.3219,336.70539 269.67898,353.04314 265.21984,401.02645 224.36464,439.37068 175.2875,439.37068 123.26997,439.37068 80.399115,396.84894 80.399115,344.70326 81.961081,291.05873 124.73279,248.872 178.60142,249.37298 L 208.64759,249.14673 V 291.73052 L 178.60142,292.00669 H 178.44285 C 148.83653,292.88277 123.47497,312.9922 122.99004,344.69797 122.99004,373.58712 146.32533,396.72638 175.29466,396.72638 204.21619,396.72638 227.3783,375.67749 227.3783,344.7532 L 227.33309,183.52987 C 227.34791,180.53694 227.44621,178.15955 227.77453,174.85832 232.65834,135.42048 267.93834,105.37652 307.86085,105.37652 Z" />
</svg>
