<?xml version="1.0" encoding="UTF-8" standalone="no"?>
<svg
   version="1.1"
   width="512"
   height="512"
   id="svg2855"
   xmlns="http://www.w3.org/2000/svg"
   xmlns:svg="http://www.w3.org/2000/svg"
   xmlns:rdf="http://www.w3.org/1999/02/22-rdf-syntax-ns#"
   xmlns:cc="http://creativecommons.org/ns#"
   xmlns:dc="http://purl.org/dc/elements/1.1/">
  <metadata
     id="metadata20">
    <rdf:RDF>
      <cc:Work
         rdf:about="">
        <dc:format>image/svg+xml</dc:format>
        <dc:type
           rdf:resource="http://purl.org/dc/dcmitype/StillImage" />
      </cc:Work>
    </rdf:RDF>
  </metadata>
  <defs
     id="defs2857" />
  <path
     id="path1616"
     d="M 255.98242 0 C 114.65639 0.0042443177 0.13707368 114.53866 0.044921875 255.83398 L 0 255.83398 L 0 453.95117 L 0.044921875 453.95117 C 0.11274647 486.02932 26.110634 512 58.205078 512 L 58.480469 512 L 58.525391 512 L 256.08984 512 C 397.43713 511.9096 511.92578 397.3884 511.92578 256.05469 C 511.92597 114.66383 397.38027 0.0042470372 255.99023 0 L 255.98242 0 z M 259.39062 18.050781 C 269.98268 18.203358 280.56498 19.045263 291.04492 20.582031 C 314.01396 23.976136 336.47785 30.767486 357.4668 40.697266 C 385.47181 53.899237 410.80739 72.685197 431.67383 95.550781 C 452.65254 118.47622 469.09113 145.54729 479.66797 174.77148 C 488.7326 199.66064 493.51604 226.08502 493.86914 252.56641 C 494.26121 278.03708 490.57391 303.57611 482.88477 327.86523 C 473.58854 357.29211 458.46198 384.85383 438.6543 408.51758 C 418.00998 433.25269 392.30705 453.73799 363.57617 468.32031 C 332.22553 484.30293 297.24852 493.04661 262.08008 493.89258 C 235.63282 493.98395 209.18399 493.9724 182.73633 493.98828 C 141.52344 493.98958 100.31052 493.99785 59.097656 493.96289 C 50.488044 494.21989 41.85094 491.53075 34.861328 486.50977 C 24.850857 479.47383 18.469017 467.59937 18.083984 455.375 C 17.998075 416.05053 17.999768 376.72527 18.003906 337.40039 C 18.023532 310.60626 17.975215 283.8116 18.046875 257.01758 C 18.084144 245.79293 18.744928 234.56444 20.279297 223.44141 C 23.719746 198.11665 31.324032 173.37111 42.671875 150.47266 C 57.386223 120.71647 78.458311 94.152149 103.96875 72.923828 C 128.27667 52.675627 156.6686 37.355433 186.95117 28.195312 C 206.99824 22.103054 227.86145 18.766441 248.79883 18.126953 C 252.3279 18.024748 255.85994 17.999922 259.39062 18.050781 z M 307.86133 105.37695 C 267.93882 105.37695 232.6592 135.41958 227.77539 174.85742 C 227.44707 178.15865 227.3488 180.53637 227.33398 183.5293 L 227.37891 344.75391 C 227.37891 375.6782 204.21645 396.72656 175.29492 396.72656 C 146.32559 396.72656 122.99023 373.58642 122.99023 344.69727 C 123.47516 312.9915 148.83704 292.88194 178.44336 292.00586 L 178.60156 292.00586 L 208.64844 291.73047 L 208.64844 249.14648 L 178.60156 249.37305 C 124.73293 248.87207 81.960403 291.0586 80.398438 344.70312 C 80.398437 396.84881 123.26958 439.37109 175.28711 439.37109 C 224.36425 439.37109 265.22055 401.02628 269.67969 353.04297 C 270.32261 336.70522 270.00977 315.1543 270.00977 315.1543 C 270.10043 306.28014 269.87444 309.4654 269.96484 291.8457 L 307.24609 291.57031 C 336.08545 291.79102 335.75718 248.33404 306.91211 248.93164 L 269.96289 249.20703 C 269.96289 227.34476 270.30695 205.60906 269.96289 183.70312 C 270.01044 164.76519 287.94431 148.02148 307.85156 148.02148 C 327.77083 148.02148 348.83398 157.9626 348.83398 183.70312 C 348.83398 187.38061 348.76237 189.52004 348.55859 190.88281 C 346.33511 202.82145 354.48909 214.23432 366.50781 215.95703 C 378.52657 217.65986 389.5651 208.98129 390.75586 196.90234 C 391.44383 192.12693 391.41797 187.91348 391.41797 183.70312 C 391.41797 138.30367 350.84115 105.38281 307.85352 105.38281 L 307.86133 105.37695 z " />
</svg>
