<?xml version="1.0" encoding="UTF-8" standalone="no"?>
<!-- Generated by IcoMoon.io -->

<svg
   version="1.1"
   width="448"
   height="448"
   viewBox="0 0 448 448"
   id="svg25"
   xmlns="http://www.w3.org/2000/svg"
   xmlns:svg="http://www.w3.org/2000/svg">
  <defs
     id="defs29" />
  <title
     id="title2" />
  <path
     id="path7"
     d="M 221.92188 76.416016 C 219.77887 76.416016 217.78111 77.572609 216.66211 79.474609 L 205.51953 98.242188 C 203.76853 98.393186 202.01444 98.576344 200.27344 98.777344 L 185.8457 82.636719 C 184.3847 81.005719 182.20933 80.277031 180.11133 80.707031 C 178.00033 81.146031 176.26558 82.684156 175.51758 84.785156 L 168.12305 105.4043 C 166.41105 105.9183 164.71639 106.45963 163.02539 107.01562 L 145.89258 94.15625 C 144.15058 92.84425 141.88144 92.567687 139.89844 93.429688 C 137.92244 94.284688 136.49825 96.154422 136.15625 98.357422 L 132.75781 120.09961 C 131.18481 120.95061 129.62917 121.82575 128.07617 122.71875 L 108.85352 113.57812 C 106.90152 112.64714 104.6237 112.84189 102.8457 114.08789 C 101.0597 115.32689 100.01666 117.44864 100.09766 119.68164 L 100.83594 141.74414 C 99.46793 142.88514 98.113436 144.05147 96.773438 145.23047 L 76.169922 140.16406 C 74.076922 139.65606 71.881234 140.30477 70.365234 141.88477 C 68.840234 143.46977 68.224844 145.7545 68.714844 147.9375 L 73.568359 169.42969 C 72.442359 170.82269 71.328328 172.23025 70.236328 173.65625 L 49.078125 172.88867 C 46.943125 172.82567 44.906891 173.89286 43.712891 175.75586 C 42.518891 177.60986 42.338562 179.98139 43.226562 182.02539 L 51.990234 202.07617 C 51.139234 203.68617 50.294469 205.30903 49.480469 206.95703 L 28.632812 210.49609 C 26.515812 210.85309 24.732203 212.33144 23.908203 214.39844 C 23.089203 216.47044 23.358516 218.83144 24.603516 220.64844 L 36.9375 238.50781 C 36.8415 238.82281 36.75225 239.14003 36.65625 239.45703 L 1.7929688 276.49023 C 1.7929688 276.49023 -3.5465781 280.67953 4.2324219 290.51953 C 11.091422 299.19953 46.308203 333.61166 64.908203 351.64062 C 72.765203 360.79262 78.147934 366.4607 78.710938 365.9707 C 79.597938 365.1917 74.938844 348.53995 59.464844 329.00195 C 47.537844 311.47295 32.056453 284.51034 35.689453 281.40234 C 35.689453 281.40234 37.43357 279.38104 40.544922 276.98633 C 40.942519 278.45802 41.683937 280.20792 43.007812 282.26562 C 47.262814 288.87662 68.575219 314.75755 79.824219 328.31055 C 84.656219 335.25855 87.93275 339.538 88.21875 339.125 C 88.67075 338.469 85.214186 325.42497 75.617188 310.54297 C 71.140186 302.54897 65.792031 291.95872 62.582031 284.13672 C 68.183625 287.68171 74.865357 291.02017 82.490234 294.10742 C 111.5938 335.53346 132.11719 336.38281 132.11719 336.38281 C 186.84619 406.53081 212.77344 350.16211 212.77344 350.16211 C 182.05365 346.67459 160.28136 326.24388 160.27539 326.23828 C 197.17239 321.58828 218.49414 321.1543 218.49414 321.1543 C 216.66711 318.7441 214.85642 316.55055 213.05859 314.49023 C 214.19957 314.49669 215.33056 314.51562 216.47656 314.51562 C 222.7649 314.51562 228.96522 314.4034 235.08984 314.21289 C 233.29999 316.49665 231.49239 318.93023 229.66016 321.58789 C 229.66016 321.58789 245.25092 312.51045 287.04492 323.56445 C 287.04492 323.56445 267.8198 352.99289 229.0918 352.08789 C 229.0918 352.08789 266.20559 396.61383 322.68359 332.29883 C 322.68359 332.29883 358.72 318.30548 377.05273 288.84375 C 384.48229 285.18159 390.6814 281.23807 395.45312 277.07031 C 393.58412 284.58631 387.19175 299.79233 382.09375 310.48633 C 373.71675 325.78033 370.68327 339.09591 371.07227 339.75391 C 371.32027 340.16891 374.17858 335.75923 378.39258 328.61523 C 388.19958 314.64023 406.78405 287.96006 410.49805 281.16406 C 411.06356 280.12848 411.50197 279.17433 411.85156 278.28711 C 413.74843 279.44041 414.86133 280.35547 414.86133 280.35547 C 418.72933 282.59747 408.71352 310.31987 400.47852 328.67188 C 389.27652 349.50988 387.63298 365.76803 388.58398 366.33203 C 389.18298 366.68903 393.25827 360.48914 399.07227 350.61914 C 413.41727 330.63114 440.53309 292.52548 445.49609 283.27148 C 451.12409 272.77748 445.49609 269.83789 445.49609 269.83789 L 407.96289 242.18945 C 407.60989 240.95845 407.25658 239.72781 406.89258 238.50781 L 419.2207 220.64844 C 420.4777 218.83144 420.73302 216.47044 419.91602 214.39844 C 419.09702 212.33744 417.30745 210.85809 415.18945 210.49609 L 394.34375 206.95703 C 393.53675 205.30903 392.6908 203.68717 391.8418 202.07617 L 400.59766 182.02539 C 401.49866 179.98139 401.30923 177.60986 400.11523 175.75586 C 398.92523 173.89386 396.90395 172.80367 394.75195 172.88867 L 373.5957 173.65625 C 372.4997 172.23025 371.38695 170.81669 370.25195 169.42969 L 375.11328 147.9375 C 375.60528 145.7545 374.98384 143.47077 373.46484 141.88477 C 371.95284 140.30477 369.75597 139.65106 367.66797 140.16406 L 347.06055 145.23047 C 345.72655 144.05147 344.37005 142.88514 342.99805 141.74414 L 343.74023 119.68164 C 343.81923 117.44864 342.77923 115.32589 340.99023 114.08789 C 339.20423 112.84089 336.93447 112.65113 334.98047 113.57812 L 315.75586 122.71875 C 314.20786 121.83075 312.65017 120.95061 311.07617 120.09961 L 307.67969 98.357422 C 307.33569 96.154422 305.91859 94.283687 303.93359 93.429688 C 301.95559 92.571686 299.68622 92.84825 297.94922 94.15625 L 280.81055 107.01562 C 279.12355 106.45562 277.42794 105.9183 275.71094 105.4043 L 268.32422 84.785156 C 267.57322 82.684156 265.84152 81.141031 263.72852 80.707031 C 261.62352 80.276031 259.45609 81.004719 257.99609 82.636719 L 243.57031 98.777344 C 241.82531 98.576344 240.08008 98.392187 238.33008 98.242188 L 227.18945 79.474609 C 226.06045 77.573609 224.06887 76.416016 221.92188 76.416016 z M 273.45703 219.30469 C 278.57303 219.37069 284.30606 221.52964 290.03906 227.80664 C 290.03906 227.80664 303.76806 253.31631 290.03906 266.07031 C 290.03906 266.07031 267.5757 283.92731 255.0957 266.07031 C 255.0957 266.07031 240.1197 252.03964 255.0957 227.80664 C 255.0957 227.80664 256.95678 225.85391 259.91016 223.83789 C 257.37245 226.2759 255.71094 230.32131 255.71094 234.90234 C 255.71094 242.35234 260.10158 248.39258 265.51758 248.39258 C 270.93358 248.39258 275.32422 242.35134 275.32422 234.90234 C 275.32422 227.45334 270.93258 221.41406 265.51758 221.41406 C 264.89819 221.41406 264.29263 221.49734 263.70508 221.64844 C 266.50284 220.30157 269.80619 219.25764 273.45703 219.30469 z M 191.53711 219.61719 C 200.42211 219.56319 210.91767 223.19564 215.26367 238.93164 C 215.26367 238.93164 223.83139 273.45434 190.65039 275.40234 C 190.65039 275.40234 153.37656 268.21145 172.61719 230.37109 C 172.17867 231.92887 171.93555 233.62184 171.93555 235.39258 C 171.93555 243.07458 176.46678 249.30469 182.05078 249.30469 C 187.63678 249.30469 192.16406 243.07458 192.16406 235.39258 C 192.16406 227.70858 187.63678 221.47852 182.05078 221.47852 C 179.93731 221.47852 177.97635 222.37314 176.35352 223.89844 C 176.63634 223.44366 176.81534 223.04266 177.11328 222.58008 C 177.11328 222.58008 183.69711 219.66419 191.53711 219.61719 z M 340.99609 299.44922 C 336.5988 303.17773 331.64601 306.99781 325.9082 310.85938 L 314.99414 313.41797 C 314.99414 313.41797 313.28812 310.42877 310.29688 306.54883 C 321.34342 304.51394 331.62486 302.13124 340.99609 299.44922 z M 116.12109 305.28906 C 122.01868 306.48196 128.15866 307.57028 134.50586 308.55078 C 131.11399 312.17073 129.07031 314.99023 129.07031 314.99023 C 124.70359 313.42895 120.32594 309.82832 116.12109 305.28906 z " />
</svg>
