<svg version="1.1" viewBox="0 0 32.001 25.086" xmlns="http://www.w3.org/2000/svg"><path d="m4.3054 22.281-4.3042-2.8023-6.038e-4 -4.5478-6.039e-4 -4.5478 7.9712-5.1868c4.3842-2.8527 7.9906-5.1912 8.0142-5.1966 0.02365-0.00533 3.6367 2.3285 8.0291 5.1864l7.9861 5.1962-4.69e-4 4.5482-4.66e-4 4.5482-4.2992 2.7969c-2.3646 1.5383-4.3186 2.8014-4.3424 2.8068-0.02374 0.0055-1.6887-1.0609-3.6999-2.3696l-3.6567-2.3795-3.6537 2.3774c-2.0095 1.3076-3.6727 2.3764-3.696 2.375-0.023288-0.0013-1.9792-1.2635-4.3465-2.8047zm4.2573-2.9822v-3.6331l-3.475-2.261c-1.9113-1.2436-3.4933-2.268-3.5157-2.2766-0.033259-0.0128-0.040684 0.64787-0.040684 3.6236v3.6392l3.4904 2.2705c1.9197 1.2488 3.5018 2.2705 3.5157 2.2705 0.01389 0 0.025261-1.6349 0.025261-3.6331zm14.688 0.0096v-3.6235l-0.10156-0.07548c-0.15038-0.11176-6.8897-4.4903-6.9113-4.4903-0.01013 0-0.0185 1.637-0.0185 3.6378v3.6378l3.4766 2.2658c1.9121 1.2462 3.4942 2.267 3.5157 2.2685 0.03105 0.0021 0.03906-0.74142 0.03906-3.6208zm3.6885-6.2715c2.7576-1.7941 3.4331-2.2465 3.3999-2.2766-0.05107-0.04644-6.9263-4.5159-6.976-4.535-0.0427-0.016383-7.0032 4.5055-7.0032 4.5497 0 0.0168 1.575 1.0559 3.5001 2.3092 3.2966 2.1462 3.5041 2.2761 3.569 2.2352 0.03788-0.02388 1.6175-1.0509 3.5102-2.2824zm-14.736 0.03811c1.9078-1.2427 3.4674-2.272 3.4657-2.2873-0.0048-0.04292-6.9896-4.5784-7.0282-4.5636-0.062039 0.023808-6.9689 4.5238-6.9767 4.5456-0.011064 0.03071 6.9672 4.5673 7.0235 4.566 0.025781-6.26e-4 1.6078-1.0179 3.5157-2.2605zm7.3188-4.7708c1.9045-1.2388 3.474-2.2634 3.4879-2.2769 0.01389-0.013424-1.5575-1.0542-3.492-2.3128l-3.5173-2.2884-3.4999 2.2762c-1.9249 1.2519-3.5 2.2832-3.5001 2.2918-4.025e-4 0.025448 6.9805 4.561 7.0213 4.5618 0.02057 4.14e-4 1.5956-1.0128 3.5001-2.2517z"/></svg>
