<?xml version="1.0" encoding="UTF-8" standalone="no"?>
<svg
   xmlns:dc="http://purl.org/dc/elements/1.1/"
   xmlns:cc="http://creativecommons.org/ns#"
   xmlns:rdf="http://www.w3.org/1999/02/22-rdf-syntax-ns#"
   xmlns:svg="http://www.w3.org/2000/svg"
   xmlns="http://www.w3.org/2000/svg"
   viewBox="0 0 32 32"
   height="32"
   width="32"
   id="svg2"
   version="1.1">
  <metadata
     id="metadata8">
    <rdf:RDF>
      <cc:Work
         rdf:about="">
        <dc:format>image/svg+xml</dc:format>
        <dc:type
           rdf:resource="http://purl.org/dc/dcmitype/StillImage" />
        <dc:title></dc:title>
      </cc:Work>
    </rdf:RDF>
  </metadata>
  <defs
     id="defs6" />
  <path
     id="path12"
     d="M 4.3050695,25.738258 9.043e-4,22.935932 3.005e-4,18.388138 -3.034e-4,13.840345 7.9709051,8.6535784 C 12.35507,5.800857 15.961465,3.4624011 15.985118,3.457009 c 0.02365,-0.00533 3.636746,2.3284808 8.029096,5.1863824 l 7.986089,5.1961856 -4.69e-4,4.548177 -4.66e-4,4.548178 -4.299213,2.796929 c -2.364567,1.53831 -4.318642,2.80139 -4.342389,2.806844 -0.02374,0.0055 -1.688681,-1.06088 -3.699851,-2.36963 l -3.656675,-2.379548 -3.653669,2.377444 c -2.009518,1.307593 -3.6727191,2.376355 -3.6960032,2.375028 -0.023288,-0.0013 -1.9792075,-1.263461 -4.3464983,-2.804741 z m 4.257289,-2.982209 V 19.122975 L 5.087348,16.861954 C 3.1760931,15.618392 1.5940308,14.593908 1.5716572,14.585322 c -0.033259,-0.0128 -0.040684,0.647873 -0.040684,3.623586 v 3.639197 l 3.4904298,2.270509 c 1.9197356,1.24878 3.5017966,2.270509 3.5156908,2.270509 0.01389,0 0.025261,-1.634883 0.025261,-3.633074 z m 14.6877775,0.0096 V 19.14217 l -0.101563,-0.07548 c -0.150384,-0.11176 -6.889676,-4.490283 -6.911318,-4.490283 -0.01013,0 -0.0185,1.637028 -0.0185,3.637841 v 3.637841 l 3.476629,2.265837 c 1.912145,1.246211 3.494206,2.267047 3.515691,2.268522 0.03105,0.0021 0.03906,-0.741415 0.03906,-3.620796 z m 3.688495,-6.271479 c 2.757599,-1.794134 3.4331,-2.246462 3.399921,-2.276635 -0.05107,-0.04644 -6.926284,-4.5159307 -6.976005,-4.5350104 -0.0427,-0.016383 -7.003165,4.5055424 -7.003165,4.5496674 0,0.0168 1.575029,1.055917 3.500066,2.309153 3.296607,2.146156 3.504071,2.276089 3.568962,2.235209 0.03788,-0.02388 1.617491,-1.050945 3.510221,-2.282384 z m -14.735578,0.03811 c 1.907849,-1.242673 3.467409,-2.271976 3.465692,-2.287337 -0.0048,-0.04292 -6.9896288,-4.5784171 -7.0281574,-4.5636311 -0.062039,0.023808 -6.9688556,4.5238171 -6.9767285,4.5455601 -0.011064,0.03071 6.9672386,4.567312 7.023502,4.565951 0.025781,-6.26e-4 1.6078429,-1.017868 3.5156919,-2.260543 z m 7.318778,-4.770847 c 1.904472,-1.238848 3.474041,-2.2634358 3.487932,-2.2768621 0.01389,-0.013424 -1.557526,-1.0541985 -3.492037,-2.3128284 L 16.000433,4.8833237 12.500557,7.1594963 c -1.924933,1.2518953 -3.4999905,2.2832044 -3.5001265,2.2917984 -4.025e-4,0.025448 6.9804955,4.5610123 7.0213345,4.5618333 0.02057,4.14e-4 1.595595,-1.012849 3.500066,-2.251696 z"
     style="fill:#000000;stroke-width:0.0312506" />
</svg>
