<?xml version="1.0" encoding="UTF-8" standalone="no"?>
<!-- Created with Inkscape (http://www.inkscape.org/) -->

<svg
   xmlns:dc="http://purl.org/dc/elements/1.1/"
   xmlns:cc="http://creativecommons.org/ns#"
   xmlns:rdf="http://www.w3.org/1999/02/22-rdf-syntax-ns#"
   xmlns:svg="http://www.w3.org/2000/svg"
   xmlns="http://www.w3.org/2000/svg"
   xmlns:sodipodi="http://sodipodi.sourceforge.net/DTD/sodipodi-0.dtd"
   xmlns:inkscape="http://www.inkscape.org/namespaces/inkscape"
   version="1.1"
   id="svg2"
   width="24.005861"
   height="18.818737"
   viewBox="0 0 24.005861 18.818737"
   sodipodi:docname="flathub.svg.svg"
   inkscape:version="0.92.2 (5c3e80d, 2017-08-06)">
  <metadata
     id="metadata8">
    <rdf:RDF>
      <cc:Work
         rdf:about="">
        <dc:format>image/svg+xml</dc:format>
        <dc:type
           rdf:resource="http://purl.org/dc/dcmitype/StillImage" />
        <dc:title></dc:title>
      </cc:Work>
    </rdf:RDF>
  </metadata>
  <defs
     id="defs6" />
  <sodipodi:namedview
     pagecolor="#ffffff"
     bordercolor="#666666"
     borderopacity="1"
     objecttolerance="10"
     gridtolerance="10"
     guidetolerance="10"
     inkscape:pageopacity="0"
     inkscape:pageshadow="2"
     inkscape:window-width="1920"
     inkscape:window-height="1016"
     id="namedview4"
     showgrid="false"
     fit-margin-top="0"
     fit-margin-left="0"
     fit-margin-right="0"
     fit-margin-bottom="0"
     inkscape:zoom="12.505434"
     inkscape:cx="12.082896"
     inkscape:cy="9.9704001"
     inkscape:window-x="0"
     inkscape:window-y="27"
     inkscape:window-maximized="1"
     inkscape:current-layer="svg2" />
  <path
     style="fill:#000000;stroke-width:0.02344322"
     d="M 3.229757,16.714708 9.06e-4,14.61249 4.53e-4,11.200876 0,7.7892628 5.979753,3.8983118 C 9.268617,1.7582888 11.974023,0.00405184 11.991767,6.8405828e-6 12.009507,-0.00399316 14.719941,1.7467608 18.014945,3.8906698 l 5.990916,3.898017 -3.52e-4,3.4119012 -3.49e-4,3.411902 -3.225136,2.098169 c -1.773825,1.153992 -3.239711,2.101516 -3.257526,2.105607 -0.01781,0.0041 -1.266796,-0.795839 -2.775513,-1.777623 L 12.003861,15.25358 9.262992,17.037065 c -1.507478,0.980916 -2.75516,1.782668 -2.772627,1.781672 -0.01747,-9.96e-4 -1.48474,-0.947809 -3.260608,-2.104029 z M 6.423443,14.477547 V 11.752128 L 3.816598,10.05598 C 2.382834,9.1230988 1.19602,8.3545628 1.179236,8.3481218 c -0.02495,-0.0096 -0.03052,0.486014 -0.03052,2.7183012 v 2.730013 l 2.618412,1.703265 c 1.440126,0.936796 2.626939,1.703265 2.637362,1.703265 0.01042,0 0.01895,-1.226438 0.01895,-2.725419 z m 11.018315,0.0072 v -2.718221 l -0.07619,-0.05662 c -0.112813,-0.08384 -5.168421,-3.3684722 -5.184656,-3.3684722 -0.0076,0 -0.01388,1.2280478 -0.01388,2.7289952 v 2.728995 l 2.608059,1.699761 c 1.434432,0.934869 2.621245,1.700668 2.637362,1.701775 0.02329,0.0016 0.0293,-0.556187 0.0293,-2.716209 z m 2.766994,-4.7046684 c 2.068665,-1.3459038 2.575405,-1.6852258 2.550515,-1.7078608 -0.03831,-0.03484 -5.195883,-3.387711 -5.233182,-3.402024 -0.03203,-0.01229 -5.253557,3.379918 -5.253557,3.413019 0,0.0126 1.181538,0.792116 2.625641,1.7322548 2.473012,1.6099794 2.628645,1.7074514 2.677324,1.6767844 0.02842,-0.01791 1.213392,-0.788386 2.633259,-1.7121734 z m -11.054173,0.02859 c 1.431209,-0.9322148 2.601143,-1.7043658 2.599855,-1.7158898 -0.0036,-0.0322 -5.243403,-3.434586 -5.272306,-3.423494 -0.04654,0.01786 -5.227819,3.393627 -5.233725,3.409938 -0.0083,0.02304 5.226606,3.4262552 5.268813,3.4252342 0.01934,-4.69e-4 1.206154,-0.763573 2.637363,-1.6957884 z m 5.49032,-3.5789418 c 1.428676,-0.929345 2.606118,-1.697959 2.616538,-1.708031 0.01042,-0.01007 -1.168407,-0.790827 -2.619617,-1.735012 l -2.638564,-1.7167 -2.625499,1.707514 c -1.444025,0.939133 -2.625584,1.712789 -2.625686,1.719236 -3.02e-4,0.01909 5.236551,3.42153 5.267187,3.422146 0.01543,3.1e-4 1.196966,-0.759808 2.625641,-1.689153 z"
     id="path12"
     inkscape:connector-curvature="0" />
</svg>
