<?xml version="1.0" encoding="UTF-8"?>
<svg version="1.0" viewBox="0 0 48 48" xmlns="http://www.w3.org/2000/svg">
 <path d="m39.7 8.75v0.00195c-16.7-0.023-40.7 6.52-36.1 21.9 0 0-0.34 1.06-0.377 2.58-1.03-0.366-2.1-0.781-3.2-1.26 1.1 0.828 2.17 1.56 3.22 2.21 0.101 1.52 0.559 3.31 1.86 4.93-0.103-0.736 0.112-1.95 0.742-3.45 15.5 7.98 24.3-3.06 24.2-9.35-1.17 2.89-7.72 12.1-23.5 7.93 3.7-6.85 15.1-17.6 41.6-18.5 0 0-20.4-3.51-37 5.96 0 0 11.3-11.9 36.9-12.2-2.38-0.441-5.24-0.668-8.34-0.672zm-26.6 20.9-2.2 0.0625-1.13 1.57 2.38-0.0644z"/>
</svg>
