<?xml version="1.0" encoding="UTF-8"?>
<svg version="1.0" viewBox="0 0 48 48" xmlns="http://www.w3.org/2000/svg">
 <g transform="translate(-429.05 -166.2)">
  <g transform="matrix(.12416 0 0 .12416 407.51 161.98)" fill="#000000" fill-rule="evenodd" stroke="#000000" stroke-width="1px">
   <path d="m493 104.47c-134.85-0.1852-327.62 52.539-290.97 176.12 0 0-2.7373 8.5539-3.0312 20.75-8.3086-2.9439-16.874-6.2824-25.75-10.125 8.8555 6.668 17.484 12.586 25.906 17.844 0.81744 12.229 4.5141 26.672 15 39.719-0.83344-5.9267 0.88982-15.696 5.9688-27.75 124.93 64.304 196.06-24.658 195.06-75.281-9.4078 23.295-62.165 97.456-189.56 63.875 29.781-55.202 121.85-141.91 335-149.22 0 0-164.66-28.298-298 47.969 0 0 91.036-95.47 297.5-98.5-19.177-3.5513-42.152-5.372-67.125-5.4062z"/>
   <path d="m252.03 286.16 9.0914-12.627 17.678-0.50508-7.5761 12.627z"/>
  </g>
 </g>
</svg>
