<?xml version="1.0" encoding="UTF-8"?>
<svg version="1.1" viewBox="0 0 48 48" xmlns="http://www.w3.org/2000/svg">
 <style type="text/css">circle {
      fill: none;
      stroke: #000;
      stroke-width: 15;
    }
    path {
      fill: none;
      stroke: #000;
      stroke-width: 25;
    }
    .orange {
      stroke:#ff6600;
    }
    .red {
      stroke:#d40000;
    }</style>
 <path d="m33.6-2.67e-7c-2.15 0-4.04 1.2-5.04 2.96h-2.69c-7.82 0-14.2 6.4-14.2 14.2v20c-1.76 1-2.96 2.89-2.96 5.05 0 3.18 2.62 5.8 5.8 5.8s5.8-2.62 5.8-5.8c0-2.15-1.2-4.05-2.96-5.05v-4.51c0-4.75 3.79-8.53 8.53-8.53h2.69c1 1.76 2.89 2.96 5.04 2.96 3.18 0 5.8-2.62 5.8-5.8s-2.62-5.8-5.8-5.8c-2.15 0-4.04 1.2-5.04 2.96h-2.69c-3.19 0-6.15 1.07-8.53 2.87v-4.12c0-4.75 3.79-8.53 8.53-8.53h2.69c1 1.76 2.89 2.96 5.04 2.96 3.18 0 5.8-2.62 5.8-5.8 0-3.18-2.62-5.8-5.8-5.8zm0 3.41c1.34 0 2.39 1.05 2.39 2.39 0 1.34-1.05 2.39-2.39 2.39-1.34 0-2.39-1.05-2.39-2.39 0-1.34 1.05-2.39 2.39-2.39zm0 15.5c1.34 0 2.39 1.05 2.39 2.39 0 1.34-1.05 2.39-2.39 2.39-1.34 0-2.39-1.05-2.39-2.39 0-1.34 1.05-2.39 2.39-2.39zm-19.1 20.9c1.34 0 2.39 1.05 2.39 2.39 0 1.34-1.05 2.39-2.39 2.39s-2.39-1.05-2.39-2.39c0-1.34 1.05-2.39 2.39-2.39z" color="#000000" fill="#000000" style="-inkscape-stroke:none"/>
</svg>
