<?xml version="1.0" encoding="UTF-8"?>
<svg version="1.1" viewBox="0 0 48 48" xmlns="http://www.w3.org/2000/svg">
 <path transform="matrix(.19541 0 0 .19541 4.4591 4.4591)" d="m148.89-22.819c-11.016 0-20.699 6.1246-25.821 15.127h-13.766c-40.013 0-72.761 32.759-72.761 72.772v102.23c-9.0006 5.1222-15.127 14.806-15.127 25.821 0 16.292 13.392 29.684 29.684 29.684s29.684-13.392 29.684-29.684c0-11.014-6.1263-20.698-15.127-25.821v-23.074c0-24.283 19.364-43.659 43.647-43.659h13.766c5.1209 9.0054 14.802 15.139 25.821 15.139 16.292 0 29.684-13.403 29.684-29.695s-13.392-29.684-29.684-29.684c-11.019 0-20.7 6.1314-25.821 15.139h-13.766c-16.341 0-31.465 5.4617-43.647 14.65v-21.05c0-24.283 19.364-43.659 43.647-43.659h13.766c5.1218 9.0024 14.805 15.127 25.821 15.127 16.292 0 29.684-13.392 29.684-29.684s-13.392-29.684-29.684-29.684zm0 17.466c6.8545 0 12.23 5.3634 12.23 12.218 0 6.8545-5.375 12.23-12.23 12.23-6.8545 0-12.218-5.375-12.218-12.23 0-6.8545 5.3634-12.218 12.218-12.218zm0 79.16c6.8545 0 12.23 5.3634 12.23 12.218 0 6.8545-5.375 12.23-12.23 12.23-6.8545 0-12.218-5.375-12.218-12.23 0-6.8545 5.3634-12.218 12.218-12.218zm-97.79 107.1c6.8545 0 12.218 5.375 12.218 12.23s-5.3634 12.218-12.218 12.218-12.23-5.3634-12.23-12.218 5.375-12.23 12.23-12.23z" color="#000000" style="-inkscape-stroke:none"/>
</svg>
