<?xml version="1.0" encoding="UTF-8"?>
<svg version="1.1" viewBox="0 0 48 48" xmlns="http://www.w3.org/2000/svg">
 <path d="m22.3 0-2.02 0.24-1.08 4.72c-1.36 0.338-2.68 0.82-3.93 1.44l-3.89-2.82-1.68 1.15 1.2 4.61c-1.06 0.949-2.01 2.01-2.85 3.16l-4.69-0.65-0.949 1.8 3.15 3.49c-0.495 1.35-0.843 2.74-1.04 4.16l-4.42 1.6-0.00378 2.04 4.42 1.62c0.19 1.42 0.533 2.82 1.03 4.16l-3.18 3.48 0.941 1.81 4.69-0.627c0.832 1.16 1.78 2.22 2.84 3.17l-1.23 4.61 1.67 1.16 3.93-2.79c1.26 0.624 2.58 1.11 3.93 1.45l1.05 4.76 2.02 0.25 2.19-4.38v-0.0098c1.38-0.0344 2.76-0.215 4.12-0.54l0.0136 0.0582 3.16 3.75 1.9-0.718-0.101-4.91-0.0465-0.0832c1.21-0.669 2.34-1.46 3.37-2.37l0.0911 0.107 4.54 1.86 1.35-1.52-2.37-4.31-0.147-0.0986c0.76-1.14 1.4-2.36 1.9-3.64l0.176 0.0699 4.88-0.472 0.491-1.97-4.08-2.7-0.219-0.0253c0.0824-0.695 0.126-1.39 0.134-2.1-6.5e-4 -0.669-0.0355-1.34-0.105-2l0.198-0.0212 4.12-2.69-0.484-1.98-4.88-0.491-0.188 0.0737c-0.495-1.28-1.13-2.51-1.88-3.65l0.147-0.0968 2.39-4.27-1.35-1.52-4.54 1.83-0.0968 0.11c-1.04-0.907-2.16-1.71-3.36-2.38l0.0522-0.093 0.122-4.91-1.9-0.726-3.18 3.74-0.0098 0.0484c-1.35-0.332-2.72-0.522-4.12-0.563zm1.1 11c6.16-0.243 11.6 3.89 13.1 9.86 1.7 6.95-2.56 14-9.52 15.7-6.95 1.7-14-2.56-15.7-9.52-1.7-6.95 2.56-14 9.52-15.7 0.839-0.205 1.7-0.327 2.56-0.361zm-3.74 9.6a3.34 3.34 0 0 0-3.34 3.34 3.34 3.34 0 0 0 3.34 3.34 3.34 3.34 0 0 0 3.34-3.34 3.34 3.34 0 0 0-3.34-3.34zm8.5 0a3.34 3.34 0 0 0-3.34 3.34 3.34 3.34 0 0 0 3.34 3.34 3.34 3.34 0 0 0 3.34-3.34 3.34 3.34 0 0 0-3.34-3.34z"/>
</svg>
