<?xml version="1.0" encoding="UTF-8"?>
<svg width="48" height="48" version="1.1" viewBox="0 0 12.7 12.7" xmlns="http://www.w3.org/2000/svg">
 <path d="m5.92-5.68e-6 -0.535 0.0636-0.285 1.25c-0.36 0.0894-0.709 0.217-1.04 0.381l-1.03-0.745-0.444 0.305 0.318 1.22c-0.281 0.251-0.533 0.531-0.753 0.837l-1.24-0.172-0.251 0.476 0.834 0.923c-0.131 0.356-0.223 0.726-0.274 1.1l-1.17 0.424-0.00103 0.539 1.17 0.429c0.0504 0.376 0.141 0.745 0.272 1.1l-0.841 0.921 0.249 0.478 1.24-0.166c0.22 0.306 0.472 0.587 0.752 0.838l-0.325 1.22 0.442 0.307 1.04-0.738c0.333 0.165 0.682 0.293 1.04 0.383l0.279 1.26 0.535 0.0661 0.58-1.16v-0.0026c0.366-0.0091 0.729-0.0569 1.09-0.143l0.00359 0.0154 0.836 0.993 0.504-0.19-0.0267-1.3-0.0123-0.022c0.319-0.177 0.618-0.387 0.892-0.627l0.0241 0.0282 1.2 0.491 0.358-0.402-0.627-1.14-0.039-0.0261c0.201-0.302 0.37-0.625 0.504-0.962l0.0466 0.0185 1.29-0.125 0.13-0.522-1.08-0.715-0.0579-0.00666c0.0218-0.184 0.0334-0.369 0.0354-0.555-1.72e-4 -0.177-0.0094-0.354-0.0277-0.53l0.0523-0.00564 1.09-0.711-0.128-0.523-1.29-0.13-0.0497 0.0195c-0.131-0.339-0.298-0.663-0.497-0.966l0.039-0.0256 0.632-1.13-0.356-0.403-1.2 0.485-0.0256 0.0292c-0.274-0.24-0.572-0.452-0.889-0.63l0.0138-0.0246 0.0323-1.3-0.503-0.192-0.841 0.989-0.00256 0.0128c-0.356-0.0878-0.72-0.138-1.09-0.149zm0.291 2.92c1.63-0.0643 3.08 1.03 3.47 2.61 0.449 1.84-0.678 3.7-2.52 4.15-1.84 0.449-3.7-0.678-4.15-2.52-0.449-1.84 0.678-3.7 2.52-4.15 0.222-0.0543 0.45-0.0864 0.678-0.0954zm-0.99 2.54a0.883 0.883 0 0 0-0.883 0.883 0.883 0.883 0 0 0 0.883 0.883 0.883 0.883 0 0 0 0.883-0.883 0.883 0.883 0 0 0-0.883-0.883zm2.25 0a0.883 0.883 0 0 0-0.883 0.883 0.883 0.883 0 0 0 0.883 0.883 0.883 0.883 0 0 0 0.883-0.883 0.883 0.883 0 0 0-0.883-0.883z" fill="#000000"/>
</svg>
