<?xml version="1.0" encoding="UTF-8"?>
<svg version="1.1" viewBox="0 0 48 48" xmlns="http://www.w3.org/2000/svg" xmlns:xlink="http://www.w3.org/1999/xlink">
 <path d="m3.01e-4 0v0.8 47.2h11.2v-19.2h2.38l-0.272 0.106a0.8 0.8 0 0 0-0.508 0.791l0.189 3.28a0.8 0.8 0 0 0 0.589 0.727l5.15 1.4 0.686 1.43-2.15 4.87a0.8 0.8 0 0 0 0.197 0.917l2.45 2.2a0.8 0.8 0 0 0 0.934 0.1l4.62-2.65 1.5 0.534 1.93 4.98a0.8 0.8 0 0 0 0.789 0.508l3.3-0.183a0.8 0.8 0 0 0 0.728-0.591l1.38-5.16 1.43-0.684 4.89 2.16a0.8 0.8 0 0 0 0.919-0.195l2.2-2.45a0.8 0.8 0 0 0 0.1-0.933l-2.66-4.63 0.523-1.51 4.98-1.93a0.8 0.8 0 0 0 0.508-0.784l-0.166-3.3a0.8 0.8 0 0 0-0.592-0.733l-5.16-1.38-0.684-1.43 2.14-4.9a0.8 0.8 0 0 0-0.198-0.916l-2.45-2.2a0.8 0.8 0 0 0-0.934-0.1l-4.63 2.66-1.49-0.517-1.95-4.98a0.8 0.8 0 0 0-0.786-0.508l-3.28 0.172a0.8 0.8 0 0 0-0.73 0.589l-1.4 5.15-1.43 0.686-3.47-1.52v-0.281h-0.645l-0.767-0.336a0.8 0.8 0 0 0-0.916 0.198l-0.123 0.138h-7.15v-6.4h16v-11.2zm30.6 25.2 1.02 0.148 0.966 0.336 0.873 0.506 0.759 0.688 0.611 0.827 0.441 0.92 0.256 0.983 0.0422 1.01-0.145 1.02-0.334 0.959-0.531 0.891-0.669 0.75-0.823 0.609-0.919 0.441-0.991 0.258-1.02 0.0578-1.01-0.145-0.959-0.334-0.886-0.528-0.75-0.688-0.616-0.812-0.438-0.911-0.253-1.01-0.0578-1.02 0.145-1.01 0.334-0.958 0.527-0.877 0.675-0.767 0.822-0.608 0.917-0.439 1-0.252z" fill="#373e00" fill-rule="evenodd"/>
</svg>
