<svg version="1.1" viewBox="0 0 512 422.53" xmlns="http://www.w3.org/2000/svg"><g clip-rule="evenodd" fill="none" fill-rule="evenodd"><path d="m8.0273 300.6 7.0696-120.18 42.418-90.491 59.384-56.557 77.766-26.864 93.318 7.0696 66.455 45.246 55.142 67.868 35.348 108.87 36.762-9.897 21.209 5.656-39.59 46.659-4.241 31.106 25.45 48.074-32.52-16.967-39.59-43.832-28.278 32.52 1.414 19.795 11.311 41.004-4.242 24.036-53.728-53.729-21.209 21.209-69.282 21.209h-86.249l-59.385-14.139-16.967-4.242-31.106 25.451-2.8278-21.209 11.311-29.693z"/><path d="m123.98 251.82c0 9.411-3.535 18.45-9.852 25.185-6.316 6.735-14.913 10.632-23.953 10.859s-17.807-3.234-24.428-9.644-10.572-15.26-11.008-24.661c-0.4362-9.401 2.6766-18.606 8.6736-25.651 5.997-7.044 14.403-11.368 23.422-12.049 9.019-0.681 17.936 2.336 24.847 8.406 6.91 6.07 11.267 14.712 12.138 24.08"/><path d="m200.32 257.48c0 7.566-2.743 14.833-7.641 20.247-4.899 5.414-11.565 8.547-18.576 8.73-7.01 0.182-13.809-2.6-18.944-7.753-5.135-5.154-8.199-12.269-8.537-19.826-0.338-7.558 2.076-14.958 6.727-20.621s11.169-9.14 18.164-9.687c6.994-0.547 13.909 1.879 19.269 6.758 5.359 4.88 8.737 11.828 9.413 19.359"/></g><g><path d="m199.1 1.2896c-62.446 4.5024-111.58 36.215-153.67 98.66-23.882 35.628-30.929 57.357-44.241 135.86-1.1745 7.047-1.566 22.903-0.78301 39.738 1.566 30.734 0.19576 27.602 16.444 38.173 3.7193 2.349 12.333 11.745 19.184 20.554 6.6557 9.005 14.486 18.205 17.031 20.163l4.8939 3.719-6.0685 13.116c-9.3962 19.967-8.809 47.569 0.9788 47.569 3.7194 0 18.01-10.375 28.776-20.751l8.809-8.613 19.576 7.635c69.689 27.21 152.88 21.141 217.48-15.661l17.227-9.983 6.655 7.438c3.72 4.307 11.746 13.899 17.618 21.338 20.163 25.057 24.078 27.21 28.972 15.269 8.026-18.793 6.069-34.845-8.221-71.255l-3.524-9.201 13.507-12.92c16.248-15.464 14.29-15.073 23.099-3.523 12.333 16.443 37.781 35.236 57.357 42.674 13.703 5.09 13.898 0.392 1.566-19.771-22.708-36.41-24.078-47.177-8.809-68.71 10.571-15.269 22.512-26.819 32.495-31.517 8.026-3.719 8.418-6.264 2.545-11.745-9.984-9.005-29.755-11.354-46.003-5.677-9.787 3.523-11.549 2.349-14.094-8.809-30.929-137.62-121.37-220.81-234.12-214.74-3.328 0.1957-9.788 0.5873-14.682 0.9788zm75.366 16.835c33.083 8.2217 57.944 22.903 82.414 48.743 43.653 46.59 68.514 102.38 80.847 181.27 0.195 0.391 3.132-1.762 6.655-4.699 10.767-9.004 32.496-14.681 46.003-11.549 5.285 0.979 5.09 1.37-12.333 19.38-30.342 31.321-32.104 53.833-6.655 89.656 2.545 3.328 3.132 5.481 1.566 5.481-9.592 0-51.876-45.807-50.897-55.203 1.175-11.746-14.486-3.524-23.882 12.724-2.741 4.502-7.243 10.375-10.179 13.116l-5.286 4.894-5.481-6.656c-5.089-5.873-5.872-6.264-9.592-3.72l-3.915 2.741 3.915 6.656c12.333 19.967 25.057 56.769 25.253 71.451 0 16.247-4.698 16.052-16.248-0.783-9.005-13.508-34.453-41.109-40.717-44.241-13.312-7.047-20.75-2.349-10.571 6.655 9.983 8.614 9.983 8.614-14.878 22.317-45.415 24.861-152.49 30.929-191.84 11.158-21.729-11.158-56.182-37.39-64.795-49.331l-4.1109-6.068 4.6982 1.174c2.5448 0.588 12.724 3.328 22.708 6.069 40.13 10.962 151.52 12.724 172.85 2.74 27.797-12.92 30.929-31.516 3.524-21.141-48.744 18.597-149.17 13.115-209.07-11.158-14.486-5.873-27.602-11.354-29.168-11.941-3.5236-1.371-1.7618-63.425 2.5448-88.482 11.745-68.71 48.548-134.48 91.809-164.04 4.502-3.1321 11.55-7.8302 15.661-10.767 27.405-18.792 104.73-27.21 149.16-16.443zm-198.89 359.8c2.5448 3.327 4.3066 6.068 3.9151 6.46-8.6133 5.872-21.729 13.115-22.708 12.136-1.7618-1.761 2.7406-15.268 6.6557-20.162 4.5024-5.677 6.46-5.482 12.137 1.566z"/><path d="m69.516 212.51c-23.295 12.528-30.342 54.616-11.941 71.451 30.538 28.384 73.213 7.83 73.8-35.432 0.392-27.014-37.781-49.135-61.858-36.019zm34.648 10.179c21.729 13.507 25.057 30.147 10.375 50.701-23.49 32.691-70.863 2.349-56.182-36.019 6.2642-16.639 29.951-24.274 45.807-14.682z"/><path d="m80.669 230.71c-18.401 7.635-15.465 39.347 3.7194 40.913 8.6132 0.783 12.137-1.566 16.052-10.962 8.222-19.771-2.936-36.802-19.771-29.951zm15.465 8.614c1.1746 1.761 1.3703 3.719 0.5873 4.502-2.3491 2.545-16.052-1.958-16.639-5.481-1.1746-6.264 11.941-5.481 16.052 0.979z"/><path d="m163.66 225.04c-29.755 9.005-28.776 54.812 1.566 65.774 13.116 4.503 20.75 3.524 28.776-3.915 26.036-24.861 2.936-72.038-30.342-61.859zm17.814 10.767c17.226 9.005 19.771 28.384 5.481 43.458-11.941 12.724-34.845-1.958-34.845-21.925 0-18.793 14.29-29.363 29.364-21.533z"/><path d="m162.89 245.79c-8.418 12.92-1.37 32.692 10.375 28.972 11.55-3.719 16.052-9.396 16.052-20.358 0-12.333-19.771-18.793-26.427-8.614zm16.639 1.762c3.132 3.72 0.979 6.656-3.915 5.481-4.698-1.174-6.656-3.719-4.894-6.46 1.762-2.74 6.069-2.349 8.809 0.979z"/></g></svg>
