<?xml version="1.0" encoding="UTF-8"?>
<svg version="1.1" viewBox="0 0 48 48" xmlns="http://www.w3.org/2000/svg">
 <path d="m35.4 3.8c-0.255-0.00882-0.51-0.00577-0.766 0.00782-0.589 0.0311-1.18 0.122-1.77 0.276l-26.4 6.88c-4.73 1.23-7.61 6.1-6.33 10.8l4.13 15.8c1.23 4.73 6.1 7.61 10.8 6.33l26.4-6.88c4.44-1.16 7.15-5.51 6.49-9.99l-0.105-0.688-0.0282-0.166-4.13-15.8c-1.01-3.88-4.46-6.49-8.27-6.6zm-0.0412 1.36c3.24 0.108 6.16 2.31 6.99 5.6l3.92 14.9 0.223 0.855c1.05 4.02-1.34 8.1-5.36 9.15l-26.4 6.88c-4.02 1.05-8.1-1.34-9.15-5.36l-4.13-15.8c-1.05-4.02 1.34-8.1 5.36-9.15l26.4-6.88c0.502-0.131 1-0.208 1.51-0.235 0.218-0.0118 0.436-0.0149 0.649-0.00782zm-0.788 2.06c-0.754-0.00301-1.56 0.0882-2.41 0.279l-23.5 6.1c-4.88 1.42-6.26 4.05-5.27 8.55l3.51 13.4c0.971 4.24 4.59 6.21 8.76 4.91l23.5-6.1c4.27-1.02 6.26-4.2 5.27-8.55l-3.51-13.4c-0.788-3.36-3.11-5.17-6.38-5.18zm2.6 7.15c0.392 0.0182 0.749 0.282 0.855 0.693l1.25 4.79v0.0019l0.0216 0.0843c0.132 0.502-0.162 0.999-0.665 1.13l-6.83 1.78c-0.505 0.132-1-0.158-1.13-0.66l-1.28-4.88c-0.132-0.505 0.159-0.999 0.665-1.13l6.83-1.78c0.0938-0.0245 0.187-0.0335 0.279-0.0294zm-20.6 1.33c0.599-0.0319 1.15 0.354 1.32 0.965l1.56 5.99c0.182 0.699-0.226 1.39-0.921 1.58l-8.37 2.18c-0.699 0.182-1.39-0.226-1.58-0.921l-1.56-5.99c-0.182-0.699 0.226-1.39 0.921-1.58l8.37-2.18c0.0915-0.0238 0.179-0.0368 0.261-0.0412zm11.8 2.95 0.346 1.34-8.27 0.954-0.346-1.33zm1.81 5.11c0.369 0.295 0.821 0.481 1.31 0.51l-3.15 4.74c-0.336-0.338-0.798-0.532-1.29-0.526zm-11.3 1.79 4.08 3.94-1.04 0.272c-0.159 0.0418-0.305 0.11-0.441 0.191l-4.14-4zm8.16 4.29c0.195-0.0103 0.378 0.113 0.431 0.318l0.876 3.35c0.061 0.235-0.071 0.459-0.304 0.52l-4.69 1.23c-0.233 0.061-0.454-0.0676-0.516-0.304l-0.876-3.35c-0.0605-0.233 0.0688-0.456 0.304-0.517l4.69-1.23c0.0336-0.0088 0.0638-0.0144 0.086-0.0157z"/>
</svg>
