<svg version="1.1" viewBox="0 0 48 48" xmlns="http://www.w3.org/2000/svg">
 <path d="m11.835 1.562e-4 -8.1004 7.9996v40h17.531c0.5956 0.0012 0.75857 0.0012 0.8716-0.30322 0.11333-0.30417 1.1387-5.445 1.2642-5.6557 0.24298-0.38823 2.9403-1.5483 3.5039-1.2451 0.20691 0.11479 4.1654 3.357 4.3637 3.4746 0.09436 0.056 0.19303 0.07286 0.35596 0.06006 0.44675-0.02696 4.2778-3.1343 4.314-3.186 0.04718-0.0604 0.09395-0.20733 0.10254-0.32373 0.04619-0.40884-1.9534-5.2749-1.9893-5.6162 0.17831-0.93032 0.93252-1.6956 1.5059-2.4492 0.15005-0.16812 0.40735-0.27971 0.64748-0.27539 1.8246 0.16593 3.6453 0.37557 5.4668 0.57276l0.18457-0.08203c0.09862-0.0474 0.21346-0.11959 0.25635-0.16699 0.06002-0.06896 1.5604-4.1136 1.8091-4.8764 0.09432-0.2802 0.0356-0.51704-0.1831-0.7412-0.43612-0.46043-4.4535-3.1708-4.6743-3.6592-0.2052-0.3804-0.04747-2.3305 0.18018-2.6645 0.26787-0.38601 4.27-2.2172 4.5835-2.4624 0.3775-0.2952 0.40577-0.88408 0.40577-1.0005v-17.4zm0 7.9996h24.299v8.0008h-16.2v6h8.1004v7.1996h-8.1004v10.8h-8.0992z"/>
</svg>
