<?xml version="1.0" encoding="UTF-8"?>
<svg width="48" height="48" version="1.1" viewBox="0 0 38.4 38.4" xmlns="http://www.w3.org/2000/svg">
 <path transform="matrix(.442 0 0 .442 -.0104 3.08)" d="m64.1-5e-3c-0.459-0.0159-0.918-0.0104-1.38 0.0141-1.06 0.056-2.13 0.22-3.2 0.498l-47.6 12.4c-8.53 2.22-13.7 11-11.4 19.5l7.45 28.6c2.22 8.53 11 13.7 19.5 11.4l47.6-12.4c8.01-2.09 12.9-9.94 11.7-18l-0.189-1.24-0.051-0.298-7.45-28.5c-1.82-6.99-8.04-11.7-14.9-11.9zm-0.0742 2.45c5.83 0.194 11.1 4.17 12.6 10.1l7.05 27 0.403 1.54c1.89 7.24-2.43 14.6-9.67 16.5l-47.6 12.4c-7.24 1.89-14.6-2.43-16.5-9.67l-7.45-28.6c-1.89-7.24 2.43-14.6 9.67-16.5l47.6-12.4c0.905-0.236 1.81-0.376 2.71-0.424 0.393-0.0212 0.785-0.027 1.17-0.0141zm-1.42 3.71c-1.36-0.00542-2.81 0.159-4.34 0.502l-42.2 11c-8.79 2.56-11.3 7.3-9.5 15.4l6.34 24.3c1.75 7.65 8.27 11.2 15.8 8.84l42.2-11c7.69-1.83 11.3-7.59 9.51-15.4l-6.34-24.3c-1.42-6.07-5.61-9.32-11.5-9.34zm4.69 12.9c0.707 0.0328 1.35 0.51 1.54 1.25l2.25 8.65v0.0035l0.0389 0.152c0.237 0.906-0.291 1.8-1.2 2.04l-12.3 3.22c-0.909 0.237-1.81-0.284-2.04-1.19l-2.3-8.81c-0.237-0.909 0.288-1.8 1.2-2.04l12.3-3.22c0.169-0.0442 0.338-0.0605 0.502-0.053zm-37.2 2.39c1.08-0.0575 2.08 0.639 2.37 1.74l2.81 10.8c0.328 1.26-0.407 2.51-1.66 2.84l-15.1 3.94c-1.26 0.328-2.51-0.408-2.84-1.66l-2.81-10.8c-0.328-1.26 0.408-2.51 1.66-2.84l15.1-3.94c0.165-0.043 0.323-0.0663 0.47-0.0742zm21.2 5.31 0.625 2.41-14.9 1.72-0.625-2.4zm3.25 9.2c0.665 0.531 1.48 0.866 2.35 0.919l-5.69 8.56c-0.607-0.608-1.44-0.959-2.33-0.947zm-20.4 3.24 7.36 7.1-1.88 0.491c-0.288 0.0754-0.549 0.198-0.795 0.343l-7.47-7.21zm14.7 7.74c0.351-0.0185 0.682 0.204 0.777 0.572l1.58 6.04c0.11 0.422-0.128 0.827-0.548 0.936l-8.47 2.21c-0.421 0.11-0.818-0.122-0.929-0.548l-1.58-6.04c-0.109-0.42 0.124-0.822 0.548-0.933l8.47-2.21c0.0606-0.0158 0.115-0.0261 0.155-0.0283z" color="#000000" fill="#000000" style="-inkscape-stroke:none"/>
</svg>
