<?xml version="1.0" encoding="UTF-8"?>
<svg width="400" height="400" version="1.1" viewBox="0 0 105.83 105.83" xmlns="http://www.w3.org/2000/svg">
 <g transform="translate(0 -191.17)">
  <g>
   <path d="m49.979 204.75-23.177 17.945 0.76946-0.18345h0.005168c-0.19985 0.0472-0.68056 0.16175-0.77463 0.18345l1.3167-0.1912c0.001653-3e-5 0.004027 2e-5 0.005684 0l-1.2986 0.18965 4.6023-0.20154c-0.007453 0.00465-0.0128 0.00861-0.022737 0.01395l-0.63924 0.04186-20.543 12.73 5.5118-1.2092-5.7444 8.7602-8.6672 9.3416 5.2152-1.9368-2.6112 7.7401 6.8321-3.575c0.003391 0.00488 0.008126 0.00872 0.009819 0.01653l-5.163 11.495 6.9675-5.0777c0.075803-0.04612 0.13129-0.07738 0.16743-0.09353l5.7831 16.616 2.6944-3.839c0.016732-0.00465 0.045587-5.3e-4 0.070797 0.00155l11.976 6.4378 0.75603-2.2479 17.473 5.7051-0.15244-2.4841 9.6898 1.3761-0.80202-3.051 6.2327-4.0458-1.0526-2.3766 4.284-5.2534-0.52348-0.81287 3.852-5.3242 0.006201 0.00672 0.044441 0.09922-2.9988-25.527 27.665 1.74 0.10335 0.18706-0.78496 11.016 0.46664-0.45372c1.99e-4 0.00234-0.002481 0.04322-0.0031 0.05633 0.003118-0.02176 0.01692-0.05294 0.035656-0.08837l5.6875-5.533 1.2268-10.055 0.03928 0.00207-9.0697-12.089 0.02067-0.02377-0.059428-0.02738-0.041341-0.0553-0.022738 0.02584-7.691-3.5466-8.4217-10.409 0.029972-0.01705-0.046509-0.00311-0.004651-0.00568-0.008268 0.00465-29.217-1.9957zm10.8 11.568c8.0395-0.08511 15.033 9.327 19.448 4.5604-2.2397 3.5797-7.4537 3.9052-11.089 3.9176 0 0-5.5776-0.13302-4.8472-4.8142-1.2052-1.9909-5.0225-1.951-7.5365-2.7554 1.3648-0.62628 2.7085-0.89455 4.024-0.90848zm5.0726 2.3001a2.9548 2.9548 0 0 0-1.2278 2.3931 2.9548 2.9548 0 0 0 2.9549 2.9549 2.9548 2.9548 0 0 0 2.9543-2.9549 2.9548 2.9548 0 0 0-0.08785-0.7059 2.407 2.9216 0 0 1-2.2526 1.9007 2.407 2.9216 0 0 1-2.4066-2.9213 2.407 2.9216 0 0 1 0.065629-0.66663zm26.07 5.101c-1.5746 2.6244-2.9394 2.7296-2.9394 2.7296-0.41991-1.8896 2.9394-2.7296 2.9394-2.7296z" fill="#000000" stroke-width=".093156"/>
  </g>
 </g>
</svg>
