<svg version="1.1" viewBox="0 0 56 56" xmlns="http://www.w3.org/2000/svg"><circle cx="28" cy="29" r="28" display="none" opacity=".2"/><path d="m28 0a28 28 0 0 0-28 28 28 28 0 0 0 28 28 28 28 0 0 0 28-28 28 28 0 0 0-28-28zm15.4 7c2.8 0 4.1976 2.0204 4.166 4-0.06533 4.092-8.9805 9-8.9805 9h1.9551s1.7015 0.19465 0.71289 1.4004c-4.7005 5.7326-10.247 12.591-10.744 13.205 0.48388-0.53478 1.6667-1.6497 4.4902-3.5645 0.32946-0.22342 2.4446 0.3308 2.0859 0.65039-6.2853 5.6-11.062 8.9086-12.586 10.309-2.1452 1.9701-4.7186 6.8071-9.5 9-0.51592 0.23663-3.3725-0.45975-2.2168-2.1934 2.8-4.2 4.5526-4.4058 6.8164-6.8066 3.8551-4.0885 11.4-12.531 11.4-12.531s-8.7695 8.4668-15.77 8.4668c-2.8 0-4.1992-2.2193-4.1992-4.1992 0-5.6 7.4402-14.886 13.863-19.703 5.6-4.2 12.006-7.0332 18.506-7.0332zm-0.78516 2.8926c-2.167-0.11454-7.7445 1.691-13.52 5.541-6.0653 4.0435-12.465 12.702-13.865 16.902-0.32998 0.98995 1.5993 2.7224 4.3691 1.2637 10.634-5.6 18.141-13.6 18.141-13.6s-1.6967 1-2.7402 1c-1.4 0-3-1.6801-3-3 0-1.4 3-2.5996 3-2.5996s-0.3848 1.0498 0 1.4004c2.8 0 5.6004-1.4016 8.4004-5.6016 0.54265-0.81398 0.19983-1.2546-0.78516-1.3066z"/><path d="M 28,0 A 28,28 0 0 0 0,28 28,28 0 0 0 0.0215,28.586 28,28 0 0 1 28,1 28,28 0 0 1 55.979,28.414 28,28 0 0 0 56,28 28,28 0 0 0 28,0 Z" display="none" fill="#fff" opacity=".1"/><path d="m43.4 8.0002c-6.4999 0-12.905 2.8339-18.505 7.0339-6.4231 4.8173-13.864 14.102-13.864 19.702 0 1.9799 1.4 4.2 4.2 4.2 7 0 15.769-8.4678 15.769-8.4678s-7.5449 8.4437-11.4 12.532c-2.2638 2.4009-4.0176 2.607-6.8176 6.807-1.1557 1.7336 1.7017 2.4296 2.2176 2.193 4.7814-2.1929 7.3548-7.0299 9.5-9 1.5244-1.4 6.301-4.7085 12.586-10.308 0.3587-0.31959-1.7569-0.8742-2.0863-0.65078-4.2 2.8482-4.8098 3.9593-4.8098 3.9593s6.15-7.6075 11.064-13.6c0.98865-1.2057-0.71367-1.4-0.71367-1.4h-1.9551s8.9158-4.908 8.9811-9c0.03161-1.9796-1.3661-4-4.1661-4zm-0.78477 2.893c0.98498 0.05207 1.3274 0.49305 0.78477 1.307-2.8 4.2-5.6 5.6-8.4 5.6-0.3848-0.35059 0-1.4 0-1.4s-3 1.2-3 2.6c0 1.3199 1.6 3 3 3 1.0435 0 2.7401-1 2.7401-1s-7.5065 8-18.14 13.6c-2.7699 1.4587-4.6995-0.27446-4.3695-1.2644 1.4-4.2 7.7991-12.858 13.864-16.902 5.775-3.85 11.353-5.6555 13.52-5.5409z" display="none" opacity=".2"/></svg>
