<?xml version="1.0" encoding="UTF-8"?>
<svg width="48" height="48" version="1.0" viewBox="0 0 7.29 7.29" xmlns="http://www.w3.org/2000/svg" xmlns:xlink="http://www.w3.org/1999/xlink">
 <path d="m5.86 0.935c-0.0494-0.00762-0.0938 0.0195-0.12 0.0505-0.0267 0.0309-0.0452 0.0693-0.0613 0.118-0.0279 0.0836-0.13 0.394-0.499 0.701-0.273 0.227-0.694 0.45-1.34 0.562-0.133-0.0755-0.285-0.113-0.437-0.113-0.19 0-0.381 0.0583-0.533 0.177-0.872-0.0872-1.24-0.86-1.24-0.86l-0.143-0.295-0.00743 0.327-0.0239 1.03c-0.064 0.107-0.102 0.238-0.102 0.39 2e-6 0.00786 3.65e-4 0.0155 5.71e-4 0.0233-0.137-0.138-0.294-0.238-0.454-0.292-0.221-0.0753-0.453-0.0635-0.631 0.0651-0.178 0.129-0.263 0.345-0.261 0.578 0.00174 0.234 0.0866 0.489 0.252 0.718 0.165 0.229 0.381 0.39 0.602 0.465 0.135 0.0459 0.274 0.0592 0.402 0.0337 0.113 0.0821 0.237 0.163 0.37 0.239 0.57 0.327 1.3 0.585 2.01 0.597 0.46 0.00784 0.914-0.0924 1.3-0.346 0.196 0.106 0.408 0.208 0.61 0.279 2.06e-4 7.29e-4 3.49e-4 0.00144 5.71e-4 0.00216l0.0241 0.082 0.0988-0.0374 0.0117 0.0112 0.547 0.2c0.0145 0.152 0.111 0.306 0.296 0.376 0.399 0.152 0.769 0.343 0.769 0.343-0.19-0.645-0.258-1.16-0.754-1.11-0.0565 0.00518-0.105 0.0214-0.147 0.0452l-0.49-0.314-0.0152-0.00117-0.0357-0.115-0.0754 0.0472c-0.121-0.077-0.254-0.149-0.39-0.214 0.038-0.0465 0.0751-0.0946 0.11-0.146 0.459-0.669 0.683-1.75 0.499-3.42l-2.85e-4 -6.18e-4v-6.66e-4c-0.00583-0.0457-0.0162-0.0847-0.0347-0.119-0.0185-0.0342-0.0496-0.0694-0.099-0.0771zm-0.0257 0.207c6.82e-4 0.00399 0.00161 0.0043 0.00216 0.00865 0.181 1.64-0.0453 2.68-0.472 3.31-0.0409 0.0597-0.0842 0.115-0.129 0.167-0.201-0.0893-0.398-0.164-0.557-0.22 0.00175-0.0627-0.014-0.123-0.0702-0.196-0.131-0.17-0.504-0.273-0.504-0.273s0.144 0.119 0.228 0.228c-0.0203 0.0156-0.0415 0.0311-0.0636 0.0462-0.0299 0.018-0.0715 0.041-0.117 0.065-0.0126 0.00466-0.0246 0.0108-0.0356 0.0183-0.0808 0.0404-0.176 0.0828-0.281 0.115-0.329 0.0925-0.784 0.115-1.43-0.0146 0.445 0.157 0.835 0.246 1.15 0.26l-0.00306 0.00475c0.17 0.0163 0.328-0.0129 0.437-0.0426 0.00409-0.00108 0.00813-0.00221 0.0122-0.00334 0.0376-0.0106 0.0688-0.021 0.0916-0.0292 7.89e-5 -4.44e-4 2.06e-4 -9.67e-4 2.85e-4 -0.00141 0.00543-0.00217 0.0101-0.00507 0.0155-0.00733 0.00928 0.0103 0.0194 0.0201 0.0303 0.0293l0.00245 0.00202 0.00249 0.00188s0.274 0.198 0.635 0.406c-0.341 0.203-0.734 0.282-1.14 0.275-0.672-0.0114-1.38-0.26-1.93-0.576-0.0953-0.0546-0.184-0.112-0.268-0.169 0.0165-0.00956 0.0329-0.0197 0.0486-0.031 0.178-0.129 0.262-0.345 0.261-0.578-6.82e-4 -0.091-0.0148-0.185-0.0405-0.28 0.112 0.06 0.238 0.0895 0.364 0.0895 0.179 0 0.358-0.0592 0.496-0.181 0.0298-0.0265 0.0572-0.0561 0.0821-0.0884 0.0453 0.0954 0.107 0.177 0.18 0.243 0.158 0.141 0.366 0.209 0.573 0.209 0.207 0 0.414-0.0688 0.573-0.209 0.158-0.141 0.263-0.354 0.263-0.626-6.3e-5 -0.252-0.0902-0.454-0.229-0.594 0.594-0.123 0.999-0.341 1.27-0.569 0.399-0.332 0.52-0.688 0.549-0.773 0.00208-0.00625 0.00343-0.00576 0.00555-0.0111zm-4.21 0.711c0.0951 0.13 0.242 0.299 0.446 0.442-3.33e-4 -3e-7 -6.66e-4 0-9.83e-4 0-0.163 0-0.327 0.0495-0.459 0.151zm1.78 0.559c0.0223 0 0.0446 0.00103 0.0667 0.00296 7.78e-5 6.8e-6 1.57e-4 -6.8e-6 2.38e-4 0 4.68e-5 4.1e-6 9.43e-5 -4.1e-6 1.41e-4 0 0.121 0.0106 0.238 0.05 0.337 0.117 6.47e-5 4.39e-5 1.23e-4 9.72e-5 1.9e-4 1.41e-4 0.0221 0.015 0.0434 0.0313 0.0634 0.0491 0.0157 0.0139 0.0307 0.0287 0.045 0.0443 0.0143 0.0156 0.0279 0.0321 0.0407 0.0495 0.0128 0.0174 0.0247 0.0356 0.0358 0.0548 0.0111 0.0192 0.0213 0.0393 0.0305 0.0603 0.00919 0.021 0.0174 0.043 0.0245 0.0659 0.00715 0.0229 0.0132 0.0469 0.0182 0.0718 0.00494 0.0249 0.00873 0.0509 0.0113 0.0778 0.00256 0.027 0.0039 0.0549 0.0039 0.084 7.3e-6 0.0291-0.0013 0.057-0.00386 0.084-0.00255 0.0269-0.00635 0.0529-0.0113 0.0778-0.00494 0.0249-0.011 0.0488-0.0182 0.0717-0.00715 0.0229-0.0154 0.0448-0.0246 0.0658s-0.0194 0.041-0.0305 0.0602c-0.0111 0.0191-0.023 0.0374-0.0358 0.0547-0.0128 0.0173-0.0264 0.0338-0.0407 0.0494-0.0143 0.0156-0.0294 0.0304-0.045 0.0443-0.0157 0.0139-0.032 0.0271-0.049 0.0393-0.017 0.0122-0.0346 0.0236-0.0528 0.0342-0.0181 0.0105-0.0368 0.0202-0.0559 0.029-0.0191 0.00881-0.0387 0.0168-0.0586 0.0238-0.0199 0.00707-0.0402 0.0133-0.0608 0.0186-0.0205 0.00533-0.0413 0.00974-0.0623 0.0133-0.021 0.00356-0.0422 0.00625-0.0635 0.00804-0.0213 0.00179-0.0427 0.00268-0.0642 0.00268-0.0214 0-0.0429-8.88e-4 -0.0642-0.00268-0.0213-0.00179-0.0425-0.00448-0.0636-0.00804-0.021-0.00356-0.0419-0.00798-0.0624-0.0133-0.0206-0.00533-0.0409-0.0115-0.0608-0.0186-0.0199-0.00707-0.0395-0.015-0.0586-0.0238-0.0191-0.00881-0.0378-0.0185-0.056-0.029-0.0182-0.0105-0.0358-0.0219-0.0528-0.0342s-0.0334-0.0254-0.0491-0.0393c-0.0214-0.019-0.0415-0.0398-0.0603-0.0619-4.27e-5 -5.08e-5 -9.83e-5 -9.04e-5 -1.41e-4 -1.41e-4 -0.0913-0.108-0.149-0.253-0.149-0.446-5.61e-5 -0.224 0.078-0.385 0.196-0.496 6.42e-5 -6.05e-5 1.24e-4 -1.28e-4 1.9e-4 -1.9e-4 0.00443-0.00418 0.00881-0.00842 0.0134-0.0125 0.0833-0.074 0.186-0.124 0.297-0.149 0.0277-0.00638 0.0557-0.0112 0.0841-0.0145 6.18e-4 -7.1e-5 0.00122-1.19e-4 0.00183-1.9e-4 0.0282-0.00316 0.0567-0.00489 0.0852-0.00489zm-1.33 0.0418c0.0179 0 0.0359 7.61e-4 0.0537 0.00226 0.0178 0.00151 0.0356 0.00373 0.0531 0.00672s0.035 0.00673 0.0522 0.0112c0.0172 0.00446 0.0341 0.00969 0.0508 0.0156 0.0167 0.00592 0.033 0.0126 0.049 0.0199 0.016 0.00737 0.0315 0.0154 0.0467 0.0242 0.0151 0.0088 0.0298 0.0183 0.044 0.0285 0.0142 0.0102 0.0278 0.0211 0.0409 0.0327 0.0154 0.0137 0.0299 0.0284 0.0437 0.044 9.51e-4 0.00108 0.00187 0.0022 0.00282 0.00329 0.0136 0.0157 0.0265 0.0323 0.0383 0.0501 0.0121 0.0182 0.0232 0.0376 0.0331 0.0581 1.4e-4 2.85e-4 2.38e-4 6.02e-4 3.8e-4 8.88e-4 0.00991 0.0205 0.0187 0.0421 0.0261 0.065 0.0194 0.0593 0.0304 0.127 0.0304 0.203 2.55e-5 0.102-0.0191 0.187-0.052 0.259-0.00758 0.0165-0.0159 0.0324-0.0249 0.0475-0.00899 0.0151-0.0186 0.0295-0.0289 0.0433-0.0101 0.0135-0.0208 0.0264-0.0321 0.0387-6.34e-4 6.97e-4 -0.00133 0.00133-0.00197 0.00202-0.0111 0.0119-0.0225 0.0232-0.0346 0.0339-0.0131 0.0116-0.0267 0.0225-0.0409 0.0327-0.0142 0.0102-0.0289 0.0197-0.044 0.0285-0.0151 0.0088-0.0308 0.0168-0.0467 0.0242-0.016 0.00737-0.0323 0.014-0.0489 0.0199-0.0167 0.00592-0.0336 0.0111-0.0508 0.0156-0.0172 0.00446-0.0346 0.0082-0.0522 0.0112-0.0176 0.00299-0.0353 0.00522-0.0531 0.00672-0.0178 0.00151-0.0358 0.00226-0.0537 0.00226-0.0179 0-0.0359-7.61e-4 -0.0537-0.00226-0.0178-0.00151-0.0356-0.00373-0.0531-0.00672s-0.035-0.00673-0.0522-0.0112c-0.0172-0.00446-0.0341-0.00969-0.0508-0.0156-0.0167-0.00592-0.033-0.0126-0.049-0.0199-0.016-0.00737-0.0315-0.0154-0.0467-0.0242-0.0151-0.0088-0.0298-0.0183-0.044-0.0285-0.0142-0.0102-0.0278-0.0211-0.0409-0.0327-0.012-0.0106-0.0234-0.0219-0.0344-0.0337-6.02e-4 -6.5e-4 -0.00124-0.00127-0.00183-0.00193-0.0112-0.0121-0.0218-0.0248-0.0319-0.0382-7.41e-5 -9.85e-5 -1.58e-4 -1.9e-4 -2.38e-4 -2.85e-4 -0.0102-0.0135-0.0197-0.0277-0.0287-0.0426-6.56e-5 -1.09e-4 -1.22e-4 -2.22e-4 -1.9e-4 -3.33e-4 -0.00897-0.0149-0.0173-0.0305-0.0249-0.0469-0.0335-0.0721-0.0531-0.158-0.0531-0.26-3.63e-5 -0.145 0.0387-0.257 0.101-0.343 0.0109-0.0151 0.0226-0.0294 0.0349-0.0429 0.0123-0.0135 0.0252-0.0263 0.0387-0.0384 0.0131-0.0116 0.0267-0.0225 0.0409-0.0327 0.0142-0.0102 0.0289-0.0197 0.044-0.0285 0.0151-0.0088 0.0307-0.0168 0.0467-0.0242 0.016-0.00737 0.0323-0.014 0.049-0.0199 0.0166-0.00592 0.0336-0.0111 0.0508-0.0156 0.0172-0.00446 0.0346-0.0082 0.0522-0.0112 0.0176-0.00299 0.0353-0.00522 0.0531-0.00672 0.0178-0.00151 0.0358-0.00226 0.0537-0.00226zm0.567 0.0974c0.0302 0.0071 0.0607 0.0138 0.0922 0.0193-0.0137 0.0181-0.0266 0.0372-0.0388 0.0568-0.0163-0.0269-0.034-0.0524-0.0534-0.0761zm-0.416 0.174c-0.0627 0-0.126 0.0137-0.183 0.0419a0.215 0.215 0 0 1 0.279 0.204 0.215 0.215 0 0 1-0.43 0 0.215 0.215 0 0 1 0.031-0.11c-0.0532 0.0647-0.0863 0.152-0.0863 0.253 3.63e-5 0.123 0.0489 0.226 0.123 0.292 0.0745 0.0662 0.171 0.0976 0.266 0.0976 0.0952 0 0.192-0.0313 0.266-0.0976 0.0745-0.0663 0.123-0.169 0.123-0.292-3.63e-5 -0.123-0.0491-0.226-0.124-0.292-0.0745-0.0662-0.171-0.0976-0.266-0.0976zm1.36 0.0328c-0.0507 0-0.102 0.00791-0.15 0.0239a0.252 0.252 0 0 1 0.262 0.251 0.252 0.252 0 1 1-0.504 0 0.252 0.252 0 0 1 0.0094-0.0665c-0.0381 0.0654-0.0607 0.145-0.0607 0.235 4.17e-5 0.141 0.0559 0.257 0.141 0.332 0.0846 0.0752 0.194 0.111 0.303 0.111 0.109 0 0.218-0.0359 0.303-0.111 0.0846-0.0753 0.14-0.192 0.14-0.333-4.17e-5 -0.141-0.0559-0.257-0.14-0.332-0.0846-0.0752-0.194-0.111-0.303-0.111zm-2.97 0.104c0.0737-2e-3 0.152 0.0109 0.233 0.0385 0.182 0.0621 0.371 0.2 0.517 0.399 0.0517 0.0513 0.0858 0.133 0.0858 0.133 0.0946 0.169 0.142 0.346 0.143 0.502 0.00146 0.196-0.0657 0.355-0.195 0.449-0.0319 0.023-0.0665 0.0411-0.103 0.0545 0 0-0.123 0.0431-0.225 0.0247-0.0515-0.00524-0.105-0.017-0.159-0.0355-0.185-0.063-0.377-0.204-0.524-0.408-0.147-0.204-0.221-0.431-0.222-0.626-0.00146-0.196 0.0662-0.355 0.195-0.449 0.0727-0.0525 0.159-0.0797 0.254-0.0823zm3.61 1.56c0.00997 3.49e-4 0.0271 0.00331 0.0514 0.0147l0.00564 0.00268 0.00588 0.00169s0.0152 0.00465 0.0267 0.00818c3.17e-4 1e-4 4.12e-4 1.32e-4 7.45e-4 2.38e-4 0.047 0.0145 0.172 0.0541 0.345 0.117v-4.69e-5c6.34e-4 2.38e-4 0.00143 5.7e-4 0.00207 7.92e-4 0.0682 0.0246 0.142 0.0524 0.22 0.083 1.74e-4 6.6e-5 3.01e-4 1.22e-4 4.76e-4 1.9e-4 1.11e-4 4.37e-5 2.22e-4 9.73e-5 3.33e-4 1.41e-4 0.0789 0.031 0.161 0.0649 0.244 0.101 0.0509 0.0222 0.102 0.0451 0.153 0.0691 0.0854 0.0402 0.17 0.0825 0.25 0.127 0.0399 0.022 0.0789 0.0444 0.117 0.0672 3.65e-4 2.22e-4 7.61e-4 4.44e-4 0.00113 6.66e-4 1.55e-4 9.41e-5 3.17e-4 1.9e-4 4.75e-4 2.85e-4 0.00412 0.00251 0.0078 0.00515 0.0119 0.00766-0.0194 0.0267-0.0372 0.0558-0.0536 0.0865-0.0166 0.0311-0.0321 0.0637-0.0434 0.0972-0.00828-0.00311-0.0163-0.00554-0.0246-0.00875-0.00405-0.00157-0.00807-0.00316-0.0121-0.00475-0.141-0.0551-0.287-0.124-0.428-0.198-0.00225-0.00117-0.00457-0.00226-0.00682-0.00343l4.71e-5 -4.71e-5c-0.0513-0.0269-0.102-0.0541-0.151-0.0816l-4.71e-5 4.71e-5c-0.00215-0.0012-0.00392-0.00233-0.00607-0.00353-0.0812-0.0453-0.159-0.0904-0.231-0.134-0.00898-0.00541-0.0169-0.0102-0.0257-0.0156-0.0631-0.0383-0.121-0.0745-0.173-0.108-0.0107-0.00682-0.0167-0.0107-0.0268-0.0172-0.117-0.0755-0.191-0.126-0.213-0.142-0.00398-0.00278-0.0144-0.00996-0.0148-0.0102-0.0369-0.0321-0.0336-0.0581-0.0343-0.0584 0.00175-2.54e-4 0.00429-4.44e-4 0.00762-3.33e-4zm1.57 0.702 0.0627 0.00541 0.427 0.274c-0.013 0.022-0.0234 0.0456-0.0314 0.0702l-0.478-0.174-0.0471-0.0456c0.0066-0.026 0.00253-0.0404 0.018-0.0693 0.0149-0.0279 0.03-0.0373 0.0484-0.0601z" color="#000000" fill="#000000" fill-rule="evenodd" style="-inkscape-stroke:none"/>
 <g transform="matrix(-.115 -.39 .39 -.115 24.7 29.7)"></g>
</svg>
