<?xml version="1.0" encoding="UTF-8"?>
<svg id="a" version="1.1" viewBox="0 0 48 48" xmlns="http://www.w3.org/2000/svg">
 <path d="m8.42 9.21c-0.493 0-1.05 0.0402-1.68 0.178-0.664 0.137-2.56 0.565-4.11 2.05-3.44 3.06-2.56 7.93-2.45 8.67 0.13 0.893 0.527 3.37 2.42 5.54 3.5 4.28 11 4.18 11 4.18s0.924 2.21 2.34 4.24c1.91 2.53 3.87 4.5 5.78 4.73 4.81 0 14.4-0.0076 14.4-0.0076s0.916 0.0076 2.16-0.787c1.07-0.649 2.02-1.79 2.02-1.79s0.985-1.05 2.36-3.46c0.42-0.741 0.771-1.46 1.08-2.14 0 0 4.21-8.94 4.21-17.6-0.084-2.63-0.733-3.1-0.886-3.25-0.313-0.313-0.733-0.305-0.733-0.305s-8.95 0.504-13.6 0.611c-1.01 0.0228-2.02 0.0456-3.02 0.0532l0.0077 8.93s4.38 1.85 6.35 3.06c0.283 0.176 0.779 0.519 0.985 1.1 0.16 0.466 0.153 1-0.0764 1.47l-4.66 9.69c-0.473 0.97-1.63 1.38-2.59 0.916l-9.69-4.66c-0.954-0.458-1.37-1.62-0.901-2.58l4.66-9.69c0.458-0.954 1.62-1.37 2.58-0.901 1.31 0.631 2.06 0.986 2.06 0.989-2.1e-5 -2.78-0.0076-8.33-0.0076-8.33-2.21 0.0305-6.81-0.168-6.81-0.168s-10.8-0.542-12-0.649c-0.374-0.0229-0.804-0.0631-1.3-0.0631zm0.931 3.67s0.542 4.54 1.2 7.19c0.55 2.23 1.89 5.93 1.89 5.93s-1.99-0.237-3.28-0.695c-1.98-0.649-2.82-1.43-2.82-1.43s-1.46-1.02-2.19-3.04c-1.26-3.37-0.107-5.44-0.107-5.44s0.641-1.72 2.94-2.29c1.05-0.283 2.37-0.237 2.37-0.237zm19.2 6.1c-0.367 0.748-0.741 1.5-1.11 2.25-0.512-0.0076-0.985 0.267-1.23 0.718-0.26 0.481-0.206 1.08 0.145 1.51l-1.88 3.85c-0.626 0.0076-1.18 0.443-1.32 1.05s0.153 1.24 0.695 1.53c0.588 0.305 1.34 0.137 1.73-0.412 0.389-0.542 0.328-1.29-0.138-1.76l1.83-3.75c0.115 0.0076 0.282 0.0153 0.473-0.0382 0.313-0.0687 0.542-0.275 0.542-0.275 0.321 0.137 0.657 0.29 1.01 0.466 0.367 0.183 0.71 0.374 1.02 0.557 0.0687 0.0382 0.137 0.084 0.214 0.145 0.122 0.0993 0.26 0.237 0.359 0.42 0.145 0.42-0.145 1.14-0.145 1.14-0.176 0.58-1.4 3.1-1.4 3.1-0.618-0.0153-1.17 0.382-1.35 0.954-0.199 0.618 0.084 1.32 0.68 1.63 0.596 0.305 1.33 0.13 1.72-0.405 0.382-0.519 0.351-1.24-0.0841-1.73 0.145-0.283 0.283-0.565 0.428-0.863 0.382-0.794 1.03-2.32 1.03-2.32 0.0687-0.13 0.435-0.786 0.206-1.63-0.191-0.87-0.962-1.28-0.962-1.28-0.932-0.603-2.23-1.16-2.23-1.16s3e-5 -0.313-0.084-0.542c-0.084-0.237-0.214-0.389-0.298-0.481 0.359-0.741 0.718-1.47 1.08-2.21-0.313-0.153-0.619-0.305-0.932-0.466z" fill="#000000" stroke-width=".0764"/>
</svg>
