<?xml version="1.0" encoding="UTF-8"?>
<svg version="1.0" viewBox="0 0 48 48" xmlns="http://www.w3.org/2000/svg">
 <path d="m39.2 0.394c-9.82 0-11.7 14-6.14 14s16-14 6.14-14zm-15.2 1.71c-0.156-5.39e-4 -0.321 0.0108-0.495 0.0332-5.51 0.718-3.58 10.3-0.638 10.5 2.85 0.174 5.98-10.5 1.13-10.5zm-9.58 3.8c-0.292 0.00646-0.61 0.0774-0.958 0.221-4.43 1.83-0.674 9.38 1.82 8.9 2.29-0.467 2.59-9.18-0.854-9.1zm-7.06 5.95c-0.386-0.013-0.806 0.115-1.25 0.423-3.56 2.45 1.2 8.38 3.29 7.46 1.83-0.806 0.662-7.78-2.04-7.9zm20.3 4.55c-7.62-0.129-17.7 3.69-19.4 11.4-1.86 8.3 7.62 19.8 17.6 19.8 4.87 0 10.5-4.39 11.6-9.98 0.802-4.27-9.46-2.55-9.1 0.264 0.443 3.37-2.47 5.03-5.35 2.86-9.1-6.9 15-10.4 13.4-19.8-0.495-2.94-4.19-4.43-8.78-4.51z"/>
</svg>
