<svg clip-rule="evenodd" fill-rule="evenodd" stroke-linejoin="round" stroke-miterlimit="1.41" version="1.1" viewBox="0 0 512 512" xml:space="preserve" xmlns="http://www.w3.org/2000/svg"><path d="m22.2 105c-5.4 2.02-10.8 4.04-16.2 6.05 8.38 20.3 18.2 40.5 33.1 56.9 13.1 14.7 31.8 23.7 51.3 26.1 14.2 1.86 28.6 1.48 42.8-0.0978 8.64 4.12 13.5 13 18 21 12.3 23.5 20.3 48.9 28.7 74 12.3 37.3 22.9 75.2 37.8 112 1.58 2.37 1.38 7.56 5.36 6.3 22.8-0.00133 45.7 0.00267 68.5-2e-3 14.4-32.9 24.3-67.5 35.4-102 9.36-28.7 18.1-57.8 31.2-85.1 4.83-9.21 9.76-19.2 18.7-25.1 3.66-2.13 8.15 0.387 12.2-0.0355 21.6 1.27 44.4-0.00584 63.6-10.9 19.7-10.9 32.7-30.3 42.8-49.8 3.87-7.53 7.34-15.3 10.5-23.1-5.4-2.01-10.8-4.06-16.2-6.04-8.87 16.3-20.7 32.4-38.2 39.9-15.2 6.49-32.1 6.52-48.4 6.18-11.1-0.0536-21.8-3.12-32.9-3.82-16-1.09-32.8 4.23-43.8 16.2-6.8 6.96-11 15.9-13.9 25-18.9 52.6-37.7 105-56.6 158-19.9-55.4-39.7-111-59.7-166-6.53-15.8-20.8-28.4-37.7-31.6-11.8-2.7-23.9-0.846-35.6 1.3-16.3 2.08-33 2.03-49.2-0.722-14.4-2.69-27.6-10.7-37-22-5.74-6.74-10.5-14.3-14.8-22z"/></svg>
