<?xml version="1.0" encoding="UTF-8" standalone="no"?><!DOCTYPE svg PUBLIC "-//W3C//DTD SVG 1.1//EN" "http://www.w3.org/Graphics/SVG/1.1/DTD/svg11.dtd"><svg width="100%" height="100%" viewBox="0 0 512 512" version="1.1" xmlns="http://www.w3.org/2000/svg" xmlns:xlink="http://www.w3.org/1999/xlink" xml:space="preserve" style="fill-rule:evenodd;clip-rule:evenodd;stroke-linejoin:round;stroke-miterlimit:1.41421;"><path id="path4060" d="M22.201,105.1l-13.578,5.073l-2.619,0.977l0,0.002l-0.004,0.001c0.886,2.19 1.782,4.32 2.684,6.418c0.193,0.448 0.388,0.883 0.582,1.327c0.439,1.009 0.876,2.032 1.319,3.019l0.002,0.002c0.259,0.578 0.521,1.13 0.781,1.7c0.13,0.284 0.258,0.585 0.388,0.867c0.39,0.847 0.777,1.679 1.171,2.51l0,0.002c0,0.003 -0.002,0.01 0,0.01c0.391,0.827 0.792,1.644 1.186,2.455c0.132,0.27 0.268,0.53 0.399,0.798c0.013,0.026 0.025,0.051 0.038,0.077c0.456,0.928 0.914,1.846 1.374,2.752c0.192,0.383 0.382,0.78 0.576,1.157c0.003,0.008 0.008,0.008 0.011,0.012c0.321,0.624 0.643,1.239 0.966,1.852c0.079,0.151 0.157,0.31 0.236,0.46l0.002,0.002c1.617,3.057 3.256,5.981 4.916,8.771l0.002,0.002c0.056,0.093 0.111,0.18 0.167,0.272c0.359,0.601 0.714,1.193 1.077,1.784c0.161,0.263 0.319,0.525 0.481,0.787c0.198,0.319 0.402,0.635 0.603,0.951c0.06,0.095 0.119,0.196 0.178,0.29l0.002,0.002c0.07,0.114 0.143,0.221 0.214,0.335c0.338,0.549 0.673,1.096 1.018,1.635c0.251,0.391 0.511,0.767 0.767,1.153c0.038,0.057 0.074,0.117 0.112,0.174c0.129,0.197 0.253,0.405 0.383,0.601l0.002,0.002c0.173,0.259 0.352,0.504 0.525,0.762c0.08,0.117 0.158,0.239 0.237,0.356c0.171,0.252 0.339,0.507 0.511,0.757c0.431,0.626 0.859,1.238 1.296,1.849c0.001,0.001 0.001,0.002 0.002,0.004l0.002,0.002c0.57,0.795 1.154,1.558 1.735,2.329c0.304,0.404 0.601,0.825 0.908,1.222l0.006,0.006c0.446,0.576 0.895,1.143 1.347,1.705c0.204,0.253 0.414,0.49 0.618,0.74c0.5,0.61 1.005,1.211 1.512,1.803c0.211,0.247 0.416,0.508 0.628,0.752c0.278,0.319 0.564,0.623 0.846,0.938c0.118,0.131 0.232,0.27 0.35,0.401c0.074,0.081 0.144,0.17 0.218,0.251l0.002,0.002c0.123,0.135 0.25,0.261 0.374,0.395c0.12,0.131 0.239,0.269 0.36,0.4c0.228,0.245 0.462,0.488 0.691,0.73c0.161,0.17 0.326,0.327 0.488,0.495c0.607,0.633 1.219,1.253 1.836,1.862c0.008,0.008 0.017,0.017 0.025,0.025c0.189,0.186 0.371,0.386 0.56,0.57c0.491,0.476 0.979,0.945 1.476,1.406l0.008,0.008c0.004,0.003 0.008,0.008 0.012,0.011c0.493,0.457 0.983,0.902 1.482,1.345c0.465,0.413 0.932,0.813 1.402,1.212c0.041,0.035 0.08,0.073 0.121,0.108l0.002,0.002c0.129,0.106 0.263,0.202 0.392,0.307c0.042,0.035 0.085,0.068 0.127,0.102c0.698,0.567 1.402,1.123 2.114,1.664c0.157,0.119 0.307,0.249 0.464,0.366l0.002,0.002c0.276,0.207 0.562,0.394 0.84,0.597c0.017,0.013 0.034,0.025 0.051,0.038c0.232,0.168 0.458,0.346 0.691,0.512c0.184,0.131 0.374,0.249 0.558,0.378c0.351,0.246 0.692,0.507 1.046,0.746c0.001,0.001 0.002,0.001 0.004,0.002c0.346,0.235 0.703,0.449 1.053,0.678c0.388,0.254 0.777,0.504 1.169,0.751c0.352,0.222 0.696,0.459 1.051,0.676c0.001,0.001 0.003,0.001 0.004,0.002c0.344,0.209 0.699,0.399 1.045,0.603c0.426,0.25 0.855,0.495 1.285,0.738c0.347,0.195 0.686,0.407 1.035,0.597l0.002,0.002c0.349,0.19 0.71,0.36 1.061,0.544c0.005,0.003 0.009,0.006 0.014,0.008c0.432,0.227 0.866,0.449 1.302,0.668c0.362,0.181 0.716,0.378 1.081,0.554c0.381,0.183 0.773,0.346 1.157,0.524c0.204,0.095 0.402,0.201 0.607,0.294c0.592,0.268 1.18,0.532 1.779,0.787l0.002,0c0.002,0.001 0.004,0.001 0.006,0.002c1.269,0.538 2.559,1.045 3.863,1.521c0.542,0.197 1.082,0.384 1.633,0.572c0.351,0.12 0.71,0.232 1.067,0.348c0.275,0.091 0.545,0.195 0.822,0.282c0.231,0.073 0.472,0.135 0.705,0.206c0.398,0.123 0.794,0.247 1.198,0.364c0.222,0.065 0.455,0.119 0.679,0.182c0.792,0.223 1.59,0.438 2.397,0.642c0.282,0.072 0.555,0.156 0.839,0.225c0.454,0.11 0.913,0.21 1.371,0.312c0.467,0.106 0.939,0.207 1.411,0.307c0.414,0.089 0.826,0.179 1.246,0.262c0.412,0.082 0.827,0.155 1.241,0.231c2.072,0.385 4.194,0.708 6.361,0.979c0.829,0.105 1.662,0.206 2.506,0.294c0.457,0.047 0.919,0.089 1.38,0.131c0.456,0.043 0.905,0.094 1.364,0.131c0.36,0.029 0.734,0.044 1.097,0.071c0.784,0.057 1.573,0.107 2.369,0.151c0.36,0.019 0.71,0.051 1.073,0.068c0.351,0.016 0.715,0.018 1.069,0.031c0.937,0.038 1.884,0.063 2.836,0.083c0.255,0.005 0.501,0.019 0.756,0.023c0.343,0.005 0.69,0.002 1.034,0.004c0.449,0.004 0.887,0.022 1.339,0.022c0.55,0 1.042,-0.015 1.582,-0.018c0.664,-0.001 1.341,-0.002 1.989,-0.008c0.931,-0.009 1.833,-0.027 2.731,-0.047c0.524,-0.011 1.034,-0.027 1.547,-0.041c0.807,-0.024 1.616,-0.047 2.396,-0.078c0.81,-0.035 1.595,-0.069 2.377,-0.106c2.759,-0.14 5.348,-0.327 7.745,-0.572c0.062,-0.006 0.124,-0.013 0.186,-0.019c1.294,-0.135 2.555,-0.28 3.745,-0.447c0.013,0.005 0.026,0.011 0.039,0.016c0.376,0.152 0.752,0.333 1.128,0.523c0.02,0.011 0.04,0.02 0.06,0.031c0.218,0.111 0.435,0.237 0.652,0.36c0.014,0.008 0.028,0.016 0.042,0.024c0.159,0.092 0.319,0.185 0.479,0.284c0.237,0.145 0.472,0.296 0.709,0.456c0.293,0.199 0.585,0.405 0.877,0.626c0.17,0.129 0.341,0.264 0.511,0.4c0.371,0.297 0.742,0.6 1.112,0.932c0.001,0.001 0.003,0.001 0.004,0.002c0.464,0.416 0.928,0.861 1.392,1.331l0.002,0.002c0.464,0.47 0.929,0.967 1.392,1.49l0.002,0.002c0.463,0.522 0.925,1.071 1.388,1.644l0.002,0.002c0.462,0.574 0.924,1.173 1.386,1.795l0.002,0.002c0.462,0.623 0.923,1.27 1.384,1.941l0.002,0.002c0.461,0.67 0.922,1.366 1.382,2.083l0.002,0.002c0.921,1.434 1.84,2.96 2.759,4.571l0.002,0.002c0.459,0.805 0.918,1.631 1.376,2.478c0.017,0.032 0.034,0.067 0.051,0.098c0.9,1.667 1.8,3.412 2.698,5.232l0.002,0.002c0.457,0.926 0.913,1.872 1.37,2.836l0.002,0.002c1.828,3.858 3.649,8.009 5.468,12.407l0.002,0.002c0.91,2.198 1.818,4.458 2.725,6.774l0.002,0.002c0.908,2.315 1.814,4.686 2.72,7.106c0,0.002 0.001,0.003 0.002,0.004c1.812,4.842 3.62,9.884 5.427,15.075l0.002,0.002c0.903,2.596 1.805,5.229 2.707,7.894l0.002,0.002c11.732,34.657 23.381,74.694 35.152,107.067c0.001,0.001 0.002,0.003 0.002,0.004c2.716,7.469 5.438,14.532 8.17,21.025l0.002,0.002c0.91,2.163 1.82,4.264 2.733,6.296c0,0.001 0.001,0.001 0.002,0.002l0,0.002l71.122,0c0,-0.001 0,-0.002 0,-0.002c27.703,-61.684 54.394,-186.995 82.691,-209.998c0.251,-0.204 0.504,-0.403 0.756,-0.591c0.042,-0.032 0.084,-0.061 0.127,-0.092c0.51,-0.375 1.02,-0.716 1.531,-1.022c0.07,-0.042 0.141,-0.083 0.211,-0.123c0.261,-0.152 0.523,-0.298 0.783,-0.431c0.085,-0.044 0.168,-0.085 0.251,-0.127c0.277,-0.135 0.553,-0.27 0.83,-0.384c0.048,-0.02 0.096,-0.042 0.143,-0.061c6.509,0.911 14.576,1.337 24.3,1.337c7.05,0 13.676,-0.489 19.913,-1.448c5.046,-0.774 9.844,-1.851 14.36,-3.278c4.656,-1.47 9.085,-3.332 13.317,-5.552c0.355,-0.186 0.719,-0.357 1.071,-0.548c0.002,-0.001 0.004,-0.003 0.006,-0.004c1.135,-0.618 2.254,-1.262 3.359,-1.934c0.003,-0.002 0.005,-0.005 0.008,-0.006c1.104,-0.673 2.195,-1.371 3.27,-2.099c0.003,-0.002 0.006,-0.005 0.009,-0.008c1.074,-0.728 2.133,-1.482 3.178,-2.265c0.003,-0.002 0.006,-0.005 0.01,-0.008c1.044,-0.783 2.074,-1.593 3.089,-2.431c0.003,-0.003 0.006,-0.007 0.01,-0.01c0.571,-0.484 1.13,-0.999 1.693,-1.502c0.441,-0.394 0.889,-0.771 1.326,-1.176c0.991,-0.92 1.969,-1.872 2.936,-2.851c5.822,-5.893 11.202,-12.843 16.121,-20.819c6.731,-10.628 13.116,-23.397 19.139,-38.277l-0.004,-0.002c0,0 0,-0.001 0,-0.001l-2.661,-0.993l-13.536,-5.057l0,0.002c-0.001,0.002 -0.002,0.004 -0.004,0.006l-0.002,0.002c-1.282,2.344 -2.567,4.579 -3.86,6.707c-0.647,1.066 -1.296,2.105 -1.946,3.117c-0.001,0.001 -0.001,0.003 -0.002,0.004c-0.649,1.011 -1.3,1.994 -1.952,2.952c-0.001,0.001 -0.002,0.001 -0.002,0.002c-2.61,3.835 -5.243,7.25 -7.9,10.261c-5.137,5.846 -10.803,10.524 -17.003,14.067c-1.492,0.833 -3.03,1.598 -4.62,2.316c-0.01,0.006 -0.023,0.018 -0.04,0.029c-4.821,2.17 -10.093,3.802 -15.809,4.865c-7.44,1.24 -15.982,1.87 -25.725,1.87c-7.187,0 -13.647,-0.367 -19.317,-1.067l-0.09,0c-0.72,-0.057 -2.205,-0.294 -3.74,-0.535c-1.617,-0.253 -3.269,-0.498 -5.875,-0.981c-47.765,-8.837 -63.606,24.322 -67.029,33.471c-0.535,1.431 -0.8,2.314 -0.8,2.314l-58.039,161.83l-0.043,0.072l-0.043,-0.072l-58.039,-161.83c0,0 -0.265,-0.883 -0.8,-2.314c-0.214,-0.572 -0.479,-1.24 -0.795,-1.984c-0.315,-0.742 -0.684,-1.562 -1.11,-2.443c-0.001,-0.001 -0.002,-0.003 -0.002,-0.004c-0.01,-0.021 -0.023,-0.046 -0.033,-0.066c-0.635,-1.307 -1.394,-2.744 -2.297,-4.264c-0.191,-0.323 -0.401,-0.656 -0.605,-0.985c-0.122,-0.197 -0.235,-0.39 -0.362,-0.589c-0.065,-0.103 -0.139,-0.209 -0.206,-0.312c-1.315,-2.035 -2.871,-4.171 -4.712,-6.296c-0.483,-0.558 -0.985,-1.116 -1.508,-1.67l-0.001,-0.002c-0.523,-0.554 -1.065,-1.105 -1.627,-1.652l-0.002,-0.002c-0.563,-0.547 -1.145,-1.09 -1.749,-1.625c-0.001,-0.001 -0.003,-0.001 -0.004,-0.002c-0.603,-0.535 -1.227,-1.064 -1.873,-1.584c-0.001,-0.001 -0.003,-0.001 -0.004,-0.002c-0.447,-0.359 -0.917,-0.707 -1.384,-1.057c-0.21,-0.157 -0.409,-0.321 -0.623,-0.476c-0.69,-0.5 -1.404,-0.989 -2.14,-1.466l-0.002,-0.002c-0.735,-0.477 -1.493,-0.941 -2.275,-1.39c-0.001,-0.001 -0.002,-0.002 -0.003,-0.002c-1.565,-0.899 -3.223,-1.738 -4.979,-2.502c-0.001,-0.001 -0.003,-0.002 -0.004,-0.002c-0.878,-0.382 -1.78,-0.744 -2.708,-1.087l-0.002,-0.002c-9.286,-3.426 -21.096,-4.766 -36.023,-2.005c-2.606,0.483 -4.258,0.728 -5.875,0.981c-1.535,0.241 -3.019,0.476 -3.738,0.533l-0.09,0c-5.67,0.7 -12.128,1.069 -19.315,1.069c-9.743,0 -18.285,-0.63 -25.725,-1.87c-1.903,-0.354 -3.758,-0.77 -5.562,-1.249c-0.002,0 -0.003,-0.002 -0.004,-0.002c-3.606,-0.957 -7.015,-2.163 -10.224,-3.606c-0.004,-0.003 -0.009,-0.005 -0.014,-0.008c-0.015,-0.008 -0.026,-0.022 -0.041,-0.033c-1.587,-0.716 -3.132,-1.487 -4.62,-2.318c-0.003,-0.002 -0.009,0.001 -0.012,0c-0.115,-0.066 -0.229,-0.137 -0.344,-0.204c-0.498,-0.289 -0.992,-0.585 -1.482,-0.889c-0.153,-0.096 -0.308,-0.19 -0.462,-0.288c-0.76,-0.479 -1.515,-0.968 -2.258,-1.484c-0.001,-0.001 -0.002,-0.002 -0.004,-0.003c-0.029,-0.021 -0.058,-0.043 -0.088,-0.063c-0.466,-0.324 -0.925,-0.664 -1.384,-1.003c-0.502,-0.369 -0.998,-0.746 -1.492,-1.133c-0.338,-0.265 -0.677,-0.528 -1.012,-0.801c-0.122,-0.099 -0.245,-0.196 -0.368,-0.297c-0.101,-0.084 -0.201,-0.171 -0.301,-0.255c-0.406,-0.339 -0.807,-0.688 -1.206,-1.039c-0.196,-0.176 -0.393,-0.35 -0.59,-0.527c-0.85,-0.765 -1.688,-1.554 -2.514,-2.371c-0.048,-0.048 -0.096,-0.098 -0.144,-0.147c-0.727,-0.723 -1.443,-1.472 -2.15,-2.24c-0.276,-0.299 -0.553,-0.598 -0.826,-0.904c-0.127,-0.141 -0.254,-0.28 -0.378,-0.421c-0.596,-0.676 -1.19,-1.372 -1.784,-2.089c-0.001,-0.002 -0.002,-0.004 -0.004,-0.006c-0.384,-0.464 -0.769,-0.951 -1.153,-1.433c-0.24,-0.301 -0.481,-0.596 -0.72,-0.904c-0.099,-0.131 -0.197,-0.262 -0.298,-0.394c-0.18,-0.233 -0.361,-0.473 -0.542,-0.709c-0.26,-0.343 -0.518,-0.692 -0.777,-1.043c-0.661,-0.896 -1.319,-1.813 -1.976,-2.763c-0.056,-0.081 -0.114,-0.159 -0.17,-0.24c-0.809,-1.175 -1.616,-2.389 -2.422,-3.644c-0.65,-1.012 -1.299,-2.051 -1.946,-3.117c-0.3,-0.494 -0.595,-0.992 -0.895,-1.497c-0.032,-0.055 -0.065,-0.108 -0.097,-0.163c-0.957,-1.619 -1.917,-3.305 -2.869,-5.043l-0.002,0.01c-0.001,-0.002 -0.002,-0.004 -0.003,-0.006l0,-0.002l-0.004,0.002l0,-0.002l0,-0.002Z" style="fill:#4d4d4d;fill-rule:nonzero;"/></svg>
