<?xml version="1.0" encoding="UTF-8"?>
<svg width="90pt" height="80pt" version="1.0" viewBox="0 0 90 80" xmlns="http://www.w3.org/2000/svg">
 <g transform="matrix(.14137 0 0 -.14137 -17.849 114.05)">
  <path d="m311 633 1-158-24-3c-13-2-51 6-86 17-34 10-62 15-62 11 0-10 77-36 132-46l37-6 3-92 3-91 28-3 27-3v76c0 69 2 76 18 70 9-4 38-10 64-14 36-6 45-5 41 6-6 15 13 18 22 3 17-27 93 16 81 46-3 8 1 14 9 14 12 0 15-19 15-100v-100h50v118c0 113 1 120 25 142 14 13 25 31 25 41 0 9 7 22 15 29 25 21 17 30-25 30h-40v85c0 84 0 85-25 85s-25-1-25-88c0-48-4-92-9-98-5-5-11-20-14-34-4-24-4-24-6 3-1 25-4 27-23 22-13-4-44-20-71-36-26-16-52-29-57-29-6 0-10-8-11-17 0-11-3-13-6-5-2 6-16 12-29 12h-24v270h-61z"/>
  <path d="m72.114 62.656c-0.01099-0.26849-0.01841-0.53717-0.0293-0.80566 0.19367 0.2419 0.37515 0.49243 0.57129 0.73242-0.18083 0.02475-0.36094 0.05016-0.54199 0.07324zm98.701-27.92c0.0544-0.21704 0.10756-0.40172 0.16113-0.61523 0.41996 8e-3 0.83979 0.0217 1.2598 0.0293-0.47736 0.18406-0.94436 0.39874-1.4209 0.58594z"/>
 </g>
</svg>
