<?xml version="1.0" encoding="UTF-8"?>
<svg version="1.1" viewBox="0 0 48 48" xmlns="http://www.w3.org/2000/svg">
 <filter id="a" x="-.079113" y="-.069643" width="1.1582" height="1.1393">
  <feGaussianBlur stdDeviation="13.396228"/>
 </filter>
 <g transform="matrix(.18626 0 0 .18626 -14.583 -24.603)" fill="#000000" fill-rule="evenodd">
  <path d="m232.59 170.49c-5.5263 5.7137-5.3791 14.824 0.32886 20.356 0 0 29.68 29.556 66.779 66.501 7.9284 7.8954 9.2069 17.378 5.2416 31.113-3.9652 13.736-14.228 29.851-27.406 43.084s-29.25 23.563-42.969 27.586c-13.719 4.0225-23.207 2.7835-31.135-5.1119-18.496-18.419-35.009-35.162-47.018-47.267-6.0048-6.0527-10.865-10.939-14.372-14.376-1.7537-1.7182-3.142-3.0412-4.3367-4.1281-0.59736-0.54347-1.0859-0.98859-1.9235-1.6402-0.41881-0.32583-0.80945-0.69221-2.1034-1.4171-0.64695-0.36245-1.4219-0.88298-3.6098-1.4352-2.1878-0.55221-8.3924-1.6076-13.783 3.8052-3.2072 3.1386-4.7683 7.5925-4.2224 12.047s3.1365 8.3992 7.0067 10.67c0.71225 0.66649 1.5251 1.4125 2.8167 2.678 3.2713 3.2051 8.1055 8.0628 14.085 14.09 11.959 12.055 28.532 28.858 47.135 47.384 16.186 16.119 39.371 18.263 59.569 12.34 20.199-5.9223 39.301-18.864 55.27-34.899 15.969-16.036 28.831-35.192 34.669-55.415s3.5974-43.399-12.589-59.517c-37.099-36.945-66.779-66.501-66.779-66.501-2.7191-2.7822-6.448-4.3462-10.338-4.336-3.8903 0.0101-7.611 1.5934-10.316 4.3897z"/>
  <path d="m174.23 229.71c-5.5263 5.7137-5.3791 14.824 0.32886 20.356l74.869 74.557c3.6285 3.717 8.9772 5.1924 13.998 3.8612s8.9362-5.2628 10.246-10.289-0.18739-10.369-3.9195-13.982l-74.869-74.557c-2.7191-2.7822-6.448-4.3462-10.338-4.336s-7.611 1.5934-10.316 4.3897z"/>
  <path transform="matrix(.33875 -.34017 .34017 .33875 55.827 274.1)" d="m100 40a30 30 0 1 1-60 0 30 30 0 1 1 60 0z"/>
  <path transform="matrix(.33875 -.34017 .34017 .33875 113.41 216.28)" d="m100 40a30 30 0 1 1-60 0 30 30 0 1 1 60 0z"/>
  <path transform="matrix(.33875 -.34017 .34017 .33875 172.7 156.75)" d="m100 40a30 30 0 1 1-60 0 30 30 0 1 1 60 0z"/>
 </g>
</svg>
