<?xml version="1.0" encoding="UTF-8"?>
<svg version="1.1" viewBox="0 0 48 48" xmlns="http://www.w3.org/2000/svg">
 <path d="m24.7 0.034a2.68 2.68 0 0 0-1.98 4.57 2.68 2.68 0 1 0 3.78-3.8 2.68 2.68 0 0 0-1.8-0.779zm6.04 6.32c-0.724 0.00188-1.41 0.297-1.92 0.816-1.03 1.06-1 2.75 0.0606 3.8 0 0 5.53 5.51 12.4 12.4 1.48 1.47 1.71 3.24 0.975 5.79-0.738 2.55-2.64 5.56-5.1 8.02-2.46 2.46-5.45 4.39-8 5.14-2.55 0.748-4.32 0.518-5.79-0.951-3.44-3.42-6.51-6.55-8.74-8.8-1.12-1.13-2.03-2.03-2.68-2.68-0.326-0.32-0.585-0.563-0.807-0.766-0.111-0.101-0.203-0.185-0.359-0.307-0.0779-0.0606-0.149-0.13-0.391-0.266-0.12-0.0673-0.265-0.164-0.672-0.268-0.407-0.103-1.56-0.299-2.57 0.709-0.597 0.584-0.886 1.41-0.785 2.23 0.102 0.828 0.583 1.56 1.3 1.99 0.132 0.124 0.284 0.264 0.523 0.498 0.608 0.597 1.51 1.5 2.62 2.62 2.23 2.25 5.3 5.36 8.76 8.82 3.01 2.99 7.33 3.4 11.1 2.29 3.76-1.1 7.31-3.51 10.3-6.49 2.98-2.98 5.36-6.55 6.46-10.3 1.09-3.76 0.669-8.07-2.34-11.1-6.9-6.86-12.4-12.4-12.4-12.4-0.506-0.517-1.2-0.811-1.92-0.809zm-17.1 4.75a2.68 2.68 0 0 0-1.98 4.57 2.68 2.68 0 1 0 3.78-3.79 2.68 2.68 0 0 0-1.8-0.779zm6.21 6.27c-0.724 0.0019-1.42 0.296-1.92 0.815-1.03 1.06-0.999 2.75 0.0625 3.8l13.9 13.9c0.675 0.692 1.67 0.966 2.6 0.719 0.934-0.247 1.66-0.979 1.9-1.92 0.244-0.936-0.0326-1.93-0.727-2.6l-13.9-13.9c-0.506-0.517-1.2-0.807-1.92-0.805zm-17.1 4.51a2.75 2.75 0 0 0-2.75 2.75 2.75 2.75 0 0 0 2.75 2.75 2.75 2.75 0 0 0 2.75-2.75 2.75 2.75 0 0 0-2.75-2.75z"/>
</svg>
