<?xml version="1.0" encoding="UTF-8" standalone="no"?>
<svg
   xmlns:dc="http://purl.org/dc/elements/1.1/"
   xmlns:cc="http://creativecommons.org/ns#"
   xmlns:rdf="http://www.w3.org/1999/02/22-rdf-syntax-ns#"
   xmlns:svg="http://www.w3.org/2000/svg"
   xmlns="http://www.w3.org/2000/svg"
   xmlns:sodipodi="http://sodipodi.sourceforge.net/DTD/sodipodi-0.dtd"
   xmlns:inkscape="http://www.inkscape.org/namespaces/inkscape"
   sodipodi:docname="illumos.svg"
   inkscape:version="1.0 (4035a4fb49, 2020-05-01)"
   id="svg287"
   version="1.1"
   viewBox="0 0 33.499336 43.538258"
   height="43.538258mm"
   width="33.499336mm">
  <defs
     id="defs281" />
  <sodipodi:namedview
     inkscape:window-maximized="1"
     inkscape:window-y="0"
     inkscape:window-x="2560"
     inkscape:window-height="1415"
     inkscape:window-width="2560"
     fit-margin-bottom="0"
     fit-margin-right="0"
     fit-margin-left="0"
     fit-margin-top="0"
     showgrid="false"
     inkscape:document-rotation="0"
     inkscape:current-layer="layer1"
     inkscape:document-units="mm"
     inkscape:cy="150.45865"
     inkscape:cx="58.435703"
     inkscape:zoom="0.98994949"
     inkscape:pageshadow="2"
     inkscape:pageopacity="0.0"
     borderopacity="1.0"
     bordercolor="#666666"
     pagecolor="#ffffff"
     id="base" />
  <metadata
     id="metadata284">
    <rdf:RDF>
      <cc:Work
         rdf:about="">
        <dc:format>image/svg+xml</dc:format>
        <dc:type
           rdf:resource="http://purl.org/dc/dcmitype/StillImage" />
        <dc:title></dc:title>
      </cc:Work>
    </rdf:RDF>
  </metadata>
  <g
     transform="translate(-37.678895,-69.700936)"
     id="layer1"
     inkscape:groupmode="layer"
     inkscape:label="Layer 1">
    <path
       style="stroke-width:0.264583"
       id="path235"
       d="m 38.733086,69.701115 c -0.03413,0.276489 0.04396,0.567862 0.108521,0.835091 0.159544,0.667279 0.383414,1.318915 0.615983,1.963704 0.173845,0.483205 0.366954,0.965442 0.612882,1.418002 -0.227256,-0.147614 -0.448056,-0.306079 -0.654223,-0.481625 -0.04974,-0.04233 -0.09911,-0.08424 -0.147795,-0.128157 -0.0077,-0.0074 -0.01558,-0.01507 -0.02325,-0.02274 -0.04366,-0.04366 -0.08453,-0.09016 -0.127124,-0.134875 -0.0053,-0.0069 -0.0097,-0.01404 -0.01499,-0.02119 -0.14605,-0.2032 -0.288995,-0.412023 -0.449068,-0.603581 -0.27596,-0.3302 -0.569772,-0.734694 -0.953947,-0.950329 0.02222,0.01296 0.04419,0.02606 0.06615,0.03876 -0.02461,-0.02566 -0.0532,-0.04461 -0.08733,-0.05943 0.0011,0.02805 0.0089,0.05466 0.01499,0.08165 -0.0011,-0.0019 -0.002,-0.0033 -0.0031,-0.0052 0.0016,0.0048 0.0033,0.0094 0.0046,0.01447 0.0066,0.02725 0.01653,0.05392 0.02791,0.07958 0.120914,0.381 0.265898,0.752533 0.441316,1.111044 0.110861,0.211137 0.222428,0.422163 0.334347,0.633036 0.02249,0.0426 0.04672,0.08402 0.0708,0.12609 0.125148,0.2159 0.245049,0.435686 0.383956,0.642855 0.346339,0.516467 0.708467,1.002622 1.128096,1.46141 0.156434,0.171 0.322306,0.336457 0.492993,0.497127 -0.02769,-0.01454 -0.05614,-0.02706 -0.08372,-0.04186 -0.300831,-0.16166 -0.597826,-0.333577 -0.876432,-0.53175 -0.06932,-0.04895 -0.136942,-0.09929 -0.203088,-0.151412 -0.25109,-0.337608 -0.507711,-0.715545 -0.827857,-0.987537 -0.02223,-0.01191 -0.04444,-0.02349 -0.06666,-0.03566 0.04974,0.274373 0.21141,0.528791 0.352433,0.765329 0.350308,0.589491 0.759247,1.145005 1.173055,1.691369 0.391583,0.517261 0.808687,1.026807 1.306897,1.445907 0.41566,0.349514 0.889409,0.625189 1.372009,0.871781 0.540015,0.275431 1.076838,0.559185 1.643311,0.777731 0.141214,0.05456 0.283473,0.104871 0.425814,0.154512 -0.03703,-1.24e-4 -0.07397,8.47e-4 -0.111105,-10e-4 -0.462756,-0.02358 -0.915243,-0.112351 -1.353922,-0.25893 -0.253736,-0.09816 -0.503936,-0.208319 -0.742591,-0.337965 -0.05768,-0.03149 -0.114944,-0.06331 -0.171565,-0.09612 -0.009,-0.0056 -0.01787,-0.01098 -0.02687,-0.01654 -0.05133,-0.0336 -0.10036,-0.07024 -0.150895,-0.104902 -0.0066,-0.0061 -0.01302,-0.01252 -0.01964,-0.0186 -0.185472,-0.16854 -0.367721,-0.343379 -0.564306,-0.498161 -0.337873,-0.266171 -0.708707,-0.601513 -1.12913,-0.733805 0.02434,0.0082 0.04827,0.0166 0.07235,0.02481 -0.02937,-0.02037 -0.0609,-0.0329 -0.09715,-0.04031 0.0066,0.02752 0.01963,0.05083 0.03101,0.07596 -0.0013,-0.0013 -0.0026,-0.0023 -0.0036,-0.0036 0.0021,0.004 0.0049,0.0077 0.0067,0.01137 0.0127,0.02699 0.02748,0.05163 0.04548,0.07545 0.196321,0.347133 0.414387,0.680181 0.659391,0.994771 0.151606,0.183621 0.304155,0.367515 0.45682,0.550872 0.03096,0.03678 0.0628,0.07254 0.09508,0.10852 0.166687,0.185738 0.329902,0.375741 0.508496,0.549837 0.445029,0.434182 0.898946,0.835381 1.404565,1.19786 0.48604,0.348721 1.01273,0.666849 1.569413,0.888835 0.09038,0.03611 0.182663,0.06938 0.274402,0.103353 -0.428063,-0.07423 -0.851888,-0.170179 -1.270205,-0.295588 -0.326496,-0.0979 -0.652326,-0.206557 -0.964799,-0.345198 -0.07726,-0.03413 -0.153521,-0.06992 -0.228927,-0.107487 -0.313796,-0.280988 -0.641205,-0.599877 -1.009241,-0.802018 -0.02381,-0.0071 -0.04828,-0.01456 -0.07183,-0.0217 0.103452,0.259027 0.313205,0.475564 0.498678,0.679028 0.461433,0.507207 0.973666,0.969446 1.488281,1.421619 0.487362,0.428096 0.997624,0.844083 1.570447,1.154968 0.477043,0.259027 0.995966,0.434578 1.518253,0.578776 0.500637,0.138827 1.001045,0.281243 1.511019,0.383439 -0.87452,0.161705 -1.783926,0.135249 -2.635498,-0.130741 0.0672,0.02117 -0.158184,-0.05995 -0.332279,-0.136943 -0.09287,-0.04074 -0.182844,-0.08842 -0.274919,-0.130224 -0.05847,-0.02646 -0.0088,0.0026 -0.362252,-0.274402 0.04392,0.0344 -0.477453,-0.349126 -0.47904,-0.302824 -0.0016,0.0553 0.01189,0.09599 0.02274,0.15658 -0.005,-0.02831 -0.0094,-0.05644 -0.01447,-0.08475 0.04418,0.274373 0.230667,0.501671 0.398942,0.715719 0.310091,0.395287 0.688561,0.759342 1.064534,1.091923 0.538956,0.476514 1.097512,0.92328 1.740979,1.25057 0.389202,0.197908 0.802734,0.365232 1.224215,0.48059 0.427912,0.117152 0.856474,0.166658 1.283643,0.166915 -0.601611,0.175887 -1.229532,0.256105 -1.857768,0.21239 0.06985,0.005 -0.167957,-0.02167 -0.355017,-0.05633 -0.100277,-0.01799 -0.197644,-0.04295 -0.297656,-0.06253 -0.06271,-0.01217 -0.0083,0.0041 -0.416513,-0.183452 0.0508,0.02328 -0.54488,-0.229993 -0.535884,-0.184485 0.01138,0.05424 0.03404,0.09144 0.05891,0.147795 -0.01164,-0.02646 -0.023,-0.05286 -0.03411,-0.07958 0.106362,0.257175 0.340465,0.435029 0.553454,0.604098 0.3937,0.312737 0.845394,0.57995 1.287777,0.816487 0.634735,0.338932 1.281666,0.645075 1.983341,0.814938 0.423863,0.102393 0.865432,0.169403 1.30173,0.184485 0.02926,0.001 0.05768,-0.0015 0.08682,-0.001 -0.639261,0.226301 -1.292106,0.402366 -1.963704,0.511596 -0.336815,0.05424 -0.676966,0.09817 -1.018543,0.110071 -0.08387,0.0032 -0.168308,0.0044 -0.252181,0.0036 -0.405341,-0.115888 -0.838944,-0.259953 -1.258838,-0.28112 -0.02487,0.0042 -0.04981,0.0077 -0.07441,0.01188 0.206111,0.18759 0.488553,0.29191 0.744141,0.393775 0.636587,0.255058 1.29917,0.447121 1.95957,0.629418 0.62521,0.172244 1.266333,0.324086 1.916679,0.353984 0.54266,0.02487 1.086404,-0.04344 1.619539,-0.141076 0.118358,-0.02175 0.236579,-0.04494 0.355018,-0.06666 -0.537057,0.464401 -1.155648,0.831949 -1.832964,1.053682 0.0672,-0.0217 -0.163318,0.04302 -0.349849,0.08165 -0.09948,0.02064 -0.199988,0.03416 -0.299207,0.05374 -0.06297,0.01244 -0.0055,0.0075 -0.454235,-0.01344 0.05583,0.0026 -0.591786,-0.0074 -0.565857,0.03101 0.03043,0.04657 0.06563,0.07186 0.109554,0.114721 -0.02064,-0.02064 -0.04086,-0.04034 -0.06149,-0.06098 0.194998,0.198438 0.479127,0.274936 0.740006,0.3514 0.4826,0.142081 1.001932,0.219178 1.501201,0.271301 0.715697,0.07488 1.430197,0.115173 2.144572,0.0078 0.152721,-0.02285 0.305191,-0.05232 0.457336,-0.08527 -0.463505,0.489608 -1.009065,0.89921 -1.623157,1.183907 0.06429,-0.02937 -0.156989,0.06189 -0.337964,0.121956 -0.09631,0.03254 -0.194365,0.05793 -0.290938,0.08888 -0.06112,0.01958 -0.0045,0.0075 -0.452685,0.04031 0.05583,-0.0042 -0.588004,0.06195 -0.558106,0.09767 0.03625,0.04207 0.07676,0.06554 0.05374,0.04754 0.217487,0.173567 0.508409,0.216491 0.776696,0.261999 0.495565,0.08387 1.021003,0.09962 1.522388,0.09353 0.633228,-0.0091 1.260687,-0.05127 1.876888,-0.189136 -0.365132,0.392976 -0.759137,0.759527 -1.190625,1.093472 -0.258498,0.200025 -0.525305,0.392213 -0.81132,0.558107 -0.07091,0.04127 -0.142214,0.08128 -0.214974,0.118856 -0.411162,0.0889 -0.862054,0.167484 -1.233,0.34158 -0.01905,0.01455 -0.03831,0.02885 -0.05736,0.04393 0.280987,0.06191 0.580582,0.0191 0.856278,-0.01291 0.687123,-0.07964 1.361021,-0.221787 2.0283,-0.37207 0.63156,-0.14261 1.264514,-0.310126 1.838131,-0.582911 0.05742,-0.02726 0.111952,-0.05894 0.167948,-0.08837 -0.02695,0.06218 -0.05693,0.123058 -0.0832,0.185518 -0.390789,0.488421 -0.858436,0.91195 -1.394747,1.237652 -0.130175,0.0717 -0.261913,0.139914 -0.397908,0.200504 -0.09313,0.04075 -0.187722,0.07529 -0.28112,0.115239 -0.059,0.0254 -0.0044,0.0078 -0.447001,0.08216 0.0553,-0.0098 -0.57981,0.116284 -0.546737,0.148828 0.03969,0.03863 0.0794,0.05634 0.131258,0.08888 -0.02408,-0.01561 -0.04853,-0.03038 -0.07235,-0.04599 0.23204,0.1524 0.52617,0.167994 0.797368,0.188102 0.500856,0.03731 1.024681,0.0036 1.523421,-0.05013 -0.180975,0.591079 -0.31447,1.199867 -0.412895,1.808675 -0.02222,0.13758 -0.04343,0.27608 -0.0646,0.41393 -0.37465,0.51276 -0.774208,1.00522 -1.222148,1.46348 -0.382852,0.39211 -0.783398,0.76791 -1.203027,1.12034 -0.211932,0.17833 -0.427121,0.35237 -0.646989,0.52038 -0.100277,0.0765 -0.200443,0.15251 -0.302307,0.22686 -0.05477,0.0397 -0.109046,0.0792 -0.163815,0.11782 -0.0045,0.003 -0.0061,0.005 -0.01137,0.008 -0.456935,0.31565 -0.926327,0.61375 -1.41025,0.88574 -0.240506,0.13599 -0.483042,0.26947 -0.731221,0.3917 -0.13388,0.0656 -0.268896,0.12955 -0.404627,0.19172 -0.04789,0.0217 -0.09602,0.0434 -0.144177,0.0646 -0.0069,0.003 -0.0096,0.004 -0.01809,0.008 -0.490802,0.2077 -0.991096,0.39575 -1.500683,0.55398 -0.05186,0.0151 -0.103424,0.0299 -0.155547,0.0439 -0.115887,0.0315 -0.231894,0.0608 -0.347782,0.091 -0.115094,0.0294 -0.230345,0.0591 -0.346232,0.0858 -0.03969,0.009 -0.07968,0.0174 -0.119373,0.0269 -0.395287,0.0781 -0.803493,0.15617 -1.170471,0.32815 -0.09366,0.0444 -0.410976,0.21127 -0.173116,0.33589 0.278607,0.14579 0.699724,0.12359 0.996322,0.11989 0.546629,-0.007 1.086532,-0.0734 1.625223,-0.16123 1.782498,-0.29051 3.531572,-0.86596 5.162993,-1.66553 -0.137054,0.13282 -0.272137,0.26777 -0.412895,0.39636 -0.249502,0.22833 -0.503175,0.45329 -0.763261,0.66972 -0.05397,0.0455 -0.108024,0.0899 -0.162264,0.13436 -0.120385,0.095 -0.241829,0.18982 -0.363802,0.28216 -0.243417,0.18335 -0.49353,0.35723 -0.746207,0.5271 -0.06403,0.0418 -0.131713,0.0853 -0.167432,0.108 -0.130704,0.0823 -0.260966,0.16223 -0.393258,0.24081 -0.05609,0.0336 -0.112626,0.0662 -0.168982,0.0992 -0.12991,0.0714 -0.259957,0.14155 -0.39119,0.20981 -0.01323,0.007 -0.02683,0.0135 -0.03979,0.0202 -0.114036,0.0542 -0.228302,0.10806 -0.343132,0.16071 -0.0164,0.007 -0.03269,0.0151 -0.04909,0.0222 -0.09499,0.0392 -0.190773,0.0764 -0.286288,0.11421 -0.2921,0.0802 -0.585076,0.15872 -0.878499,0.23254 -0.0971,0.0238 -0.194088,0.0486 -0.291455,0.0713 -0.02858,0.004 -0.06041,0.0104 -0.0956,0.0191 -0.575734,0.0987 -1.149127,0.37728 -1.662948,0.6289 -0.447939,0.21961 -0.893035,0.46133 -1.298112,0.75396 -0.01773,0.0124 -0.03627,0.0271 -0.05426,0.0398 -0.01932,0.013 -0.04011,0.0237 -0.05943,0.0367 -0.08123,0.0548 -0.485349,0.28006 -0.469739,0.44649 0.01561,0.17251 1.774172,-0.24994 2.055689,-0.3235 2.482585,-0.64796 4.850432,-1.77822 7.018693,-3.1657 -0.115094,0.17516 -0.233322,0.34817 -0.354501,0.51935 -0.05397,0.0733 -0.122485,0.16643 -0.155029,0.20929 -0.09366,0.12251 -0.18766,0.24395 -0.283704,0.36381 -0.04128,0.0521 -0.08325,0.10293 -0.125057,0.15399 -0.09631,0.11165 -0.192501,0.22274 -0.291455,0.33228 -0.0074,0.008 -0.01508,0.0161 -0.02222,0.0243 -0.09049,0.0937 -0.181306,0.18645 -0.272852,0.27905 -0.01376,0.0135 -0.02732,0.0276 -0.04134,0.0413 -0.07355,0.0683 -0.148366,0.13537 -0.223242,0.20258 -0.246063,0.17833 -0.492824,0.35458 -0.742591,0.52761 -0.08116,0.0558 -0.162509,0.11165 -0.244429,0.1664 0.144727,-0.0998 0.115755,-0.0666 0.04961,-0.0258 -0.01482,0.006 -0.03215,0.0161 -0.04961,0.0258 -0.0017,0.001 -0.0035,0.002 -0.0052,0.003 -0.02434,0.014 -0.05023,0.0303 -0.07906,0.0501 -0.505354,0.29448 -0.945488,0.75686 -1.339453,1.17357 -0.342635,0.36222 -0.674092,0.74498 -0.950846,1.16117 -0.01244,0.0185 -0.02477,0.0386 -0.03721,0.0579 -0.01349,0.0185 -0.02915,0.0357 -0.04238,0.0543 -0.05715,0.0796 -0.356729,0.43211 -0.283704,0.5824 0.07541,0.15557 1.573916,-0.85674 1.811776,-1.02475 2.572015,-1.81134 4.727935,-4.24151 6.467306,-6.84713 0.0217,-0.0331 0.0429,-0.0662 0.06459,-0.0987 1.513586,-1.25001 2.882569,-2.68676 3.952731,-4.32687 -0.02712,0.0978 -0.05157,0.19581 -0.08475,0.29353 -0.02487,0.0714 -0.04978,0.14302 -0.07545,0.21445 -0.01693,0.027 -0.03526,0.0531 -0.05219,0.0806 -0.242888,0.38497 -0.486251,0.77519 -0.685747,1.17048 0,0 -0.236996,0.40568 -0.01395,0.22841 0.40296,-0.31936 0.690418,-0.75078 0.976168,-1.12914 0.548216,-0.72654 1.026306,-1.48173 1.488798,-2.235 0.334433,-0.544777 0.636463,-1.10608 0.865063,-1.670701 0.06138,-0.151871 0.219005,-0.524891 0.245463,-0.58601 0.102394,-0.242358 0.190124,-0.484693 0.269234,-0.728638 0.128588,-0.397934 0.241294,-0.795791 0.3421,-1.193725 0.253736,-1.001448 0.486132,-2.043174 0.381887,-3.007051 -0.03863,-0.357717 -0.118727,-0.708257 -0.245462,-1.037663 -0.104511,-0.27014 -0.205613,-0.578921 -0.417546,-0.793233 0.01958,0.03836 0.01449,0.03325 -0.0083,-0.0072 -0.0028,-2.31e-4 -0.0055,1.89e-4 -0.0083,0 0.156119,-0.670818 0.390077,-1.31636 0.65629,-1.948201 0.07964,-0.188119 0.16318,-0.373906 0.245465,-0.560173 0.214577,0.01005 0.442473,-0.01819 0.668692,-0.101802 0.255852,-0.09419 0.470797,-0.240904 0.635103,-0.413412 0.01244,-0.0071 0.02532,-0.01373 0.03617,-0.02325 0.312208,-0.274373 0.636558,-0.533276 0.982369,-0.765845 0.702733,-0.445558 1.490924,-0.753306 2.304253,-0.858345 0.151342,-0.01323 0.302906,-0.02352 0.453719,-0.02325 0.09551,5.29e-4 0.190269,0.0067 0.285255,0.0083 0.06006,5.29e-4 0.0072,-0.0052 0.407209,0.09715 -0.05001,-0.01296 0.532842,0.117707 0.519348,0.07855 -0.01588,-0.04736 -0.04066,-0.07642 -0.06976,-0.12299 0.01349,0.0217 0.02709,0.04367 0.03979,0.06563 -0.124089,-0.213254 -0.361074,-0.335222 -0.576709,-0.452168 -0.399521,-0.216959 -0.848593,-0.383506 -1.286743,-0.523999 -0.626798,-0.201613 -1.262436,-0.371153 -1.9358,-0.410311 -0.407194,-0.02381 -0.826778,-0.01297 -1.236618,0.04444 -1.162844,0.16166 -2.172555,0.749051 -3.073197,1.498616 -0.0082,0.0069 -0.0077,0.01736 -0.01085,0.02635 -0.342635,0.289983 -0.6636,0.623611 -0.958081,0.959631 -0.4826,0.550069 -0.936278,1.12061 -1.271241,1.781804 -0.179916,0.354277 -0.333408,0.729994 -0.450618,1.11311 -0.126206,-0.238125 -0.276576,-0.471061 -0.459403,-0.60203 -0.342636,-0.246063 -0.683787,-0.494911 -1.031979,-0.732772 -2.944018,-2.006335 -5.8923,-3.997379 -8.542631,-6.391858 -0.02699,-0.02461 -0.213692,-0.194861 -0.224275,-0.204122 -0.05477,-0.05053 -0.109058,-0.101645 -0.163298,-0.152445 -0.15388,-0.145197 -0.30769,-0.290532 -0.459296,-0.437904 -0.302949,-0.294746 -0.601903,-0.593817 -0.894003,-0.900204 -0.612246,-0.641879 -1.211804,-1.302643 -1.785421,-1.980241 -0.302683,-0.357452 -0.59847,-0.72094 -0.882633,-1.093474 -0.04895,-0.06376 -0.09706,-0.12793 -0.145211,-0.192753 -0.01402,-0.01905 -0.02666,-0.03639 -0.03566,-0.04909 -0.119857,-0.16854 -0.232486,-0.342429 -0.345199,-0.515731 -0.08652,-0.13335 -0.171132,-0.268151 -0.255798,-0.402559 -0.02222,-0.03836 -0.04871,-0.08416 -0.07597,-0.131259 -0.293423,-0.696118 -0.12306,-0.255955 -0.14211,-0.304374 -0.265112,-0.675746 -0.562822,-1.340933 -0.901754,-1.983341 -0.188118,-0.355865 -0.406309,-0.829448 -0.720369,-1.103292 -0.272256,-0.237331 -0.151234,0.343421 -0.147795,0.375171 0.0013,0.01032 0.002,0.01504 0.0031,0.02377 -7.93e-4,0.130704 0.0068,0.260776 0.02481,0.390157 0.03307,0.216694 0.06887,0.433722 0.117823,0.647505 2.34e-4,0.001 2.91e-4,0.0021 5.29e-4,0.0031 -0.04502,-0.02818 -0.08952,-0.05716 -0.135393,-0.08423 0.02699,0.01561 0.05339,0.03141 0.07958,0.04702 -0.422274,-0.268286 -0.857295,-0.516564 -1.276924,-0.789614 -0.664104,-0.442384 -1.281662,-0.94214 -1.840198,-1.512053 -0.238918,-0.243416 -0.47109,-0.496185 -0.677994,-0.767912 -0.05107,-0.06773 -0.100687,-0.136086 -0.148312,-0.205672 -0.139184,-0.397688 -0.272257,-0.83454 -0.496624,-1.189611 -0.01746,-0.01773 -0.03498,-0.03602 -0.05271,-0.05374 z M 48.89474,108.85945 c 0.0024,0.002 -0.02598,0.0107 -0.06408,0.0181 -0.0164,5.3e-4 -0.03595,0.004 -0.05633,0.007 0.0852,-0.0213 0.118025,-0.0266 0.120406,-0.0248 z" />
  </g>
</svg>
