<svg width="33.5mm" height="43.5mm" version="1.1" viewBox="0 0 33.5 43.5" xmlns="http://www.w3.org/2000/svg"><g transform="translate(-37.7 -69.7)"><path d="m38.7 69.7c-0.0103 0.692 0.257 1.35 0.449 2.01 0.257 0.75 0.51 1.51 0.888 2.21-0.483-0.309-0.946-0.67-1.24-1.17-0.344-0.416-0.654-0.89-1.13-1.17-0.0484-0.0327 0.179 0.646 0.309 0.921 0.625 1.37 1.46 2.66 2.57 3.7-0.42-0.231-0.868-0.451-1.21-0.789-0.26-0.336-0.491-0.719-0.847-0.959 0.197 0.663 0.647 1.22 1.03 1.78 0.776 1.08 1.6 2.19 2.82 2.8 0.789 0.415 1.58 0.842 2.43 1.12-0.94-0.0254-1.9-0.31-2.65-0.898-0.503-0.433-0.992-0.931-1.62-1.17-0.053-0.0198 0.309 0.597 0.492 0.838 1.08 1.45 2.44 2.77 4.1 3.53 0.182 0.0846 0.638 0.225 0.19 0.124-0.763-0.154-1.52-0.363-2.22-0.704-0.342-0.293-0.66-0.646-1.08-0.824 0.325 0.611 0.878 1.06 1.36 1.54 0.976 0.898 2.01 1.82 3.32 2.18 0.628 0.185 1.26 0.365 1.9 0.498-1.12 0.197-2.36 0.134-3.35-0.471-0.197-0.113-0.611-0.569-0.727-0.428 0.0134 0.264 0.587 0.996 0.976 1.35 1.03 1.02 2.25 1.94 3.69 2.24 0.284 0.0893 0.886 0.0895 0.986 0.124-0.855 0.231-1.8 0.324-2.64-5.4e-5 -0.239-0.151-0.867-0.343-0.74-0.222 0.309 0.552 0.911 0.855 1.43 1.19 1.15 0.675 2.43 1.23 3.79 1.23-1.04 0.363-2.13 0.616-3.23 0.625-0.436-0.115-0.877-0.294-1.33-0.269 0.559 0.408 1.25 0.572 1.9 0.793 1.24 0.369 2.53 0.751 3.84 0.524 0.23-0.00265 0.773-0.178 0.807-0.104-0.743 0.613-1.65 1.12-2.63 1.15-0.278-0.0511-0.931 0.00897-0.769 0.0721 0.494 0.396 1.17 0.45 1.77 0.565 1.02 0.134 2.07 0.217 3.07-0.0201-0.661 0.682-1.49 1.28-2.45 1.42-0.205 0.0382-1.14 0.00885-0.58 0.27 0.965 0.317 2.01 0.266 3.01 0.207 0.268 0.025 0.935-0.202 0.922-0.0747-0.633 0.659-1.34 1.26-2.15 1.7-0.434 0.104-0.902 0.153-1.29 0.386 0.714 0.084 1.43-0.103 2.13-0.222 0.938-0.204 1.9-0.379 2.76-0.834-0.222 0.466-0.651 0.801-1.04 1.13-0.475 0.362-1.03 0.652-1.63 0.71-0.263-8.59e-4 -0.551 0.204-0.421 0.177 0.566 0.283 1.23 0.195 1.85 0.181 0.386-0.096 0.558-0.0373 0.361 0.347-0.163 0.602-0.275 1.22-0.365 1.83-1.55 2.14-3.71 3.81-6.1 4.93-1.03 0.473-2.12 0.785-3.23 1-0.28 0.0356-1.21 0.383-0.578 0.601 0.839 0.143 1.7 0.00248 2.54-0.121 1.76-0.297 3.48-0.866 5.08-1.65-1.25 1.22-2.66 2.33-4.29 2.98-0.807 0.255-1.67 0.333-2.43 0.714-0.819 0.376-1.63 0.805-2.32 1.38-0.11 0.372 0.646 0.0533 0.873 0.0628 2.91-0.569 5.65-1.83 8.15-3.42-0.648 0.967-1.37 1.93-2.37 2.56-0.0839 0.0637-0.517 0.349-0.281 0.198-0.885 0.507-1.56 1.3-2.2 2.07-0.178 0.354-0.677 0.695-0.607 1.09 0.582-0.185 1.07-0.589 1.59-0.908 2.7-1.86 4.92-4.36 6.73-7.08 1.51-1.25 2.88-2.68 3.95-4.33-0.121 0.636-0.599 1.11-0.86 1.68-0.167 0.211-0.188 0.507 0.0941 0.178 0.694-0.717 1.24-1.57 1.79-2.39 0.623-0.952 1.2-1.94 1.6-3.01 0.486-1.19 0.803-2.45 1-3.73 0.15-1.04 0.00974-2.15-0.558-3.05-0.212-0.167 0.113-0.656 0.155-0.959 0.185-0.56 0.414-1.1 0.656-1.64 0.595 0.052 1.11-0.294 1.52-0.691 1.07-0.935 2.48-1.6 3.92-1.48 0.319 0.0962 1.15 0.303 0.708-0.0362-0.748-0.573-1.69-0.823-2.58-1.07-1.49-0.379-3.15-0.19-4.45 0.666-1.16 0.722-2.09 1.76-2.86 2.88-0.346 0.527-0.61 1.11-0.797 1.71-0.271-0.619-0.922-0.896-1.43-1.29-3.88-2.64-7.82-5.29-11-8.8-1.06-1.18-2.15-2.36-2.93-3.76-0.0761-0.196-0.155-0.342-0.141-0.306-0.391-0.959-0.813-1.92-1.38-2.79-0.125-0.275-0.523-0.425-0.383 0.0319-0.0351 0.326 0.202 1.01 0.0955 1.13-0.151-0.106-0.926-0.557-1.33-0.826-0.985-0.673-1.9-1.47-2.6-2.44-0.158-0.42-0.267-0.887-0.549-1.24zm10.2 39.2c-0.152 0.0481-0.169 0.0199 0 0z" stroke-width=".265"/></g></svg>
