<?xml version="1.0" encoding="UTF-8"?>
<svg version="1.0" viewBox="0 0 48 48" xmlns="http://www.w3.org/2000/svg">
 <path d="m23.6 0.342c-1.48-0.00296-2.95 0.536-4.01 1.62l-17.7 18.1c-5.98 7.41 4.07 6.54 8.38 8.68 1.55 1.58-5.92 2.75-4.38 4.33 1.55 1.58 9.35 3.04 10.9 4.62 1.55 1.58-3.16 3.26-1.62 4.84 1.55 1.58 5.12 0.0831 5.79 3.73 0.477 2.61 6.44 1.12 9.36-1.01 1.55-1.58-2.96-1.43-1.41-3.01 3.84-3.93 7.42-1.43 8.74-5.37 0.65-1.95-5.66-3-4.11-4.58 4.45-2.6 19.8-4.29 12.5-11.6l-18.3-18.8c-1.12-1.08-2.62-1.62-4.1-1.62zm0.159 1.72c1.06 0.0056 2.11 0.402 2.87 1.17l7 7.11c0.664 0.679 0.655 1.99 0.283 2.37l-3.48-2.78-0.684 4.12-2.91-1.53-4.65 2.94-1.54-6.2-2.5 4.32h-3.82c-1.56 0-1.74-1.98-0.326-3.39 2.47-2.67 5.31-5.39 6.85-6.96 0.775-0.792 1.84-1.18 2.9-1.17zm-8.41 27.7c0.473 0.294 7.63 1.75 9.38 2.04 0.606 0.128 0.177 0.752-0.659 1.17-1.88 0.501-11-3.21-8.72-3.21zm27.8 4.98c-1.44 0.0496-2.86 0.785-3.25 2.16 0 0.899 6.62 1.49 6.62-0.212-0.472-1.36-1.93-2-3.37-1.95zm-30.6 3.9c-2.01 0.107-4.16 1.56-2.45 3.04 1.57 1.36 3.99-0.337 4.72-2.23-0.475-0.631-1.36-0.86-2.27-0.812zm26.5 0.112c-2.02 1.81 0.227 3.65 2.22 2.48 0.444-0.451-0.0118-2.03-2.22-2.48z" stroke-width=".132"/>
</svg>
