<?xml version="1.0" encoding="UTF-8" standalone="no"?>
<svg
   version="1.1"
   viewBox="0 0 32 32.000023"
   id="svg4"
   width="32"
   height="32.000023"
   xmlns="http://www.w3.org/2000/svg"
   xmlns:svg="http://www.w3.org/2000/svg">
  <defs
     id="defs8" />
  <path
     d="m -1.3428911,0.00302973 c -1.074948,0.00669 -1.8774806,0.010483 -2.4480816,0.016673 -0.5693848,0.00617 -0.8753354,0.00627 -1.0753732,0.025009 -0.020803,0.00195 -0.056822,0.00923 -0.097255,0.016673 -0.01223,0.00228 -0.055674,0.00898 -0.097255,0.02223 0.052187,-0.016639 -0.020769,-0.00204 -0.091693,0.030565 -0.070932,0.032605 -0.1349915,0.08173 -0.1945095,0.1389378 -0.096175,0.092407 -0.2076072,0.2458203 -0.2222954,0.477939 -0.015462,0.2424863 0.074436,0.40073037 0.1778397,0.51962197 0.058259,0.066992 0.1230335,0.1267756 0.1972822,0.1667321 0.074249,0.039951 0.1539151,0.061687 0.094482,0.038902 0.072743,0.02788 0.1649972,0.041063 0.152835,0.038902 0.1071121,0.019047 0.2067142,0.028127 0.3473446,0.038902 0.288796,0.022133 0.7470799,0.046685 1.3588451,0.083363 5.9924583,0.3593452 9.8743143,0.9765451 13.2048753,1.8478832 -5.764779,0.2617841 -10.50028268,0.6594528 -14.4346995,1.375515 -1.2852768,0.2338537 -2.0478358,0.3765762 -2.5147607,0.4890549 -0.226335,0.054538 -0.3981453,0.097765 -0.5752023,0.1889473 -0.03241,0.016692 -0.287095,0.1613825 -0.391801,0.4056974 -0.07879,0.1838272 -0.08655,0.3393158 -0.02501,0.5307465 0.04786,0.1486335 0.138683,0.2609592 0.19172,0.3139879 0.06494,0.064927 0.13887,0.1164506 0.213961,0.1500624 0.07509,0.033599 0.146507,0.048616 0.11116,0.038902 0.05207,0.014496 0.103676,0.020345 0.119478,0.022229 0.0019,1.3e-5 0.0037,1.3e-5 0.0055,0 0.05007,0.0058 0.09383,0.00786 0.12504,0.00833 0.07081,6.347e-4 0.142119,-0.0035 0.225068,-0.00833 0.168314,-0.00951 0.387633,-0.029965 0.6529979,-0.055574 0.5309351,-0.051251 1.2411628,-0.1291573 2.0146083,-0.2278664 4.02984302,-0.5142298 7.8117653,-0.8544131 10.9927233,-0.9892175 0.701918,-0.029761 1.601153,-0.00128 2.456501,0 -3.196777,0.8209799 -6.815488,2.0052255 -9.48648578,3.3262235 -1.01464752,0.501634 -2.00446042,1.0591292 -2.73988842,1.5255432 -0.3672718,0.232927 -0.6687828,0.437864 -0.8975335,0.625212 -0.110293,0.09035 -0.2170223,0.184253 -0.3139879,0.308443 -0.035755,0.04578 -0.1220554,0.166451 -0.1639426,0.313988 -0.037813,0.133239 -0.032795,0.240419 -0.00842,0.364014 0.024528,0.123595 0.074946,0.263919 0.2000633,0.389019 0.099772,0.09978 0.2206539,0.169879 0.3390096,0.197282 0.1183557,0.02744 0.2416953,0.01366 0.183402,0.01394 0.067708,-3.75e-4 0.1381383,-0.01187 0.1500624,-0.01394 v -0.0028 c 0.058106,-0.0116 0.1076989,-0.02312 0.1389463,-0.03334 0.074011,-0.02425 0.1507938,-0.05493 0.2417548,-0.09169 0.1827046,-0.07387 0.423711,-0.179404 0.7169212,-0.311215 0.583265,-0.262226 1.3716027,-0.630731 2.22584572,-1.04484 l 0.011096,-0.0056 C 4.6314991,9.0772818 8.7691011,7.5337928 14.53975,7.2472588 c 0.05795,0.128519 0.111152,0.242342 0.17784,0.400135 v 0.0028 l 0.427929,0.980883 c -2.355802,1.6788032 -3.283359,4.2673882 -2.820432,6.6243812 0.485144,2.470619 2.387102,4.656151 5.299047,5.143403 0.746025,0.12186 1.587374,0.195369 2.545464,0.233403 4.944981,-0.202351 7.669731,4.119401 9.214325,7.913825 0.180919,0.494413 0.337513,0.973994 0.4446,1.367095 0.105981,0.389053 0.158261,0.749904 0.158397,0.794717 5.04e-4,0.218162 0.02511,0.430515 0.09169,0.630774 0.03098,0.09316 0.08507,0.219956 0.177839,0.339009 0.107963,0.138572 0.322374,0.32234 0.64189,0.32234 0.250583,0 0.416567,-0.09193 0.558524,-0.238974 0.102962,-0.106661 0.161425,-0.231191 0.186175,-0.297318 0.05512,-0.147298 0.06713,-0.284603 0.07502,-0.394572 0.01709,-0.237911 0.0045,-0.50587 -0.025,-0.811387 -0.05929,-0.613517 -0.191329,-1.38504 -0.383466,-2.156274 -0.471288,-1.891599 -1.545275,-4.316207 -2.87044,-5.926971 2.118513,0.609716 4.036307,2.912881 4.570932,4.484776 0.0498,0.146252 0.129106,0.318989 0.266759,0.466823 0.05761,0.06181 0.204486,0.192911 0.400135,0.244536 0.152036,0.04012 0.272322,0.02364 0.391801,-0.0084 0.119504,-0.03192 0.237587,-0.0793 0.350117,-0.191737 0.260559,-0.260559 0.246483,-0.659767 0.241755,-0.730801 -0.01,-0.157181 -0.04075,-0.306435 -0.08058,-0.458497 -0.08066,-0.308357 -0.205796,-0.66089 -0.361242,-1.036505 -0.310654,-0.750601 -0.726166,-1.574447 -1.150387,-2.150746 -1.540087,-2.092062 -4.664062,-3.711076 -8.172208,-4.43196 -0.849641,-0.174599 -2.707739,-0.461269 -4.293158,-0.461269 0.04768,0 -0.114537,-0.0042 -0.277867,-0.01667 -0.16333,-0.0124 -0.375164,-0.03413 -0.602996,-0.0528 -0.455648,-0.03735 -0.966424,-0.07924 -1.236543,-0.102817 -2.541467,-0.221921 -3.631724,-2.082111 -3.534512,-3.920894 0.09723,-1.838698 1.383085,-3.601191 3.987488,-3.601191 0.782044,0 1.205245,0.03164 1.906143,0.233403 0.698431,0.20105 1.676082,0.590069 3.370619,1.308751 0.734876,0.311734 1.149452,0.518006 1.297695,0.619666 0.186123,0.127627 0.07463,-0.01808 0.136148,0.188948 0.05111,0.171954 0.03763,0.646848 0.425157,1.008694 0.241942,0.225961 0.513498,0.308995 0.830837,0.444599 0.313843,0.134107 0.641048,0.270765 0.805841,0.361242 0.69491,0.406964 0.967955,0.585374 1.56169,1.361566 0.160285,0.210891 0.477011,0.2122 0.639108,0.0028 0.623503,-0.80465 0.72108,-0.726727 1.517124,-0.992024 0.414058,-0.134549 0.349734,-0.739179 -0.08336,-0.783609 -0.464416,-0.05184 -1.111009,-0.35448 -1.483869,-0.636328 -0.0973,-0.07355 -0.102511,-0.09111 -0.152835,-0.147281 0.128077,-0.166766 0.10627,-0.403971 -0.05003,-0.544627 -0.277765,-0.24906 -0.477888,-0.632083 -0.644663,-1.003165 -0.03973,-0.0884 -0.07887,-0.168093 -0.116705,-0.252863 -7.07e-4,-0.0023 -0.002,-0.0033 -0.0028,-0.0056 -0.02191,-0.06779 -0.04827,-0.127201 -0.07225,-0.175067 -0.0097,-0.01943 -0.02561,-0.03906 -0.03612,-0.05836 -0.0063,-0.01227 -0.0104,-0.02686 -0.01667,-0.03889 -0.03748,-0.07108 -0.08121,-0.143309 -0.130603,-0.211179 -5.49e-4,-0.0011 -0.0023,-0.0017 -0.0028,-0.0028 l -0.0028,-0.0056 c -0.01267,-0.02634 -0.02373,-0.05284 -0.03889,-0.07781 -0.04809,-0.07915 -0.10855,-0.165014 -0.183385,-0.26118 -0.08474,-0.102927 -0.185086,-0.193455 -0.272322,-0.294545 C 26.639367,8.2748548 24.745897,6.57768 22.667358,5.3213202 22.493303,5.2168191 22.341038,5.1310886 22.181076,5.0684578 c -0.06028,-0.023589 -0.186473,-0.070524 -0.336237,-0.075025 -0.07054,-0.00211 -0.231804,0.00872 -0.380685,0.091701 -0.204834,0.1139757 -0.301519,0.2526583 -0.347344,0.4723852 -0.0068,0.032385 0.0035,0.06126 0.0028,0.094474 -0.0024,0.010083 -0.0155,0.018167 -0.01667,0.027787 -0.0076,0.061114 0.0092,0.071671 0.01944,0.1028171 0.01657,0.1102164 0.04164,0.1988896 0.03612,0.1861746 l 0.0028,0.00277 c 0.02392,0.05388 0.05712,0.1055556 0.06669,0.1194868 0.03035,0.04412 0.06186,0.079964 0.07502,0.094474 h 0.0028 c 0.03865,0.042441 0.07549,0.080892 0.116705,0.1194869 0.08467,0.079109 0.193005,0.1740125 0.325121,0.286202 l 0.0084,0.00556 0.0056,0.00556 c 1.445341,1.1038644 2.994273,2.4691734 4.056889,3.6011906 C 20.224413,6.263903 16.523459,9.4709968 15.979139,4.5321983 V 2.9622588 C 15.979306,2.7965302 15.877852,2.6476586 15.723572,2.5871369 L 14.364726,2.0536178 C 10.35674,0.48019133 6.2469501,-0.04431257 -1.3397724,0.00289023 Z"
     stroke-width="1.33376"
     id="path2" />
</svg>
