<?xml version="1.0" encoding="UTF-8" standalone="no"?>
<svg
   version="1.1"
   viewBox="0 0 32 32"
   id="svg374"
   xmlns="http://www.w3.org/2000/svg"
   xmlns:svg="http://www.w3.org/2000/svg">
  <defs
     id="defs378" />
  <path
     d="m 5.0048764,4.0062706 c -0.8059422,0.00502 -1.407641,0.00786 -1.8354491,0.012501 -0.4268963,0.00463 -0.6562828,0.0047 -0.8062611,0.018751 -0.015597,0.00146 -0.042602,0.00692 -0.072917,0.012501 -0.00917,0.00171 -0.041741,0.00673 -0.072917,0.016667 0.039127,-0.012475 -0.015572,-0.00153 -0.068747,0.022916 -0.053181,0.024445 -0.1012098,0.061277 -0.1458335,0.1041686 -0.072107,0.069282 -0.1556535,0.1843038 -0.166666,0.3583347 -0.011593,0.1818041 0.055808,0.3004477 0.1333354,0.3895866 0.04368,0.050228 0.092244,0.09505 0.1479123,0.1250075 0.055668,0.029953 0.1153978,0.04625 0.070838,0.029167 0.054539,0.020903 0.1237066,0.030787 0.114588,0.029167 0.080307,0.01428 0.154984,0.021088 0.2604216,0.029167 C 2.7797058,5.1708 3.1233041,5.189207 3.5819751,5.216706 8.074821,5.4861249 10.985242,5.9488706 13.482331,6.6021563 9.1601872,6.798429 5.6097434,7.0965811 2.6599144,7.6334489 c -0.9636363,0.175332 -1.5353649,0.282338 -1.88544187,0.366669 -0.1696949,0.04089 -0.2985092,0.0733 -0.4312579,0.141663 -0.024301,0.01252 -0.2152495,0.120997 -0.2937522,0.304172 -0.059073,0.137824 -0.064888,0.254402 -0.018754,0.397927 0.035881,0.111438 0.1039773,0.195654 0.143742,0.235412 0.048686,0.04868 0.1041176,0.08731 0.1604168,0.11251 0.056299,0.02519 0.1098439,0.03645 0.083343,0.02917 0.039038,0.01087 0.077731,0.01525 0.089579,0.01667 0.0014,10e-6 0.00281,10e-6 0.00414,0 0.037539,0.0043 0.070347,0.0059 0.093749,0.0062 0.053085,4.76e-4 0.1065535,-0.0026 0.1687448,-0.0062 0.1261935,-0.0071 0.29062757,-0.02247 0.48958487,-0.04167 0.3980483,-0.03843 0.9305416,-0.09684 1.5104323,-0.170842 3.0213748,-0.385544 5.8568708,-0.640597 8.2417938,-0.741666 0.526264,-0.02231 1.200465,-9.57e-4 1.841762,0 -2.396783,0.615529 -5.109912,1.503418 -7.1124926,2.4938361 -0.760732,0.3761 -1.5028442,0.794082 -2.0542314,1.143776 -0.275362,0.174637 -0.5014199,0.328288 -0.6729257,0.468752 -0.082692,0.06774 -0.1627125,0.138144 -0.2354124,0.231255 -0.026807,0.03433 -0.091511,0.124797 -0.122916,0.235413 -0.02835,0.0999 -0.024588,0.180254 -0.00631,0.272919 0.01839,0.09267 0.056191,0.197874 0.1499974,0.291668 0.074804,0.07481 0.1654353,0.127366 0.2541725,0.147912 0.088737,0.02057 0.1812111,0.01024 0.1375057,0.01045 0.050764,-2.81e-4 0.1035692,-0.0089 0.1125092,-0.01045 v -0.0021 c 0.043565,-0.0087 0.080747,-0.01733 0.104175,-0.025 0.055489,-0.01818 0.1130577,-0.04119 0.1812557,-0.06875 0.1369828,-0.05538 0.3176773,-0.134509 0.5375117,-0.233334 0.4373029,-0.196604 1.0283591,-0.472891 1.6688278,-0.783369 l 0.00832,-0.0042 C 9.4841765,10.809674 12.586343,9.6524439 16.912886,9.4376149 c 0.04345,0.09636 0.08334,0.181696 0.133336,0.300001 v 0.0021 l 0.32084,0.7354171 c -1.766263,1.258683 -2.461698,3.199474 -2.114618,4.966629 0.363736,1.852348 1.789729,3.49095 3.972959,3.856267 0.559333,0.09136 1.190134,0.146478 1.908462,0.174994 3.7075,-0.151713 5.750381,3.088521 6.908441,5.933391 0.135643,0.370686 0.25305,0.730251 0.333338,1.024979 0.07946,0.291693 0.118656,0.56224 0.118758,0.595839 3.78e-4,0.163567 0.01883,0.322778 0.06875,0.472922 0.02323,0.06985 0.06378,0.164913 0.133335,0.254173 0.08094,0.103894 0.2417,0.241674 0.481257,0.241674 0.187875,0 0.312321,-0.06893 0.418753,-0.17917 0.0772,-0.07997 0.121029,-0.173336 0.139585,-0.222915 0.04133,-0.110436 0.05033,-0.213381 0.05625,-0.295831 0.01281,-0.178373 0.0034,-0.379275 -0.01875,-0.608336 -0.04445,-0.459985 -0.143449,-1.038435 -0.287503,-1.616667 -0.353349,-1.418227 -1.15857,-3.236076 -2.152113,-4.443746 1.588355,0.457134 3.026221,2.183932 3.427056,3.36246 0.03734,0.109653 0.0968,0.239162 0.200003,0.350001 0.04319,0.04635 0.153313,0.144635 0.300001,0.183341 0.113989,0.03008 0.204174,0.01773 0.293752,-0.0063 0.0896,-0.02393 0.178132,-0.05946 0.262501,-0.143755 0.195354,-0.195354 0.184801,-0.494661 0.181255,-0.547918 -0.0075,-0.117847 -0.03055,-0.22975 -0.06042,-0.343758 -0.06048,-0.231191 -0.154295,-0.495502 -0.270841,-0.77712 -0.232913,-0.562763 -0.544443,-1.180442 -0.862503,-1.612522 -1.15468,-1.568523 -3.49688,-2.782379 -6.127112,-3.322862 -0.637019,-0.130906 -2.030128,-0.345836 -3.218796,-0.345836 0.03575,0 -0.08587,-0.0031 -0.20833,-0.0125 -0.122457,-0.0093 -0.28128,-0.02559 -0.452097,-0.03959 -0.341622,-0.028 -0.724577,-0.05941 -0.927098,-0.07709 -1.905465,-0.166385 -2.722885,-1.561062 -2.65,-2.93969 0.0729,-1.378563 1.036967,-2.699992 2.989619,-2.699992 0.586337,0 0.903632,0.02372 1.42913,0.174993 0.523649,0.150738 1.256643,0.442405 2.527122,0.981236 0.550973,0.233723 0.861802,0.388375 0.972947,0.464595 0.139546,0.09569 0.05596,-0.01356 0.102077,0.141663 0.03832,0.128923 0.02821,0.484975 0.318761,0.756269 0.181396,0.169414 0.384995,0.231669 0.62292,0.333338 0.235304,0.100547 0.480626,0.203006 0.60418,0.270841 0.521008,0.305122 0.725724,0.438884 1.170876,1.020835 0.120174,0.158114 0.35764,0.159096 0.479172,0.0021 0.467471,-0.603287 0.54063,-0.544864 1.137463,-0.74377 0.31044,-0.100879 0.262214,-0.5542 -0.0625,-0.587511 -0.348196,-0.03887 -0.832979,-0.265772 -1.112531,-0.477087 -0.07295,-0.05514 -0.07686,-0.06831 -0.114588,-0.110424 0.09603,-0.125033 0.07968,-0.302877 -0.03751,-0.408334 -0.208254,-0.186733 -0.358296,-0.473904 -0.483336,-0.752123 -0.02979,-0.06628 -0.05913,-0.126028 -0.0875,-0.189584 -5.3e-4,-0.0017 -0.0015,-0.0025 -0.0021,-0.0042 -0.01643,-0.05083 -0.03619,-0.09537 -0.05417,-0.131257 -0.0073,-0.01457 -0.0192,-0.02928 -0.02708,-0.04376 -0.0047,-0.0092 -0.0078,-0.02014 -0.0125,-0.02916 -0.0281,-0.05329 -0.06089,-0.107446 -0.09792,-0.158331 -4.12e-4,-8.29e-4 -0.0017,-0.0013 -0.0021,-0.0021 l -0.0021,-0.0042 c -0.0095,-0.01975 -0.01779,-0.03962 -0.02916,-0.05834 -0.03605,-0.05934 -0.08139,-0.123719 -0.137493,-0.19582 -0.06353,-0.07717 -0.138768,-0.145043 -0.204173,-0.220835 -1.124264,-1.477147 -2.543893,-2.7496031 -4.102277,-3.6915591 -0.130498,-0.07835 -0.244659,-0.142626 -0.36459,-0.189584 -0.04519,-0.01769 -0.139808,-0.05288 -0.252094,-0.05625 -0.05289,-0.0016 -0.173795,0.0065 -0.285418,0.06875 -0.153575,0.08545 -0.226064,0.189431 -0.260422,0.354171 -0.0051,0.02428 0.0026,0.04593 0.0021,0.07083 -0.0018,0.0076 -0.01162,0.01362 -0.0125,0.02083 -0.0057,0.04582 0.0069,0.05374 0.01458,0.07709 0.01242,0.08263 0.03122,0.149117 0.02708,0.139584 l 0.0021,0.0021 c 0.01793,0.0404 0.04283,0.07914 0.05,0.08959 0.02275,0.03308 0.04638,0.05995 0.05625,0.07083 h 0.0021 c 0.02898,0.03182 0.0566,0.06065 0.0875,0.08958 0.06348,0.05931 0.144705,0.130466 0.243759,0.21458 l 0.0063,0.0042 0.0042,0.0042 c 1.083644,0.827622 2.244956,1.8512631 3.041652,2.6999921 -4.194228,-2.9537191 -6.969018,-0.5492 -7.377123,-4.2520641 V 6.2249526 C 17.992193,6.1006976 17.91613,5.9890811 17.800456,5.943705 L 16.781662,5.543699 C 13.776675,4.3640225 10.69536,3.9707757 5.0072147,4.006166 Z"
     stroke-width="0.999983"
     id="path372" />
</svg>
