<svg version="1.1" viewBox="0 0 32 32" xmlns="http://www.w3.org/2000/svg"><path d="m-7.347 0.0035623c-1.2639 0.00787-2.2075 0.012326-2.8784 0.019604-0.66947 0.00726-1.0292 0.00737-1.2644 0.029405-0.02446 0.00229-0.06681 0.010852-0.11435 0.019604-0.01438 0.00268-0.06546 0.010554-0.11435 0.026137 0.06136-0.019564-0.02442-0.0024-0.10781 0.035938-0.0834 0.038336-0.15872 0.096096-0.2287 0.16336-0.11308 0.10865-0.2441 0.28903-0.26137 0.56195-0.01818 0.28511 0.08752 0.47117 0.2091 0.61096 0.0685 0.078768 0.14466 0.14906 0.23196 0.19604 0.0873 0.046973 0.18097 0.07253 0.11109 0.04574 0.08553 0.032781 0.194 0.048281 0.1797 0.04574 0.12594 0.022395 0.24305 0.033071 0.4084 0.04574 0.33956 0.026024 0.8784 0.054891 1.5977 0.098016 7.0458 0.42251 11.61 1.1482 15.526 2.1727-6.7781 0.3078-12.346 0.77537-16.972 1.6173-1.5112 0.27496-2.4078 0.44277-2.9568 0.57502-0.26612 0.064124-0.46813 0.11495-0.67631 0.22216-0.03811 0.019626-0.33756 0.18975-0.46067 0.47701-0.09264 0.21614-0.10176 0.39896-0.02941 0.62404 0.05627 0.17476 0.16306 0.30683 0.22542 0.36918 0.07635 0.07634 0.16328 0.13692 0.25157 0.17644 0.08829 0.039505 0.17226 0.057162 0.1307 0.04574 0.06122 0.017044 0.1219 0.023921 0.14048 0.026137 0.0022 1.52e-5 0.0044 1.52e-5 0.0065 0 0.05887 0.00682 0.11032 0.00924 0.14702 0.0098 0.08325 7.462e-4 0.1671-0.00412 0.26463-0.0098 0.1979-0.011181 0.45577-0.035232 0.76778-0.065343 0.62423-0.06026 1.4593-0.15186 2.3687-0.26792 4.7382-0.60462 9.1849-1.0046 12.925-1.1631 0.8253-0.034992 1.8826-0.0015 2.8883 0-3.7587 0.96529-8.0135 2.3577-11.154 3.9109-1.193 0.58981-2.3568 1.2453-3.2215 1.7937-0.43183 0.27387-0.78634 0.51483-1.0553 0.73511-0.12968 0.10623-0.25517 0.21664-0.36918 0.36266-0.04204 0.05383-0.14351 0.19571-0.19276 0.36918-0.04446 0.15666-0.03856 0.28268-0.0099 0.428 0.02884 0.14532 0.08812 0.31031 0.23523 0.4574 0.11731 0.11732 0.25944 0.19974 0.3986 0.23196 0.13916 0.03226 0.28418 0.01606 0.21564 0.01639 0.07961-4.41e-4 0.16242-0.01396 0.17644-0.01639v-0.0033c0.06832-0.01364 0.12663-0.02718 0.16337-0.0392 0.08702-0.02851 0.1773-0.06459 0.28425-0.10781 0.21482-0.08685 0.49819-0.21094 0.84294-0.36592 0.68579-0.30832 1.6127-0.7416 2.6171-1.2285l0.013047-0.0066c5.7651-2.5759 10.63-4.3907 17.415-4.7276 0.06814 0.15111 0.13069 0.28494 0.2091 0.47047v0.00329l0.50315 1.1533c-2.7699 1.9739-3.8605 5.0175-3.3162 7.7888 0.57042 2.9049 2.8067 5.4746 6.2305 6.0475 0.87716 0.14328 1.8664 0.22971 2.9929 0.27443 5.8142-0.23792 9.0179 4.8435 10.834 9.3049 0.21272 0.58132 0.39684 1.1452 0.52275 1.6074 0.12461 0.45744 0.18608 0.88172 0.18624 0.93441 5.92e-4 0.25651 0.02953 0.50619 0.10781 0.74165 0.03643 0.10954 0.10003 0.25862 0.2091 0.3986 0.12694 0.16293 0.37904 0.379 0.75472 0.379 0.29463 0 0.48979-0.10809 0.6567-0.28098 0.12106-0.12541 0.1898-0.27183 0.2189-0.34958 0.06481-0.17319 0.07893-0.33463 0.08821-0.46393 0.02009-0.27973 0.0053-0.59479-0.0294-0.95401-0.06971-0.72136-0.22496-1.6285-0.45087-2.5353-0.55413-2.2241-1.8169-5.0749-3.375-6.9688 2.4909 0.71689 4.7458 3.4249 5.3744 5.2731 0.05856 0.17196 0.1518 0.37506 0.31365 0.54888 0.06774 0.07268 0.24043 0.22682 0.47047 0.28752 0.17876 0.04717 0.32019 0.0278 0.46067-0.0099 0.14051-0.03753 0.27935-0.09324 0.41166-0.22544 0.30636-0.30636 0.28981-0.77574 0.28425-0.85926-0.01176-0.18481-0.04791-0.3603-0.09475-0.53909-0.09484-0.36256-0.24197-0.77706-0.42474-1.2187-0.36526-0.88254-0.85381-1.8512-1.3526-2.5288-1.8108-2.4598-5.4839-4.3634-9.6087-5.211-0.99899-0.20529-3.1837-0.54235-5.0478-0.54235 0.05606 0-0.13467-0.0049-0.32671-0.0196-0.19204-0.01458-0.44111-0.04013-0.70899-0.06208-0.53574-0.04391-1.1363-0.09317-1.4539-0.12089-2.9882-0.26093-4.2701-2.4481-4.1558-4.6101 0.11432-2.1619 1.6262-4.2342 4.6884-4.2342 0.91951 0 1.4171 0.0372 2.2412 0.27443 0.8212 0.23639 1.9707 0.69379 3.9631 1.5388 0.86405 0.36653 1.3515 0.60906 1.5258 0.72859 0.21884 0.15006 0.08775-0.02126 0.16008 0.22216 0.06009 0.20218 0.04424 0.76055 0.49989 1.186 0.28447 0.26568 0.60376 0.36331 0.97688 0.52275 0.36901 0.15768 0.75373 0.31836 0.94749 0.42474 0.81706 0.4785 1.1381 0.68827 1.8362 1.6009 0.18846 0.24796 0.56086 0.2495 0.75145 0.0033 0.7331-0.94609 0.84783-0.85447 1.7838-1.1664 0.48684-0.1582 0.41121-0.86911-0.09801-0.92135-0.54605-0.06095-1.3063-0.41679-1.7447-0.74818-0.1144-0.08648-0.12053-0.10712-0.1797-0.17317 0.15059-0.19608 0.12495-0.47498-0.05882-0.64036-0.32659-0.29284-0.56189-0.74319-0.75798-1.1795-0.04671-0.10394-0.09273-0.19764-0.13722-0.29731-8.31e-4 -0.0027-0.0024-0.0039-0.0033-0.0066-0.02576-0.07971-0.05675-0.14956-0.08495-0.20584-0.01145-0.02285-0.03011-0.04592-0.04247-0.06862-0.0074-0.01443-0.01223-0.03158-0.0196-0.04573-0.04407-0.08357-0.09549-0.1685-0.15356-0.2483-6.46e-4 -0.0013-0.0027-2e-3 -0.0033-0.0033l-0.0033-0.0066c-0.0149-0.03097-0.0279-0.06213-0.04573-0.09149-0.05654-0.09306-0.12763-0.19402-0.21562-0.30709-0.09963-0.12102-0.21762-0.22746-0.32019-0.34632-1.7631-2.3165-3.9894-4.312-6.4333-5.7892-0.20465-0.12287-0.38368-0.22367-0.57176-0.29731-0.07087-0.027736-0.21925-0.08292-0.39534-0.088213-0.08294-0.00248-0.27255 0.010256-0.4476 0.10782-0.24084 0.13401-0.35452 0.29707-0.4084 0.55542-8e-3 0.038078 0.0041 0.072028 0.0033 0.11108-0.0028 0.011855-0.01822 0.02136-0.0196 0.032671-0.0089 0.071857 0.01082 0.084269 0.02286 0.12089 0.01948 0.12959 0.04896 0.23385 0.04247 0.2189l0.0033 0.00326c0.02812 0.063351 0.06716 0.12411 0.07841 0.14049 0.03568 0.051875 0.07273 0.09402 0.08821 0.11108h0.0033c0.04545 0.049901 0.08876 0.095111 0.13722 0.14049 0.09955 0.093015 0.22693 0.2046 0.38227 0.33651l0.0099 0.00654 0.0066 0.00654c1.6994 1.2979 3.5206 2.9032 4.77 4.2342-6.5775-4.6321-10.929-0.86127-11.569-6.6682v-1.8459c1.97e-4 -0.19486-0.11909-0.3699-0.30049-0.44106l-1.5977-0.6273c-4.7125-1.85-9.5447-2.4667-18.465-2.4112z" stroke-width="1.5682"/></svg>
