<?xml version="1.0" encoding="UTF-8" standalone="no"?>
<svg
   xmlns:dc="http://purl.org/dc/elements/1.1/"
   xmlns:cc="http://creativecommons.org/ns#"
   xmlns:rdf="http://www.w3.org/1999/02/22-rdf-syntax-ns#"
   xmlns:svg="http://www.w3.org/2000/svg"
   xmlns="http://www.w3.org/2000/svg"
   xmlns:sodipodi="http://sodipodi.sourceforge.net/DTD/sodipodi-0.dtd"
   xmlns:inkscape="http://www.inkscape.org/namespaces/inkscape"
   viewBox="0 0 22 22"
   version="1.1"
   id="svg6"
   sodipodi:docname="kde-plasma.svg"
   inkscape:version="0.92.5 (2060ec1f9f, 2020-04-08)">
  <metadata
     id="metadata10">
    <rdf:RDF>
      <cc:Work
         rdf:about="">
        <dc:format>image/svg+xml</dc:format>
        <dc:type
           rdf:resource="http://purl.org/dc/dcmitype/StillImage" />
      </cc:Work>
    </rdf:RDF>
  </metadata>
  <sodipodi:namedview
     pagecolor="#ffffff"
     bordercolor="#666666"
     borderopacity="1"
     objecttolerance="10"
     gridtolerance="10"
     guidetolerance="10"
     inkscape:pageopacity="0"
     inkscape:pageshadow="2"
     inkscape:window-width="808"
     inkscape:window-height="480"
     id="namedview8"
     showgrid="false"
     inkscape:zoom="10.727273"
     inkscape:cx="11"
     inkscape:cy="11"
     inkscape:window-x="3347"
     inkscape:window-y="324"
     inkscape:window-maximized="0"
     inkscape:current-layer="svg6" />
  <defs
     id="defs3051">
    <style
       type="text/css"
       id="current-color-scheme">
      .ColorScheme-Text {
        color:#232629;
      }
      </style>
  </defs>
  <path
     style="fill:#000000;fill-opacity:1;stroke:none"
     d="M 7 3 C 6.446 3 6 3.446 6 4 C 6 4.554 6.446 5 7 5 C 7.554 5 8 4.554 8 4 C 8 3.446 7.554 3 7 3 z M 14 3 L 12 5 L 15 8 L 12 11 L 14 13 L 17 10 L 19 8 L 14 3 z M 4.5 9 C 3.669 9 3 9.669 3 10.5 C 3 11.331 3.669 12 4.5 12 C 5.331 12 6 11.331 6 10.5 C 6 9.669 5.331 9 4.5 9 z M 9 15 C 7.892 15 7 15.892 7 17 C 7 18.108 7.892 19 9 19 C 10.108 19 11 18.108 11 17 C 11 15.892 10.108 15 9 15 z "
     class="ColorScheme-Text"
     id="path4" />
</svg>
