<?xml version="1.0" encoding="UTF-8"?>
<svg version="1.1" viewBox="0 0 22 22" xmlns="http://www.w3.org/2000/svg">
 <defs>
  <style id="a" type="text/css">.ColorScheme-Text {
        color:#232629;
      }</style>
 </defs>
 <path class="ColorScheme-Text" d="m5.5 0c-0.76175 0-1.375 0.61325-1.375 1.375s0.61325 1.375 1.375 1.375 1.375-0.61325 1.375-1.375-0.61325-1.375-1.375-1.375zm9.625 0-2.75 2.75 4.125 4.125-4.125 4.125 2.75 2.75 6.875-6.875zm-13.062 8.25c-1.1426 0-2.0625 0.91988-2.0625 2.0625s0.91988 2.0625 2.0625 2.0625 2.0625-0.91988 2.0625-2.0625-0.91988-2.0625-2.0625-2.0625zm6.1875 8.25c-1.5235 0-2.75 1.2265-2.75 2.75s1.2265 2.75 2.75 2.75 2.75-1.2265 2.75-2.75-1.2265-2.75-2.75-2.75z" fill="#000000"/>
</svg>
