<?xml version="1.0" encoding="UTF-8" standalone="no"?>
<!-- Created with Inkscape (http://www.inkscape.org/) -->

<svg
   xmlns:dc="http://purl.org/dc/elements/1.1/"
   xmlns:cc="http://creativecommons.org/ns#"
   xmlns:rdf="http://www.w3.org/1999/02/22-rdf-syntax-ns#"
   xmlns:svg="http://www.w3.org/2000/svg"
   xmlns="http://www.w3.org/2000/svg"
   xmlns:sodipodi="http://sodipodi.sourceforge.net/DTD/sodipodi-0.dtd"
   xmlns:inkscape="http://www.inkscape.org/namespaces/inkscape"
   width="830"
   height="830"
   viewBox="0 0 830 830"
   id="svg2"
   version="1.1"
   inkscape:version="0.92.5 (2060ec1f9f, 2020-04-08)"
   sodipodi:docname="neon.svg">
  <defs
     id="defs4" />
  <sodipodi:namedview
     id="base"
     pagecolor="#ffffff"
     bordercolor="#666666"
     borderopacity="1.0"
     inkscape:pageopacity="0.0"
     inkscape:pageshadow="2"
     inkscape:zoom="0.49497475"
     inkscape:cx="312.38213"
     inkscape:cy="-26.540833"
     inkscape:document-units="px"
     inkscape:current-layer="layer1"
     showgrid="true"
     units="px"
     inkscape:object-paths="false"
     inkscape:snap-intersection-paths="false"
     inkscape:object-nodes="false"
     inkscape:snap-smooth-nodes="false"
     inkscape:snap-midpoints="false"
     showguides="true"
     inkscape:guide-bbox="true"
     inkscape:snap-grids="true"
     inkscape:snap-to-guides="true"
     inkscape:window-width="2560"
     inkscape:window-height="1329"
     inkscape:window-x="2560"
     inkscape:window-y="0"
     inkscape:window-maximized="1"
     inkscape:snap-nodes="true"
     fit-margin-top="0"
     fit-margin-left="0"
     fit-margin-right="0"
     fit-margin-bottom="0">
    <inkscape:grid
       type="xygrid"
       id="grid4136"
       visible="false"
       originx="1326.2522"
       originy="2130.0374" />
  </sodipodi:namedview>
  <metadata
     id="metadata7">
    <rdf:RDF>
      <cc:Work
         rdf:about="">
        <dc:format>image/svg+xml</dc:format>
        <dc:type
           rdf:resource="http://purl.org/dc/dcmitype/StillImage" />
        <dc:title></dc:title>
      </cc:Work>
    </rdf:RDF>
  </metadata>
  <g
     inkscape:label="Layer 1"
     inkscape:groupmode="layer"
     id="layer1"
     transform="translate(1326.2522,-2352.3996)">
    <g
       id="g5183"
       transform="translate(-5251.2522,-784.96258)">
      <path
         id="path4146-67"
         d="m 4340,3137.3622 a 25,25 0 0 0 -23.377,16.1699 400,400 0 0 0 -241.8183,100.8633 25,25 0 0 0 -9.8047,-2.0332 25,25 0 0 0 -25,25 25,25 0 0 0 1.9453,9.6621 400,400 0 0 0 -100.7344,241.9648 25,25 0 0 0 -16.2109,23.3731 25,25 0 0 0 16.2051,23.3886 400,400 0 0 0 100.5117,242.5157 25,25 0 0 0 -1.7168,9.0957 25,25 0 0 0 25,25 25,25 0 0 0 9.1699,-1.7657 400,400 0 0 0 242.5996,100.9434 25,25 0 0 0 23.2305,15.8223 25,25 0 0 0 23.3769,-16.17 400,400 0 0 0 242.5274,-100.5468 25,25 0 0 0 9.0957,1.7168 25,25 0 0 0 25,-25 25,25 0 0 0 -1.7656,-9.17 400,400 0 0 0 100.9433,-242.5996 25,25 0 0 0 15.8223,-23.2304 25,25 0 0 0 -16.1699,-23.377 400,400 0 0 0 -100.5469,-242.5273 25,25 0 0 0 1.7168,-9.0957 25,25 0 0 0 -25,-25 25,25 0 0 0 -9.1699,1.7656 A 400,400 0 0 0 4363.2305,3153.1844 25,25 0 0 0 4340,3137.3622 Z m -22.5156,35.7968 a 25,25 0 0 0 22.5156,14.2032 25,25 0 0 0 22.3769,-13.8809 380,380 0 0 1 229.3711,94.7109 25,25 0 0 0 -1.748,9.17 25,25 0 0 0 25,25 25,25 0 0 0 9.041,-1.7188 380,380 0 0 1 95.1621,229.2031 25,25 0 0 0 -14.2031,22.5157 25,25 0 0 0 13.8809,22.3769 380,380 0 0 1 -94.711,229.3711 25,25 0 0 0 -9.1699,-1.748 25,25 0 0 0 -25,25 25,25 0 0 0 1.7187,9.041 380,380 0 0 1 -229.2031,95.1621 25,25 0 0 0 -22.5156,-14.2031 25,25 0 0 0 -22.377,13.8808 380,380 0 0 1 -229.3711,-94.7109 25,25 0 0 0 1.7481,-9.1699 25,25 0 0 0 -25,-25 25,25 0 0 0 -9.041,1.7187 380,380 0 0 1 -94.8301,-229.3652 25,25 0 0 0 13.8711,-22.3535 25,25 0 0 0 -13.8731,-22.375 380,380 0 0 1 95.1954,-229.1973 25,25 0 0 0 8.6777,1.5723 25,25 0 0 0 25,-25 25,25 0 0 0 -1.666,-8.8946 380,380 0 0 1 229.1504,-95.3086 z"
         style="color:#000000;clip-rule:nonzero;display:inline;overflow:visible;visibility:visible;opacity:1;isolation:auto;mix-blend-mode:normal;color-interpolation:sRGB;color-interpolation-filters:linearRGB;solid-color:#000000;solid-opacity:1;fill:#000000;fill-opacity:1;fill-rule:evenodd;stroke:none;stroke-width:1;stroke-linecap:round;stroke-linejoin:round;stroke-miterlimit:0.89999998;stroke-dasharray:1, 1;stroke-dashoffset:0;stroke-opacity:1;color-rendering:auto;image-rendering:auto;shape-rendering:auto;text-rendering:auto;enable-background:accumulate"
         inkscape:connector-curvature="0" />
      <path
         id="path4177-2"
         d="m 4340,3257.3622 a 25,25 0 0 0 -23.377,16.1699 280,280 0 0 0 -256.623,278.8301 280,280 0 0 0 256.6562,278.8691 25,25 0 0 0 23.3438,16.1309 25,25 0 0 0 23.3769,-16.17 A 280,280 0 0 0 4620,3552.3622 280,280 0 0 0 4363.3437,3273.493 25,25 0 0 0 4340,3257.3622 Z m 22.3769,36.1191 A 260,260 0 0 1 4600,3552.3622 260,260 0 0 1 4362.3535,3811.2313 25,25 0 0 0 4340,3797.3622 25,25 0 0 0 4317.623,3811.243 260,260 0 0 1 4080,3552.3622 260,260 0 0 1 4317.6465,3293.493 25,25 0 0 0 4340,3307.3622 a 25,25 0 0 0 22.3769,-13.8809 z"
         style="color:#000000;clip-rule:nonzero;display:inline;overflow:visible;visibility:visible;opacity:1;isolation:auto;mix-blend-mode:normal;color-interpolation:sRGB;color-interpolation-filters:linearRGB;solid-color:#000000;solid-opacity:1;fill:#000000;fill-opacity:1;fill-rule:evenodd;stroke:none;stroke-width:1;stroke-linecap:round;stroke-linejoin:round;stroke-miterlimit:0.89999998;stroke-dasharray:1, 1;stroke-dashoffset:0;stroke-opacity:1;color-rendering:auto;image-rendering:auto;shape-rendering:auto;text-rendering:auto;enable-background:accumulate"
         inkscape:connector-curvature="0" />
      <circle
         r="100"
         cy="3552.3623"
         cx="4340"
         id="path4192-6"
         style="color:#000000;clip-rule:nonzero;display:inline;overflow:visible;visibility:visible;opacity:1;isolation:auto;mix-blend-mode:normal;color-interpolation:sRGB;color-interpolation-filters:linearRGB;solid-color:#000000;solid-opacity:1;fill:#000000;fill-opacity:1;fill-rule:evenodd;stroke:none;stroke-width:1;stroke-linecap:round;stroke-linejoin:round;stroke-miterlimit:0.89999998;stroke-dasharray:1, 1;stroke-dashoffset:0;stroke-opacity:1;color-rendering:auto;image-rendering:auto;shape-rendering:auto;text-rendering:auto;enable-background:accumulate" />
    </g>
  </g>
</svg>
