<?xml version="1.0" encoding="UTF-8"?>
<svg version="1.1" viewBox="0 0 830 830" xmlns="http://www.w3.org/2000/svg">
 <g transform="translate(1326.3 -2352.4)">
  <g transform="translate(-5251.3 -784.96)" fill="#000000" fill-rule="evenodd" shape-rendering="auto">
   <path d="m4340 3137.4a25 25 0 0 0-23.377 16.17 400 400 0 0 0-241.82 100.86 25 25 0 0 0-9.8047-2.0332 25 25 0 0 0-25 25 25 25 0 0 0 1.9453 9.6621 400 400 0 0 0-100.73 241.96 25 25 0 0 0-16.211 23.373 25 25 0 0 0 16.205 23.389 400 400 0 0 0 100.51 242.52 25 25 0 0 0-1.7168 9.0957 25 25 0 0 0 25 25 25 25 0 0 0 9.1699-1.7657 400 400 0 0 0 242.6 100.94 25 25 0 0 0 23.23 15.822 25 25 0 0 0 23.377-16.17 400 400 0 0 0 242.53-100.55 25 25 0 0 0 9.0957 1.7168 25 25 0 0 0 25-25 25 25 0 0 0-1.7656-9.17 400 400 0 0 0 100.94-242.6 25 25 0 0 0 15.822-23.23 25 25 0 0 0-16.17-23.377 400 400 0 0 0-100.55-242.53 25 25 0 0 0 1.7168-9.0957 25 25 0 0 0-25-25 25 25 0 0 0-9.1699 1.7656 400 400 0 0 0-242.6-100.94 25 25 0 0 0-23.23-15.822zm-22.516 35.797a25 25 0 0 0 22.516 14.203 25 25 0 0 0 22.377-13.881 380 380 0 0 1 229.37 94.711 25 25 0 0 0-1.748 9.17 25 25 0 0 0 25 25 25 25 0 0 0 9.041-1.7188 380 380 0 0 1 95.162 229.2 25 25 0 0 0-14.203 22.516 25 25 0 0 0 13.881 22.377 380 380 0 0 1-94.711 229.37 25 25 0 0 0-9.1699-1.748 25 25 0 0 0-25 25 25 25 0 0 0 1.7187 9.041 380 380 0 0 1-229.2 95.162 25 25 0 0 0-22.516-14.203 25 25 0 0 0-22.377 13.881 380 380 0 0 1-229.37-94.711 25 25 0 0 0 1.7481-9.1699 25 25 0 0 0-25-25 25 25 0 0 0-9.041 1.7187 380 380 0 0 1-94.83-229.37 25 25 0 0 0 13.871-22.354 25 25 0 0 0-13.873-22.375 380 380 0 0 1 95.195-229.2 25 25 0 0 0 8.6777 1.5723 25 25 0 0 0 25-25 25 25 0 0 0-1.666-8.8946 380 380 0 0 1 229.15-95.309z" color="#000000" color-rendering="auto" image-rendering="auto" solid-color="#000000" style="isolation:auto;mix-blend-mode:normal"/>
   <path d="m4340 3257.4a25 25 0 0 0-23.377 16.17 280 280 0 0 0-256.62 278.83 280 280 0 0 0 256.66 278.87 25 25 0 0 0 23.344 16.131 25 25 0 0 0 23.377-16.17 280 280 0 0 0 256.62-278.83 280 280 0 0 0-256.66-278.87 25 25 0 0 0-23.344-16.131zm22.377 36.119a260 260 0 0 1 237.62 258.88 260 260 0 0 1-237.65 258.87 25 25 0 0 0-22.354-13.869 25 25 0 0 0-22.377 13.881 260 260 0 0 1-237.62-258.88 260 260 0 0 1 237.65-258.87 25 25 0 0 0 22.354 13.869 25 25 0 0 0 22.377-13.881z" color="#000000" color-rendering="auto" image-rendering="auto" solid-color="#000000" style="isolation:auto;mix-blend-mode:normal"/>
   <circle cx="4340" cy="3552.4" r="100" color="#000000" color-rendering="auto" image-rendering="auto" solid-color="#000000" style="isolation:auto;mix-blend-mode:normal"/>
  </g>
 </g>
</svg>
