<svg version="1.1" viewBox="0 0 48 48" xmlns="http://www.w3.org/2000/svg">
 <path d="m27.763 0-7.9827 0.76419v32.87l7.8982-1.1891v-14.014l10.617 15.544 8.3231-2.6335-10.871-14.949 10.957-14.099-8.4927-1.9527-10.532 14.099zm-18.095 8.01c-0.090136 0.009277-0.17721 0.049168-0.2449 0.11726l-3.1331 3.1325c-0.13173 0.1321-0.15654 0.33696-0.059429 0.49692l3.6682 6.0415c-0.6506 1.0938-1.172 2.273-1.5447 3.5171l-6.7342 1.4007c-0.18736 0.03878-0.32236 0.20482-0.32236 0.39709v4.4302c0 0.18736 0.12819 0.34963 0.30872 0.39327l6.5362 1.5976c0.34856 1.4408 0.88868 2.8066 1.6026 4.062l-3.7833 5.7693c-0.10555 0.16124-0.083493 0.37364 0.052879 0.50946l3.132 3.1326c0.13173 0.13136 0.33737 0.15715 0.49801 0.06049l5.9285-3.6006c1.1645 0.67201 2.4205 1.2008 3.7478 1.5595l1.3833 6.6507c0.038926 0.18845 0.2055 0.32238 0.39656 0.32238h4.4307c0.18626 0 0.34882-0.1271 0.39327-0.30983l1.6293-6.6644c1.3683-0.36926 2.6624-0.91963 3.8553-1.6222l5.8424 3.8307c0.16064 0.10576 0.3731 0.08461 0.50946-0.05177l3.1331-3.1326c0.13253-0.13248 0.15626-0.33735 0.05889-0.4969l-2.1327-3.5149-0.69001 0.21818c-0.10058 0.03173-0.21027-0.0056-0.26944-0.09333 0 0-1.3604-1.9914-3.1173-4.5627-2.1003 4.1105-6.3734 6.9262-11.308 6.9262-7.0106 0-12.694-5.6839-12.694-12.695 0-5.1575 3.0762-9.593 7.4924-11.58v-3.2749c-0.80373 0.28117-1.5807 0.62017-2.3187 1.0222-5.38e-4 -5e-4 -0.0011-0.0019-0.0032-0.0037l-5.9798-3.922c-0.080543-0.052694-0.17387-0.07366-0.26401-0.064383z"/>
</svg>
