<?xml version="1.0" encoding="UTF-8"?>
<svg version="1.1" viewBox="0 0 48 48" xmlns="http://www.w3.org/2000/svg">
 <style type="text/css">.st0{fill:#83B9F5;}
	.st1{fill:#F38577;}
	.st2{fill:#527EB2;}</style>
 <path class="st0" d="m20.2 6 3.74 5.77v30.2h1.12v-30.2l3.83-5.79zm8.98 5.23c-0.399 0-0.745 0.319-0.745 0.718v26.3c0 0.585 0.665 0.931 1.14 0.585l18.1-13.1c0.399-0.293 0.399-0.878 0-1.17l-18.1-13.1c-0.106-0.106-0.239-0.159-0.399-0.159zm-11.4 0.0045v2h2.75v-2zm-2.17 3.24v2h4.95v-2zm-5.8 3.24v2.01h10.7v-2.01zm-5.91 3.21v2.01h16.6v-2.01zm-3.9 3.24v2.01h20.5v-2.01zm6.5 3.21v2h14v-2zm5.72 3.24v2.01h8.34v-2.01zm-2.25 3.21v2.01h10.6v-2.01zm5.45 3.08v2h5.11v-2z" fill="#000000" stroke-width=".267"/>
</svg>
