<?xml version="1.0" encoding="UTF-8"?>
<svg version="1.1" viewBox="0 0 48 48" xmlns="http://www.w3.org/2000/svg">
 <g transform="translate(-40.5 -884)">
  <path d="m81.6 884c-2.81 0-5.1 2.27-5.1 5.08s2.28 5.08 5.1 5.08c2.81 0 5.1-2.27 5.1-5.08s-2.28-5.08-5.1-5.08zm-39.7 10.7c0.652 0.652 1.07 1.39 1.25 2.23 0.1 0.468 0.15 1.35 0.15 2.63v27.6c-5e-6 1.29-0.05 2.16-0.15 2.63-0.184 0.836-0.602 1.58-1.25 2.23h11.8c-0.936-0.936-1.4-2.57-1.4-4.89v-10l7.24 9.88c1.27 1.74 1.9 3.07 1.9 3.99-2.5e-5 0.301-0.05 0.643-0.15 1.03h12.9c-0.535-0.418-0.944-0.777-1.23-1.08-1.05-1.17-1.92-2.22-2.61-3.16l-11.3-15.5 9.42-11.7c0.969-1.2 1.65-2.03 2.03-2.48 1.44-1.72 2.63-2.85 3.58-3.38h-12.6c0.0835 0.201 0.125 0.468 0.125 0.802-2.5e-5 0.919-0.735 2.31-2.21 4.16l-7.19 9.1v-9.2c-1.4e-5 -2.31 0.468-3.93 1.4-4.86zm34.2 9.9c0.138 0.155 0.263 0.313 0.374 0.475 0.112 0.162 0.211 0.327 0.296 0.496 0.0856 0.169 0.158 0.342 0.217 0.519 0.0595 0.176 0.106 0.357 0.139 0.54 0.0167 0.0877 0.0314 0.202 0.044 0.343s0.0232 0.309 0.0315 0.503c0.0167 0.389 0.0249 0.884 0.0249 1.49v18.6c-4e-6 0.602-0.0082 1.1-0.0249 1.49-0.0084 0.196-0.019 0.366-0.0315 0.51-0.0125 0.144-0.0273 0.263-0.044 0.354-0.0167 0.094-0.0362 0.187-0.0598 0.279-0.0235 0.0919-0.0502 0.182-0.0805 0.272-0.0303 0.0898-0.0642 0.179-0.101 0.266-0.0371 0.0878-0.0782 0.174-0.122 0.26-0.0877 0.171-0.189 0.338-0.304 0.501-0.115 0.163-0.243 0.322-0.385 0.476h11c-0.142-0.155-0.27-0.314-0.385-0.476-0.115-0.163-0.216-0.33-0.304-0.501-0.0439-0.0856-0.0841-0.172-0.121-0.26-0.0371-0.0877-0.071-0.177-0.101-0.266-0.0303-0.0898-0.057-0.18-0.0805-0.272-0.0235-0.0919-0.0439-0.185-0.0606-0.279-0.0167-0.0919-0.0314-0.21-0.044-0.354s-0.0232-0.314-0.0315-0.51c-0.0167-0.393-0.0249-0.89-0.0249-1.49v-23z" fill="#000000"/>
 </g>
</svg>
