<?xml version="1.0" encoding="UTF-8"?>
<svg enable-background="new" version="1.1" viewBox="0 0 48 48" xmlns="http://www.w3.org/2000/svg">
 <title>Krita icon - 2021</title>
 <path transform="matrix(.197 0 0 .197 -225 -12.1)" d="m1144 68.6c-1.74 0.0973-3.38 0.857-4.82 2.57-3.69 4.7-0.369 9.42 3.8 13.2 2.27 2.08 20.1 20.4 38.5 39.6-11.5 17.4-18.2 38.3-18.2 60.8 0 60.9 49.2 110 110 110s110-49.4 110-110c0-60.9-49.2-110-110-110-27.9 0-53.3 10.4-72.6 27.6-22.9-14.2-45-28.1-47.5-30-2.88-2.06-6.03-3.72-8.93-3.55zm129 10.7c58 0 105 47.2 105 106s-47 106-105 106-105-47.2-105-106c0-21.1 6.17-40.7 16.8-57.2 14.2 14.9 28.2 29.7 34.6 37.1 11.1 12.7 33.5 31 51.8 32.4 1.23 0.929 7.61 5.75 15.1 11.2 4.11 2.98 8.32 5.97 11.8 8.29 1.42 0.949 2.67 1.75 3.78 2.43-29.6 20.2-56.1 19.5-77.1 11-24.3-9.79-41.1-30.3-45.4-40.4l-2.42 0.683c5.42 37.2 30.5 70.4 68.3 83.2 14.3 4.84 32.3 7.02 49.3 3.38 9.5-2.04 18.7-5.93 26.8-12.2 20.7-13.2 26.4-34.7 17.7-50.6-4.94-9.02-12.1-12.9-18.7-12.3-0.466-0.804-1.02-1.28-1.76-2.1-0.988-1.09-2.26-2.39-3.75-3.84-2.98-2.9-6.78-6.41-10.5-9.81-7.52-6.81-14.9-13.2-14.9-13.2l-0.544-0.465h-0.0099c-6.17-16.9-27.5-34-41.7-41.9-8.39-4.69-25.4-15.1-42.6-25.7 18.4-15.9 42.2-25.4 68.4-25.4zm17.6 102c2.64 2.31 6.07 5.35 10.2 9.06 3.74 3.38 7.51 6.85 10.4 9.67 1.44 1.41 2.68 2.65 3.54 3.6 0.0552 0.0608 0.0959 0.117 0.148 0.178-0.864 0.448-1.7 0.98-2.5 1.6-3.95 3.07-6.11 6.43-7 9.94-0.0375-0.0212-0.0714-0.0374-0.109-0.0594-1.11-0.65-2.58-1.59-4.26-2.71-3.35-2.25-7.54-5.22-11.6-8.18-3.9-2.83-7.51-5.5-10.2-7.53 3.13-0.807 6.04-2.32 8.6-4.71 2.09-3.46 2.95-7.12 2.86-10.9zm-109 17c7.48 11.3 22.3 26.3 42.6 34.5 21.8 8.79 49.7 9.27 80.4-12h0.0099c0.244 0.125 0.5 0.242 0.782 0.337 0.163 1.72 0.539 3.45 1.1 5.18 4.3 13.3 20.1 22.8 15.2 35.6-8.09 6.73-17.5 10.8-27.3 12.9-16.5 3.53-34 1.4-47.9-3.31-34.2-11.6-57.4-40.3-64.9-73.2z" fill="#000000" stroke-width=".285"/>
</svg>
