<svg role="img" version="1.1" viewBox="0 0 24 24" xmlns="http://www.w3.org/2000/svg">
 <title>Krita</title>
 <path d="m0.602 0.648c-0.196-9.47e-4 -0.381 0.0882-0.5 0.244-0.352 0.448-0.0357 0.9 0.361 1.26 0.206 0.189 1.77 1.79 3.43 3.53 0.522-0.732 1.13-1.4 1.82-1.98-2.09-1.3-4.06-2.55-4.3-2.71-0.26-0.186-0.544-0.338-0.809-0.34l-0.00195-0.00586zm12.4 0.412c-2.64 4e-3 -5.19 0.954-7.19 2.68 1.85 1.15 3.79 2.33 4.69 2.84 1.47 0.821 3.76 2.68 4.09 4.43 0.535 0.466 2.18 1.92 2.6 2.41 0.698-0.211 1.52 0.132 2.06 1.12 0.866 1.58 0.228 3.75-1.98 5.01 1.13-1.45-0.723-2.43-1.19-3.85-0.0865-0.251-0.123-0.514-0.109-0.779-0.533-0.282-2.11-1.45-2.8-1.96-1.8 0.16-4.21-1.77-5.35-3.08-0.7-0.802-2.32-2.52-3.86-4.12-1.33 1.87-2.04 4.1-2.05 6.39 0 9.85 11.9 14.8 18.9 7.81 7-6.99 2.03-18.9-7.81-18.9zm1.52 10.2c-0.515 0.126-0.969 0.832-1.12 1.31-0.038 0.115-0.0396 0.303 0.0664 0.342 0.802 0.592 1.56 1.17 2.4 1.7 0.162-0.393 0.746-0.964 1.1-1.2l-2.45-2.15zm-11.5 1.64 0.043 0.00391c0.00658 0.0452 0.0143 0.0897 0.0215 0.135 0.98 2 5.88 6.93 12 2.56-0.0043 0.243 0.0336 0.485 0.113 0.715 0.46 1.42 2.36 2.43 1.24 3.89-2.14 1.36-5 1.2-6.99 0.529-3.51-1.18-5.85-4.25-6.4-7.7-0.0232-0.0473-0.0457-0.0948-0.0645-0.139z"/>
</svg>
