<?xml version="1.0" encoding="UTF-8"?>
<svg role="img" version="1.1" viewBox="0 0 24 24" xmlns="http://www.w3.org/2000/svg">
 <title>Krita</title>
 <path d="m0.652 0.76c-0.19602-9.4706e-4 -0.38113 0.090128-0.5 0.246-0.352 0.448-0.035 0.898 0.362 1.262 0.206 0.189 1.77 1.794 3.428 3.527 0.52207-0.73238 1.1316-1.3983 1.815-1.983-2.09-1.297-4.063-2.546-4.296-2.712-0.26-0.186-0.544-0.338-0.809-0.34zm5.105 3.052c1.848 1.148 3.786 2.332 4.693 2.84 1.469 0.821 3.758 2.684 4.092 4.434 0.535 0.466 2.182 1.916 2.596 2.413 0.698-0.211 1.518 0.133 2.06 1.12 0.866 1.583 0.227 3.747-1.968 4.988-0.10006 0.09287-0.06668 0.06475 0 0 1.14-1.468-0.714-2.44-1.175-3.864-0.0865-0.2505-0.12385-0.51534-0.11-0.78-0.533-0.282-2.11-1.452-2.795-1.965-1.801 0.16-4.207-1.773-5.35-3.08-0.7-0.802-2.32-2.517-3.858-4.123-1.3283 1.8674-2.0433 4.1014-2.046 6.393 0 9.847 11.905 14.777 18.867 7.8145s2.0324-18.867-7.8145-18.867c-2.64 4e-3 -5.19 0.954-7.19 2.676zm8.71 7.552c-0.515 0.126-0.968 0.831-1.118 1.306-0.038 0.115-0.04 0.303 0.066 0.342 0.802 0.592 1.556 1.168 2.4 1.7 0.162-0.393 0.746-0.963 1.096-1.2zm-11.53 1.639c0.812 1.898 5.798 7.17 12.06 2.695-0.0043 0.24318 0.03429 0.48522 0.114 0.715 0.46 1.42 2.36 2.427 1.238 3.89-2.135 1.364-5 1.201-6.989 0.528-3.558-1.204-5.914-4.332-6.424-7.828z"/>
</svg>
