<svg width="24.1" height="24.1" role="img" version="1.1" viewBox="0 0 24.1 24.1" xmlns="http://www.w3.org/2000/svg">
 <title>Krita</title>
 <path d="m0.654 0.798c-0.197-0.00295-0.383 0.0864-0.502 0.242-0.352 0.448-0.0354 0.9 0.361 1.26 0.206 0.189 1.77 1.79 3.43 3.53 0.522-0.732 1.13-1.4 1.82-1.98-2.09-1.3-4.06-2.55-4.3-2.71-0.26-0.186-0.543-0.338-0.809-0.342zm12.4 0.41c-2.64 0.0035-5.19 0.954-7.19 2.68 1.85 1.15 3.79 2.33 4.69 2.84 1.47 0.821 3.76 2.68 4.09 4.43 0.535 0.466 2.18 1.92 2.6 2.41 0.698-0.211 1.52 0.131 2.06 1.12 0.866 1.58 0.228 3.75-1.98 5.01 1.13-1.45-0.722-2.43-1.19-3.85-0.0865-0.251-0.123-0.512-0.109-0.777-0.533-0.282-2.11-1.45-2.8-1.96-1.8 0.16-4.21-1.77-5.35-3.08-0.7-0.802-2.32-2.52-3.86-4.12-1.33 1.87-2.04 4.1-2.05 6.39 0 9.85 11.9 14.8 18.9 7.81 7-6.99 2.03-18.9-7.81-18.9zm1.51 10.2c-0.256 0.062-0.96 0.835-1.11 1.31-0.038 0.115-0.0281 0.248 0.0664 0.342 0.802 0.592 1.56 1.17 2.4 1.7 0.162-0.393 0.746-0.963 1.1-1.2zm-11.5 1.78c0.98 2 5.92 6.94 12 2.57-0.0043 0.243 0.0339 0.485 0.113 0.715 0.46 1.42 2.36 2.43 1.24 3.89-2.14 1.36-5 1.2-6.99 0.529-3.51-1.18-5.85-4.25-6.4-7.7z"/>
</svg>
