<?xml version="1.0" encoding="UTF-8"?>
<svg id="a" enable-background="new 0 0 779.617 170.079" version="1.1" viewBox="0 0 475.61 477.93" xmlns="http://www.w3.org/2000/svg">
 <g fill="#000000" stroke-width=".23454">
  <path d="m384.76 213.9c-4.1858-21.047-10.858-37.605-21.871-54.275-5.9922-9.07-10.699-14.775-19.044-23.084-35.326-35.173-86.528-49.632-135.13-38.163-3.5923 0.84763-7.9285 2.0208-9.6361 2.6071-1.8372 0.63079-3.2462 0.8369-3.4515 0.50485-0.19074-0.30862-4.6112-20.236-9.8234-44.282-8.8654-40.902-9.4174-43.812-8.5586-45.122 0.50489-0.77057 1.1171-1.401 1.3604-1.401s10.289-2.4047 22.324-5.3439c12.035-2.9391 22.296-5.3439 22.802-5.3439 0.50625 0 1.3553 0.3935 1.8867 0.87445s7.6331 14.938 15.782 32.128c8.1484 17.189 15.082 31.328 15.409 31.418 0.32657 0.0908 4.2911 0.4697 8.8101 0.84208 9.5099 0.78367 18.094 2.31 27.614 4.9097l6.7356 1.8395 24.454-24.427c13.45-13.435 24.892-24.427 25.428-24.427 0.81966 0 12.885 7.1155 35.683 21.044 7.7366 4.7267 8.278 0.68359-5.1529 38.486-6.4094 18.04-11.652 33.01-11.65 33.267 2e-3 0.25642 2.1585 3.1248 4.7924 6.3742 5.3435 6.5921 12.394 16.911 15.103 22.104l1.7803 3.4127 36.005 1e-3c33.421 1e-3 36.095 0.076 37.247 1.0405 0.98668 0.8259 2.3402 5.5691 6.5972 23.119 2.9457 12.144 5.3558 22.59 5.3558 23.213 0 0.62344-0.48059 1.5684-1.068 2.1-0.69353 0.62763-16.303 4.303-44.523 10.483-23.9 5.2342-43.707 9.5166-44.016 9.5166-0.30876 0-0.86692-1.5364-1.2404-3.4141z"/>
  <path d="m190.6 472.1c-11.593-3.1816-21.536-5.9907-22.095-6.2424-0.55907-0.2517-1.1818-0.97834-1.3837-1.6148-0.31993-1.008 21.857-86.729 22.856-88.345 0.21736-0.35168 3.3024 0.35899 7.7652 1.7888 14.649 4.6934 27.937 6.7096 44.218 6.7096 16.013 0 29.426-2.0007 43.619-6.5062 48.286-15.329 84.672-54.189 97.396-104.02 0.35439-1.3879 0.9233-2.5235 1.2642-2.5235 0.63704 0 84.971 18.804 86.676 19.326 0.52195 0.15986 1.2457 0.94184 1.6083 1.7377 0.5538 1.2155-0.24119 4.8013-4.9669 22.403-7.0076 26.101-6.5068 24.606-8.457 25.247-1.0214 0.33536-13.337-0.17234-33.963-1.4001-17.798-1.0594-33.326-1.9428-34.505-1.9631-2.0486-0.0351-2.2839 0.18085-5.2172 4.7893-5.0214 7.889-11.238 15.769-17.969 22.774l-6.3307 6.5896 9.5484 32.822c7.6353 26.246 9.439 33.12 9.0027 34.311-0.41895 1.1431-5.1936 4.1672-20.561 13.022-11.008 6.3434-20.663 11.533-21.455 11.533-1.1496 0-6.1727-5.3118-24.92-26.353l-23.48-26.353-3.4568 0.79832c-7.152 1.6517-15.638 2.6818-24.981 3.0324-5.8933 0.22114-9.8504 0.61676-10.166 1.0164-0.28468 0.3599-8.0577 14.415-17.273 31.233-9.2157 16.818-17.183 30.913-17.706 31.321-0.52234 0.40822-1.6334 0.72106-2.4691 0.69522-0.83565-0.0258-11.005-2.6501-22.598-5.8317z"/>
  <path d="m62.713 397.29c-14.031-14.005-16.596-16.829-16.586-18.258 9e-3 -1.2056 4.8328-9.0204 16.805-27.223 9.2362-14.043 17.826-27.165 19.089-29.161l2.296-3.6293-4.4355-9.1492c-3.8554-7.9527-8.9269-21.544-10.975-29.411l-0.64395-2.474-6.6703-1.5916c-33.894-8.0874-59.567-14.671-60.498-15.513-1.0295-0.93165-1.0952-2.4088-1.0952-24.607v-23.615l1.411-1.1099c1.0046-0.79022 11.138-3.1298 35.181-8.1225 18.573-3.8569 33.79-7.0508 33.815-7.0974 0.0249-0.0467 1.0619-3.0061 2.3043-6.5764 2.8303-8.1334 7.0292-17.595 10.605-23.897l2.7516-4.8492-18.689-30.754c-10.279-16.915-18.689-31.286-18.689-31.936 0-0.75554 6.0471-7.2428 16.76-17.98 13.686-13.717 17.054-16.798 18.363-16.798 1.2871 0 8.251 6.0565 35.285 30.688l33.682 30.688-3.5051 2.9952c-16.122 13.777-28.497 29.544-37.323 47.554-16.449 33.565-19.53 70.56-8.8249 105.99 6.7418 22.312 18.31 41.971 34.824 59.184l5.597 5.8336-25.492 28.204c-36.788 40.702-35.352 39.188-37.175 39.188-1.2628 0-4.8133-3.2378-18.167-16.567z"/>
 </g>
</svg>
