<?xml version="1.0" encoding="UTF-8"?>
<svg id="kubuntu__x5F__black" width="600" height="600" enable-background="new 0 0 779.617 170.079" version="1.1" viewBox="0 0 600 600" xml:space="preserve" xmlns="http://www.w3.org/2000/svg" xmlns:cc="http://creativecommons.org/ns#" xmlns:dc="http://purl.org/dc/elements/1.1/" xmlns:rdf="http://www.w3.org/1999/02/22-rdf-syntax-ns#"><metadata><rdf:RDF><cc:Work rdf:about=""><dc:format>image/svg+xml</dc:format><dc:type rdf:resource="http://purl.org/dc/dcmitype/StillImage"/></cc:Work></rdf:RDF></metadata>


<path d="m299.99 0c-165.68-3.7895e-14 -299.99 134.31-299.99 299.99 3.7895e-14 165.68 134.31 300.01 299.99 300.01 165.69 0 300.01-134.33 300.01-300.01 0-165.68-134.32-299.99-300.01-299.99zm-18.186 60.195c1.3698 0.1451 2.6111 0.98495 3.2324 2.2891l29.625 62.283c14.431 0.42374 28.906 2.9066 43.023 7.4141l47.6-47.531c1.3106-1.3155 3.3625-1.5651 4.9629-0.5918l37.838 23.014c1.6423 0.99879 2.3581 3.0141 1.7168 4.8164l-23.018 64.799c8.69 9.6458 16.057 20.222 22.02 31.461l70.654 0.05078c1.8706 0.0016 3.4951 1.2802 3.9394 3.0918l10.48 43.033c0.46134 1.865-0.45298 3.7912-2.1894 4.6211l-88.506 19.373c-10.463-69.69-70.581-123.13-143.19-123.13-16.089 0-31.549 2.6646-46.008 7.5078l-0.74023-0.45313-18.965-87.533c0.00981-1.8736 1.2945-3.4972 3.1016-3.9395l43.027-10.482c0.46712-0.1148 0.93795-0.14212 1.3945-0.09375zm-140.33 63.371c0.90093-0.09338 1.833 0.11441 2.6387 0.64062l67.281 61.287c-34.183 26.488-56.213 67.911-56.213 114.5 0 42.052 17.943 79.902 46.57 106.36l-0.03711 0.80078-60.471 66.889c-1.6059 0.96518-3.6616 0.71261-4.9785-0.60156l-31.312-31.316c-1.3632-1.3578-1.5844-3.4824-0.5293-5.0938l37.82-57.676c-7.1365-12.55-12.537-26.207-16.021-40.611l-65.344-15.973c-1.8049-0.43624-3.082-2.0585-3.082-3.9316v-44.287c0-1.9222 1.3496-3.5822 3.2227-3.9707l67.322-14.004c3.7258-12.437 8.9355-24.228 15.439-35.162l-36.67-60.393c-0.97063-1.5991-0.72314-3.6517 0.59375-4.9727l31.322-31.316c0.67686-0.68163 1.5463-1.0765 2.4473-1.1699zm299.92 207.65 87.83 19.666c1.638 0.90964 2.4442 2.8181 1.9629 4.6152l-11.504 42.766c-0.49594 1.859-2.2255 3.1118-4.1484 3.002l-68.855-3.9785c-7.3116 12.449-16.448 23.946-27.189 34.156l18.781 64.592c0.52306 1.7817-0.24419 3.6997-1.8672 4.6348l-38.375 22.109c-1.6655 0.95959-3.7771 0.6185-5.0488-0.81055l-45.742-51.344c-12.636 2.9804-25.452 4.3526-38.174 4.1758l-34.023 61.924c-0.901 1.6393-2.8035 2.4484-4.6055 1.9668l-42.771-11.506c-1.857-0.49241-3.1036-2.221-2.9961-4.1426l23.131-87.547 0.44532-0.24414c16.075 6.1555 33.511 9.5625 51.75 9.5625 69.255 0 127.12-48.634 141.4-113.6z" fill-rule="evenodd"/></svg>
