<?xml version="1.0" encoding="UTF-8" standalone="no"?>
<svg
   xmlns:dc="http://purl.org/dc/elements/1.1/"
   xmlns:cc="http://creativecommons.org/ns#"
   xmlns:rdf="http://www.w3.org/1999/02/22-rdf-syntax-ns#"
   xmlns:svg="http://www.w3.org/2000/svg"
   xmlns="http://www.w3.org/2000/svg"
   xmlns:sodipodi="http://sodipodi.sourceforge.net/DTD/sodipodi-0.dtd"
   xmlns:inkscape="http://www.inkscape.org/namespaces/inkscape"
   inkscape:export-ydpi="41.27"
   inkscape:export-xdpi="41.27"
   inkscape:export-filename="/home/jr/src/logo/kubuntu_logotype_black.png"
   sodipodi:docname="kubuntu.svg"
   inkscape:version="0.92.5 (2060ec1f9f, 2020-04-08)"
   xml:space="preserve"
   enable-background="new 0 0 779.617 170.079"
   viewBox="0 0 475.60519 477.93476"
   height="477.93475"
   width="475.60519"
   y="0px"
   x="0px"
   id="kubuntu__x5F__black"
   version="1.1"><metadata
   id="metadata27"><rdf:RDF><cc:Work
       rdf:about=""><dc:format>image/svg+xml</dc:format><dc:type
         rdf:resource="http://purl.org/dc/dcmitype/StillImage" /><dc:title></dc:title></cc:Work></rdf:RDF></metadata><defs
   id="defs25"><inkscape:perspective
     id="perspective29"
     inkscape:persp3d-origin="389.8085 : 486.61502 : 1"
     inkscape:vp_z="779.617 : 514.96152 : 1"
     inkscape:vp_y="0 : 1000 : 0"
     inkscape:vp_x="0 : 514.96152 : 1"
     sodipodi:type="inkscape:persp3d" /><inkscape:perspective
     sodipodi:type="inkscape:persp3d"
     inkscape:vp_x="0 : 430.42202 : 1"
     inkscape:vp_y="0 : 1000 : 0"
     inkscape:vp_z="1 : 430.42202 : 1"
     inkscape:persp3d-origin="0.5 : 430.25535 : 1"
     id="perspective3135" /><inkscape:perspective
     sodipodi:type="inkscape:persp3d"
     inkscape:vp_x="0 : 430.42202 : 1"
     inkscape:vp_y="0 : 1000 : 0"
     inkscape:vp_z="1 : 430.42202 : 1"
     inkscape:persp3d-origin="0.5 : 430.25535 : 1"
     id="perspective3415" /><inkscape:perspective
     sodipodi:type="inkscape:persp3d"
     inkscape:vp_x="0 : 430.42202 : 1"
     inkscape:vp_y="0 : 1000 : 0"
     inkscape:vp_z="1 : 430.42202 : 1"
     inkscape:persp3d-origin="0.5 : 430.25535 : 1"
     id="perspective2861" /></defs><sodipodi:namedview
   inkscape:document-rotation="0"
   inkscape:current-layer="kubuntu__x5F__black"
   inkscape:window-maximized="1"
   inkscape:window-y="0"
   inkscape:window-x="2560"
   inkscape:cy="225.54248"
   inkscape:cx="-76.468113"
   inkscape:zoom="0.84208499"
   showgrid="false"
   id="namedview23"
   inkscape:window-height="1329"
   inkscape:window-width="2560"
   inkscape:pageshadow="2"
   inkscape:pageopacity="0"
   guidetolerance="10"
   gridtolerance="10"
   objecttolerance="10"
   borderopacity="1"
   bordercolor="#666666"
   pagecolor="#ffffff"
   fit-margin-top="0"
   fit-margin-left="0"
   fit-margin-right="0"
   fit-margin-bottom="0" />


<path
   style="fill:#000000;fill-opacity:1;stroke-width:0.2345369"
   d="m 384.75821,213.90359 c -4.18576,-21.04677 -10.85819,-37.60466 -21.87136,-54.27465 -5.99217,-9.06997 -10.69853,-14.77474 -19.04402,-23.08401 -35.32596,-35.17266 -86.52765,-49.632464 -135.13468,-38.163214 -3.59228,0.84763 -7.92851,2.020844 -9.63608,2.607134 -1.83718,0.63079 -3.24624,0.8369 -3.45146,0.50485 -0.19074,-0.30862 -4.61125,-20.235744 -9.82337,-44.282494 -8.86538,-40.90156 -9.41736,-43.811732 -8.55857,-45.12241 0.50489,-0.770572 1.11708,-1.401039 1.36042,-1.401039 0.24334,0 10.2893,-2.404745 22.32436,-5.343879 C 212.95851,2.404745 223.21958,0 223.72582,0 c 0.50625,0 1.35527,0.393501 1.88671,0.874446 0.53144,0.480945 7.63311,14.938411 15.7815,32.127701 8.1484,17.189289 15.08245,31.327509 15.40902,31.418269 0.32657,0.0908 4.29112,0.4697 8.81011,0.84208 9.50987,0.78367 18.09432,2.30996 27.61375,4.90966 l 6.73564,1.83946 24.45363,-24.4274 c 13.4495,-13.435075 24.89229,-24.427409 25.42843,-24.427409 0.81966,0 12.88508,7.115529 35.68251,21.043599 7.73665,4.7267 8.27798,0.68359 -5.15292,38.48643 -6.40945,18.040184 -11.65199,33.010114 -11.65006,33.266524 0.002,0.25642 2.15851,3.12478 4.79244,6.37416 5.34352,6.59209 12.39401,16.91083 15.10317,22.10423 l 1.78027,3.41274 36.0054,0.001 c 33.42089,10e-4 36.09451,0.076 37.24677,1.0405 0.98668,0.8259 2.34019,5.56908 6.59719,23.11879 2.9457,12.14384 5.35582,22.58979 5.35582,23.21322 0,0.62344 -0.48059,1.56845 -1.06797,2.10002 -0.69353,0.62763 -16.30341,4.303 -44.52262,10.4829 -23.90006,5.23424 -43.70727,9.51662 -44.01602,9.51662 -0.30876,0 -0.86692,-1.53636 -1.24038,-3.41414 z"
   id="path831"
   inkscape:connector-curvature="0" /><path
   style="fill:#000000;fill-opacity:1;stroke-width:0.2345369"
   d="m 190.59834,472.10153 c -11.59325,-3.18162 -21.53606,-5.99069 -22.09512,-6.24239 -0.55907,-0.2517 -1.18175,-0.97834 -1.38374,-1.61476 -0.31993,-1.00801 21.85745,-86.72882 22.85629,-88.34499 0.21736,-0.35168 3.3024,0.35899 7.76521,1.78881 14.64922,4.69339 27.93671,6.70963 44.21797,6.70963 16.01333,0 29.42614,-2.00066 43.61862,-6.50619 48.28583,-15.32877 84.67236,-54.18935 97.39558,-104.01786 0.35439,-1.38792 0.9233,-2.52349 1.26424,-2.52349 0.63704,0 84.97103,18.80418 86.67602,19.32639 0.52195,0.15986 1.24568,0.94184 1.60832,1.73774 0.5538,1.21546 -0.24119,4.80129 -4.96686,22.40319 -7.00755,26.10128 -6.5068,24.6064 -8.457,25.24674 -1.02139,0.33536 -13.337,-0.17234 -33.96264,-1.40009 -17.79808,-1.05944 -33.32555,-1.94282 -34.50548,-1.96308 -2.04856,-0.0351 -2.28386,0.18085 -5.21715,4.78932 -5.02135,7.88902 -11.23825,15.76857 -17.96872,22.7743 l -6.33074,6.58965 9.54836,32.82172 c 7.63528,26.2457 9.43902,33.12003 9.00267,34.31055 -0.41895,1.14309 -5.19361,4.16717 -20.56053,13.02225 -11.00818,6.34338 -20.66279,11.53342 -21.4547,11.53342 -1.14961,0 -6.17266,-5.31184 -24.92017,-26.35287 l -23.48032,-26.35287 -3.45677,0.79832 c -7.15204,1.65174 -15.63771,2.6818 -24.98092,3.03239 -5.89326,0.22114 -9.85035,0.61676 -10.16647,1.01641 -0.28468,0.3599 -8.05769,14.41484 -17.27337,31.23322 -9.21568,16.81837 -17.18315,30.91285 -17.7055,31.32106 -0.52234,0.40822 -1.63344,0.72106 -2.46909,0.69522 -0.83565,-0.0258 -11.00475,-2.65013 -22.59799,-5.83174 z"
   id="path833"
   inkscape:connector-curvature="0" /><path
   style="fill:#000000;fill-opacity:1;stroke-width:0.2345369"
   d="m 62.713282,397.28648 c -14.0309,-14.00524 -16.59574,-16.82874 -16.58562,-18.25825 0.009,-1.20558 4.83275,-9.02042 16.80508,-27.22288 9.2362,-14.04253 17.82629,-27.16508 19.08909,-29.16122 l 2.29598,-3.62934 -4.43547,-9.14919 c -3.85544,-7.95273 -8.92687,-21.54367 -10.97461,-29.4109 l -0.64395,-2.47399 -6.67029,-1.5916 C 27.699918,268.30176 2.026179,261.71838 1.095202,260.87586 0.065747,259.94421 0,258.46703 0,236.26926 v -23.61545 l 1.411014,-1.1099 c 1.00459,-0.79022 11.137878,-3.12978 35.180534,-8.12246 18.573234,-3.85691 33.789914,-7.05076 33.814834,-7.09745 0.0249,-0.0467 1.06186,-3.0061 2.30431,-6.57645 2.83033,-8.13338 7.02921,-17.5948 10.60531,-23.89718 l 2.75155,-4.84923 -18.68944,-30.75427 c -10.27919,-16.91486 -18.68944,-31.286204 -18.68944,-31.936324 0,-0.75554 6.04711,-7.24283 16.75994,-17.9799 13.68646,-13.71743 17.054,-16.79787 18.36349,-16.79787 1.28707,0 8.25096,6.0565 35.285418,30.68777 l 33.68188,30.687774 -3.50513,2.99525 c -16.12195,13.77672 -28.49744,29.54446 -37.32314,47.55378 -16.449198,33.56549 -19.529558,70.56039 -8.82492,105.98693 6.74177,22.3116 18.30952,41.97108 34.82399,59.18363 l 5.59696,5.83356 -25.49154,28.2038 c -36.787548,40.70168 -35.352048,39.18845 -37.175238,39.18845 -1.26278,0 -4.81327,-3.23783 -18.1671,-16.56724 z"
   id="path835"
   inkscape:connector-curvature="0" /></svg>