<svg version="1.1" viewBox="0 0 48 48" xmlns="http://www.w3.org/2000/svg">
 <path d="m23.927 0a1.5489 1.5489 0 0 0-1.0223 0.44767l-17.036 17.036a1.5489 1.5489 0 0 0 0 2.1898l17.036 17.036a1.5489 1.5489 0 0 0 2.1898 0l17.036-17.036a1.5489 1.5489 0 0 0 0-2.1898l-17.036-17.036a1.5489 1.5489 0 0 0-1.1676-0.44767zm0.072589 3.7325 14.846 14.846-14.846 14.846-14.846-14.846zm-18.584 24.137v1.5487a1.5487 1.5487 0 0 0 0.45374 1.095l17.036 17.036a1.5489 1.5489 0 0 0 2.1898 0l17.036-17.036a1.5487 1.5487 0 0 0 0.4537-1.095 1.5487 1.5487 0 0 0 0-0.07259v-1.4761h-1.5487a1.5487 1.5487 0 0 0-1.0949 0.45372l-15.941 15.941-15.941-15.941a1.5487 1.5487 0 0 0-1.095-0.44767v-0.0061z"/>
</svg>
