<?xml version="1.0" encoding="UTF-8"?>
<svg version="1.1" viewBox="0 0 48 48" xmlns="http://www.w3.org/2000/svg">
 <path d="m5.73 8.3c-0.227 0.00407-0.45 0.0188-0.672 0.0442-1.77 0.204-3.37 1.15-4.35 2.8-0.96 1.62-1.2 3.4-0.707 5.05 0.49 1.65 1.67 3.15 3.42 4.32a0.735 0.735 0 0 0 0.032 0.0205c1.5 0.907 3 1.52 4.6 1.83-0.0392 0.662-0.04 1.34 0.00247 2.04 0.128 2.11 0.875 4.05 2 5.75l-4.05 1.65a0.84 0.84 0 0 0-0.46 1.09 0.84 0.84 0 0 0 1.09 0.46l4.45-1.82c0.825 0.982 1.77 1.87 2.8 2.65 0.039 0.03 0.079 0.0577 0.118 0.0875l-2.6 3.45a0.84 0.84 0 0 0 0.164 1.18 0.84 0.84 0 0 0 1.18-0.164l2.65-3.5c1.45 0.92 3 1.63 4.52 2.11 0.78 1.44 2.31 2.35 4.07 2.35 1.79 0 3.32-0.987 4.1-2.4 1.5-0.482 3.02-1.19 4.47-2.11l2.67 3.55a0.84 0.84 0 0 0 1.18 0.164 0.84 0.84 0 0 0 0.164-1.18l-2.65-3.5c0.0176-0.0134 0.0357-0.026 0.0532-0.0395 1-0.77 1.94-1.64 2.77-2.6l4.35 1.77a0.84 0.84 0 0 0 1.09-0.46 0.84 0.84 0 0 0-0.46-1.09l-3.92-1.6c1.16-1.72 1.95-3.67 2.11-5.8 0.054-0.702 0.0622-1.39 0.0312-2.06 1.59-0.317 3.07-0.927 4.57-1.83a0.735 0.735 0 0 0 0.0325-0.0205c1.75-1.19 2.95-2.67 3.42-4.32 0.49-1.65 0.252-3.42-0.707-5.05-0.98-1.65-2.57-2.6-4.35-2.8-0.222-0.0255-0.447-0.0402-0.672-0.0442-1.59-0.0285-3.27 0.462-4.9 1.4-1.2 0.692-2.27 1.75-3.12 2.9-2.36-1.35-5.45-2.12-9.22-2.18-0.34-0.0056-0.682-0.0057-1.03 0-4.22 0.0687-7.57 0.867-10.1 2.31a0.735 0.735 0 0 0-0.0176-0.0315c-0.855-1.19-1.96-2.3-3.2-3-1.63-0.94-3.32-1.43-4.9-1.4zm0.0257 1.47c1.26-0.0204 2.7 0.377 4.15 1.2 0.98 0.565 1.97 1.53 2.72 2.57-0.355 0.26-0.69 0.535-1 0.825-1.86 1.72-2.97 3.97-3.37 6.55-1.37-0.285-2.65-0.807-4-1.61-1.53-1.03-2.46-2.27-2.82-3.52-0.375-1.26-0.217-2.57 0.562-3.87 0.757-1.27 1.87-1.93 3.25-2.09 0.173-0.0199 0.35-0.0312 0.53-0.034zm36.5 0c0.181 0.0029 0.357 0.0141 0.53 0.034 1.38 0.159 2.5 0.815 3.25 2.09 0.777 1.31 0.935 2.62 0.562 3.87-0.372 1.26-1.3 2.49-2.82 3.52-1.33 0.797-2.6 1.32-3.95 1.6-0.39-2.62-1.5-4.92-3.37-6.67-0.3-0.28-0.62-0.545-0.957-0.797 0.737-0.99 1.68-1.9 2.62-2.44 1.43-0.83 2.87-1.22 4.15-1.2zm-17.2 2.13c4.82 0.079 8.25 1.35 10.4 3.4 1.7 1.59 2.7 3.67 2.97 6.15a0.735 0.735 0 0 0-0.0882 0.43 0.735 0.735 0 0 0 0.159 0.36c0.0385 0.667 0.0305 1.36-0.0246 2.08-0.265 3.45-2.47 6.52-5.35 8.72-1.39 1.07-2.95 1.91-4.47 2.52 0.0074-0.1 0.0125-0.201 0.0127-0.302 0.0057-2.42-1.88-4.47-4.62-4.47-2.75 0-4.7 2.05-4.62 4.5 0.0029 0.114 0.0109 0.226 0.0213 0.337-1.57-0.6-3.17-1.46-4.6-2.55-2.87-2.21-5.05-5.27-5.25-8.72-0.0457-0.752-0.0397-1.47 0.0131-2.16a0.735 0.735 0 0 0 0.121-0.29 0.735 0.735 0 0 0-0.053-0.377c0.315-2.45 1.3-4.47 3-6.05 2.31-2.14 6.02-3.45 11.4-3.55 0.335-0.0054 0.662-0.0057 0.985-5e-4zm-8.35 13.8c-1.22 0-2.21 0.992-2.21 2.22s0.992 2.22 2.21 2.22c1.22 0 2.21-0.992 2.21-2.22s-0.992-2.22-2.21-2.22zm14.7 0.0201c-1.13 0-2.07 0.865-2.18 1.97-0.0075 0.074-0.0115 0.148-0.0115 0.224 0 1.21 0.982 2.2 2.19 2.2 1.21 0 2.19-0.985 2.19-2.2 0-1.21-0.982-2.2-2.19-2.2zm-7.37 6.55c2.07 0 3.17 1.29 3.15 3-0.0038 1.58-1.36 3-3.15 3-1.85 0-3.1-1.14-3.15-3.02-0.0425-1.69 1.09-2.97 3.15-2.97z"/>
</svg>
