<?xml version="1.0" encoding="UTF-8"?>
<svg width="48" height="48" enable-background="new" version="1.1" viewBox="0 0 192 192" xmlns="http://www.w3.org/2000/svg">
 <g transform="translate(-36.4 -257)">
  <path d="m59.3 290c-0.907 0.0163-1.8 0.0751-2.69 0.177-7.1 0.817-13.5 4.59-17.4 11.2-3.84 6.47-4.79 13.6-2.83 20.2 1.96 6.6 6.7 12.6 13.7 17.3a2.94 2.94 0 0 0 0.128 0.0821c6.02 3.63 12 6.08 18.4 7.34-0.157 2.65-0.16 5.37 0.0099 8.16 0.513 8.43 3.5 16.2 8.02 23l-16.2 6.61a3.36 3.36 0 0 0-1.84 4.38 3.36 3.36 0 0 0 4.38 1.84l17.8-7.27c3.3 3.93 7.09 7.5 11.2 10.6 0.156 0.12 0.316 0.231 0.473 0.35l-10.4 13.8a3.36 3.36 0 0 0 0.657 4.71 3.36 3.36 0 0 0 4.71-0.657l10.6-14c5.81 3.68 12 6.54 18.1 8.44 3.12 5.75 9.24 9.41 16.3 9.41 7.15 0 13.3-3.95 16.4-9.6 6.02-1.93 12.1-4.78 17.9-8.44l10.7 14.2a3.36 3.36 0 0 0 4.71 0.657 3.36 3.36 0 0 0 0.657-4.71l-10.6-14c0.0705-0.0536 0.143-0.104 0.213-0.158 4.02-3.08 7.77-6.58 11.1-10.4l17.4 7.08a3.36 3.36 0 0 0 4.38-1.84 3.36 3.36 0 0 0-1.84-4.38l-15.7-6.4c4.66-6.9 7.8-14.7 8.45-23.2 0.216-2.81 0.249-5.55 0.125-8.23 6.38-1.27 12.3-3.71 18.3-7.32a2.94 2.94 0 0 0 0.13-0.0821c7.02-4.75 11.8-10.7 13.7-17.3 1.96-6.6 1.01-13.7-2.83-20.2-3.92-6.6-10.3-10.4-17.4-11.2-0.887-0.102-1.79-0.161-2.69-0.177-6.35-0.114-13.1 1.85-19.6 5.61-4.79 2.77-9.09 7.01-12.5 11.6-9.46-5.42-21.8-8.47-36.9-8.72-1.36-0.0224-2.73-0.0229-4.13 0-16.9 0.275-30.3 3.47-40.5 9.25a2.94 2.94 0 0 0-0.0706-0.126c-3.42-4.78-7.86-9.19-12.8-12-6.51-3.76-13.3-5.73-19.6-5.61zm0.103 5.88c5.06-0.0815 10.8 1.51 16.6 4.82 3.92 2.26 7.88 6.11 10.9 10.3-1.42 1.04-2.76 2.14-4.01 3.3-7.45 6.9-11.9 15.9-13.5 26.2-5.49-1.14-10.6-3.23-16-6.46-6.11-4.14-9.83-9.07-11.3-14.1-1.5-5.04-0.867-10.3 2.25-15.5 3.03-5.09 7.49-7.72 13-8.35 0.691-0.0796 1.4-0.125 2.12-0.136zm146 0c0.723 0.0116 1.43 0.0566 2.12 0.136 5.53 0.637 10 3.26 13 8.35 3.11 5.24 3.74 10.5 2.25 15.5-1.49 5.03-5.22 9.96-11.3 14.1-5.31 3.19-10.4 5.27-15.8 6.42-1.56-10.5-6.01-19.7-13.5-26.7-1.2-1.12-2.48-2.18-3.83-3.19 2.95-3.96 6.72-7.6 10.5-9.77 5.74-3.32 11.5-4.9 16.6-4.82zm-69 8.52c19.3 0.316 33 5.41 41.7 13.6 6.81 6.37 10.8 14.7 11.9 24.6a2.94 2.94 0 0 0-0.353 1.72 2.94 2.94 0 0 0 0.638 1.44c0.154 2.67 0.122 5.44-0.0985 8.32-1.06 13.8-9.87 26.1-21.4 34.9-5.58 4.27-11.8 7.66-17.9 10.1 0.0295-0.402 0.0499-0.806 0.0509-1.21 0.023-9.67-7.52-17.9-18.5-17.9-11 0-18.8 8.21-18.5 18 0.0115 0.456 0.0437 0.905 0.0853 1.35-6.29-2.4-12.7-5.85-18.4-10.2-11.5-8.85-20.2-21.1-21-34.9-0.183-3.01-0.159-5.88 0.0525-8.64a2.94 2.94 0 0 0 0.486-1.16 2.94 2.94 0 0 0-0.212-1.51c1.26-9.81 5.19-17.9 12-24.2 9.24-8.55 24.1-13.8 45.6-14.2 1.34-0.0218 2.65-0.0227 3.94-2e-3zm-33.4 55.2c-4.89 0-8.86 3.97-8.86 8.87 0 4.9 3.97 8.87 8.86 8.87 4.89 0 8.86-3.97 8.86-8.87 0-4.9-3.97-8.87-8.86-8.87zm58.9 0.0804c-4.54 0-8.28 3.46-8.73 7.89-0.03 0.296-0.046 0.594-0.046 0.898 0 4.86 3.93 8.79 8.78 8.79 4.85 0 8.78-3.94 8.78-8.79 0-4.86-3.93-8.79-8.78-8.79zm-29.5 26.2c8.27 0 12.7 5.16 12.6 12-0.0151 6.34-5.43 12-12.6 12-7.41 0-12.4-4.55-12.6-12.1-0.17-6.75 4.36-11.9 12.6-11.9z" color="#000000" fill="#000000" stroke-linecap="round" stroke-linejoin="round" stroke-width=".21" style="-inkscape-stroke:none"/>
 </g>
</svg>
