<svg version="1.1" viewBox="0 0 32 32" xmlns="http://www.w3.org/2000/svg">
 <path d="m7 0c-2.216 0-4 1.784-4 4v24c0 2.216 1.784 4 4 4h18c2.216 0 4-1.784 4-4v-16l-12-12zm13 0 9 9v-9zm-9.4863 13c3.0301-3.31e-4 5.4866 2.4562 5.4863 5.4863-0.0047 0.24792-0.02626 0.49523-0.06445 0.74023-0.29807-0.46919-0.60212-0.93099-0.91602-1.3809-0.28775-0.33856-0.65402-0.60352-1.0762-0.60352-0.50172 0-1.0052 0.23663-1.2812 0.71484l-3.377 5.8555c-2.4836-0.5713-4.2467-2.7778-4.2559-5.3262-3.314e-4 -3.0294 2.455-5.4856 5.4844-5.4863zm8.2285 2.7422h6.8574c0.75976 0 1.3711 0.61329 1.3711 1.373v6.8555c0 0.75976-0.61133 1.3711-1.3711 1.3711h-6.1367c-0.69897-1.2392-1.3847-2.4955-2.0918-3.7266v-4.5c0-0.75976 0.61133-1.373 1.3711-1.373zm0 1.373v6.8555h6.8574v-6.8555zm-4.9375 1.7852c0.2805-0.05967 0.56752 0.06807 0.71094 0.31641l4.8125 8.332c0.25645 0.44194-0.06327 0.99546-0.57422 0.99414h-9.6211c-0.51095 0.001321-0.83067-0.5522-0.57422-0.99414l4.8105-8.332c0.0938-0.16241 0.2521-0.27741 0.43555-0.31641z"/>
</svg>
