<svg version="1.1" viewBox="0 0 32 32" xmlns="http://www.w3.org/2000/svg">
 <path d="m7 0c-2.216 0-4 1.784-4 4v24c0 2.216 1.784 4.0033 4 4l18-0.02703c2.216-0.0033 4-1.784 4-4v-15.973l-12-12zm13 0 9 9v-9zm-14.312 12.408h20.625c0.38088 0 0.6875 0.30662 0.6875 0.6875s-0.30662 0.6875-0.6875 0.6875h-20.625c-0.38087 0-0.6875-0.30662-0.6875-0.6875s0.30663-0.6875 0.6875-0.6875zm2.75 2.75h15.125c0.38088 0 0.6875 0.30662 0.6875 0.6875s-0.30662 0.6875-0.6875 0.6875h-15.125c-0.38087 0-0.6875-0.30662-0.6875-0.6875s0.30663-0.6875 0.6875-0.6875zm-2.75 5.5c0.3797 0 0.6875 0.3078 0.6875 0.6875s-0.3078 0.6875-0.6875 0.6875-0.6875-0.3078-0.6875-0.6875 0.3078-0.6875 0.6875-0.6875zm2.75 0h5.5c0.38088 0 0.6875 0.30662 0.6875 0.6875s-0.30662 0.6875-0.6875 0.6875h-5.5c-0.38087 0-0.6875-0.30662-0.6875-0.6875s0.30663-0.6875 0.6875-0.6875zm8.9375 0h8.25c0.76175 0 1.375 0.61325 1.375 1.375v5.5c0 0.76175-0.61325 1.375-1.375 1.375h-8.25c-0.76175 0-1.375-0.61325-1.375-1.375v-5.5c0-0.76175 0.61325-1.375 1.375-1.375zm7.4551 1.3828c-0.14357 0.02277-0.27622 0.09047-0.37891 0.19336l-2.2637 2.2637-1.375-1.375-3.2363 3.2363c-0.26874 0.26853-0.26874 0.70413 0 0.97266 0.26853 0.26874 0.70413 0.26874 0.97266 0l2.2637-2.2637 1.375 1.375 3.2363-3.2363c0.26874-0.26853 0.26874-0.70413 0-0.97266-0.15554-0.1558-0.37629-0.22769-0.59375-0.19336zm-19.143 1.3672c0.3797 0 0.6875 0.3078 0.6875 0.6875s-0.3078 0.6875-0.6875 0.6875-0.6875-0.3078-0.6875-0.6875 0.3078-0.6875 0.6875-0.6875zm2.75 0h5.5c0.38088 0 0.6875 0.30662 0.6875 0.6875s-0.30662 0.6875-0.6875 0.6875h-5.5c-0.38087 0-0.6875-0.30662-0.6875-0.6875s0.30663-0.6875 0.6875-0.6875zm-2.75 2.75c0.3797 0 0.6875 0.3078 0.6875 0.6875s-0.3078 0.6875-0.6875 0.6875-0.6875-0.3078-0.6875-0.6875 0.3078-0.6875 0.6875-0.6875zm2.75 0h5.5c0.38088 0 0.6875 0.30662 0.6875 0.6875s-0.30662 0.6875-0.6875 0.6875h-5.5c-0.38087 0-0.6875-0.30662-0.6875-0.6875s0.30663-0.6875 0.6875-0.6875z"/>
</svg>
