<svg version="1.1" viewBox="0 0 32 32" xmlns="http://www.w3.org/2000/svg">
 <path d="m7 0c-2.216 0-4 1.784-4 4v24c0 2.216 1.784 4 4 4h18c2.216 0 4-1.784 4-4v-16l-12-12zm13 0 9 9v-9zm-13.625 12.381h15.125c0.76175 0 1.375 0.61325 1.375 1.375v5.5h2.75c0.76175 0 1.375 0.61325 1.375 1.375v6.875c0 0.76175-0.61325 1.375-1.375 1.375h-9.625c-0.76175 0-1.375-0.61325-1.375-1.375v-2.75l-8.25 0.05825c-0.76173 0.005376-1.375-0.61325-1.375-1.375v-9.625c0-0.76175 0.61325-1.4332 1.375-1.4332zm0 1.375v1.375h4.125v-1.375zm5.5 0v1.375h4.125v-1.375zm5.5 0v1.375h4.125v-1.375zm-11 2.75v1.375h4.125v-1.375zm5.5 0v1.375h4.125v-1.375zm5.5 0v1.375h4.125v-1.375zm-11 2.75v1.375h4.125v-1.375zm5.5 0v1.375h2.75c0-0.76175 0.61325-1.375 1.375-1.375zm6.875 1.375v6.875h1.375v-6.875zm-12.375 1.375v1.375h4.125v-1.375zm5.5 0v1.375h2.75v-1.375zm4.125 0v5.5h1.375v-5.5zm8.25 1.375v4.125h1.375v-4.125zm-2.75 1.375v2.75h1.375v-2.75z"/>
</svg>
