<?xml version="1.0" encoding="UTF-8"?>
<svg width="48" height="48" version="1.1" viewBox="0 0 12.7 12.7" xmlns="http://www.w3.org/2000/svg">
 <path d="m6.35 5.62e-7a6.35 6.35 0 0 0-6.35 6.35 6.35 6.35 0 0 0 6.35 6.35 6.35 6.35 0 0 0 6.35-6.35 6.35 6.35 0 0 0-6.35-6.35zm0.0162 1.28c1.34 0 2.54 0.481 3.5 1.41 0.466 0.449 0.778 0.875 1.05 1.43 0.362 0.745 0.508 1.39 0.508 2.25 0 1.13-0.325 2.11-1 3.02-0.201 0.271-0.593 0.684-0.853 0.897-0.714 0.585-1.62 0.981-2.53 1.1-0.312 0.0409-1.05 0.046-1.34 0.0092v9.8e-5c-0.89-0.114-1.74-0.469-2.48-1.03-0.242-0.185-0.697-0.642-0.895-0.901-0.555-0.725-0.901-1.55-1.01-2.42-0.0488-0.372-0.0485-1.06 5.81e-4 -1.4 0.245-1.7 1.32-3.16 2.85-3.89 0.715-0.339 1.37-0.482 2.2-0.482zm-0.0167 0.768c-0.781-7.5e-4 -1.47 0.178-2.14 0.56-0.617 0.348-1.25 0.986-1.6 1.61-0.257 0.456-0.445 0.998-0.519 1.49-0.0482 0.324-0.0492 0.968-0.00194 1.28 0.0945 0.622 0.33 1.24 0.672 1.75 0.187 0.281 0.181 0.278 0.345 0.184 0.295-0.169 0.371-0.25 0.532-0.564 0.188-0.368 0.388-0.689 0.569-0.912 0.209-0.258 0.238-0.303 0.343-0.546 0.0528-0.122 0.148-0.302 0.211-0.399l0.115-0.177-0.148-0.146c-0.197-0.193-0.361-0.413-0.391-0.524-0.0315-0.114 0.00573-0.177 0.154-0.263 0.15-0.0864 0.256-0.111 0.656-0.152 0.195-0.02 0.406-0.0566 0.472-0.0819 0.0662-0.0252 0.264-0.133 0.44-0.239 0.507-0.307 0.55-0.323 0.854-0.317 0.257 0.00557 0.257 0.00545 0.409-0.0865 0.319-0.193 0.777-0.541 1.38-1.05 0.116-0.0972 0.227-0.174 0.247-0.17 0.0852 0.0164 0.242 0.401 0.266 0.652 0.0144 0.152-0.0151 0.303-0.105 0.539-0.0246 0.0643-0.036 0.126-0.0252 0.136 0.0258 0.0257 0.115-0.085 0.115-0.143 0-0.0739 0.0489-0.0824 0.115-0.02 0.0484 0.0454 0.0902 0.0584 0.188 0.0584 0.106 0 0.133 0.00984 0.174 0.0652 0.0704 0.094 0.0869 0.35 0.033 0.512-0.0524 0.158-0.211 0.34-0.355 0.407-0.129 0.0605-0.389 0.315-0.511 0.499-0.0467 0.0705-0.134 0.217-0.194 0.327-0.0603 0.109-0.161 0.274-0.225 0.366-0.125 0.182-0.231 0.435-0.334 0.795-0.0605 0.211-0.0655 0.266-0.068 0.736-0.00302 0.568-0.0325 0.708-0.186 0.883-0.175 0.199-0.349 0.636-0.364 0.911-0.00925 0.174-0.036 0.343-0.0741 0.469-0.0168 0.0553 0.0146 0.0546 0.201-0.0042 0.543-0.171 0.986-0.401 1.41-0.735 0.227-0.177 0.62-0.574 0.785-0.793 0.447-0.593 0.751-1.34 0.84-2.05 0.0431-0.345 0.0181-1.08-0.0477-1.39-0.174-0.84-0.55-1.55-1.14-2.16-0.369-0.379-0.704-0.628-1.14-0.845-0.655-0.329-1.22-0.461-1.95-0.462zm0.802 2.81-0.369 0.0516-0.229 0.293 0.369-0.0517z" fill="#000000"/>
</svg>
