<?xml version="1.0" encoding="UTF-8"?>
<svg version="1.1" viewBox="0 0 48 48" xmlns="http://www.w3.org/2000/svg">
 <path d="m24 0a24 24 0 0 0-24 24 24 24 0 0 0 24 24 24 24 0 0 0 24-24 24 24 0 0 0-24-24zm0.0612 4.84c5.06 0 9.6 1.82 13.2 5.33 1.76 1.7 2.94 3.31 3.97 5.4 1.37 2.82 1.92 5.25 1.92 8.5 0 4.27-1.23 7.97-3.78 11.4-0.76 1.02-2.24 2.59-3.22 3.39-2.7 2.21-6.12 3.71-9.56 4.16-1.18 0.155-3.97 0.174-5.06 0.0348v3.7e-4c-3.36-0.431-6.58-1.77-9.37-3.89-0.915-0.699-2.63-2.43-3.38-3.41-2.1-2.74-3.41-5.86-3.82-9.15-0.184-1.41-0.183-4.01 0.0022-5.29 0.926-6.43 4.99-11.9 10.8-14.7 2.7-1.28 5.18-1.82 8.31-1.82zm-0.0631 2.9c-2.95-0.00283-5.56 0.673-8.09 2.12-2.33 1.32-4.72 3.73-6.05 6.09-0.971 1.72-1.68 3.77-1.96 5.63-0.182 1.22-0.186 3.66-0.00718 4.84 0.357 2.35 1.25 4.69 2.54 6.61 0.707 1.06 0.684 1.05 1.3 0.695 1.11-0.639 1.4-0.945 2.01-2.13 0.711-1.39 1.47-2.6 2.15-3.45 0.79-0.975 0.9-1.15 1.3-2.06 0.2-0.461 0.559-1.14 0.797-1.51l0.435-0.669-0.559-0.552c-0.745-0.729-1.36-1.56-1.48-1.98-0.119-0.431 0.0215-0.669 0.582-0.994 0.567-0.327 0.968-0.42 2.48-0.574 0.737-0.0756 1.53-0.214 1.78-0.31 0.25-0.0952 0.998-0.503 1.66-0.903 1.92-1.16 2.08-1.22 3.23-1.2 0.971 0.0212 0.971 0.0204 1.55-0.327 1.21-0.729 2.94-2.04 5.22-3.97 0.438-0.367 0.858-0.658 0.934-0.643 0.322 0.062 0.915 1.52 1.01 2.46 0.0544 0.574-0.0571 1.15-0.397 2.04-0.093 0.243-0.136 0.476-0.0952 0.514 0.0975 0.0971 0.435-0.321 0.435-0.54 0-0.279 0.185-0.311 0.435-0.0756 0.183 0.172 0.341 0.221 0.711 0.221 0.401 0 0.503 0.037 0.658 0.246 0.266 0.355 0.328 1.32 0.125 1.94-0.198 0.597-0.797 1.29-1.34 1.54-0.488 0.229-1.47 1.19-1.93 1.89-0.177 0.266-0.506 0.82-0.733 1.24-0.228 0.412-0.609 1.04-0.85 1.38-0.472 0.688-0.873 1.64-1.26 3-0.229 0.797-0.248 1.01-0.257 2.78-0.0113 2.15-0.123 2.68-0.703 3.34-0.661 0.752-1.32 2.4-1.38 3.44-0.0352 0.658-0.136 1.3-0.28 1.77-0.0635 0.209 0.0552 0.206 0.76-0.0159 2.05-0.646 3.73-1.52 5.33-2.78 0.858-0.669 2.34-2.17 2.97-3 1.69-2.24 2.84-5.06 3.17-7.75 0.163-1.3 0.0684-4.08-0.18-5.25-0.658-3.17-2.08-5.86-4.31-8.16-1.39-1.43-2.66-2.37-4.31-3.19-2.48-1.24-4.61-1.74-7.37-1.75zm3.03 10.6-1.39 0.195-0.866 1.11 1.39-0.195z"/>
</svg>
