<svg version="1.1" viewBox="0 0 32 32" xmlns="http://www.w3.org/2000/svg">
 <path d="m7 0c-2.216 0-4 1.784-4 4v24c0 2.216 1.784 4 4 4h18c2.216 0 4-1.784 4-4v-16l-12-12zm13 0 9 9v-9zm-5.1168 12.336h11.424c0.3797 0 0.6875 0.3078 0.6875 0.6875s-0.3078 0.6875-0.6875 0.6875h-10.576l-5.9238 11.848-3.1738-6.3477h-0.95117c-0.3797 0-0.6875-0.3078-0.6875-0.6875s0.3078-0.6875 0.6875-0.6875h1.7988l2.3262 4.6504 5.0762-10.15zm9.3613 4.125c0.36475-2.06e-4 0.71464 0.14452 0.97266 0.40234 0.53621 0.53684 0.53621 1.4066 0 1.9434l-1.7793 1.7793 1.7793 1.7773c0.53621 0.53684 0.53621 1.4066 0 1.9434-0.53706 0.53748-1.4082 0.53748-1.9453 0l-1.7773-1.7773-1.7773 1.7773c-0.53706 0.53748-1.4082 0.53748-1.9453 0-0.53621-0.53684-0.53621-1.4066 0-1.9434l1.7793-1.7773-1.7793-1.7793c-0.53621-0.53684-0.53621-1.4066 0-1.9434 0.22071-0.22083 0.51001-0.35997 0.82031-0.39453 0.41548-0.04635 0.82948 0.09884 1.125 0.39453l1.7773 1.7773 1.7773-1.7773c0.25802-0.25782 0.60791-0.40255 0.97266-0.40234zm-18.562 11h4.125c0.38088 0 0.6875 0.30662 0.6875 0.6875 0 0.38087-0.30662 0.6875-0.6875 0.6875h-4.125c-0.38087-1e-6 -0.6875-0.30663-0.6875-0.6875 0-0.38088 0.30663-0.6875 0.6875-0.6875zm8.25 0h4.125c0.38088 0 0.6875 0.30662 0.6875 0.6875 0 0.38087-0.30662 0.6875-0.6875 0.6875h-4.125c-0.38088-1e-6 -0.6875-0.30663-0.6875-0.6875 0-0.38088 0.30662-0.6875 0.6875-0.6875zm8.25 0h4.125c0.38088 0 0.6875 0.30662 0.6875 0.6875 0 0.38087-0.30662 0.6875-0.6875 0.6875h-4.125c-0.38088-1e-6 -0.6875-0.30663-0.6875-0.6875 0-0.38088 0.30662-0.6875 0.6875-0.6875z"/>
</svg>
