<svg version="1.1" viewBox="0 0 32 32" xmlns="http://www.w3.org/2000/svg">
 <path d="m7 0c-2.216 0-4 1.784-4 4v24c0 2.216 1.784 4 4 4h18c2.216 0 4-1.784 4-4v-16l-12-12h-10zm13 0 9 9v-9h-9zm-14.312 12.375h8.25c0.38088 0 0.6875 0.30662 0.6875 0.6875s-0.30662 0.6875-0.6875 0.6875h-8.25c-0.38087 0-0.6875-0.30662-0.6875-0.6875s0.30663-0.6875 0.6875-0.6875zm13.062 0h6.875c0.76175 0 1.375 0.61325 1.375 1.375v4.125c0 0.76175-0.61325 1.375-1.375 1.375h-6.875c-0.76175 0-1.375-0.61325-1.375-1.375v-4.125c0-0.76175 0.61325-1.375 1.375-1.375zm6.1875 1.375a0.6875 0.6875 0 0 0-0.6875 0.6875 0.6875 0.6875 0 0 0 0.6875 0.6875 0.6875 0.6875 0 0 0 0.6875-0.6875 0.6875 0.6875 0 0 0-0.6875-0.6875zm-4.3496 0.72852a0.84979 0.84979 0 0 0-0.89844 0.57617l-0.93945 2.8203h5.5l-3.1523-3.1523a0.84979 0.84979 0 0 0-0.50976-0.24414zm-14.9 0.64648h8.25c0.38088 0 0.6875 0.30662 0.6875 0.6875s-0.30662 0.6875-0.6875 0.6875h-8.25c-0.38087 0-0.6875-0.30662-0.6875-0.6875s0.30663-0.6875 0.6875-0.6875zm0 2.75h8.25c0.38088 0 0.6875 0.30662 0.6875 0.6875s-0.30662 0.6875-0.6875 0.6875h-8.25c-0.38087 0-0.6875-0.30662-0.6875-0.6875s0.30663-0.6875 0.6875-0.6875zm0 4.125h20.625c0.38088 0 0.6875 0.30662 0.6875 0.6875s-0.30662 0.6875-0.6875 0.6875h-20.625c-0.38087 0-0.6875-0.30662-0.6875-0.6875s0.30663-0.6875 0.6875-0.6875zm0 2.75h20.625c0.38088 0 0.6875 0.30662 0.6875 0.6875s-0.30662 0.6875-0.6875 0.6875h-20.625c-0.38087 0-0.6875-0.30662-0.6875-0.6875s0.30663-0.6875 0.6875-0.6875zm0 2.75h8.25c0.38088 0 0.6875 0.30662 0.6875 0.6875s-0.30662 0.6875-0.6875 0.6875h-8.25c-0.38087 0-0.6875-0.30662-0.6875-0.6875s0.30663-0.6875 0.6875-0.6875z"/>
</svg>
