<svg version="1" viewBox="0 0 64 64" xmlns="http://www.w3.org/2000/svg"><path d="m6.8008 4c-1.5512 0-2.8008 1.2496-2.8008 2.8008v50.398c0 1.5512 1.2496 2.8008 2.8008 2.8008h50.398c1.5512 0 2.8008-1.2496 2.8008-2.8008v-50.398c0-1.5512-1.2496-2.8008-2.8008-2.8008h-50.398zm30.08 4c2.0048 2.9339 3.9107 5.9359 5.8613 8.9062-2.1751 6.9185-4.3976 13.822-6.5156 20.758 1.2246 1.4045 2.5947 2.6776 3.8105 4.0898-0.87045 0.81139-2.8815 1.8574-3.1504 2.4512 1.6646 0.01898 3.3296-0.025364 4.9941-0.009766-1.6925 0.64018-3.4583 1.1608-5.1152 1.8477 1.6569 0.81329 3.3412 1.5695 4.998 2.3828-1.8411-0.27763-3.6788-0.62732-5.5215-0.91797l-0.041016 0.019532c2.1353 2.5998 4.2709 5.2655 6.4062 8.1934v0.2793c-2.3956-2.4343-4.78-5.2389-7.1621-8.1172l-0.013671 0.00586c-0.88046 1.5281-1.7629 3.0561-2.6895 4.5566 0.16224-1.2924 1.3651-3.6746 0.95898-4.3398-2.1136 0.89944-4.1995 1.8636-6.3203 2.7461 1.2131-1.2354 2.5167-2.3806 3.7227-3.623-1.68 0.15005-3.3488 0.41796-5.0293 0.5625-1.2569-4.226-2.461-8.4689-3.6133-12.725 1.4637 0.59066 3.1288 1.5436 4.4551 1.9668-1.3578-1.6261-2.7964-3.1852-4.1074-4.8496 1.1681-5.9754 2.3777-11.943 3.625-17.902 3.3996-2.2225 6.9708-4.1794 10.447-6.2812z"/></svg>
