<svg version="1.1" viewBox="0 0 256 256" xmlns="http://www.w3.org/2000/svg" xmlns:cc="http://creativecommons.org/ns#" xmlns:dc="http://purl.org/dc/elements/1.1/" xmlns:rdf="http://www.w3.org/1999/02/22-rdf-syntax-ns#"><metadata><rdf:RDF><cc:Work rdf:about=""><dc:format>image/svg+xml</dc:format><dc:type rdf:resource="http://purl.org/dc/dcmitype/StillImage"/></cc:Work></rdf:RDF></metadata><circle cx="128" cy="128" r="118" fill="none" stroke="#000" stroke-width="20"/><path d="m58 63v90c0 21.973 18.027 40 40 40h60c21.973 0 40-18.027 40-40v-50c0-16.45-13.55-30-30-30-7.6849 0-14.667 3.0376-20 7.8662-5.3332-4.8286-12.315-7.8662-20-7.8662-16.45 0-30 13.55-30 30v50h20v-50c0-5.6413 4.3587-10 10-10s10 4.3587 10 10v50h20v-50c0-5.6413 4.3587-10 10-10s10 4.3587 10 10v50c0 11.164-8.8359 20-20 20h-60c-11.164 0-20-8.8359-20-20v-90z" color="black" stroke-width="0" style="-inkscape-stroke:none"/><script/></svg>
