<svg version="1" viewBox="0 0 64 64" xmlns="http://www.w3.org/2000/svg"><path d="m36.881 8c-3.4765 2.1018-7.0477 4.0587-10.447 6.2812-1.2473 5.9594-2.4569 11.927-3.625 17.902 1.311 1.6644 2.7496 3.2236 4.1074 4.8496-1.3263-0.42319-2.9914-1.3761-4.4551-1.9668 1.1523 4.2557 2.3564 8.4986 3.6133 12.725 1.6805-0.14454 3.3493-0.41245 5.0293-0.5625-1.206 1.2424-2.5095 2.3877-3.7227 3.623 2.1208-0.88247 4.2067-1.8466 6.3203-2.7461 0.40609 0.66527-0.79675 3.0474-0.95898 4.3398 0.92652-1.5005 1.809-3.0286 2.6895-4.5566l0.013671-0.00586c2.3821 2.8783 4.7665 5.6829 7.1621 8.1172v-0.2793c-2.1353-2.9278-4.2709-5.5936-6.4062-8.1934l0.041016-0.019532c1.8426 0.29065 3.6804 0.64034 5.5215 0.91797-1.6569-0.81334-3.3412-1.5695-4.998-2.3828 1.6569-0.68688 3.4227-1.2075 5.1152-1.8477-1.6646-0.015599-3.3295 0.028746-4.9941 0.009766 0.26891-0.5938 2.2799-1.6398 3.1504-2.4512-1.2158-1.4122-2.5859-2.6853-3.8105-4.0898 2.1181-6.9362 4.3405-13.839 6.5156-20.758-1.9506-2.9703-3.8565-5.9724-5.8613-8.9062z"/></svg>
