<?xml version="1.0" encoding="UTF-8" standalone="no"?>
<svg
   width="512"
   height="512"
   id="svg3037"
   version="1.1"
   xmlns="http://www.w3.org/2000/svg"
   xmlns:svg="http://www.w3.org/2000/svg"
   xmlns:rdf="http://www.w3.org/1999/02/22-rdf-syntax-ns#"
   xmlns:cc="http://creativecommons.org/ns#"
   xmlns:dc="http://purl.org/dc/elements/1.1/">
  <defs
     id="defs5498" />
  <metadata
     id="metadata5594">
    <rdf:RDF>
      <cc:Work
         rdf:about="">
        <dc:format>image/svg+xml</dc:format>
        <dc:type
           rdf:resource="http://purl.org/dc/dcmitype/StillImage" />
      </cc:Work>
    </rdf:RDF>
  </metadata>
  <path
     id="path3543"
     d="M 0 26.498047 L 0 190.40039 L 60.361328 190.40039 L 60.361328 219.85352 L 60.447266 318.20117 C 60.447266 413.32373 143.06947 485.50195 238.27734 485.50195 L 512 485.50195 L 512 195.16797 C 512 99.959954 429.4634 27.869141 334.16992 27.869141 L 254.54492 27.697266 L 0 26.498047 z M 12.691406 38.275391 L 256.75781 39.425781 L 333.10742 39.589844 C 424.47835 39.589844 503.61719 108.71297 503.61719 200.00195 L 503.61719 478.38477 L 241.16016 478.38477 C 149.87127 478.38477 70.650391 409.17779 70.650391 317.9707 L 70.568359 207.22656 L 70.568359 178.98633 L 12.691406 178.98633 L 12.691406 38.275391 z M 49.962891 75.710938 L 49.962891 141.79688 L 73.119141 141.79688 C 88.840128 141.79688 107.75781 156.57015 107.75781 178.25 L 107.92188 317.88867 C 107.92188 385.94444 167.60378 441.11328 241.16016 441.11328 L 422.77148 441.11328 C 446.05405 441.11328 466.42773 426.36925 466.42773 403.70898 L 466.42773 200.00195 C 466.42773 131.94625 406.74407 76.777344 333.10547 76.777344 L 256.67578 76.777344 L 256.67578 76.613281 L 49.962891 75.710938 z M 143.56445 117.12109 L 181.54297 117.12109 L 181.54297 311.94922 C 181.54297 338.01305 199.33899 358.29297 220.17578 358.29297 L 349.68164 358.80273 C 376.68282 358.80273 397.69922 340.20249 397.69922 318.13281 L 397.48047 214.67383 C 397.48047 207.9599 395.28987 202.70964 390.49609 197.86719 C 385.68666 193.00926 380.59547 190.81055 373.98242 190.81055 C 367.23073 190.81055 362.21255 192.9982 357.39258 197.86719 C 352.59875 202.70964 350.4082 207.9599 350.4082 214.67383 L 350.4082 303.2168 L 310.24805 303.2168 L 310.24805 214.67383 C 310.24805 207.9599 308.05745 202.70964 303.26367 197.86719 C 298.44366 192.9982 293.42736 190.81055 286.67578 190.81055 C 280.0628 190.81055 274.96967 193.00926 270.16016 197.86719 C 265.3664 202.70964 263.17578 207.9599 263.17578 214.67383 L 263.17578 303.2168 L 223.01367 303.2168 L 223.01367 214.67383 C 223.01363 197.15705 229.47682 181.6362 241.78516 169.20312 C 254.09962 156.76341 269.42663 150.35938 286.67578 150.35938 C 303.60019 150.35937 318.31132 156.67367 330.25586 168.18359 C 342.23546 156.65467 357.051 150.35938 373.98242 150.35938 C 391.23148 150.35937 406.55676 156.76341 418.87109 169.20312 C 431.1796 181.6362 437.64258 197.15705 437.64258 214.67383 L 437.78711 325.18945 C 435.88942 343.6954 428.08171 360.13998 414.72461 373.86328 L 414.65234 373.86328 C 398.94717 389.85215 379.47893 398.0918 357.32031 398.0918 L 213.11914 398.0918 C 195.47035 396.20436 179.76238 387.84724 166.70117 374.95508 C 151.41999 359.733 143.56445 340.90762 143.56445 319.44141 L 143.56445 117.12109 z " />
</svg>
