<svg version="1.1" viewBox="0 0 56 56" xmlns="http://www.w3.org/2000/svg"><path d="m28 0a28 28 0 0 0-28 28 28 28 0 0 0 28 28 28 28 0 0 0 28-28 28 28 0 0 0-28-28zm-18 11h6v23c0 3 2 5 5.0859 5h13.629c3.2852 0 5.2852-2 5.2852-5v-12c0-1.1046-0.89543-2-2-2s-2 0.89543-2 2c2.86e-4 0.03906 2.86e-4 0.07813 0 0.11719v12.883h-6v-13c0-1.1046-0.89543-2-2-2s-2 0.89543-2 2v13h-6v-13c-5e-4 -4.3714 3.508-7.9338 7.8789-8 0.04036-3.05e-4 0.08073-3.05e-4 0.12109 0 1.818 7.97e-4 3.5815 0.62078 5 1.7578 1.386-1.1114 3.1025-1.7299 4.8789-1.7578 0.04036-3.05e-4 0.08073-3.05e-4 0.12109 0 4.4183 0 8 3.5817 8 8 2.86e-4 0.03906 2.86e-4 0.07813 0 0.11719v12.883c-0.15414 5.519-4.7312 10-10.285 10h-15.43c-5.6502 0-10.285-4.635-10.285-10.285z"/></svg>
