<?xml version="1.0" encoding="UTF-8"?>
<svg version="1.1" viewBox="0 0 48 48" xmlns="http://www.w3.org/2000/svg">
 <path d="m22.4 0.371c-3.42 0.00671-6.95 0.73-9.62 2.97-4.71 3.7-7.03 9.76-7.11 15.6-0.411 4.31-0.538 8.66-1.29 12.9-1.32 4.43-4.38 8.39-4.29 13.2 0.269 0.691-0.578 2.7 0.565 2.55 1.95 9.8e-5 3.9 1.95e-4 5.85 2.93e-4 -0.0722-4.46-0.217-9.13 1.92-13.2 1.36-3.11 4.45-5.87 8.04-5.37 2.92 0.0838 5.47 2.28 8.47 1.64 2.99-0.554 5.98-2.47 9.1-1.62 4.41 1.66 6.83 6.24 7.87 10.6 0.461 2.62 0.323 5.31 0.336 7.96h5.72c-0.157-3.48-0.21-7.26-2.45-10.2-2.08-2.91-2.7-6.52-2.82-10-0.47-4.64 0.0299-9.43-1.22-14-0.289-0.395-0.701-2.3-1.24-3.22-2.23-5.29-7.31-9.61-13.2-9.72-1.54-0.149-3.08-0.183-4.62-0.192zm8.97 1.15c0.0664 0.033 0.211 0.105 0 0zm4.65 2.75c0.888 1 1.5 1.39 0 0zm-21.5 4.49c2.88-0.123 5.01 3.34 3.52 5.84-1.35 2.8-5.84 2.69-7.04-0.176-1.32-2.52 0.748-5.7 3.53-5.66zm18.8 0.0115c2.88-0.263 5.11 3.12 3.76 5.68-1.19 2.81-5.55 2.97-6.97 0.291-1.55-2.44 0.335-5.92 3.21-5.97zm6.69 1.73c0.521 0.899 1.76 3.7 0.605 1.19-0.194-0.393-0.398-0.827-0.605-1.19zm-6.47 0.896c-3.38 0.517 0.658 4.66 1.31 1.38 0.0384-0.72-0.603-1.39-1.31-1.38zm-19 0.0046c-3.03 0.451 0.233 4.4 1.3 1.72 0.313-0.87-0.443-1.77-1.3-1.72zm9.53 1.37c3.12 0.25 3.93 4.08 6.58 5.15 2.14 0.387 5.67-1.28 6.26 1.89 0.225 2.67-4.05 2.04-5.06 2.03-0.945-0.239-3.42-0.557-2.32-0.431-4.05-0.53-8.18-0.536-12.2 0.0407 1.22-0.235 4.84-0.444 1.84-0.194-2.3 0.0149-4.65 1.41-6.86 0.253-2.73-1.03-0.603-4.03 1.69-3.18 2.51 0.425 4.91-0.684 6.09-2.96 0.979-1.26 2.23-2.73 4-2.6zm-2.52 0.897c-0.597 0.661-1.29 1.26 0 0zm2.82 7.9c2.22 0.0882 5.81 0.058 7.12 0.965-1.76 1.75-4.26 2.27-6.66 2.15-2.88 0.0822-5.99-0.0838-8.29-2.06-0.515-0.841 2.91-0.649 4.11-0.906 1.24-0.098 2.48-0.142 3.72-0.149zm9.19 0.36c0.9 0.0333-0.827 0.0403 0 0z"/>
</svg>
