<svg fill="none" version="1.1" viewBox="0 0 512 512" xmlns="http://www.w3.org/2000/svg"><defs><clipPath id="a"><path d="m0 0h512v512h-512z" fill="#fff"/></clipPath></defs><path d="m255.99 0c-141.38 0-255.99 114.63-255.99 256.01 0 141.38 114.61 255.99 255.99 255.99 141.39 0 256.01-114.61 256.01-255.99 0-141.38-114.62-256.01-256.01-256.01zm31.459 100.47c1.4672-0.0486 2.9352-0.0491 4.4024 0 1.6767 0.0561 3.3497 0.17595 5.0176 0.36133 21.46 2.385 41.365 15.95 51.42 35.043l120.91 16.664h-137.81c-8.598-10.996-21.585-18.464-35.42-20.367-9.88-1.359-20.128 0.0702-29.26 4.0762-9.132 4.006-17.121 10.579-22.807 18.766a54.612 54.612 0 0 0-9.6113 27.914c-0.56 9.95 1.6899 20.041 6.4219 28.814-9.1-9.863-15.099-22.543-16.949-35.83-1.85-13.287 0.45565-27.122 6.5156-39.092 6.061-11.97 15.85-22.022 27.658-28.404 9.0412-4.887 19.237-7.6051 29.508-7.9453zm-214.8 23.518 185.07 132.96-152.66-85.584c-4.636 13.819-5.1743 28.983-1.5293 43.096a76.279 76.279 0 0 0 18.254 33.074c6.317 6.7028 13.888 12.206 22.174 16.23l103.49 29.1-128.02-20.938c1.259 12.296 5.8663 24.233 13.197 34.188 12.986 17.634 34.694 28.512 56.604 28.365-21.87 5.874-46.111 2.3106-65.361-9.6094-12.976-8.035-23.662-19.718-30.508-33.352-6.846-13.634-9.8295-29.179-8.5195-44.377l26.98 7.5859c-9.5289-5.4528-18.179-12.433-25.4-20.703-12.904-14.778-21.271-33.458-23.705-52.918-2.435-19.46 1.0735-39.622 9.9395-57.119zm248.95 66.83a75.38 75.38 0 0 0-0.19141 5.8984c0.124 24.393 11.426 47.167 22.58 68.865 11.154 21.697 22.679 44.297 23.305 68.682 0.521 20.284-6.8304 40.435-19.152 56.562-12.323 16.129-29.413 28.329-48.145 36.164-26.155 10.94-55.75 13.49-83.393 7.1856l-21.33 50.633v-70.93c25.937 5.724 53.601 3.3678 78.195-6.6602 14.93-6.088 28.825-15.029 39.709-26.918 10.885-11.888 18.662-26.805 21.041-42.742 3.185-21.338-3.2534-42.807-9.5684-63.438-6.315-20.63-12.65-42.15-9.2637-63.457a71.684 71.684 0 0 1 6.2129-19.846z" clip-path="url(#a)" fill="#010000"/></svg>
