<?xml version="1.0" encoding="UTF-8"?>
<svg version="1.0" viewBox="0 0 48 48" xmlns="http://www.w3.org/2000/svg">
 <path d="m36 18.7c-2.94-3.32-5.59-5.47-9.52 0.127-2.34 3.33-16.4 22.4-18.9 25.4-0.747 0.882-1.18 1.5-1.76 1.85 9.12e-4 -1.21 9.68-16.5 12.4-21 3.25-5.34 3.15-5.02 2.76-5.02-0.551 2e-3 -1.67 0.815-3.38 2.63-3.11 3.32-12.3 15.7-13 15.5 0.221-0.898 7.43-12 10.7-16.5 2.82-3.94 1.74-4.24 0.126-3.86-6.89 1.64-15.1 5.62-15.4 5.48 0.0997-0.206 27.8-19.7 31.5-20 0.43-0.0433 1.34-0.811 2.96-1.45 1.76-0.694 2.94-1.26 3.23-1.08-1.28 1.8-1.96 2.16-1.97 2.74-0.0187 0.949-0.356 2.48-0.726 2.97 7.15 4.76 9.94 21 12 34.1 0.488 3.1 0.939 5.43 1.05 6.81-0.604-1.55-6.32-22.2-12-28.6z"/>
</svg>
