<?xml version="1.0" encoding="UTF-8"?>
<svg version="1.0" viewBox="0 0 48 48" xmlns="http://www.w3.org/2000/svg" xmlns:xlink="http://www.w3.org/1999/xlink">
 <path d="m35.968 18.674c-2.9422-3.3215-5.5936-5.4668-9.5185 0.12673-2.3355 3.3284-16.351 22.396-18.923 25.433-0.74704 0.88222-1.1847 1.4953-1.7582 1.8507 9.115e-4 -1.2072 9.6813-16.537 12.39-20.98 3.2541-5.3364 3.1508-5.0248 2.7614-5.0234-0.55129 2e-3 -1.6726 0.81521-3.3776 2.6336-3.1134 3.3205-12.334 15.679-12.97 15.488 0.22085-0.89771 7.4339-11.959 10.709-16.534 2.8232-3.9444 1.7441-4.245 0.12584-3.86-6.8948 1.6444-15.141 5.6199-15.408 5.4764 0.099723-0.20585 27.772-19.665 31.469-20.037 0.43034-0.043306 1.3383-0.81083 2.9564-1.4501 1.7565-0.69398 2.9387-1.2585 3.2311-1.08-1.2818 1.7969-1.9568 2.1585-1.9682 2.7381-0.018676 0.94912-0.35648 2.4846-0.7264 2.9748 7.1509 4.7637 9.9408 21.007 11.984 34.071 0.48752 3.1009 0.93932 5.4296 1.0545 6.8133-0.60357-1.553-6.3211-22.194-12.032-28.641z" fill="#000000" stroke-width=".089368"/>
</svg>
