<svg version="1.1" viewBox="0 0 732 732" xmlns="http://www.w3.org/2000/svg">
 <path d="m2.67 365v-365h89.3v731h-89.3v-365zm311 363c-39.6-3.52-80.8-26.5-91.1-67.3-5.58-39.6-1.92-80.1-3.28-120 1.53-32.7-3.61-66.4 4.26-98.4 12.7-45.6 63.5-65.7 107-64.3 101-0.579 203-1.58 304 0.619 40.5 1.39 87.3 23.9 94 68 3.87 13 1.54 24.3-11.8 28.9-57.2 37.9-114 76.8-171 115-52.7-0.0195-105-0.0389-158-0.0584 60.4-40.2 121-80.4 181-121-74.6 0.34-149-2.37-224 1.26-32.8-2.81-41 29-36.6 55.2 0.49 29.2-2.1 58.7 1.77 87.7 12.6 27.8 48.8 16.9 72.9 19.6 115 0.726 231 0.697 346 1.02v95.9c-137-0.509-274 0.744-411-1.6l-5.37-0.431zm-94.7-419v-45c35.3-17.7 69.6-37.6 105-54.9 31 13.1 61.2 28.9 91.6 43.6 1.03 12.3-37.9 20.9-51.4 31.6-11 4.33-21.2 9.21-17.2 22.7v47h-128c3.3e-4 -15 6.7e-4 -30 1e-3 -45zm383 15.3v-29.7c-127-67.7-254-135-381-204-3.2-29.9-1.07-60.2-1.67-90.3h128v60.8c128 67.4 255 135 383 202v90.1h-128v-29.7zm11.3-183c-28.1-14.3-56.8-27.3-84.6-42.2 24-13.3 48.9-25.3 73.3-37.8v-60.9h128c-0.596 30.1 1.53 60.5-1.67 90.3-34.4 19-69.8 38.2-104 55.8-3.71-1.51-7.19-3.5-10.8-5.28z" stroke-width="1.33"/>
</svg>
