<?xml version="1.0" encoding="UTF-8"?>
<svg version="1.1" viewBox="0 0 732 732" xmlns="http://www.w3.org/2000/svg">
 <path d="m2.6667 365.33v-365.33h89.333v730.67h-89.333zm310.67 363.3c-21.491-3.1282-30.937-5.9519-47.855-14.306-20.928-10.334-35.256-27.874-43.291-52.997-2.6796-8.3785-2.7864-11.792-3.2111-102.67-0.30344-64.919 0.02-96.662 1.0454-102.61 6.3318-36.699 29.085-60.965 67.312-71.785 22.881-6.4769 16.841-6.2753 188-6.2753 177.74 0 169.05-0.39752 197.33 9.0211 35.309 11.757 56.566 38.939 56.647 72.437l0.0197 8.1247-44.885 29.875c-24.687 16.431-45.538 30.475-46.335 31.209-0.79706 0.73333-21.997 14.983-47.111 31.667l-45.662 30.333-158.01-0.0584 181.33-120.61-102.67-0.41426c-122.34-0.49364-132.98 0.2139-147.63 9.8157-9.8282 6.4439-9.656 5.2918-10.105 67.598-0.25301 35.126 0.11813 58.474 1.0057 63.276 2.0403 11.037 7.1912 16 22.729 21.9 3.7857 1.4375 41.729 1.8515 201 2.1932l196.33 0.42124v95.877l-202.33-0.19014c-152.9-0.14368-205.1-0.59317-213.67-1.8398zm-94.667-419.01v-45.035l11-5.6568c6.05-3.1112 15.8-8.224 21.667-11.362 17.894-9.5705 38.107-20.318 49.333-26.232 5.8667-3.0906 13.49-7.1385 16.941-8.9954 6.2247-3.3494 6.3146-3.3572 11.333-0.98474 2.7824 1.3153 17.659 8.486 33.059 15.935 15.4 7.4489 34.715 16.768 42.922 20.709 8.2071 3.9409 14.667 7.5786 14.354 8.0837-0.31219 0.50512-11.827 6.6505-25.589 13.656-13.762 7.0059-29.971 15.273-36.021 18.371l-11 5.6329v60.914h-128zm382.67 15.337v-29.698l-8.3333-4.3061c-4.5833-2.3683-13.133-6.8809-19-10.028-5.8667-3.147-16.515-8.8559-23.663-12.686-7.1477-3.8306-15.548-8.3652-18.667-10.077-3.1189-1.7118-11.671-6.291-19.004-10.176-24.813-13.146-47.259-25.079-63-33.495-5.3167-2.8426-14.317-7.648-20-10.679-5.6833-3.0307-13.933-7.4552-18.333-9.8323-4.4-2.3771-12.8-6.8729-18.667-9.9907-5.8667-3.1178-14.267-7.6137-18.667-9.9907-4.4-2.3771-12.5-6.7198-18-9.6504-5.5-2.9306-14.5-7.7299-20-10.665-5.5-2.9351-15.4-8.2061-22-11.713-6.6-3.5072-15.6-8.2978-20-10.646-4.4-2.348-14-7.4475-21.333-11.332-7.3333-3.8847-15.885-8.4636-19.004-10.175s-11.519-6.215-18.667-10.007c-7.1477-3.7922-13.746-7.4765-14.663-8.1874-1.2742-0.98818-1.6667-11.771-1.6667-45.796v-44.503h128v60.771l9 4.7691c4.95 2.623 14.1 7.4585 20.333 10.746 6.2333 3.2871 16.433 8.6807 22.667 11.986 6.2333 3.305 17.933 9.4846 26 13.732 8.0667 4.2479 18.267 9.6551 22.667 12.016 18.724 10.047 28.777 15.393 41.333 21.98 12.377 6.4933 17.46 9.1969 42.667 22.695 5.1333 2.7489 15.333 8.14 22.667 11.98 33.781 17.69 45.196 23.721 70.333 37.159 5.3167 2.8424 15.067 8.0086 21.667 11.48 12.074 6.3513 30.908 16.362 50.667 26.929 5.8667 3.1377 15.617 8.2504 21.667 11.362l11 5.6568v90.071h-128zm11.253-182.78c-5.911-3.037-27.361-13.609-47.667-23.494s-36.916-18.285-36.911-18.667c4e-3 -0.38202 16.505-9.046 36.667-19.253l36.658-18.559v-60.883h128v44.503c0 34.015-0.39278 44.812-1.6667 45.813-0.91667 0.72043-6.4667 3.8735-12.333 7.0069-13.765 7.3519-26.293 14.097-34.667 18.665-3.6667 2.0002-12.667 6.7997-20 10.665-26.121 13.77-33.35 17.708-34.6 18.853-1.6567 1.5168-1.1006 1.7087-13.481-4.6519z" fill="#000000" stroke-width="1.3333"/>
</svg>
