<?xml version="1.0" encoding="UTF-8"?>
<svg version="1.1" viewBox="0 0 48 48" xmlns="http://www.w3.org/2000/svg">
 <path d="m27.1 1.35c-1.38-0.0463-2.78 0.277-4 0.936-1.39 0.752-2.55 1.94-3.26 3.35-0.714 1.41-0.986 3.04-0.768 4.61 0.218 1.57 0.925 3.06 2 4.22-0.558-1.03-0.824-2.22-0.758-3.39 0.066-1.17 0.463-2.33 1.13-3.29 0.67-0.965 1.61-1.74 2.69-2.21 1.08-0.472 2.28-0.641 3.45-0.48 1.63 0.224 3.16 1.1 4.18 2.4h16.2l-14.3-1.96c-1.19-2.25-3.53-3.85-6.06-4.13-0.197-0.0218-0.394-0.0344-0.592-0.041zm-25.8 2.78c-1.05 2.06-1.46 4.44-1.17 6.73 0.287 2.29 1.27 4.49 2.79 6.24 0.85 0.973 1.87 1.8 2.99 2.44l-3.17-0.893c-0.154 1.79 0.197 3.62 1 5.23 0.807 1.61 2.07 2.98 3.6 3.93 2.27 1.4 5.13 1.83 7.7 1.13-2.58 0.0173-5.14-1.27-6.67-3.34-0.864-1.17-1.41-2.58-1.55-4.03l15.1 2.47-12.2-3.43c-0.974-0.474-1.86-1.12-2.61-1.91-1.03-1.09-1.78-2.45-2.15-3.9-0.43-1.66-0.365-3.45 0.182-5.08l18 10.1zm29.3 7.87c-0.356 0.739-0.604 1.53-0.732 2.34-0.399 2.51 0.347 5.05 1.09 7.48 0.744 2.43 1.5 4.96 1.13 7.48-0.28 1.88-1.2 3.64-2.48 5.04-1.28 1.4-2.92 2.46-4.68 3.17-2.9 1.18-6.16 1.46-9.22 0.785v8.36l2.51-5.97c3.26 0.743 6.75 0.442 9.83-0.848 2.21-0.923 4.22-2.36 5.68-4.26 1.45-1.9 2.32-4.28 2.26-6.67-0.0738-2.87-1.43-5.54-2.75-8.1-1.31-2.56-2.65-5.24-2.66-8.12-0.0018-0.232 0.0053-0.464 0.0215-0.695z"/>
</svg>
