<?xml version="1.0" encoding="UTF-8"?>
<svg version="1.1" viewBox="0 0 48 48" xmlns="http://www.w3.org/2000/svg">
 <title>LXQt logo</title>
 <g transform="translate(-559.99 -445.49)">
  <g transform="matrix(.18027 0 0 .18013 379.71 155.64)" fill="#000000">
   <path d="m1116.9 1689.4c-5.9501-6.4533-9.8718-14.75-11.081-23.444s0.2983-17.746 4.2608-25.579 10.362-14.41 18.083-18.586c7.7206-4.1761 16.728-5.9321 25.452-4.9618 14.031 1.5606 27.044 10.436 33.618 22.93l79.054 10.904h-90.101c-5.6213-7.1952-14.113-12.082-23.158-13.327-6.4597-0.889-13.16 0.045-19.131 2.6661-5.9705 2.6213-11.193 6.9222-14.91 12.279-3.7173 5.3573-5.9185 11.755-6.2844 18.265s1.1045 13.114 4.1982 18.854z"/>
   <g transform="translate(15,2)">
    <path d="m1113 1717-121-87c-5.7969 11.449-8.0911 24.642-6.4994 37.375 1.5917 12.734 7.0628 24.956 15.499 34.625 11.065 12.682 27.23 20.781 44.012 22.051-7.9223-2.5599-15.179-7.1499-20.887-13.211-5.7079-6.0609-9.8546-13.58-11.935-21.642-2.383-9.2343-2.0312-19.156 1-28.199z"/>
    <path d="m1106.3 1740.5-106.32-29.917c-0.85695 9.9442 1.0942 20.115 5.5701 29.036 4.476 8.9212 11.463 16.566 19.947 21.823 12.586 7.7995 28.434 10.132 42.733 6.2881-14.325 0.096-28.517-7.0219-37.007-18.56-4.7934-6.514-7.8065-14.325-8.6296-22.37z"/>
   </g>
   <path d="m1169.8 1675.7c-1.9753 4.1002-3.3486 8.4898-4.0625 12.985-2.2142 13.942 1.9287 28.024 6.0575 41.523 4.1289 13.499 8.3376 27.547 6.255 41.508-1.5555 10.428-6.6401 20.189-13.757 27.968s-16.2 13.629-25.962 17.612c-16.08 6.5616-34.167 8.1034-51.125 4.3581v46.412l13.946-33.13c18.074 4.1247 37.423 2.4559 54.523-4.7024 12.247-5.1268 23.421-13.109 31.478-23.662 8.0567-10.553 12.863-23.739 12.522-37.012-0.4093-15.956-7.944-30.744-15.237-44.941-7.2927-14.197-14.682-29.099-14.763-45.059-0.01-1.2875 0.035-2.5753 0.125-3.8597z"/>
  </g>
 </g>
</svg>
