<svg clip-rule="evenodd" fill-rule="evenodd" version="1.1" viewBox="0 0 632.34 663.64" xml:space="preserve" xmlns="http://www.w3.org/2000/svg"><defs><clipPath id="a"><rect width="906.67" height="1351.1"/></clipPath></defs><path transform="translate(-138.33 -150)" d="m454.5 150c-119.9 38.686-204.84 65.975-316.17 102.24l34.121 369.94 281.9 191.46c3e-3 0 0.128-0.082 0.148-0.091 0.019 0.011 0.144 0.092 0.147 0.091l281.9-191.46 34.121-369.94c-111.33-36.263-196.27-63.552-316.17-102.24zm-1e-3 6.049h1e-3c1.523-0.432 297.82 98.063 297.45 98.433-0.718 0.719-296.36 133.66-297.31 133.68l-0.139-0.064-0.142 0.064c-0.946-0.029-296.59-132.97-297.31-133.68-0.37-0.37 295.93-98.865 297.45-98.433zm-0.012 14.97-254.15 85.695c0.258 0.258 170.58 76.494 174.84 78.257 2.581-0.14 0.648-69.533 1.314-77.03h28.366c0.128 30.129 0.256 60.259 0.384 90.389l49.264 21.448 49.264-21.448c0.129-30.13 0.257-60.26 0.385-90.389h28.366c0.665 7.497-1.269 76.889 1.312 77.03 4.257-1.763 174.58-77.999 174.84-78.257l-254.15-85.695-0.012 3e-3zm-308.02 94.991 298.08 137.29 0.767 392.19-266.43-178.28zm616.07 0-32.41 351.21-266.43 178.28 0.766-392.19zm-594.39 37.289c-0.318 0.317 25.492 304.41 25.922 304.68l56.424 35.966-13.631-215.99 18.904 9.838 14.406 219.44 63.39 41.385c-0.93-74.982-7.186-146.69-8.045-223.71l20.362 10.084 8.116 226.89 69.709 44.754-4.581-333.83c-0.999-1.011-250.61-119.87-250.98-119.51zm572.7 0c-0.363-0.363-249.98 118.5-250.98 119.51l-4.581 333.83 69.709-44.754 8.116-226.89 20.362-10.084c-0.859 77.027-7.115 148.73-8.045 223.71l63.39-41.385 14.406-219.44 18.903-9.838-13.63 215.99 56.424-35.966c0.43-0.273 26.24-304.37 25.922-304.68z" clip-path="url(#a)"/></svg>
