<?xml version="1.0" encoding="UTF-8" standalone="no"?>
<svg
   width="512"
   height="512"
   id="svg3037"
   version="1.1"
   xmlns="http://www.w3.org/2000/svg"
   xmlns:svg="http://www.w3.org/2000/svg"
   xmlns:rdf="http://www.w3.org/1999/02/22-rdf-syntax-ns#"
   xmlns:cc="http://creativecommons.org/ns#"
   xmlns:dc="http://purl.org/dc/elements/1.1/">
  <defs
     id="defs5498" />
  <metadata
     id="metadata5594">
    <rdf:RDF>
      <cc:Work
         rdf:about="">
        <dc:format>image/svg+xml</dc:format>
        <dc:type
           rdf:resource="http://purl.org/dc/dcmitype/StillImage" />
      </cc:Work>
    </rdf:RDF>
  </metadata>
  <path
     d="m 219.33737,198.08776 h -0.0239 c -15.97169,0 -28.97857,-12.98891 -28.99549,-28.94959 -0.0239,-16.01383 12.98515,-29.02203 28.97134,-29.03898 15.99581,0 29.0003,12.98891 29.01959,28.94958 0,16.01386 -12.9851,29.02448 -28.97129,29.0414 v 0 z"
     id="path3042-0-6-4" />
  <path
     d="m 297.64733,176.82681 c -14.91385,0 -27.0526,-12.1259 -27.06244,-27.02678 -0.0239,-14.94027 12.11413,-27.08585 27.03786,-27.09813 14.93352,0 27.07228,12.1234 27.087,27.02429 0,14.94025 -12.11655,27.08585 -27.03781,27.10062 h -0.0239 z"
     id="path3056-6-4-1" />
  <path
     d="m 275.37192,99.551046 c 0,13.344804 -10.8181,24.162904 -24.1629,24.162904 -13.34481,0 -24.16291,-10.8181 -24.16291,-24.162904 0,-13.344802 10.8181,-24.162903 24.16291,-24.162903 13.3448,0 24.1629,10.818101 24.1629,24.162903 z"
     id="path4104" />
  <path
     d="m 312.09952,58.957377 c 0,12.27722 -9.95265,22.229872 -22.22987,22.229872 -12.27722,0 -22.22987,-9.952652 -22.22987,-22.229872 0,-12.277218 9.95265,-22.229871 22.22987,-22.229871 12.27722,0 22.22987,9.952653 22.22987,22.229871 z"
     id="path4106" />
  <path
     id="path4132"
     d="m 261.84069,19.330224 c 0,10.675843 -8.65448,19.330324 -19.33032,19.330324 -10.67584,0 -19.33032,-8.654481 -19.33032,-19.330324 0,-10.6758411 8.65448,-19.330323408982 19.33032,-19.330323408982 10.67584,0 19.33032,8.654482308982 19.33032,19.330323408982 z" />
  <path
     id="path3347-1"
     d="m 138.54019,224.20885 c -25.01318,32.4213 -45.299203,68.88782 -45.299203,113.06465 0,95.75577 72.663343,174.72658 162.758993,174.72658 90.09294,0 162.75899,-78.97041 162.75899,-174.72658 0,-44.18557 -20.31828,-79.49338 -46.74574,-113.0646 -9.90973,-10.39894 -24.21656,-8.85275 -34.63174,-2.19859 -30.47653,15.76979 -46.92747,22.07045 -81.38151,21.91612 -33.32256,-0.14935 -50.83028,-5.5913 -81.30848,-22.20547 -10.41519,-6.36481 -26.24161,-7.91105 -36.15131,2.48789 z m 21.71921,26.89812 c 31.59027,17.46677 59.76393,26.32867 95.74058,26.32867 36.00708,0 64.13408,-8.86202 95.74058,-26.32867 17.24647,24.31775 33.50921,54.47137 33.50921,86.16653 0,78.51037 -57.86396,141.21737 -129.24979,141.21737 -71.38925,0 -131.6433,-62.70659 -131.6433,-141.21737 0,-31.65332 18.61864,-61.82975 35.90272,-86.16653 z" />
</svg>
