<?xml version="1.0" encoding="UTF-8" standalone="no"?>
<svg
   width="512"
   height="512"
   id="svg3037"
   version="1.1"
   xmlns="http://www.w3.org/2000/svg"
   xmlns:svg="http://www.w3.org/2000/svg"
   xmlns:rdf="http://www.w3.org/1999/02/22-rdf-syntax-ns#"
   xmlns:cc="http://creativecommons.org/ns#"
   xmlns:dc="http://purl.org/dc/elements/1.1/">
  <defs
     id="defs5498" />
  <metadata
     id="metadata5594">
    <rdf:RDF>
      <cc:Work
         rdf:about="">
        <dc:format>image/svg+xml</dc:format>
        <dc:type
           rdf:resource="http://purl.org/dc/dcmitype/StillImage" />
      </cc:Work>
    </rdf:RDF>
  </metadata>
  <g
     id="layer3">
    <g
       transform="translate(-62.655652,150.77721)"
       id="layer1">
      <g
         id="g4434"
         transform="matrix(1.8356672,0,0,1.8356672,-47.148633,170.10515)">
        <path
           id="path3064"
           d="m 229.46674,-129.81383 c -0.75476,-4.86053 -3.56544,-5.45159 -6.24114,-1.31207 l -31.78166,49.253156 c -2.66983,4.121495 -8.82923,6.87328 -13.68913,6.088133 l -57.87237,-9.320521 c -4.87143,-0.789967 -6.2992,1.697308 -3.18481,5.510067 l 37.0159,45.453812 c 3.10285,3.822611 3.81758,10.515847 1.57029,14.905834 l -26.75387,52.157528 c -2.24079,4.390825 -0.32089,6.511307 4.25752,4.736239 l 54.67498,-21.165835 c 4.59057,-1.768571 11.18383,-0.374967 14.66187,3.104535 l 41.33064,41.570418 c 3.47258,3.502557 6.09044,2.343282 5.81587,-2.575724 L 246.03886,0.04992151 c -0.27038,-4.90433521 3.08525,-10.74996551 7.48676,-12.97294051 l 52.31515,-26.464839 c 4.39313,-2.231778 4.08921,-5.076833 -0.677,-6.346775 l -56.66006,-15.006439 c -4.7614,-1.259253 -9.27022,-6.283896 -10.02603,-11.14233 l -9.01094,-57.930428" />
        <path
           id="path3068"
           d="m 325.30385,-64.628448 -10.12978,18.601639" />
        <path
           id="path3070"
           d="m 325.30385,-64.628448 -10.12978,18.601639" />
        <path
           id="path3072"
           d="m 325.30594,-64.62761 c -1.99535,0.04422 -3.13975,0.189056 -3.74548,1.212513 -0.65603,1.108553 -3.69937,6.792165 -3.69937,6.792165 0,0 -3.12297,5.641065 -3.69727,6.792166 -0.53028,1.066005 -0.0335,2.104134 1.01235,3.804795 1.99326,-0.0459 3.13765,-0.190942 3.74338,-1.215028 0.65604,-1.108552 3.69728,-6.792375 3.69728,-6.792375 0,0 3.12298,-5.640226 3.69936,-6.793004 0.53028,-1.064328 0.0314,-2.102457 -1.01025,-3.801232" />
        <path
           id="path3074"
           d="m 338.73475,-43.205439 -21.57999,0.222591" />
        <path
           id="path3076"
           d="m 338.73475,-43.205439 -21.57999,0.222591" />
        <path
           id="path3078"
           d="m 338.73475,-43.203971 c -1.02911,-1.75369 -1.72707,-2.698548 -2.93853,-2.730407 -1.31207,-0.03102 -7.87871,0.08195 -7.87871,0.08195 0,0 -6.57084,0.02117 -7.88291,0.0809 -1.20936,0.05743 -1.88636,1.016122 -2.87984,2.791189 1.02911,1.750336 1.72497,2.695195 2.93853,2.726424 1.31207,0.03354 7.87871,-0.08195 7.87871,-0.08195 0,0 6.57083,-0.02054 7.88291,-0.08111 1.20936,-0.0547 1.88636,-1.015073 2.87984,-2.786997" />
        <path
           id="path3080"
           d="M 327.00157,-21.472227 315.53248,-39.82256" />
        <path
           id="path3082"
           d="M 327.00157,-21.472227 315.53248,-39.82256" />
        <path
           id="path3084"
           d="m 326.99948,-21.47055 c 0.96414,-1.798752 1.40639,-2.887603 0.80065,-3.94229 -0.65813,-1.139573 -4.18772,-6.701201 -4.18772,-6.701201 0,0 -3.45205,-5.609206 -4.18773,-6.699734 -0.68119,-1.00627 -1.85492,-1.085707 -3.89429,-1.007947 -0.95995,1.796237 -1.40429,2.886974 -0.79647,3.939775 0.65604,1.139783 4.18773,6.701411 4.18773,6.701411 0,0 3.45204,5.609835 4.18773,6.701201 0.68118,1.004593 1.85492,1.084868 3.8901,1.008785" />
        <path
           id="path3086"
           d="m 301.80185,-21.130795 10.10462,-18.586129" />
        <path
           id="path3088"
           d="m 301.80185,-21.130795 10.10462,-18.586129" />
        <path
           id="path3090"
           d="m 301.79976,-21.130795 c 1.99326,-0.04506 3.13555,-0.192409 3.74129,-1.213351 0.65184,-1.109391 3.68888,-6.787345 3.68888,-6.787345 0,0 3.1146,-5.636873 3.69099,-6.787345 0.52818,-1.064328 0.0293,-2.10078 -1.01654,-3.798926 -1.98907,0.04674 -3.13137,0.192409 -3.735,1.214189 -0.65394,1.108553 -3.69099,6.787345 -3.69099,6.787345 0,0 -3.11459,5.636244 -3.68888,6.789022 -0.53028,1.061813 -0.0314,2.099941 1.01025,3.796411" />
        <path
           id="path3092"
           d="m 309.91741,-42.778072 0,0" />
        <path
           id="path3094"
           d="m 300.09155,-64.278004 11.47119,18.355993" />
        <path
           id="path3096"
           d="m 300.09155,-64.278004 11.47119,18.355993" />
        <path
           id="path3098"
           d="m 300.09365,-64.278842 c -0.96205,1.797914 -1.40849,2.887603 -0.80066,3.94208 0.65813,1.140621 4.18773,6.703926 4.18773,6.703926 0,0 3.45204,5.610673 4.18772,6.702039 0.68329,1.007109 1.85702,1.084869 3.89639,1.007947 0.95995,-1.797075 1.4043,-2.886974 0.79647,-3.940613 -0.65604,-1.139783 -4.18773,-6.702878 -4.18773,-6.702878 0,0 -3.45204,-5.61256 -4.18773,-6.702249 -0.68118,-1.008785 -1.85702,-1.086545 -3.89219,-1.010252" />
        <path
           id="path3108"
           d="M 88.233453,-87.638309 C 71.983271,-69.331362 62.567802,-47.429425 60.362224,-23.048179 58.207369,0.78099211 62.033961,31.610457 79.196305,49.696281 110.79624,82.999062 169.51413,45.958766 197.21286,25.831688 202.7072,21.840353 206.5143,15.544301 211.97449,11.577698 182.74906,32.813957 127.41804,67.3277 93.957308,35.442081 76.621419,18.924035 74.091596,-11.813627 74.923273,-34.161793 c 0.941714,-25.298858 11.387766,-48.93562 28.072017,-67.730507 -4.517836,5.088361 -10.228487,9.146767 -14.761837,14.253991" />
      </g>
    </g>
  </g>
</svg>
