<svg version="1.1" viewBox="0 0 512 361.76" xmlns="http://www.w3.org/2000/svg"><g transform="translate(-9.5215e-6 -75.119)"><g transform="translate(-62.656 150.78)"><g transform="matrix(1.8357 0 0 1.8357 -47.149 170.11)"><path d="m229.47-129.81c-0.75476-4.8605-3.5654-5.4516-6.2411-1.3121l-31.782 49.253c-2.6698 4.1215-8.8292 6.8733-13.689 6.0881l-57.872-9.3205c-4.8714-0.78997-6.2992 1.6973-3.1848 5.5101l37.016 45.454c3.1028 3.8226 3.8176 10.516 1.5703 14.906l-26.754 52.158c-2.2408 4.3908-0.32089 6.5113 4.2575 4.7362l54.675-21.166c4.5906-1.7686 11.184-0.37497 14.662 3.1045l41.331 41.57c3.4726 3.5026 6.0904 2.3433 5.8159-2.5757l-3.232-58.542c-0.27038-4.9043 3.0852-10.75 7.4868-12.973l52.315-26.465c4.3931-2.2318 4.0892-5.0768-0.677-6.3468l-56.66-15.006c-4.7614-1.2593-9.2702-6.2839-10.026-11.142l-9.0109-57.93"/><path d="m325.3-64.628-10.13 18.602"/><path d="m325.3-64.628-10.13 18.602"/><path d="m325.31-64.628c-1.9954 0.04422-3.1398 0.18906-3.7455 1.2125-0.65603 1.1086-3.6994 6.7922-3.6994 6.7922s-3.123 5.6411-3.6973 6.7922c-0.53028 1.066-0.0335 2.1041 1.0124 3.8048 1.9933-0.0459 3.1376-0.19094 3.7434-1.215 0.65604-1.1086 3.6973-6.7924 3.6973-6.7924s3.123-5.6402 3.6994-6.793c0.53028-1.0643 0.0314-2.1025-1.0102-3.8012"/><path d="m338.73-43.205-21.58 0.22259"/><path d="m338.73-43.205-21.58 0.22259"/><path d="m338.73-43.204c-1.0291-1.7537-1.7271-2.6985-2.9385-2.7304-1.3121-0.03102-7.8787 0.08195-7.8787 0.08195s-6.5708 0.02117-7.8829 0.0809c-1.2094 0.05743-1.8864 1.0161-2.8798 2.7912 1.0291 1.7503 1.725 2.6952 2.9385 2.7264 1.3121 0.03354 7.8787-0.08195 7.8787-0.08195s6.5708-0.02054 7.8829-0.08111c1.2094-0.0547 1.8864-1.0151 2.8798-2.787"/><path d="m327-21.472-11.469-18.35"/><path d="m327-21.472-11.469-18.35"/><path d="m327-21.471c0.96414-1.7988 1.4064-2.8876 0.80065-3.9423-0.65813-1.1396-4.1877-6.7012-4.1877-6.7012s-3.452-5.6092-4.1877-6.6997c-0.68119-1.0063-1.8549-1.0857-3.8943-1.0079-0.95995 1.7962-1.4043 2.887-0.79647 3.9398 0.65604 1.1398 4.1877 6.7014 4.1877 6.7014s3.452 5.6098 4.1877 6.7012c0.68118 1.0046 1.8549 1.0849 3.8901 1.0088"/><path d="m301.8-21.131 10.105-18.586"/><path d="m301.8-21.131 10.105-18.586"/><path d="m301.8-21.131c1.9933-0.04506 3.1356-0.19241 3.7413-1.2134 0.65184-1.1094 3.6889-6.7873 3.6889-6.7873s3.1146-5.6369 3.691-6.7873c0.52818-1.0643 0.0293-2.1008-1.0165-3.7989-1.9891 0.04674-3.1314 0.19241-3.735 1.2142-0.65394 1.1086-3.691 6.7873-3.691 6.7873s-3.1146 5.6362-3.6889 6.789c-0.53028 1.0618-0.0314 2.0999 1.0102 3.7964"/><path d="m309.92-42.778"/><path d="m300.09-64.278 11.471 18.356"/><path d="m300.09-64.278 11.471 18.356"/><path d="m300.09-64.279c-0.96205 1.7979-1.4085 2.8876-0.80066 3.9421 0.65813 1.1406 4.1877 6.7039 4.1877 6.7039s3.452 5.6107 4.1877 6.702c0.68329 1.0071 1.857 1.0849 3.8964 1.0079 0.95995-1.7971 1.4043-2.887 0.79647-3.9406-0.65604-1.1398-4.1877-6.7029-4.1877-6.7029s-3.452-5.6126-4.1877-6.7022c-0.68118-1.0088-1.857-1.0865-3.8922-1.0103"/><path d="m88.233-87.638c-16.25 18.307-25.666 40.209-27.871 64.59-2.1549 23.829 1.6717 54.659 18.834 72.744 31.6 33.303 90.318-3.7375 118.02-23.865 5.4943-3.9913 9.3014-10.287 14.762-14.254-29.225 21.236-84.556 55.75-118.02 23.864-17.336-16.518-19.866-47.256-19.034-69.604 0.94171-25.299 11.388-48.936 28.072-67.731-4.5178 5.0884-10.228 9.1468-14.762 14.254"/></g></g></g></svg>
