<?xml version="1.0" encoding="UTF-8"?>
<svg version="1.1" viewBox="0 0 48 48" xmlns="http://www.w3.org/2000/svg">
 <path d="m46.9 8.06c-0.737 0.0243-0.524 0.356-2.12 0.75-1.61 0.397-3.56 0.154-5.29 0.883-4.53 1.9-5.27 9.25-10.7 12.1-3.54 2-7.15 2.46-10.4 3.47-2.59 1.04-4.2 1.73-6.1 3.37-1.47 1.27-1.83 2.5-3.37 4.1-1.56 2.12-7.49 0.238-9.01 2.9 0.804 0.521 1.27 0.664 2.68 0.478-0.292 0.553-2.15 1.28-1.81 2.1 0 0 4.49 0.818 8.27-1.47 1.77-0.718 3.42-2.24 6.16-2.6 3.55-0.472 7.55 0.745 11.8 1.09-0.888 1.75-1.8 2.79-2.78 4.24-0.302 0.327 0.259 0.615 1.3 0.418 1.87-0.464 3.23-0.966 4.58-1.9 1.76-1.21 2.51-2.32 3.99-4.08 1.29 2.06 5.83 2.52 6.76 0.734-1.73-0.734-2.1-4.55-1.51-6.2 0.702-1.57 1.21-3.79 1.77-5.86 0.51-1.86 0.826-4.7 1.44-6.15 0.729-1.81 2.15-2.37 3.21-3.33 1.06-0.958 2.12-1.76 2.09-3.95-0.0108-0.713-0.378-1.11-1.05-1.08zm-1.16 0.894c0.181 0.615 0.462 0.896 1.68 1.01-0.178 1.55-1.21 2.39-2.37 3.2-1.02 0.713-2.13 1.4-2.85 2.52-0.734 1.14-1.9 4.46-3.04 8.32-0.982 3.34-2.13 5.61-4.55 7.61-0.3-0.718 0.34-1.14 0.0617-1.8-0.351 0.993-1.12 2.44-1.58 3.32-1.52 2.91-4.04 5.26-7.8 5.92 1.79-2.42 3.57-5.08 3.79-9.25-0.802 0.173-0.864 2.33-2.16 3.12-0.829 0.0891-1.99-0.103-3.14-0.24-3.45-0.408-6.93-0.564-10.2 0.478-2.21 0.707-4.71 2.9-6.58 3.71-2.2 0.955-2.96 1.03-5.74 0.945-0.348-0.467 2-1.07 1.87-2.09-1.07-0.116-1.7 0.143-2.63-0.28 0.103-0.189 0.257-0.346 0.445-0.478 1.71-1.18 6.56-0.281 7.85-1.55 0.802-0.785 1.33-1.61 1.87-2.41 0.529-0.777 1.07-1.53 1.91-2.21 0.308-0.251 0.788-0.683 1.14-0.926 1.42-0.969 3.02-1.66 4.75-2.27 2.35-0.826 4.72-1.1 7.23-2.06 1.55-0.591 3.01-1.15 4.39-2.18 0.324-0.243 0.813-0.653 1.1-0.932 4.44-4.38 4.72-10.4 10.8-11 0.74-0.0756 1.34-0.0513 1.89-0.0675 0.634-0.0189 1.2-0.0942 1.81-0.437zm-0.145 0.39c-0.0364-0.00132-0.0986 0.0303-0.187 0.112-0.532 0.543-1.58 1.77-1.96 2.91-0.0972 0.31 0.0975 0.221 0.165 0.0216 0.378-1.17 1.58-2.45 1.94-2.84 0.0894-0.103 0.102-0.197 0.0411-0.199zm-0.029 0.265c-0.0363 0.00418-0.0938 0.045-0.169 0.139-0.448 0.613-1.31 1.54-1.53 2.72-0.054 0.318 0.127 0.205 0.164-0.0026 0.211-1.21 1.21-2.22 1.53-2.65 0.0742-0.116 0.0726-0.211 0.0122-0.204zm0.256 0.241c-0.0354 0.00571-0.0894 0.0506-0.158 0.152-0.397 0.65-0.918 1.4-1.04 2.59-0.027 0.324 0.146 0.195 0.164-0.0158 0.105-1.23 0.759-2.06 1.03-2.52 0.0577-0.109 0.0565-0.196 0.0127-0.203-0.0043-7.29e-4 -0.0092-8.1e-4 -0.0142 0zm0.265 0.181c-0.0347-0.0029-0.0903 0.0439-0.158 0.166-0.337 0.68-0.656 1.2-0.667 2.4 0.0027 0.327 0.159 0.18 0.162-0.03 0-1.23 0.44-1.85 0.669-2.33 0.0471-0.114 0.0376-0.2-0.0068-0.203zm-3.94 0.588c-1.12-0.0062-1.78 0.454-1.99 1.36 0.864 0.75 2.68 0.148 2.35-1.34-0.126-0.0106-0.247-0.0162-0.363-0.0169z" stroke-width=".27"/>
</svg>
