<?xml version="1.0" encoding="UTF-8"?>
<svg version="1.0" viewBox="0 0 96 96" xmlns="http://www.w3.org/2000/svg" xmlns:xlink="http://www.w3.org/1999/xlink">
 <g transform="matrix(2.2203 0 0 2.2203 -5.287 -6.4986)" fill="#000000">
  <path d="m3.0334 11.648 21.638 12.77-21.654 12.78z" fill-rule="evenodd"/>
  <path d="m44.983 24.546c0-11.316-9.17-20.5-20.469-20.5-6.5242 0-12.313 3.0771-16.062 7.8438l2.5625 1.625c3.1985-3.9148 8.0855-6.4062 13.531-6.4062 9.6255-1e-7 17.438 7.812 17.438 17.438s-7.812 17.438-17.438 17.438c-5.43 0-10.301-2.4797-13.5-6.375l-2.5625 1.625c3.7499 4.7469 9.5228 7.8125 16.031 7.8125 11.299 0 20.469-9.184 20.469-20.5z"/>
  <path d="m37.046 24.577c0-6.9172-5.614-12.531-12.531-12.531-3.6828 0-6.9878 1.5929-9.2812 4.125l2.6562 1.6562c1.7085-1.6874 4.0442-2.7188 6.625-2.7188 5.2267 0 9.4688 4.27 9.4688 9.5312 0 5.2613-4.242 9.5312-9.4688 9.5312-2.6289 1e-6 -5.0025-1.0693-6.7188-2.8125l-2.5625 1.625c2.2934 2.5321 5.5985 4.125 9.2812 4.125 6.9172 0 12.531-5.614 12.531-12.531z"/>
 </g>
</svg>
