<?xml version="1.0" encoding="UTF-8"?>
<svg version="1.0" viewBox="0 0 48 48" xmlns="http://www.w3.org/2000/svg">
 <path d="m24.7 0.759c-7.39 0-13.9 3.49-18.2 8.88l2.91 1.84c3.62-4.44 9.17-7.26 15.3-7.26 10.9-2e-7 19.8 8.86 19.8 19.8s-8.86 19.8-19.8 19.8c-6.15 0-11.7-2.82-15.3-7.22l-2.91 1.84c4.24 5.37 10.8 8.86 18.2 8.86 12.8 0 23.1-10.4 23.1-23.3v-2e-3c0-14.3-11.6-23.2-23.1-23.2zm-24.4 8.61-0.0179 28.9 24.6-14.5zm24.4 0.451c-4.17 0-7.93 1.8-10.5 4.68l3.02 1.88c1.94-1.91 4.57-3.09 7.5-3.09 5.93 0 10.7 4.84 10.7 10.8 0 5.97-4.82 10.8-10.7 10.8-2.97 2e-6 -5.66-1.21-7.61-3.2l-2.91 1.84c2.6 2.86 6.35 4.68 10.5 4.68 7.84 0 14.2-6.37 14.2-14.2s-6.37-14.2-14.2-14.2z"/>
</svg>
