<svg version="1.1" viewBox="0 0 56 56" xmlns="http://www.w3.org/2000/svg"><circle cx="28" cy="29" r="28" display="none" opacity=".2"/><path d="m28 0a28 28 0 0 0-28 28 28 28 0 0 0 28 28 28 28 0 0 0 28-28 28 28 0 0 0-28-28zm-5.6875 8.2559c-3.5371 3.8626-5.3031 8.9071-5.3125 14.145 0 8.6467 5.2277 16.125 12.693 19.373-0.65959-1.1888-1.5666-2.9878-1.7031-4.2598-0.2119-1.975 1.5311-3.6448 1.4844-4.3027-0.06926-0.9749-1.8273-1.7211-1.3398-2.2383 0.6659-0.70654 2.188 1.0416 2.2969 1.9863 0.18544 1.6096-1.5786 2.8283-1.4844 4.4551 0.09317 1.6089 2.7422 3.8496 2.7422 3.8496s-0.59238-1.7326-0.55273-2.6172c0.12795-2.8545 0.45429-5.7666 5.5273-7.2129 0.69406-0.19787 1.4828-0.90201 2.1152-1.4336 0.63247-0.53159 1.2099-0.89042 1.2578-1.6367 0.11217-1.7469 1.9629-2.418 1.9629-2.418 0 1e-6 -0.09604-1.8824 0.25195-1.9102 0.8524-0.06808 1.3086 1.8613 1.3086 1.8613s0.85262 0.43456 1.084 0.72656c0.27092 0.34193 0.17822 0.83393 0.4043 1.207 0.27164 0.44831 1.0025 0.77362 1.0059 1.209 0.0059 0.7509-0.53532 1.4007-1.0586 1.6973-0.51212 0.29025-1.5957 0.69336-1.5957 0.69336s0.1253 1.425 0.12305 3.0488c-0.0015 1.1136-0.94148 1.8262-1.2129 2.9062-0.36024 1.4335-0.39548 2.9299-0.0918 4.3672 0.07647 0.3619 0.96635 0.56416 0.90625 0.96875 0.58615-0.16985 1.1706-0.36208 1.7617-0.57617-3.9713 4.3578-9.5904 6.8458-15.486 6.8555-11.598 0-21.4-9.402-21.4-21 0.0097-8.857 5.9752-16.755 14.312-19.744zm18.086 31.732c-0.18546 0.01964-0.379 0.14643-0.45313 0.31836-0.43714 1.0139-0.79469 2.7133-0.88086 3.1328 0.65371-0.04366 1.2986-0.11699 1.9316-0.23047-0.0055-0.19262-0.05729-1.9461-0.19727-2.9004-0.03699-0.25219-0.21493-0.33996-0.40039-0.32031z"/><path d="M 28,0 A 28,28 0 0 0 0,28 28,28 0 0 0 0.0215,28.586 28,28 0 0 1 28,1 28,28 0 0 1 55.979,28.414 28,28 0 0 0 56,28 28,28 0 0 0 28,0 Z" display="none" fill="#fff" opacity=".1"/><path d="m22.312 9.2559c-8.3373 2.9892-14.303 10.887-14.312 19.744 0 11.598 9.8024 21 21.4 21 5.8959-0.0097 11.515-2.4976 15.486-6.8555-0.59111 0.21409-1.1756 0.40632-1.7617 0.57617 0.0601-0.40459-0.82978-0.60685-0.90625-0.96875-0.30368-1.4373-0.26845-2.9337 0.0918-4.3672 0.27142-1.08 1.2114-1.7926 1.2129-2.9062 0.0023-1.6238-0.12305-3.0488-0.12305-3.0488s1.0836-0.40311 1.5957-0.69336c0.52327-0.29657 1.0645-0.94637 1.0586-1.6973-0.0034-0.43537-0.73422-0.76067-1.0059-1.209-0.22607-0.3731-0.13338-0.8651-0.4043-1.207-0.23136-0.292-1.084-0.72656-1.084-0.72656s-0.4562-1.9294-1.3086-1.8613c-0.348 0.027796-0.25196 1.9102-0.25196 1.9102s-1.8507 0.67109-1.9629 2.418c-0.04792 0.7463-0.62534 1.1051-1.2578 1.6367-0.63247 0.53159-1.4212 1.2357-2.1152 1.4336-5.0731 1.4463-5.3994 4.3584-5.5273 7.2129-0.03965 0.88458 0.55273 2.6172 0.55273 2.6172s-2.649-2.2408-2.7422-3.8496c-0.0942-1.6268 1.6698-2.8455 1.4844-4.4551-0.10884-0.94469-1.631-2.6929-2.2969-1.9863-0.48745 0.51721 1.2706 1.2634 1.3398 2.2383 0.04673 0.65791-1.6963 2.3278-1.4844 4.3027 0.13648 1.272 1.0435 3.0709 1.7031 4.2598-7.4656-3.2478-12.693-10.726-12.693-19.373 0.0094-5.2374 1.7754-10.282 5.3125-14.145zm18.086 31.732c0.18546-0.01964 0.3634 0.06812 0.40039 0.32031 0.13997 0.95426 0.19176 2.7078 0.19727 2.9004-0.63304 0.11348-1.2779 0.1868-1.9316 0.23047 0.08617-0.41953 0.44372-2.1189 0.88086-3.1328 0.07413-0.17193 0.26767-0.29872 0.45313-0.31836z" display="none" opacity=".2"/></svg>
