<?xml version="1.0" encoding="UTF-8"?>
<svg width="48" height="48" version="1.1" viewBox="0 0 45 45" xmlns="http://www.w3.org/2000/svg">
 <g transform="matrix(.805 0 0 .805 -3.26 -799)">
  <path d="m32 992a27.9 27.9 0 0 0-27.9 27.9 27.9 27.9 0 0 0 27.9 27.9 27.9 27.9 0 0 0 27.9-27.9 27.9 27.9 0 0 0-27.9-27.9zm0.727 1.14a26 26 0 0 1 26 25.9 26 26 0 0 1-26 26 26 26 0 0 1-25.9-26 26 26 0 0 1 25.9-25.9zm1.5 4.24a20 20 0 0 0-20 20 20 20 0 0 0 20 20 20 20 0 0 0 20-20 20 20 0 0 0-20-20zm-2.59 9.84a12.8 12.8 0 0 1 12.9 12.8 12.8 12.8 0 0 1-12.9 12.8 12.8 12.8 0 0 1-12.8-12.8 12.8 12.8 0 0 1 12.8-12.8zm-3.26 7.08v11.4l9.22-5.86z" fill="#000000"/>
 </g>
</svg>
