<?xml version="1.0" encoding="UTF-8"?>
<svg width="48" height="48" version="1.1" viewBox="0 0 45 45" xmlns="http://www.w3.org/2000/svg">
 <path d="m22.5 0.0405a22.5 22.5 0 0 0-22.5 22.5 22.5 22.5 0 0 0 22.5 22.5 22.5 22.5 0 0 0 22.5-22.5 22.5 22.5 0 0 0-22.5-22.5zm0.585 0.918a20.9 20.9 0 0 1 20.9 20.8 20.9 20.9 0 0 1-20.9 20.9 20.9 20.9 0 0 1-20.8-20.9 20.9 20.9 0 0 1 20.8-20.8zm1.21 3.41a16.1 16.1 0 0 0-16.1 16.1 16.1 16.1 0 0 0 16.1 16.1 16.1 16.1 0 0 0 16.1-16.1 16.1 16.1 0 0 0-16.1-16.1zm-2.08 7.92a10.3 10.3 0 0 1 10.4 10.3 10.3 10.3 0 0 1-10.4 10.3 10.3 10.3 0 0 1-10.3-10.3 10.3 10.3 0 0 1 10.3-10.3zm-2.62 5.7v9.18l7.42-4.72z" fill="#000000" stroke-width=".805"/>
</svg>
