<?xml version="1.0" encoding="UTF-8"?>
<svg version="1.1" viewBox="0 0 48 48" xmlns="http://www.w3.org/2000/svg">
 <path d="m24 0a24 24 0 0 0-24 24 24 24 0 0 0 24 24 24 24 0 0 0 24-24 24 24 0 0 0-24-24zm0.624 0.979a22.3 22.3 0 0 1 22.3 22.2 22.3 22.3 0 0 1-22.3 22.3 22.3 22.3 0 0 1-22.2-22.3 22.3 22.3 0 0 1 22.2-22.2zm1.29 3.64a17.2 17.2 0 0 0-17.2 17.2 17.2 17.2 0 0 0 17.2 17.2 17.2 17.2 0 0 0 17.2-17.2 17.2 17.2 0 0 0-17.2-17.2zm-2.22 8.45a11 11 0 0 1 11.1 11 11 11 0 0 1-11.1 11 11 11 0 0 1-11-11 11 11 0 0 1 11-11zm-2.79 6.08v9.79l7.91-5.03z" fill="#000000"/>
</svg>
