<svg version="1.1" viewBox="0 0 48 48" xmlns="http://www.w3.org/2000/svg">
 <path class="st1" d="m24 43.1c-7.92-0.00425-15.8 0.0085-23.8-0.0064 1-1.52 2.57-3.07 3.77-4.6 0.134-0.993-0.964-2.09-1.18-3.17-2.88-7.55-1.29-16.6 4.06-22.6 5.01-5.91 13.2-8.83 20.8-7.5 8.35 1.31 15.6 7.74 17.9 15.9 1.67 5.63 1.02 11.9-1.77 17.1 1.25 1.68 2.7 3.26 4.01 4.91-0.904 0.168-1.98 0.0108-2.94 0.0668-6.97 0.00599-14 0.00624-20.9 0.00595zm1.02-36.4c-7.42-0.114-14.6 4.64-17.4 11.5-2.11 4.92-2 10.8 0.369 15.6 0.836-0.735 1.53-1.79 2.32-2.63 2.12-2.49 4.22-5 6.35-7.49 1.25 1.25 2.35 2.78 3.55 4.12 1.35 1.55 2.62 3.22 4.02 4.69 0.735-1.16 3.13-2.42 1.13-3.62-2.88-3.44-5.81-6.85-8.66-10.3 0.746-0.884 1.67-2.84 2.48-0.904 2.94 3.45 5.81 6.97 8.78 10.4 3.98-4.67 7.89-9.4 11.8-14.1-1.74-2.42-4.3-4.29-7.02-5.55-2.42-1.08-5.08-1.66-7.73-1.66zm18.9 18.7c-0.0418-2.71-0.62-5.42-1.8-7.86-1.12 1.09-2.11 2.48-3.18 3.69-2.76 3.32-5.57 6.59-8.3 9.93 1.1 1.32 2.19 2.74 3.37 3.95 1.31-1.24 2.48-3.57 3.84-4.16 1.17 1.35 2.26 2.84 3.48 4.1 1.74-2.89 2.61-6.28 2.58-9.65zm-11.6 11.7c-1.07-1.34-2.19-2.71-3.35-3.96-0.647 0.838-1.58 1.65-2.01 2.54 1.13 1.26 2.17 2.7 3.36 3.86 0.666-0.808 1.39-1.6 2.01-2.43z" stroke-width=".0428"/>
</svg>
