<?xml version="1.0" encoding="UTF-8"?>
<svg version="1.1" viewBox="0 0 48 48" xmlns="http://www.w3.org/2000/svg">
 <style type="text/css">.st0{stroke:#231815;stroke-width:3;stroke-miterlimit:10;}
	.st1{fill:#FFFFFF;}</style>
 <path class="st1" d="m23.973 43.115h-23.438c-0.34278 0-0.38563-0.0042-0.37706-0.03856 0.025709-0.12854 0.13283-0.20139 0.21424-0.29137 1.204-1.4268 2.4123-2.8494 3.6164-4.2762 0.047133-0.0557 0.094265-0.1114 0.1414-0.17139 0.021423-0.02571 0.029994-0.05998 0.012854-0.08998-0.034278-0.064276-0.068557-0.13283-0.10284-0.1971-0.94266-1.7653-1.6368-3.6207-2.0824-5.5702-0.15425-0.68128-0.27851-1.3669-0.36849-2.061-0.064272-0.50561-0.11569-1.0112-0.14997-1.5211-0.059988-0.83125-0.051418-1.6582-0.025709-2.4895 0.012854-0.34278 0.047133-0.68985 0.072842-1.0326 0.025709-0.36849 0.072842-0.73699 0.12426-1.1012 0.085696-0.59559 0.19282-1.1826 0.32136-1.7696 0.30851-1.3926 0.74984-2.7423 1.3197-4.0491 1.0883-2.5066 2.5795-4.7476 4.4862-6.7057 2.5752-2.648 5.6131-4.559 9.1181-5.7288 0.92123-0.30851 1.8596-0.54846 2.8108-0.7327 0.45847-0.089981 0.92123-0.16282 1.3883-0.22281 0.41563-0.051417 0.83125-0.089981 1.2512-0.12426 0.57416-0.042848 1.1483-0.055702 1.7268-0.055702 0.50989 0 1.0198 0.012854 1.5297 0.051418 0.41991 0.029994 0.83554 0.068557 1.2512 0.11997 1.5854 0.20139 3.1365 0.56559 4.6447 1.1012 3.1151 1.1055 5.8616 2.8065 8.2311 5.1161 2.5666 2.498 4.4305 5.446 5.6045 8.8267 0.35135 1.0112 0.6213 2.0439 0.82268 3.0936 0.11569 0.61273 0.20567 1.2297 0.27423 1.851 0.02999 0.27851 0.04713 0.55702 0.06855 0.83554 0.06428 0.79698 0.05999 1.5939 0.03856 2.3909-0.0086 0.41134-0.04713 0.8184-0.08141 1.2297-0.02999 0.36849-0.07712 0.73699-0.12426 1.1012-0.06428 0.4799-0.14997 0.9598-0.24852 1.4311-0.32136 1.5254-0.7884 3.0036-1.414 4.4305-0.22281 0.50561-0.45847 0.99836-0.71556 1.4868-0.02999 0.05999-0.05999 0.11569-0.08569 0.17568-0.0086 0.02142-0.0042 0.05142 0.0086 0.06856 0.03428 0.0557 0.07712 0.10712 0.11997 0.15425 0.4499 0.54417 0.90409 1.0883 1.354 1.6325 0.81411 0.98122 1.6282 1.9582 2.4423 2.9394 0.02999 0.03856 0.0557 0.08141 0.08569 0.11998 0.01285 0.01714-0.0086 0.0557-0.02999 0.0557-0.02571 0.0042-0.04713 0.0086-0.07285 0.0086h-0.26994c-7.8326 0.0086-15.665 0.0086-23.494 0.0086zm1.0155-36.434c-0.52703-0.017139-1.0498 0.017139-1.5768 0.059988-0.48418 0.038563-0.96408 0.09855-1.444 0.17568-0.72413 0.11569-1.4397 0.26994-2.1424 0.47133-3.2993 0.94694-6.1401 2.6523-8.5139 5.1289-2.241 2.3395-3.7749 5.0775-4.6147 8.2054-0.18425 0.68985-0.32993 1.3926-0.42848 2.0996-0.042848 0.29137-0.081411 0.58702-0.10712 0.88267-0.025709 0.33421-0.064272 0.67271-0.072842 1.0069-0.025709 0.74127-0.025709 1.4783 0.029994 2.2195 0.042848 0.5656 0.10712 1.1269 0.1971 1.6882 0.13711 0.86982 0.34278 1.7225 0.60416 2.5666 0.25709 0.82697 0.56559 1.6282 0.93837 2.4081 0.025709 0.05142 0.051418 0.10284 0.081411 0.14997 0.00857 0.01714 0.051418 0.02142 0.064273 0.0086 0.029993-0.02999 0.059988-0.05999 0.085696-0.08998 0.1971-0.23138 0.3942-0.46276 0.5913-0.69414 1.6796-1.9839 3.3593-3.9634 5.0346-5.9473 0.92552-1.0926 1.8468-2.1853 2.7723-3.2736 0.03856-0.04285 0.07712-0.08569 0.11569-0.12426 0.01286-0.01286 0.05142-0.01286 0.06856 0 0.02999 0.02999 0.05999 0.0557 0.08569 0.08998 0.17568 0.20567 0.35135 0.41563 0.52274 0.6213 2.0439 2.4252 4.0877 4.8547 6.1358 7.2799 0.20567 0.24423 0.41563 0.48847 0.6213 0.7327 0.02571 0.02999 0.0557 0.05999 0.08998 0.08569 0.0086 0.0086 0.03856 0.0086 0.04285 0 0.04285-0.03856 0.08141-0.07712 0.11997-0.12426 0.61701-0.73699 1.2383-1.474 1.8553-2.211 0.02572-0.02999 0.05142-0.06428 0.07285-0.09855 0.01714-0.02571 0.01714-0.06428-0.0042-0.08998-0.03429-0.04713-0.07285-0.08998-0.10712-0.13283-0.53988-0.64272-1.0798-1.2812-1.6197-1.9239-2.5109-2.9779-5.0175-5.9602-7.5284-8.9381-0.08569-0.09855-0.17139-0.20139-0.2528-0.29994-0.09427-0.1114-0.09427-0.12426-0.0086-0.23138 0.0086-0.01285 0.02142-0.02571 0.02999-0.03856 0.47133-0.55702 0.94266-1.1183 1.414-1.6754 0.02142-0.02571 0.04713-0.04713 0.06856-0.06856 0.01714-0.01714 0.04713-0.01285 0.06427 0.0042 0.03856 0.04285 0.07712 0.08569 0.11569 0.12854 0.38563 0.45847 0.77126 0.91695 1.1612 1.3754 1.7139 2.0396 3.4321 4.0748 5.1461 6.1144 1.0155 1.2083 2.031 2.4166 3.0508 3.6207 0.15425 0.18425 0.14568 0.17568 0.29994-0.0086 0.92552-1.1012 1.851-2.2024 2.7723-3.3079 2.0096-2.3952 4.0149-4.7861 6.0244-7.1813 0.9298-1.1098 1.8596-2.2152 2.7894-3.325 0.03856-0.04285 0.07285-0.08998 0.10712-0.13283 0.01714-0.02142 0.01714-0.06856-0.0042-0.09427-0.02571-0.03429-0.04713-0.06428-0.07712-0.09855-1.2299-1.5167-2.661-2.8193-4.2935-3.8948-2.0996-1.384-4.3834-2.3095-6.8514-2.7808-0.66414-0.12426-1.3283-0.21853-2.001-0.26994-0.50132-0.055702-1.0112-0.085696-1.5254-0.068557zm18.892 18.746c-0.0086-0.20567-0.02572-0.53989-0.03856-0.87838-0.02142-0.58273-0.08569-1.1655-0.17139-1.7396-0.09427-0.64272-0.22281-1.2769-0.38135-1.9067-0.27851-1.0841-0.647-2.1381-1.114-3.1579-0.02571-0.05999-0.05999-0.11569-0.08998-0.17568-0.0086-0.02142-0.05142-0.02571-0.06428-0.01286-0.03856 0.04286-0.08141 0.08141-0.11569 0.12426-0.50561 0.60416-1.0155 1.2083-1.5211 1.8125-1.7525 2.091-3.5093 4.182-5.2617 6.273-1.4654 1.7439-2.9265 3.4878-4.3876 5.236-0.17139 0.20567-0.17139 0.17139 0.0042 0.38135 1.0284 1.2212 2.0524 2.4423 3.0808 3.6592 0.02571 0.02999 0.0557 0.05999 0.08569 0.08998 0.01714 0.01714 0.05142 0.01714 0.06856 0.0042 0.04285-0.04713 0.08998-0.09427 0.13283-0.14568 1.114-1.3369 2.2324-2.678 3.3464-4.0149 0.20138-0.23995 0.16711-0.2271 0.36421 0.0042 0.02142 0.02571 0.04285 0.05142 0.06428 0.07712 1.0712 1.2897 2.1424 2.5795 3.2179 3.8692 0.03856 0.04285 0.07285 0.08569 0.11141 0.12854 0.01285 0.01285 0.02571 0.02572 0.03856 0.02999 0.01286 0.0042 0.03856 0.0042 0.04713-0.0042 0.04285-0.05999 0.08569-0.11998 0.12426-0.18425 0.4242-0.74556 0.79269-1.5125 1.114-2.3052 0.44134-1.1012 0.77555-2.2367 1.0026-3.3979 0.12426-0.63844 0.21424-1.2812 0.26994-1.9282 0.03856-0.57416 0.06855-1.1398 0.07285-1.8382zm-11.595 11.723c-0.0042-0.01714 0-0.03429-0.0086-0.04713-0.04285-0.05999-0.08998-0.11569-0.13711-0.17139-0.47561-0.56559-0.95123-1.1312-1.4268-1.6968-0.5356-0.63415-1.0669-1.2683-1.6025-1.9025-0.04285-0.05142-0.08998-0.09855-0.13711-0.1414-0.0086-0.0086-0.03429-0.0086-0.04285-0.0042-0.03856 0.02999-0.07285 0.06428-0.10284 0.10284-0.31708 0.37706-0.63415 0.75413-0.95123 1.1312-0.31708 0.37706-0.63415 0.75412-0.95123 1.1355-0.06428 0.07712-0.06428 0.09855-0.0086 0.17139 0.04713 0.0557 0.09427 0.11569 0.1414 0.17139 0.54845 0.64701 1.0969 1.2897 1.6454 1.9367 0.45419 0.53132 0.90409 1.0626 1.3583 1.5982 0.04285 0.05142 0.08569 0.09855 0.13283 0.14568 0.02571 0.02999 0.06427 0.02999 0.08569 0.0042 0.02142-0.02571 0.04713-0.04713 0.06856-0.07285 0.61273-0.7327 1.2212-1.4611 1.8339-2.1938 0.02999-0.03856 0.06427-0.07712 0.08998-0.11569 0-0.02142 0.0042-0.03856 0.01285-0.05142z" fill="#000000" stroke-width=".042848"/>
</svg>
