<svg version="1.1" viewBox="0 0 280.06 187.2" xmlns="http://www.w3.org/2000/svg"><g transform="translate(-59.97 -106.4)" fill-rule="evenodd"><path d="m84 107.13c-2.225 0.829-5.61 4.156-6.405 6.297-0.505 1.358-0.601 12.627-0.696 82.266l-0.11 80.692-16.589 0.216-0.23 6.016 6.992 5.492 6.993 5.492h252.08l13.992-10.912-0.232-6.088-16.59-0.216-0.105-80.892c-0.118-90.687 0.196-82.065-3.112-85.653-3.522-3.821 9.8-3.443-120.11-3.41-105.72 0.028-114.22 0.079-115.88 0.7m229.87 8.541 0.926 0.869v159.86h-89.22l-0.417 1.098c-0.765 2.012-2.447 3.778-4.516 4.741l-2.047 0.953-18.513 4e-3c-19.958 4e-3 -19.821 0.017-22.667-2.154-0.673-0.513-1.641-1.768-2.15-2.788l-0.926-1.854h-89.144v-159.49l1.658-2.108h226.09l0.926 0.87m-107.19 19.83c-0.353 0.825-1.122 2.76-1.708 4.3-1.434 3.763-2.637 6.897-5.992 15.6-0.509 1.32-1.58 4.11-2.38 6.2s-1.907 4.97-2.46 6.4c-1.497 3.871-2.885 7.485-3.996 10.4-0.545 1.43-1.341 3.443-1.768 4.474-1.114 2.689-1.089 2.726 1.81 2.726 2.897 0 2.876 0.018 4.222-3.739 0.406-1.134 1.303-3.501 1.992-5.261s1.589-4.1 2-5.2 1.311-3.44 2-5.2 1.589-4.1 2-5.2 1.311-3.44 2-5.2 1.589-4.1 2-5.2 1.311-3.44 2-5.2 1.589-4.1 1.999-5.2c0.409-1.1 1.117-2.945 1.571-4.1l0.827-2.1h-5.476l-0.641 1.5m-26.346 10.839c-1.614 0.846-7.524 3.894-13.134 6.774s-11.685 6.007-13.5 6.948l-3.3 1.712v4.113l3.7 1.91c2.035 1.05 6.22 3.214 9.3 4.809 12.015 6.221 19.812 10.195 20.002 10.195 0.109 0 0.198-1.233 0.198-2.74v-2.74l-13.064-6.56c-7.186-3.608-13.05-6.74-13.032-6.96s5.897-3.348 13.064-6.951l13.032-6.551v-2.749c0-1.512-0.075-2.749-0.166-2.749s-1.486 0.692-3.1 1.539m36.066 1.203v2.743l13.42 6.663c7.381 3.665 13.336 6.795 13.232 6.957-0.103 0.162-6.142 3.263-13.42 6.89l-13.232 6.595v2.705c0 1.488 0.102 2.705 0.226 2.705 0.198 0 9.535-4.749 27.374-13.923l5.4-2.777v-4.562l-7.8-3.995c-4.29-2.198-11.631-5.964-16.314-8.369-4.683-2.406-8.598-4.374-8.7-4.374s-0.186 1.234-0.186 2.742m-61.2 56.258v2.6h28.8v-5.2h-28.8v2.6m42 0v2.6h10.4v-5.2h-10.4v2.6m23.6 0v2.6h10v-5.2h-10v2.6m-65.432 7.14c-0.118 0.306-0.158 1.524-0.091 2.708l0.123 2.152 19.437 0.214-0.119-2.707-0.118-2.707-9.51-0.107c-7.813-0.088-9.548-9e-3 -9.722 0.447m28.106-0.28c-0.151 0.15-0.274 1.417-0.274 2.814v2.54l19.4-0.214v-5.2l-9.426-0.107c-5.185-0.059-9.55 0.016-9.7 0.167m23.326 2.54v2.8h19.2v-5.6h-19.2v2.8m28 0v2.8h19.2v-5.6h-19.2v2.8m-74 10.2v2.6h18v-5.2h-18v2.6m-5.6 8.4v2.6h19.6v-5.2h-19.6v2.6m32.8 0v2.6h14.8v-5.2h-14.8v2.6m-32.634 7.144c-0.116 0.303-0.156 1.52-0.089 2.704l0.123 2.152h47.2v-5.2l-23.511-0.103c-19.668-0.087-23.546-0.013-23.723 0.447m60.634 2.256v2.8h19.2v-5.6h-19.2v2.8m-65.2 9.203v2.802l56.6-0.205 0.126-1.768c0.07-0.972 0.021-2.187-0.107-2.7l-0.234-0.932h-56.385v2.803m74.482-0.11 0.118 2.707h19.2v-5.2l-19.437-0.214 0.119 2.707" fill="#090909"/><path d="m143.9 115.1c30.855 0.057 81.345 0.057 112.2 0s5.61-0.103-56.1-0.103-86.955 0.046-56.1 0.103m65.889 18.789c1.543 0.084 2.941 0.366 3.13 0.631 0.241 0.338 0.294 0.303 0.179-0.12-0.124-0.461-0.849-0.607-3.13-0.631l-2.968-0.032 2.789 0.152m17.811 22.29c0 0.11 0.54 0.48 1.2 0.821s1.2 0.531 1.2 0.421-0.54-0.48-1.2-0.821-1.2-0.531-1.2-0.421m4 2c0 0.11 0.54 0.48 1.2 0.821s1.2 0.531 1.2 0.421-0.54-0.48-1.2-0.821-1.2-0.531-1.2-0.421m4 2c0 0.11 0.54 0.48 1.2 0.821s1.2 0.531 1.2 0.421-0.54-0.48-1.2-0.821-1.2-0.531-1.2-0.421m-85.173 1.189c-0.279 0.336-0.411 1.436-0.323 2.7l0.148 2.132 0.074-2.22c0.041-1.221 0.29-2.436 0.554-2.7s0.376-0.48 0.249-0.48-0.443 0.255-0.702 0.568m99.297 2.432c2e-3 1.32 0.077 1.812 0.166 1.093s0.087-1.799-4e-3 -2.4-0.164-0.013-0.162 1.307m-91.724 6.379c0 0.11 0.54 0.48 1.2 0.821s1.2 0.531 1.2 0.421-0.54-0.48-1.2-0.821-1.2-0.531-1.2-0.421m-3.14 33.297c-0.033 1.582 0.075 2.96 0.24 3.063 0.165 0.102 0.249-0.742 0.186-1.877-0.204-3.678-0.365-4.125-0.426-1.186m42.077 0.324c2e-3 1.76 0.072 2.43 0.156 1.489 0.085-0.94 0.084-2.38-2e-3 -3.2-0.086-0.819-0.155-0.049-0.154 1.711m33.795 1e-3c-0.073 1.65 3e-3 3 0.168 3 0.165-1e-3 0.3-1.351 0.3-3.001 0-3.875-0.298-3.875-0.468 1e-3m-75.765 6.741c-0.115 0.298-0.152 1.693-0.082 3.1l0.126 2.558 0.194-3.101c0.195-3.103 0.151-3.572-0.238-2.557m19.747 1.558c0.206 3.782 0.365 4.155 0.426 1 0.033-1.705-0.075-3.1-0.24-3.1s-0.249 0.945-0.186 2.1m8.253-1.558c-0.115 0.298-0.152 1.693-0.082 3.1l0.126 2.558 0.194-3.101c0.195-3.103 0.151-3.572-0.238-2.557m19.747 1.558c0.206 3.782 0.365 4.155 0.426 1 0.033-1.705-0.075-3.1-0.24-3.1s-0.249 0.945-0.186 2.1m23.423 0.9c2e-3 1.76 0.072 2.43 0.156 1.489 0.085-0.94 0.084-2.38-2e-3 -3.2-0.086-0.819-0.155-0.049-0.154 1.711m27.997 0.2c0 1.65 0.071 2.325 0.157 1.5 0.087-0.825 0.087-2.175 0-3-0.086-0.825-0.157-0.15-0.157 1.5m-99.274 18.276c-0.033 1.582 0.075 2.96 0.24 3.063 0.165 0.102 0.249-0.742 0.186-1.877-0.204-3.678-0.365-4.125-0.426-1.186m19.872 0.325c-0.073 1.65 3e-3 3 0.168 3 0.165-1e-3 0.3-1.351 0.3-3.001 0-3.875-0.298-3.875-0.468 1e-3m28 0c-0.073 1.65 3e-3 3 0.168 3 0.165-1e-3 0.3-1.351 0.3-3.001 0-3.875-0.298-3.875-0.468 1e-3m-47.765 6.741c-0.115 0.298-0.152 1.693-0.082 3.1l0.126 2.558 0.194-3.101c0.195-3.103 0.151-3.572-0.238-2.557m47.747 1.558c0.206 3.782 0.365 4.155 0.426 1 0.033-1.705-0.075-3.1-0.24-3.1s-0.249 0.945-0.186 2.1m-37.785 7.4c7.882 0.061 20.662 0.061 28.4 0 7.739-0.061 1.291-0.111-14.329-0.11-15.62 0-21.952 0.049-14.071 0.11m60.138-0.033c-0.368 0.367-0.338 5.642 0.033 5.873 0.165 0.102 0.241-1.144 0.169-2.77l-0.132-2.956 9.732-0.114 9.731-0.115-9.633-0.092c-5.299-0.051-9.754 0.027-9.9 0.174m19.729 3.015c-0.108 1.695-0.052 2.937 0.124 2.76 0.175-0.177 0.264-1.563 0.196-3.082l-0.124-2.76-0.196 3.082m-180.67 25.817c2.377 0.071 6.157 0.07 8.4-1e-3s0.298-0.129-4.322-0.129c-4.62 1e-3 -6.455 0.059-4.078 0.13m37.278-4e-3c42.104 0.274 73.706 0.276 73.538 5e-3 -0.102-0.165-20.29-0.257-44.862-0.205-24.572 0.053-37.476 0.143-28.676 0.2m123.67-0.028c-0.147 0.146-0.264 0.461-0.261 0.7 4e-3 0.258 0.134 0.232 0.323-0.065 0.248-0.392 9.842-0.521 44.894-0.602l44.577-0.104-44.633-0.098c-24.549-0.054-44.754 0.022-44.9 0.169m102.66 0.032c2.377 0.071 6.157 0.07 8.4-1e-3s0.298-0.129-4.322-0.129c-4.62 1e-3 -6.455 0.059-4.078 0.13m-151.72 3.026c0 0.069 0.585 0.654 1.3 1.3l1.3 1.175-1.175-1.3c-1.095-1.212-1.425-1.484-1.425-1.175m46.575 1.175-1.175 1.3 1.3-1.175c0.715-0.646 1.3-1.231 1.3-1.3 0-0.309-0.33-0.037-1.425 1.175" fill="#a4a4a4"/><path d="m323.4 196c0 43.89 0.047 61.845 0.104 39.9s0.057-57.855 0-79.8-0.104-3.99-0.104 39.9m-246.8 0.6c0 43.78 0.047 61.749 0.104 39.932 0.057-21.818 0.057-57.638 0-79.6-0.057-21.963-0.104-4.112-0.104 39.668m107.4 7.282c-0.107 1.585-0.051 2.737 0.126 2.559 0.176-0.177 0.264-1.474 0.195-2.882l-0.125-2.559-0.196 2.882m-23.672 6.417c2.708 0.069 7.028 0.069 9.6 0 2.572-0.07 0.357-0.127-4.923-0.126-5.28 0-7.385 0.057-4.677 0.126m28 0c2.708 0.069 7.028 0.069 9.6 0 2.572-0.07 0.357-0.127-4.923-0.126-5.28 0-7.385 0.057-4.677 0.126m23.177 0c2.695 0.069 7.105 0.069 9.8 0s0.49-0.126-4.9-0.126-7.595 0.057-4.9 0.126m28 0c2.695 0.069 7.105 0.069 9.8 0s0.49-0.126-4.9-0.126-7.595 0.057-4.9 0.126m-74.177 16c2.597 0.07 6.737 0.069 9.2-1e-3 2.462-0.07 0.337-0.127-4.723-0.126-5.06 0-7.075 0.057-4.477 0.127m22.45 5.701 0.027 2.6 7.4 0.014 7.4 0.015-7.282-0.124-7.282-0.123-0.145-2.491-0.146-2.491 0.028 2.6m-27.45 2.699c2.708 0.069 7.028 0.069 9.6 0 2.572-0.07 0.357-0.127-4.923-0.126-5.28 0-7.385 0.057-4.677 0.126m7.006 3.601c6.56 0.062 17.18 0.061 23.6 0 6.419-0.062 1.051-0.113-11.929-0.112-12.98 0-18.232 0.05-11.671 0.112m48.438 0.242c-0.115 0.298-0.144 1.693-0.065 3.1l0.144 2.558 0.154-5.786 9.7-0.114 9.7-0.115-9.713-0.092c-7.867-0.075-9.752 0.01-9.92 0.449m-50.838 14.958c7.882 0.061 20.662 0.061 28.4 0 7.739-0.061 1.291-0.111-14.329-0.11-15.62 0-21.952 0.049-14.071 0.11m65.394-1e-3c2.708 0.069 7.028 0.069 9.6 0 2.572-0.07 0.357-0.127-4.923-0.126-5.28 0-7.385 0.057-4.677 0.126" fill="#7c7c7c"/></g></svg>
