<svg version="1.1" viewBox="0 0 55.992 56.042" xmlns="http://www.w3.org/2000/svg"><path d="m39.42 0c-10.172 0-17.114 4.0566-21.428 4.0566-0.99048 0-4.3828-0.71484-4.3828-0.71484-0.17506-0.04503-0.35159-0.084115-0.5293-0.11719-1.5264-0.85697-3.2392-1.2341-4.9199-1.1133h-0.0059c-1.0676 0.077595-2.1632 0.32219-3.3808 0.96484-1.5515 0.81885-3.7172 2.7409-4.4668 5.4707-0.7496 2.7298 0.033628 5.0451 0.66797 6.293l18.02 35.848c0.0065 0.01174 0.01299 0.02346 0.01953 0.03516 1.9535 3.8371 5.8297 5.7429 9.8281 5.2402 1.5707-0.19743 4.0888-1.1262 5.7695-2.9844 2.4198-2.6754 2.0836-3.7879 2.2422-5.0234 0.34673-6.3136-5.351-13.64-8.4492-19.348 2.856-1.0808 5.2495-2.5336 7.2168-3.7168 3.4595-2.0806 4.4748-2.834 5.3711-2.834 2.9878 0 4.2559 0.51562 4.2559 0.51562 6.0537 2.2005 12.093-3.2899 10.479-9.5254 0.82604-3.2003-0.40087-6.5792-3.0879-8.5039 0 0-5.1288-4.543-13.219-4.543zm0 8c4.2857 0 8.5723 3.0566 8.5723 3.0566s-4.2854-1.0293-7.1426-1.0293c-4.2857 0-9.8574 4.0293-9.8574 4.0293s2.7146-1.9707 9.8574-1.9707c4.2857 0 7.1426 2.9707 7.1426 2.9707s-2.8569-1.043-7.1426-1.043c-5.7143 0-12.604 8.043-19.857 8.043-1.4286 0-4-1-4-1l-5.5-10s3.6429 1 6.5 1c7.2843 0 14.285-4.0566 21.428-4.0566zm-30.686 2.0898c0.24765-0.0178 0.53983 0.09638 0.68555 0.36524 6.6781 12.2 12.778 23.528 19.441 35.734 0.15658 0.36344 0.05593 1.159-0.18359 1.4238-0.23952 0.26482-0.53294 0.37427-0.83398 0.41211-0.60208 0.07569-1.3407-0.22362-1.7012-0.93164l-18.037-35.879c-0.18134-0.35674-0.18127-0.75449 0.40234-1.0625 0.06503-0.03432 0.144-0.0565 0.22656-0.0625z"/></svg>
