<?xml version="1.0" encoding="UTF-8"?>
<svg version="1.1" viewBox="0 0 48 48" xmlns="http://www.w3.org/2000/svg">
 <path d="m24 13.1c-4.97 0-9.2 3.37-10.5 7.95-1.13-2.42-3.6-4.12-6.43-4.12-3.9 0-7.11 3.2-7.11 7.11 0 3.9 3.2 7.11 7.11 7.11 2.84 0 5.3-1.7 6.43-4.13 1.31 4.57 5.53 7.95 10.5 7.95 4.94 0 9.13-3.33 10.5-7.84 1.15 2.37 3.58 4.02 6.38 4.02 3.9 0 7.11-3.21 7.11-7.11 0-3.9-3.21-7.11-7.11-7.11-2.8 0-5.23 1.65-6.38 4.02-1.34-4.52-5.54-7.84-10.5-7.84zm0 4.17c3.76 0 6.75 3 6.75 6.75 0 3.76-3 6.75-6.75 6.75-3.76 0-6.75-3-6.75-6.75 0-3.76 3-6.75 6.75-6.75zm-17 3.82c1.64 0 2.93 1.29 2.93 2.93 0 1.64-1.29 2.93-2.93 2.93s-2.93-1.29-2.93-2.93c0-1.64 1.29-2.93 2.93-2.93zm33.8 0c1.64 0 2.93 1.29 2.93 2.93 0 1.64-1.29 2.93-2.93 2.93s-2.93-1.29-2.93-2.93c0-1.64 1.29-2.93 2.93-2.93z"/>
</svg>
