<?xml version="1.0" encoding="UTF-8"?>
<svg width="48" height="48" enable-background="new 0 0 196.6 72" version="1.1" viewBox="0 0 45 45" xmlns="http://www.w3.org/2000/svg">
 <path d="m22.5 12.3c-4.66 0-8.62 3.16-9.84 7.45-1.06-2.27-3.37-3.86-6.03-3.86-3.66 0-6.66 3-6.66 6.66 0 3.66 3 6.66 6.66 6.66 2.66 0 4.97-1.59 6.03-3.87 1.23 4.28 5.18 7.45 9.84 7.45 4.63 0 8.56-3.12 9.82-7.35 1.08 2.22 3.36 3.77 5.98 3.77 3.66 0 6.66-3.01 6.66-6.66 0-3.66-3.01-6.66-6.66-6.66-2.62 0-4.9 1.55-5.98 3.77-1.26-4.24-5.19-7.35-9.82-7.35zm0 3.91c3.52 0 6.33 2.81 6.33 6.33 0 3.52-2.81 6.33-6.33 6.33-3.52 0-6.33-2.81-6.33-6.33 0-3.52 2.81-6.33 6.33-6.33zm-15.9 3.58c1.54 0 2.75 1.21 2.75 2.75 0 1.54-1.21 2.75-2.75 2.75-1.54 0-2.75-1.21-2.75-2.75 0-1.54 1.21-2.75 2.75-2.75zm31.7 0c1.54 0 2.75 1.21 2.75 2.75 0 1.54-1.21 2.75-2.75 2.75-1.54 0-2.75-1.21-2.75-2.75 0-1.54 1.21-2.75 2.75-2.75z" color="#000000" color-rendering="auto" enable-background="accumulate" fill="#000000" image-rendering="auto" shape-rendering="auto" solid-color="#000000" style="isolation:auto;mix-blend-mode:normal;text-decoration-color:#000000;text-decoration-line:none;text-decoration-style:solid;text-indent:0;text-transform:none;white-space:normal"/>
</svg>
