<svg version="1.1" viewBox="0 0 48 48" xmlns="http://www.w3.org/2000/svg">
 <path d="m7.4688-1.2687e-7c-4.0588-0.12196-7.1005 3.7792-7.0851 7.758-0.010736 10.927-0.014776 21.855 0.011071 32.782 0.10685 3.9127 3.8854 7.0908 7.7474 6.6918 2.4217-0.11332 4.4035-1.8088 5.7048-3.784 2.5642-3.2139 8.5548-3.3146 11.079 0.27643 1.0798 1.1388 1.4482 4.2758 1.4352 3.871-0.06894-2.9571 0.04659-5.9085-0.14396-8.876-0.62457-3.4093-3.9903-5.5377-7.4241-5.6817-2.7754-0.19626-4.3724-3.6824-4.2404-5.6417 0.02975-3.0798-0.27331-6.4413 1.6132-9.0622 2.8609-4.5257 9.7101-5.5467 13.771-2.0659 1.6561 1.2854 2.5802 3.8077 3.6652 5.3682l6.9291 1.9795-7.0851 2.0244c0.02017 5.0775-0.04068 10.157 0.03103 15.233 0.25453 3.9296 4.2599 7.0642 8.1301 6.277 3.6967-0.47072 5.8739-4.0634 6.0085-7.8124-0.03952-5.8462 0.08284-11.697-0.06839-17.54-0.59422-9.4348-7.4734-18.034-16.524-20.736-5.9006-1.8499-12.525-1.2658-17.991 1.6345-1.3156-1.6867-3.4231-2.7122-5.5632-2.6964zm16.531 18.893c-3.44-0.15692-5.93 4.0241-4.1532 6.9747 1.5046 3.1116 6.21 3.2013 8.1106 0.32795 2.1223-2.9694-0.181-7.1634-3.9574-7.3026z"/>
</svg>
