<svg clip-rule="evenodd" fill-rule="evenodd" stroke-linejoin="round" stroke-miterlimit="2" version="1.1" viewBox="0 0 652.81 663.43" xml:space="preserve" xmlns="http://www.w3.org/2000/svg"><defs><clipPath id="a"><rect width="906.67" height="1351.1"/></clipPath></defs><path transform="translate(-129.11 -150)" d="m227.03 150c-54.077 0-97.922 43.846-97.92 97.922v456.97c0 0.126-1.4e-4 0.29102 6e-3 0.41602 0.212 53.889 43.976 97.512 97.914 97.512h12.705c26.92-3.492 50.405-17.911 65.852-38.654 0.985-1.707 2.031-3.371 3.125-5.002 0.965-1.452 1.9679-2.8748 3.0039-4.2598 17.854-23.917 46.381-39.396 78.516-39.396 34.011 0 63.968 17.34 81.52 43.656 10.364 15.528 16.402 34.192 16.402 54.266v-108.53c0-54.077-43.845-97.922-97.922-97.922-36.052 0-65.281-29.23-65.281-65.281v-65.281c0-72.111 58.452-130.56 130.56-130.56 62.18 0 114.2 43.46 127.35 101.67l101.13 28.895-97.922 27.982v201.32c0 49.769 37.137 90.87 85.217 97.104h12.705c53.938 0 97.706-43.623 97.914-97.512 0.01-0.125 0.01-0.29102 0.01-0.41602v-228.48h4e-3c-4.7e-4 -180.26-146.14-326.4-326.41-326.4-54.729 0-106.31 13.465-151.61 37.268-17.928-22.701-45.705-37.268-76.877-37.268zm228.48 261.12c-36.051 0-65.281 29.23-65.281 65.281 0 36.051 29.23 65.281 65.281 65.281 12.665 0 24.488-3.6064 34.492-9.8574 18.491-11.522 30.787-32.037 30.787-55.424 0-23.387-12.296-43.902-30.787-55.424-10.004-6.25-21.827-9.8574-34.492-9.8574z" clip-path="url(#a)"/></svg>
