<?xml version="1.0" encoding="UTF-8"?>
<svg role="img" version="1.1" viewBox="0 0 48 48" xmlns="http://www.w3.org/2000/svg">
 <path d="m7.9868 9.3201c-3.0166 2.7305-5.6338 5.6835-6.8877 10.129-1.2599 4.4673-1.1625 10.123-0.28815 14.702 0.87438 4.5766 2.2257 8.1616 3.7221 11.586h26.19c-0.61604-1.9634-1.5123-3.9089-2.8735-6.4327-1.3613-2.5198-3.2948-5.3496-5.2622-8.3026-1.9674-2.953-3.9446-6.1147-3.6784-8.8869 0.1868-1.9614 0.97374-3.9268 2.9649-5.4848 2.3052-1.8064 4.5488-2.8556 6.6632-3.1696 6.6075-0.98566 12.762 1.1943 17.736 6.689 0.57232 0.62796 0.7154 1.4427 1.083 2.2396l0.32988-1.2977c0.29808-1.1705 0.17488-2.7006-0.30206-4.7117-0.4829-2.0449-1.1188-3.5611-2.9014-5.908-1.7746-2.337-4.9025-4.6143-8.9028-6.4108-2.9808-1.3374-6.5678-1.9872-11.522-1.7468-5.0118 0.24642-10.918 2.339-16.071 7.007z" stroke-width="1.9872"/>
</svg>
