<?xml version="1.0" encoding="UTF-8" standalone="no"?>
<svg
   width="317.32147mm"
   height="317.32147mm"
   viewBox="0 0 317.32147 317.32147"
   version="1.1"
   id="svg2978"
   sodipodi:docname="openwrt.svg"
   xmlns:sodipodi="http://sodipodi.sourceforge.net/DTD/sodipodi-0.dtd"
   xmlns="http://www.w3.org/2000/svg"
   xmlns:svg="http://www.w3.org/2000/svg"
   xmlns:rdf="http://www.w3.org/1999/02/22-rdf-syntax-ns#"
   xmlns:cc="http://creativecommons.org/ns#"
   xmlns:dc="http://purl.org/dc/elements/1.1/">
  <defs
     id="defs2972">
    <clipPath
       clipPathUnits="userSpaceOnUse"
       id="clipPath986">
      <path
         d="M 0,0 H 792 V 612 H 0 Z"
         id="path984" />
    </clipPath>
  </defs>

  <metadata
     id="metadata2975">
    <rdf:RDF>
      <cc:Work
         rdf:about="">
        <dc:format>image/svg+xml</dc:format>
        <dc:type
           rdf:resource="http://purl.org/dc/dcmitype/StillImage" />
        <dc:title />
      </cc:Work>
    </rdf:RDF>
  </metadata>
  <path
     id="path990"
     style="fill:#000000"
     d="M -0.00042409916 23.2045 C -7.2324241 23.2045 -13.787417 20.250503 -18.526417 15.510503 L -15.387406 12.371491 C -11.448406 16.310491 -6.0014241 18.741496 -0.00042409916 18.741496 C 6.0015759 18.741496 11.448571 16.309491 15.387571 12.371491 L 18.526582 15.510503 C 13.786582 20.250503 7.2325759 23.2045 -0.00042409916 23.2045 z M 0.0010232836 15.204092 C -5.0159767 15.204092 -9.5700256 13.142124 -12.863026 9.8481243 L -12.863966 9.8481243 L -9.7250273 6.7091128 C -7.2320273 9.2021128 -3.7850031 10.740074 -0.0010030523 10.740074 C 3.7829969 10.740074 7.2319752 9.2021128 9.7249752 6.7091128 L 12.865 9.8481243 C 9.5719998 13.141124 5.0170233 15.204092 0.0010232836 15.204092 z M -14.310626 8.2478979 C -16.772626 5.1398979 -18.218631 1.2309307 -18.218631 -3.0160693 C -18.218631 -13.048069 -10.032628 -21.234132 0.00037196138 -21.234132 C 10.032372 -21.234132 18.218435 -13.048069 18.218435 -3.0160693 C 18.218435 1.2309307 16.741429 5.1398979 14.310429 8.2478979 L 11.140371 5.0779124 C 12.802371 2.8009124 13.787417 -6.9334635e-05 13.787417 -3.0160693 C 13.787417 -10.617069 7.601372 -16.803114 0.00037196138 -16.803114 C -7.601628 -16.803114 -13.786601 -10.617069 -13.786601 -3.0160693 C -13.786601 -6.9334635e-05 -12.802568 2.8009124 -11.140568 5.0779124 L -14.310626 8.2478979 z M -0.00020699174 7.2005717 C -2.800207 7.2005717 -5.3561999 6.0616341 -7.2321999 4.2156341 L -4.0931885 1.0766227 C -1.8311885 3.3336227 1.8307745 3.3336227 4.0927745 1.0766227 L 7.2317859 4.2156341 C 5.3147859 6.1336341 2.711793 7.2085717 -0.00020699174 7.2005717 z M 1.0115682e-05 -1.3042531e-05 C -1.6659899 -1.3042531e-05 -3.0159738 -1.349997 -3.0159738 -3.015997 C -3.0159738 -4.680997 -1.6659899 -6.0319809 1.0115682e-05 -6.0319809 C 1.6660101 -6.0319809 3.015994 -4.680997 3.015994 -3.015997 C 3.012994 -1.350997 1.6650101 -0.0030130425 1.0115682e-05 -1.3042531e-05 z "
     transform="matrix(7.1406724,0,0,-7.1406724,158.66001,165.69574)" />
</svg>
