<svg width="300mm" height="300mm" version="1.1" viewBox="0 0 300 300" xmlns="http://www.w3.org/2000/svg"><path d="m150 3.161e-6c-48.82 0-93.07 19.94-125.1 51.94l21.19 21.19c26.59-26.59 63.36-43 103.9-43 40.52 0 77.29 16.42 103.9 43l21.19-21.19c-32-32-76.24-51.94-125.1-51.94zm0.00977 54.01c-33.87 0-64.61 13.92-86.84 36.16h-0.006346l21.19 21.19c16.83-16.83 40.1-27.21 65.65-27.21s48.83 10.38 65.66 27.21l21.2-21.19c-22.23-22.23-52.98-36.16-86.84-36.16zm-96.62 46.96c-16.62 20.98-26.38 47.37-26.38 76.04 0 67.72 55.26 123 123 123 67.72 0 123-55.26 123-123 0-28.67-9.971-55.06-26.38-76.04l-21.4 21.4c11.22 15.37 17.87 34.28 17.87 54.64 0 51.31-41.76 93.07-93.07 93.07-51.32 0-93.07-41.76-93.07-93.07 0-20.36 6.643-39.27 17.86-54.64zm96.61 7.07c-18.9 0-36.16 7.689-48.82 20.15l21.19 21.19c15.27-15.24 39.99-15.24 55.26 0l21.19-21.19c-12.94-12.95-30.51-20.2-48.82-20.15zm0.00147 48.61c-11.25 0-20.36 9.114-20.36 20.36 0 11.24 9.114 20.36 20.36 20.36s20.36-9.12 20.36-20.36c-0.02025-11.24-9.12-20.34-20.36-20.36z" stroke-width="6.751"/></svg>
