<svg width="800px" height="800px" version="1.1" viewBox="0 0 32 32" xmlns="http://www.w3.org/2000/svg">
 <title>file_type_openscad</title>
 <path d="m16.3 4.93a11.1 11.1 0 0 0-11 10.2l-1.8 0.862-0.237 0.118-0.00602 0.00695a3 3 0 0 0-1.3 2.72 8.05 8.05 0 0 0 1.15 3.99c1.21 2.1 3.1 3.54 4.7 3.54a2.32 2.32 0 0 0 1.17-0.332v-0.015l1.46-0.711a11.1 11.1 0 0 0 17-8.84l1.31-0.746 0.02-0.0141a2.92 2.92 0 0 0 0.875-1.06l0.023-0.064a4.36 4.36 0 0 0 0.318-1.74 8.96 8.96 0 0 0-1.32-4.05 7.82 7.82 0 0 0-2.78-2.55 3.33 3.33 0 0 0-1.23-0.348 0.568 0.568 0 0 0-0.32 0.075l-1.72 0.83a11.1 11.1 0 0 0-6.29-1.93zm0.078 0.707c1.51 0.00468 3.01 0.387 4.3 1.15 0.453 0.317 0.896 0.783 0.985 1.35-3.68e-4 -0.00473 2.99e-4 -3.94e-5 0.00258 0.017 0.00144 0.01 0.00276 0.02 0.00398 0.0301-0.00185-0.0142-0.00292-0.0221-0.00398-0.0301-8.2e-4 -0.00569-0.00169-0.0114-0.00258-0.017 0.0013 0.0167 0.0148 0.14 0.0134 0.18 0.00353 0.221-0.0459 0.428-0.132 0.618 0.0844-0.187 0.128-0.38 0.13-0.578-0.00369 0.355-0.147 0.702-0.418 1.02 0.104-0.123 0.195-0.256 0.265-0.399 0.00427-0.00865 0.00846-0.0173 0.0126-0.026-0.00408 0.00869-0.00832 0.0173-0.0126 0.026-0.0797 0.162-0.19 0.32-0.33 0.472 0.0177-0.0194 0.0349-0.039 0.0516-0.0587-0.2 0.232-0.448 0.43-0.699 0.589-1.27 0.79-2.83 1.03-4.29 1.05-0.6 0.0156-1.2-0.0423-1.79-0.159-0.0454-0.00778-0.0909-0.0156-0.136-0.0234-1.3-0.321-3.14-0.91-3.3-2.5 0.00578-0.74 0.584-1.31 1.17-1.67 1.26-0.7 2.73-1.05 4.19-1.05zm4.87 3.75c-0.00393 0.00468-0.00789 0.00931-0.0119 0.014 0.00399-0.00464 0.00792-0.00932 0.0119-0.014zm3.4-3.05a2.88 2.88 0 0 1 1.08 0.317 7.39 7.39 0 0 1 2.63 2.43 8.8 8.8 0 0 1 1.23 3.82 3.99 3.99 0 0 1-0.3 1.62l0.02-0.00102-0.023 0.064a2.54 2.54 0 0 1-0.74 0.884l-1.11 0.628-0.022 0.013v-0.104a11.1 11.1 0 0 0-4.47-8.89h0.00898l1.58-0.762a0.379 0.379 0 0 1 0.111-0.013zm-3.47 3.14c-0.251 0.272-0.594 0.524-1.02 0.747l-0.00102-5e-3c0.427-0.223 0.77-0.473 1.02-0.742zm-13.7 5.34c0.778 0.00336 1.54 0.382 2.17 0.834 1.42 1.05 2.42 2.6 2.96 4.26 0.291 1.18 0.618 2.62-0.122 3.71-0.15 0.232-0.335 0.441-0.546 0.618l-0.016-0.016c-0.703 0.338-1.4 0.678-2.11 1.01 0.233-0.355 0.353-0.771 0.391-1.2 0.226-1.62-0.153-3.31-1.05-4.67-0.814-1.47-2.12-2.78-3.72-3.35-0.223-0.0674-0.451-0.123-0.683-0.14 0.648-0.311 1.29-0.624 1.94-0.934 0.258-0.0934 0.518-0.134 0.778-0.133zm16.9 0.144c0.168-6.35e-4 0.337 0.0166 0.507 0.0548 0.898 0.208 1.37 1.1 1.47 1.95 0.195 1.68-0.426 3.35-1.36 4.73-0.725 1.05-1.68 2.01-2.89 2.46-0.723 0.268-1.62 0.274-2.21-0.296-0.839-0.832-0.845-2.14-0.634-3.23 0.0166-0.0862 0.0331-0.172 0.0497-0.259 0.465-1.82 1.51-3.55 3.05-4.66 0.59-0.413 1.29-0.751 2.02-0.754zm-19.9 1.29c0.132 1.28e-4 0.264 0.0074 0.395 0.0146 0.892 0.113 1.67 0.684 2.34 1.23 1.16 1.01 1.97 2.38 2.44 3.83 0.322 1 0.443 2.1 0.144 3.12-0.0383 0.105-0.0751 0.211-0.116 0.316v0.012c-0.362 1.03-1.58 1.41-2.55 1.1-1.21-0.352-2.19-1.24-2.96-2.22-1.16-1.51-1.89-3.4-1.76-5.33 0.109-0.787 0.564-1.64 1.33-1.96 0.234-0.102 0.486-0.127 0.738-0.127z"/>
</svg>
