<?xml version="1.0" encoding="UTF-8"?>
<svg version="1.1" viewBox="0 0 48 48" xmlns="http://www.w3.org/2000/svg">
 <path d="m3 2.08c-1.64 0-3 1.35-3 3v37.8c0 1.64 1.35 3 3 3h42c1.64 0 3-1.35 3-3v-37.8c0-1.64-1.35-3-3-3zm0 2.12h42c0.503 0 0.875 0.372 0.875 0.875v37.8c0 0.503-0.372 0.875-0.875 0.875h-42c-0.503 0-0.873-0.372-0.873-0.875v-37.8c0-0.503 0.37-0.875 0.873-0.875zm4.06 4.55c-0.398 0-0.719 0.299-0.719 0.667v7.4c0 0.369 0.321 0.667 0.719 0.667h33.9c0.396 0 0.716-0.3 0.716-0.667v-7.4c0-0.369-0.32-0.667-0.716-0.667zm4.12 1.77a2.59 2.59 0 0 1 2.59 2.59 2.59 2.59 0 0 1-2.59 2.59 2.59 2.59 0 0 1-2.59-2.59 2.59 2.59 0 0 1 2.59-2.59zm0 1.24a1.35 1.35 0 0 0-1.35 1.35 1.35 1.35 0 0 0 1.35 1.35 1.35 1.35 0 0 0 1.35-1.35 1.35 1.35 0 0 0-1.35-1.35zm-4.12 7.85c-0.398 0-0.719 0.299-0.719 0.667v7.4c0 0.369 0.321 0.667 0.719 0.667h33.9c0.396 0 0.716-0.3 0.716-0.667v-7.4c0-0.369-0.32-0.667-0.716-0.667zm4.12 1.77a2.59 2.59 0 0 1 2.59 2.59 2.59 2.59 0 0 1-2.59 2.59 2.59 2.59 0 0 1-2.59-2.59 2.59 2.59 0 0 1 2.59-2.59zm0 1.24a1.35 1.35 0 0 0-1.35 1.35 1.35 1.35 0 0 0 1.35 1.35 1.35 1.35 0 0 0 1.35-1.35 1.35 1.35 0 0 0-1.35-1.35zm-4.12 7.85c-0.398 0-0.719 0.299-0.719 0.667v7.4c0 0.369 0.321 0.667 0.719 0.667h33.9c0.396 0 0.716-0.3 0.716-0.667v-7.4c0-0.369-0.32-0.667-0.716-0.667zm4.12 1.77a2.59 2.59 0 0 1 2.59 2.59 2.59 2.59 0 0 1-2.59 2.59 2.59 2.59 0 0 1-2.59-2.59 2.59 2.59 0 0 1 2.59-2.59zm0 1.24a1.35 1.35 0 0 0-1.35 1.35 1.35 1.35 0 0 0 1.35 1.35 1.35 1.35 0 0 0 1.35-1.35 1.35 1.35 0 0 0-1.35-1.35z"/>
</svg>
