<?xml version="1.0" encoding="UTF-8"?>
<svg width="48" height="48" version="1.1" viewBox="0 0 45 45" xmlns="http://www.w3.org/2000/svg">
 <title>OpenMediaVault logo</title>
 <path d="m2.81 1.96c-1.54 0-2.81 1.27-2.81 2.81v35.5c0 1.54 1.27 2.81 2.81 2.81h39.4c1.54 0 2.81-1.27 2.81-2.81v-35.5c0-1.54-1.27-2.81-2.81-2.81zm0 1.99h39.4c0.472 0 0.821 0.349 0.821 0.821v35.5c0 0.472-0.349 0.821-0.821 0.821h-39.4c-0.472 0-0.819-0.349-0.819-0.821v-35.5c0-0.472 0.347-0.821 0.819-0.821zm3.81 4.27c-0.373 0-0.674 0.28-0.674 0.626v6.94c0 0.346 0.301 0.626 0.674 0.626h31.8c0.371 0 0.672-0.281 0.672-0.626v-6.94c0-0.346-0.3-0.626-0.672-0.626zm3.86 1.66a2.43 2.43 0 0 1 2.43 2.43 2.43 2.43 0 0 1-2.43 2.43 2.43 2.43 0 0 1-2.43-2.43 2.43 2.43 0 0 1 2.43-2.43zm0 1.16a1.27 1.27 0 0 0-1.27 1.27 1.27 1.27 0 0 0 1.27 1.27 1.27 1.27 0 0 0 1.27-1.27 1.27 1.27 0 0 0-1.27-1.27zm-3.86 7.36c-0.373 0-0.674 0.28-0.674 0.626v6.94c0 0.346 0.301 0.626 0.674 0.626h31.8c0.371 0 0.672-0.281 0.672-0.626v-6.94c0-0.346-0.3-0.626-0.672-0.626zm3.86 1.66a2.43 2.43 0 0 1 2.43 2.43 2.43 2.43 0 0 1-2.43 2.43 2.43 2.43 0 0 1-2.43-2.43 2.43 2.43 0 0 1 2.43-2.43zm0 1.16a1.27 1.27 0 0 0-1.27 1.27 1.27 1.27 0 0 0 1.27 1.27 1.27 1.27 0 0 0 1.27-1.27 1.27 1.27 0 0 0-1.27-1.27zm-3.86 7.36c-0.373 0-0.674 0.28-0.674 0.626v6.94c0 0.346 0.301 0.626 0.674 0.626h31.8c0.371 0 0.672-0.281 0.672-0.626v-6.94c0-0.346-0.3-0.626-0.672-0.626zm3.86 1.66a2.43 2.43 0 0 1 2.43 2.43 2.43 2.43 0 0 1-2.43 2.43 2.43 2.43 0 0 1-2.43-2.43 2.43 2.43 0 0 1 2.43-2.43zm0 1.16a1.27 1.27 0 0 0-1.27 1.27 1.27 1.27 0 0 0 1.27 1.27 1.27 1.27 0 0 0 1.27-1.27 1.27 1.27 0 0 0-1.27-1.27z" color="#000000" fill="#000000" stroke-width=".979" style="-inkscape-stroke:none"/>
</svg>
