<?xml version="1.0" encoding="UTF-8" standalone="no"?>
<svg
   xmlns:dc="http://purl.org/dc/elements/1.1/"
   xmlns:cc="http://creativecommons.org/ns#"
   xmlns:rdf="http://www.w3.org/1999/02/22-rdf-syntax-ns#"
   xmlns:svg="http://www.w3.org/2000/svg"
   xmlns="http://www.w3.org/2000/svg"
   width="512"
   height="512"
   id="svg3037"
   version="1.1">
  <defs
     id="defs5498" />
  <metadata
     id="metadata5594">
    <rdf:RDF>
      <cc:Work
         rdf:about="">
        <dc:format>image/svg+xml</dc:format>
        <dc:type
           rdf:resource="http://purl.org/dc/dcmitype/StillImage" />
        <dc:title />
      </cc:Work>
    </rdf:RDF>
  </metadata>
  <g
     id="layer1"
     transform="translate(-100.75915,-484.95513)">
    <g
       id="g3159"
       transform="matrix(1.8062188,0,0,1.8062258,100.75924,484.95513)">
      <g
         id="layer1-5"
         transform="matrix(0.99071795,0,0,0.99071412,-56.411093,27.590531)">
        <g
           transform="translate(3.1482707,1.2467651)"
           id="g4630">
          <path
             id="path1977"
             d="m 309.61748,124.88764 c -6.67349,-0.24506 -11.91193,-5.87066 -11.68904,-12.55371 0.10278,-3.23558 1.48587,-6.22627 3.83626,-8.43436 2.3599,-2.20746 5.4422,-3.3565 8.67779,-3.23478 6.68303,0.23388 11.92293,5.85011 11.69843,12.54335 -0.10116,3.22539 -1.46532,6.21591 -3.82525,8.43356 -2.37091,2.19789 -5.45322,3.3471 -8.69836,3.24594 l 1.7e-4,0 z m 2.80877,-10.97768 c 2.97011,0 5.38054,-1.60678 5.38054,-3.58018 0,-1.98376 -2.41057,-3.59136 -5.38054,-3.59136 -2.9716,0 -5.37263,1.6076 -5.37263,3.59136 0,1.9734 2.40103,3.58018 5.37263,3.58018" />
          <path
             id="path1979"
             d="m 172.32088,194.4927 0.42949,-0.0403 0.0697,-0.50857 c -0.11002,-0.39931 -0.36899,-0.75815 -0.7691,-5.70828 -0.33963,-4.38107 -1.02808,-16.39544 5.01904,-22.35331 2.3459,-2.32512 5.92773,-4.39109 8.7528,-5.05938 11.58565,-2.82429 26.62434,-0.86834 39.46736,13.98126 6.62695,7.6736 9.88009,11.17635 11.50658,12.74314 l 0.55826,0.51871 0.67908,0.4892 c 0.52872,0.29928 22.0734,10.21876 22.0734,10.21876 l 0.43886,-0.11003 0.0108,-0.46822 c -0.13955,-0.15973 -13.651,-17.6142 -11.25683,-31.99384 1.89624,-11.4561 11.01661,-10.42819 23.62098,-8.99159 4.12131,0.46902 8.8117,1.00791 13.6618,1.11793 13.54083,0.0799 28.13148,-2.4048 37.12308,-6.33703 5.81767,-2.54438 9.52969,-4.22136 11.85542,-6.33704 0.83722,-0.68845 1.27608,-1.82574 1.72571,-3.02355 l 0.3101,-0.80785 c 0.37835,-0.96837 0.92725,-3.04372 1.16764,-4.17166 0.11001,-0.49855 0.1597,-1.03807 -0.1907,-1.30704 l -1.24671,0.22944 c -3.94143,2.36527 -13.81216,6.87591 -23.05191,7.05565 -11.44612,0.23879 -34.51805,-11.5166 -36.92302,-12.76409 l -0.22944,-0.26897 c -0.57983,-1.37769 -4.04225,-9.57066 -4.77101,-11.29638 16.60629,10.93675 30.37653,16.98466 40.92492,17.92269 11.73602,1.04745 20.88734,-5.35866 24.79925,-8.09388 0.76752,-0.51871 1.34736,-0.93803 1.58616,-1.02727 l 0.24959,-0.40932 c -0.6497,-4.12132 -6.78669,-24.07984 -11.41655,-28.870248 -1.28689,-1.317199 -2.31495,-2.59407 -4.39109,-3.812034 -16.77524,-9.779277 -56.6024,-15.687619 -58.4677,-15.956589 l -0.31945,0.08986 -0.1194,0.279128 c 0,0 -0.15034,8.262819 -0.17053,9.181492 -4.07179,-1.357544 -33.6389,-10.908027 -61.36264,-11.8756 C 180.165,75.899718 148.06115,74.781783 102.69544,102.66365 l -1.33737,0.83801 c -21.33542,13.3122 -36.064828,29.71844 -43.7686,48.79859 -2.41497,5.99742 -5.667956,19.53984 -2.4553,32.28297 1.397063,5.57889 3.981764,11.16699 7.475135,16.17681 7.873661,11.31591 21.095825,18.83138 35.336055,20.09808 20.09807,1.79558 35.32668,-7.23475 40.74504,-24.14034 3.722,-11.66551 0,-28.77958 -14.2704,-37.51142 -11.60583,-7.11536 -24.1,-5.48886 -31.33491,-0.70861 -6.28671,4.17102 -9.84898,10.63746 -9.77928,17.75296 0.13956,12.60358 11.00725,19.3096 18.8112,19.31976 2.27461,0 4.55002,-0.38916 7.12472,-1.22717 0.90867,-0.27992 1.77622,-0.61859 2.72427,-1.20781 l 0.28992,-0.18909 0.1891,-0.11003 -0.0697,0.0302 c 1.78622,-1.1978 2.86383,-3.17313 2.86383,-5.28896 0,-0.57905 -0.0899,-1.16763 -0.24959,-1.75668 -0.91789,-3.18327 -4.0718,-5.11908 -7.34494,-4.52065 l -0.43886,0.0899 -0.59859,0.19926 -0.86833,0.28993 c -1.79623,0.44886 -3.15376,0.4792 -3.43288,0.4884 -0.91788,-0.0597 -5.41916,-1.40627 -5.41916,-6.33625 l 0,-0.0597 c 0.0108,-1.80639 0.73878,-3.07389 1.1381,-3.76234 1.38691,-2.19554 5.2191,-4.35076 10.39787,-3.8919 6.78668,0.57841 11.67632,4.06164 14.9193,10.62809 3.0142,6.10681 2.22588,13.61148 -2.0258,19.11972 -4.22136,5.45948 -11.73524,7.77442 -21.73474,6.68585 -10.07921,-1.10714 -18.60099,-6.90529 -23.37122,-15.93641 -4.670217,-8.82187 -4.929974,-19.29024 -0.66829,-27.33283 10.20877,-19.26007 29.47804,-19.0608 40.04659,-17.23425 15.64729,2.7041 29.84782,15.2278 36.1647,31.8838 1.0079,2.65455 1.52646,4.76007 1.97532,6.67586 l 0.67908,2.88399 17.67232,8.63181 0.24037,0.16972 4.8e-4,-1.5e-4 z m 125.61845,-94.00443 c -3.33207,3.09326 -5.23927,7.31462 -5.399,11.86543 -0.30849,9.37997 7.05645,17.28379 16.43578,17.63357 4.57099,0.14956 8.90156,-1.45756 12.22441,-4.57097 3.32285,-3.10344 5.22991,-7.31462 5.39899,-11.85544 0.31946,-9.39011 -7.04563,-17.303938 -16.44497,-17.64278 -4.55081,-0.149549 -8.89236,1.456777 -12.21521,4.57019" />
          <path
             d="m 270.6588,195.86516 -0.1974,0 c -0.22816,0 -0.42595,-0.1978 -0.42595,-0.42595 l 0,-3.05689 -0.66932,1.01895 c -0.0759,0.10628 -0.21299,0.15186 -0.33447,0.15186 l -0.0763,0 c -0.12148,0 -0.25853,-0.0456 -0.33446,-0.15186 l -0.6845,-1.01895 0,3.05689 c 0,0.22815 -0.1978,0.42595 -0.44114,0.42595 l -0.19742,0 c -0.22816,0 -0.42595,-0.1978 -0.42595,-0.42595 l 0,-3.65028 -2.05351,0 0,3.65028 c 0,0.22815 -0.21298,0.42595 -0.45593,0.42595 l -0.18262,0 c -0.22817,0 -0.42597,-0.1978 -0.42597,-0.42595 l 0,-3.65028 -1.53603,0 c -0.22815,0 -0.41076,-0.15225 -0.41076,-0.39522 l 0,-0.21296 c 0,-0.24336 0.18261,-0.3956 0.41076,-0.3956 l 5.38411,0 c 0.21298,0 0.34965,0.0759 0.42597,0.1978 l 1.01895,1.53603 1.01897,-1.53603 c 0.0759,-0.10669 0.19779,-0.1978 0.42596,-0.1978 l 0.6845,0 0,4.68443 c 0,0.22815 -0.21298,0.42595 -0.45633,0.42595"
             id="path2095" />
        </g>
      </g>
    </g>
  </g>
</svg>
