<?xml version="1.0" encoding="UTF-8" standalone="no"?>
<svg
   xmlns:dc="http://purl.org/dc/elements/1.1/"
   xmlns:cc="http://creativecommons.org/ns#"
   xmlns:rdf="http://www.w3.org/1999/02/22-rdf-syntax-ns#"
   xmlns:svg="http://www.w3.org/2000/svg"
   xmlns="http://www.w3.org/2000/svg"
   id="svg900"
   version="1.1"
   viewBox="0 0 135.46666 135.46667"
   height="512"
   width="512">
  <defs
     id="defs894" />
  <metadata
     id="metadata897">
    <rdf:RDF>
      <cc:Work
         rdf:about="">
        <dc:format>image/svg+xml</dc:format>
        <dc:type
           rdf:resource="http://purl.org/dc/dcmitype/StillImage" />
        <dc:title></dc:title>
      </cc:Work>
    </rdf:RDF>
  </metadata>
  <g
     id="layer1">
    <path
       id="path2355"
       d="m 80.901277,125.82759 c -0.38229,-1.43785 -1.2198,-4.10301 -1.45676,-4.6358 -0.16646,-0.37427 -0.70348,-1.72446 -1.19338,-3.00044 -0.9967,-2.59596 -1.09594,-2.69869 -2.60694,-2.69852 l -0.88513,9e-5 -0.29772,1.50096 c -0.16374,0.82552 -0.29771,1.8144 -0.29771,2.1975 0,1.13426 -1.12106,3.07391 -1.53651,2.65845 -0.0886,-0.0886 -0.39003,-1.5066 -0.6698,-3.15107 -0.27977,-1.64448 -0.55515,-3.11108 -0.61195,-3.25912 -0.0882,-0.22977 -1.11516,-0.53695 -2.27869,-0.68156 -0.4597,-0.0572 -3.0589,5.647 -3.66806,8.04986 -0.40676,1.60443 -0.68526,1.84759 -1.32439,1.15627 -0.34716,-0.3755 -0.37368,-0.57424 -0.38219,-2.86387 -0.009,-2.46591 -0.3528,-4.86725 -1.01616,-7.10103 -0.307094,-1.0341 -0.613614,-1.28033 -2.1412,-1.72002 -0.597591,-0.17201 -1.209381,-0.36537 -1.359536,-0.4297 -0.306953,-0.13151 -0.594155,0.44745 -1.49403,3.01178 -0.747966,2.13144 -0.774361,2.16959 -1.426083,2.06126 -1.395389,-0.23194 -1.315363,-0.15749 -1.312035,-1.22049 0.0017,-0.53622 0.115136,-1.70222 0.252129,-2.5911 0.330021,-2.14135 0.323593,-2.54213 -0.04253,-2.65114 -0.163741,-0.0487 -0.60393,-0.23795 -0.978196,-0.42044 -0.374266,-0.18249 -0.80335,-0.33158 -0.953519,-0.33132 -0.742097,0.001 -2.986987,3.03809 -4.651815,6.2928 -0.547198,1.06976 -1.063102,1.87349 -1.202581,1.87349 -0.134348,0 -0.353391,-0.17225 -0.486764,-0.38277 -0.213451,-0.33693 -0.194527,-0.65784 0.158002,-2.67941 0.478699,-2.7451 0.800251,-6.44279 0.653421,-7.51403 -0.0941,-0.68658 -0.211814,-0.85498 -1.062471,-1.52003 -1.786248,-1.3965 -2.926034,-2.05775 -3.18149,-1.84574 -0.626738,0.52014 -2.259969,2.70505 -2.712354,3.62853 -0.548492,1.11968 -1.017029,1.36847 -1.794044,0.95263 -0.488937,-0.26168 -0.38453,-0.77408 0.788724,-3.87095 0.506143,-1.33599 0.92026,-2.64867 0.92026,-2.91707 0,-0.39053 -0.23943,-0.70027 -1.198779,-1.55079 -1.189317,-1.054408 -1.203753,-1.061298 -1.828803,-0.872418 -1.708415,0.51624 -4.613743,2.823118 -5.890872,4.677458 -0.714605,1.03757 -1.53266,1.71926 -1.89591,1.57987 -0.401575,-0.1541 -0.293526,-0.5165 0.862277,-2.89211 0.608183,-1.25004 1.105788,-2.32313 1.105788,-2.38463 0,-0.0615 0.388692,-1.117538 0.863761,-2.346748 1.145708,-2.96445 1.193408,-4.3064 0.193798,-5.45237 -0.71478,-0.81944 -2.768886,0.001 -4.658796,1.86212 -0.683174,0.67255 -1.04822,0.91719 -1.251974,0.839 -0.442657,-0.16986 -0.180892,-1.14337 0.502189,-1.86765 0.69546,-0.7374 1.966366,-2.62987 2.482789,-3.69704 l 0.37725,-0.77957 -1.019181,-2.28261 c -0.560549,-1.25543 -1.072336,-2.45485 -1.137305,-2.66537 -0.13253,-0.42945 -0.404364,-0.48573 -0.821784,-0.17012 -0.15469,0.11696 -0.670097,1.28051 -1.145349,2.58566 -0.475252,1.30516 -1.018216,2.62239 -1.20659,2.92719 -1.214531,1.96515 -4.793224,3.782 -8.048242,4.08596 -0.849293,0.0793 -1.088286,0.0484 -1.16459,-0.15041 -0.146891,-0.38279 0.09664,-0.64536 0.825188,-0.88968 0.526214,-0.17647 0.76125,-0.40057 1.136068,-1.08322 0.708303,-1.29003 0.672211,-1.95764 -0.311526,-5.76257 -0.939417,-3.63352 -2.41846,-7.01766 -4.720793,-10.80145 -2.368083,-3.89185 -6.8248844,-9.25565 -8.3471794,-10.04589 -0.943871,-0.48998 -2.246347,-0.47968 -3.061642,0.0242 -0.48321003,0.29864 -0.67425203,0.33636 -0.95166003,0.1879 -0.190896,-0.10217 -0.342858,-0.27876 -0.33769299549,-0.39242 C 0.01611457,64.057822 2.3735436,62.380272 4.0212396,61.546502 c 1.854414,-0.938366 3.54014,-1.386127 5.310048,-1.410443 2.1162054,-0.02908 2.7072934,0.145373 4.6370414,1.368533 0.967286,0.6131 1.796978,1.16881 1.843761,1.23491 0.04678,0.0661 0.812329,0.65756 1.701212,1.31437 0.888883,0.65681 2.369073,1.81765 3.289311,2.57964 1.866161,1.54526 2.495774,1.79035 3.441073,1.33958 0.312494,-0.14903 0.693068,-0.46157 0.84572,-0.69454 0.384468,-0.58678 1.286126,-3.03634 1.201091,-3.26304 -0.126317,-0.33676 -1.941965,-1.43426 -3.083793,-1.86404 -0.616922,-0.23221 -1.504691,-0.61629 -1.97282,-0.85351 -1.566905,-0.794008 -0.625508,-1.148357 1.758843,-0.662042 1.661039,0.338792 3.144727,0.378792 3.667729,0.09889 0.292367,-0.156493 0.37963,-0.354534 0.37963,-0.86159 0,-0.615842 -0.07422,-0.713087 -1.148318,-1.504616 -0.631575,-0.465421 -1.607644,-1.132728 -2.169044,-1.482907 -2.802681,-1.748193 -3.266748,-2.227911 -3.030217,-3.13241 0.104511,-0.399645 0.9313,-0.865151 1.536603,-0.865151 0.225778,0 1.290724,0.390481 2.366548,0.867736 1.336667,0.592967 2.268043,0.896024 2.941366,0.957079 l 0.985322,0.08935 0.347584,-1.339852 c 0.191172,-0.736921 0.384205,-1.503793 0.428963,-1.704163 0.06817,-0.305167 -0.124096,-0.481872 -1.184349,-1.088501 -0.696151,-0.398309 -1.739436,-0.895721 -2.318411,-1.105362 -0.587831,-0.21285 -1.052682,-0.483413 -1.052682,-0.612709 0,-0.264487 0.576503,-0.275018 3.222927,-0.05887 l 1.69184,0.138181 -0.841234,-1.071018 c -1.044501,-1.32978 -3.993852,-4.161322 -5.455737,-5.23778 -0.969628,-0.713987 -1.090227,-0.865621 -1.04763,-1.317233 0.04438,-0.470503 0.105033,-0.51447 0.776605,-0.562941 0.628336,-0.04536 1.00248,0.09916 2.721938,1.05136 2.23728,1.238957 4.237711,1.978337 5.352483,1.978337 1.118503,0 2.510168,-0.456774 2.510168,-0.823889 0,-0.517325 -0.923299,-1.779099 -1.92758,-2.634218 -1.062359,-0.904571 -1.264672,-1.475405 -0.522908,-1.475405 0.242865,0 0.644776,0.143112 0.893136,0.318027 0.959279,0.675598 3.598806,1.837019 3.598806,1.583512 0,-0.07422 -1.337952,-1.585056 -2.973228,-3.357409 -1.853094,-2.008429 -2.974694,-3.356731 -2.97712,-3.578865 0.361089,-1.340855 1.463449,-1.472806 2.332213,-1.095575 0.395975,0.17975 1.244112,0.745036 1.884751,1.25619 2.646527,2.111622 5.216454,3.544331 5.892386,3.284952 0.323245,-0.124042 0.774985,-1.202253 0.770472,-1.838963 -0.0094,-1.319943 -1.44556,-3.797245 -3.779527,-6.519287 -0.724245,-0.844665 -1.317542,-1.692693 -1.318439,-1.884505 -0.0019,-0.409852 0.301555,-0.757039 0.661717,-0.757039 0.14028,0 1.139316,0.862606 2.220081,1.916903 2.942577,2.870515 3.474511,3.241813 5.298824,3.698648 0.672018,0.168282 0.87536,0.151993 1.44603,-0.115839 0.843399,-0.395835 0.916865,-0.869847 0.332735,-2.146884 -0.238828,-0.522133 -0.434233,-1.027044 -0.434233,-1.12203 0,-0.09498 -0.277562,-0.704066 -0.616806,-1.353517 -0.339244,-0.649451 -0.564389,-1.265632 -0.500323,-1.369292 0.269401,-0.435901 0.757898,-0.106321 1.851229,1.248992 0.637672,0.790468 1.517983,1.674729 1.956245,1.965022 l 0.796841,0.527806 0.297861,-0.367843 c 0.406041,-0.501439 0.374417,-1.106976 -0.127442,-2.440292 -0.233917,-0.621459 -0.425303,-1.289712 -0.425303,-1.485007 0,-0.195295 -0.344495,-1.375817 -0.765545,-2.623382 -0.42105,-1.247565 -0.765545,-2.568438 -0.765545,-2.935273 0,-0.665586 0.0017,-0.667202 0.79833,-0.776397 0.439082,-0.06018 0.854786,-0.05145 0.923789,0.0194 0.069,0.07086 0.7176,1.277147 1.441331,2.680647 1.412953,2.740079 1.997745,3.683544 2.67152,4.310054 0.405972,0.377491 0.448364,0.383425 0.851624,0.119199 0.758458,-0.496961 1.379152,-1.621185 1.345733,-2.437443 -0.04605,-1.124792 -0.662513,-3.541577 -1.673643,-6.56135 -0.848569,-2.534288 -0.897025,-2.762041 -0.62938,-2.958321 0.159482,-0.116958 0.389423,-0.212651 0.510979,-0.212651 0.298159,0 1.196456,1.259673 2.365676,3.317362 2.209644,3.888712 3.797199,5.358816 5.786954,5.358816 0.515025,0 0.572443,-0.05367 0.682527,-0.637954 0.0661,-0.350875 0.03131,-1.254364 -0.07736,-2.007753 -0.10865,-0.753389 -0.197542,-1.581509 -0.197542,-1.840266 0,-0.40934 0.0497,-0.455181 0.382771,-0.352809 0.210524,0.06471 0.394287,0.127286 0.408362,0.139054 0.01408,0.01177 0.228727,0.633833 0.477017,1.382366 0.24829,0.748533 0.71602,1.76288 1.03941,2.254105 0.54451,0.827107 0.63758,0.893136 1.25901,0.893136 0.64029,0 0.67664,-0.02924 0.79326,-0.637954 0.0702,-0.366371 6.4e-4,-1.615655 -0.16341,-2.93459 -0.55129,-4.432854 -0.3751,-5.290044 0.93262,-4.537413 0.54926,0.316112 0.66852,0.501476 0.89292,1.38787 0.14245,0.562665 0.67193,2.133069 1.17664,3.489785 0.9779,2.628739 1.01777,2.675944 2.08999,2.474794 l 0.57844,-0.108516 -0.006,-1.055547 c -0.006,-1.028648 -0.35081,-3.30798 -0.59113,-3.905078 -0.098,-0.243508 -0.028,-0.297712 0.38423,-0.297712 0.47704,0 0.53112,0.07516 1.00973,1.403499 0.52786,1.465027 1.2989,2.84953 1.58694,2.84953 0.17815,0 0.56716,-0.380068 1.06734,-1.042796 0.45565,-0.603726 0.9613,-2.39722 1.24084,-4.401081 0.72149,-5.1719577 0.88001,-5.8077287 1.41331,-5.6682677 0.47075,0.123103 0.80271,1.6875297 1.04034,4.9027227 0.10373,1.403499 0.26014,2.872512 0.34759,3.264471 0.3817,1.710867 1.24469,3.285192 1.80083,3.285192 0.33059,0 0.99234,-1.260007 1.60825,-3.062179 0.30377,-0.888883 0.56726,-1.637432 0.58552,-1.663441 0.0183,-0.02601 0.23417,0.02912 0.47982,0.122513 0.3957,0.150448 0.42748,0.220122 0.27877,0.611259 -0.25318,0.665911 -0.21685,4.421071 0.0448,4.631859 0.11695,0.09422 0.45383,0.222834 0.74862,0.285811 0.51955,0.111 0.54406,0.08947 0.80046,-0.703371 0.14546,-0.449831 0.42677,-1.468588 0.62512,-2.263904 0.19834,-0.795317 0.50622,-1.777108 0.68415,-2.181759 0.28134,-0.639796 0.37396,-0.719864 0.71025,-0.61405 0.21269,0.06692 0.58962,0.28317 0.83761,0.480548 0.39255,0.312431 0.46463,0.523967 0.55704,1.634776 0.25035,3.009235 0.48144,5.068636 0.58814,5.241274 0.063,0.101959 0.45303,0.336911 0.86669,0.522116 1.24382,0.556872 1.71774,0.01781 2.08542,-2.372032 0.23092,-1.500988 0.53955,-1.956785 1.02065,-1.507366 0.18928,0.176805 0.23637,0.50072 0.18337,1.26095 -0.0392,0.562664 0.0309,1.749297 0.15575,2.636961 0.2126,1.510871 0.25634,1.624217 0.68497,1.774959 0.60353,0.212252 1.05769,-0.03927 2.52662,-1.399271 1.70047,-1.574373 2.99769,-3.694436 3.780333,-6.17823 0.12495,-0.396546 0.95773,-0.569901 1.26442,-0.263208 0.21502,0.21502 0.13391,0.632479 -0.63816,3.284737 -0.76895,2.641527 -0.89615,3.29396 -0.9738,4.994804 -0.0839,1.838186 -0.0675,1.975991 0.27166,2.280736 0.35508,0.319045 0.37116,0.319045 0.98427,0 0.34281,-0.178389 1.22134,-0.879363 1.95228,-1.557721 0.73094,-0.678358 1.36351,-1.233378 1.40572,-1.233378 0.1819,0 0.61139,0.556685 0.61139,0.79247 0,0.141791 -0.42894,0.683332 -0.95321,1.203421 -1.54199,1.52973 -1.96693,2.54499 -1.33127,3.180652 0.36227,0.362276 0.53433,0.336661 0.7754,-0.115439 0.43782,-0.82108 2.07324,-2.679409 2.35802,-2.679409 0.52511,0 0.70811,0.402451 0.53445,1.175352 -0.0869,0.386576 -0.26484,0.873566 -0.39553,1.082197 -0.13069,0.208632 -0.42206,0.979551 -0.64751,1.713155 -0.37364,1.215837 -0.38755,1.373848 -0.15717,1.786272 0.41032,0.734547 1.10098,0.68262 3.05219,-0.229476 0.92911,-0.434313 1.76784,-0.741114 1.86384,-0.681782 0.39019,0.241148 0.12767,0.774576 -0.71859,1.460148 -1.70012,1.377312 -2.05643,2.099951 -1.24858,2.5323 0.49729,0.26614 1.43201,0.07746 3.76363,-0.759712 1.9404,-0.696707 3.72498,-1.593417 5.34017,-2.683303 l 1.26303,-0.852258 0.3973,0.461901 c 0.48821,0.567574 0.5736,0.428894 -2.01806,3.277599 -1.78575,1.962882 -3.54076,4.302114 -3.54322,4.722733 -5.1e-4,0.09859 -0.1082,0.384631 -0.23915,0.635636 -0.39574,0.758529 -0.50705,1.523261 -0.24582,1.688787 0.36433,0.23085 1.30327,0.177981 3.30673,-0.186183 2.18137,-0.396509 2.28292,-0.403133 2.28292,-0.148929 0,0.288891 -0.43365,0.583668 -2.12651,1.445519 -1.88689,0.960626 -2.127,1.167651 -2.12468,1.831903 0.002,0.542685 0.37376,1.932071 0.6485,2.423003 0.0855,0.152835 0.68191,0.670493 1.3253,1.150352 1.13642,0.847588 1.40882,1.180825 3.57477,4.373141 0.42,0.619018 0.86917,1.476157 0.99816,1.904751 0.21727,0.721938 0.20938,0.811221 -0.10719,1.213678 -0.18794,0.238929 -0.49967,0.434415 -0.69273,0.434415 -0.31972,0 -0.34137,0.07038 -0.24284,0.789289 0.0595,0.43411 0.10819,1.116074 0.10819,1.515478 0,0.626544 0.10126,0.830394 0.73793,1.485484 0.99491,1.02368 2.20846,2.87995 2.93755,4.49333 0.33014,0.73055 0.81987,1.7876 1.08829,2.349 0.5819,1.21704 1.24149,3.44163 1.52583,5.14617 0.20472,1.22723 0.20843,1.23338 0.74327,1.23401 0.77444,6.4e-4 1.62035,0.58173 1.92471,1.32153 0.82044,1.99426 1.6825,3.60526 2.23606,4.17865 1.15803,1.19957 2.36618,1.55377 2.94027,0.86204 0.36139,-0.43545 0.76878,-0.27395 0.971,0.38493 0.17622,0.57419 0.14407,0.70793 -0.40718,1.69367 -0.7922,1.41657 -2.20388,2.70057 -3.34012,3.03799 -1.16457,0.34584 -4.52797,0.34898 -5.68524,0.005 -0.4697,-0.13948 -1.11516,-0.43356 -1.43438,-0.6535 l -0.58039,-0.3999 -3.35907,3.41797 -3.35907,3.41798 0.79931,1.17245 c 0.43962,0.64485 1.17456,1.58303 1.6332,2.08485 0.79385,0.8686 0.95776,1.42196 0.42072,1.42039 -0.30398,-6.4e-4 -1.22635,-0.57867 -2.43677,-1.52642 -1.20867,-0.94637 -1.50491,-1.1111 -2.25338,-1.25302 -0.42656,-0.0809 -0.5846,-0.0402 -0.66568,0.17101 -0.13784,0.35918 0.60331,2.50367 1.09746,3.17549 0.41879,0.56938 0.4824,0.96712 0.19984,1.24968 -0.231,0.231 -1.66174,-0.28773 -2.44828,-0.88765 -0.75435,-0.57537 -0.99249,-0.52953 -1.5389,0.29615 -1.04278,1.57575 -0.56299,2.63205 2.8299,6.23013 2.45408,2.60252 2.63674,2.98817 1.48823,3.14222 -0.6215,0.0834 -0.74978,0.0381 -1.11136,-0.39155 -0.57291,-0.68086 -2.66745,-1.68885 -5.11322,-2.46071 -2.0668,-0.65226 -2.08242,-0.65434 -2.72194,-0.36267 -0.65663,0.29947 -1.18171,0.7169 -1.8948,1.50635 l -0.40098,0.44391 0.8986,1.66195 c 0.49421,0.91407 1.30623,2.27098 1.80447,3.01534 0.49823,0.74438 0.90588,1.48294 0.90588,1.64125 0,0.5987 -1.12577,1.17262 -1.84956,0.9429 -0.18865,-0.0599 -1.10384,-1.04286 -2.03373,-2.18441 -0.9299,-1.14154 -1.89169,-2.26167 -2.13733,-2.48919 -0.4279,-0.39633 -0.46984,-0.40257 -1.00163,-0.14898 -0.30527,0.14558 -1.20445,0.68362 -1.998183,1.19567 -0.79373,0.51204 -1.69419,1.06081 -2.00103,1.21948 -0.30685,0.15867 -0.51898,0.35147 -0.47141,0.42845 0.0476,0.077 0.24098,1.08805 0.4298,2.24686 0.39164,2.4036 0.79097,3.77769 1.51421,5.2104 0.62437,1.23687 0.84952,2.25532 0.49859,2.25532 -0.13301,0 -1.37963,-1.20573 -2.77025,-2.6794 -2.80743,-2.9751 -3.77361,-3.85195 -4.67058,-4.23876 -0.60694,-0.26174 -2.28233,-0.39365 -2.48066,-0.19532 -0.097,0.097 0.11225,1.76104 0.6105,4.85409 0.23562,1.46263 0.14173,1.94953 -0.45076,2.33774 -0.36728,0.24066 -0.52532,0.25609 -0.92536,0.0904 -0.77283,-0.32011 -0.94559,-0.6258 -1.84484,-3.26439 -1.18203,-3.46831 -0.97466,-3.20968 -2.31628,-2.88868 l -1.11368,0.26646 -0.57899,1.79568 c -0.7979,2.47457 -1.12741,4.1844 -1.2421,6.44528 -0.0674,1.32872 -0.17279,2.00268 -0.33917,2.16905 -0.2981,0.29811 -0.54982,0.30968 -0.62452,0.0287 z m 0.13499,-5.614 c 0.86596,-3.02966 0.95467,-3.78736 0.48511,-4.1438 -0.39794,-0.30209 -1.2246,-0.2942 -1.97376,0.0188 -0.57126,0.23869 -0.60018,0.28624 -0.43624,0.71744 0.0966,0.25399 0.23833,0.54086 0.31502,0.6375 0.0767,0.0966 0.39476,0.96038 0.70682,1.91943 0.31206,0.95906 0.58547,1.74375 0.60758,1.74375 0.0221,0 0.15506,-0.40191 0.29547,-0.89314 z m -15.45197,-2.17745 c 0.3403,-1.25852 0.65551,-2.41248 0.70045,-2.56435 0.0899,-0.30367 -0.68786,-0.65954 -1.44138,-0.65954 -0.41988,0 -0.42235,0.009 -0.31372,1.14832 0.0602,0.63157 0.15847,1.89626 0.21834,2.81042 0.0599,0.91416 0.13331,1.63764 0.16321,1.60774 0.0299,-0.0299 0.33279,-1.08406 0.6731,-2.34259 z m 23.31051,-0.0995 c -0.88828,-5.21704 -1.2506,-9.42705 -1.04608,-12.15503 0.14259,-1.90187 0.24919,-2.16215 0.78721,-1.92208 0.36954,0.1649 0.37874,0.24072 0.41137,3.39164 0.0279,2.69619 0.23481,4.87352 0.48707,5.12577 0.16233,0.16234 4.42382,-1.39613 6.61458,-2.41903 3.0323,-1.41582 3.41897,-1.72422 3.26033,-2.60044 -0.40413,-2.2321 -1.39896,-3.63135 -3.24521,-4.56444 -0.80457,-0.40663 -1.3527,-0.79317 -1.38852,-0.97921 -0.0534,-0.27731 0.0297,-0.29536 0.84991,-0.18462 0.76514,0.10331 1.17899,0.31888 2.61333,1.36127 3.146603,2.28677 6.141143,5.2337 7.647793,7.5262 0.26134,0.39766 0.50761,0.72301 0.54726,0.72301 0.0397,0 -0.12607,-0.32535 -0.36828,-0.72301 -2.30037,-3.77669 -4.11376,-8.09325 -4.92201,-11.716308 -0.72227,-3.23761 -0.58511,-3.62284 0.41671,-1.17036 0.28666,0.70174 0.59123,1.42901 0.67683,1.61615 0.15674,0.34266 1.73814,4.493778 1.93391,5.076468 0.093,0.27682 0.2021,0.23195 0.94176,-0.38732 1.2986,-1.08725 4.13166,-4.398848 4.4264,-5.174078 0.0942,-0.24791 0.27991,-0.45074 0.41256,-0.45074 0.49418,0 0.60369,-1.16874 0.20004,-2.13481 -0.18531,-0.4435 -0.44329,-0.67664 -1.02435,-0.92571 -0.79157,-0.33931 -1.0497,-0.66008 -0.88227,-1.09638 0.13644,-0.35557 1.01009,-0.0794 3.24763,1.02653 1.02239,0.50533 1.91073,0.91879 1.9741,0.91879 0.0633,0 -0.0598,-0.36573 -0.27375,-0.81274 -0.57914,-1.21011 -1.26949,-3.36316 -1.38144,-4.30842 -0.0799,-0.67458 -0.0496,-0.83308 0.15938,-0.83308 0.39907,0 0.62624,0.37813 0.98673,1.64246 0.18263,0.6405 0.3711,1.26755 0.41884,1.39345 0.11255,0.29686 6.40579,-5.72399 7.77697,-7.44037 1.33994,-1.67726 2.22355,-3.4891 2.88728,-5.9203 0.4832,-1.76998 0.54937,-2.27217 0.55607,-4.2206 0.0109,-3.16179 -0.58911,-5.28792 -2.79141,-9.89185 -1.12446,-2.35068 -1.51953,-2.72849 -2.36299,-2.25983 -0.36898,0.20503 -1.53519,1.99937 -1.553,2.38946 -0.003,0.0576 0.43891,0.26657 0.9812,0.4643 1.21948,0.44464 2.27428,1.32645 2.74173,2.29206 0.26947,0.55666 0.3552,1.06233 0.3552,2.09519 0,1.59894 -0.31897,2.81107 -1.12044,4.25783 -0.6996,1.26287 -0.76245,2.32544 -0.23799,4.02344 0.61076,1.97742 0.6588,2.54388 0.34527,4.07113 -0.37836,1.84309 -0.74435,2.57771 -1.82626,3.66572 -2.03541,2.04686 -5.26087,2.74812 -7.39958,1.60876 -1.37654,-0.73334 -2.29215,-0.1598 -3.09233,1.93701 -0.25474,0.66751 -0.61137,1.34778 -0.79251,1.51172 -0.30605,0.27697 -0.33712,0.27786 -0.43894,0.0125 -0.30989,-0.80756 0.66607,-4.01219 1.62507,-5.33605 l 0.49109,-0.67792 -0.49295,-1.83745 c -0.63985,-2.38505 -0.95185,-3.34276 -1.48302,-4.55219 -0.4003,-0.91147 -0.46926,-0.98088 -0.87411,-0.87988 -0.57593,0.14368 -0.93738,0.48046 -1.73246,1.61423 -2.3242,3.31425 -2.91304,4.00003 -3.85115,4.48515 -0.58889,0.30452 -0.99785,0.35491 -1.131073,0.13937 -0.0472,-0.0764 0.614183,-0.97589 1.469723,-1.99892 3.5147,-4.20271 5.11416,-7.4176 5.7375,-11.53231 0.2282,-1.50629 0.0671,-2.87488 -0.52432,-4.45572 -0.90298,-2.41344 -4.23612,-4.40353 -9.126443,-5.44903 -0.77192,-0.16503 -1.4035,-0.38654 -1.4035,-0.49224 0,-0.410554 0.44749,-0.600476 1.41484,-0.600476 0.96073,0 1.00188,-0.01743 0.90421,-0.382772 -0.0563,-0.210525 -0.19164,-1.014348 -0.3008,-1.786272 -0.21508,-1.520939 -0.29561,-1.599265 -1.17609,-1.143949 l -0.50191,0.259547 v -0.824038 c 0,-3.40427 3.12532,-7.354862 8.889363,-11.236669 0.72543,-0.488546 1.43356,-0.932237 1.57362,-0.985981 0.4073,-0.156296 0.29146,0.302829 -0.26045,1.032245 -0.27809,0.367544 -0.50563,0.793523 -0.50563,0.946622 0,0.1531 0.69926,1.230364 1.55392,2.393921 1.63275,2.222909 3.22529,4.610496 4.29279,6.435936 0.73914,1.263932 0.65849,1.552651 -0.34746,1.243916 -0.34842,-0.106935 -0.65077,-0.177142 -0.6719,-0.156019 -0.0211,0.02112 0.0764,0.497103 0.21678,1.057732 0.14035,0.560627 0.26359,1.823146 0.27387,2.805595 0.0208,1.985442 -0.29036,3.384772 -0.99205,4.462032 -0.22724,0.34887 -0.41316,0.71233 -0.41316,0.80768 0,0.0954 -0.2639,0.5407 -0.58643,0.98965 -0.86704,1.20685 -0.95852,1.55081 -0.7338,2.75913 0.18591,0.99973 0.0739,2.30009 -0.32073,3.7233 l -0.11314,0.40801 0.55356,-0.32295 c 0.69092,-0.40308 1.52006,-1.39349 2.90514,-3.47019 1.15213,-1.72742 2.43388,-3.05741 2.9494,-3.06036 0.23465,-0.001 0.28388,-0.0784 0.19139,-0.29953 -0.82676,-1.97677 -0.84007,-2.09464 -0.87855,-7.783043 -0.039,-5.770753 -0.11627,-6.535813 -0.96509,-9.561735 -0.44165,-1.574366 -1.74655,-5.034778 -2.34185,-6.210223 -0.17582,-0.347148 -0.31966,-0.710782 -0.31966,-0.808076 0,-0.270353 0.7811,-0.210448 1.02073,0.07828 0.28586,0.344445 0.51036,0.321722 0.51036,-0.05166 0,-0.675598 0.99219,-2.230319 2.27824,-3.569895 l 1.35608,-1.412528 -1.68957,0.842251 c -2.02554,1.009735 -3.22868,1.384831 -4.44189,1.384831 -0.80363,0 -0.98176,-0.06998 -1.6001,-0.628607 -0.38268,-0.345734 -1.16052,-1.22935 -1.72853,-1.963591 -0.568,-0.734243 -1.09249,-1.27433 -1.16552,-1.200196 -0.21567,0.218902 -0.9743,2.998463 -1.46292,5.35997 -0.687,3.320273 -1.1855,3.675864 -1.11827,0.797676 0.0538,-2.303926 0.89033,-6.117072 1.84303,-8.401305 0.0773,-0.185348 -0.43901,0.250137 -1.14737,0.967746 -0.70835,0.717608 -1.86968,1.684529 -2.58074,2.148712 -1.705333,1.11325 -4.023463,1.908683 -4.023463,1.380593 0,-0.09792 0.23543,-0.308443 0.52319,-0.467833 1.71127,-0.947902 3.672023,-2.359917 4.670863,-3.363684 l 1.14846,-1.154127 -0.40679,-0.329877 c -0.22373,-0.181433 -1.28774,-0.851356 -2.36445,-1.488716 -2.021103,-1.196389 -2.839263,-1.874744 -2.643393,-2.191676 0.15915,-0.257518 0.71776,-0.226888 1.16209,0.06372 l 0.37678,0.246434 0.0336,-1.394752 c 0.0185,-0.767114 0.18433,-1.958665 0.36851,-2.647893 0.18418,-0.689227 0.27983,-1.186832 0.21256,-1.105787 -0.0673,0.08104 -0.46277,0.600372 -0.87888,1.154061 -0.88005,1.171051 -2.92585,2.991139 -3.36206,2.991139 -0.69861,0 -2.45919,-0.584708 -4.30355,-1.429262 l -1.97556,-0.904626 -0.1034,1.340934 c -0.0568,0.737514 -0.0711,1.549718 -0.0316,1.804898 0.0395,0.255181 0.11269,1.393231 0.16264,2.529001 l 0.0908,2.065036 -0.51439,0.0755 c -0.96386,0.141464 -1.03315,-0.03978 -1.22196,-3.196408 -0.0948,-1.584272 -0.18152,-4.373305 -0.1928,-6.197855 l -0.0205,-3.317362 -0.54364,2.18138 c -0.69731,2.797892 -1.24914,4.227364 -2.1524,5.575575 -0.82311,1.228573 -2.44009,2.657812 -2.70605,2.391854 -0.11106,-0.11106 -0.0383,-0.30345 0.21367,-0.565312 1.11096,-1.154393 1.94829,-2.958669 2.79888,-6.031046 0.12826,-0.46326 -0.27111,-0.629716 -2.63086,-1.096543 -2.01675,-0.398973 -2.96508,-0.844038 -3.50432,-1.644635 -0.51399,-0.763098 -0.94465,-2.654714 -1.0699,-4.699258 l -0.10573,-1.726013 -0.20408,1.786272 c -0.36237,3.1717 -1.13347,4.951953 -2.43178,5.614305 -0.9466,0.482919 -2.46859,0.850299 -3.52263,0.850299 -0.8707,0 -0.8996,0.01519 -0.89011,0.467833 0.0132,0.629214 0.4821,2.263507 1.34133,4.67492 0.48834,1.370491 0.6635,2.080459 0.55926,2.266725 -0.12823,0.229124 -0.23377,0.177831 -0.68009,-0.330503 -0.29058,-0.330945 -0.79301,-1.159587 -1.11652,-1.841424 -0.51813,-1.092033 -2.53023,-6.717591 -3.2424,-9.065278 l -0.25803,-0.850605 0.10682,1.701211 c 0.18191,2.897317 0.0993,5.689946 -0.2089,7.060028 -0.28284,1.25745 -1.16313,3.333513 -1.69514,3.997847 -0.25738,0.321387 -0.26861,0.293103 -0.2027,-0.510364 0.0384,-0.467833 0.22593,-1.577873 0.41679,-2.466756 0.19087,-0.888883 0.39917,-2.216902 0.46289,-2.951153 0.10819,-1.2465 0.0951,-1.328628 -0.19791,-1.238855 -0.17258,0.05288 -1.02279,0.180927 -1.88935,0.284546 -1.914108,0.228878 -3.619767,0.01582 -4.920405,-0.614638 C 57.7942,22.991273 56.52642,21.597267 55.807667,20.123149 55.50601,19.504467 55.225798,19.031676 55.184974,19.0725 c -0.04082,0.04082 0.207071,0.871835 0.550879,1.84669 1.224427,3.471819 0.702381,5.771026 -1.521299,6.700139 -0.349598,0.146071 -0.635633,0.303443 -0.635633,0.349716 0,0.344489 2.178359,3.450782 3.11932,4.448084 1.259761,1.335191 1.366602,1.800096 0.287125,1.249389 -1.889693,-0.964049 -3.778614,-3.443242 -6.547216,-8.593169 -0.905425,-1.684199 -1.72303,-3.138736 -1.816897,-3.232302 -0.09387,-0.09357 0.033,0.36576 0.28193,1.020727 2.458225,6.467937 2.943473,8.217176 3.091797,11.145392 0.08538,1.685538 0.06038,1.991085 -0.179145,2.189874 -0.500755,0.415591 -0.730098,-0.03131 -0.841308,-1.639366 -0.08508,-1.230251 -0.770431,-4.324742 -1.011128,-4.565438 -0.03621,-0.03621 -0.634655,0.473004 -1.32987,1.131597 -3.098745,2.935499 -4.287979,3.175423 -7.100675,1.432542 l -0.733011,-0.454208 0.624626,1.240341 c 1.041765,2.068669 0.991156,3.483718 -0.163167,4.562107 -0.242805,0.226836 -0.441466,0.464087 -0.441466,0.527228 0,0.191623 3.288184,1.674962 4.269894,1.926198 0.940794,0.240768 1.148258,0.524871 0.624527,0.855233 -0.451966,0.285093 -2.737845,-0.2534 -4.409933,-1.038865 -0.781084,-0.366915 -2.415363,-1.344826 -3.63173,-2.173135 -4.501422,-3.065338 -5.719035,-3.83418 -5.897501,-3.723882 -0.104797,0.06477 1.262905,1.537324 3.204495,3.450169 3.296051,3.247246 4.917335,5.135329 6.109017,7.114314 0.63666,1.057276 0.712061,1.513904 0.33306,2.016992 -0.23755,0.315324 -0.291045,0.283209 -1.185409,-0.71167 -1.105495,-1.229736 -1.978457,-1.594981 -3.812112,-1.594981 -0.90521,0 -1.399107,0.0999 -2.094549,0.423641 -1.509114,0.70253 -3.19275,0.534414 -5.92294,-0.591426 -0.687678,-0.283577 -1.283104,-0.482812 -1.323168,-0.442749 -0.04006,0.04006 0.662297,0.856849 1.560806,1.815077 1.063439,1.134125 1.816276,2.113202 2.156876,2.805059 l 0.523228,1.062825 -0.449508,2.014527 c -0.24723,1.10799 -0.560241,2.391181 -0.69558,2.851533 -0.13534,0.460355 -0.213702,0.869375 -0.174143,0.908935 0.134643,0.134644 3.240825,0.548284 4.12634,0.549491 0.922307,0.0012 1.754816,0.229001 1.754816,0.480049 0,0.272428 -0.82391,0.525274 -2.08358,0.639421 -2.30913,0.209248 -5.292455,-0.396994 -8.880409,-1.804588 -0.930815,-0.365169 -1.716311,-0.64002 -1.74555,-0.610781 -0.02924,0.02924 1.128968,0.836116 2.573791,1.79306 2.900866,1.921316 4.732606,3.406577 5.916622,4.797472 0.858176,1.00812 1.83743,2.58293 1.83743,2.9549 0,0.37216 -0.36812,0.50586 -0.541218,0.19655 -0.08589,-0.15348 -0.266756,-0.27906 -0.401913,-0.27906 -0.135157,0 -0.605372,-0.35455 -1.044923,-0.78787 -0.765101,-0.75427 -1.627758,-1.25359 -2.165791,-1.25359 -0.359904,0 -1.126432,1.06873 -1.308646,1.82457 -0.08515,0.35321 -0.221058,2.15988 -0.302019,4.01485 -0.08456,1.93742 -0.223696,3.44914 -0.326951,3.5524 -0.278975,0.27897 -0.736185,-0.98153 -0.766623,-2.11353 -0.0254,-0.94438 -0.0361,-0.96521 -0.369229,-0.71804 -0.933617,0.69271 -2.062458,1.09191 -3.092269,1.09354 -0.972088,0.001 -1.112243,-0.0491 -1.935349,-0.69976 -0.488052,-0.38578 -1.923475,-1.65557 -3.18983,-2.82175 -2.651457,-2.44171 -4.268458,-3.63194 -5.627581,-4.14232 -0.834585,-0.3134 -1.232964,-0.35135 -3.0848594,-0.29383 -1.825738,0.0567 -2.240811,0.12374 -2.93459,0.47403 -0.451778,0.22811 -0.805216,0.52433 -0.80159,0.67182 0.0035,0.14509 0.386258,0.67098 0.850425,1.16862 l 0.843939,0.90481 1.233559,-0.18604 c 1.362083,-0.20543 3.3241044,-0.27023 3.4794114,-0.11492 0.134031,0.13403 -0.07759,0.19442 -2.2033214,0.62877 -1.005842,0.20552 -1.828803,0.43438 -1.828803,0.50857 0,0.29814 0.953876,1.24223 1.475153,1.46004 0.375766,0.157 1.2962874,0.23205 2.8463984,0.23205 2.143168,0 3.372755,0.18818 3.08798,0.47259 -0.06764,0.0676 -1.016054,0.10271 -2.107579,0.0781 -1.091524,-0.0246 -2.240578,0.0144 -2.553452,0.0866 l -0.568863,0.13133 1.167583,1.44765 c 0.64217,0.79621 1.379851,1.80986 1.639291,2.25257 l 0.471708,0.80491 1.65151,0.006 c 1.110013,0.004 1.790958,0.0857 2.076813,0.24916 0.38881,0.22227 0.268386,0.24364 -1.4035,0.24915 -1.662001,0.006 -1.828802,0.0347 -1.828802,0.31991 0,0.67904 0.568996,0.91784 2.205273,0.92551 0.845566,0.004 1.537392,0.0369 1.537392,0.0731 0,0.19154 -1.282273,0.55887 -1.950929,0.55887 -0.424055,0 -0.771009,0.035 -0.771009,0.0777 0,0.0428 0.542481,1.1145 1.205513,2.3817 1.363986,2.60685 1.306341,2.57003 2.902186,1.85385 0.551654,-0.24756 1.0506,-0.40252 1.108773,-0.34435 0.193557,0.19356 -0.306939,0.61104 -1.278569,1.0665 -0.52843,0.2477 -0.988952,0.47549 -1.023379,0.50619 -0.126596,0.11289 0.561035,1.77358 0.734156,1.77306 0.09847,-3.4e-4 0.638373,-0.30627 1.199773,-0.67994 0.561399,-0.37367 1.080835,-0.67965 1.154302,-0.67994 0.305803,-0.001 -0.277246,0.70392 -0.984181,1.1903 -1.247126,0.85805 -1.246956,0.85681 -0.484733,3.53249 l 0.255134,0.89562 0.47106,-0.33543 c 0.259084,-0.18448 0.865764,-0.6903 1.348178,-1.12403 0.946901,-0.85135 1.188805,-0.73168 0.38093,0.18844 -0.272903,0.31082 -0.559983,0.67293 -0.637954,0.80469 -0.07797,0.13177 -0.470542,0.45502 -0.87238,0.71835 -0.515979,0.33813 -0.699327,0.55812 -0.62412,0.74886 0.05857,0.14854 0.149594,0.82509 0.202274,1.50345 0.05713,0.73566 0.172258,1.23338 0.285297,1.23338 0.401151,0 2.328141,-1.41469 3.146161,-2.30973 1.050826,-1.14977 1.981591,-2.99431 2.309913,-4.57766 0.255587,-1.23257 0.543461,-1.61867 1.206891,-1.61867 0.679031,0 0.832603,-0.40219 0.611587,-1.60169 -0.272885,-1.48099 -0.248751,-2.04057 0.106948,-2.47983 0.283069,-0.34959 0.321978,-0.356 0.543073,-0.0896 0.130986,0.15783 0.271005,0.74107 0.311152,1.29609 0.04015,0.55503 0.133777,1.0467 0.208066,1.09261 0.362615,0.22411 1.260176,-0.9373 2.133195,-2.76027 0.930447,-1.94289 1.291376,-2.29042 1.402414,-1.35037 0.08915,0.75476 -0.435398,2.02613 -1.418962,3.43919 l -0.925534,1.3297 0.923787,0.28582 c 0.508084,0.15721 1.272028,0.50584 1.697656,0.77474 0.612035,0.38667 0.773932,0.58675 0.774172,0.95674 3.4e-4,0.63124 -0.249001,0.60289 -1.871028,-0.21265 -1.289178,-0.64818 -2.381696,-0.88083 -2.381696,-0.50717 0,0.49916 0.940845,2.74354 1.767559,4.2165 0.517144,0.9214 1.022609,1.89186 1.123257,2.15658 0.180495,0.47474 0.203383,0.45016 1.675543,-1.79916 0.820901,-1.25426 1.982973,-3.07243 2.582383,-4.04038 1.089226,-1.75892 1.090004,-1.75969 1.393696,-1.38465 0.167123,0.20639 0.303861,0.52483 0.303861,0.70764 0,0.63472 -0.747812,2.10662 -1.986845,3.91067 l -1.245863,1.814 1.318641,-0.50684 c 0.725254,-0.27876 1.790502,-0.73868 2.367216,-1.02204 0.684494,-0.33633 1.171808,-0.4761 1.403499,-0.40256 0.367239,0.11655 0.500471,0.60008 0.165349,0.60008 -0.394392,0 -2.969718,1.65161 -3.880068,2.48837 -1.168855,1.07436 -2.30848,2.68164 -2.119943,2.98986 0.07429,0.12146 0.197412,0.29738 0.273605,0.39095 0.07619,0.0936 0.702562,0.94494 1.391934,1.89195 1.243111,1.70768 3.128556,3.72799 4.4598,4.7788 l 0.692207,0.54638 0.773835,-1.65217 c 1.061901,-2.26721 1.232433,-2.76562 1.597748,-4.66965 0.308638,-1.60864 0.614218,-2.13684 0.939571,-1.62409 0.547035,0.86213 -0.907554,6.98582 -3.062402,12.892438 -0.290147,0.79532 -0.433855,1.29995 -0.319351,1.12142 1.1704,-1.82489 6.549768,-7.433528 7.832483,-8.166298 0.809701,-0.46256 1.309056,-0.48667 1.304952,-0.063 -0.0012,0.1199 -0.635512,0.87715 -1.409665,1.68279 -1.256884,1.308008 -2.262055,2.804198 -2.569925,3.825308 -0.08881,0.29457 0.06318,0.46875 0.873838,1.00146 0.539743,0.35468 1.478954,1.04719 2.087138,1.53892 1.31843,1.06596 2.4993,1.77804 3.657604,2.20555 0.467833,0.17267 0.980866,0.42432 1.140073,0.55921 0.261443,0.22151 0.340088,0.16544 0.812268,-0.57911 0.761241,-1.20035 0.915604,-1.94488 0.859794,-4.14696 -0.02727,-1.07602 -0.05872,-2.37056 -0.06989,-2.87676 -0.04977,-2.255798 0.843841,-0.1675 1.340201,3.13194 0.526434,3.49935 0.508895,4.43356 -0.185247,9.86703 l -0.08693,0.68048 0.356906,-0.68048 c 0.196298,-0.37427 0.778797,-1.75225 1.294443,-3.06218 1.089555,-2.76788 2.219679,-4.95536 3.120092,-6.0393 0.349754,-0.42106 0.743037,-0.9378 0.873954,-1.14832 0.281476,-0.45265 0.422533,-0.48047 0.564199,-0.1113 0.0625,0.16284 -0.542929,1.56526 -1.512893,3.50455 -0.88938,1.7782 -1.61706,3.32707 -1.61706,3.44193 0,0.24453 4.545593,1.72584 7.857423,2.56056 l 2.26478,0.57082 0.11779,-0.62392 c 0.3233,-1.71255 -0.013,-4.35588 -0.87936,-6.91119 -0.44772,-1.32061 -0.48422,-1.55628 -0.27363,-1.76688 0.2106,-0.21058 0.35003,-0.03 1.04534,1.35375 1.82209,3.62621 3.10892,7.54663 3.55826,10.8405 0.13042,0.95599 0.23161,1.35879 0.2418,0.96248 0.0536,-2.0855 1.24165,-9.63186 1.71043,-10.86485 0.22787,-0.59933 0.83171,-0.693 1.07172,-0.16624 0.15707,0.34472 0.0648,1.12522 -0.49207,4.16187 -0.44463,2.42461 -0.62447,3.77524 -0.51195,3.84478 0.31583,0.1952 4.74931,0.0753 7.23146,-0.1955 1.34332,-0.14658 2.4725,-0.2665 2.50929,-0.2665 0.0368,0 0.066,-0.36364 0.0649,-0.80808 -0.004,-1.53116 -0.73094,-3.44221 -1.97434,-5.18909 -0.3165,-0.44466 -0.57546,-0.94731 -0.57546,-1.11701 0,-0.1697 -0.26794,-0.54577 -0.59542,-0.8357 -0.66859,-0.59192 -0.71631,-0.75444 -0.31846,-1.08462 0.24255,-0.2013 0.38368,-0.11406 1.13587,0.70219 1.15905,1.25775 2.57891,3.46682 3.37373,5.24899 0.35989,0.80694 1.20678,3.16738 1.88198,5.2454 0.67521,2.07803 1.25393,3.75196 1.28605,3.71984 0.0322,-0.0321 -0.0572,-0.73712 -0.1984,-1.56666 z m -10.21795,-7.41997 c -0.0381,-0.11696 -0.23664,-0.90164 -0.44108,-1.74375 -0.72077,-2.96896 -2.8198,-8.18762 -3.67193,-9.129198 -0.40696,-0.44969 -0.13022,-0.69783 0.44596,-0.39987 0.82642,0.42735 2.26089,3.052648 3.14577,5.757228 0.61924,1.89267 0.64362,1.88008 0.93197,-0.48118 0.47802,-3.9144 0.77071,-5.188698 1.19177,-5.188698 h 0.3064 c 0.2282,0 0.15957,1.073038 -0.16866,2.636878 -0.38116,1.81601 -0.65661,5.52533 -0.48144,6.48327 0.0877,0.47944 0.0577,0.74008 -0.10204,0.88937 -0.12433,0.11614 -0.22606,0.38422 -0.22606,0.59574 0,0.63844 -0.75757,1.11074 -0.93066,0.58021 z m 14.16471,-3.40382 c -0.32667,-0.492 -0.8813,-1.41747 -1.23251,-2.05661 -1.18709,-2.16027 -2.93054,-4.62402 -4.29628,-6.071268 -0.74742,-0.79202 -1.44885,-1.6104 -1.55873,-1.81863 -0.17804,-0.3374 -0.15351,-0.39021 0.22552,-0.48533 0.34323,-0.0862 0.5159,0.003 0.8947,0.46365 0.25816,0.31371 0.85897,0.99144 1.33513,1.50606 1.61487,1.745288 3.14937,3.584828 3.34074,4.004828 0.2167,0.47561 0.54791,0.57402 0.40593,0.12061 -0.16524,-0.52774 -0.58879,-2.966788 -0.8605,-4.955258 -0.14547,-1.0646 -0.30828,-2.11009 -0.3618,-2.32333 -0.0535,-0.21323 -0.0116,-0.54794 0.0933,-0.74379 0.20742,-0.38758 0.68896,-0.4871 0.68896,-0.1424 0,1.03464 0.65598,5.27245 1.35677,8.765108 0.47015,2.34314 0.85481,4.34365 0.85481,4.44557 0,0.40038 -0.31862,0.14534 -0.88601,-0.70921 z m -27.66777,0.25658 c -0.0855,-0.16374 -0.24884,-0.9867 -0.36289,-1.8288 -0.42706,-3.1531 -1.02391,-5.559918 -1.67414,-6.751008 -0.64111,-1.1744 -0.65046,-1.4413 -0.0437,-1.24872 0.79283,0.25163 1.23618,1.19968 1.96864,4.209658 l 0.70742,2.90704 0.73751,-1.85513 c 0.78084,-1.96408 1.51459,-3.512488 1.92094,-4.053658 0.2388,-0.31801 0.25363,-0.31509 0.52823,0.104 0.27312,0.41683 0.262,0.4674 -0.33385,1.518048 -0.69614,1.2275 -1.25823,2.60327 -2.19908,5.38242 -0.63775,1.88384 -0.91909,2.24785 -1.24908,1.61615 z m -13.873622,-6.64841 c -0.04802,-0.0777 0.02356,-0.55617 0.159073,-1.063258 0.578399,-2.16438 0.963862,-4.62887 1.022272,-6.53598 0.04925,-1.60812 0.114781,-2.05247 0.308705,-2.09336 0.590074,-0.1244 0.787928,2.75633 0.365776,5.32566 -0.326403,1.98659 -0.334573,1.94371 0.223561,1.17323 0.583512,-0.80551 2.593327,-2.67693 3.484086,-3.24415 0.403674,-0.25707 0.773129,-0.37274 0.980393,-0.30696 0.281678,0.0894 0.182494,0.21664 -0.647789,0.83103 -1.116828,0.82643 -2.023723,1.77634 -3.100982,3.24806 -1.716182,2.344608 -2.519851,3.111088 -2.795095,2.665728 z m 54.767645,-3.205218 c -0.55785,-0.43891 -1.62961,-1.38711 -2.3817,-2.10712 -1.65435,-1.58379 -3.24128,-2.63428 -4.562533,-3.02021 -0.81143,-0.23702 -0.97553,-0.34707 -0.93588,-0.62766 0.0391,-0.27657 0.1595,-0.33195 0.6435,-0.29595 0.70531,0.0525 4.957963,2.16041 5.480403,2.71652 0.75038,0.79875 0.61003,0.31443 -0.62141,-2.14436 -1.20799,-2.41193 -1.25862,-2.55973 -1.07831,-3.14724 0.10406,-0.33905 0.28328,-0.61645 0.39825,-0.61645 0.11499,0 0.49659,0.74641 0.84801,1.65868 0.35143,0.91228 1.24332,2.99461 1.98198,4.62741 0.74452,1.64576 1.32051,3.1438 1.2925,3.36157 -0.0482,0.37451 -0.0978,0.35561 -1.06481,-0.40519 z m -36.725603,-0.76836 c -0.13741,-0.21634 -0.30502,-0.81438 -0.37247,-1.329 -0.18587,-1.41807 -0.48129,-2.24499 -1.1759,-3.29147 -0.34734,-0.52327 -0.58753,-1.0226 -0.53376,-1.1096 0.0537,-0.087 0.35577,-0.15818 0.67111,-0.15818 h 0.57336 l 0.64058,2.05235 0.64058,2.05234 0.31129,-0.82004 c 0.32563,-0.85785 1.12337,-1.83931 1.37073,-1.68644 0.2826,0.17466 0.1372,1.02086 -0.28121,1.63661 -0.23392,0.34425 -0.42531,0.6758 -0.42531,0.7368 0,0.061 -0.10344,0.35214 -0.22987,0.64698 -0.12642,0.29484 -0.29867,0.75948 -0.38277,1.03253 -0.19801,0.64295 -0.49341,0.72981 -0.80636,0.23712 z m 11.38105,-1.10948 c -1.03512,-1.43845 -2.07796,-2.55304 -2.68936,-2.87442 -0.25732,-0.13525 -0.46784,-0.35877 -0.46784,-0.49672 0,-0.58341 0.98766,-0.0726 2.48724,1.28638 0.61579,0.55804 1.18845,1.01463 1.27258,1.01463 0.0841,0 0.15409,-0.55502 0.15547,-1.23338 0.003,-1.33952 0.25025,-2.0461 0.75055,-2.14244 0.29265,-0.0563 0.30835,0.0143 0.1889,0.8491 -0.0717,0.50081 -0.15814,1.75267 -0.19218,2.7819 -0.0791,2.39146 -0.28907,2.50514 -1.50536,0.81495 z m 14.6377,-1.07013 c -0.45836,-0.42105 -1.57638,-1.60764 -2.48449,-2.63688 -1.15673,-1.311 -1.95831,-2.05203 -2.67704,-2.47481 -0.90047,-0.52969 -1.00002,-0.63891 -0.81412,-0.89314 0.11649,-0.15931 0.28764,-0.28965 0.38033,-0.28965 0.31088,0 2.33355,1.65527 3.61743,2.96036 0.6994,0.71097 1.31977,1.29266 1.37858,1.29266 0.0588,0 6.4e-4,-0.40191 -0.12922,-0.89313 -0.21032,-0.79549 -0.72356,-3.958 -0.73162,-4.50821 -0.002,-0.11696 0.14999,-0.21265 0.33712,-0.21265 0.18713,0 0.34024,0.035 0.34024,0.0779 0,0.65285 0.96969,5.42981 1.29043,6.35704 0.2371,0.68542 0.40738,1.41269 0.37841,1.61616 -0.0483,0.339 -0.12236,0.30593 -0.88605,-0.39561 z m -36.062913,-0.20182 c -0.04903,-0.40362 -0.13004,-1.3273 -0.180028,-2.05263 -0.04999,-0.72532 -0.197786,-1.57462 -0.328443,-1.88733 -0.226527,-0.54215 -0.298503,-0.57838 -1.550083,-0.78029 -1.996916,-0.32213 -4.087099,-0.97184 -5.829563,-1.81205 -2.073721,-0.99994 -2.084323,-1.16755 -0.170121,-2.6894 0.771924,-0.6137 1.609792,-1.2899 1.861926,-1.50268 0.472247,-0.39851 0.954894,-1.36095 1.741177,-3.47205 0.764543,-2.05273 2.322652,-3.83117 3.801425,-4.33899 0.754903,-0.25924 4.549223,-0.29703 7.783953,-0.0775 2.05644,0.13955 2.27414,0.12503 3.01061,-0.20074 0.72136,-0.3191 1.49243,-0.34575 1.49243,-0.0516 0,0.21429 -1.09785,1.16229 -1.69509,1.46372 -0.8101,0.40885 -3.13469,0.37665 -5.52534,-0.0765 -2.3759,-0.45041 -2.819355,-0.44351 -3.811488,0.0592 -1.044394,0.52923 -1.526856,1.10814 -3.768089,4.52136 -1.325365,2.01842 -2.210679,3.16331 -3.151347,4.07534 l -1.308177,1.26833 0.377011,0.30528 c 0.207355,0.16791 0.598919,0.30529 0.870144,0.30529 0.515646,0 0.728629,-0.23879 1.858798,-2.08399 0.827889,-1.35166 0.871415,-0.90143 0.05546,0.57371 -0.420371,0.75997 -0.723838,1.48724 -0.674372,1.61615 0.04946,0.1289 0.323584,0.23437 0.609147,0.23437 0.424546,0 0.619374,-0.14319 1.068598,-0.78535 0.856376,-1.22419 1.995417,-2.67104 1.995417,-2.53465 0,0.19316 -0.852457,1.84511 -1.098709,2.12915 -0.121677,0.14035 -0.347259,0.50399 -0.501295,0.80808 -0.254747,0.50291 -0.255504,0.55289 -0.0084,0.55289 0.388111,0 0.553013,-0.20662 1.828071,-2.29062 0.627703,-1.02593 1.141273,-1.8089 1.141273,-1.73996 0,0.0689 -0.315594,0.75303 -0.701318,1.5202 -0.385726,0.76717 -0.800782,1.67676 -0.922349,2.02132 -0.20823,0.59019 -0.199636,0.6322 0.148425,0.72556 1.187615,0.31855 1.824633,-0.10067 2.65623,-1.74806 0.777823,-1.54086 0.818832,-1.30416 0.110843,0.63981 -0.368998,1.01321 -0.347349,1.09004 0.223949,0.79461 0.722038,-0.37338 1.467789,-1.34638 2.278108,-2.97233 0.91785,-1.8417 1.04016,-1.34218 0.14111,0.57633 -0.51458,1.09808 -0.60714,1.41325 -0.37924,1.29127 0.39389,-0.2108 1.33462,-1.36757 2.15024,-2.64405 0.80103,-1.25365 1.96626,-2.51729 2.78195,-3.01691 0.33744,-0.20668 1.03239,-0.71511 1.54431,-1.12983 0.51193,-0.41472 1.31569,-0.93238 1.78614,-1.15035 l 0.85537,-0.39629 0.40388,0.40387 c 0.43889,0.4389 0.36752,0.7795 -0.16333,0.7795 -0.50353,0 -2.15781,0.9009 -3.24803,1.76882 -1.03092,0.82073 -1.84628,1.7746 -3.88217,4.54163 -0.70175,0.95377 -1.65868,2.04058 -2.12651,2.41513 -0.97647,0.78179 -2.366131,1.4776 -2.955858,1.48002 -0.365029,0.001 -0.393305,0.055 -0.292876,0.55456 0.06114,0.30409 0.196759,1.06964 0.301379,1.70121 0.104617,0.63158 0.252701,1.14832 0.329068,1.14832 0.07637,0 0.447737,-0.45486 0.825268,-1.0108 0.689169,-1.01484 1.256224,-1.54102 1.660749,-1.54102 0.30901,0 0.27,0.50083 -0.0486,0.62306 -0.14622,0.0561 -0.823626,0.83854 -1.505362,1.73874 -1.679061,2.21716 -1.754331,2.27157 -1.866377,1.34917 z m -18.308037,-3.33459 c 0,-0.16726 0.390333,-0.684 0.867407,-1.14831 1.970557,-1.91786 5.256954,-6.85058 5.256954,-7.89043 0,-0.43761 0.291841,-0.60601 0.602875,-0.34787 0.603043,0.50048 -0.105616,2.59538 -1.499929,4.43402 -1.993612,2.62892 -2.073657,2.75212 -1.719421,2.64639 0.175912,-0.0525 0.549503,-0.14952 0.830203,-0.21557 0.2807,-0.0661 1.307978,-0.41865 2.28284,-0.78355 l 1.772477,-0.66346 0.424651,0.42466 0.424654,0.42464 -0.495919,-0.005 c -0.794498,-0.008 -4.21567,1.32906 -7.084334,2.7688 -1.486097,0.74585 -1.662458,0.78359 -1.662458,0.3557 z m 33.17961,-1.2158 c -0.0969,-0.18098 -0.17657,-0.54461 -0.17715,-0.80808 -5.1e-4,-0.26346 -0.12585,-0.70867 -0.27839,-0.98937 -0.76663,-1.41077 -0.78665,-1.46891 -0.57609,-1.67307 0.22745,-0.22054 0.41684,-0.0235 1.10217,1.14641 l 0.38907,0.66419 0.29761,-0.91937 c 0.39295,-1.2139 0.61686,-1.45329 0.98197,-1.04985 0.25751,0.28455 0.22518,0.40989 -0.47319,1.8341 -0.41227,0.84077 -0.7523,1.66264 -0.7556,1.82639 -0.008,0.39611 -0.29093,0.37874 -0.5104,-0.0314 z m 11.23436,-2.33076 c -0.19393,-0.24653 -0.35259,-0.51847 -0.35259,-0.6043 0,-0.0858 -0.53588,-0.72222 -1.19085,-1.41421 -0.65496,-0.69199 -1.19085,-1.33871 -1.19085,-1.43716 0,-0.41962 0.7556,-0.12236 1.52986,0.60186 0.45914,0.42947 0.90513,0.73738 0.99109,0.68425 0.086,-0.0531 0.20851,-0.42365 0.27231,-0.82338 0.1434,-0.89846 0.51554,-1.49233 0.93513,-1.49233 0.52081,0 0.53734,0.44211 0.0555,1.48372 -0.3575,0.77281 -0.45601,1.24662 -0.46064,2.21559 -0.003,0.6779 -0.0577,1.23292 -0.12114,1.23337 -0.0634,5.2e-4 -0.27391,-0.20087 -0.46783,-0.44741 z m -16.58931,-1.40715 c -0.0524,-0.0848 -0.15909,-0.62069 -0.23706,-1.19085 -0.12626,-0.92317 -0.10963,-1.03666 0.15186,-1.03666 0.17135,0 0.3381,0.17714 0.40039,0.4253 0.13248,0.52782 0.36744,0.54379 0.6259,0.0425 0.2481,-0.48118 0.84948,-1.14832 1.03511,-1.14832 0.34644,0 0.0877,0.70262 -0.44311,1.20328 -0.32096,0.30275 -0.63333,0.74872 -0.69416,0.99107 -0.18158,0.72348 -0.60844,1.08659 -0.83893,0.71365 z m 24.69285,-3.34871 c -0.13873,-0.26478 -0.66248,-0.79487 -1.16388,-1.17797 -0.95758,-0.73166 -1.211,-1.20223 -0.74395,-1.38146 0.18067,-0.0693 0.47269,0.0807 0.82875,0.42582 0.30238,0.29308 0.60851,0.53287 0.6803,0.53287 0.0718,0 0.10822,-0.49667 0.081,-1.1037 -0.0372,-0.8291 0.0174,-1.17062 0.21938,-1.37265 0.24517,-0.24518 0.29457,-0.0777 0.559,1.89559 0.25474,1.90092 0.25972,2.19489 0.0409,2.41373 -0.21884,0.21885 -0.27991,0.19056 -0.50143,-0.23223 z m -16.51213,-3.0007 c -0.90774,-1.18535 -0.77771,-1.54085 0.2106,-0.57579 0.34628,0.33813 0.68276,0.61478 0.74773,0.61478 0.065,0 0.23009,-0.26794 0.36692,-0.59542 0.27683,-0.66255 0.60639,-0.79011 0.60639,-0.23472 0,0.34102 -0.83045,1.83136 -1.02789,1.84465 -0.0507,0.003 -0.45741,-0.47065 -0.90375,-1.0535 z m -31.412109,0.25741 c 0,-0.14067 0.383476,-0.67536 0.85217,-1.18819 0.468693,-0.51282 1.171534,-1.48048 1.561869,-2.15036 1.075463,-1.84567 1.375709,-2.13213 1.547235,-1.47622 0.06052,0.23143 -0.253409,0.81467 -1.000884,1.85955 -0.598981,0.83731 -1.089058,1.59346 -1.089058,1.68031 0,0.0869 0.631575,0.1985 1.4035,0.2481 0.771925,0.0496 1.616006,0.1884 1.875738,0.30847 0.895461,0.41395 0.421061,0.58437 -1.677261,0.60251 -1.115005,0.01 -2.352636,0.0972 -2.750294,0.19457 -0.608513,0.149 -0.723015,0.13653 -0.723015,-0.0787 z m -11.057875,-0.66914 c 0,-0.18522 1.043556,-1.35382 2.485897,-2.78378 2.658494,-2.63567 4.331883,-4.6926 4.664727,-5.73387 0.268836,-0.84102 0.403813,-0.97017 0.67388,-0.64476 0.604223,0.72804 -0.898166,3.68465 -2.536761,4.99219 -0.689366,0.55009 -2.565804,2.69534 -2.565804,2.93338 0,0.0647 1.014347,-0.26379 2.254105,-0.72989 l 2.254105,-0.84746 1.906332,0.0598 c 1.062294,0.0333 1.98818,0.14166 2.091194,0.24467 0.336385,0.33638 -0.27936,0.60975 -1.740709,0.77278 -1.617613,0.18046 -5.462832,1.01223 -6.895374,1.49153 -0.536492,0.17951 -1.339075,0.37998 -1.783516,0.4455 -0.719254,0.10604 -0.808076,0.084 -0.808076,-0.2001 z m 64.315244,-1.15404 c -0.26169,-0.31531 0.2328,-1.1441 0.59882,-1.00365 0.29661,0.11382 0.30004,0.20475 0.0297,0.7869 -0.24302,0.52327 -0.34494,0.55842 -0.62851,0.21675 z m -12.20902,-0.64935 c -0.51842,-0.36647 -1.00083,-1.10394 -0.83234,-1.27244 0.0441,-0.0441 0.39593,0.17361 0.78187,0.48376 0.85303,0.68552 1.01557,0.54002 1.01944,-0.91253 0.002,-0.75493 0.0608,-0.97819 0.25779,-0.97819 0.28743,0 0.31575,0.39134 0.14588,2.0165 -0.0959,0.9179 -0.15339,1.04568 -0.47023,1.04568 -0.19851,0 -0.6046,-0.17225 -0.90241,-0.38278 z m -59.193954,-0.73386 c -0.120633,-0.31436 0.199714,-1.09494 0.449359,-1.09494 0.09557,0 0.173768,0.18513 0.173768,0.41139 0,0.82968 -0.399067,1.26745 -0.623127,0.68355 z m 29.146773,-1.88884 c -0.384172,-0.38416 0.135387,-1.07743 0.807468,-1.07743 0.230927,0 0.227128,0.0716 -0.03134,0.59124 -0.282791,0.56848 -0.535518,0.7268 -0.776122,0.48619 z m 24.474911,-2.37386 c -0.14177,-0.94535 0.13804,-1.4002 0.41433,-0.67352 l 0.17761,0.46714 0.5236,-0.44058 c 0.60837,-0.5119 1.00868,-0.41678 0.55331,0.13148 -1.29303,1.55681 -1.50297,1.62165 -1.66885,0.51548 z m -46.189618,0.28335 c -0.08956,-0.16733 -0.711787,-0.50773 -1.382734,-0.75642 -1.20136,-0.4453 -2.254264,-0.53481 -4.66066,-0.39621 -0.581896,0.0335 -0.68805,-0.0139 -0.7327,-0.32719 -0.04166,-0.29237 0.07862,-0.4088 0.595424,-0.57639 1.174676,-0.3809 3.010119,-1.3758 4.257336,-2.30768 1.344393,-1.00448 1.578998,-1.08968 1.578998,-0.57347 0,0.47649 -1.20378,1.73686 -2.126271,2.22625 -0.421184,0.22343 -0.765788,0.45378 -0.765788,0.51187 0,0.12185 1.058391,0.31564 1.738892,0.31839 0.707885,0.003 2.28012,0.76693 2.608083,1.26746 0.160811,0.24543 0.262876,0.46453 0.22681,0.48689 -0.03607,0.0224 -0.315096,0.12841 -0.620068,0.23569 -0.48004,0.16887 -0.576358,0.15421 -0.717322,-0.10919 z m 62.159018,-0.32272 c 0.17825,-0.20097 0.42951,-0.36541 0.55837,-0.36541 0.12885,0 0.51889,-0.12088 0.86676,-0.26862 l 0.63249,-0.26862 -0.76161,-0.66239 c -0.41888,-0.36432 -0.97389,-0.75033 -1.23337,-0.85781 -0.44105,-0.18269 -0.59918,-0.48039 -0.3745,-0.70506 0.0535,-0.0535 0.57024,0.16585 1.14832,0.48744 1.11764,0.62177 2.04871,1.49363 1.9408,1.81735 -0.10277,0.30832 -1.49381,0.94788 -2.33579,1.07392 l -0.76554,0.11462 z m -45.011499,-0.67645 c -0.718592,-0.24998 -1.353493,-0.50249 -1.410889,-0.56114 -0.0574,-0.0586 0.377432,-0.54312 0.966287,-1.07662 0.863358,-0.78219 1.082663,-0.9109 1.132701,-0.66485 0.03916,0.1926 -0.178891,0.50743 -0.591233,0.85361 l -0.653281,0.54846 0.421109,0.16246 c 1.497326,0.57765 1.867141,0.77226 1.867141,0.98253 0,0.31669 -0.199818,0.28849 -1.731835,-0.24445 z m 14.746109,0.0854 c -0.88746,-0.34727 -1.27591,-0.6281 -1.27591,-0.92241 0,-0.34558 1.83921,-2.12423 2.05723,-1.98949 0.33592,0.20761 0.11841,0.59406 -0.62052,1.10244 -0.98869,0.68024 -0.95653,0.81271 0.337,1.38826 1.05121,0.46772 0.59898,0.85037 -0.4978,0.4212 z m 6.57907,0.0773 c -0.29367,-0.18618 0.0368,-1.52371 0.41214,-1.66771 0.38945,-0.14944 0.49759,0.0779 0.29383,0.61772 -0.12266,0.32496 -0.12792,0.54689 -0.0156,0.65917 0.36698,0.36698 -0.21142,0.69443 -0.69033,0.39082 z m -13.513126,-2.13627 c -1.140603,-0.40701 -1.187138,-0.5198 -0.602501,-1.46028 0.284817,-0.45818 0.661659,-0.96319 0.837426,-1.12226 0.300939,-0.27235 0.319579,-0.27213 0.319579,0.004 0,0.16109 -0.191382,0.54382 -0.425301,0.8505 -0.233916,0.30668 -0.425302,0.63446 -0.425302,0.72839 0,0.0939 0.306218,0.29107 0.680484,0.43808 0.3941,0.15481 0.680482,0.38046 0.680482,0.53618 0,0.32267 -0.217905,0.32793 -1.064867,0.0257 z m 32.443646,-2.56175 c -0.1289,-0.85957 -0.01,-1.34031 0.30638,-1.23652 0.39339,0.12914 0.36024,1.99997 -0.0354,1.99997 -0.0861,0 -0.20798,-0.34355 -0.27094,-0.76345 z m -8.07218,-0.59751 c 0,-0.18714 0.0908,-0.34025 0.20169,-0.34025 0.11093,0 0.37497,-0.16279 0.58677,-0.36176 0.3724,-0.34985 0.91275,-0.34391 0.91275,0.01 0,0.20747 -1.18693,1.0322 -1.48551,1.0322 -0.11863,0 -0.2157,-0.15311 -0.2157,-0.34024 z m -37.251094,-0.84298 c -0.437651,-0.61462 -2.016463,-1.4103 -3.819918,-1.92513 -0.741248,-0.2116 -1.374104,-0.46387 -1.406344,-0.56059 -0.136418,-0.40926 2.288769,-1.16913 4.332884,-1.35761 0.837224,-0.0772 1.540356,-0.25085 1.939799,-0.47908 0.698387,-0.39904 0.943565,-0.31787 0.657029,0.21753 -0.268331,0.50138 -1.667147,1.16591 -2.748819,1.30586 -1.67396,0.21658 -1.725075,0.30715 -0.491157,0.8702 1.346155,0.61426 2.12097,1.2464 2.356756,1.92277 0.155973,0.44743 0.138796,0.50878 -0.142448,0.50878 -0.175893,0 -0.480896,-0.22622 -0.677782,-0.50273 z m -8.00113,-0.28712 c -0.554498,-0.38462 -1.897776,-0.84482 -3.474563,-1.19037 -0.36716,-0.0805 -0.697523,-0.23787 -0.734138,-0.34979 -0.03662,-0.11192 0.257774,-0.40824 0.6542,-0.6585 0.396428,-0.25025 0.857213,-0.57973 1.023968,-0.73217 0.596739,-0.54552 3.212986,-1.92896 3.464997,-1.83226 0.382439,0.14676 0.315983,0.36476 -0.301824,0.99009 -0.758471,0.76771 -1.181322,1.08627 -1.988429,1.49803 -0.377116,0.19239 -0.685665,0.41703 -0.685665,0.49921 0,0.0822 0.581529,0.36149 1.292285,0.62072 1.315955,0.47996 1.499699,0.64181 1.400577,1.23374 -0.05378,0.32116 -0.07941,0.31807 -0.651408,-0.0787 z m 32.917144,-0.26103 c -0.18043,-0.46523 -0.0208,-1.06795 0.29901,-1.1289 0.37484,-0.0714 0.40885,0.60278 0.0547,1.08401 -0.22029,0.29933 -0.25339,0.30353 -0.3537,0.0449 z m 6.7877,-0.21173 c -0.14008,-0.36507 0.24131,-0.94896 0.61985,-0.94896 0.41773,0 0.41912,0.31002 0.004,0.80807 -0.3717,0.44557 -0.49579,0.47361 -0.62347,0.14089 z m -13.22265,-0.89226 c -0.38861,-0.38861 0.2746,-1.36333 0.73431,-1.07921 0.20862,0.12894 0.2018,0.19835 -0.0464,0.47262 -0.16002,0.17683 -0.29095,0.41116 -0.29095,0.52076 0,0.21809 -0.21763,0.26516 -0.39695,0.0858 z m -11.511533,-2.40683 c 0,-0.0762 -0.459327,-0.68424 -1.020727,-1.35118 -0.5614,-0.666943 -1.020727,-1.284945 -1.020727,-1.373339 0,-0.08839 0.516743,-0.20129 1.148318,-0.250884 0.631575,-0.04959 1.298494,-0.115647 1.482042,-0.146787 0.208162,-0.03532 0.35634,0.05263 0.393836,0.233765 0.04818,0.232785 -0.111564,0.313159 -0.805377,0.405196 -0.476018,0.06315 -0.910408,0.187495 -0.965312,0.276333 -0.0549,0.08884 0.09057,0.365825 0.323273,0.61553 0.707175,0.758836 1.063514,1.729916 0.634795,1.729916 -0.09357,0 -0.170121,-0.0624 -0.170121,-0.13855 z m 7.831385,-1.386729 c -0.441893,-0.441889 -1.239995,-2.02906 -1.145053,-2.277135 0.05118,-0.133702 0.470762,-0.168563 1.32843,-0.11037 1.023301,0.06943 1.264131,0.140312 1.310821,0.385794 0.0511,0.268823 -0.0435,0.288901 -0.891529,0.189227 -1.102642,-0.129593 -1.184976,0.01327 -0.552774,0.959109 0.730893,1.093491 0.701023,1.604294 -0.04989,0.853375 z M 43.892408,59.556351 c -0.323451,-0.917994 -1.283595,-2.456066 -2.193086,-3.513148 -0.860344,-0.999958 -3.152837,-2.96618 -4.111728,-3.526544 -1.050379,-0.613827 -2.066319,-2.153329 -1.360969,-2.062345 0.281622,0.03633 4.600608,1.63267 4.87338,1.801251 0.09401,0.0581 1.077844,0.342726 2.186292,0.632496 1.490962,0.389765 2.305063,0.513653 3.128751,0.476124 0.91568,-0.04172 1.123398,-0.0018 1.16973,0.224727 0.04118,0.201319 -0.149282,0.32723 -0.707666,0.467833 -1.170418,0.294714 -2.737884,0.224747 -4.611187,-0.205831 l -1.701211,-0.391022 1.209383,1.20269 c 1.488461,1.480226 2.60976,3.613479 2.616502,4.977847 0.0031,0.625765 -0.26396,0.580696 -0.498191,-0.08408 z m 37.246199,-0.327023 c 0,-0.459474 0.11002,-0.980184 0.24561,-1.162494 0.24289,-0.326565 0.25277,-0.326455 0.89113,0.01002 0.35503,0.187134 0.67117,0.474214 0.70253,0.637955 0.0702,0.366334 -0.40131,0.403478 -0.53982,0.04253 -0.18768,-0.489073 -0.55361,-0.255182 -0.71388,0.456277 -0.2345,1.041022 -0.58557,1.050445 -0.58557,0.01571 z m -10.06699,0.429615 c -0.19436,-0.150787 -0.30259,-0.536404 -0.34024,-1.212279 l -0.0552,-0.991151 0.4997,0.100139 c 0.74012,0.148313 2.30729,0.900361 2.30729,1.107209 0,0.295237 -0.73471,0.196084 -1.19084,-0.16071 -0.66735,-0.522008 -0.82758,-0.427996 -0.88425,0.518838 -0.0464,0.774922 -0.0794,0.837416 -0.33645,0.637954 z m 18.64182,-2.491639 c 0.13301,-1.177479 0.14811,-1.169654 -0.83507,-0.432621 -0.67302,0.504526 -1.44528,0.8014 -1.44528,0.555604 0,-0.310647 0.93705,-1.077825 2.02427,-1.657307 1.18282,-0.630438 1.15904,-0.661266 0.85162,1.104088 -0.10246,0.588381 -0.30582,1.16881 -0.4519,1.289843 -0.23788,0.197082 -0.25287,0.107326 -0.14364,-0.859607 z M 51.805116,56.703983 c -0.146892,-0.146893 -0.30895,-0.47225 -0.360129,-0.723015 -0.05118,-0.250765 -0.16392,-0.723877 -0.250541,-1.051361 -0.222025,-0.839406 -2.805498,-5.124785 -3.316076,-5.500596 -0.461465,-0.33966 -0.491427,-0.423698 -0.273599,-0.767397 0.200452,-0.316283 0.838238,0.03026 2.46677,1.340353 1.407617,1.132369 3.097016,2.205702 3.471722,2.205702 0.44807,0 1.396688,0.548145 1.396688,0.807054 0,0.420182 -1.31404,0.173215 -2.7408,-0.515117 -0.690399,-0.333081 -1.279823,-0.581051 -1.309829,-0.551043 -0.03001,0.03001 0.180955,0.521101 0.468801,1.091322 0.799503,1.583804 1.320211,3.931176 0.872041,3.931176 -0.08688,0 -0.278155,-0.120185 -0.425048,-0.267078 z m 20.657311,-2.785172 c 0,-0.298214 1.13563,-2.474258 1.41017,-2.702106 0.28953,-0.240284 0.55578,0.09494 1.02628,1.29212 0.51777,1.317481 0.24438,1.755029 -0.32334,0.517488 -0.17976,-0.391845 -0.40339,-0.734885 -0.49696,-0.762308 -0.0936,-0.02742 -0.39978,0.344382 -0.68048,0.826236 -0.4866,0.835315 -0.93567,1.232976 -0.93567,0.82857 z m -6.70646,-0.83899 c -0.0505,-0.08172 0.1359,-1.096065 0.41424,-2.254105 0.27835,-1.158042 0.55126,-2.335194 0.6065,-2.615893 l 0.10043,-0.510364 0.34375,0.42368 c 0.41075,0.50625 1.15325,1.941484 1.33842,2.587126 0.12145,0.423477 0.10549,0.445232 -0.19086,0.260159 -0.17786,-0.111078 -0.49392,-0.523408 -0.70234,-0.916289 -0.20842,-0.392881 -0.43036,-0.682557 -0.49319,-0.643723 -0.0628,0.03883 -0.32342,0.913765 -0.57908,1.944294 -0.43235,1.742722 -0.60601,2.100279 -0.83787,1.725115 z m 18.05252,-0.656726 c -0.0415,-0.0717 -0.12909,-0.589692 -0.19448,-1.151092 -0.0654,-0.561399 -0.15968,-1.192384 -0.20949,-1.402186 l -0.0906,-0.381459 -0.53478,0.379924 c -0.29413,0.20896 -0.93332,0.704112 -1.42043,1.100338 -1.05436,0.85764 -1.39437,0.660056 -0.43998,-0.255676 0.99699,-0.956603 2.78467,-2.463279 2.84066,-2.394138 0.0855,0.105526 0.44181,2.926779 0.44158,3.49605 -1.7e-4,0.519802 -0.23388,0.881898 -0.39252,0.608239 z m 9.62138,-1.36296 c -0.30289,-0.102077 -0.27405,-0.331463 0.29771,-2.367662 0.2807,-0.999662 0.51036,-1.851652 0.51036,-1.893315 0,-0.04166 -0.27402,0.133257 -0.60893,0.388708 -0.88022,0.671373 -3.1518,1.20236 -3.52921,0.824958 -0.16663,-0.16663 0.22422,-0.568546 0.55289,-0.568546 0.15724,0 0.93255,-0.307794 1.72292,-0.683986 1.15539,-0.549937 1.6433,-0.908351 2.4895,-1.828802 0.78609,-0.855071 1.10174,-1.09612 1.24716,-0.952407 0.14595,0.144239 0.0978,0.378495 -0.19237,0.935667 -0.21288,0.408791 -0.81238,1.974859 -1.33222,3.480153 -0.62949,1.822805 -1.01618,2.712962 -1.15781,2.665232 z M 59.233902,49.658161 c -0.116074,-0.185864 -0.213433,-0.817439 -0.21635,-1.403499 -0.003,-0.586061 -0.116149,-1.98422 -0.251623,-3.10702 -0.310532,-2.573684 -0.313681,-2.466756 0.07265,-2.466756 0.21472,0 0.651819,0.464864 1.279892,1.361192 0.982875,1.402671 1.820591,2.097544 2.762886,2.291792 0.75782,0.156219 0.98593,0.473971 0.59454,0.828178 -0.28944,0.261937 -0.37348,0.241159 -1.317837,-0.325839 -0.554774,-0.333092 -1.200072,-0.776558 -1.433988,-0.985482 -1.123166,-1.003157 -1.057371,-1.120668 -0.922766,1.648051 0.101529,2.088347 0.08229,2.497317 -0.117473,2.497317 -0.131387,0 -0.333855,-0.15207 -0.449928,-0.337934 z m -7.526253,-1.642666 c 0,-0.527457 -0.206019,-1.276099 -0.620304,-2.254105 -0.62862,-1.483981 -0.942029,-2.003142 -3.028975,-5.017493 -1.232055,-1.779563 -1.917742,-3.240578 -1.610107,-3.430709 0.198266,-0.122535 0.113067,-0.188215 2.471182,1.90503 3.207806,2.847496 4.669264,3.79193 5.879,3.799174 0.777723,0.0047 1.162233,0.146056 1.162233,0.427399 0,0.499418 -1.669078,0.567048 -2.856785,0.115754 -0.820622,-0.311812 -2.627611,-1.454846 -3.191744,-2.018977 -0.366915,-0.366914 -0.386867,-0.413812 0.846637,1.989923 0.552169,1.076017 1.175465,2.491392 1.385098,3.14528 0.342189,1.067355 0.356317,1.236908 0.13821,1.658681 -0.358483,0.69323 -0.574445,0.572943 -0.574445,-0.319957 z m 20.515708,-2.872521 c -0.67745,-0.353285 -0.89325,-0.674025 -1.2843,-1.908722 -0.18513,-0.584531 -0.44007,-1.260274 -0.56654,-1.501652 -0.22291,-0.425441 -0.24114,-0.397055 -0.59573,0.92779 -0.20118,0.751661 -0.48195,1.644671 -0.62392,1.984468 -0.27725,0.663549 -0.65277,0.717494 -0.74265,0.106686 -0.0299,-0.203196 -0.12079,-0.369447 -0.20198,-0.369447 -0.0812,0 0.0834,-0.509592 0.36585,-1.13243 0.56011,-1.235283 1.16641,-3.402101 1.16641,-4.168538 0,-0.735169 0.44129,-0.593925 0.74939,0.239864 0.14695,0.397659 0.46834,1.373728 0.71419,2.169045 0.49482,1.600728 0.92484,2.527906 1.55827,3.359892 0.47024,0.617633 0.28087,0.720596 -0.53899,0.293044 z m 10.81374,-1.166468 c -0.0874,-0.316641 -0.29751,-1.163385 -0.46684,-1.881655 l -0.30788,-1.305945 -0.28953,0.563218 c -0.15924,0.309769 -0.60998,0.926851 -1.00164,1.371292 -0.53683,0.609166 -0.83171,0.808075 -1.19799,0.808075 -0.55755,0 -0.78362,-0.239178 -0.46715,-0.494248 1.23639,-0.996487 1.52644,-1.35021 2.14331,-2.613804 0.37594,-0.770087 0.81829,-1.840346 0.98299,-2.378354 0.17095,-0.558373 0.3978,-0.978197 0.52858,-0.978197 0.18216,0 0.22247,0.461866 0.19674,2.254105 -0.0296,2.063949 0.006,2.357884 0.42031,3.484289 0.56448,1.534031 0.56879,1.746936 0.0354,1.746936 -0.32947,0 -0.45076,-0.121177 -0.57626,-0.575712 z m 8.83525,-1.124501 c -0.27478,-1.28125 -0.22673,-3.0331 0.15401,-5.614996 0.18627,-1.263149 0.33903,-2.372166 0.33946,-2.464484 5.2e-4,-0.09232 -0.28001,0.252177 -0.6232,0.765544 -1.43299,2.143574 -3.11081,3.736847 -4.29178,4.075548 -0.5389,0.154554 -0.53208,0.139918 0.40743,-0.87487 0.52552,-0.567628 1.33717,-1.57792 1.80365,-2.245092 0.86325,-1.234611 0.98476,-1.396094 2.51302,-3.339552 0.47826,-0.608183 1.10238,-1.548901 1.38695,-2.090483 0.51045,-0.971478 0.84957,-1.135994 0.8426,-0.408763 -0.002,0.205002 -0.19533,1.023445 -0.42971,1.818761 -0.73073,2.479582 -1.13713,5.164585 -1.24857,8.248949 -0.0904,2.503059 -0.14213,2.897341 -0.38602,2.943962 -0.21459,0.04102 -0.32593,-0.152842 -0.46784,-0.814524 z M 60.628375,38.640509 c -0.0098,-2.476685 -0.06346,-2.923962 -0.708619,-5.911709 -0.824693,-3.819062 -0.878574,-4.200882 -0.605754,-4.292703 0.159954,-0.05384 1.750312,2.128078 1.750312,2.401368 0,0.09442 2.422613,4.342535 2.970423,5.208696 0.26629,0.42105 0.82611,1.211858 1.24405,1.757352 0.51619,0.673748 0.70426,1.047416 0.58646,1.165215 -0.61319,0.613185 -2.13263,-1.133991 -3.651232,-4.198474 -1.114016,-2.248044 -1.174495,-2.333964 -1.077714,-1.531091 0.254034,2.107522 0.293218,6.467907 0.06485,7.217217 -0.425323,1.395555 -0.56175,0.963051 -0.572776,-1.815871 z m 12.514542,-0.324175 c 0,-0.06133 0.27974,-1.228793 0.62164,-2.594347 0.3419,-1.365553 0.93921,-4.047148 1.32735,-5.9591 0.38813,-1.911952 0.78652,-3.503215 0.8853,-3.536143 0.10433,-0.03477 0.22749,0.352711 0.29386,0.924459 0.23489,2.023545 1.132,5.995608 1.87318,8.293629 0.42144,1.306684 0.72802,2.414016 0.6813,2.460738 -0.20062,0.200619 -0.68783,-0.346084 -1.19728,-1.343489 -0.59322,-1.161396 -1.11051,-2.939943 -1.42737,-4.907647 -0.11023,-0.684469 -0.22629,-1.218605 -0.25793,-1.186971 -0.0316,0.03163 -0.25085,1.123211 -0.48715,2.425726 -0.35758,1.971015 -0.56055,2.633746 -1.2102,3.951438 -0.42932,0.870777 -0.85305,1.583231 -0.94164,1.583231 -0.0886,0 -0.16106,-0.05018 -0.16106,-0.111524 z m 23.75433,78.239656 c -0.23,-0.44559 -0.97787,-2.83052 -1.20103,-3.83011 -0.10489,-0.46977 -0.1055,-0.46996 -0.65404,-0.19275 -0.30198,0.1526 -0.71764,0.43152 -0.92369,0.61981 l -0.37463,0.34235 1.65054,1.76216 c 0.9078,0.96919 1.67165,1.76311 1.69744,1.76427 0.0258,0.001 -0.0618,-0.20842 -0.19459,-0.46573 z m -47.738491,-4.25303 c 0.300172,-0.53801 0.843362,-1.37683 1.207088,-1.86403 0.363726,-0.48721 0.66132,-0.96047 0.66132,-1.05168 0,-0.23255 -0.925913,-0.86604 -1.511121,-1.03388 l -0.489025,-0.14025 -0.122099,1.72221 c -0.06715,0.94722 -0.179848,2.08753 -0.250429,2.53402 -0.07058,0.44649 -0.108793,0.81181 -0.08491,0.81181 0.02387,0 0.289009,-0.44019 0.589181,-0.9782 z m 57.668144,-0.55289 c -0.10015,-0.18714 -0.22037,-0.34025 -0.26715,-0.34025 -0.0468,0 -0.003,0.15311 0.097,0.34025 0.10015,0.18713 0.22037,0.34024 0.26716,0.34024 0.0468,0 0.003,-0.15311 -0.097,-0.34024 z m 4.72179,-9.13103 c -0.49173,-0.74818 -0.97862,-1.50639 -1.08198,-1.68494 -0.16527,-0.28549 -0.22316,-0.29537 -0.48027,-0.082 -0.16079,0.13344 -0.43807,0.52827 -0.61618,0.8774 l -0.32384,0.63477 1.65471,0.82264 c 0.91009,0.45245 1.67427,0.81584 1.69817,0.80753 0.0239,-0.008 -0.35887,-0.62724 -0.85061,-1.37541 z M 35.298365,99.156012 c 0.403911,-0.2779 0.816281,-0.50527 0.916382,-0.50527 0.100099,0 0.181999,-0.24958 0.181999,-0.55463 0,-0.61727 -0.548751,-1.32199 -1.353414,-1.7381 -0.487998,-0.25235 -0.492834,-0.24999 -0.606734,0.29616 -0.173648,0.83264 -1.038528,3.24662 -1.457305,4.067488 l -0.370801,0.72683 0.977747,-0.89361 c 0.53776,-0.49148 1.308216,-1.120978 1.712126,-1.398868 z m 81.106515,-12.24554 c 1.18844,-0.36707 1.86443,-0.9592 2.47945,-2.17187 0.89431,-1.76336 0.94227,-4.57999 0.10624,-6.23962 -0.82811,-1.64388 -1.75288,-2.02305 -2.63217,-1.07925 -0.2868,0.30785 -0.34539,0.60144 -0.34756,1.74169 -0.003,1.64506 -0.25641,2.27003 -0.41232,1.01737 -0.37542,-3.01636 -0.75081,-3.56905 -2.65529,-3.90957 -2.38436,-0.42632 -4.71888,-0.21729 -4.53355,0.40593 0.0466,0.15682 0.44042,1.62484 0.87508,3.26226 0.93355,3.51683 1.92149,5.7378 2.9761,6.69058 0.65541,0.59212 0.75241,0.62463 1.86382,0.62463 0.69402,0 1.62447,-0.13961 2.2802,-0.34215 z m 12.55399,-2.03722 c 0.22365,-0.002 0.18623,-0.17119 -0.21265,-0.96196 -0.26623,-0.52781 -0.48405,-1.06369 -0.48405,-1.19085 0,-0.49206 0.35389,-0.19253 0.78207,0.66193 0.55663,1.11077 0.88294,1.48855 1.28575,1.48855 0.4299,0 0.40261,-0.0896 -0.28155,-0.92455 -0.32748,-0.39965 -0.59448,-0.87186 -0.59333,-1.04936 0.001,-0.24307 0.21559,-0.10229 0.86711,0.57042 0.47575,0.49122 0.94424,0.89313 1.04108,0.89313 0.0968,0 0.44019,-0.16323 0.76299,-0.36274 l 0.58693,-0.36274 -0.52325,-0.25341 c -0.72973,-0.35342 -1.56146,-1.32215 -2.31676,-2.69834 -0.96131,-1.75157 -1.81954,-2.82655 -2.60795,-3.26663 -0.81405,-0.45438 -0.7358,-0.5575 -1.13817,1.49999 -0.32477,1.6606 -1.0455,4.05929 -1.32178,4.39902 -0.19104,0.23492 0.0214,0.47773 0.78462,0.89702 0.28085,0.15428 0.29588,0.0997 0.19073,-0.69295 -0.0628,-0.47324 -0.0673,-0.86043 -0.01,-0.86043 0.0573,0 0.28852,0.36364 0.51389,0.80808 0.60756,1.19809 1.22423,1.63898 2.06271,1.47477 0.18713,-0.0366 0.46237,-0.0677 0.61164,-0.069 z m -8.71721,-12.03336 c 1.11851,-2.68335 0.34452,-4.56414 -2.19578,-5.33573 -0.97127,-0.29502 -1.41256,-0.34076 -2.33469,-0.24201 -1.34365,0.1439 -1.5129,0.29028 -3.41347,2.95229 -1.45853,2.04288 -2.71765,3.51901 -3.5211,4.12796 l -0.5862,0.44429 0.83045,0.0983 c 2.62687,0.31112 5.36866,-0.86452 7.62798,-3.27074 0.70693,-0.75289 0.89111,-0.87642 0.89313,-0.59902 0.005,0.64037 -1.91151,3.13801 -2.40749,3.13801 -0.078,0 -0.14177,0.30869 -0.14177,0.68597 0,0.55237 0.0746,0.71593 0.38277,0.83982 2.55083,0.6815 3.89359,-0.58606 4.86617,-2.83919 z m -12.0131,-8.29844 c 1.51371,-1.82558 2.15733,-5.719453 1.31672,-7.966172 -0.57903,-1.547588 -0.43008,-1.504528 -4.51981,-1.306591 -1.95657,0.0947 -3.94015,0.267664 -4.40799,0.384379 l -0.850603,0.212206 -0.0521,1.013974 c -0.0482,0.938414 0.319153,2.962949 0.628453,3.463402 0.0732,0.118385 0.85053,0.482002 1.72747,0.808032 0.87694,0.32603 1.9422,0.79594 2.36724,1.04425 0.9973,0.5826 2.25644,1.77465 2.65367,2.51226 0.34462,0.63991 0.48601,0.61929 1.13694,-0.16574 z m -2.01778,-4.235666 c -0.71651,-0.320788 -1.08509,-0.894291 -1.08509,-1.68838 0,-0.945701 0.87792,-1.816466 1.83138,-1.816466 0.82789,0 1.4753,0.470325 1.73639,1.26144 0.24339,0.737463 0.0949,1.310474 -0.48297,1.864138 -0.5736,0.549542 -1.3082,0.688866 -1.99971,0.379268 z m 11.31918,3.519076 c 1.00475,-1.21893 1.32137,-3.645248 0.76495,-5.861864 -0.35048,-1.396245 -0.58855,-1.612093 -1.89869,-1.721493 l -1.06326,-0.08879 v 0.643455 0.643456 l 0.76095,-0.08577 c 0.69606,-0.07846 0.81212,-0.0346 1.36097,0.514249 0.67766,0.677664 0.77706,1.329327 0.33354,2.186984 -0.28943,0.559711 -1.27236,1.073343 -1.75866,0.918993 -0.28059,-0.0891 -0.28547,-0.009 -0.0794,1.31094 0.40909,2.61911 0.38251,2.53471 0.73823,2.34433 0.17539,-0.0939 0.55399,-0.45588 0.84134,-0.80449 z m 1.4277,-8.911862 c -0.68332,-1.171665 -3.14594,-3.896178 -3.52167,-3.896178 -0.13201,0 -0.10716,1.871805 0.0395,2.972109 l 0.11269,0.845596 1.53109,0.284451 c 2.27068,0.421853 2.20862,0.428805 1.83842,-0.205978 z m -17.99993,-0.580969 c 3.39829,-0.5246 6.12189,-0.684715 7.56042,-0.444463 0.6027,0.100659 1.12855,0.150285 1.16856,0.110281 0.19571,-0.195714 -1.42824,-2.690131 -2.93664,-4.510721 -2.08931,-2.52174 -2.16671,-2.541889 -4.03746,-1.051088 -1.61183,1.284474 -2.31635,2.081913 -3.199903,3.621931 -0.39618,0.690517 -0.90296,1.540924 -1.12621,1.889792 -0.43325,0.677062 -0.48036,0.813843 -0.2783,0.808091 0.0702,-0.002 1.35246,-0.192718 2.849533,-0.423823 z"
       style="fill:#000000;stroke-width:0.170121" />
  </g>
</svg>
