<?xml version="1.0" encoding="UTF-8"?>
<svg width="512" height="512" version="1.1" viewBox="0 0 135.47 135.47" xmlns="http://www.w3.org/2000/svg" xmlns:cc="http://creativecommons.org/ns#" xmlns:dc="http://purl.org/dc/elements/1.1/" xmlns:rdf="http://www.w3.org/1999/02/22-rdf-syntax-ns#">
 <path d="m77.451 9.4366c-0.45948-0.026124-0.64084 0.8357-1.3172 5.6844-0.27954 2.0039-0.78562 3.7976-1.2413 4.4013-0.50018 0.66273-0.88897 1.0428-1.0671 1.0428-0.28804 0-1.0591-1.3844-1.587-2.8494-0.47861-1.3283-0.53272-1.4035-1.0098-1.4035-0.41223 0-0.48196 0.054149-0.38396 0.29766 0.24032 0.5971 0.58518 2.8765 0.59118 3.9052l0.005684 1.0552-0.57826 0.10852c-1.0722 0.20115-1.1124 0.15395-2.0903-2.4748-0.50471-1.3567-1.0342-2.927-1.1767-3.4897-0.2244-0.88639-0.34319-1.0714-0.89245-1.3875-1.3077-0.75263-1.484 0.10434-0.93276 4.5372 0.16405 1.3189 0.2335 2.5683 0.1633 2.9347-0.11662 0.60871-0.15294 0.63769-0.79323 0.63769-0.62143 0-0.71433-0.065862-1.2588-0.89297-0.32339-0.49122-0.79144-1.5056-1.0397-2.2541-0.24829-0.74853-0.46289-1.3706-0.47697-1.3823-0.014075-0.011768-0.19772-0.0743-0.40824-0.13901-0.33307-0.10237-0.38292-0.056389-0.38292 0.35295 0 0.25876 0.089271 1.0868 0.19792 1.8402 0.10867 0.75339 0.1431 1.6568 0.076998 2.0076-0.11008 0.58428-0.16762 0.63769-0.68265 0.63769-1.9898 0-3.5771-1.4696-5.7867-5.3583-1.1692-2.0577-2.0676-3.3176-2.3657-3.3176-0.12156 0-0.3516 0.095949-0.51108 0.21291-0.26764 0.19628-0.21915 0.42367 0.62942 2.958 1.0111 3.0198 1.6278 5.4366 1.6738 6.5614 0.033419 0.81626-0.5872 1.9406-1.3457 2.4376-0.40326 0.26423-0.44566 0.25812-0.85163-0.11937-0.67377-0.62651-1.2587-1.5697-2.6717-4.3098-0.72373-1.4035-1.3723-2.6101-1.4413-2.681-0.069003-0.07085-0.48489-0.0793-0.92398-0.01912-0.79663 0.1092-0.7984 0.11059-0.7984 0.77618 0 0.36683 0.3448 1.6877 0.76584 2.9352 0.42105 1.2476 0.76533 2.4283 0.76533 2.6236 0 0.19529 0.19138 0.86372 0.4253 1.4852 0.50186 1.3333 0.53368 1.9387 0.12764 2.4402l-0.29766 0.36794-0.79685-0.52813c-0.43826-0.29029-1.3188-1.1743-1.9565-1.9647-1.0933-1.3553-1.5816-1.6849-1.851-1.249-0.064066 0.10366 0.16098 0.71998 0.50023 1.3694 0.33924 0.64945 0.6165 1.2584 0.6165 1.3534 0 0.094986 0.19577 0.59976 0.4346 1.1219 0.58413 1.277 0.5106 1.7513-0.3328 2.1472-0.57067 0.26783-0.77389 0.28404-1.4459 0.11576-1.8243-0.45684-2.3563-0.82849-5.2989-3.699-1.0808-1.0543-2.0797-1.9167-2.22-1.9167-0.36016 0-0.66388 0.34721-0.66198 0.75706 8.97e-4 0.19181 0.59402 1.04 1.3183 1.8846 2.334 2.722 3.7702 5.199 3.7796 6.519 0.004513 0.63671-0.44725 1.7151-0.7705 1.8392-0.67593 0.25938-3.2456-1.1735-5.8921-3.2851-0.64064-0.51115-1.4887-1.0765-1.8846-1.2563-0.86876-0.37723-1.9711-0.24531-2.3322 1.0955 0.002426 0.22213 1.124 1.5707 2.9771 3.5791 1.6353 1.7724 2.9729 3.2832 2.9729 3.3574 0 0.25351-2.6395-0.90777-3.5987-1.5834-0.24836-0.17492-0.6501-0.31833-0.89297-0.31833-0.74176 0-0.53939 0.57079 0.52297 1.4754 1.0043 0.85512 1.9275 2.1171 1.9275 2.6345 0 0.36711-1.3919 0.82372-2.5104 0.82372-1.1148 0-3.1149-0.73922-5.3521-1.9782-1.7195-0.9522-2.094-1.097-2.7223-1.0516-0.67157 0.048471-0.73232 0.092771-0.7767 0.56327-0.042597 0.45161 0.078371 0.60325 1.048 1.3172 1.4619 1.0765 4.411 3.9076 5.4555 5.2374l0.84129 1.0713-1.6919-0.13849c-2.6464-0.21615-3.2225-0.20558-3.2225 0.058911 0 0.1293 0.46482 0.40003 1.0526 0.61288 0.57897 0.20964 1.6221 0.70705 2.3182 1.1054 1.0603 0.60663 1.2526 0.78314 1.1844 1.0883-0.044757 0.20037-0.23774 0.96737-0.42891 1.7043l-0.34778 1.34-0.98547-0.0894c-0.67332-0.061055-1.6042-0.36408-2.9409-0.95705-1.0758-0.47725-2.141-0.86765-2.3668-0.86765-0.6053 0-1.4323 0.46542-1.5369 0.86506-0.23653 0.9045 0.22763 1.3844 3.0303 3.1326 0.5614 0.35018 1.5378 1.0172 2.1694 1.4826 1.0741 0.79153 1.1483 0.88898 1.1483 1.5048 0 0.50706-0.087455 0.70495-0.37982 0.86145-0.523 0.2799-2.0064 0.24009-3.6675-0.098702-2.3843-0.48631-3.326-0.13203-1.7591 0.66198 0.46813 0.23722 1.3561 0.62097 1.973 0.85318 1.1418 0.42978 2.9572 1.5277 3.0835 1.8645 0.085035 0.2267-0.81649 2.6761-1.201 3.2628-0.15265 0.23297-0.53345 0.5455-0.84594 0.69453-0.9453 0.45077-1.5745 0.2058-3.4406-1.3395-0.92024-0.76199-2.4008-1.9229-3.2897-2.5797-0.88888-0.65681-1.6544-1.2485-1.7012-1.3146-0.046783-0.0661-0.87653-0.62145-1.8438-1.2346-1.9297-1.2232-2.5207-1.398-4.6369-1.3689-1.7699 0.024315-3.4553 0.4724-5.3098 1.4108-1.6477 0.83377-4.0056 2.5113-4.0215 2.8613-0.005165 0.11366 0.14707 0.29005 0.33796 0.39222 0.27741 0.14846 0.46815 0.11105 0.95136-0.18758 0.81529-0.50388 2.118-0.51427 3.0618-0.024288 1.5223 0.79024 5.9792 6.1541 8.3473 10.046 2.3023 3.7838 3.7812 7.1679 4.7206 10.801 0.98374 3.8049 1.0199 4.4724 0.31161 5.7624-0.37482 0.68265-0.60963 0.90667-1.1358 1.0831-0.72855 0.24432-0.97216 0.50708-0.82527 0.88987 0.076304 0.19881 0.31498 0.22968 1.1643 0.15038 3.255-0.30396 6.8341-2.1209 8.0486-4.0861 0.18837-0.3048 0.73139-1.6218 1.2066-2.927 0.47525-1.3051 0.99046-2.4689 1.1452-2.5859 0.41742-0.31561 0.68912-0.25943 0.82166 0.17002 0.064969 0.21052 0.57685 1.41 1.1374 2.6655l1.0191 2.2825-0.37724 0.7798c-0.51642 1.0672-1.7871 2.9595-2.4825 3.6969-0.68308 0.72428-0.94495 1.6977-0.5023 1.8676 0.20375 0.078189 0.56895-0.16616 1.2521-0.83871 1.8899-1.8611 3.9439-2.6819 4.6586-1.8624 0.99961 1.146 0.95192 2.4879-0.19379 5.4524-0.47507 1.2292-0.86403 2.2851-0.86403 2.3466s-0.49718 1.1348-1.1054 2.3849c-1.1558 2.3756-1.2641 2.7382-0.86248 2.8923 0.36325 0.13939 1.1814-0.54269 1.896-1.5803 1.2771-1.8543 4.1822-4.161 5.8906-4.6772 0.62505-0.18888 0.63951-0.18211 1.8288 0.8723 0.95935 0.85052 1.1989 1.1603 1.1989 1.5508 0 0.2684-0.41422 1.5812-0.92036 2.9171-1.1733 3.0969-1.2775 3.6094-0.78858 3.8711 0.77701 0.41584 1.2457 0.16676 1.7942-0.95291 0.45238-0.92348 2.0852-3.1081 2.712-3.6282 0.25546-0.21201 1.3955 0.44887 3.1817 1.8454 0.85066 0.66505 0.96837 0.83374 1.0625 1.5203 0.14683 1.0712-0.17449 4.7686-0.65319 7.5138-0.35253 2.0216-0.37158 2.3425-0.15813 2.6794 0.13337 0.21051 0.35244 0.38292 0.48679 0.38292 0.13948 0 0.65531-0.80351 1.2025-1.8733 1.6648-3.2547 3.9098-6.2922 4.6519-6.2932 0.15017-2.6e-4 0.57916 0.14876 0.95343 0.33125 0.37427 0.18249 0.81449 0.37194 0.97824 0.42064 0.36612 0.10901 0.3724 0.50966 0.042375 2.651-0.13699 0.88888-0.25048 2.0548-0.25218 2.5911-0.003328 1.063-0.083323 0.98866 1.3121 1.2206 0.65172 0.10833 0.6783 0.07006 1.4263-2.0614 0.89987-2.5643 1.187-3.1432 1.494-3.0117 0.15016 0.06433 0.76202 0.25794 1.3596 0.42995 1.5276 0.43969 1.8339 0.68569 2.141 1.7198 0.66336 2.2338 1.0075 4.635 1.0165 7.1009 0.00851 2.2896 0.034729 2.4884 0.38189 2.8639 0.63913 0.69132 0.91771 0.44842 1.3245-1.156 0.60916-2.4029 3.2083-8.1074 3.668-8.0502 1.1635 0.14461 2.1907 0.45184 2.2789 0.68161 0.0568 0.14804 0.33208 1.6148 0.61185 3.2592 0.27977 1.6445 0.58113 3.0626 0.66973 3.1512 0.41545 0.41545 1.5363-1.5245 1.5363-2.6588 0-0.3831 0.13443-1.3718 0.29817-2.1973l0.29766-1.5012h0.8847c1.511-1.7e-4 1.6104 0.10259 2.6071 2.6985 0.4899 1.276 1.0273 2.6261 1.1937 3.0003 0.23696 0.53279 1.0745 3.198 1.4568 4.6359h-5.17e-4c0.0747 0.28098 0.32667 0.26917 0.62477-0.02894 0.16638-0.16637 0.2716-0.84014 0.339-2.1689 0.11469-2.2609 0.4444-3.971 1.2423-6.4456l0.57878-1.7952 1.1136-0.26665c1.3416-0.321 1.1346-0.57959 2.3167 2.8887 0.89925 2.6386 1.072 2.9443 1.8448 3.2644 0.40004 0.16569 0.55773 0.15023 0.92501-0.09043 0.59249-0.38821 0.68676-0.87521 0.45114-2.3378-0.49825-3.093-0.70782-4.757-0.61082-4.854 0.19833-0.19833 1.874-0.0664 2.481 0.19534 0.89697 0.38681 1.8631 1.2634 4.6705 4.2385 1.3906 1.4737 2.6368 2.6794 2.7699 2.6794 0.35093 0 0.12621-1.0183-0.49816-2.2552-0.72324-1.4327-1.123-2.8069-1.5146-5.2105-0.18882-1.1588-0.38183-2.1699-0.42943-2.2469-0.04757-0.07698 0.16444-0.26973 0.47129-0.4284 0.30684-0.15867 1.2072-0.70753 2.0009-1.2196 0.79374-0.51204 1.6931-1.0497 1.9983-1.1953 0.53179-0.25359 0.57359-0.2475 1.0015 0.14883 0.24564 0.22752 1.2074 1.3477 2.1373 2.4892 0.92989 1.1416 1.8453 2.1245 2.034 2.1844 0.72379 0.22972 1.8495-0.34439 1.8495-0.94309 0-0.15831-0.40765-0.89687-0.90588-1.6412-0.49824-0.74436-1.3103-2.1013-1.8046-3.0153l-0.89865-1.6619 0.40101-0.4439c0.71309-0.78945 1.2384-1.2069 1.895-1.5064 0.63951-0.29167 0.65499-0.28949 2.7218 0.36277 2.4458 0.77186 4.5405 1.78 5.1134 2.4608 0.36158 0.42965 0.48954 0.47459 1.111 0.39119 1.1485-0.15405 0.9658-0.53941-1.4883-3.1419-3.3929-3.5981-3.8726-4.6544-2.8298-6.2301 0.54641-0.82568 0.78457-0.87148 1.5389-0.29611 0.78654 0.59992 2.2174 1.1183 2.4484 0.88728 0.28256-0.28256 0.2188-0.68016-0.19999-1.2495-0.49415-0.67182-1.2354-2.8163-1.0976-3.1755 0.08108-0.21121 0.23955-0.25195 0.66611-0.17105 0.74847 0.14192 1.0444 0.30678 2.2531 1.2532 1.2104 0.94775 2.1331 1.5259 2.4371 1.5265 0.53704 0.00157 0.37268-0.55199-0.42117-1.4206-0.45864-0.50182-1.1934-1.4398-1.633-2.0846l-0.79944-1.1725 3.359-3.4179 3.3595-3.4179 0.58032 0.39946c0.31922 0.21994 0.96433 0.51423 1.434 0.65371 1.1573 0.34398 4.5209 0.34067 5.6854-0.005167 1.1362-0.33742 2.5482-1.6215 3.3404-3.0381 0.55125-0.98574 0.58291-1.1192 0.40669-1.6934-0.20222-0.65888-0.60961-0.82044-0.971-0.38499-0.57409 0.69173-1.7818 0.33761-2.9399-0.86196-0.55356-0.57339-1.4156-2.1843-2.236-4.1786-0.30436-0.7398-1.1505-1.3212-1.925-1.3219-0.53483-6.3e-4 -0.53838-0.006288-0.7431-1.2335-0.28434-1.7045-0.94411-3.9294-1.526-5.1465-0.26842-0.5614-0.75816-1.6187-1.0883-2.3492-0.72909-1.6134-1.9424-3.4696-2.9373-4.4933-0.63667-0.65509-0.73794-0.85864-0.73794-1.4852 0-0.3994-0.04902-1.0816-0.10852-1.5157-0.09853-0.71891-0.07684-0.7891 0.24288-0.7891 0.19306 0 0.50504-0.19567 0.69298-0.4346 0.31657-0.40246 0.32424-0.49142 0.10697-1.2134-0.12899-0.42859-0.57787-1.2858-0.99787-1.9048-2.166-3.1923-2.4386-3.5258-3.575-4.3734-0.64339-0.47986-1.24-0.99748-1.3255-1.1503-0.27474-0.49093-0.64654-1.8804-0.64854-2.4231-0.00232-0.66425 0.23805-0.8713 2.1249-1.8319 1.6929-0.86185 2.1265-1.1565 2.1265-1.4454 0-0.2542-0.10169-0.24768-2.2831 0.14883-2.0035 0.36416-2.9424 0.41688-3.3068 0.18604-0.26123-0.16553-0.14976-0.93026 0.24598-1.6888 0.13095-0.251 0.23875-0.53703 0.23926-0.63562 0.00246-0.42062 1.7572-2.7598 3.5429-4.7227 2.5917-2.8487 2.5067-2.7097 2.0185-3.2773l-0.39739-0.46199-1.263 0.85214c-1.6152 1.0899-3.3998 1.9869-5.3402 2.6836-2.3316 0.83717-3.2663 1.0258-3.7636 0.75964-0.80785-0.43235-0.45161-1.1548 1.2485-2.5321 0.84626-0.68557 1.1085-1.2192 0.71831-1.4604-0.096-0.059332-0.93435 0.2473-1.8635 0.68161-1.9512 0.9121-2.6422 0.96399-3.0525 0.22944-0.23038-0.41242-0.21603-0.5701 0.15761-1.7859 0.22545-0.7336 0.51682-1.5044 0.64751-1.7131 0.13069-0.20863 0.30842-0.69604 0.39532-1.0826 0.17366-0.7729-0.00922-1.1751-0.53433-1.1751-0.28478 0-1.9202 1.8583-2.358 2.6794-0.24107 0.4521-0.41339 0.47751-0.77566 0.11524-0.63566-0.63566-0.21081-1.651 1.3312-3.1807 0.52427-0.52009 0.95343-1.0612 0.95343-1.203 0-0.23578-0.42943-0.79272-0.61133-0.79272-0.04221 0-0.67466 0.55516-1.4056 1.2335-0.73094 0.67836-1.6095 1.3791-1.9523 1.5575-0.61311 0.31904-0.62936 0.31904-0.98444 0-0.33916-0.30474-0.35572-0.4423-0.27182-2.2805 0.07765-1.7008 0.20515-2.3535 0.9741-4.995 0.77207-2.6523 0.85323-3.0695 0.63821-3.2846-0.30669-0.30669-1.1396-0.13351-1.2645 0.26303-0.78264 2.4838-2.0802 4.6041-3.7806 6.1784-1.4689 1.36-1.9229 1.6116-2.5265 1.3994-0.42863-0.15074-0.47211-0.26422-0.68471-1.7751-0.12485-0.88766-0.19526-2.0744-0.15606-2.637 0.053-0.76023 0.005829-1.0841-0.18345-1.2609-0.4811-0.44942-0.78969 0.006415-1.0206 1.5074-0.36768 2.3898-0.84132 2.9288-2.0851 2.3719-0.41366-0.1852-0.80361-0.41997-0.86661-0.52193-0.1067-0.17264-0.33773-2.2323-0.58808-5.2415-0.09241-1.1108-0.16452-1.3221-0.55707-1.6345-0.24799-0.19738-0.62498-0.41367-0.83768-0.48059-0.33629-0.10581-0.42921-0.02588-0.71055 0.61392-0.17793 0.40465-0.48586 1.3865-0.6842 2.1818-0.19835 0.79532-0.47931 1.8141-0.62477 2.2639-0.2564 0.79284-0.28092 0.81432-0.80047 0.70332-0.29479-0.062977-0.63184-0.19155-0.74879-0.28577-0.26165-0.21079-0.29814-3.9658-0.044959-4.6318 0.14871-0.39114 0.11716-0.46088-0.27854-0.61133-0.24565-0.093393-0.46177-0.14848-0.48007-0.12247-0.01826 0.026009-0.28172 0.77458-0.58549 1.6635-0.61591 1.8022-1.2776 3.0618-1.6082 3.0618-0.55614 0-1.4192-1.5742-1.8009-3.2851-0.08745-0.39196-0.24354-1.8609-0.34727-3.2644-0.23763-3.2152-0.5695-4.7794-1.0402-4.9025-0.033332-0.0087163-0.065486-0.014795-0.096119-0.016536zm-1.464 16.788c0.10214-0.008343 0.21992 0.37268 0.28422 0.92656 0.23489 2.0235 1.1316 5.9955 1.8728 8.2936 0.42144 1.3067 0.72833 2.4141 0.68161 2.4608-0.20062 0.20062-0.68789-0.34618-1.1973-1.3436-0.59322-1.1614-1.1104-2.94-1.4273-4.9077-0.11023-0.68447-0.22623-1.2186-0.25787-1.187-0.0316 0.03163-0.25101 1.1232-0.48731 2.4257-0.35758 1.971-0.56061 2.634-1.2103 3.9517-0.42932 0.87078-0.85295 1.5828-0.94154 1.5828-0.0886 0-0.16123-0.04976-0.16123-0.1111 0-0.06133 0.27977-1.2291 0.62167-2.5947 0.3419-1.3656 0.93943-4.0469 1.3276-5.9588 0.38813-1.912 0.78644-3.5033 0.88522-3.5362 0.00326-0.001087 0.006523-0.001798 0.009818-0.002067zm-16.665 2.2102c0.20073 0.014781 1.742 2.1334 1.742 2.4024 0 0.09442 2.4226 4.3428 2.9704 5.209 0.26629 0.42105 0.82591 1.2115 1.2439 1.757 0.51619 0.67375 0.70433 1.0475 0.58653 1.1653-0.61319 0.61318-2.1329-1.1337-3.6515-4.1982-1.114-2.248-1.1742-2.334-1.0775-1.5312 0.25403 2.1075 0.29296 6.4678 0.064596 7.2171-0.42532 1.3956-0.56155 0.96301-0.57258-1.8159-0.0098-2.4767-0.063326-2.924-0.70848-5.9118-0.82469-3.8191-0.87847-4.2009-0.60565-4.2928 0.0025-8.41e-4 0.005082-0.001268 0.008268-0.001033zm34.931 1.7694c0.099688 0.006776 0.15424 0.15518 0.15141 0.45062-2e-3 0.205-0.19557 1.0232-0.42995 1.8185-0.73073 2.4796-1.1371 5.1647-1.2485 8.2491-0.0904 2.5031-0.14213 2.8974-0.38602 2.944-0.21459 0.04102-0.32576-0.15274-0.46767-0.81442-0.27478-1.2812-0.22674-3.0333 0.154-5.6152 0.18627-1.2631 0.33908-2.3721 0.33951-2.4644 5.2e-4 -0.09232-0.28003 0.25196-0.62322 0.76533-1.433 2.1436-3.1108 3.737-4.2917 4.0757-0.5389 0.15455-0.5323 0.1399 0.40721-0.87488 0.52552-0.56763 1.337-1.5777 1.8035-2.2448 0.86325-1.2346 0.98477-1.3964 2.513-3.3398 0.47826-0.60818 1.1024-1.5487 1.387-2.0903 0.30308-0.57682 0.54573-0.86928 0.69143-0.85938zm-11.292 6.8626c0.18216 0 0.22262 0.46189 0.19689 2.2541-0.0296 2.0639 0.00582 2.3576 0.42013 3.484 0.56448 1.534 0.56905 1.7472 0.035657 1.7472-0.32947 0-0.45069-0.12114-0.57619-0.57568-0.0874-0.31664-0.29782-1.1633-0.46716-1.8815l-0.30799-1.3064-0.28939 0.56327c-0.15924 0.30977-0.60983 0.92705-1.0015 1.3715-0.53683 0.60916-0.83158 0.80822-1.1979 0.80822-0.55755 0-0.78362-0.23947-0.46716-0.49454 1.2364-0.99649 1.5262-1.3502 2.143-2.6138 0.37594-0.77009 0.81819-1.8401 0.98289-2.3781 0.17095-0.55837 0.39787-0.97824 0.52865-0.97824zm-36.395 0.19585c0.15995 0.002287 0.51107 0.32009 2.3533 1.9554 3.2078 2.8475 4.669 3.792 5.8787 3.7993 0.77772 0.0047 1.1627 0.14602 1.1627 0.42736 0 0.49942-1.6695 0.56705-2.8572 0.11576-0.82062-0.31181-2.6274-1.4549-3.1915-2.019-0.36691-0.36691-0.38704-0.41367 0.84646 1.9901 0.55217 1.076 1.1758 2.4911 1.3854 3.145 0.34219 1.0674 0.35608 1.237 0.13798 1.6588-0.35848 0.69323-0.57464 0.57302-0.57464-0.31988 0-0.52746-0.20583-1.2761-0.62012-2.2541-0.62862-1.484-0.94181-2.0034-3.0288-5.0178-1.2321-1.7796-1.9179-3.2407-1.6102-3.4308 0.043371-0.026804 0.073038-0.050766 0.11782-0.050126zm23.379 1.341c0.15534-0.00197 0.37085 0.24826 0.54415 0.71727 0.14695 0.39766 0.46832 1.3735 0.71417 2.1689 0.49482 1.6007 0.92513 2.528 1.5586 3.36 0.47024 0.61763 0.28087 0.72056-0.53898 0.293-0.67745-0.35328-0.89363-0.67423-1.2847-1.9089-0.18513-0.58453-0.4399-1.2598-0.56637-1.5012-0.22291-0.42544-0.24124-0.39725-0.59583 0.92759-0.20118 0.75166-0.48176 1.6446-0.62374 1.9844-0.27725 0.66355-0.65271 0.71778-0.74259 0.10697-0.0299-0.2032-0.12086-0.36949-0.20206-0.36949-0.0812 0 0.083419-0.50991 0.36587-1.1327 0.56011-1.2353 1.1663-3.4018 1.1663-4.1682 0-0.32164 0.084331-0.47596 0.20516-0.47749zm-11.175 4.0762c0.021123 1.54e-4 0.044067 0.001033 0.068213 0.001033 0.21472 0 0.65144 0.46483 1.2795 1.3612 0.98287 1.4027 1.8208 2.0976 2.7631 2.2918 0.75782 0.15622 0.98567 0.47365 0.59428 0.82786-0.28944 0.26194-0.37339 0.24144-1.3177-0.32556-0.55477-0.33309-1.2001-0.77655-1.434-0.98547-1.1232-1.0032-1.057-1.1208-0.92242 1.648 0.10153 2.0883 0.081941 2.497-0.11782 2.497-0.13139 0-0.33351-0.1521-0.44958-0.33796-0.11607-0.18586-0.21361-0.81747-0.21652-1.4035-3e-3 -0.58606-0.11619-1.984-0.25166-3.1068-0.29112-2.4128-0.31219-2.4699 0.004651-2.4675zm37.24 1.2604c0.041214-0.001619 0.074536 0.011811 0.1018 0.038757 0.14595 0.14424 0.097417 0.37817-0.19275 0.93534-0.21288 0.40879-0.81238 1.9751-1.3322 3.4804-0.62949 1.8228-1.0159 2.7127-1.1576 2.665-0.30289-0.10208-0.2741-0.3311 0.29766-2.3673 0.2807-0.99966 0.51056-1.8518 0.51056-1.8934 0-0.04166-0.27436 0.13316-0.60926 0.38861-0.88022 0.67137-3.1516 1.2022-3.529 0.82476-0.16663-0.16663 0.22427-0.56844 0.55294-0.56844 0.15724 0 0.93252-0.30749 1.7229-0.68368 1.1554-0.54994 1.6431-0.90838 2.4893-1.8288 0.6387-0.69474 0.96707-0.98414 1.1457-0.99115zm8.3979 3.4897c0.59828-0.022907 1.1336 0.59884 2.3415 2.0567 1.5084 1.8206 3.1325 4.3151 2.9368 4.5108-0.04001 0.040004-0.56622-0.009412-1.1689-0.11007-1.4385-0.24025-4.162-0.080182-7.5603 0.44442-1.4971 0.2311-2.7792 0.42175-2.8494 0.42375-0.20206 0.005752-0.15523-0.13116 0.27802-0.80822 0.22325-0.34887 0.73037-1.1993 1.1265-1.8898 0.88355-1.54 1.588-2.3375 3.1998-3.622 0.78922-0.62893 1.2594-0.98891 1.696-1.0056zm-37.532 0.26923 0.34365 0.42375c0.41075 0.50625 1.1532 1.9413 1.3384 2.5869 0.12145 0.42348 0.10566 0.44552-0.19069 0.26045-0.17786-0.11108-0.49386-0.52334-0.70228-0.91622-0.20842-0.39288-0.43016-0.68272-0.49299-0.64389-0.0628 0.03883-0.32363 0.91354-0.57929 1.9441-0.43235 1.7427-0.60582 2.1006-0.83768 1.7255-0.0505-0.08172 0.13559-1.0961 0.41393-2.2541 0.27835-1.158 0.55144-2.3352 0.60668-2.6159l0.10025-0.51056zm16.872 0.61753c0.005055-8.52e-4 0.008586-9.4e-5 0.010335 0.002067 0.0855 0.10553 0.44206 2.9266 0.44183 3.4959-1.7e-4 0.5198-0.2341 0.88189-0.39274 0.60823-0.0415-0.0717-0.12891-0.58995-0.1943-1.1514-0.0654-0.5614-0.15948-1.1922-0.20929-1.402l-0.09095-0.38137-0.53485 0.37982c-0.29413 0.20896-0.93296 0.70397-1.4201 1.1002-1.0544 0.85764-1.3947 0.66045-0.44028-0.25528 0.96583-0.92671 2.6736-2.3698 2.8303-2.3962zm-35.944 0.23564c0.32677-0.009302 0.99424 0.42602 2.2665 1.4495 1.4076 1.1324 3.0974 2.2056 3.4721 2.2056 0.44807 0 1.3963 0.54828 1.3963 0.80719 0 0.42018-1.3136 0.17312-2.7404-0.51521-0.6904-0.33308-1.28-0.58088-1.31-0.55087-0.03001 0.03001 0.18086 0.52067 0.4687 1.0909 0.7995 1.5838 1.3205 3.9315 0.8723 3.9315-0.08688 0-0.2784-0.12027-0.4253-0.26717-0.14689-0.14689-0.30901-0.47219-0.36018-0.72295-0.05118-0.25076-0.16401-0.72413-0.25063-1.0516-0.22202-0.8394-2.8055-5.1246-3.3161-5.5004-0.46146-0.33966-0.4912-0.4237-0.27337-0.7674 0.043848-0.069187 0.10849-0.10643 0.19999-0.10904zm-11.64 1.8981c0.018732-2.64e-4 0.039453 7.74e-4 0.061495 0.003617 0.28162 0.03633 4.6003 1.6329 4.8731 1.8014 0.09401 0.0581 1.078 0.34275 2.1864 0.63252 1.491 0.38976 2.3053 0.51347 3.129 0.47594 0.91568-0.04172 1.1231-0.001734 1.1694 0.22479 0.04118 0.20132-0.14907 0.32707-0.70745 0.46767-1.1704 0.29471-2.7378 0.2249-4.6111-0.20567l-1.7012-0.39119 1.2092 1.203c1.4885 1.4802 2.6096 3.6131 2.6164 4.9775 0.0031 0.62576-0.26393 0.58106-0.49816-0.083716-0.32345-0.91799-1.2837-2.4564-2.1931-3.5135-0.86034-0.99996-3.153-2.966-4.1119-3.5264-1.0176-0.59464-2.0028-2.0579-1.4221-2.066zm79.271 0.56637c0.37573 0 2.8384 2.7242 3.5218 3.8959 0.3702 0.63478 0.43254 0.62804-1.8381 0.20619l-1.5312-0.28474-0.11265-0.84543c-0.14666-1.1003-0.1718-2.9719-0.03979-2.9719zm-41.401 0.12712c0.23465-0.011698 0.48175 0.39207 0.86403 1.3648 0.51777 1.3175 0.24422 1.7548-0.3235 0.51728-0.17976-0.39184-0.40304-0.7348-0.49661-0.76223-0.0936-0.02742-0.39988 0.34445-0.68058 0.82631-0.4866 0.83531-0.93586 1.2328-0.93586 0.82837 0-0.29821 1.1357-2.4743 1.4102-2.7022 0.054286-0.045053 0.10811-0.069647 0.16226-0.072347zm33.546 4.0261c1.5082 0.001979 1.548 0.29276 1.9642 1.4051 0.84061 2.2467 0.19699 6.1403-1.3167 7.9659-0.65092 0.78503-0.79226 0.80579-1.1369 0.16588-0.39723-0.73761-1.6563-1.9294-2.6536-2.512-0.42504-0.24831-1.4904-0.71835-2.3673-1.0444-0.87694-0.32603-1.6543-0.68984-1.7275-0.80822-0.3093-0.50045-0.67659-2.5249-0.62839-3.4634l0.052193-1.0139 0.85059-0.21239c0.46784-0.11672 2.4514-0.28977 4.408-0.38447 1.1502-0.055669 1.9652-0.098959 2.5554-0.098185zm-17.253 0.069763c0.25479-0.007789 0.17353 0.39372-0.018604 1.4971-0.10246 0.58838-0.30609 1.1688-0.45217 1.2898-0.23788 0.19708-0.25289 0.10704-0.14366-0.8599 0.13301-1.1775 0.14809-1.1696-0.83509-0.43253-0.67302 0.50452-1.4454 0.80132-1.4454 0.55552 0-0.31065 0.93746-1.0778 2.0247-1.6573 0.44356-0.23641 0.71736-0.38807 0.87023-0.39274zm25.005 0.91261 1.063 0.088884c1.3101 0.1094 1.5486 0.3251 1.8991 1.7213 0.55642 2.2166 0.23942 4.6432-0.76532 5.8622-0.28735 0.34861-0.66591 0.71018-0.8413 0.80408-0.35572 0.19038-0.32885 0.27506-0.73794-2.344-0.20607-1.3199-0.20152-1.4001 0.07907-1.311 0.4863 0.15435 1.4696-0.3591 1.7591-0.91881 0.44352-0.85766 0.34383-1.5093-0.33383-2.1869-0.54884-0.54885-0.66509-0.59316-1.3612-0.5147l-0.76068 0.085783v-0.64337-0.64337zm-8.3757 0.64854c-0.95345 0-1.8314 0.87073-1.8314 1.8164 0 0.79409 0.36818 1.3675 1.0847 1.6883 0.69151 0.3096 1.4263 0.17024 1.9999-0.3793 0.57787-0.55366 0.72656-1.1265 0.48317-1.864-0.26109-0.79111-0.90844-1.2614-1.7363-1.2614zm-36.281 0.65422 0.49971 0.10025c0.74012 0.14831 2.3074 0.90058 2.3074 1.1074 0 0.29524-0.73501 0.19608-1.1911-0.16071-0.66735-0.52201-0.82751-0.428-0.88418 0.51883-0.0464 0.77492-0.079364 0.83715-0.33641 0.63769-0.19436-0.15079-0.30238-0.53646-0.34003-1.2123l-0.055294-0.99115zm10.995 0.36794c0.11307-0.004035 0.27546 0.080237 0.60461 0.25373 0.35503 0.18713 0.67092 0.47395 0.70228 0.63769 0.0702 0.36633-0.40151 0.40332-0.54002 0.042374-0.18768-0.48907-0.55338-0.25516-0.71365 0.4563-0.2345 1.041-0.58549 1.0508-0.58549 0.01602 0-0.45947 0.10987-0.98041 0.24546-1.1627 0.11765-0.15818 0.18059-0.23961 0.2868-0.2434zm-20.415 0.14108c0.18458-1.66e-4 0.40997 0.009203 0.67799 0.027388 1.0233 0.06943 1.2638 0.14054 1.3105 0.38602 0.0511 0.26882-0.043391 0.28881-0.89142 0.18914-1.1026-0.12959-1.1851 0.013277-0.55294 0.95912 0.73089 1.0935 0.7013 1.6041-0.049609 0.85318-0.44189-0.44189-1.2401-2.0288-1.1452-2.2769 0.035186-0.09192 0.24452-0.13761 0.65061-0.13798zm-6.673 0.67179c0.16833-0.004351 0.28604 0.082836 0.31884 0.24133 0.048179 0.23278-0.11182 0.31311-0.80564 0.40514-0.47602 0.06315-0.91041 0.18763-0.96532 0.27647-0.0549 0.088839 0.090792 0.36576 0.3235 0.61547 0.70717 0.75884 1.0633 1.7301 0.63459 1.7301-0.09357 0-0.17002-0.062343-0.17002-0.13849 0-0.0762-0.45921-0.6844-1.0206-1.3513-0.5614-0.66694-1.0206-1.2852-1.0206-1.3736 0-0.08839 0.51668-0.20104 1.1482-0.25063 0.63157-0.04959 1.2985-0.11562 1.4821-0.14676 0.02602-0.004415 0.050884-0.00713 0.074931-0.007752zm-14.73 2.1337c0.012359 2.02e-4 0.022097 0.001629 0.029972 0.004651 0.38244 0.14676 0.31602 0.36479-0.30179 0.99012-0.75847 0.76771-1.1814 1.0863-1.9885 1.4981-0.37712 0.19239-0.68523 0.41702-0.68523 0.4992 0 0.0822 0.58116 0.3614 1.2919 0.62063 1.316 0.47996 1.5001 0.6421 1.4009 1.234-0.05378 0.32116-0.079642 0.31822-0.65164-0.078548-0.5545-0.38462-1.8979-0.84508-3.4747-1.1906-0.36716-0.0805-0.69719-0.23793-0.7338-0.34985-0.03662-0.11192 0.2578-0.4081 0.65422-0.65836 0.39643-0.25025 0.85696-0.57982 1.0237-0.73226 0.57809-0.52847 3.0518-1.8434 3.4349-1.8371zm8.7648 0.48214c0.18834-0.007812 0.20579 0.1503 0.035656 0.46819-0.26833 0.50138-1.6675 1.1659-2.7492 1.3059-1.674 0.21658-1.7248 0.30718-0.49093 0.87023 1.3462 0.61426 2.1207 1.246 2.3564 1.9224 0.15597 0.44743 0.13913 0.50901-0.14211 0.50901-0.17589 0-0.48111-0.2263-0.678-0.50281-0.43765-0.61462-2.0165-1.4101-3.8199-1.9249-0.74125-0.2116-1.3739-0.46397-1.4061-0.56069-0.13642-0.40926 2.2884-1.1691 4.3326-1.3575 0.83722-0.0772 1.5405-0.25081 1.9399-0.47904 0.28372-0.16211 0.49281-0.24528 0.62167-0.25063zm17.357 1.7906c0.065293-0.002353 0.12963 0.013425 0.19069 0.051159 0.20862 0.12894 0.20169 0.19805-0.046509 0.47232-0.16002 0.17683-0.29094 0.4113-0.29094 0.5209 0 0.21809-0.21756 0.26514-0.39688 0.085783-0.337-0.337 0.11731-1.1148 0.54364-1.1302zm13.299 1.0733c0.41773 0 0.41925 0.31017 0.004135 0.80822-0.3717 0.44557-0.49606 0.4738-0.62374 0.14108-0.14008-0.36507 0.24106-0.9493 0.6196-0.9493zm-7.0662 0.026872c0.33454-0.014014 0.35272 0.62691 0.012403 1.0893-0.22029 0.29933-0.25316 0.30307-0.35347 0.044442-0.18043-0.46523-0.02112-1.0677 0.29869-1.1286 0.014642-0.002789 0.028775-0.004598 0.042374-0.005168zm13.361 1.5642c0.19022-0.003617 0.33435 0.086232 0.33435 0.26872 0 0.20747-1.1871 1.0325-1.4857 1.0325-0.11863 0-0.21601-0.15342-0.21601-0.34055 0-0.18714 0.091165-0.34003 0.20206-0.34003 0.11093 0 0.37473-0.16277 0.58653-0.36174 0.18038-0.16946 0.40008-0.2555 0.57878-0.2589zm6.9277 0.30799c0.026148-3.75e-4 0.054055 0.004222 0.083716 0.013953 0.39339 0.12914 0.35998 1.9999-0.035657 1.9999-0.0861 0-0.20782-0.34336-0.27078-0.76326-0.11682-0.77898-0.030037-1.2469 0.22272-1.2506zm-32.159 1.0258c0.042277 5.28e-4 0.047025 0.069675 0.047025 0.20774 0 0.16109-0.19138 0.54391-0.4253 0.85059-0.23392 0.30668-0.4253 0.63471-0.4253 0.72864 0 0.0939 0.30631 0.29069 0.68058 0.4377 0.3941 0.15481 0.68006 0.38068 0.68006 0.5364 0 0.32267-0.21757 0.32807-1.0645 0.025838v-5.16e-4c-1.1406-0.40701-1.1872-0.5199-0.60255-1.4604 0.28482-0.45818 0.66139-0.96334 0.83716-1.1224 0.15047-0.13617 0.23058-0.20413 0.27285-0.2036zm56.129 0.17415c0.49522 0.00123 0.91252 0.086562 1.5803 0.28939 2.5403 0.77159 3.3142 2.6522 2.1957 5.3356-0.97257 2.2531-2.3155 3.5206-4.8664 2.8391-0.30817-0.12389-0.38293-0.28737-0.38293-0.83974 0-0.37728 0.06411-0.68626 0.14211-0.68626 0.49598 0 2.4126-2.4974 2.4076-3.1378-0.00202-0.2774-0.18656-0.15396-0.89349 0.59893-2.2593 2.4062-5.0011 3.5817-7.628 3.2706l-0.83044-0.098185 0.58653-0.44442c0.80345-0.60895 2.0622-2.085 3.5207-4.1279 1.9006-2.662 2.0701-2.8084 3.4137-2.9523 0.28817-0.030859 0.52938-0.047584 0.75448-0.047025zm-82.115 0.33745c0.13612-0.010114 0.17518 0.10035 0.17518 0.31006 0 0.47649-1.204 1.7368-2.1265 2.2262-0.42118 0.22343-0.76584 0.45402-0.76584 0.51211 0 0.12185 1.0584 0.31558 1.7389 0.31833 0.70788 3e-3 2.2801 0.76709 2.6081 1.2676 0.16081 0.24543 0.26293 0.46443 0.22686 0.48679-0.03607 0.0224-0.31515 0.12836-0.62012 0.23564-0.48004 0.16887-0.5763 0.15436-0.71727-0.10904-0.08956-0.16733-0.71192-0.50785-1.3829-0.75654-1.2014-0.4453-2.2543-0.53496-4.6607-0.39636-0.5819 0.0335-0.6876-0.013822-0.73226-0.32711-0.04166-0.29237 0.078509-0.4086 0.59531-0.57619 1.1747-0.3809 3.0099-1.376 4.2571-2.3079 0.79823-0.59641 1.2051-0.86888 1.404-0.88367zm33.162 1.4144c0.013258-3.77e-4 0.02404 0.001971 0.032557 0.007235 0.33592 0.20761 0.1183 0.5944-0.62063 1.1028-0.98869 0.68024-0.9566 0.81248 0.33693 1.388 1.0512 0.46772 0.59914 0.85033-0.49764 0.42116-0.88746-0.34727-1.2759-0.62812-1.2759-0.92242 0-0.33208 1.6985-1.9875 2.0247-1.9968zm29.232 0.37465c0.124-0.00348 0.5975 0.20362 1.1214 0.49506 1.1176 0.62177 2.0484 1.4937 1.9404 1.8175-0.10277 0.30832-1.4938 0.9478-2.3358 1.0738l-0.76533 0.11472 0.32401-0.36535c0.17825-0.20097 0.42976-0.36535 0.55862-0.36535 0.12885 0 0.51874-0.12098 0.86661-0.26872l0.63252-0.26872-0.76171-0.66198c-0.41888-0.36432-0.97404-0.75035-1.2335-0.85783-0.44105-0.18269-0.59882-0.48071-0.37414-0.70538 0.005015-0.005016 0.014044-0.007392 0.026871-0.007752zm-44.14 0.043925c0.057114-3.05e-4 0.086947 0.039609 0.1018 0.11266 0.03916 0.1926-0.17884 0.50752-0.59118 0.85369l-0.65319 0.54829 0.42116 0.16278c1.4973 0.57765 1.8671 0.7721 1.8671 0.98237 0 0.31669-0.19966 0.28851-1.7317-0.24443-0.71859-0.24998-1.3539-0.50256-1.4113-0.56121-0.0574-0.0586 0.3775-0.54292 0.96635-1.0764 0.60705-0.54998 0.89567-0.77701 1.0309-0.77773zm-10.495 0.60461c0.071835-0.006017 0.14849 0.052472 0.24133 0.16433 0.60422 0.72804-0.8982 3.6844-2.5368 4.9919-0.68936 0.55009-2.5657 2.6956-2.5657 2.9337 0 0.0647 1.0144-0.26409 2.2541-0.73019l2.2541-0.84749 1.9063 0.059945c1.0623 0.0333 1.9883 0.14142 2.0913 0.24443 0.33638 0.33638-0.27963 0.61005-1.741 0.77308-1.6176 0.18046-5.4626 1.0121-6.8952 1.4914-0.53649 0.17951-1.3394 0.37993-1.7839 0.44545-0.71925 0.10604-0.8077 0.084112-0.8077-0.19999 0-0.18522 1.0433-1.3539 2.4856-2.7838 2.6585-2.6357 4.332-4.6927 4.6648-5.734 0.17642-0.55192 0.29539-0.79725 0.43253-0.80874zm31.835 0.26097c0.22984-0.008456 0.26994 0.22389 0.10439 0.66249-0.12266 0.32496-0.12782 0.54711-0.015502 0.65939 0.36698 0.36698-0.21149 0.69428-0.6904 0.39067-0.29367-0.18618 0.037039-1.5236 0.41238-1.6676 0.073022-0.02802 0.1361-0.043007 0.18914-0.044959zm7.2611 1.2335c0.07854-0.001364 0.17374 0.10884 0.26872 0.35863l0.17777 0.46716 0.52348-0.4408c0.60837-0.5119 1.0088-0.41648 0.55346 0.13178-1.293 1.5568-1.5033 1.6214-1.6691 0.51521-0.093037-0.62038-0.004211-1.0294 0.14573-1.032zm-23.813 2.3285c0.23093 0 0.22746 0.071539-0.031006 0.59118-0.28279 0.56848-0.53558 0.72688-0.77618 0.48628-0.38417-0.38416 0.13511-1.0775 0.80719-1.0775zm30.466 1.0206c0.28743 0 0.31611 0.39126 0.14624 2.0164-0.0959 0.9179-0.15342 1.0459-0.47026 1.0459-0.19851 0-0.60498-0.17239-0.90279-0.38292-0.51842-0.36647-1.0005-1.1038-0.83199-1.2723 0.0441-0.0441 0.39592 0.17354 0.78186 0.48369 0.85303 0.68552 1.0157 0.53994 1.0196-0.91261 2e-3 -0.75493 0.060359-0.97824 0.25735-0.97824zm-38.532 0.017053c0.098471 0.002091 0.16499 0.11542 0.21859 0.32039 0.06052 0.23143-0.2535 0.81444-1.001 1.8593-0.59898 0.83731-1.0893 1.5937-1.0893 1.6805 0 0.0869 0.63161 0.19845 1.4035 0.24805s1.6161 0.18844 1.8759 0.30851c0.89546 0.41395 0.4209 0.58441-1.6774 0.60255-1.115 0.01-2.3526 0.096934-2.7502 0.1943-0.60851 0.149-0.72295 0.13668-0.72295-0.078549 0-0.14067 0.38345-0.67521 0.85214-1.188 0.46869-0.51282 1.1713-1.4809 1.5617-2.1508 0.73938-1.2689 1.1125-1.8009 1.3291-1.7963zm21.129 0.44597c0.28294-0.009781 0.47594 0.057047 0.47594 0.20412 0 0.21429-1.0983 1.162-1.6955 1.4635-0.8101 0.40885-3.1346 0.37667-5.5252-0.076481-2.3759-0.45041-2.8195-0.44328-3.8117 0.059428-1.0444 0.52923-1.5265 1.108-3.7677 4.5212-1.3254 2.0184-2.2106 3.1632-3.1512 4.0752l-1.3084 1.2687 0.37724 0.30541c0.20736 0.16791 0.59849 0.30489 0.86971 0.30489 0.51565 0 0.72863-0.2384 1.8588-2.0836 0.82789-1.3517 0.87176-0.90153 0.055811 0.57361-0.42037 0.75997-0.72384 1.487-0.67438 1.6159 0.04946 0.1289 0.3237 0.23461 0.60927 0.23461 0.42454 0 0.61893-0.14332 1.0682-0.78548 0.85638-1.2242 1.9957-2.6711 1.9957-2.5347 0 0.19316-0.85239 1.845-1.0986 2.1291-0.12168 0.14035-0.34722 0.50413-0.50126 0.80822-0.25475 0.50291-0.25589 0.55294-0.008785 0.55294 0.38811 0 0.55326-0.20682 1.8283-2.2908 0.6277-1.0259 1.141-1.8089 1.141-1.7399 0 0.0689-0.31553 0.75315-0.70125 1.5203-0.38572 0.76717-0.80086 1.677-0.92242 2.0216-0.20823 0.59019-0.19923 0.63218 0.14883 0.72554 1.1876 0.31855 1.8246-0.10082 2.6562-1.7482 0.77782-1.5409 0.81858-1.3042 0.11059 0.63975-0.369 1.0132-0.34702 1.0902 0.22428 0.79478 0.72204-0.37338 1.4676-1.3465 2.2779-2.9724 0.91785-1.8417 1.0401-1.3423 0.14108 0.57619-0.51458 1.0981-0.6072 1.4134-0.3793 1.2914 0.39389-0.2108 1.3346-1.3678 2.1503-2.6443 0.80103-1.2536 1.9666-2.5173 2.7823-3.0169 0.33744-0.20668 1.0322-0.71493 1.5441-1.1296 0.51193-0.41472 1.3155-0.93235 1.7859-1.1503l0.85576-0.39636 0.40359 0.40411c0.43889 0.4389 0.36755 0.77928-0.1633 0.77928-0.50353 0-2.1576 0.90096-3.2479 1.7689-1.0309 0.82073-1.8466 1.7743-3.8824 4.5413-0.70175 0.95377-1.6587 2.0408-2.1265 2.4154-0.97647 0.78179-2.3662 1.4776-2.9559 1.48-0.36503 1e-3 -0.39292 0.054929-0.29249 0.55449 0.06114 0.30409 0.19665 1.0696 0.30127 1.7012 0.10462 0.63158 0.25281 1.1483 0.32918 1.1483 0.07637 0 0.44774-0.45485 0.82527-1.0108 0.68917-1.0148 1.2558-1.541 1.6604-1.541 0.30901 0 0.27002 0.50099-0.048576 0.62322-0.14622 0.0561-0.8236 0.83871-1.5053 1.7389-1.6791 2.2172-1.754 2.2712-1.866 1.3488-0.04903-0.40362-0.13036-1.3273-0.18035-2.0526-0.04999-0.72532-0.19749-1.5745-0.32815-1.8872-0.22653-0.54215-0.29871-0.5784-1.5503-0.78031-1.9969-0.32213-4.0872-0.97157-5.8296-1.8118-2.0737-0.99994-2.0842-1.1679-0.17002-2.6898 0.77192-0.6137 1.6098-1.29 1.8619-1.5028 0.47225-0.39851 0.95521-1.3605 1.7415-3.4716 0.76454-2.0527 2.3225-3.8315 3.8013-4.3393 0.7549-0.25924 4.5493-0.29704 7.784-0.077515 2.0564 0.13955 2.2737 0.12526 3.0102-0.2005 0.36068-0.15955 0.73406-0.24602 1.017-0.2558zm-42.575 0.38757c0.001959-9.4e-5 0.004251 0 0.006201 0 0.09557 0 0.17363 0.18508 0.17363 0.41134 0 0.82968-0.39916 1.2676-0.62322 0.68368-0.11969-0.3119 0.19462-1.083 0.44338-1.095zm82.531 0.36174c0.74987-0.007159 1.637 0.063373 2.5311 0.22324 1.9045 0.34052 2.2802 0.89297 2.6556 3.9093 0.15591 1.2527 0.40938 0.62807 0.41238-1.017 0.00217-1.1402 0.06046-1.4342 0.34726-1.742 0.87929-0.9438 1.8043-0.56436 2.6324 1.0795 0.83603 1.6596 0.78785 4.4761-0.10646 6.2394-0.61501 1.2127-1.291 1.8049-2.4794 2.172-0.65573 0.20254-1.586 0.3421-2.28 0.3421-1.1114 0-1.2086-0.032648-1.864-0.62477-1.0546-0.95278-2.0425-3.1737-2.976-6.6905-0.43466-1.6374-0.82828-3.1055-0.87488-3.2623-0.11583-0.38951 0.75217-0.61697 2.0019-0.6289zm-11.069 1.0971c0.032791-0.001305 0.06518 0.00395 0.096635 0.01602 0.29661 0.11382 0.30031 0.20437 0.029972 0.78652-0.24302 0.52327-0.34533 0.55871-0.6289 0.21704-0.2392-0.28821 0.15352-1.0057 0.5023-1.0196zm27.344 0.003101c0.12472-3.14e-4 0.29895 0.11407 0.57878 0.27027 0.78841 0.44008 1.6468 1.5154 2.6081 3.267 0.7553 1.3762 1.5869 2.3446 2.3166 2.698l0.52348 0.25373-0.58704 0.36277c-0.3228 0.19951-0.66594 0.36277-0.76274 0.36277-0.09684 0-0.56553-0.40227-1.0413-0.89348-0.65152-0.67271-0.86613-0.81306-0.86713-0.56999-0.00115 0.1775 0.26576 0.64938 0.59324 1.049 0.68416 0.83495 0.71154 0.92449 0.28164 0.92449-0.40281 0-0.72908-0.37751-1.2857-1.4883-0.42818-0.85446-0.78238-1.154-0.78238-0.66198 0 0.12716 0.21798 0.66282 0.48421 1.1906 0.39887 0.79077 0.43655 0.96022 0.2129 0.96222-0.14927 0.0013-0.42472 0.03213-0.61185 0.06873-0.83848 0.16421-1.4548-0.27676-2.0624-1.4748-0.22537-0.44444-0.45688-0.8077-0.51418-0.8077s-0.05299 0.38717 0.00981 0.86041c0.10515 0.79265 0.09017 0.84726-0.19068 0.69298-0.76322-0.41929-0.97549-0.66218-0.78445-0.8971 0.27628-0.33973 0.99711-2.7386 1.3219-4.3992 0.26406-1.3502 0.32104-1.7698 0.55914-1.7704zm-33.14 1.4185c0.13998 0.00158 0.21509 0.44119 0.42168 1.9828 0.25474 1.9009 0.26016 2.195 0.041341 2.4138-0.21884 0.21885-0.28026 0.19025-0.50178-0.23254-0.13873-0.26478-0.66235-0.79461-1.1638-1.1777-0.95758-0.73166-1.2112-1.2021-0.74414-1.3813 0.18067-0.0693 0.47283 0.080694 0.82889 0.42581 0.30238 0.29308 0.60827 0.53278 0.68006 0.53278 0.071799 0 0.10835-0.49678 0.081131-1.1038-0.037199-0.8291 0.017646-1.1705 0.21962-1.3725 0.053631-0.053633 0.097748-0.087776 0.13694-0.087333zm-14.776 0.023254c0.094147-0.006068 0.1571 0.10635 0.1571 0.34933 0 0.34102-0.8304 1.831-1.0278 1.8443-0.0507 3e-3 -0.45748-0.47032-0.90382-1.0532-0.90774-1.1853-0.77747-1.5413 0.21084-0.57619 0.34628 0.33813 0.68279 0.61495 0.74776 0.61495 0.065 0 0.23007-0.26783 0.3669-0.59531 0.15572-0.37268 0.32802-0.57614 0.44907-0.58394zm-31.356 2.9352c0.091307-0.005677 0.19642 0.032704 0.30334 0.12144 0.60304 0.50048-0.10586 2.5957-1.5002 4.4344-1.9936 2.6289-2.0735 2.7521-1.7193 2.6464 0.17591-0.0525 0.54922-0.14944 0.82992-0.21549 0.2807-0.0661 1.3082-0.41903 2.2831-0.78393l1.7725-0.66352 0.42478 0.42478 0.42426 0.42478-0.49558-0.005168c-0.7945-8e-3 -4.2157 1.3291-7.0843 2.7688-1.4861 0.74585-1.6624 0.78394-1.6624 0.35605 0-0.16726 0.39006-0.68446 0.86713-1.1488 1.9706-1.9179 5.257-6.8501 5.257-7.89 0-0.28718 0.12541-0.4589 0.29972-0.46974zm38.984 1.4764c0.52081 0 0.53713 0.44202 0.055294 1.4836-0.3575 0.77281-0.45581 1.2469-0.46044 2.2159-3e-3 0.6779-0.058 1.2325-0.12144 1.233-0.0634 5.2e-4 -0.27375-0.20046-0.46767-0.447-0.19393-0.24653-0.35243-0.51878-0.35243-0.60461 0-0.0858-0.53617-0.7224-1.1911-1.4144-0.65496-0.69199-1.1906-1.3387-1.1906-1.4371 0-0.41962 0.75536-0.12219 1.5296 0.60203 0.45914 0.42947 0.90519 0.73733 0.99115 0.6842 0.086-0.0531 0.20854-0.42348 0.27233-0.82321 0.1434-0.89846 0.51575-1.4924 0.93534-1.4924zm-15.607 0.17002c0.34644 0 0.087426 0.70288-0.44338 1.2035-0.32096 0.30275-0.63318 0.74829-0.69401 0.99064-0.18152 0.72324-0.60816 1.0865-0.83871 0.71417-0.052474-0.085882-0.15933-0.62174-0.2372-1.1911-0.12626-0.92317-0.10956-1.0366 0.15193-1.0366 0.17135 0 0.33769 0.17714 0.39998 0.4253 0.13248 0.52782 0.36786 0.54366 0.62632 0.042375 0.2481-0.48118 0.84945-1.1483 1.0351-1.1483zm4.8219 2.836c0.09162-0.002219 0.18771 0.061096 0.29611 0.18087 0.25751 0.28455 0.22501 0.40979-0.47336 1.834-0.41227 0.84077-0.75221 1.663-0.75551 1.8268-8e-3 0.39611-0.29109 0.37862-0.51056-0.031523-0.0969-0.18098-0.17667-0.54475-0.17725-0.80822-5.1e-4 -0.26346-0.126-0.70839-0.27854-0.98909-0.76663-1.4108-0.78624-1.4691-0.57568-1.6733 0.22745-0.22054 0.41641-0.023725 1.1017 1.1462l0.38912 0.66456 0.29766-0.91932c0.27629-0.85352 0.46927-1.2257 0.68626-1.2309zm18.625 0.90692c0.18713 0 0.34003 0.034615 0.34003 0.077515 0 0.65285 0.96962 5.43 1.2904 6.3572 0.2371 0.68542 0.40724 1.413 0.37827 1.6164-0.0483 0.339-0.12204 0.3057-0.88573-0.39584-0.45836-0.42105-1.5765-1.6078-2.4846-2.637-1.1567-1.311-1.9581-2.052-2.6768-2.4748-0.90047-0.52969-1.0003-0.63874-0.81442-0.89297 0.11649-0.15931 0.28765-0.2899 0.38034-0.2899 0.31088 0 2.3335 1.6555 3.6174 2.9605 0.6994 0.71097 1.3199 1.2924 1.3787 1.2924 0.058799 0 6.68e-4 -0.40175-0.12919-0.89297-0.21032-0.79549-0.72368-3.958-0.73174-4.5083-2e-3 -0.11696 0.15032-0.21239 0.33745-0.21239zm8.7721 1.3606c0.11499 0 0.49659 0.74654 0.84801 1.6588 0.35143 0.91228 1.2431 2.9948 1.9818 4.6276 0.74452 1.6458 1.3204 3.1438 1.2924 3.3616-0.0482 0.37451-0.09753 0.35566-1.0645-0.40514-0.55785-0.43891-1.6297-1.3874-2.3818-2.1074-1.6544-1.5838-3.2413-2.634-4.5625-3.02-0.81143-0.23702-0.97551-0.34728-0.93586-0.62787 0.0391-0.27657 0.15937-0.33211 0.64337-0.29611 0.70531 0.0525 4.9578 2.1605 5.4803 2.7166 0.75038 0.79875 0.61029 0.31473-0.62115-2.1441-1.208-2.4119-1.2588-2.5601-1.0785-3.1476 0.10406-0.33905 0.28346-0.6165 0.39843-0.6165zm-35.079 2.5859h0.57309l0.64079 2.0526 0.64079 2.0521 0.31109-0.8201c0.32563-0.85785 1.1236-1.8391 1.371-1.6862 0.2826 0.17466 0.13677 1.0208-0.28164 1.6366-0.23392 0.34425-0.4253 0.67591-0.4253 0.73691s-0.10353 0.35215-0.22996 0.64699c-0.12642 0.29484-0.29831 0.75944-0.38241 1.0325-0.19801 0.64295-0.49372 0.72988-0.80667 0.2372-0.13741-0.21634-0.30462-0.8145-0.37207-1.3291-0.18587-1.4181-0.48155-2.2448-1.1762-3.2913-0.34734-0.52327-0.58759-1.023-0.53382-1.11 0.0537-0.087 0.35594-0.15813 0.67128-0.15813zm-15.114 0.16588c0.56873-0.030811 0.75404 2.8002 0.33848 5.3294-0.3264 1.9866-0.33438 1.9435 0.22376 1.1731 0.58351-0.80551 2.5933-2.677 3.484-3.2442 0.40367-0.25707 0.77304-0.37274 0.9803-0.30696 0.28168 0.0894 0.18278 0.21657-0.64751 0.83096-1.1168 0.82643-2.0238 1.7767-3.1011 3.2484-1.7162 2.3446-2.5199 3.1108-2.7952 2.6655-0.04802-0.0777 0.023651-0.55589 0.15916-1.063 0.5784-2.1644 0.96375-4.6289 1.0222-6.536 0.04925-1.6081 0.11458-2.0525 0.30851-2.0934 0.00922-0.001944 0.018361-0.003128 0.027388-0.003617zm29.532 0.15244c0.17682-9.15e-4 0.1721 0.15915 0.071314 0.86351-0.0717 0.50081-0.1582 1.753-0.19224 2.7823-0.0791 2.3915-0.28905 2.5051-1.5053 0.81494-1.0351-1.4384-2.0778-2.5534-2.6892-2.8748-0.25732-0.13525-0.46767-0.35866-0.46767-0.49661 0-0.58341 0.98761-0.072752 2.4872 1.2862 0.61579 0.55804 1.1881 1.0149 1.2723 1.0149 0.0841 0 0.15417-0.55516 0.15555-1.2335 3e-3 -1.3395 0.25004-2.0462 0.75034-2.1425 0.045727-0.008797 0.085078-0.0143 0.11782-0.01447zm8.9535 3.2236c0.12106-0.00617 0.21291 0.059517 0.21291 0.21032 0 1.0346 0.65623 5.2727 1.357 8.7654 0.47015 2.3431 0.85473 4.3433 0.85473 4.4452 0 0.40038-0.31886 0.14555-0.88625-0.709-0.32667-0.492-0.88127-1.4176-1.2325-2.0567-1.1871-2.1603-2.9301-4.6237-4.2959-6.0709-0.74742-0.79202-1.4492-1.6108-1.5591-1.819-0.17804-0.3374-0.1532-0.39012 0.22583-0.48524 0.34323-0.0862 0.51572 0.002888 0.89452 0.46354 0.25816 0.31371 0.85916 0.99175 1.3353 1.5064 1.6149 1.7453 3.149 3.5849 3.3404 4.0049 0.2167 0.47561 0.54816 0.57381 0.40618 0.1204-0.16524-0.52774-0.5887-2.9668-0.86041-4.9552-0.14547-1.0646-0.30822-2.1101-0.36174-2.3234-0.053499-0.21323-0.011882-0.54777 0.093018-0.74362 0.11667-0.21801 0.32029-0.34502 0.47594-0.35295zm-56.655 1.7952c0.078475-9.39e-4 0.19708 0.05923 0.39532 0.16175 0.80466 0.41611 1.3534 1.1211 1.3534 1.7384 0 0.30505-0.081802 0.55449-0.1819 0.55449-0.1001 0-0.51231 0.2275-0.91622 0.5054-0.40391 0.27789-1.1748 0.9074-1.7126 1.3989l-0.97772 0.89349 0.37104-0.72709c0.41878-0.82087 1.2836-3.2348 1.4573-4.0675 0.067628-0.32428 0.096663-0.45648 0.21136-0.45785zm28.169 1.2878c0.070344 8.48e-4 0.1627 0.020735 0.27647 0.056844 0.79283 0.25163 1.2359 1.1996 1.9684 4.2096l0.70745 2.9073 0.73742-1.8552c0.78084-1.9641 1.5145-3.5123 1.9208-4.0535 0.2388-0.31801 0.25405-0.31522 0.52865 0.10387 0.27312 0.41683 0.26202 0.46709-0.33383 1.5177-0.69614 1.2275-1.2585 2.6035-2.1993 5.3826-0.63775 1.8838-0.91903 2.2481-1.249 1.6164-0.0855-0.16374-0.24872-0.98673-0.36277-1.8288-0.42706-3.1531-1.0241-5.5599-1.6743-6.751-0.5209-0.9542-0.6247-1.3095-0.31988-1.3059zm11.752 1.6299c0.10984-0.003033 0.26074 0.037112 0.4408 0.13022 0.82642 0.42735 2.2607 3.0522 3.1455 5.7568 0.61924 1.8927 0.64389 1.8802 0.93224-0.4811 0.47802-3.9144 0.7706-5.1883 1.1917-5.1883h0.30644c0.2282 0 0.15976 1.0727-0.16846 2.6365-0.38116 1.816-0.6568 5.5254-0.48162 6.4833 0.0877 0.47944 0.057421 0.74006-0.10232 0.88935-0.12433 0.11614-0.22583 0.38431-0.22583 0.59583 0 0.63844-0.7576 1.1109-0.93069 0.58033-0.0381-0.11696-0.23688-0.90197-0.44132-1.7441-0.72077-2.969-2.8195-8.1876-3.6716-9.1292-0.27978-0.30916-0.23649-0.52301 0.005168-0.52968zm35.666 1.5906c0.07958-0.00451 0.13855 0.06885 0.23151 0.22944 0.10336 0.17855 0.59038 0.93699 1.0821 1.6852 0.49173 0.74817 0.87449 1.3676 0.85059 1.3756-0.0239 0.00831-0.788-0.35525-1.6981-0.8077l-1.6547-0.82269 0.3235-0.63458c0.17811-0.34913 0.45571-0.74403 0.6165-0.87747 0.11248-0.09335 0.18666-0.14429 0.24856-0.14779zm-61.208 7.5086 0.48886 0.14056c0.58521 0.16784 1.5115 0.80098 1.5115 1.0335 0 0.09121-0.29773 0.56441-0.66146 1.0516-0.36372 0.4872-0.90699 1.326-1.2072 1.864-0.30017 0.53801-0.56524 0.97824-0.58911 0.97824-0.023883 0 0.014169-0.36535 0.084749-0.81184 0.070581-0.44649 0.18348-1.5865 0.25063-2.5337l0.12196-1.7224zm57.531 3.1967c6.8e-4 -8e-5 0.00133 0 0.00206 0 0.04678 0 0.16702 0.1534 0.26717 0.34054 0.1 0.18713 0.14343 0.34003 0.09663 0.34003-0.04679 0-0.16701-0.1529-0.26716-0.34003-0.09844-0.18421-0.14199-0.33586-0.0987-0.34054zm-11.056 0.93482c0.10909 0.0013 0.13479 0.11713 0.19379 0.38137 0.22316 0.99959 0.97148 3.3847 1.2015 3.8303 0.13279 0.25731 0.2201 0.46661 0.1943 0.46561-0.02579-0.00116-0.78977-0.79505-1.6976-1.7642l-1.6505-1.7622 0.37465-0.34262c0.20605-0.18829 0.622-0.467 0.92398-0.6196 0.23999-0.12128 0.37507-0.18962 0.45992-0.18862zm-30.659 2.4676c0.75352 0 1.5312 0.35624 1.4413 0.65991-0.04494 0.15187-0.36043 1.3057-0.70073 2.5642-0.34031 1.2585-0.64293 2.3126-0.67283 2.3425s-0.1034-0.6935-0.1633-1.6077c-0.05987-0.91416-0.15839-2.1791-0.21859-2.8107-0.10863-1.1393-0.10569-1.1482 0.31419-1.1482zm15.823 1.0366c0.35005-0.00333 0.65576 0.07013 0.85473 0.22118 0.46956 0.35644 0.38123 1.1138-0.48472 4.1434-0.14041 0.49123-0.27349 0.89349-0.29559 0.89349-0.02211 0-0.29566-0.78502-0.60772-1.7441-0.31206-0.95905-0.63023-1.8227-0.70693-1.9193-0.07669-0.09664-0.21811-0.3837-0.31471-0.63769-0.16394-0.4312-0.13511-0.47858 0.43615-0.71727 0.37458-0.1565 0.76874-0.23644 1.1188-0.23978z"/>
</svg>
