<?xml version="1.0" encoding="UTF-8"?>
<svg width="48" height="48" version="1.1" viewBox="0 0 45 45" xmlns="http://www.w3.org/2000/svg">
 <path d="m23.1 4.64-0.0027 3.41e-4c-2.49 0.00118-4.78 0.498-6.51 1.31-6.47 2.37-11.2 8.39-11.6 15.6l-3.23 1.45-0.1 0.0624c-1.13 0.69-1.59 2.1-1.67 3.87-0.0811 1.83 0.392 4.08 1.44 6.43 0.937 2.11 2.41 3.96 4 5.17 1.53 1.19 3.18 1.76 4.51 1.26l0.0482 0.0988 3.76-1.94c2.63 1.55 5.72 2.45 8.98 2.45 3.67 7e-6 7.1-1.12 9.92-3.03 0.34-0.137 0.682-0.296 1.02-0.49 1.74-0.996 3.43-2.72 4.7-4.94 1.23-2.14 1.84-4.35 1.84-6.23 0.172-0.988 0.271-2 0.271-3.04 0-0.158-0.0048-0.316-0.0089-0.474l2.03-0.823c0.0717-0.0252 0.142-0.0525 0.212-0.0827l0.0039-0.0016c0.146-0.0682 0.287-0.148 0.423-0.238l0.276-0.139-0.0282-0.0529c1.05-0.831 1.59-2.25 1.65-3.92 0.0596-1.74-0.4-3.77-1.38-5.72v-3.38e-4c-1.75-3.51-4.7-5.96-7.33-5.96-0.525 0.00118-1.02 0.105-1.47 0.309l-0.0158 0.00685c-0.173 0.0815-0.338 0.18-0.494 0.292l-2.93 1.36c-0.165-0.0929-0.328-0.189-0.494-0.277-0.387-0.32-0.835-0.615-1.35-0.874-1.67-0.843-3.96-1.36-6.47-1.36zm0.0098 0.404h2e-3c2.46 2.08e-4 4.7 0.506 6.27 1.31 1.6 0.808 2.53 1.89 2.53 3.04 0 0.917-0.6 1.81-1.66 2.57-0.312-0.265-0.8-0.561-1.51-0.753l0.0035-0.0095-0.224-0.0498c-0.277-0.0615-0.584-0.109-0.925-0.132-0.0835-0.0054-0.167-0.0089-0.249-0.0098-7.84e-4 -8e-6 -0.0012 3.41e-4 -0.0027 3.41e-4v-3.41e-4h-7.84e-4v3.41e-4c-1.2-0.013-2.25 0.439-2.3 0.463l-0.0054 0.0012-1.45 0.678v-0.0091l-0.23 0.108-0.0027 0.0012-2.76-1.19-0.0203-0.0048-2e-3 -7.84e-4s-0.776-0.161-1.67-0.169l-0.28-0.0027 0.0076 0.0243c-0.494 0.0157-0.988 0.0843-1.45 0.261-0.49 0.185-1.03 0.545-1.32 0.811-1.13-0.776-1.78-1.7-1.78-2.63 0-1.14 0.988-2.22 2.64-3.02s3.96-1.29 6.39-1.29zm13.2 0.455c2.4-0.00545 5.29 2.34 7.02 5.76 0.96 1.93 1.41 3.91 1.35 5.61-0.0572 1.67-0.615 3.04-1.63 3.77l-0.114 0.0831v3.42e-4l-7.84e-4 7.84e-4c-0.125 0.0835-0.255 0.157-0.391 0.22-0.0639 0.0275-0.129 0.0529-0.195 0.076l-0.0041 0.0012-1.92 0.78c-0.277-6.12-3.64-11.4-8.55-14.4l-0.0537-0.0945 2.67-1.24 0.0124-0.00886c0.148-0.107 0.305-0.199 0.47-0.276l0.0117-0.00545c0.404-0.184 0.851-0.279 1.33-0.28zm-17.6 5.8c0.0537 0.19 0.108 0.423 0.158 0.706 0.112 0.639 0.135 1.09 0.138 1.42-0.345-0.0972-0.647-0.193-0.929-0.287l-1.68-0.702c-0.112-0.0608-0.243-0.129-0.312-0.172 0.249-0.213 0.784-0.576 1.19-0.729 0.447-0.169 0.937-0.232 1.44-0.24zm0.408 0.0035c0.729 0.0294 1.32 0.149 1.34 0.153l2.36 1.02-2.4 1.18c-0.343-0.0557-0.674-0.125-1-0.201-2e-3 -0.345-0.026-0.835-0.145-1.51-0.0459-0.263-0.0976-0.447-0.149-0.631zm8.19 0.109c0.0753 7.84e-4 0.151 0.0035 0.226 0.0089 0.132 9e-3 0.253 0.0247 0.374 0.04 0.0839 0.0134 0.166 0.0278 0.247 0.0427-0.0792 0.239-0.159 0.506-0.212 0.796-0.0431 0.24-0.0635 0.517-0.08 0.784-1.25 0.431-2.71 0.71-4.27 0.764l-0.04-1.25 1.62-0.753c-0.0138 0.0062 0.016-0.0072 0.0498-0.0208 0.0336-0.0136 0.0835-0.033 0.148-0.0564 0.128-0.0466 0.312-0.108 0.533-0.167 0.389-0.103 0.894-0.197 1.42-0.191zm1.24 0.169c0.647 0.165 1.07 0.416 1.34 0.639-0.874 0.451-1.39 0.694-1.63 0.788 0.0164-0.226 0.0376-0.451 0.071-0.639 0.0502-0.277 0.131-0.557 0.209-0.792zm-5.41 1.18 0.0348 1.1c-0.0627 7.84e-4 -0.125 0.0027-0.188 0.0027-0.635 0-1.25-0.0494-1.85-0.12zm-14.6 7.57c0.0576-0.0012 0.116-0.0012 0.174 3.42e-4 0.572 0.0166 1.17 0.192 1.78 0.49-0.0666 0.109-0.158 0.283-0.243 0.596-0.13 0.478-0.211 1.21-0.0345 2.23 0.0635 0.368 0.189 0.721 0.354 1.06l-0.0298 0.0048 0.111 0.199c0.839 1.51 2.43 2.64 3.05 3.04l-0.0376 0.0151 0.203 0.0909c0.0279 0.0172 0.0308 0.0188 0.0474 0.0288-0.0079 0.146-0.03 0.608 0 1.25 0.0352 0.76 0.138 1.66 0.459 2.29 0.0443 0.0866 0.0933 0.171 0.144 0.254 0.018 0.0298 0.0369 0.0592 0.0557 0.0886 0.0258 0.04 0.0521 0.08 0.0792 0.119 0.882 1.3 2.41 2.2 2.41 2.2l0.0041 0.0027c-0.257 1.09-0.788 1.9-1.6 2.27-0.855 0.396-1.79 0.447-2.78 0.109-0.087-0.0303-0.173-0.0572-0.261-0.0937-0.0329-0.0134-0.0662-0.0307-0.0992-0.0447-0.104-0.0459-0.21-0.0988-0.315-0.154 0.223-1.93-0.26-4.39-1.41-6.94-0.945-2.08-2.94-4.74-4.94-6.04 0.186-1.06 0.604-1.91 1.23-2.44l-0.0149-0.0237c0.171-0.14 0.353-0.263 0.553-0.356 0.336-0.156 0.706-0.24 1.11-0.249zm2.22 0.659c0.112 0.0596 0.451 0.265 0.89 0.592l1.61 1.46c0.184 0.201 0.372 0.416 0.561 0.651-0.455 0.182-0.992 0.386-1.62 0.6-0.494 0.168-0.925 0.276-1.3 0.347-0.176-0.338-0.307-0.69-0.37-1.05-0.169-0.976-0.089-1.66 0.0285-2.09 0.0827-0.304 0.158-0.439 0.205-0.51zm25.2 0.0776c0.132-0.0054 0.262-0.0048 0.39 2e-3l0.0035 3.42e-4c0.502 0.0301 0.96 0.156 1.36 0.373 1.25 0.666 1.91 2.11 1.96 3.96 0.0431 1.86-0.549 4.12-1.79 6.27-1.25 2.17-2.9 3.85-4.55 4.78-1.66 0.953-3.29 1.18-4.55 0.514 0-7.1e-5 0-2.75e-4 -7.84e-4 -3.42e-4v-3.33e-4c-0.811-0.435-1.4-1.23-1.71-2.32 0.177 0.0012 0.435-0.0139 0.741-0.0776l0.0133 0.0379 0.147-0.0412c0.0239-0.0068 0.0256-0.0074 0.0041-0.0012 0.301-0.0819 0.635-0.213 0.98-0.419-0.0134 0.0079-0.0117 0.0076 0.0073-0.0041l0.0319-0.0193 0.04-0.024v-7.84e-4l0.0561-0.0342-0.0098-0.0196c0.284-0.183 0.572-0.423 0.855-0.733l0.0174 0.0177 0.143-0.172c0.145-0.174 0.285-0.368 0.419-0.584 0.494-0.788 0.764-1.61 0.913-2.32 0.0041-0.019 0.0071-0.0368 0.011-0.0557 0.0136-0.0662 0.0274-0.133 0.0389-0.197 0.0072-0.0389 0.0119-0.0737 0.0184-0.112 0.0191-0.115 0.0355-0.226 0.0486-0.331 0.0431-0.333 0.0608-0.608 0.0659-0.804l0.0027 0.0012v-0.071c0.0012-0.0745 7.84e-4 -0.125 0-0.167l0.0463-0.0243v-0.0054c0.0203-0.0089 0.0339-0.0144 0.0729-0.0332l0.0647-0.0316c0.592-0.282 2.2-1.19 3.12-3.12l0.0941-0.196-0.0124-0.0048c0.109-0.251 0.207-0.517 0.288-0.804 0.412-1.44 0.051-2.49-0.322-3.1 0.342-0.087 0.678-0.147 0.996-0.16zm-1.38 0.269c0.339 0.517 0.721 1.48 0.323 2.88-0.0772 0.271-0.171 0.525-0.277 0.764-0.506-0.209-1.1-0.498-1.64-0.87-0.564-0.387-0.945-0.757-1.22-1.07zm-29.7 0.514c-0.0101 0.246-0.0183 0.494-0.0183 0.741 0 1.76 0.258 3.45 0.733 5.06 0.0136 0.0514 0.0231 0.101 0.0373 0.153 0.0254 0.0921 0.0549 0.185 0.0827 0.278 0.0596 0.2 0.123 0.4 0.193 0.6 0.0348 0.1 0.0706 0.201 0.108 0.301 0.0768 0.207 0.16 0.416 0.248 0.623 0.037 0.0878 0.0717 0.175 0.111 0.263 0.13 0.295 0.268 0.592 0.419 0.886v3.42e-4c0.184 0.356 0.37 0.694 0.557 1.02 0.0647 0.113 0.131 0.215 0.195 0.325 0.124 0.208 0.248 0.416 0.372 0.608 0.071 0.111 0.143 0.213 0.214 0.319 0.121 0.181 0.242 0.359 0.364 0.529 0.071 0.098 0.142 0.19 0.214 0.284 0.123 0.162 0.246 0.32 0.369 0.47 0.0717 0.087 0.143 0.17 0.215 0.253 0.124 0.143 0.249 0.282 0.374 0.412 0.0686 0.0721 0.137 0.143 0.205 0.211 0.131 0.131 0.262 0.255 0.392 0.373 0.0627 0.0564 0.125 0.113 0.187 0.167 0.14 0.12 0.281 0.23 0.419 0.334 0.0529 0.0396 0.106 0.0815 0.159 0.119 0.037 0.0263 0.0741 0.058 0.111 0.0835 0.149 0.102 0.296 0.192 0.443 0.278l-2e-3 0.0161 0.0976 0.0533c0.0274 0.0149 0.0545 0.0233 0.0819 0.0376 0.494 0.382 1.01 0.741 1.54 1.07l-3.28 1.69-0.0342-0.0698-0.143 0.0627c-0.0172 0.0076-0.0299 0.014-0.0396 0.018-1.18 0.498-2.76-0.0076-4.27-1.19-1.52-1.18-2.98-3.01-3.89-5.06-1.03-2.31-1.49-4.51-1.41-6.27 0.078-1.76 0.592-3.06 1.68-3.65 0.203-0.135 0.196-0.126 0.203-0.135zm26.6 1.43c0.296 0.338 0.706 0.745 1.32 1.16 0.576 0.396 1.18 0.678 1.7 0.894-0.988 1.87-2.7 2.68-3.03 2.82l-2.72-1.5c0.772-1.31 1.72-2.47 2.74-3.38zm-25.9 0.49c1.87 1.28 3.77 3.83 4.66 5.8 1.1 2.42 1.57 4.78 1.4 6.62-0.557-0.339-1.13-0.8-1.7-1.4l-0.0079-0.0079c-0.174-0.183-0.349-0.381-0.525-0.588-0.0232-0.0276-0.0463-0.0533-0.0694-0.0815-0.157-0.19-0.314-0.396-0.47-0.604-0.0355-0.0478-0.071-0.0925-0.107-0.142-0.146-0.201-0.292-0.419-0.439-0.639-0.0431-0.0655-0.0866-0.126-0.13-0.193-0.14-0.217-0.279-0.451-0.416-0.682-0.0474-0.08-0.0949-0.154-0.142-0.236-0.183-0.318-0.364-0.651-0.545-1-0.147-0.284-0.28-0.568-0.404-0.851-0.0349-0.0788-0.0659-0.158-0.0992-0.236-0.0906-0.215-0.177-0.431-0.256-0.643-0.0272-0.0733-0.0529-0.146-0.0788-0.22-0.0819-0.233-0.158-0.466-0.225-0.698-0.0134-0.0455-0.0276-0.0909-0.0404-0.136-0.416-1.47-0.549-2.87-0.408-4.04zm8.39 0.196c0.541 0.713 1.04 1.5 1.48 2.32 0.136 0.259 0.26 0.521 0.38 0.78l-1.78 0.717c-0.192-0.118-0.855-0.537-1.59-1.2-0.514-0.463-1.04-1.03-1.42-1.66 0.366-0.0741 0.768-0.174 1.23-0.332 0.674-0.229 1.22-0.443 1.7-0.635zm14.5 3.08 2.46 1.37-3.76 1.93c0.27-1.09 0.702-2.21 1.3-3.3zm-12.5 0.311c0.655 1.49 1.05 2.99 1.17 4.35-0.31 0.134-0.678 0.325-1.13 0.631-0.172 0.119-0.321 0.243-0.466 0.365-0.309-0.309-0.604-0.655-0.827-1.03-0.0377-0.0639-0.0749-0.128-0.109-0.193-0.272-0.529-0.387-1.42-0.423-2.15-0.0306-0.659-0.0054-1.14 7.84e-4 -1.25zm15.2 1.41c-2e-3 0.112-0.0076 0.259-0.0218 0.435-0.0749 0.796-0.304 2.04-0.996 3.15-0.0902 0.144-0.183 0.276-0.278 0.4-0.285-0.25-0.729-0.568-1.48-0.964-0.564-0.3-1.04-0.459-1.45-0.557 0.0164-0.096 0.0342-0.192 0.0533-0.289zm-4.47 2.81c0.4 0.0815 0.898 0.245 1.49 0.561 0.725 0.386 1.16 0.694 1.41 0.917-0.362 0.396-0.737 0.666-1.1 0.851l-0.463 0.198c-0.631 0.214-1.13 0.181-1.26 0.17l-0.0234-2e-3zm-9.56 0.451c7.84e-4 0.0091 0.0012 0.0187 2e-3 0.0278l0.129-0.0079-7.84e-4 0.0294-0.127 0.0073c0.0041 0.0729 0.0075 0.145 0.0101 0.217 0.0054 0.149 0.0074 0.296 0.0054 0.443l0.089 7.84e-4 -3.41e-4 0.0114-0.089-0.0012c-7.84e-4 0.0659-0.0027 0.132-0.0048 0.196l0.087 0.0035-7.84e-4 0.0256-0.0866-0.0035c-0.0081 0.211-0.0242 0.416-0.0478 0.612l0.114 0.0136-3.37e-4 0.0035-0.114-0.0136c-0.0077 0.0647-0.0162 0.129-0.0256 0.192l0.123 0.0184-0.0095 0.0079-0.115-0.017c-0.0068 0.0455-0.0145 0.0898-0.0222 0.134l-0.0085 0.0076c-0.146-0.0917-0.721-0.47-1.31-1.02 0.131-0.109 0.274-0.22 0.427-0.325 0.379-0.263 0.706-0.443 0.976-0.564z" fill-rule="evenodd" stroke-width=".392"/>
</svg>
