<svg width="512" height="512" version="1.1" viewBox="0 0 135 135" xmlns="http://www.w3.org/2000/svg"><path d="m80.9 126c-0.382-1.44-1.22-4.1-1.46-4.64-0.166-0.374-0.703-1.72-1.19-3-0.997-2.6-1.1-2.7-2.61-2.7l-0.885 9e-5 -0.298 1.5c-0.164 0.826-0.298 1.81-0.298 2.2 0 1.13-1.12 3.07-1.54 2.66-0.0886-0.0886-0.39-1.51-0.67-3.15-0.28-1.64-0.555-3.11-0.612-3.26-0.0882-0.23-1.12-0.537-2.28-0.682-0.46-0.0572-3.06 5.65-3.67 8.05-0.407 1.6-0.685 1.85-1.32 1.16-0.347-0.376-0.374-0.574-0.382-2.86-9e-3 -2.47-0.353-4.87-1.02-7.1-0.307-1.03-0.614-1.28-2.14-1.72-0.598-0.172-1.21-0.365-1.36-0.43-0.307-0.132-0.594 0.447-1.49 3.01-0.748 2.13-0.774 2.17-1.43 2.06-1.4-0.232-1.32-0.157-1.31-1.22 0.0017-0.536 0.115-1.7 0.252-2.59 0.33-2.14 0.324-2.54-0.0425-2.65-0.164-0.0487-0.604-0.238-0.978-0.42s-0.803-0.332-0.954-0.331c-0.742 1e-3 -2.99 3.04-4.65 6.29-0.547 1.07-1.06 1.87-1.2 1.87-0.134 0-0.353-0.172-0.487-0.383-0.213-0.337-0.195-0.658 0.158-2.68 0.479-2.75 0.8-6.44 0.653-7.51-0.0941-0.687-0.212-0.855-1.06-1.52-1.79-1.4-2.93-2.06-3.18-1.85-0.627 0.52-2.26 2.71-2.71 3.63-0.548 1.12-1.02 1.37-1.79 0.953-0.489-0.262-0.385-0.774 0.789-3.87 0.506-1.34 0.92-2.65 0.92-2.92 0-0.391-0.239-0.7-1.2-1.55-1.19-1.05-1.2-1.06-1.83-0.872-1.71 0.516-4.61 2.82-5.89 4.68-0.715 1.04-1.53 1.72-1.9 1.58-0.402-0.154-0.294-0.516 0.862-2.89 0.608-1.25 1.11-2.32 1.11-2.38s0.389-1.12 0.864-2.35c1.15-2.96 1.19-4.31 0.194-5.45-0.715-0.819-2.77 1e-3 -4.66 1.86-0.683 0.673-1.05 0.917-1.25 0.839-0.443-0.17-0.181-1.14 0.502-1.87 0.695-0.737 1.97-2.63 2.48-3.7l0.377-0.78-1.02-2.28c-0.561-1.26-1.07-2.45-1.14-2.67-0.133-0.429-0.404-0.486-0.822-0.17-0.155 0.117-0.67 1.28-1.15 2.59-0.475 1.31-1.02 2.62-1.21 2.93-1.21 1.97-4.79 3.78-8.05 4.09-0.849 0.0793-1.09 0.0484-1.16-0.15-0.147-0.383 0.0966-0.645 0.825-0.89 0.526-0.176 0.761-0.401 1.14-1.08 0.708-1.29 0.672-1.96-0.312-5.76-0.939-3.63-2.42-7.02-4.72-10.8-2.37-3.89-6.82-9.26-8.35-10-0.944-0.49-2.25-0.48-3.06 0.0242-0.483 0.299-0.674 0.336-0.952 0.188-0.191-0.102-0.343-0.279-0.338-0.392 0.0159-0.35 2.37-2.03 4.02-2.86 1.85-0.938 3.54-1.39 5.31-1.41 2.12-0.0291 2.71 0.145 4.64 1.37 0.967 0.613 1.8 1.17 1.84 1.23 0.0468 0.0661 0.812 0.658 1.7 1.31s2.37 1.82 3.29 2.58c1.87 1.55 2.5 1.79 3.44 1.34 0.312-0.149 0.693-0.462 0.846-0.695 0.384-0.587 1.29-3.04 1.2-3.26-0.126-0.337-1.94-1.43-3.08-1.86-0.617-0.232-1.5-0.616-1.97-0.854-1.57-0.794-0.626-1.15 1.76-0.662 1.66 0.339 3.14 0.379 3.67 0.0989 0.292-0.156 0.38-0.355 0.38-0.862 0-0.616-0.0742-0.713-1.15-1.5-0.632-0.465-1.61-1.13-2.17-1.48-2.8-1.75-3.27-2.23-3.03-3.13 0.105-0.4 0.931-0.865 1.54-0.865 0.226 0 1.29 0.39 2.37 0.868 1.34 0.593 2.27 0.896 2.94 0.957l0.985 0.0894 0.348-1.34c0.191-0.737 0.384-1.5 0.429-1.7 0.0682-0.305-0.124-0.482-1.18-1.09-0.696-0.398-1.74-0.896-2.32-1.11-0.588-0.213-1.05-0.483-1.05-0.613 0-0.264 0.577-0.275 3.22-0.0589l1.69 0.138-0.841-1.07c-1.04-1.33-3.99-4.16-5.46-5.24-0.97-0.714-1.09-0.866-1.05-1.32 0.0444-0.471 0.105-0.514 0.777-0.563 0.628-0.0454 1 0.0992 2.72 1.05 2.24 1.24 4.24 1.98 5.35 1.98 1.12 0 2.51-0.457 2.51-0.824 0-0.517-0.923-1.78-1.93-2.63-1.06-0.905-1.26-1.48-0.523-1.48 0.243 0 0.645 0.143 0.893 0.318 0.959 0.676 3.6 1.84 3.6 1.58 0-0.0742-1.34-1.59-2.97-3.36-1.85-2.01-2.97-3.36-2.98-3.58 0.361-1.34 1.46-1.47 2.33-1.1 0.396 0.18 1.24 0.745 1.88 1.26 2.65 2.11 5.22 3.54 5.89 3.28 0.323-0.124 0.775-1.2 0.77-1.84-0.0094-1.32-1.45-3.8-3.78-6.52-0.724-0.845-1.32-1.69-1.32-1.88-0.0019-0.41 0.302-0.757 0.662-0.757 0.14 0 1.14 0.863 2.22 1.92 2.94 2.87 3.47 3.24 5.3 3.7 0.672 0.168 0.875 0.152 1.45-0.116 0.843-0.396 0.917-0.87 0.333-2.15-0.239-0.522-0.434-1.03-0.434-1.12 0-0.095-0.278-0.704-0.617-1.35s-0.564-1.27-0.5-1.37c0.269-0.436 0.758-0.106 1.85 1.25 0.638 0.79 1.52 1.67 1.96 1.97l0.797 0.528 0.298-0.368c0.406-0.501 0.374-1.11-0.127-2.44-0.234-0.621-0.425-1.29-0.425-1.49s-0.344-1.38-0.766-2.62-0.766-2.57-0.766-2.94c0-0.666 0.0017-0.667 0.798-0.776 0.439-0.0602 0.855-0.0514 0.924 0.0194 0.069 0.0709 0.718 1.28 1.44 2.68 1.41 2.74 2 3.68 2.67 4.31 0.406 0.377 0.448 0.383 0.852 0.119 0.758-0.497 1.38-1.62 1.35-2.44-0.046-1.12-0.663-3.54-1.67-6.56-0.849-2.53-0.897-2.76-0.629-2.96 0.159-0.117 0.389-0.213 0.511-0.213 0.298 0 1.2 1.26 2.37 3.32 2.21 3.89 3.8 5.36 5.79 5.36 0.515 0 0.572-0.0537 0.683-0.638 0.0661-0.351 0.0313-1.25-0.0774-2.01-0.109-0.753-0.198-1.58-0.198-1.84 0-0.409 0.0497-0.455 0.383-0.353 0.211 0.0647 0.394 0.127 0.408 0.139 0.0141 0.0118 0.229 0.634 0.477 1.38s0.716 1.76 1.04 2.25c0.545 0.827 0.638 0.893 1.26 0.893 0.64 0 0.677-0.0292 0.793-0.638 0.0702-0.366 6.4e-4 -1.62-0.163-2.93-0.551-4.43-0.375-5.29 0.933-4.54 0.549 0.316 0.669 0.501 0.893 1.39 0.142 0.563 0.672 2.13 1.18 3.49 0.978 2.63 1.02 2.68 2.09 2.47l0.578-0.109-6e-3 -1.06c-6e-3 -1.03-0.351-3.31-0.591-3.91-0.098-0.244-0.028-0.298 0.384-0.298 0.477 0 0.531 0.0752 1.01 1.4 0.528 1.47 1.3 2.85 1.59 2.85 0.178 0 0.567-0.38 1.07-1.04 0.456-0.604 0.961-2.4 1.24-4.4 0.721-5.17 0.88-5.81 1.41-5.67 0.471 0.123 0.803 1.69 1.04 4.9 0.104 1.4 0.26 2.87 0.348 3.26 0.382 1.71 1.24 3.29 1.8 3.29 0.331 0 0.992-1.26 1.61-3.06 0.304-0.889 0.567-1.64 0.586-1.66 0.0183-0.026 0.234 0.0291 0.48 0.123 0.396 0.15 0.427 0.22 0.279 0.611-0.253 0.666-0.217 4.42 0.0448 4.63 0.117 0.0942 0.454 0.223 0.749 0.286 0.52 0.111 0.544 0.0895 0.8-0.703 0.145-0.45 0.427-1.47 0.625-2.26 0.198-0.795 0.506-1.78 0.684-2.18 0.281-0.64 0.374-0.72 0.71-0.614 0.213 0.0669 0.59 0.283 0.838 0.481 0.393 0.312 0.465 0.524 0.557 1.63 0.25 3.01 0.481 5.07 0.588 5.24 0.063 0.102 0.453 0.337 0.867 0.522 1.24 0.557 1.72 0.0178 2.09-2.37 0.231-1.5 0.54-1.96 1.02-1.51 0.189 0.177 0.236 0.501 0.183 1.26-0.0392 0.563 0.0309 1.75 0.156 2.64 0.213 1.51 0.256 1.62 0.685 1.77 0.604 0.212 1.06-0.0393 2.53-1.4 1.7-1.57 3-3.69 3.78-6.18 0.125-0.397 0.958-0.57 1.26-0.263 0.215 0.215 0.134 0.632-0.638 3.28-0.769 2.64-0.896 3.29-0.974 4.99-0.0839 1.84-0.0675 1.98 0.272 2.28 0.355 0.319 0.371 0.319 0.984 0 0.343-0.178 1.22-0.879 1.95-1.56s1.36-1.23 1.41-1.23c0.182 0 0.611 0.557 0.611 0.792 0 0.142-0.429 0.683-0.953 1.2-1.54 1.53-1.97 2.54-1.33 3.18 0.362 0.362 0.534 0.337 0.775-0.115 0.438-0.821 2.07-2.68 2.36-2.68 0.525 0 0.708 0.402 0.534 1.18-0.0869 0.387-0.265 0.874-0.396 1.08-0.131 0.209-0.422 0.98-0.648 1.71-0.374 1.22-0.388 1.37-0.157 1.79 0.41 0.735 1.1 0.683 3.05-0.229 0.929-0.434 1.77-0.741 1.86-0.682 0.39 0.241 0.128 0.775-0.719 1.46-1.7 1.38-2.06 2.1-1.25 2.53 0.497 0.266 1.43 0.0775 3.76-0.76 1.94-0.697 3.72-1.59 5.34-2.68l1.26-0.852 0.397 0.462c0.488 0.568 0.574 0.429-2.02 3.28-1.79 1.96-3.54 4.3-3.54 4.72-5.1e-4 0.0986-0.108 0.385-0.239 0.636-0.396 0.759-0.507 1.52-0.246 1.69 0.364 0.231 1.3 0.178 3.31-0.186 2.18-0.397 2.28-0.403 2.28-0.149 0 0.289-0.434 0.584-2.13 1.45-1.89 0.961-2.13 1.17-2.12 1.83 2e-3 0.543 0.374 1.93 0.648 2.42 0.0855 0.153 0.682 0.67 1.33 1.15 1.14 0.848 1.41 1.18 3.57 4.37 0.42 0.619 0.869 1.48 0.998 1.9 0.217 0.722 0.209 0.811-0.107 1.21-0.188 0.239-0.5 0.434-0.693 0.434-0.32 0-0.341 0.0704-0.243 0.789 0.0595 0.434 0.108 1.12 0.108 1.52 0 0.627 0.101 0.83 0.738 1.49 0.995 1.02 2.21 2.88 2.94 4.49 0.33 0.731 0.82 1.79 1.09 2.35 0.582 1.22 1.24 3.44 1.53 5.15 0.205 1.23 0.208 1.23 0.743 1.23 0.774 6.4e-4 1.62 0.582 1.92 1.32 0.82 1.99 1.68 3.61 2.24 4.18 1.16 1.2 2.37 1.55 2.94 0.862 0.361-0.435 0.769-0.274 0.971 0.385 0.176 0.574 0.144 0.708-0.407 1.69-0.792 1.42-2.2 2.7-3.34 3.04-1.16 0.346-4.53 0.349-5.69 5e-3 -0.47-0.139-1.12-0.434-1.43-0.654l-0.58-0.4-6.72 6.84 0.799 1.17c0.44 0.645 1.17 1.58 1.63 2.08 0.794 0.869 0.958 1.42 0.421 1.42-0.304-6.4e-4 -1.23-0.579-2.44-1.53-1.21-0.946-1.5-1.11-2.25-1.25-0.427-0.0809-0.585-0.0402-0.666 0.171-0.138 0.359 0.603 2.5 1.1 3.18 0.419 0.569 0.482 0.967 0.2 1.25-0.231 0.231-1.66-0.288-2.45-0.888-0.754-0.575-0.992-0.53-1.54 0.296-1.04 1.58-0.563 2.63 2.83 6.23 2.45 2.6 2.64 2.99 1.49 3.14-0.622 0.0834-0.75 0.0381-1.11-0.392-0.573-0.681-2.67-1.69-5.11-2.46-2.07-0.652-2.08-0.654-2.72-0.363-0.657 0.299-1.18 0.717-1.89 1.51l-0.401 0.444 0.899 1.66c0.494 0.914 1.31 2.27 1.8 3.02 0.498 0.744 0.906 1.48 0.906 1.64 0 0.599-1.13 1.17-1.85 0.943-0.189-0.0599-1.1-1.04-2.03-2.18-0.93-1.14-1.89-2.26-2.14-2.49-0.428-0.396-0.47-0.403-1-0.149-0.305 0.146-1.2 0.684-2 1.2-0.794 0.512-1.69 1.06-2 1.22-0.307 0.159-0.519 0.351-0.471 0.428 0.0476 0.077 0.241 1.09 0.43 2.25 0.392 2.4 0.791 3.78 1.51 5.21 0.624 1.24 0.85 2.26 0.499 2.26-0.133 0-1.38-1.21-2.77-2.68-2.81-2.98-3.77-3.85-4.67-4.24-0.607-0.262-2.28-0.394-2.48-0.195-0.097 0.097 0.112 1.76 0.61 4.85 0.236 1.46 0.142 1.95-0.451 2.34-0.367 0.241-0.525 0.256-0.925 0.0904-0.773-0.32-0.946-0.626-1.84-3.26-1.18-3.47-0.975-3.21-2.32-2.89l-1.11 0.266-0.579 1.8c-0.798 2.47-1.13 4.18-1.24 6.45-0.0674 1.33-0.173 2-0.339 2.17-0.298 0.298-0.55 0.31-0.625 0.0287zm0.135-5.61c0.866-3.03 0.955-3.79 0.485-4.14-0.398-0.302-1.22-0.294-1.97 0.0188-0.571 0.239-0.6 0.286-0.436 0.717 0.0966 0.254 0.238 0.541 0.315 0.638 0.0767 0.0966 0.395 0.96 0.707 1.92 0.312 0.959 0.585 1.74 0.608 1.74 0.0221 0 0.155-0.402 0.295-0.893zm-15.5-2.18c0.34-1.26 0.656-2.41 0.7-2.56 0.0899-0.304-0.688-0.66-1.44-0.66-0.42 0-0.422 9e-3 -0.314 1.15 0.0602 0.632 0.158 1.9 0.218 2.81 0.0599 0.914 0.133 1.64 0.163 1.61s0.333-1.08 0.673-2.34zm23.3-0.0995c-0.888-5.22-1.25-9.43-1.05-12.2 0.143-1.9 0.249-2.16 0.787-1.92 0.37 0.165 0.379 0.241 0.411 3.39 0.0279 2.7 0.235 4.87 0.487 5.13 0.162 0.162 4.42-1.4 6.61-2.42 3.03-1.42 3.42-1.72 3.26-2.6-0.404-2.23-1.4-3.63-3.25-4.56-0.805-0.407-1.35-0.793-1.39-0.979-0.0534-0.277 0.0297-0.295 0.85-0.185 0.765 0.103 1.18 0.319 2.61 1.36 3.15 2.29 6.14 5.23 7.65 7.53 0.261 0.398 0.508 0.723 0.547 0.723 0.0397 0-0.126-0.325-0.368-0.723-2.3-3.78-4.11-8.09-4.92-11.7-0.722-3.24-0.585-3.62 0.417-1.17 0.287 0.702 0.591 1.43 0.677 1.62 0.157 0.343 1.74 4.49 1.93 5.08 0.093 0.277 0.202 0.232 0.942-0.387 1.3-1.09 4.13-4.4 4.43-5.17 0.0942-0.248 0.28-0.451 0.413-0.451 0.494 0 0.604-1.17 0.2-2.13-0.185-0.444-0.443-0.677-1.02-0.926-0.792-0.339-1.05-0.66-0.882-1.1 0.136-0.356 1.01-0.0794 3.25 1.03 1.02 0.505 1.91 0.919 1.97 0.919 0.0633 0-0.0598-0.366-0.274-0.813-0.579-1.21-1.27-3.36-1.38-4.31-0.0799-0.675-0.0496-0.833 0.159-0.833 0.399 0 0.626 0.378 0.987 1.64 0.183 0.64 0.371 1.27 0.419 1.39 0.113 0.297 6.41-5.72 7.78-7.44 1.34-1.68 2.22-3.49 2.89-5.92 0.483-1.77 0.549-2.27 0.556-4.22 0.0109-3.16-0.589-5.29-2.79-9.89-1.12-2.35-1.52-2.73-2.36-2.26-0.369 0.205-1.54 2-1.55 2.39-3e-3 0.0576 0.439 0.267 0.981 0.464 1.22 0.445 2.27 1.33 2.74 2.29 0.269 0.557 0.355 1.06 0.355 2.1 0 1.6-0.319 2.81-1.12 4.26-0.7 1.26-0.762 2.33-0.238 4.02 0.611 1.98 0.659 2.54 0.345 4.07-0.378 1.84-0.744 2.58-1.83 3.67-2.04 2.05-5.26 2.75-7.4 1.61-1.38-0.733-2.29-0.16-3.09 1.94-0.255 0.668-0.611 1.35-0.793 1.51-0.306 0.277-0.337 0.278-0.439 0.0125-0.31-0.808 0.666-4.01 1.63-5.34l0.491-0.678-0.493-1.84c-0.64-2.39-0.952-3.34-1.48-4.55-0.4-0.911-0.469-0.981-0.874-0.88-0.576 0.144-0.937 0.48-1.73 1.61-2.32 3.31-2.91 4-3.85 4.49-0.589 0.305-0.998 0.355-1.13 0.139-0.0472-0.0764 0.614-0.976 1.47-2 3.51-4.2 5.11-7.42 5.74-11.5 0.228-1.51 0.0671-2.87-0.524-4.46-0.903-2.41-4.24-4.4-9.13-5.45-0.772-0.165-1.4-0.387-1.4-0.492 0-0.411 0.447-0.6 1.41-0.6 0.961 0 1-0.0174 0.904-0.383-0.0563-0.211-0.192-1.01-0.301-1.79-0.215-1.52-0.296-1.6-1.18-1.14l-0.502 0.26v-0.824c0-3.4 3.13-7.35 8.89-11.2 0.725-0.489 1.43-0.932 1.57-0.986 0.407-0.156 0.291 0.303-0.26 1.03-0.278 0.368-0.506 0.794-0.506 0.947 0 0.153 0.699 1.23 1.55 2.39 1.63 2.22 3.23 4.61 4.29 6.44 0.739 1.26 0.658 1.55-0.347 1.24-0.348-0.107-0.651-0.177-0.672-0.156-0.0211 0.0211 0.0764 0.497 0.217 1.06 0.14 0.561 0.264 1.82 0.274 2.81 0.0208 1.99-0.29 3.38-0.992 4.46-0.227 0.349-0.413 0.712-0.413 0.808 0 0.0954-0.264 0.541-0.586 0.99-0.867 1.21-0.959 1.55-0.734 2.76 0.186 1 0.0739 2.3-0.321 3.72l-0.113 0.408 0.554-0.323c0.691-0.403 1.52-1.39 2.91-3.47 1.15-1.73 2.43-3.06 2.95-3.06 0.235-1e-3 0.284-0.0784 0.191-0.3-0.827-1.98-0.84-2.09-0.879-7.78-0.039-5.77-0.116-6.54-0.965-9.56-0.442-1.57-1.75-5.03-2.34-6.21-0.176-0.347-0.32-0.711-0.32-0.808 0-0.27 0.781-0.21 1.02 0.0783 0.286 0.344 0.51 0.322 0.51-0.0517 0-0.676 0.992-2.23 2.28-3.57l1.36-1.41-1.69 0.842c-2.03 1.01-3.23 1.38-4.44 1.38-0.804 0-0.982-0.07-1.6-0.629-0.383-0.346-1.16-1.23-1.73-1.96-0.568-0.734-1.09-1.27-1.17-1.2-0.216 0.219-0.974 3-1.46 5.36-0.687 3.32-1.19 3.68-1.12 0.798 0.0538-2.3 0.89-6.12 1.84-8.4 0.0773-0.185-0.439 0.25-1.15 0.968-0.708 0.718-1.87 1.68-2.58 2.15-1.71 1.11-4.02 1.91-4.02 1.38 0-0.0979 0.235-0.308 0.523-0.468 1.71-0.948 3.67-2.36 4.67-3.36l1.15-1.15-0.407-0.33c-0.224-0.181-1.29-0.851-2.36-1.49-2.02-1.2-2.84-1.87-2.64-2.19 0.159-0.258 0.718-0.227 1.16 0.0637l0.377 0.246 0.0336-1.39c0.0185-0.767 0.184-1.96 0.369-2.65 0.184-0.689 0.28-1.19 0.213-1.11-0.0673 0.081-0.463 0.6-0.879 1.15-0.88 1.17-2.93 2.99-3.36 2.99-0.699 0-2.46-0.585-4.3-1.43l-1.98-0.905-0.103 1.34c-0.0568 0.738-0.0711 1.55-0.0316 1.8 0.0395 0.255 0.113 1.39 0.163 2.53l0.0908 2.07-0.514 0.0755c-0.964 0.141-1.03-0.0398-1.22-3.2-0.0948-1.58-0.182-4.37-0.193-6.2l-0.0205-3.32-0.544 2.18c-0.697 2.8-1.25 4.23-2.15 5.58-0.823 1.23-2.44 2.66-2.71 2.39-0.111-0.111-0.0383-0.303 0.214-0.565 1.11-1.15 1.95-2.96 2.8-6.03 0.128-0.463-0.271-0.63-2.63-1.1-2.02-0.399-2.97-0.844-3.5-1.64-0.514-0.763-0.945-2.65-1.07-4.7l-0.106-1.73-0.204 1.79c-0.362 3.17-1.13 4.95-2.43 5.61-0.947 0.483-2.47 0.85-3.52 0.85-0.871 0-0.9 0.0152-0.89 0.468 0.0132 0.629 0.482 2.26 1.34 4.67 0.488 1.37 0.664 2.08 0.559 2.27-0.128 0.229-0.234 0.178-0.68-0.331-0.291-0.331-0.793-1.16-1.12-1.84-0.518-1.09-2.53-6.72-3.24-9.07l-0.258-0.851 0.107 1.7c0.182 2.9 0.0993 5.69-0.209 7.06-0.283 1.26-1.16 3.33-1.7 4-0.257 0.321-0.269 0.293-0.203-0.51 0.0384-0.468 0.226-1.58 0.417-2.47 0.191-0.889 0.399-2.22 0.463-2.95 0.108-1.25 0.0951-1.33-0.198-1.24-0.173 0.0529-1.02 0.181-1.89 0.285-1.91 0.229-3.62 0.0158-4.92-0.615-1.11-0.539-2.38-1.93-3.1-3.41-0.302-0.619-0.582-1.09-0.623-1.05-0.0408 0.0408 0.207 0.872 0.551 1.85 1.22 3.47 0.702 5.77-1.52 6.7-0.35 0.146-0.636 0.303-0.636 0.35 0 0.344 2.18 3.45 3.12 4.45 1.26 1.34 1.37 1.8 0.287 1.25-1.89-0.964-3.78-3.44-6.55-8.59-0.905-1.68-1.72-3.14-1.82-3.23-0.0939-0.0936 0.033 0.366 0.282 1.02 2.46 6.47 2.94 8.22 3.09 11.1 0.0854 1.69 0.0604 1.99-0.179 2.19-0.501 0.416-0.73-0.0313-0.841-1.64-0.0851-1.23-0.77-4.32-1.01-4.57-0.0362-0.0362-0.635 0.473-1.33 1.13-3.1 2.94-4.29 3.18-7.1 1.43l-0.733-0.454 0.625 1.24c1.04 2.07 0.991 3.48-0.163 4.56-0.243 0.227-0.441 0.464-0.441 0.527 0 0.192 3.29 1.67 4.27 1.93 0.941 0.241 1.15 0.525 0.625 0.855-0.452 0.285-2.74-0.253-4.41-1.04-0.781-0.367-2.42-1.34-3.63-2.17-4.5-3.07-5.72-3.83-5.9-3.72-0.105 0.0648 1.26 1.54 3.2 3.45 3.3 3.25 4.92 5.14 6.11 7.11 0.637 1.06 0.712 1.51 0.333 2.02-0.238 0.315-0.291 0.283-1.19-0.712-1.11-1.23-1.98-1.59-3.81-1.59-0.905 0-1.4 0.0999-2.09 0.424-1.51 0.703-3.19 0.534-5.92-0.591-0.688-0.284-1.28-0.483-1.32-0.443-0.0401 0.0401 0.662 0.857 1.56 1.82 1.06 1.13 1.82 2.11 2.16 2.81l0.523 1.06-0.45 2.01c-0.247 1.11-0.56 2.39-0.696 2.85-0.135 0.46-0.214 0.869-0.174 0.909 0.135 0.135 3.24 0.548 4.13 0.549 0.922 0.0012 1.75 0.229 1.75 0.48 0 0.272-0.824 0.525-2.08 0.639-2.31 0.209-5.29-0.397-8.88-1.8-0.931-0.365-1.72-0.64-1.75-0.611-0.0292 0.0292 1.13 0.836 2.57 1.79 2.9 1.92 4.73 3.41 5.92 4.8 0.858 1.01 1.84 2.58 1.84 2.95 0 0.372-0.368 0.506-0.541 0.197-0.0859-0.153-0.267-0.279-0.402-0.279s-0.605-0.355-1.04-0.788c-0.765-0.754-1.63-1.25-2.17-1.25-0.36 0-1.13 1.07-1.31 1.82-0.0852 0.353-0.221 2.16-0.302 4.01-0.0846 1.94-0.224 3.45-0.327 3.55-0.279 0.279-0.736-0.982-0.767-2.11-0.0254-0.944-0.0361-0.965-0.369-0.718-0.934 0.693-2.06 1.09-3.09 1.09-0.972 1e-3 -1.11-0.0491-1.94-0.7-0.488-0.386-1.92-1.66-3.19-2.82-2.65-2.44-4.27-3.63-5.63-4.14-0.835-0.313-1.23-0.351-3.08-0.294-1.83 0.0567-2.24 0.124-2.93 0.474-0.452 0.228-0.805 0.524-0.802 0.672 0.0035 0.145 0.386 0.671 0.85 1.17l0.844 0.905 1.23-0.186c1.36-0.205 3.32-0.27 3.48-0.115 0.134 0.134-0.0776 0.194-2.2 0.629-1.01 0.206-1.83 0.434-1.83 0.509 0 0.298 0.954 1.24 1.48 1.46 0.376 0.157 1.3 0.232 2.85 0.232 2.14 0 3.37 0.188 3.09 0.473-0.0676 0.0676-1.02 0.103-2.11 0.0781-1.09-0.0246-2.24 0.0144-2.55 0.0866l-0.569 0.131 1.17 1.45c0.642 0.796 1.38 1.81 1.64 2.25l0.472 0.805 1.65 6e-3c1.11 4e-3 1.79 0.0857 2.08 0.249 0.389 0.222 0.268 0.244-1.4 0.249-1.66 6e-3 -1.83 0.0347-1.83 0.32 0 0.679 0.569 0.918 2.21 0.926 0.846 4e-3 1.54 0.0369 1.54 0.0731 0 0.192-1.28 0.559-1.95 0.559-0.424 0-0.771 0.035-0.771 0.0777 0 0.0428 0.542 1.11 1.21 2.38 1.36 2.61 1.31 2.57 2.9 1.85 0.552-0.248 1.05-0.403 1.11-0.344 0.194 0.194-0.307 0.611-1.28 1.07-0.528 0.248-0.989 0.475-1.02 0.506-0.127 0.113 0.561 1.77 0.734 1.77 0.0985-3.4e-4 0.638-0.306 1.2-0.68 0.561-0.374 1.08-0.68 1.15-0.68 0.306-1e-3 -0.277 0.704-0.984 1.19-1.25 0.858-1.25 0.857-0.485 3.53l0.255 0.896 0.471-0.335c0.259-0.184 0.866-0.69 1.35-1.12 0.947-0.851 1.19-0.732 0.381 0.188-0.273 0.311-0.56 0.673-0.638 0.805-0.078 0.132-0.471 0.455-0.872 0.718-0.516 0.338-0.699 0.558-0.624 0.749 0.0586 0.149 0.15 0.825 0.202 1.5 0.0571 0.736 0.172 1.23 0.285 1.23 0.401 0 2.33-1.41 3.15-2.31 1.05-1.15 1.98-2.99 2.31-4.58 0.256-1.23 0.543-1.62 1.21-1.62 0.679 0 0.833-0.402 0.612-1.6-0.273-1.48-0.249-2.04 0.107-2.48 0.283-0.35 0.322-0.356 0.543-0.0896 0.131 0.158 0.271 0.741 0.311 1.3 0.0402 0.555 0.134 1.05 0.208 1.09 0.363 0.224 1.26-0.937 2.13-2.76 0.93-1.94 1.29-2.29 1.4-1.35 0.0892 0.755-0.435 2.03-1.42 3.44l-0.926 1.33 0.924 0.286c0.508 0.157 1.27 0.506 1.7 0.775 0.612 0.387 0.774 0.587 0.774 0.957 3.4e-4 0.631-0.249 0.603-1.87-0.213-1.29-0.648-2.38-0.881-2.38-0.507 0 0.499 0.941 2.74 1.77 4.22 0.517 0.921 1.02 1.89 1.12 2.16 0.18 0.475 0.203 0.45 1.68-1.8 0.821-1.25 1.98-3.07 2.58-4.04 1.09-1.76 1.09-1.76 1.39-1.38 0.167 0.206 0.304 0.525 0.304 0.708 0 0.635-0.748 2.11-1.99 3.91l-1.25 1.81 1.32-0.507c0.725-0.279 1.79-0.739 2.37-1.02 0.684-0.336 1.17-0.476 1.4-0.403 0.367 0.117 0.5 0.6 0.165 0.6-0.394 0-2.97 1.65-3.88 2.49-1.17 1.07-2.31 2.68-2.12 2.99 0.0743 0.121 0.197 0.297 0.274 0.391 0.0762 0.0936 0.703 0.945 1.39 1.89 1.24 1.71 3.13 3.73 4.46 4.78l0.692 0.546 0.774-1.65c1.06-2.27 1.23-2.77 1.6-4.67 0.309-1.61 0.614-2.14 0.94-1.62 0.547 0.862-0.908 6.99-3.06 12.9-0.29 0.795-0.434 1.3-0.319 1.12 1.17-1.82 6.55-7.43 7.83-8.17 0.81-0.463 1.31-0.487 1.3-0.063-0.0012 0.12-0.636 0.877-1.41 1.68-1.26 1.31-2.26 2.8-2.57 3.83-0.0888 0.295 0.0632 0.469 0.874 1 0.54 0.355 1.48 1.05 2.09 1.54 1.32 1.07 2.5 1.78 3.66 2.21 0.468 0.173 0.981 0.424 1.14 0.559 0.261 0.222 0.34 0.165 0.812-0.579 0.761-1.2 0.916-1.94 0.86-4.15-0.0273-1.08-0.0587-2.37-0.0699-2.88-0.0498-2.26 0.844-0.168 1.34 3.13 0.526 3.5 0.509 4.43-0.185 9.87l-0.0869 0.68 0.357-0.68c0.196-0.374 0.779-1.75 1.29-3.06 1.09-2.77 2.22-4.96 3.12-6.04 0.35-0.421 0.743-0.938 0.874-1.15 0.281-0.453 0.423-0.48 0.564-0.111 0.0625 0.163-0.543 1.57-1.51 3.5-0.889 1.78-1.62 3.33-1.62 3.44 0 0.245 4.55 1.73 7.86 2.56l2.26 0.571 0.118-0.624c0.323-1.71-0.013-4.36-0.879-6.91-0.448-1.32-0.484-1.56-0.274-1.77 0.211-0.211 0.35-0.03 1.05 1.35 1.82 3.63 3.11 7.55 3.56 10.8 0.13 0.956 0.232 1.36 0.242 0.962 0.0536-2.09 1.24-9.63 1.71-10.9 0.228-0.599 0.832-0.693 1.07-0.166 0.157 0.345 0.0648 1.13-0.492 4.16-0.445 2.42-0.624 3.78-0.512 3.84 0.316 0.195 4.75 0.0753 7.23-0.196 1.34-0.147 2.47-0.266 2.51-0.266 0.0368 0 0.066-0.364 0.0649-0.808-4e-3 -1.53-0.731-3.44-1.97-5.19-0.316-0.445-0.575-0.947-0.575-1.12s-0.268-0.546-0.595-0.836c-0.669-0.592-0.716-0.754-0.318-1.08 0.243-0.201 0.384-0.114 1.14 0.702 1.16 1.26 2.58 3.47 3.37 5.25 0.36 0.807 1.21 3.17 1.88 5.25 0.675 2.08 1.25 3.75 1.29 3.72 0.0322-0.0321-0.0572-0.737-0.198-1.57zm-10.2-7.42c-0.0381-0.117-0.237-0.902-0.441-1.74-0.721-2.97-2.82-8.19-3.67-9.13-0.407-0.45-0.13-0.698 0.446-0.4 0.826 0.427 2.26 3.05 3.15 5.76 0.619 1.89 0.644 1.88 0.932-0.481 0.478-3.91 0.771-5.19 1.19-5.19h0.306c0.228 0 0.16 1.07-0.169 2.64-0.381 1.82-0.657 5.53-0.481 6.48 0.0877 0.479 0.0577 0.74-0.102 0.889-0.124 0.116-0.226 0.384-0.226 0.596 0 0.638-0.758 1.11-0.931 0.58zm14.2-3.4c-0.327-0.492-0.881-1.42-1.23-2.06-1.19-2.16-2.93-4.62-4.3-6.07-0.747-0.792-1.45-1.61-1.56-1.82-0.178-0.337-0.154-0.39 0.226-0.485 0.343-0.0862 0.516 3e-3 0.895 0.464 0.258 0.314 0.859 0.991 1.34 1.51 1.61 1.75 3.15 3.58 3.34 4 0.217 0.476 0.548 0.574 0.406 0.121-0.165-0.528-0.589-2.97-0.86-4.96-0.145-1.06-0.308-2.11-0.362-2.32-0.0535-0.213-0.0116-0.548 0.0933-0.744 0.207-0.388 0.689-0.487 0.689-0.142 0 1.03 0.656 5.27 1.36 8.77 0.47 2.34 0.855 4.34 0.855 4.45 0 0.4-0.319 0.145-0.886-0.709zm-27.7 0.257c-0.0855-0.164-0.249-0.987-0.363-1.83-0.427-3.15-1.02-5.56-1.67-6.75-0.641-1.17-0.65-1.44-0.0437-1.25 0.793 0.252 1.24 1.2 1.97 4.21l0.707 2.91 0.738-1.86c0.781-1.96 1.51-3.51 1.92-4.05 0.239-0.318 0.254-0.315 0.528 0.104 0.273 0.417 0.262 0.467-0.334 1.52-0.696 1.23-1.26 2.6-2.2 5.38-0.638 1.88-0.919 2.25-1.25 1.62zm-13.9-6.65c-0.048-0.0777 0.0236-0.556 0.159-1.06 0.578-2.16 0.964-4.63 1.02-6.54 0.0492-1.61 0.115-2.05 0.309-2.09 0.59-0.124 0.788 2.76 0.366 5.33-0.326 1.99-0.335 1.94 0.224 1.17 0.584-0.806 2.59-2.68 3.48-3.24 0.404-0.257 0.773-0.373 0.98-0.307 0.282 0.0894 0.182 0.217-0.648 0.831-1.12 0.826-2.02 1.78-3.1 3.25-1.72 2.34-2.52 3.11-2.8 2.67zm54.8-3.21c-0.558-0.439-1.63-1.39-2.38-2.11-1.65-1.58-3.24-2.63-4.56-3.02-0.811-0.237-0.976-0.347-0.936-0.628 0.0391-0.277 0.16-0.332 0.644-0.296 0.705 0.0525 4.96 2.16 5.48 2.72 0.75 0.799 0.61 0.314-0.621-2.14-1.21-2.41-1.26-2.56-1.08-3.15 0.104-0.339 0.283-0.616 0.398-0.616 0.115 0 0.497 0.746 0.848 1.66 0.351 0.912 1.24 2.99 1.98 4.63 0.745 1.65 1.32 3.14 1.29 3.36-0.0482 0.375-0.0978 0.356-1.06-0.405zm-36.7-0.768c-0.137-0.216-0.305-0.814-0.372-1.33-0.186-1.42-0.481-2.24-1.18-3.29-0.347-0.523-0.588-1.02-0.534-1.11 0.0537-0.087 0.356-0.158 0.671-0.158h0.573l1.28 4.1 0.311-0.82c0.326-0.858 1.12-1.84 1.37-1.69 0.283 0.175 0.137 1.02-0.281 1.64-0.234 0.344-0.425 0.676-0.425 0.737s-0.103 0.352-0.23 0.647c-0.126 0.295-0.299 0.759-0.383 1.03-0.198 0.643-0.493 0.73-0.806 0.237zm11.4-1.11c-1.04-1.44-2.08-2.55-2.69-2.87-0.257-0.135-0.468-0.359-0.468-0.497 0-0.583 0.988-0.0726 2.49 1.29 0.616 0.558 1.19 1.01 1.27 1.01 0.0841 0 0.154-0.555 0.155-1.23 3e-3 -1.34 0.25-2.05 0.751-2.14 0.293-0.0563 0.308 0.0143 0.189 0.849-0.0717 0.501-0.158 1.75-0.192 2.78-0.0791 2.39-0.289 2.51-1.51 0.815zm14.6-1.07c-0.458-0.421-1.58-1.61-2.48-2.64-1.16-1.31-1.96-2.05-2.68-2.47-0.9-0.53-1-0.639-0.814-0.893 0.116-0.159 0.288-0.29 0.38-0.29 0.311 0 2.33 1.66 3.62 2.96 0.699 0.711 1.32 1.29 1.38 1.29 0.0588 0 6.4e-4 -0.402-0.129-0.893-0.21-0.795-0.724-3.96-0.732-4.51-2e-3 -0.117 0.15-0.213 0.337-0.213s0.34 0.035 0.34 0.0779c0 0.653 0.97 5.43 1.29 6.36 0.237 0.685 0.407 1.41 0.378 1.62-0.0483 0.339-0.122 0.306-0.886-0.396zm-36.1-0.202c-0.049-0.404-0.13-1.33-0.18-2.05-0.05-0.725-0.198-1.57-0.328-1.89-0.227-0.542-0.299-0.578-1.55-0.78-2-0.322-4.09-0.972-5.83-1.81-2.07-1-2.08-1.17-0.17-2.69 0.772-0.614 1.61-1.29 1.86-1.5 0.472-0.399 0.955-1.36 1.74-3.47 0.765-2.05 2.32-3.83 3.8-4.34 0.755-0.259 4.55-0.297 7.78-0.0775 2.06 0.14 2.27 0.125 3.01-0.201 0.721-0.319 1.49-0.346 1.49-0.0516 0 0.214-1.1 1.16-1.7 1.46-0.81 0.409-3.13 0.377-5.53-0.0765-2.38-0.45-2.82-0.444-3.81 0.0592-1.04 0.529-1.53 1.11-3.77 4.52-1.33 2.02-2.21 3.16-3.15 4.08l-1.31 1.27 0.377 0.305c0.207 0.168 0.599 0.305 0.87 0.305 0.516 0 0.729-0.239 1.86-2.08 0.828-1.35 0.871-0.901 0.0555 0.574-0.42 0.76-0.724 1.49-0.674 1.62 0.0495 0.129 0.324 0.234 0.609 0.234 0.425 0 0.619-0.143 1.07-0.785 0.856-1.22 2-2.67 2-2.53 0 0.193-0.852 1.85-1.1 2.13-0.122 0.14-0.347 0.504-0.501 0.808-0.255 0.503-0.256 0.553-0.0084 0.553 0.388 0 0.553-0.207 1.83-2.29 0.628-1.03 1.14-1.81 1.14-1.74 0 0.0689-0.316 0.753-0.701 1.52-0.386 0.767-0.801 1.68-0.922 2.02-0.208 0.59-0.2 0.632 0.148 0.726 1.19 0.319 1.82-0.101 2.66-1.75 0.778-1.54 0.819-1.3 0.111 0.64-0.369 1.01-0.347 1.09 0.224 0.795 0.722-0.373 1.47-1.35 2.28-2.97 0.918-1.84 1.04-1.34 0.141 0.576-0.515 1.1-0.607 1.41-0.379 1.29 0.394-0.211 1.33-1.37 2.15-2.64 0.801-1.25 1.97-2.52 2.78-3.02 0.337-0.207 1.03-0.715 1.54-1.13 0.512-0.415 1.32-0.932 1.79-1.15l0.855-0.396 0.404 0.404c0.439 0.439 0.368 0.78-0.163 0.78-0.504 0-2.16 0.901-3.25 1.77-1.03 0.821-1.85 1.77-3.88 4.54-0.702 0.954-1.66 2.04-2.13 2.42-0.976 0.782-2.37 1.48-2.96 1.48-0.365 1e-3 -0.393 0.055-0.293 0.555 0.0611 0.304 0.197 1.07 0.301 1.7 0.105 0.632 0.253 1.15 0.329 1.15 0.0764 0 0.448-0.455 0.825-1.01 0.689-1.01 1.26-1.54 1.66-1.54 0.309 0 0.27 0.501-0.0486 0.623-0.146 0.0561-0.824 0.839-1.51 1.74-1.68 2.22-1.75 2.27-1.87 1.35zm-18.3-3.33c0-0.167 0.39-0.684 0.867-1.15 1.97-1.92 5.26-6.85 5.26-7.89 0-0.438 0.292-0.606 0.603-0.348 0.603 0.5-0.106 2.6-1.5 4.43-1.99 2.63-2.07 2.75-1.72 2.65 0.176-0.0525 0.55-0.15 0.83-0.216 0.281-0.0661 1.31-0.419 2.28-0.784l1.77-0.663 0.849 0.849-0.496-5e-3c-0.794-8e-3 -4.22 1.33-7.08 2.77-1.49 0.746-1.66 0.784-1.66 0.356zm33.2-1.22c-0.0969-0.181-0.177-0.545-0.177-0.808-5.1e-4 -0.263-0.126-0.709-0.278-0.989-0.767-1.41-0.787-1.47-0.576-1.67 0.227-0.221 0.417-0.0235 1.1 1.15l0.389 0.664 0.298-0.919c0.393-1.21 0.617-1.45 0.982-1.05 0.258 0.285 0.225 0.41-0.473 1.83-0.412 0.841-0.752 1.66-0.756 1.83-8e-3 0.396-0.291 0.379-0.51-0.0314zm11.2-2.33c-0.194-0.247-0.353-0.518-0.353-0.604 0-0.0858-0.536-0.722-1.19-1.41-0.655-0.692-1.19-1.34-1.19-1.44 0-0.42 0.756-0.122 1.53 0.602 0.459 0.429 0.905 0.737 0.991 0.684 0.086-0.0531 0.209-0.424 0.272-0.823 0.143-0.898 0.516-1.49 0.935-1.49 0.521 0 0.537 0.442 0.0555 1.48-0.358 0.773-0.456 1.25-0.461 2.22-3e-3 0.678-0.0577 1.23-0.121 1.23-0.0634 5.2e-4 -0.274-0.201-0.468-0.447zm-16.6-1.41c-0.0524-0.0848-0.159-0.621-0.237-1.19-0.126-0.923-0.11-1.04 0.152-1.04 0.171 0 0.338 0.177 0.4 0.425 0.132 0.528 0.367 0.544 0.626 0.0425 0.248-0.481 0.849-1.15 1.04-1.15 0.346 0 0.0877 0.703-0.443 1.2-0.321 0.303-0.633 0.749-0.694 0.991-0.182 0.723-0.608 1.09-0.839 0.714zm24.7-3.35c-0.139-0.265-0.662-0.795-1.16-1.18-0.958-0.732-1.21-1.2-0.744-1.38 0.181-0.0693 0.473 0.0807 0.829 0.426 0.302 0.293 0.609 0.533 0.68 0.533 0.0718 0 0.108-0.497 0.081-1.1-0.0372-0.829 0.0174-1.17 0.219-1.37 0.245-0.245 0.295-0.0777 0.559 1.9 0.255 1.9 0.26 2.19 0.0409 2.41-0.219 0.219-0.28 0.191-0.501-0.232zm-16.5-3c-0.908-1.19-0.778-1.54 0.211-0.576 0.346 0.338 0.683 0.615 0.748 0.615 0.065 0 0.23-0.268 0.367-0.595 0.277-0.663 0.606-0.79 0.606-0.235 0 0.341-0.83 1.83-1.03 1.84-0.0507 3e-3 -0.457-0.471-0.904-1.05zm-31.4 0.257c0-0.141 0.383-0.675 0.852-1.19 0.469-0.513 1.17-1.48 1.56-2.15 1.08-1.85 1.38-2.13 1.55-1.48 0.0605 0.231-0.253 0.815-1 1.86-0.599 0.837-1.09 1.59-1.09 1.68 0 0.0869 0.632 0.198 1.4 0.248s1.62 0.188 1.88 0.308c0.895 0.414 0.421 0.584-1.68 0.603-1.12 0.01-2.35 0.0972-2.75 0.195-0.609 0.149-0.723 0.137-0.723-0.0787zm-11.1-0.669c0-0.185 1.04-1.35 2.49-2.78 2.66-2.64 4.33-4.69 4.66-5.73 0.269-0.841 0.404-0.97 0.674-0.645 0.604 0.728-0.898 3.68-2.54 4.99-0.689 0.55-2.57 2.7-2.57 2.93 0 0.0647 1.01-0.264 2.25-0.73l2.25-0.847 1.91 0.0598c1.06 0.0333 1.99 0.142 2.09 0.245 0.336 0.336-0.279 0.61-1.74 0.773-1.62 0.18-5.46 1.01-6.9 1.49-0.536 0.18-1.34 0.38-1.78 0.446-0.719 0.106-0.808 0.084-0.808-0.2zm64.3-1.15c-0.262-0.315 0.233-1.14 0.599-1 0.297 0.114 0.3 0.205 0.0297 0.787-0.243 0.523-0.345 0.558-0.629 0.217zm-12.2-0.649c-0.518-0.366-1-1.1-0.832-1.27 0.0441-0.0441 0.396 0.174 0.782 0.484 0.853 0.686 1.02 0.54 1.02-0.913 2e-3 -0.755 0.0608-0.978 0.258-0.978 0.287 0 0.316 0.391 0.146 2.02-0.0959 0.918-0.153 1.05-0.47 1.05-0.199 0-0.605-0.172-0.902-0.383zm-59.2-0.734c-0.121-0.314 0.2-1.09 0.449-1.09 0.0956 0 0.174 0.185 0.174 0.411 0 0.83-0.399 1.27-0.623 0.684zm29.1-1.89c-0.384-0.384 0.135-1.08 0.807-1.08 0.231 0 0.227 0.0716-0.0313 0.591-0.283 0.568-0.536 0.727-0.776 0.486zm24.5-2.37c-0.142-0.945 0.138-1.4 0.414-0.674l0.178 0.467 0.524-0.441c0.608-0.512 1.01-0.417 0.553 0.131-1.29 1.56-1.5 1.62-1.67 0.515zm-46.2 0.283c-0.0896-0.167-0.712-0.508-1.38-0.756-1.2-0.445-2.25-0.535-4.66-0.396-0.582 0.0335-0.688-0.0139-0.733-0.327-0.0417-0.292 0.0786-0.409 0.595-0.576 1.17-0.381 3.01-1.38 4.26-2.31 1.34-1 1.58-1.09 1.58-0.573 0 0.476-1.2 1.74-2.13 2.23-0.421 0.223-0.766 0.454-0.766 0.512 0 0.122 1.06 0.316 1.74 0.318 0.708 3e-3 2.28 0.767 2.61 1.27 0.161 0.245 0.263 0.465 0.227 0.487-0.0361 0.0224-0.315 0.128-0.62 0.236-0.48 0.169-0.576 0.154-0.717-0.109zm62.2-0.323c0.178-0.201 0.43-0.365 0.558-0.365 0.129 0 0.519-0.121 0.867-0.269l0.632-0.269-0.762-0.662c-0.419-0.364-0.974-0.75-1.23-0.858-0.441-0.183-0.599-0.48-0.374-0.705 0.0535-0.0535 0.57 0.166 1.15 0.487 1.12 0.622 2.05 1.49 1.94 1.82-0.103 0.308-1.49 0.948-2.34 1.07l-0.766 0.115zm-45-0.676c-0.719-0.25-1.35-0.502-1.41-0.561-0.0574-0.0586 0.377-0.543 0.966-1.08 0.863-0.782 1.08-0.911 1.13-0.665 0.0392 0.193-0.179 0.507-0.591 0.854l-0.653 0.548 0.421 0.162c1.5 0.578 1.87 0.772 1.87 0.983 0 0.317-0.2 0.288-1.73-0.244zm14.7 0.0854c-0.887-0.347-1.28-0.628-1.28-0.922 0-0.346 1.84-2.12 2.06-1.99 0.336 0.208 0.118 0.594-0.621 1.1-0.989 0.68-0.957 0.813 0.337 1.39 1.05 0.468 0.599 0.85-0.498 0.421zm6.58 0.0773c-0.294-0.186 0.0368-1.52 0.412-1.67 0.389-0.149 0.498 0.0779 0.294 0.618-0.123 0.325-0.128 0.547-0.0156 0.659 0.367 0.367-0.211 0.694-0.69 0.391zm-13.5-2.14c-1.14-0.407-1.19-0.52-0.603-1.46 0.285-0.458 0.662-0.963 0.837-1.12 0.301-0.272 0.32-0.272 0.32 4e-3 0 0.161-0.191 0.544-0.425 0.85-0.234 0.307-0.425 0.634-0.425 0.728 0 0.0939 0.306 0.291 0.68 0.438 0.394 0.155 0.68 0.38 0.68 0.536 0 0.323-0.218 0.328-1.06 0.0257zm32.4-2.56c-0.129-0.86-0.01-1.34 0.306-1.24 0.393 0.129 0.36 2-0.0354 2-0.0861 0-0.208-0.344-0.271-0.763zm-8.07-0.598c0-0.187 0.0908-0.34 0.202-0.34 0.111 0 0.375-0.163 0.587-0.362 0.372-0.35 0.913-0.344 0.913 0.01 0 0.207-1.19 1.03-1.49 1.03-0.119 0-0.216-0.153-0.216-0.34zm-37.3-0.843c-0.438-0.615-2.02-1.41-3.82-1.93-0.741-0.212-1.37-0.464-1.41-0.561-0.136-0.409 2.29-1.17 4.33-1.36 0.837-0.0772 1.54-0.251 1.94-0.479 0.698-0.399 0.944-0.318 0.657 0.218-0.268 0.501-1.67 1.17-2.75 1.31-1.67 0.217-1.73 0.307-0.491 0.87 1.35 0.614 2.12 1.25 2.36 1.92 0.156 0.447 0.139 0.509-0.142 0.509-0.176 0-0.481-0.226-0.678-0.503zm-8-0.287c-0.554-0.385-1.9-0.845-3.47-1.19-0.367-0.0805-0.698-0.238-0.734-0.35-0.0366-0.112 0.258-0.408 0.654-0.658 0.396-0.25 0.857-0.58 1.02-0.732 0.597-0.546 3.21-1.93 3.46-1.83 0.382 0.147 0.316 0.365-0.302 0.99-0.758 0.768-1.18 1.09-1.99 1.5-0.377 0.192-0.686 0.417-0.686 0.499 0 0.0822 0.582 0.361 1.29 0.621 1.32 0.48 1.5 0.642 1.4 1.23-0.0538 0.321-0.0794 0.318-0.651-0.0787zm32.9-0.261c-0.18-0.465-0.0208-1.07 0.299-1.13 0.375-0.0714 0.409 0.603 0.0547 1.08-0.22 0.299-0.253 0.304-0.354 0.0449zm6.79-0.212c-0.14-0.365 0.241-0.949 0.62-0.949 0.418 0 0.419 0.31 4e-3 0.808-0.372 0.446-0.496 0.474-0.623 0.141zm-13.2-0.892c-0.389-0.389 0.275-1.36 0.734-1.08 0.209 0.129 0.202 0.198-0.0464 0.473-0.16 0.177-0.291 0.411-0.291 0.521 0 0.218-0.218 0.265-0.397 0.0858zm-11.5-2.41c0-0.0762-0.459-0.684-1.02-1.35-0.561-0.667-1.02-1.28-1.02-1.37 0-0.0884 0.517-0.201 1.15-0.251 0.632-0.0496 1.3-0.116 1.48-0.147 0.208-0.0353 0.356 0.0526 0.394 0.234 0.0482 0.233-0.112 0.313-0.805 0.405-0.476 0.0632-0.91 0.187-0.965 0.276-0.0549 0.0888 0.0906 0.366 0.323 0.616 0.707 0.759 1.06 1.73 0.635 1.73-0.0936 0-0.17-0.0624-0.17-0.139zm7.83-1.39c-0.442-0.442-1.24-2.03-1.15-2.28 0.0512-0.134 0.471-0.169 1.33-0.11 1.02 0.0694 1.26 0.14 1.31 0.386 0.0511 0.269-0.0435 0.289-0.892 0.189-1.1-0.13-1.18 0.0133-0.553 0.959 0.731 1.09 0.701 1.6-0.0499 0.853zm-17.9-0.823c-0.323-0.918-1.28-2.46-2.19-3.51-0.86-1-3.15-2.97-4.11-3.53-1.05-0.614-2.07-2.15-1.36-2.06 0.282 0.0363 4.6 1.63 4.87 1.8 0.094 0.0581 1.08 0.343 2.19 0.632 1.49 0.39 2.31 0.514 3.13 0.476 0.916-0.0417 1.12-0.0018 1.17 0.225 0.0412 0.201-0.149 0.327-0.708 0.468-1.17 0.295-2.74 0.225-4.61-0.206l-1.7-0.391 1.21 1.2c1.49 1.48 2.61 3.61 2.62 4.98 0.0031 0.626-0.264 0.581-0.498-0.0841zm37.2-0.327c0-0.459 0.11-0.98 0.246-1.16 0.243-0.327 0.253-0.326 0.891 0.01 0.355 0.187 0.671 0.474 0.703 0.638 0.0702 0.366-0.401 0.403-0.54 0.0425-0.188-0.489-0.554-0.255-0.714 0.456-0.234 1.04-0.586 1.05-0.586 0.0157zm-10.1 0.43c-0.194-0.151-0.303-0.536-0.34-1.21l-0.0552-0.991 0.5 0.1c0.74 0.148 2.31 0.9 2.31 1.11 0 0.295-0.735 0.196-1.19-0.161-0.667-0.522-0.828-0.428-0.884 0.519-0.0464 0.775-0.0794 0.837-0.336 0.638zm18.6-2.49c0.133-1.18 0.148-1.17-0.835-0.433-0.673 0.505-1.45 0.801-1.45 0.556 0-0.311 0.937-1.08 2.02-1.66 1.18-0.63 1.16-0.661 0.852 1.1-0.102 0.588-0.306 1.17-0.452 1.29-0.238 0.197-0.253 0.107-0.144-0.86zm-37.9-0.463c-0.147-0.147-0.309-0.472-0.36-0.723-0.0512-0.251-0.164-0.724-0.251-1.05-0.222-0.839-2.81-5.12-3.32-5.5-0.461-0.34-0.491-0.424-0.274-0.767 0.2-0.316 0.838 0.0303 2.47 1.34 1.41 1.13 3.1 2.21 3.47 2.21 0.448 0 1.4 0.548 1.4 0.807 0 0.42-1.31 0.173-2.74-0.515-0.69-0.333-1.28-0.581-1.31-0.551-0.03 0.03 0.181 0.521 0.469 1.09 0.8 1.58 1.32 3.93 0.872 3.93-0.0869 0-0.278-0.12-0.425-0.267zm20.7-2.79c0-0.298 1.14-2.47 1.41-2.7 0.29-0.24 0.556 0.0949 1.03 1.29 0.518 1.32 0.244 1.76-0.323 0.517-0.18-0.392-0.403-0.735-0.497-0.762-0.0936-0.0274-0.4 0.344-0.68 0.826-0.487 0.835-0.936 1.23-0.936 0.829zm-6.71-0.839c-0.0505-0.0817 0.136-1.1 0.414-2.25 0.278-1.16 0.551-2.34 0.606-2.62l0.1-0.51 0.344 0.424c0.411 0.506 1.15 1.94 1.34 2.59 0.121 0.423 0.105 0.445-0.191 0.26-0.178-0.111-0.494-0.523-0.702-0.916s-0.43-0.683-0.493-0.644c-0.0628 0.0388-0.323 0.914-0.579 1.94-0.432 1.74-0.606 2.1-0.838 1.73zm18.1-0.657c-0.0415-0.0717-0.129-0.59-0.194-1.15-0.0654-0.561-0.16-1.19-0.209-1.4l-0.0906-0.381-0.535 0.38c-0.294 0.209-0.933 0.704-1.42 1.1-1.05 0.858-1.39 0.66-0.44-0.256 0.997-0.957 2.78-2.46 2.84-2.39 0.0855 0.106 0.442 2.93 0.442 3.5-1.7e-4 0.52-0.234 0.882-0.393 0.608zm9.62-1.36c-0.303-0.102-0.274-0.331 0.298-2.37 0.281-1 0.51-1.85 0.51-1.89 0-0.0417-0.274 0.133-0.609 0.389-0.88 0.671-3.15 1.2-3.53 0.825-0.167-0.167 0.224-0.569 0.553-0.569 0.157 0 0.933-0.308 1.72-0.684 1.16-0.55 1.64-0.908 2.49-1.83 0.786-0.855 1.1-1.1 1.25-0.952 0.146 0.144 0.0978 0.378-0.192 0.936-0.213 0.409-0.812 1.97-1.33 3.48-0.629 1.82-1.02 2.71-1.16 2.67zm-34.2-1.4c-0.116-0.186-0.213-0.817-0.216-1.4-3e-3 -0.586-0.116-1.98-0.252-3.11-0.311-2.57-0.314-2.47 0.0726-2.47 0.215 0 0.652 0.465 1.28 1.36 0.983 1.4 1.82 2.1 2.76 2.29 0.758 0.156 0.986 0.474 0.595 0.828-0.289 0.262-0.373 0.241-1.32-0.326-0.555-0.333-1.2-0.777-1.43-0.985-1.12-1-1.06-1.12-0.923 1.65 0.102 2.09 0.0823 2.5-0.117 2.5-0.131 0-0.334-0.152-0.45-0.338zm-7.53-1.64c0-0.527-0.206-1.28-0.62-2.25-0.629-1.48-0.942-2-3.03-5.02-1.23-1.78-1.92-3.24-1.61-3.43 0.198-0.123 0.113-0.188 2.47 1.91 3.21 2.85 4.67 3.79 5.88 3.8 0.778 0.0047 1.16 0.146 1.16 0.427 0 0.499-1.67 0.567-2.86 0.116-0.821-0.312-2.63-1.45-3.19-2.02-0.367-0.367-0.387-0.414 0.847 1.99 0.552 1.08 1.18 2.49 1.39 3.15 0.342 1.07 0.356 1.24 0.138 1.66-0.358 0.693-0.574 0.573-0.574-0.32zm20.5-2.87c-0.677-0.353-0.893-0.674-1.28-1.91-0.185-0.585-0.44-1.26-0.567-1.5-0.223-0.425-0.241-0.397-0.596 0.928-0.201 0.752-0.482 1.64-0.624 1.98-0.277 0.664-0.653 0.717-0.743 0.107-0.0299-0.203-0.121-0.369-0.202-0.369-0.0812 0 0.0834-0.51 0.366-1.13 0.56-1.24 1.17-3.4 1.17-4.17 0-0.735 0.441-0.594 0.749 0.24 0.147 0.398 0.468 1.37 0.714 2.17 0.495 1.6 0.925 2.53 1.56 3.36 0.47 0.618 0.281 0.721-0.539 0.293zm10.8-1.17c-0.0874-0.317-0.298-1.16-0.467-1.88l-0.308-1.31-0.29 0.563c-0.159 0.31-0.61 0.927-1 1.37-0.537 0.609-0.832 0.808-1.2 0.808-0.558 0-0.784-0.239-0.467-0.494 1.24-0.996 1.53-1.35 2.14-2.61 0.376-0.77 0.818-1.84 0.983-2.38 0.171-0.558 0.398-0.978 0.529-0.978 0.182 0 0.222 0.462 0.197 2.25-0.0296 2.06 6e-3 2.36 0.42 3.48 0.564 1.53 0.569 1.75 0.0354 1.75-0.329 0-0.451-0.121-0.576-0.576zm8.84-1.12c-0.275-1.28-0.227-3.03 0.154-5.61 0.186-1.26 0.339-2.37 0.339-2.46 5.2e-4 -0.0923-0.28 0.252-0.623 0.766-1.43 2.14-3.11 3.74-4.29 4.08-0.539 0.155-0.532 0.14 0.407-0.875 0.526-0.568 1.34-1.58 1.8-2.25 0.863-1.23 0.985-1.4 2.51-3.34 0.478-0.608 1.1-1.55 1.39-2.09 0.51-0.971 0.85-1.14 0.843-0.409-2e-3 0.205-0.195 1.02-0.43 1.82-0.731 2.48-1.14 5.16-1.25 8.25-0.0904 2.5-0.142 2.9-0.386 2.94-0.215 0.041-0.326-0.153-0.468-0.815zm-31.2-4.21c-0.0098-2.48-0.0635-2.92-0.709-5.91-0.825-3.82-0.879-4.2-0.606-4.29 0.16-0.0538 1.75 2.13 1.75 2.4 0 0.0944 2.42 4.34 2.97 5.21 0.266 0.421 0.826 1.21 1.24 1.76 0.516 0.674 0.704 1.05 0.586 1.17-0.613 0.613-2.13-1.13-3.65-4.2-1.11-2.25-1.17-2.33-1.08-1.53 0.254 2.11 0.293 6.47 0.0648 7.22-0.425 1.4-0.562 0.963-0.573-1.82zm12.5-0.324c0-0.0613 0.28-1.23 0.622-2.59 0.342-1.37 0.939-4.05 1.33-5.96 0.388-1.91 0.787-3.5 0.885-3.54 0.104-0.0348 0.227 0.353 0.294 0.924 0.235 2.02 1.13 6 1.87 8.29 0.421 1.31 0.728 2.41 0.681 2.46-0.201 0.201-0.688-0.346-1.2-1.34-0.593-1.16-1.11-2.94-1.43-4.91-0.11-0.684-0.226-1.22-0.258-1.19-0.0316 0.0316-0.251 1.12-0.487 2.43-0.358 1.97-0.561 2.63-1.21 3.95-0.429 0.871-0.853 1.58-0.942 1.58-0.0886 0-0.161-0.0502-0.161-0.112zm23.8 78.2c-0.23-0.446-0.978-2.83-1.2-3.83-0.105-0.47-0.106-0.47-0.654-0.193-0.302 0.153-0.718 0.432-0.924 0.62l-0.375 0.342 1.65 1.76c0.908 0.969 1.67 1.76 1.7 1.76 0.0258 1e-3 -0.0618-0.208-0.195-0.466zm-47.7-4.25c0.3-0.538 0.843-1.38 1.21-1.86 0.364-0.487 0.661-0.96 0.661-1.05 0-0.233-0.926-0.866-1.51-1.03l-0.489-0.14-0.122 1.72c-0.0672 0.947-0.18 2.09-0.25 2.53-0.0706 0.446-0.109 0.812-0.0849 0.812 0.0239 0 0.289-0.44 0.589-0.978zm57.7-0.553c-0.1-0.187-0.22-0.34-0.267-0.34-0.0468 0-3e-3 0.153 0.097 0.34 0.1 0.187 0.22 0.34 0.267 0.34 0.0468 0 3e-3 -0.153-0.097-0.34zm4.72-9.13c-0.492-0.748-0.979-1.51-1.08-1.68-0.165-0.285-0.223-0.295-0.48-0.082-0.161 0.133-0.438 0.528-0.616 0.877l-0.324 0.635 1.65 0.823c0.91 0.452 1.67 0.816 1.7 0.808 0.0239-8e-3 -0.359-0.627-0.851-1.38zm-76.3-3.46c0.404-0.278 0.816-0.505 0.916-0.505 0.1 0 0.182-0.25 0.182-0.555 0-0.617-0.549-1.32-1.35-1.74-0.488-0.252-0.493-0.25-0.607 0.296-0.174 0.833-1.04 3.25-1.46 4.07l-0.371 0.727 0.978-0.894c0.538-0.491 1.31-1.12 1.71-1.4zm81.1-12.2c1.19-0.367 1.86-0.959 2.48-2.17 0.894-1.76 0.942-4.58 0.106-6.24-0.828-1.64-1.75-2.02-2.63-1.08-0.287 0.308-0.345 0.601-0.348 1.74-3e-3 1.65-0.256 2.27-0.412 1.02-0.375-3.02-0.751-3.57-2.66-3.91-2.38-0.426-4.72-0.217-4.53 0.406 0.0466 0.157 0.44 1.62 0.875 3.26 0.934 3.52 1.92 5.74 2.98 6.69 0.655 0.592 0.752 0.625 1.86 0.625 0.694 0 1.62-0.14 2.28-0.342zm12.6-2.04c0.224-2e-3 0.186-0.171-0.213-0.962-0.266-0.528-0.484-1.06-0.484-1.19 0-0.492 0.354-0.193 0.782 0.662 0.557 1.11 0.883 1.49 1.29 1.49 0.43 0 0.403-0.0896-0.282-0.925-0.327-0.4-0.594-0.872-0.593-1.05 1e-3 -0.243 0.216-0.102 0.867 0.57 0.476 0.491 0.944 0.893 1.04 0.893 0.0968 0 0.44-0.163 0.763-0.363l0.587-0.363-0.523-0.253c-0.73-0.353-1.56-1.32-2.32-2.7-0.961-1.75-1.82-2.83-2.61-3.27-0.814-0.454-0.736-0.558-1.14 1.5-0.325 1.66-1.05 4.06-1.32 4.4-0.191 0.235 0.0214 0.478 0.785 0.897 0.281 0.154 0.296 0.0997 0.191-0.693-0.0628-0.473-0.0673-0.86-0.01-0.86s0.289 0.364 0.514 0.808c0.608 1.2 1.22 1.64 2.06 1.47 0.187-0.0366 0.462-0.0677 0.612-0.069zm-8.72-12c1.12-2.68 0.345-4.56-2.2-5.34-0.971-0.295-1.41-0.341-2.33-0.242-1.34 0.144-1.51 0.29-3.41 2.95-1.46 2.04-2.72 3.52-3.52 4.13l-0.586 0.444 0.83 0.0983c2.63 0.311 5.37-0.865 7.63-3.27 0.707-0.753 0.891-0.876 0.893-0.599 5e-3 0.64-1.91 3.14-2.41 3.14-0.078 0-0.142 0.309-0.142 0.686 0 0.552 0.0746 0.716 0.383 0.84 2.55 0.682 3.89-0.586 4.87-2.84zm-12-8.3c1.51-1.83 2.16-5.72 1.32-7.97-0.579-1.55-0.43-1.5-4.52-1.31-1.96 0.0947-3.94 0.268-4.41 0.384l-0.851 0.212-0.0521 1.01c-0.0482 0.938 0.319 2.96 0.628 3.46 0.0732 0.118 0.851 0.482 1.73 0.808s1.94 0.796 2.37 1.04c0.997 0.583 2.26 1.77 2.65 2.51 0.345 0.64 0.486 0.619 1.14-0.166zm-2.02-4.24c-0.717-0.321-1.09-0.894-1.09-1.69 0-0.946 0.878-1.82 1.83-1.82 0.828 0 1.48 0.47 1.74 1.26 0.243 0.737 0.0949 1.31-0.483 1.86-0.574 0.55-1.31 0.689-2 0.379zm11.3 3.52c1-1.22 1.32-3.65 0.765-5.86-0.35-1.4-0.589-1.61-1.9-1.72l-1.06-0.0888v1.29l0.761-0.0858c0.696-0.0785 0.812-0.0346 1.36 0.514 0.678 0.678 0.777 1.33 0.334 2.19-0.289 0.56-1.27 1.07-1.76 0.919-0.281-0.0891-0.285-9e-3 -0.0794 1.31 0.409 2.62 0.383 2.53 0.738 2.34 0.175-0.0939 0.554-0.456 0.841-0.804zm1.43-8.91c-0.683-1.17-3.15-3.9-3.52-3.9-0.132 0-0.107 1.87 0.0395 2.97l0.113 0.846 1.53 0.284c2.27 0.422 2.21 0.429 1.84-0.206zm-18-0.581c3.4-0.525 6.12-0.685 7.56-0.444 0.603 0.101 1.13 0.15 1.17 0.11 0.196-0.196-1.43-2.69-2.94-4.51-2.09-2.52-2.17-2.54-4.04-1.05-1.61 1.28-2.32 2.08-3.2 3.62-0.396 0.691-0.903 1.54-1.13 1.89-0.433 0.677-0.48 0.814-0.278 0.808 0.0702-2e-3 1.35-0.193 2.85-0.424z"/></svg>
