<?xml version="1.0" encoding="UTF-8"?>
<svg version="1.1" viewBox="0 0 48 48" xmlns="http://www.w3.org/2000/svg">
 <path d="m24.6 4.95-0.0029 3.63e-4c-2.65 0.00126-5.09 0.531-6.94 1.4-6.89 2.53-11.9 8.94-12.4 16.6l-3.44 1.54-0.107 0.0665c-1.2 0.735-1.69 2.24-1.78 4.12-0.0864 1.95 0.418 4.35 1.53 6.85 0.998 2.25 2.57 4.22 4.26 5.51 1.63 1.27 3.39 1.88 4.81 1.34l0.0514 0.105 4.01-2.07c2.8 1.65 6.09 2.61 9.57 2.61 3.91 7e-6 7.56-1.19 10.6-3.23 0.362-0.146 0.727-0.315 1.09-0.522 1.85-1.06 3.65-2.9 5.01-5.26 1.31-2.28 1.96-4.63 1.96-6.64 0.183-1.05 0.289-2.13 0.289-3.24 0-0.168-0.0051-0.337-0.0095-0.505l2.16-0.877c0.0764-0.0268 0.151-0.0559 0.226-0.0881l0.0042-0.0017c0.156-0.0727 0.306-0.158 0.451-0.254l0.294-0.148-0.03-0.0564c1.12-0.885 1.69-2.4 1.76-4.18 0.0635-1.85-0.426-4.02-1.47-6.09v-3.6e-4c-1.86-3.74-5.01-6.35-7.81-6.35-0.559 0.00126-1.09 0.112-1.57 0.329l-0.0168 0.0073c-0.184 0.0868-0.36 0.192-0.526 0.311l-3.12 1.45c-0.176-0.099-0.349-0.201-0.526-0.295-0.412-0.341-0.89-0.655-1.44-0.931-1.78-0.898-4.22-1.45-6.89-1.45zm0.0104 0.43h0.0021c2.62 2.22e-4 5.01 0.539 6.68 1.4 1.7 0.861 2.7 2.01 2.7 3.24 0 0.977-0.639 1.93-1.77 2.74-0.332-0.282-0.852-0.598-1.61-0.802l0.0037-0.0101-0.239-0.0531c-0.295-0.0655-0.622-0.116-0.986-0.141-0.089-0.0058-0.178-0.0095-0.265-0.0104-8.36e-4 -8e-6 -0.0013 3.64e-4 -0.0029 3.64e-4v-3.64e-4h-8.36e-4v3.64e-4c-1.28-0.0138-2.4 0.468-2.45 0.493l-0.0058 0.0013-1.54 0.722v-0.0097l-0.245 0.115-0.0029 0.0013-2.94-1.27-0.0216-0.0051-0.0021-8.35e-4s-0.827-0.172-1.78-0.18l-0.298-0.0029 0.0081 0.0259c-0.526 0.0167-1.05 0.0898-1.54 0.278-0.522 0.197-1.1 0.581-1.41 0.864-1.2-0.827-1.9-1.81-1.9-2.8 0-1.21 1.05-2.37 2.81-3.22s4.22-1.37 6.81-1.37zm14.1 0.485c2.56-0.00581 5.64 2.49 7.48 6.14 1.02 2.06 1.5 4.17 1.44 5.98-0.0609 1.78-0.655 3.24-1.74 4.02l-0.121 0.0885v3.65e-4l-8.35e-4 8.35e-4c-0.133 0.089-0.272 0.167-0.417 0.234-0.0681 0.0293-0.137 0.0564-0.208 0.081l-0.0044 0.0013-2.05 0.831c-0.295-6.52-3.88-12.1-9.11-15.3l-0.0572-0.101 2.84-1.32 0.0132-0.00944c0.158-0.114 0.325-0.212 0.501-0.294l0.0125-0.00581c0.43-0.196 0.907-0.297 1.42-0.298zm-18.8 6.18c0.0572 0.202 0.115 0.451 0.168 0.752 0.119 0.681 0.144 1.16 0.147 1.51-0.368-0.104-0.689-0.206-0.99-0.306l-1.79-0.748c-0.119-0.0648-0.259-0.137-0.332-0.183 0.265-0.227 0.835-0.614 1.27-0.777 0.476-0.18 0.998-0.247 1.53-0.256zm0.435 0.0037c0.777 0.0313 1.41 0.159 1.43 0.163l2.51 1.09-2.56 1.26c-0.365-0.0594-0.718-0.133-1.07-0.214-0.0021-0.368-0.0277-0.89-0.154-1.61-0.0489-0.28-0.104-0.476-0.159-0.672zm8.73 0.116c0.0802 8.35e-4 0.161 0.0037 0.241 0.0095 0.141 0.0096 0.27 0.0263 0.398 0.0426 0.0894 0.0143 0.177 0.0296 0.263 0.0455-0.0844 0.255-0.169 0.539-0.226 0.848-0.0459 0.256-0.0677 0.551-0.0852 0.835-1.33 0.459-2.89 0.756-4.55 0.814l-0.0426-1.33 1.73-0.802c-0.0147 0.0066 0.017-0.0077 0.0531-0.0222 0.0358-0.0145 0.089-0.0352 0.158-0.0601 0.136-0.0496 0.332-0.115 0.568-0.178 0.414-0.11 0.953-0.21 1.51-0.204zm1.32 0.18c0.689 0.176 1.14 0.443 1.43 0.681-0.931 0.481-1.48 0.739-1.74 0.84 0.0175-0.241 0.0401-0.481 0.0756-0.681 0.0535-0.295 0.14-0.593 0.223-0.844zm-5.76 1.26 0.0371 1.17c-0.0668 8.36e-4 -0.133 0.0029-0.2 0.0029-0.677 0-1.33-0.0526-1.97-0.128zm-15.6 8.07c0.0614-0.0013 0.124-0.0013 0.185 3.65e-4 0.609 0.0177 1.25 0.205 1.9 0.522-0.071 0.116-0.168 0.302-0.259 0.635-0.139 0.509-0.225 1.29-0.0368 2.38 0.0677 0.392 0.201 0.768 0.377 1.13l-0.0318 0.0051 0.118 0.212c0.894 1.61 2.59 2.81 3.25 3.24l-0.0401 0.0161 0.216 0.0968c0.0297 0.0183 0.0328 0.02 0.0505 0.0307-0.0084 0.156-0.032 0.648 0 1.33 0.0375 0.81 0.147 1.77 0.489 2.44 0.0472 0.0923 0.0994 0.182 0.153 0.271 0.0192 0.0318 0.0393 0.0631 0.0594 0.0944 0.0275 0.0426 0.0555 0.0852 0.0844 0.127 0.94 1.39 2.57 2.34 2.57 2.34l0.0044 0.0029c-0.274 1.16-0.84 2.02-1.7 2.42-0.911 0.422-1.91 0.476-2.96 0.116-0.0927-0.0323-0.184-0.061-0.278-0.0998-0.035-0.0143-0.0705-0.0327-0.106-0.0476-0.111-0.0489-0.224-0.105-0.336-0.164 0.238-2.06-0.277-4.68-1.5-7.39-1.01-2.22-3.13-5.05-5.26-6.44 0.198-1.13 0.644-2.04 1.31-2.6l-0.0159-0.0252c0.182-0.149 0.376-0.28 0.589-0.379 0.358-0.166 0.752-0.256 1.18-0.265zm2.37 0.702c0.119 0.0635 0.481 0.282 0.948 0.631l1.72 1.56c0.196 0.214 0.396 0.443 0.598 0.694-0.485 0.194-1.06 0.411-1.73 0.639-0.526 0.179-0.986 0.294-1.39 0.37-0.188-0.36-0.327-0.735-0.394-1.12-0.18-1.04-0.0948-1.77 0.0304-2.23 0.0881-0.324 0.168-0.468 0.218-0.543zm26.8 0.0827c0.141-0.0058 0.279-0.0051 0.416 0.0021l0.0037 3.64e-4c0.535 0.0321 1.02 0.166 1.45 0.397 1.33 0.71 2.04 2.25 2.09 4.22 0.0459 1.98-0.585 4.39-1.91 6.68-1.33 2.31-3.09 4.1-4.85 5.09-1.77 1.02-3.51 1.26-4.85 0.548 0-7.6e-5 0-2.93e-4 -8.35e-4 -3.65e-4v-3.55e-4c-0.864-0.463-1.49-1.31-1.82-2.47 0.189 0.0013 0.463-0.0148 0.79-0.0827l0.0142 0.0404 0.157-0.0439c0.0255-0.0072 0.0273-0.0079 0.0044-0.0013 0.321-0.0873 0.677-0.227 1.04-0.446-0.0143 0.0084-0.0125 0.0081 0.0078-0.0044l0.034-0.0206 0.0426-0.0256v-8.36e-4l0.0598-0.0364-0.0104-0.0209c0.303-0.195 0.609-0.451 0.911-0.781l0.0185 0.0189 0.152-0.183c0.154-0.185 0.304-0.392 0.446-0.622 0.526-0.84 0.814-1.72 0.973-2.47 0.0044-0.0202 0.0076-0.0392 0.0117-0.0594 0.0145-0.0705 0.0292-0.142 0.0414-0.21 0.0077-0.0414 0.0127-0.0785 0.0196-0.119 0.0204-0.123 0.0378-0.241 0.0518-0.353 0.0459-0.355 0.0648-0.648 0.0702-0.857l0.0029 0.0013v-0.0756c0.0013-0.0794 8.35e-4 -0.133 0-0.178l0.0493-0.0259v-0.0058c0.0216-0.0095 0.0361-0.0153 0.0777-0.0354l0.0689-0.0337c0.631-0.3 2.34-1.27 3.32-3.32l0.1-0.209-0.0132-0.0051c0.116-0.267 0.221-0.551 0.307-0.857 0.439-1.53 0.0543-2.65-0.343-3.3 0.364-0.0927 0.722-0.157 1.06-0.17zm-1.47 0.287c0.361 0.551 0.768 1.58 0.344 3.07-0.0822 0.289-0.182 0.559-0.295 0.814-0.539-0.223-1.17-0.531-1.75-0.927-0.601-0.412-1.01-0.807-1.3-1.14zm-31.6 0.548c-0.0108 0.262-0.0195 0.526-0.0195 0.79 0 1.88 0.275 3.68 0.781 5.39 0.0145 0.0548 0.0246 0.108 0.0397 0.163 0.0271 0.0981 0.0585 0.197 0.0881 0.296 0.0635 0.213 0.131 0.426 0.206 0.639 0.0371 0.107 0.0752 0.214 0.115 0.321 0.0818 0.221 0.17 0.443 0.264 0.664 0.0394 0.0936 0.0764 0.186 0.118 0.28 0.139 0.314 0.286 0.631 0.446 0.944v3.64e-4c0.196 0.379 0.394 0.739 0.593 1.09 0.0689 0.12 0.14 0.229 0.208 0.346 0.132 0.222 0.264 0.443 0.396 0.648 0.0756 0.118 0.152 0.227 0.228 0.34 0.129 0.193 0.258 0.383 0.388 0.564 0.0756 0.104 0.151 0.202 0.228 0.303 0.131 0.173 0.262 0.341 0.393 0.501 0.0764 0.0927 0.152 0.181 0.229 0.27 0.132 0.152 0.265 0.3 0.398 0.439 0.0731 0.0768 0.146 0.152 0.218 0.225 0.14 0.14 0.279 0.272 0.418 0.397 0.0668 0.0601 0.133 0.12 0.199 0.178 0.149 0.128 0.299 0.245 0.446 0.356 0.0564 0.0422 0.113 0.0868 0.169 0.127 0.0394 0.028 0.079 0.0618 0.118 0.089 0.159 0.109 0.315 0.205 0.472 0.296l-0.0021 0.0172 0.104 0.0568c0.0292 0.0159 0.0581 0.0248 0.0873 0.0401 0.526 0.407 1.08 0.79 1.64 1.14l-3.49 1.8-0.0364-0.0744-0.152 0.0668c-0.0183 0.0081-0.0319 0.0149-0.0422 0.0192-1.26 0.531-2.94-0.0081-4.55-1.27-1.62-1.26-3.18-3.21-4.14-5.39-1.1-2.46-1.59-4.81-1.5-6.68 0.0831-1.88 0.631-3.26 1.79-3.89 0.216-0.144 0.209-0.134 0.216-0.144zm28.3 1.52c0.315 0.36 0.752 0.794 1.41 1.24 0.614 0.422 1.26 0.722 1.81 0.953-1.05 1.99-2.88 2.86-3.23 3l-2.9-1.6c0.823-1.4 1.83-2.63 2.92-3.6zm-27.6 0.522c1.99 1.36 4.02 4.08 4.97 6.18 1.17 2.58 1.67 5.09 1.49 7.05-0.593-0.361-1.2-0.852-1.81-1.49l-0.0084-0.0084c-0.185-0.195-0.372-0.406-0.559-0.626-0.0247-0.0294-0.0493-0.0568-0.0739-0.0868-0.167-0.202-0.335-0.422-0.501-0.644-0.0378-0.0509-0.0756-0.0986-0.114-0.151-0.156-0.214-0.311-0.446-0.468-0.681-0.0459-0.0698-0.0923-0.134-0.139-0.206-0.149-0.231-0.297-0.481-0.443-0.727-0.0505-0.0852-0.101-0.164-0.151-0.251-0.195-0.339-0.388-0.694-0.581-1.07-0.157-0.303-0.298-0.605-0.43-0.907-0.0372-0.084-0.0702-0.168-0.106-0.251-0.0965-0.229-0.189-0.459-0.273-0.685-0.029-0.0781-0.0564-0.156-0.084-0.234-0.0873-0.248-0.168-0.497-0.24-0.744-0.0143-0.0485-0.0294-0.0968-0.043-0.145-0.443-1.57-0.585-3.06-0.435-4.3zm8.94 0.209c0.576 0.76 1.11 1.6 1.58 2.47 0.145 0.276 0.277 0.555 0.405 0.831l-1.9 0.764c-0.205-0.126-0.911-0.572-1.69-1.28-0.548-0.493-1.11-1.1-1.51-1.77 0.39-0.079 0.818-0.185 1.31-0.354 0.718-0.244 1.3-0.472 1.81-0.677zm15.4 3.28 2.62 1.46-4.01 2.06c0.288-1.16 0.748-2.35 1.39-3.52zm-13.3 0.331c0.698 1.59 1.12 3.19 1.25 4.63-0.33 0.143-0.722 0.346-1.2 0.672-0.183 0.127-0.342 0.259-0.497 0.389-0.329-0.329-0.644-0.698-0.881-1.1-0.0402-0.0681-0.0798-0.136-0.116-0.206-0.29-0.564-0.412-1.51-0.451-2.29-0.0326-0.702-0.0058-1.21 8.36e-4 -1.33zm16.2 1.5c-0.0021 0.119-0.0081 0.276-0.0232 0.463-0.0798 0.848-0.324 2.17-1.06 3.36-0.0961 0.153-0.195 0.294-0.296 0.426-0.304-0.266-0.777-0.605-1.58-1.03-0.601-0.32-1.11-0.489-1.54-0.593 0.0175-0.102 0.0364-0.205 0.0568-0.308zm-4.76 2.99c0.426 0.0868 0.957 0.261 1.59 0.598 0.772 0.411 1.24 0.739 1.5 0.977-0.386 0.422-0.785 0.71-1.17 0.907l-0.493 0.211c-0.672 0.228-1.2 0.193-1.34 0.181l-0.0249-0.0021zm-10.2 0.481c8.35e-4 0.0097 0.0013 0.0199 0.0021 0.0296l0.137-0.0084-8.36e-4 0.0313-0.135 0.0078c0.0044 0.0777 8e-3 0.154 0.0108 0.231 0.0058 0.159 0.0079 0.315 0.0058 0.472l0.0948 8.36e-4 -3.64e-4 0.0122-0.0948-0.0013c-8.36e-4 0.0702-0.0029 0.141-0.0051 0.209l0.0927 0.0037-8.35e-4 0.0273-0.0923-0.0037c-0.0086 0.225-0.0258 0.443-0.0509 0.652l0.121 0.0145-3.59e-4 0.0037-0.121-0.0145c-0.0082 0.0689-0.0173 0.137-0.0273 0.205l0.131 0.0196-0.0101 0.0084-0.123-0.0181c-0.0072 0.0485-0.0154 0.0957-0.0236 0.143l-0.0091 0.0081c-0.156-0.0977-0.768-0.501-1.4-1.09 0.14-0.116 0.292-0.234 0.455-0.346 0.404-0.28 0.752-0.472 1.04-0.601z"/>
</svg>
