<svg version="1.1" viewBox="0 0 56 56" xmlns="http://www.w3.org/2000/svg"><path d="m28 0a28 28 0 0 0-28 28 28 28 0 0 0 28 28 28 28 0 0 0 28-28 28 28 0 0 0-28-28zm0 4a24 24 0 0 1 9.7461 2.0859 18 18 0 0 0-1.7461-0.085938 18 18 0 0 0-18 18 18 18 0 0 0 18 18 18 18 0 0 0 15.391-8.707 24 24 0 0 1-23.391 18.707 24 24 0 0 1-24-24 24 24 0 0 1 24-24zm8 4a16 16 0 0 1 16 16 16 16 0 0 1-16 16 16 16 0 0 1-16-16 16 16 0 0 1 16-16zm0 4a12 12 0 0 0-12 12 12 12 0 0 0 12 12 12 12 0 0 0 12-12 12 12 0 0 0-12-12z"/></svg>
