<?xml version="1.0" encoding="UTF-8"?>
<svg version="1.2" viewBox="0 0 48 48" xmlns="http://www.w3.org/2000/svg">
 <path d="m47.7 23-5.89-1.1c-0.143-0.0269-0.3-0.162-0.349-0.3l-1.81-4.21c-0.0674-0.13-0.0545-0.334 0.0287-0.456l3.43-5c0.0821-0.12 0.066-0.304-0.0376-0.407l-4.29-4.29c-0.104-0.104-0.286-0.12-0.407-0.0376l-5.09 3.49c-0.12 0.0828-0.327 0.0975-0.458 0.033l-4.09-1.67c-0.139-0.0459-0.274-0.201-0.301-0.345l-1.13-6.1c-0.0265-0.144-0.168-0.261-0.314-0.261h-6.07c-0.146 0-0.288 0.118-0.314 0.261l-1.13 6.1c-0.0272 0.144-0.162 0.299-0.301 0.345l-4.09 1.67c-0.131 0.0645-0.338 0.0498-0.458-0.033l-5.09-3.49c-0.121-0.0828-0.304-0.066-0.407 0.0376l-4.29 4.29c-0.103 0.104-0.12 0.287-0.0376 0.407l3.43 5c0.0825 0.121 0.0954 0.326 0.0283 0.456l-1.81 4.21c-0.048 0.138-0.205 0.273-0.349 0.3l-5.89 1.1c-0.144 0.0272-0.261 0.169-0.261 0.315l3.59e-4 6.07c0 0.146 0.118 0.289 0.261 0.315l5.75 1.07c0.144 0.0262 0.298 0.163 0.341 0.302l1.79 4.48c0.0642 0.132 0.0491 0.337-0.0341 0.458l-3.27 4.76c-0.0825 0.12-0.0656 0.304 0.0376 0.408l4.29 4.29c0.103 0.103 0.286 0.12 0.407 0.0376l4.67-3.21c0.12-0.0825 0.322-0.0889 0.448-0.0154l2.06 1.1c0.131 0.0667 0.283 0.0104 0.339-0.125l4.25-10.3c0.0563-0.135 0-0.308-0.125-0.384l-0.516-0.316c-0.0954-0.0581-0.225-0.158-0.326-0.25-1.86-1.19-3.1-3.28-3.1-5.65 0-3.7 3-6.71 6.71-6.71s6.71 3 6.71 6.71c0 2.37-1.23 4.46-3.1 5.65-0.101 0.0918-0.231 0.192-0.326 0.25l-0.516 0.316c-0.124 0.0764-0.181 0.249-0.125 0.384l4.25 10.3c0.0559 0.135 0.208 0.191 0.339 0.125l2.06-1.1c0.126-0.0735 0.328-0.0674 0.448 0.0154l4.67 3.21c0.12 0.0821 0.304 0.0652 0.407-0.0376l4.29-4.29c0.104-0.104 0.12-0.287 0.0376-0.408l-3.27-4.76c-0.0825-0.12-0.0979-0.326-0.0337-0.458l1.79-4.48c0.0441-0.139 0.197-0.276 0.341-0.302l5.75-1.07c0.143-0.0262 0.261-0.169 0.261-0.315l7.17e-4 -6.07c3.59e-4 -0.147-0.117-0.288-0.261-0.315" fill="#000000" stroke-width=".359"/>
</svg>
