<?xml version="1.0" encoding="UTF-8"?>
<svg version="1.1" viewBox="0 0 48 48" xmlns="http://www.w3.org/2000/svg">
 <path d="m22.6 5.13e-7c-4.05 0-7.36 3.31-7.36 7.36 0 1.26 0.321 2.45 0.883 3.49-0.715-0.167-1.46-0.264-2.22-0.264-5.4 0-9.79 4.4-9.79 9.79s4.4 9.79 9.79 9.79c1.16 0 2.28-0.215 3.31-0.589-0.866 1.72-1.37 3.65-1.37 5.7 0 7.01 5.7 12.7 12.7 12.7 7.01 0 12.7-5.7 12.7-12.7 0-7.01-5.7-12.7-12.7-12.7-1.98 0-3.84 0.466-5.51 1.27 0.411-1.08 0.646-2.24 0.646-3.46 0-2.12-0.689-4.09-1.84-5.7 0.246 0.0251 0.496 0.038 0.749 0.038 1.62 0 3.12-0.535 4.34-1.43 0.177 3.43 3.02 6.17 6.49 6.17 3.58 0 6.51-2.93 6.51-6.51 0-0.918-0.194-1.79-0.54-2.59 0.0999 0.0074 0.195 0.0302 0.297 0.0302 2.27 0 4.14-1.86 4.14-4.14 0-2.27-1.86-4.14-4.14-4.14-2.27 0-4.14 1.86-4.14 4.14 0 0.195 0.0314 0.382 0.058 0.57-0.685-0.246-1.42-0.388-2.19-0.388-1.28 0-2.47 0.376-3.47 1.02 4.87e-4 -0.0349 0.0053-0.0688 0.0053-0.104 0-4.05-3.31-7.36-7.36-7.36zm0 1.95c3 0 5.41 2.41 5.41 5.41 0 3-2.41 5.41-5.41 5.41-3 0-5.41-2.41-5.41-5.41 0-3 2.41-5.41 5.41-5.41zm17.1 2.13c1.22 0 2.19 0.969 2.19 2.19 0 1.22-0.969 2.19-2.19 2.19-1.22 0-2.19-0.969-2.19-2.19 0-1.22 0.969-2.19 2.19-2.19zm-6.27 4.32c2.53 0 4.56 2.03 4.56 4.56 0 2.53-2.03 4.56-4.56 4.56-2.53 0-4.56-2.03-4.56-4.56 0-2.53 2.03-4.56 4.56-4.56zm-19.5 4.14c4.35 0 7.85 3.5 7.85 7.85 0 4.35-3.5 7.85-7.85 7.85-4.35 0-7.85-3.5-7.85-7.85 0-4.35 3.5-7.85 7.85-7.85zm14.7 12c5.96 0 10.8 4.81 10.8 10.8 0 5.96-4.81 10.8-10.8 10.8-5.96 0-10.8-4.81-10.8-10.8 0-5.96 4.81-10.8 10.8-10.8z"/>
</svg>
