<?xml version="1.0" encoding="UTF-8"?>
<svg id="a" version="1.1" viewBox="0 0 2048 2048" xmlns="http://www.w3.org/2000/svg">
 <title id="b">Parabola Official Icon (Default Color)</title>
 <path id="c" d="m1637.7 159.77c-52.815 5.046-108.89 14.322-167.38 26.693l-370.57 380.3c42.475 5.1105 81.347 13.545 116.82 25.437l421.13-432.43zm260.97 21.355-512.82 526.01c144.23 186.91 93.422 562.36-210.09 1181.1 224.55-245.12 1204.6-1463.3 756.2-1693-10.41-5.334-21.794-9.9214-33.288-14.132zm-683.35 74.113c-70.94 22.574-143.15 48.167-215.12 75.368l-245.26 251.54c56.26-9.1206 109.6-15.252 159.85-18.528l300.53-308.39zm-367.74 135.35c-447.46 184.06-847.59 408.88-847.59 408.88 237.7-89.079 452.37-155.67 639.7-195.65l207.89-213.23z" fill="#000000"/>
</svg>
