<?xml version="1.0" encoding="UTF-8"?>
<svg id="Parchlinux" xmlns="http://www.w3.org/2000/svg" viewBox="0 0 512 512">
  <g id="Parchlinux-2" data-name="Parchlinux">
    <path id="Parchlinux-3" data-name="Parchlinux" d="m251.3,489.7c-40.3-10.9-77.9-45.1-107.8-98.3l-6.7-11.8,7.2-12.9c10.2-18.3,29.1-42.8,49.5-64.3,9.6-10.2,17.3-18.7,17-19s-19.4,11.9-42.4,27.2c-23,15.3-42.6,27.8-43.5,27.8-1.8,0-4.6-9.5-8.5-28.2-1.3-6.6-2.4-27.2-2.4-45.9.1-37.2,4-62,14.5-91.1,6.7-18.6,20.7-46.9,23.3-46.9,1,0,15.5,6.5,32.2,14.4,16.6,7.9,31.2,14.4,32.3,14.4s-4.8-7.5-13.1-16.6-19.6-21.6-25.2-27.8l-10-11.2,17.2-17.7c29.5-30.2,62.6-49.3,102-58.7,15.5-3.7,23.2-5.2,48.3-5,15.9.6,32.6,4.2,38.2,5.6l9.9,2.5-16.5,1.3c-21.7,2.9-36.1,8.6-49.9,23.2-12.4,13.1-17.7,23-21.1,39.2-3.9,19,.3,41.5,12.3,65.2,2.6,5,13.9,23.5,25.3,41.1,11.4,17.5,26.2,42.5,32.9,55.4l12.2,23.5-4.8,3.8c-2.7,2.1-17.8,12.7-33.6,23.7-15.9,11-29.2,20.2-29.7,20.6-3.6,2.8,5.5,2.1,30.9-2.2q48.7-8.2,50-4c7.1,23.1,9.4,68.3,4.4,87-11,41.3-45,74.9-86.4,85.5-15.1,3.9-43.9,4-58,.2h0Z"/>
  </g>
</svg>