<?xml version="1.0" encoding="UTF-8" standalone="no"?>
<svg
   width="512"
   height="512"
   id="svg3037"
   version="1.1"
   sodipodi:docname="loro.svg"
   inkscape:version="1.1 (c68e22c387, 2021-05-23)"
   xmlns:inkscape="http://www.inkscape.org/namespaces/inkscape"
   xmlns:sodipodi="http://sodipodi.sourceforge.net/DTD/sodipodi-0.dtd"
   xmlns="http://www.w3.org/2000/svg"
   xmlns:svg="http://www.w3.org/2000/svg"
   xmlns:rdf="http://www.w3.org/1999/02/22-rdf-syntax-ns#"
   xmlns:cc="http://creativecommons.org/ns#"
   xmlns:dc="http://purl.org/dc/elements/1.1/">
  <sodipodi:namedview
     id="namedview7"
     pagecolor="#ffffff"
     bordercolor="#666666"
     borderopacity="1.0"
     inkscape:pageshadow="2"
     inkscape:pageopacity="0.0"
     inkscape:pagecheckerboard="0"
     showgrid="false"
     inkscape:zoom="1.1338568"
     inkscape:cx="326.31987"
     inkscape:cy="309.56291"
     inkscape:window-width="1920"
     inkscape:window-height="1020"
     inkscape:window-x="0"
     inkscape:window-y="32"
     inkscape:window-maximized="1"
     inkscape:current-layer="svg3037" />
  <defs
     id="defs5498" />
  <metadata
     id="metadata5594">
    <rdf:RDF>
      <cc:Work
         rdf:about="">
        <dc:format>image/svg+xml</dc:format>
        <dc:type
           rdf:resource="http://purl.org/dc/dcmitype/StillImage" />
      </cc:Work>
    </rdf:RDF>
  </metadata>
  <path
     style="fill:#000000;fill-opacity:1;fill-rule:nonzero;stroke:none;stroke-width:3.05833"
     d="M 52.576724,3.2844554 C 47.532071,5.5282807 34.0229,10.919968 22.505405,15.407616 10.987867,19.895227 1.4489105,24.382887 1.4489105,25.276044 c 0,1.056586 1.0744378,7.483019 2.515779,14.36697 1.4412992,6.883963 3.0660712,15.271059 3.603311,18.560531 0.7206427,3.289484 1.9785252,9.280278 2.8826405,13.462931 0.891021,4.041051 3.05299,14.225368 4.677777,22.449073 5.214974,28.134861 8.281073,33.374071 13.496062,22.743171 1.257898,-2.53793 4.140538,-8.2237 6.302549,-12.26477 2.16197,-4.19355 6.485952,-12.874729 9.722402,-19.453685 3.236435,-6.58985 6.485979,-12.417253 7.023205,-13.016334 1.624758,-1.655618 33.47809,8.528686 33.124337,10.467547 -0.366888,1.045666 6.472858,5.544196 15.304277,10.184304 20.1524,10.772498 21.77714,12.112278 36.17732,28.723068 6.486,7.78801 13.49609,15.87012 15.48775,18.25555 1.97852,2.2547 7.01007,8.08208 11.15064,12.87471 32.40363,37.55673 36.5442,41.7503 42.30952,42.79596 3.23641,0.59906 17.2828,1.50311 31.14577,1.94972 15.65806,0.59906 25.9177,1.64473 27.1756,2.69039 3.78674,3.44198 12.7885,26.33764 16.20839,40.70463 0.89098,3.74697 3.41986,13.76789 9.00173,33.66818 2.33233,8.68118 5.58186,20.80433 7.19353,26.93671 1.62479,6.14329 4.8612,16.91579 7.20665,23.94134 2.16199,7.03645 7.37697,23.49474 11.51752,36.66356 9.53895,30.3787 16.37872,52.22871 23.40193,74.0787 3.0661,9.43278 8.81828,27.23082 12.7885,39.65897 3.77367,12.26476 7.9142,24.8345 8.81829,27.67739 0.89104,2.84289 2.16201,6.74235 2.69922,8.53958 0.72067,2.09132 1.97855,2.98449 3.60334,2.38542 2.86954,-0.74066 2.86954,-3.28949 -1.08757,-59.55922 -1.07443,-14.81355 -1.7951,-28.58147 -1.7951,-30.67279 0,-5.99077 -3.24954,-52.07622 -4.50742,-63.29529 -1.79509,-16.31673 -3.23643,-17.80897 37.98554,37.85083 10.79686,14.36695 21.06959,27.53578 22.86473,29.18054 3.41985,2.99538 3.41985,2.99538 2.51576,-2.24383 -0.53724,-2.84292 -1.79512,-10.925 -2.88267,-17.95057 -1.07444,-7.03644 -3.05299,-18.40802 -4.49433,-25.44446 -1.44133,-7.03645 -3.41987,-18.40802 -4.49431,-25.43359 -1.80823,-12.12316 -4.69086,-27.68827 -9.00176,-50.13737 -1.08756,-5.83826 -2.16199,-12.86383 -2.69919,-15.70673 -0.72068,-5.69667 -4.14055,-24.99789 -6.30254,-36.36948 -0.72066,-3.88854 -0.90411,-7.03642 -0.55031,-7.03642 1.62475,0 9.00172,3.59445 20.34888,9.72684 6.48602,3.44198 19.79863,10.63091 29.70449,15.7176 9.89275,5.23924 23.21849,12.26479 29.70446,15.70675 31.49958,16.76328 41.7592,21.85001 42.66329,21.10935 0.53724,-0.4575 -5.39839,-7.34146 -13.14229,-15.11857 -7.9273,-7.92961 -17.82005,-18.40802 -22.32747,-23.18976 -4.49431,-4.79263 -19.79859,-20.65185 -34.01533,-35.3238 -14.40018,-14.81356 -34.56567,-35.61791 -45.00874,-46.23795 -10.44308,-10.7725 -28.61692,-29.4855 -40.50133,-41.59777 -12.06786,-12.27566 -25.38049,-26.19606 -29.8879,-30.97777 -4.49432,-4.64013 -14.21673,-14.96608 -21.77712,-22.601594 -7.39011,-7.777095 -15.48776,-16.164191 -18.00353,-18.702097 -19.26138,-20.499354 -46.80386,-48.187666 -49.31963,-49.984887 -1.62476,-1.198163 -3.97018,-2.243817 -5.22808,-2.396302 -1.07444,0 -11.33408,-0.893182 -22.68127,-1.938848 -11.34717,-0.904076 -28.44657,-2.5488 -37.80209,-3.44197 -9.36864,-0.90405 -25.2101,-1.797219 -35.10288,-2.102215 C 117.01718,15.549205 69.30925,5.8223682 68.418214,1.6397108 67.514127,-1.9547567 63.190145,-1.5081758 52.576724,3.2844554 Z m 0,0"
     id="path58" />
</svg>
