<svg version="1.1" viewBox="0 0 56 56" xmlns="http://www.w3.org/2000/svg"><path d="m28 0a28 28 0 0 0-28 28 28 28 0 0 0 28 28 28 28 0 0 0 28-28 28 28 0 0 0-28-28zm0 6a22 22 0 0 1 22 22 22 22 0 0 1-22 22 22 22 0 0 1-22-22 22 22 0 0 1 22-22zm15.217 11.088c0-0.03031-0.16394 0.07412-0.36133 0.23242-0.50166 0.40233-1.0195 0.56384-2.4961 0.7793-1.3755 0.2007-2.0383 0.42983-2.2148 0.75977-0.06087 0.11372-0.27709 0.35122-0.47852 0.5332-0.20143 0.18198-0.39058 0.44177-0.42383 0.57422-0.08313 0.33122 0.20563 0.93381 0.75195 1.5645 0.61072 0.70501 0.91601 1.3319 0.91602 1.8867 0 0.39599-0.0441 0.49159-0.36914 0.80078-0.5574 0.53024-1.2563 0.72013-2.5977 0.71094-1.9555-0.01344-3.7881-0.52225-7.4043-2.0645-2.9635-1.2638-4.254-1.5797-5.5625-1.3398-0.70226 0.12874-1.7718 0.64753-2.3242 1.1211-0.8757 0.75064-2.5036 3.1301-3.5293 5.1738l-0.67578 1.3613-0.52734-0.54688c-0.85967-0.89349-1.127-1.2496-1.127-1.498 0-0.15411-0.05452-0.23828-0.15625-0.23828-0.12935 0-0.14976 0.07848-0.11133 0.47852 0.05051 0.52568 0.42739 1.1578 1.2109 2.0293l0.42383 0.47266-0.34961 1.1133c-0.19181 0.61489-0.40148 1.416-0.46484 1.7773-0.11099 0.63287-0.13734 0.68861-0.83398 1.416-0.83338 0.87018-0.94748 0.89951-1.9414 0.52539-0.82861-0.31189-2.1826-0.63477-2.6582-0.63477-0.44304 0-0.95703 0.22213-0.95703 0.41602 0 0.09257 0.14812 0.12839 0.54688 0.12305 0.44873-0.0059 0.82749 0.09887 2.0371 0.55469 1.9173 0.72248 2.0908 0.76696 2.5352 0.68359 0.2781-0.05219 0.52963-0.22383 1.0059-0.68359l0.63477-0.61523 0.18555 0.19726c0.24185 0.26779 1.1109 0.7045 1.8184 0.91016l0.56641 0.16406-0.4375 0.10938c-0.59647 0.15145-0.97565 0.44774-1.1895 0.92188-0.17653 0.39147-0.17772 0.40326 0 0.5332 0.23616 0.17268 1.9136 0.17777 2.25 0.0078 0.19749-0.09993 0.57752-0.63104 0.69727-0.9707 0.01683-0.04782 0.2359-0.0049 0.48438 0.08984 0.55241 0.21098 1.6058 0.1525 2.3516-0.13086 0.26618-0.10116 0.48633-0.15006 0.48633-0.10938 0 0.04063-0.19478 0.26314-0.43164 0.5-0.28522 0.28521-0.42969 0.51418-0.42969 0.67578 0 0.54021 0.01669 0.54688 1.3535 0.54688 0.90368 0 1.2472-0.02773 1.2773-0.11523v-0.0078c0.02271-0.0658 0.05327-0.87416 0.06836-1.8047 0.02495-1.5391 0.04535-1.7172 0.22656-1.9629 0.55437-0.75149 3.1981-1.8139 4.9004-1.9688l0.5-0.04687v0.29297c0 0.1622-0.20129 0.86547-0.45117 1.5586l-0.45898 1.2578-0.50586 0.11719c-0.57008 0.12757-1.0796 0.51273-1.2637 0.95703-0.22019 0.53158-0.12734 0.57422 1.1484 0.57422 1.3476 0 1.2451 0.05813 1.9609-1.2031 0.39174-0.69017 0.729-1.0894 1.8535-2.209l1.373-1.3672 0.41797 0.10938c0.84858 0.22697 4.1539 2.9731 4.5859 3.8086 0.15422 0.2982 0.12028 0.48724-0.15625 0.84766-0.22333 0.29109-0.23311 0.64787-0.01367 0.70312 0.37809 0.09512 2.0349 0.08004 2.2207-0.01953 0.10833-0.05796 0.19941-0.19786 0.19922-0.31445-1.87e-4 -0.11659-0.34604-0.81582-0.76562-1.5527-0.90968-1.5977-1.0355-1.8943-2.0723-4.9492-0.67709-1.995-0.79883-2.4627-0.79883-2.9805 0-1.0772 0.45278-1.9223 1.4961-2.7812 0.30013-0.24709 0.55743-0.52052 0.56836-0.60938 0.01092-0.08886 0.06413-0.36595 0.11523-0.61523 0.1003-0.48956 0.03389-1.033-0.16992-1.4141-0.07024-0.13149-0.3571-0.51828-0.64258-0.85547-0.64783-0.7652-0.76032-1.0213-0.54102-1.2637 0.0924-0.1021 0.2912-0.17773 0.46484-0.17774 0.50752 0 1.2766-0.27804 2.1406-0.77344 0.4523-0.25934 0.88556-0.4707 0.9707-0.4707 0.22274 0 0.50678-0.34318 0.84766-1.0254 0.16363-0.32748 0.30078-0.62009 0.30078-0.65039z"/></svg>
