<?xml version="1.0" encoding="UTF-8"?>
<svg version="1.1" viewBox="0 0 48 48" xmlns="http://www.w3.org/2000/svg">
 <title>icon/color/svg/pixelfed-icon-color</title>
 <desc>Created with Sketch.</desc>
 <path d="m22.8 0.0328c-12 0.199-22.8 10.9-22.8 23-0.463 11.4 8.16 22.5 19.5 24.5 9.3 1.9 19.8-2.1 24.7-10.3 2.43-3.75 3.67-8.19 3.71-12.6-0.123 6.8-6.98 12.7-13.8 11.5-3.84-0.663-7.27-3.33-8.99-6.8h-3.06l-2.67 2.55c-2.6 5.09-0.221 12.3 5.24 14.4 1.9 1.19 5.79 0.872 6.82 0.671-3.07 0.927-6.49 0.583-9.3-0.959 0.813 0.527 2.73 1.12 0.781 0.441-4.34-1.85-7.14-5.98-7.14-10.6l0.0094-0.483v-13.4c-2.79-0.701-6.01-0.0304-8.34 1.55-4.43 2.81-5.85 9.08-3.49 13.7-4.16-6.37-0.103-16.3 7.49-17.7 1.42-0.315 2.89-0.359 4.34-0.158v-0.338c0-2.31 1.93-4.18 4.31-4.18h3.34c-1-5.41-6.52-9.61-12.1-8.66-2.49 0.36-4.82 1.65-6.52 3.49 2.76-3.56 7.63-5.33 12.1-4.35-0.619-0.147-1.25-0.24-1.88-0.285 5.38 0.143 10 4.67 11.1 9.84h0.336c3.41 0 6.28 2.21 7.19 5.24 4.24-3.16 5.97-9.75 2.82-14.2-2.63-4.19-7.77-5.96-12.5-5.8-0.387-0.0157-0.732-0.0148-1.12-0.00841zm8.9 1.37c0.329 0.111 0.649 0.245 0.975 0.371-0.316-0.138-0.638-0.266-0.975-0.371zm0.975 0.371c6.73 2.92 9.36 12.8 4.33 18.4-0.864 1.03-1.92 1.93-3.1 2.63-0.418 2.92-2.62 5.28-5.52 6.01 0.96 1.74 2.25 3.28 4.17 4.01 4.64 2.49 11 0.838 13.7-3.73 1.04-1.59 1.68-3.46 1.73-5.37 0.0099 0.213 0.0127 0.426 0.0095 0.637 0.0561-5.43-1.66-10.9-5.19-15.1-2.63-3.34-6.14-6-10.1-7.56zm-27 6.67c-0.234 0.259-0.278 0.306 0 0z" fill="#000000" stroke-width=".965"/>
</svg>
