<?xml version="1.0" encoding="UTF-8"?>
<svg version="1.1" viewBox="0 0 48 48" xmlns="http://www.w3.org/2000/svg">
 <title>icon/color/svg/pixelfed-icon-color</title>
 <desc>Created with Sketch.</desc>
 <path d="m22.8 0.226c-11.9 0.197-22.6 10.8-22.6 22.8-0.459 11.3 8.09 22.3 19.3 24.3 9.23 1.88 19.6-2.08 24.5-10.2 2.41-3.72 3.64-8.12 3.68-12.5-0.122 6.75-6.92 12.6-13.7 11.4-3.81-0.658-7.21-3.3-8.92-6.75h-3.04l-2.65 2.53c-2.58 5.05-0.219 12.2 5.2 14.3 1.88 1.18 5.74 0.865 6.77 0.666-3.05 0.92-6.44 0.578-9.23-0.951 0.806 0.523 2.71 1.11 0.775 0.437-4.31-1.84-7.08-5.93-7.08-10.5l0.0093-0.479v-13.3c-2.77-0.695-5.96-0.0302-8.27 1.54-4.39 2.79-5.8 9.01-3.46 13.6-4.13-6.32-0.102-16.2 7.43-17.6 1.41-0.312 2.87-0.356 4.31-0.157v-0.335c0-2.29 1.91-4.15 4.28-4.15h3.31c-0.992-5.37-6.47-9.53-12-8.59-2.47 0.357-4.78 1.64-6.47 3.46 2.74-3.53 7.57-5.29 12-4.31-0.614-0.146-1.24-0.238-1.86-0.283 5.34 0.142 9.92 4.63 11 9.76h0.333c3.38 0 6.23 2.19 7.13 5.2 4.21-3.13 5.92-9.67 2.8-14.1-2.61-4.16-7.71-5.91-12.4-5.75-0.384-0.0156-0.726-0.0147-1.11-0.00834zm8.83 1.36c0.326 0.11 0.644 0.243 0.967 0.368-0.313-0.137-0.633-0.264-0.967-0.368zm0.967 0.368c6.68 2.9 9.28 12.7 4.3 18.3-0.857 1.02-1.9 1.91-3.08 2.61-0.415 2.9-2.6 5.24-5.48 5.96 0.952 1.73 2.23 3.25 4.14 3.98 4.6 2.47 10.9 0.831 13.6-3.7 1.03-1.58 1.67-3.43 1.72-5.33 0.0098 0.211 0.0126 0.423 0.0094 0.632 0.0557-5.39-1.65-10.8-5.15-15-2.61-3.31-6.09-5.95-10-7.5zm-26.8 6.62c-0.232 0.257-0.276 0.304 0 0z" fill="#000000" stroke-width=".957"/>
</svg>
