<?xml version="1.0" encoding="UTF-8" standalone="no"?>
<svg
   width="512"
   height="512"
   viewBox="0 0 135.46666 135.46667"
   version="1.1"
   id="svg8"
   xmlns="http://www.w3.org/2000/svg"
   xmlns:svg="http://www.w3.org/2000/svg"
   xmlns:rdf="http://www.w3.org/1999/02/22-rdf-syntax-ns#"
   xmlns:cc="http://creativecommons.org/ns#"
   xmlns:dc="http://purl.org/dc/elements/1.1/">
  <defs
     id="defs2" />
  <metadata
     id="metadata5">
    <rdf:RDF>
      <cc:Work
         rdf:about="">
        <dc:format>image/svg+xml</dc:format>
        <dc:type
           rdf:resource="http://purl.org/dc/dcmitype/StillImage" />
      </cc:Work>
    </rdf:RDF>
  </metadata>
  <g
     id="layer1"
     style="display:inline">
    <g
       style="display:inline;enable-background:new"
       id="g1063"
       transform="matrix(2.2577776,0,0,2.2577776,-510.81756,-501.22662)">
      <path
         id="circle1047"
         d="M 256.24795 222 A 30.000002 30.000002 0 0 0 226.24795 252 A 30.000002 30.000002 0 0 0 256.24795 282 A 30.000002 30.000002 0 0 0 286.24796 252 A 30.000002 30.000002 0 0 0 256.24795 222 z M 250.60052 229.28988 C 253.14848 229.2704 254.26788 229.89638 255.80392 230.87947 C 258.21406 232.46509 259.92653 234.93875 260.56078 237.79284 C 261.19499 240.64696 261.00487 242.86676 260.24377 244.45239 L 260.24377 244.57919 C 258.72161 247.81386 256.18453 250.41427 252.63277 251.68277 L 255.67712 259.61101 C 256.24794 261.06978 256.75529 262.59188 256.31136 263.98723 C 255.86738 265.38258 253.83767 265.82666 252.37894 264.30446 C 249.58824 261.32348 240.20129 242.54978 239.50365 241.15443 C 238.80598 239.75908 238.04498 238.61736 238.04498 237.22201 C 238.10838 235.12903 241.34301 232.97255 242.92863 231.89433 C 244.51426 230.8161 247.62217 229.3572 250.34944 229.29377 C 250.43467 229.29179 250.51833 229.29051 250.60052 229.28988 z M 247.85921 235.07098 C 245.88657 235.12504 246.96613 239.24359 247.36848 240.39317 C 247.81245 241.66167 249.01752 244.32557 250.34944 245.65745 C 250.66657 245.97458 250.98375 246.22827 251.3643 246.29169 C 251.74485 246.35509 252.50585 245.97465 252.82297 245.46725 C 253.1401 244.95985 253.2036 244.57939 253.2036 244.07199 A 8.1183936 8.1183936 0 0 0 253.07657 241.0274 C 252.50575 239.06123 251.30084 237.15865 249.71521 235.89015 C 249.39809 235.63645 249.01753 235.31914 248.57355 235.19229 C 248.30003 235.1031 248.06327 235.06539 247.85921 235.07098 z M 269.01064 240.1398 C 269.28014 240.14092 269.53549 240.16135 269.75748 240.20297 A 5.7082455 5.7082455 0 0 1 272.86524 241.72526 C 273.62631 242.42294 273.68977 243.18402 273.43607 244.13539 C 273.18237 245.08677 272.29444 247.11624 271.59677 248.57501 L 269.82088 251.9366 C 266.39593 258.02537 265.69815 258.65969 264.7468 258.27914 C 263.60516 257.83516 263.98581 251.74628 265.06403 244.32559 C 265.38115 242.29599 265.88846 241.2812 266.45929 240.7738 C 266.90524 240.3774 268.04812 240.13578 269.01064 240.1398 z M 264.20984 260.97125 C 265.62133 260.9677 266.22441 262.70681 265.88846 264.05063 C 265.76161 264.62145 265.44461 265.12899 264.93723 265.44612 C 264.42983 265.76324 263.22478 265.76311 262.5271 265.19229 C 261.82943 264.62146 261.70237 263.67029 261.89264 262.90919 C 262.08292 262.14811 262.71718 261.32337 263.60513 261.06967 C 263.82068 261.00278 264.02247 260.97172 264.20984 260.97125 z M 244.23234 269.99995 L 268.26357 269.99995 C 269.36291 269.99995 270.24797 270.88502 270.24797 271.98436 L 270.24797 272.01572 C 270.24797 273.11506 269.36291 273.99989 268.26357 273.99989 L 244.23234 273.99989 C 243.133 273.99989 242.24794 273.11506 242.24794 272.01572 L 242.24794 271.98436 C 242.24794 270.88502 243.133 269.99995 244.23234 269.99995 z " />
    </g>
  </g>
</svg>
