<svg width="400" height="400" fill-rule="evenodd" version="1.1" viewBox="0 0 113 113" xmlns="http://www.w3.org/2000/svg">
 <defs>
  <style type="text/css">.str0 {stroke:#1F1A17;stroke-width:0.2}
    .fil11 {fill:none}
    .fil12 {fill:#838281}
    .fil9 {fill:black}
    .fil10 {fill:url(#d)}
    .fil0 {fill:url(#c)}
    .fil5 {fill:url(#id2)}
    .fil3 {fill:url(#id3)}
    .fil2 {fill:url(#id4)}
    .fil4 {fill:url(#id5)}
    .fil6 {fill:url(#b)}
    .fil7 {fill:url(#a)}
    .fil1 {fill:url(#id8)}
    .fil8 {fill:url(#id9)}</style>
  <linearGradient id="d" x1="52.2" x2="-7.87" y1="88.4" y2="24.4" gradientUnits="userSpaceOnUse">
   <stop stop-color="#fff" stop-opacity=".00885" offset="0"/>
   <stop stop-color="#fff" stop-opacity=".784" offset="1"/>
  </linearGradient>
  <linearGradient id="c" x1="21.9" x2="189" y1="6.07" y2="295" gradientUnits="userSpaceOnUse">
   <stop stop-opacity=".392" offset="0"/>
   <stop stop-color="#fff" stop-opacity="0" offset="1"/>
  </linearGradient>
  <linearGradient id="b" x1="213" x2="138" y1="57.5" y2="26.3" gradientUnits="userSpaceOnUse">
   <stop stop-color="#fffdff" offset="0"/>
   <stop stop-color="#fff" stop-opacity="0" offset="1"/>
  </linearGradient>
  <linearGradient id="a" x1="89.2" x2="147" y1="14.9" y2="116" gradientUnits="userSpaceOnUse">
   <stop stop-color="#fff" offset="0"/>
   <stop stop-color="#fff" stop-opacity="0" offset="1"/>
  </linearGradient>
 </defs>
 <path class="fil9" d="m81.6 0.72c-4.67 0.129-9.5-0.012-14 1.34-12.1-2.46-25-0.81-36 4.73-6.16-2.4-13.2-1.1-19.2 1-4.38 1.69-9.37 4.26-10.3 9.34-2.14 9.12-1.41 18.7-0.287 27.9-0.33 4.24-1.22 8.64-0.944 13 0.283 20.5 13 40 31.5 48.7 18.6 9.18 42.3 6.64 58.5-6.38 15.5-11.9 23.7-32.4 20.7-51.7-0.922-6.47-3.01-12.8-6.13-18.5 4.76-5.46 5.06-13.6 3.2-20.3-0.859-3.88-4.16-6.55-8.01-7.17-6.21-1.57-12.7-1.88-19.1-1.93zm0.247 2.61c7.3 0.216 14.9 0.182 21.7 3.19 3.33 2.8 3.52 7.74 3.49 11.8-0.255 4.61-1.76 10.8-6.97 11.8-4.88 0.262-6.55-5.55-8.89-8.82-2.75-4.47-5.74-9.07-10-12.2-5.33 0.0529 1.66 4.36 2.74 6.26 4.4 4.85 6.48 11.4 11.2 15.9 2.31 2.87 6.75 0.308 8.62 1.08 9.41 17.9 7.17 41.1-5.52 56.8-11.5 14.9-31.3 22.7-49.8 19.7-19.9-2.81-37.2-18-42.8-37.2-2.47-8.28-2.86-17.2-1.15-25.6-1.13-9.22-1.91-18.7-0.0314-27.9 0.982-5.4 6.95-7.34 11.5-8.8 6.04-1.61 13.3-2.29 18.4 2.05 5.25 4.25 9.83 10.5 9.8 17.5 0.0107 4.42-5.04 6.31-8.67 4.79-6.62-1.91-13.8-4.88-20.6-1.91-2.07 0.441-7.88 4.23-3.74 5.47 4.78-4.41 11.9-4.87 17.8-2.78 4.84 1.39 10.9 4.27 15.3 0.284 4.63-4.5 2.36-11.7-0.494-16.6-2.29-3.89-5.39-7.36-9.17-9.84 10.4-4.77 22.3-5.98 33.5-3.5 4.43-1.53 9.24-1.42 13.9-1.5zm5.67 28.2c-6.4-0.279-11.3 7.12-8.56 12.9 2.34 6.29 11.7 7.66 15.7 2.29 4.52-4.99 1.34-13.9-5.3-15-0.616-0.126-1.24-0.189-1.87-0.188zm-57.9 6.77c-10-0.287-18.9 9.05-18.1 19.1 0.237 10 10 18.4 20 17.1 10-0.742 17.9-10.9 16.1-20.8-1.18-8.64-9.22-15.5-17.9-15.4zm5.02 9.49c6.05-0.278 10.5 7.08 7.32 12.3-2.63 5.4-11.1 5.81-14.2 0.685-3.8-5.28 0.407-13.2 6.9-13zm46.1 7.24c-8.93 2.43-17.8 5.15-26.7 7.7-2.97 1.6 0.00381 4.06 1.97 4.74 4.6 2.64 9.36 5.18 13.9 7.88 0.0794 6.91-7.72 11.5-14 9.75-4.18 0.48-6.27-7.21-9.71-4.2 0.757 5.28 7.66 7.95 12.6 8.02 6.34 0.119 12.7-4.18 14.3-10.5 6.99 6.08 19.4 3.82 23.2-4.81 1.76-2.2 1.9-10.1-2.2-6.59-0.0643 3.06-0.858 6.3-3.33 8.36-4.61 4.32-12.7 3.93-16.8-0.949 2.9-5.68 5.89-11.3 8.73-17 0.358-1.18-0.62-2.46-1.86-2.43z" stroke-width=".411"/>
</svg>
