<?xml version="1.0" encoding="UTF-8"?>
<svg width="400" height="400" fill-rule="evenodd" version="1.1" viewBox="0 0 112.89 112.89" xmlns="http://www.w3.org/2000/svg">
 <defs>
  <style type="text/css">.str0 {stroke:#1F1A17;stroke-width:0.2}
    .fil11 {fill:none}
    .fil12 {fill:#838281}
    .fil9 {fill:black}
    .fil10 {fill:url(#d)}
    .fil0 {fill:url(#c)}
    .fil5 {fill:url(#id2)}
    .fil3 {fill:url(#id3)}
    .fil2 {fill:url(#id4)}
    .fil4 {fill:url(#id5)}
    .fil6 {fill:url(#b)}
    .fil7 {fill:url(#a)}
    .fil1 {fill:url(#id8)}
    .fil8 {fill:url(#id9)}</style>
  <linearGradient id="d" x1="52.196" x2="-7.8656" y1="88.399" y2="24.444" gradientUnits="userSpaceOnUse">
   <stop stop-color="rgb(255, 255, 255)" stop-opacity=".0088496" offset="0"/>
   <stop stop-color="rgb(255, 255, 255)" stop-opacity=".78431" offset="1"/>
  </linearGradient>
  <linearGradient id="c" x1="21.865" x2="188.74" y1="6.0749" y2="295.1" gradientUnits="userSpaceOnUse">
   <stop stop-color="rgb(0, 0, 0)" stop-opacity=".39216" offset="0"/>
   <stop stop-color="rgb(255, 255, 255)" stop-opacity="0" offset="1"/>
  </linearGradient>
  <linearGradient id="b" x1="213.07" x2="138.26" y1="57.514" y2="26.319" gradientUnits="userSpaceOnUse">
   <stop stop-color="rgb(255, 253, 255)" offset="0"/>
   <stop stop-color="rgb(255, 255, 255)" stop-opacity="0" offset="1"/>
  </linearGradient>
  <linearGradient id="a" x1="89.161" x2="147.45" y1="14.942" y2="115.91" gradientUnits="userSpaceOnUse">
   <stop stop-color="rgb(255, 255, 255)" offset="0"/>
   <stop stop-color="rgb(255, 255, 255)" stop-opacity="0" offset="1"/>
  </linearGradient>
 </defs>
 <path class="fil9" d="m81.606 0.72042c-5.9301 0.0062-11.235 0.46026-13.633 1.1633-0.13651 0.040062-0.26258 0.10129-0.37386 0.17755-3.5908-0.72665-7.3056-1.1089-11.111-1.1089-8.936 0-17.379 2.1021-24.863 5.8382-1.4462-0.62548-2.9201-1.0251-4.3774-1.1415-4.4962-0.35917-8.5937 0.24424-12.011 1.2068-5.3624 1.5106-9.1589 4.0157-10.196 5.099-2.4085 1.7635-3.5899 6.2136-4.0544 11.405-0.7038 7.8673 0.1361 17.654 0.77677 21.642 0.021074 0.15873 0.071652 0.31138 0.14882 0.45298-0.72829 3.5876-1.1107 7.3018-1.1107 11.104 0 15.354 6.2352 29.253 16.312 39.317 10.081 10.067 24.002 16.293 39.375 16.293 15.373 0 29.292-6.2267 39.371-16.293 10.076-10.063 16.308-23.962 16.308-39.317 0-9.5714-2.423-18.58-6.6896-26.444 0.1124-0.11546 0.22249-0.23372 0.33032-0.35515 1.7927-2.0193 2.9293-4.8463 3.4918-7.8894 0.54909-2.9709 0.55531-6.1737 0.0944-9.0273-0.54885-3.3978-1.7824-6.3572-3.5861-7.9728-0.0407-0.038092-0.0842-0.075278-0.13067-0.10873-2.917-2.1057-9.1576-3.2629-15.811-3.7508-2.7389-0.20085-5.5657-0.29273-8.2612-0.28994zm0.24681 2.6129c2.5492 0.00661 5.2234 0.098824 7.8293 0.28994 6.1933 0.45414 11.911 1.4593 14.414 3.2217 1.3214 1.2069 2.2565 3.5949 2.7114 6.4108 0.41622 2.5765 0.41164 5.4642-0.0835 8.1431-0.48178 2.6067-1.4197 4.9893-2.8747 6.6282-0.98946 1.1145-2.2306 1.8839-3.7422 2.1273-3.3352 0.5371-5.2739-2.7336-7.9636-7.2734-2.3876-4.0298-5.3035-8.9463-10.228-13.318-1.974-1.423-3.7009 0.027154-2.6573 1.1918l0.01908 0.01808c5.221 4.331 8.1894 9.358 10.609 13.442 3.2183 5.4319 5.5351 9.3442 10.631 8.5236 1.0474-0.16868 2.0005-0.51039 2.8602-0.99296 3.9342 7.4015 6.1632 15.848 6.1632 24.813 0 14.637-5.9392 27.884-15.539 37.472-9.5969 9.585-22.859 15.514-37.513 15.514-14.654 0-27.918-5.9286-37.517-15.514-9.6007-9.5878-15.539-22.836-15.539-37.472 0-3.5951 0.35793-7.108 1.0417-10.502-0.36719-1.9559-0.5342-4.0708-0.63882-5.686-0.00144-0.01489-0.00222-0.02859-0.00366-0.04351-0.43868-4.6455-0.73619-11.191-0.23953-16.743 0.40983-4.5811 1.3151-8.3919 3.0526-9.5601 0.12141-0.08119 0.22413-0.1803 0.30854-0.2899 0.57457-0.74013 3.897-2.9247 8.9907-4.3596 2.5645-0.72242 5.5454-1.2257 8.802-1.2104 0.75154 0.00347 1.5184 0.035589 2.2976 0.097837 4.5937 0.3671 9.4889 4.246 12.885 8.9802 1.4026 1.955 2.5384 4.037 3.2813 6.0701 0.72376 1.981 1.0758 3.9095 0.94008 5.6027-0.14244 1.7772-0.84596 3.2915-2.2685 4.3089-2.493 1.7827-5.9916 0.68667-9.9962-0.56894-6.2405-1.9567-13.561-4.2486-21.379 1.638l8.3e-5 0.0019c-1.9576 1.3736-0.55972 3.3907 0.60244 2.9624 7.3295-6.0711 14.184-3.9243 19.996-2.1019 4.6699 1.4642 8.7497 2.7414 12.305 0.19933 2.1124-1.5107 3.1542-3.7008 3.3574-6.2369 0.16598-2.0709-0.24648-4.3715-1.0961-6.6971-0.8306-2.2734-2.0781-4.5756-3.608-6.708-2.0884-2.9109-4.7271-5.535-7.5788-7.3784 6.7031-3.0546 14.154-4.7547 22.003-4.7547 3.9492 0 7.7967 0.4333 11.499 1.2503 1.5658-0.67319 3.6717-0.90786 5.5075-1.1676l0.02048-0.00654c2.0917-0.18474 4.5823-0.30062 7.2522-0.31891 0.35842-0.00248 0.72109-0.00456 1.0853-0.00366zm5.6732 28.209c-5.1286 0-9.2884 4.1532-9.2884 9.2738 0 5.1205 4.1598 9.2737 9.2884 9.2737 5.1286 0 9.2884-4.1532 9.2884-9.2737 0-5.1205-4.1598-9.2738-9.2884-9.2738zm-57.919 6.7732c-10.027 0-18.159 8.1198-18.159 18.131 0 10.011 8.1327 18.127 18.159 18.127s18.159-8.1162 18.159-18.127c0-10.011-8.1327-18.131-18.159-18.131zm5.0163 9.4876c4.5963 4.2e-5 8.3265 3.7244 8.3265 8.3134 0 4.5891-3.7303 8.3134-8.3265 8.3134s-8.3265-3.7244-8.3265-8.3134c0-4.589 3.7303-8.3134 8.3265-8.3134zm46.145 7.2371c-0.22825 0-0.44654 0.04305-0.64973 0.11595l-25.865 7.5306c-0.0508 0.01262-0.09972 0.0269-0.14882 0.04347l-0.0073 0.0037-0.01452 0.0037-0.0037 0.0037c-0.74598 0.26385-1.2813 0.97241-1.2813 1.8084 0 0.79539 0.483 1.4768 1.1724 1.7685 0.0045 2e-3 0.0099 0.0016 0.01452 0.0037l15.92 8.9693v0.06887c0 2.7587-1.2266 5.2646-3.2123 7.0849-2.0232 1.8548-4.8325 3.0007-7.9454 3.0007-1.9634 0-3.8447-0.45689-5.4845-1.2937-1.6022-0.8177-2.9839-2.0006-3.9927-3.4681-0.01362-0.02217-0.02897-0.04376-0.04354-0.06525-0.31352-0.46243-0.84382-0.76827-1.4446-0.76827-0.96185 0-1.7423 0.77916-1.7423 1.7395 0 0.38601 0.12795 0.74058 0.34122 1.0292 1.3359 1.9539 3.171 3.5289 5.303 4.617 2.1382 1.0913 4.5622 1.6924 7.0634 1.6924 4.0107 0 7.655-1.5027 10.301-3.9284 1.9228-1.7626 3.3186-4.0096 3.9564-6.5304 2.5967 2.1483 6.0211 3.4464 9.7494 3.4464 4.0107 0 7.655-1.4991 10.301-3.9248 2.6837-2.4601 4.3411-5.8682 4.3411-9.6398 0-0.15968-0.0041-0.35367-0.01448-0.56533 2.06e-4 -0.01099 0-0.0216 0-0.03262 0-0.96033-0.78044-1.7395-1.7423-1.7395-0.96185 0-1.7422 0.77917-1.7422 1.7395 0 0.01505-3.75e-4 0.03214 0 0.04708 8.22e-4 0.0271 0.0053 0.05296 0.0073 0.07976 0.0058 0.12746 0.0073 0.28077 0.0073 0.47111 0 2.7587-1.2266 5.2646-3.2123 7.0849-2.0233 1.8548-4.8325 3.0007-7.9454 3.0007-2.9879 0-5.705-1.0584-7.7131-2.7941-0.41415-0.35798-0.79727-0.7437-1.147-1.156l8.5371-16.562c0.16508-0.2834 0.26134-0.61266 0.26134-0.96399 0-1.0605-0.86155-1.9207-1.9237-1.9207z" fill="#000000" stroke-width=".41135"/>
</svg>
