<svg clip-rule="evenodd" fill-rule="evenodd" stroke-linejoin="round" stroke-miterlimit="2" version="1.1" viewBox="0 0 658.15 656.98" xml:space="preserve" xmlns="http://www.w3.org/2000/svg"><defs><clipPath id="d"><rect width="906.67" height="1351.1"/></clipPath><clipPath id="c"><rect width="906.67" height="1351.1"/></clipPath><clipPath id="b"><rect width="906.67" height="1351.1"/></clipPath><clipPath id="a"><rect width="906.67" height="1351.1"/></clipPath></defs><path transform="translate(-125.79 -151.16)" d="m479.29 596.06 98.474-98.471 180.5 180.5-98.263 98.263z" clip-path="url(#a)"/><path transform="translate(-125.79 -151.16)" d="m482.55 151.16v222.19c38.786 8.609 65.561 38.357 75.279 76.88h226.11c-13.294-163.51-137.75-287.53-301.39-299.07z" clip-path="url(#b)"/><path transform="translate(-125.79 -151.16)" d="m428.27 151.44c-162.1 13.26-289.3 136.68-302.48 298.79l228.27 1e-3c9.272-36.764 37.631-65.683 74.21-75.67z" clip-path="url(#c)"/><path transform="translate(-125.79 -151.16)" d="m125.88 505.9c14.279 161.09 139.76 289.05 300.95 302.24v-229.4c-34.851-9.512-63.809-38.278-74.31-72.842z" clip-path="url(#d)"/></svg>
