<svg width="500" height="500" version="1.1" viewBox="0 0 500 500" xmlns="http://www.w3.org/2000/svg"><path d="m57.13 71.47-57.13 57.13v299.9h442.7l57.13-57.13v-299.9zm202 82.95c13.28 18.74 19.93 47.63 19.93 86.62 0 25.71-2.751 46.5-8.179 62.34-5.463 15.85-14.42 27.95-26.85 36.31l27.01 43.38-33.09 15.42-28.61-46.92c-4.071 1.285-10.61 1.929-19.61 1.929-33.42 0-56.69-8.996-69.92-26.99-13.18-18-19.74-46.46-19.74-85.34s6.678-67.73 20.06-86.62c13.38-18.85 36.56-28.27 69.57-28.27 33 2e-3 56.14 9.393 69.42 28.14zm58.03-11.72h34.71v46.6h44.35v29.89h-44.35v70.7c0 13.07 0.965 21.74 2.893 26.03s6.856 6.426 14.78 6.426l26.35-0.9643 1.605 27.95c-14.36 2.785-25.27 4.178-32.78 4.178-18.21 0-30.71-4.178-37.46-12.53-6.749-8.355-10.1-24.1-10.1-47.24v-74.55h-20.57v-29.89h20.57zm-168.9 34.7c-7.498 13.28-11.25 34.5-11.25 63.62 0 29.14 3.644 49.95 10.93 62.48 7.284 12.53 21.21 18.78 41.78 18.78s34.42-6.141 41.63-18.46c7.177-12.32 10.75-33.14 10.75-62.49s-3.714-50.67-11.07-63.94c-7.391-13.28-21.18-19.92-41.32-19.91-20.13 0.00667-33.94 6.645-41.45 19.92z" fill-rule="evenodd"/></svg>
