<?xml version="1.0" encoding="UTF-8"?>
<svg width="512" height="512" viewBox="0 0 512 512" xmlns="http://www.w3.org/2000/svg">
    <path id="Path" fill="#000000" fill-rule="evenodd" stroke="none" d="M 0 131.657166 L 58.514286 73.142853 L 512 73.142853 L 512 380.342834 L 453.485687 438.857147 L 0 438.857147 L 0 131.657166 Z M 243.712006 408.100586 L 277.613708 392.301727 L 277.577148 392.301727 L 249.929153 347.867432 C 262.656006 339.309692 271.835419 326.911987 277.430847 310.674286 C 282.989716 294.436584 285.805725 273.151978 285.805725 246.820587 C 285.805725 206.884583 279.003448 177.298279 265.398865 158.098297 C 251.794296 138.898285 228.095993 129.279999 194.304001 129.279999 C 160.511993 129.279999 136.777145 138.934845 123.062859 158.244568 C 109.348572 177.590851 102.509712 207.140564 102.509712 246.966858 C 102.509712 286.793152 109.238853 315.940552 122.733711 334.372559 C 136.265152 352.804565 160.109711 362.020569 194.340576 362.020569 C 203.556564 362.020569 210.249146 361.362305 214.418289 360.045715 L 243.712006 408.100586 Z M 335.177155 349.18399 C 342.089142 357.741699 354.88916 362.020569 373.540558 362.020569 C 381.220551 362.020569 392.411407 360.594299 407.113129 357.741699 L 405.467438 329.106293 L 378.477722 330.093719 C 370.358856 330.093719 365.312012 327.899414 363.337158 323.510864 C 361.362274 319.122284 360.374847 310.235413 360.374847 296.850281 L 360.374847 224.438873 L 405.79657 224.438873 L 405.79657 193.828583 L 360.374847 193.828583 L 360.374847 146.102844 L 324.827423 146.102844 L 324.827423 193.828583 L 303.762268 193.828583 L 303.762268 224.438873 L 324.827423 224.438873 L 324.827423 300.799988 C 324.827423 324.498291 328.265137 340.626282 335.177155 349.18399 Z M 151.881592 181.650055 C 159.5616 168.045471 173.714737 161.243195 194.341034 161.243195 C 214.967316 161.243195 229.08342 168.045471 236.653717 181.650055 C 244.187424 195.254639 247.99086 217.087769 247.99086 247.149475 C 247.99086 277.211182 244.333725 298.532349 236.982864 311.149719 C 229.595428 323.766846 215.406158 330.057129 194.341034 330.057129 C 173.275879 330.057129 159.013031 323.657135 151.55246 310.820557 C 144.091888 297.983765 140.361603 276.662628 140.361603 246.820343 C 140.361603 216.978058 144.201599 195.254639 151.881592 181.650055 Z"/>
</svg>
