<?xml version="1.0" encoding="UTF-8" standalone="no"?>
<!-- Created with Inkscape (http://www.inkscape.org/) -->

<svg
   width="220mm"
   height="220mm"
   viewBox="0 0 220 220"
   version="1.1"
   id="svg5"
   inkscape:version="1.2.2 (b0a8486541, 2022-12-01)"
   sodipodi:docname="qtile.svg"
   xmlns:inkscape="http://www.inkscape.org/namespaces/inkscape"
   xmlns:sodipodi="http://sodipodi.sourceforge.net/DTD/sodipodi-0.dtd"
   xmlns="http://www.w3.org/2000/svg"
   xmlns:svg="http://www.w3.org/2000/svg">
  <sodipodi:namedview
     id="namedview7"
     pagecolor="#ffffff"
     bordercolor="#666666"
     borderopacity="1.0"
     inkscape:pageshadow="2"
     inkscape:pageopacity="0.0"
     inkscape:pagecheckerboard="0"
     inkscape:document-units="mm"
     showgrid="false"
     width="220mm"
     inkscape:zoom="0.75723064"
     inkscape:cx="341.37552"
     inkscape:cy="452.30605"
     inkscape:window-width="1920"
     inkscape:window-height="1011"
     inkscape:window-x="0"
     inkscape:window-y="32"
     inkscape:window-maximized="1"
     inkscape:current-layer="layer1"
     inkscape:snap-page="true"
     inkscape:showpageshadow="2"
     inkscape:deskcolor="#d1d1d1" />
  <defs
     id="defs2">
    <rect
       x="138.90721"
       y="143.26299"
       width="136.07198"
       height="134.09091"
       id="rect3708" />
  </defs>
  <g
     inkscape:label="Layer 1"
     inkscape:groupmode="layer"
     id="layer1">
    <g
       aria-label=""
       transform="matrix(-1.3199682,1.3199682,-1.3199682,-1.3199682,608.291,128.95403)"
       id="text3706"
       style="font-weight:bold;font-size:85.3333px;line-height:1.25;font-family:'Font Awesome 5 Free';-inkscape-font-specification:'Font Awesome 5 Free Bold';letter-spacing:0px;word-spacing:0px;white-space:pre;shape-inside:url(#rect3708);display:inline;fill:#000000;fill-opacity:1">
      <path
         d="m 214.07986,150.57924 c -2.70417,-2.02813 -6.30974,-1.12675 -7.88717,1.57744 l -3.60557,6.30974 c -1.35209,2.47883 -0.67604,5.40836 1.35209,6.98578 9.91531,7.43647 15.32365,18.70388 15.54901,30.19662 0,21.40805 -17.35179,38.08379 -37.85844,38.08379 -21.18271,0 -38.08381,-16.90109 -37.85847,-37.85845 0,-12.39413 5.85905,-23.43616 15.32367,-30.42196 2.02813,-1.57742 2.70419,-4.50695 1.35209,-6.98578 l -3.60557,-6.30974 c -1.57743,-2.70419 -5.183,-3.60557 -7.88717,-1.57744 -14.19691,10.14065 -23.43617,26.81639 -23.21085,45.52027 0,30.64732 25.23898,55.88628 55.8863,55.66093 30.87264,0 55.88625,-25.01361 55.88625,-55.88628 0,-18.70386 -9.23926,-35.15427 -23.43617,-45.29492 z m -23.43619,47.09772 v -54.08351 c 0,-2.92951 -2.47881,-5.40834 -5.40833,-5.40834 h -7.21114 c -3.15487,0 -5.40836,2.47883 -5.40836,5.40834 v 54.08351 c 0,3.15486 2.25349,5.40834 5.40836,5.40834 h 7.21114 c 2.92952,0 5.40833,-2.25348 5.40833,-5.40834 z"
         id="path63138"
         style="fill:#000000;fill-opacity:1;stroke-width:1.35208" />
    </g>
  </g>
</svg>
