<?xml version="1.0" encoding="UTF-8"?>
<svg version="1.1" viewBox="0 0 48 48" xmlns="http://www.w3.org/2000/svg">
 <path d="m27.9 47.5c1.43-0.204 2.24-1.56 1.9-2.86l-0.816-2.99c-0.34-1.16-1.43-1.84-2.52-1.7-5.24 0.748-10.3-1.02-13.8-4.42-6.46-6.46-6.26-16.7-0.068-22.9 6.39-6.39 16.6-6.39 22.9-6e-6 3.74 3.74 5.31 8.84 4.56 13.8-0.136 1.09 0.544 2.18 1.7 2.52l2.99 0.816c1.29 0.34 2.65-0.476 2.86-1.9 1.22-7.35-1.02-15.2-6.73-20.7-9.25-9.25-24.5-9.25-33.7 0.068-9.32 9.32-9.32 24.4 9.1e-6 33.7 5.65 5.65 13.4 7.82 20.7 6.6zm-7.14-21.3 16.3 16.3c0.884 0.884 2.38 0.884 3.27 5e-6l2.18-2.18c0.952-0.952 0.884-2.38 5e-6 -3.27l-16.3-16.3c-0.952-0.952-2.31-0.952-3.27 6e-6l-2.18 2.18c-0.884 0.884-0.952 2.31 4e-6 3.27z"/>
</svg>
