<svg version="1.1" viewBox="0 0 48 48" xmlns="http://www.w3.org/2000/svg">
 <path d="m23.7 0.229c-2.19 0.134-3.89 1.62-5.77 2.59-4.24 2.44-8.47 4.89-12.7 7.33-2.27 1.15-2.47 3.73-2.38 5.94v16.8c-0.144 2.58 2.06 4.02 4.03 5.07 4.82 2.78 9.63 5.56 14.4 8.35 2 1.3 4.29 0.399 6.07-0.762 0.75-0.435 1.5-0.869 2.25-1.3 1.87 1.03 3.64 2.26 5.6 3.12 2.44 0.836 5.21 0.427 7.31-1.05 1.17-0.664 2.77-1.45 2.56-3.05-0.424-1.69-2.28-2.17-3.57-3.05-0.823-0.479-1.65-0.959-2.47-1.44 1.89-1.21 4.28-1.96 5.15-4.26 0.501-2.13 0.212-4.33 0.288-6.5-0.00851-4.7 0.0171-9.39-0.013-14.1-0.074-1.99-1.58-3.49-3.28-4.3-5.13-2.94-10.2-5.94-15.4-8.84-0.382-0.409-1.79-0.504-2.15-0.565zm-0.287 10.5c1.59-0.0673 2.8 1.13 4.16 1.79 2.09 1.21 4.18 2.42 6.27 3.63 1.77 1.02 1.2 3.18 1.3 4.85v7.62c-0.0293 2.05-2.12 2.63-3.54 3.55-2.2 1.27-4.4 2.55-6.6 3.82-1.74 0.973-3.3-0.476-4.76-1.24l-6.68-3.87c-1.8-1.15-1.2-3.27-1.31-5.03v-7.43c0.0401-2.06 2.12-2.63 3.54-3.56 2.2-1.27 4.4-2.55 6.6-3.82l0.778-0.283 0.239-0.0278z" stroke-width=".299"/>
</svg>
