<?xml version="1.0" encoding="UTF-8"?>
<svg version="1.1" viewBox="0 0 48 48" xmlns="http://www.w3.org/2000/svg">
 <path d="m23.7 0.229a4.75 4.76 0 0 0-0.814 0.107 4.75 4.76 0 0 0-0.384 0.0504 4.75 4.76 0 0 0-1.18 0.478l-16.1 9.29a4.75 4.76 0 0 0-2.38 4.13v18.6a4.75 4.76 0 0 0 2.38 4.12l16.1 9.3a4.75 4.76 0 0 0 2.38 0.637v9.05e-4a4.75 4.76 0 0 0 2.37-0.634l3.57-2.07 4.56 2.65c2.04 1.19 5.32 1.19 7.36 0l2.04-1.19c2.04-1.19 2.04-3.1 0-4.28l-4.53-2.64 3.06-1.77a4.75 4.76 0 0 0 2.38-4.12v-18.6a4.75 4.76 0 0 0-2.38-4.13l-16.1-9.29a4.75 4.76 0 0 0-0.18-0.0748 4.75 4.76 0 0 0-0.938-0.389 4.75 4.76 0 0 0-0.407-0.0612 4.75 4.76 0 0 0-0.737-0.111 4.75 4.76 0 0 0-0.056 0.00696 4.75 4.76 0 0 0-0.0556-0.00696zm-0.287 10.5a2.61 2.62 0 0 1 0.614 0 2.61 2.62 0 0 1 0.219 0.0313 2.61 2.62 0 0 1 0.763 0.278l8.83 5.11 9.05e-4 4.18e-4a2.61 2.62 0 0 1 8.69e-4 8.69e-4 2.61 2.62 0 0 1 0.951 0.955l0.0019-0.0013a2.61 2.62 0 0 1 0.0035 7e-3l-7e-3 0.0035a2.61 2.62 0 0 1 0.352 1.31v10.2a2.61 2.62 0 0 1-0.158 0.893 2.61 2.62 0 0 1-1.15 1.37l-8.83 5.11a2.61 2.62 0 0 1-0.776 0.283 2.61 2.62 0 0 1-0.216 0.0278 2.61 2.62 0 0 1-1.62-0.311l-8.83-5.11a2.61 2.62 0 0 1-1.31-2.26v-10.2a2.61 2.62 0 0 1 0.517-1.52 2.61 2.62 0 0 1 0.181-0.237 2.61 2.62 0 0 1 0.55-0.463 2.61 2.62 0 0 1 0.0635-0.0487l8.83-5.11a2.61 2.62 0 0 1 0.778-0.283 2.61 2.62 0 0 1 0.239-0.0278z" fill="#000000" stroke-width=".299"/>
</svg>
