<?xml version="1.0" encoding="UTF-8" standalone="no"?>
<svg
   xmlns:dc="http://purl.org/dc/elements/1.1/"
   xmlns:cc="http://creativecommons.org/ns#"
   xmlns:rdf="http://www.w3.org/1999/02/22-rdf-syntax-ns#"
   xmlns:svg="http://www.w3.org/2000/svg"
   xmlns="http://www.w3.org/2000/svg"
   width="512"
   height="512"
   id="svg3037"
   version="1.1">
  <defs
     id="defs8" />
  <metadata
     id="metadata5594">
    <rdf:RDF>
      <cc:Work
         rdf:about="">
        <dc:format>image/svg+xml</dc:format>
        <dc:type
           rdf:resource="http://purl.org/dc/dcmitype/StillImage" />
        <dc:title />
      </cc:Work>
    </rdf:RDF>
  </metadata>
  <g
     id="layer3"
     style="display:inline">
    <path
       style="fill:#000000"
       d="M 164.05664 0.005859375 L 164.06641 0.0078125 C 161.47732 0.08816147 158.68785 1.0437519 155.52539 3.5390625 C 147.77807 0.55151426 140.26604 -0.48641058 133.54883 5.5957031 C 123.17615 4.2502584 119.80577 7.028248 117.25195 10.269531 C 114.97496 10.222317 100.21279 7.9273966 93.443359 18.025391 C 76.431438 16.012374 71.054498 28.03201 77.146484 39.240234 C 73.672063 44.619009 70.072018 49.933563 78.197266 60.1875 C 75.322958 65.898558 77.106164 72.094134 83.876953 79.591797 C 82.090061 87.620257 85.60226 93.282794 91.902344 97.697266 C 90.724078 108.68373 101.97785 115.07139 105.33789 117.34766 C 106.62818 123.74918 109.3163 129.79085 122.16992 133.13086 C 124.28967 142.67087 132.01559 144.31803 139.49609 146.32031 C 114.77189 160.69185 93.569104 179.60014 93.712891 225.99609 L 90.091797 232.45703 C 61.742172 249.69715 36.234374 305.10952 76.119141 350.14844 C 78.724403 364.24671 83.093974 374.37257 86.984375 385.58008 C 92.802951 430.74132 130.77725 451.88778 140.79297 454.38867 C 155.46997 465.56828 171.10079 476.177 192.25391 483.60742 C 212.19451 504.17324 233.79841 512.01093 255.51953 511.99805 C 255.83797 511.99785 256.16195 512.00205 256.48047 511.99805 C 278.20159 512.01155 299.80478 504.17395 319.74609 483.60742 C 340.8985 476.177 356.53003 465.56828 371.20703 454.38867 C 381.22275 451.88785 419.19691 430.74132 425.01562 385.58008 C 428.90566 374.37257 433.27553 364.24671 435.88086 350.14844 C 475.76491 305.10595 450.25854 249.69129 421.9082 232.45117 L 418.28125 225.99023 C 418.42481 179.59785 397.22225 160.68956 372.49805 146.31445 C 379.97855 144.31259 387.70462 142.66544 389.82422 133.125 C 402.67777 129.78442 405.36841 123.74282 406.6582 117.3418 C 410.01881 115.06603 421.26999 108.67787 420.0918 97.691406 C 426.39174 93.276504 429.90416 87.611728 428.11719 79.583984 C 434.88798 72.08632 436.67155 65.893057 433.79688 60.181641 C 441.92334 49.931996 438.31715 44.617056 434.84766 39.238281 C 440.93535 28.030057 435.56328 16.01042 418.54492 18.023438 C 411.77764 7.9254422 397.02027 10.220364 394.73828 10.267578 C 392.18445 7.0262937 388.81409 4.2483053 378.44141 5.59375 C 371.7242 -0.48836407 364.21412 0.54948925 356.4668 3.5371094 C 347.2673 -3.7223404 341.17789 2.0966494 334.22461 4.296875 C 323.08649 0.6573497 320.54085 5.6437861 315.06836 7.6738281 C 302.92159 5.1070532 299.23121 10.695626 293.4082 16.59375 L 286.63281 16.458984 C 268.31179 27.255877 259.21063 49.241033 255.98438 60.542969 C 252.75661 49.238887 243.6768 27.253731 225.35938 16.458984 L 218.58594 16.59375 C 212.75578 10.695626 209.06474 5.1071247 196.91797 7.6738281 C 191.44548 5.6437861 188.90504 0.6573497 177.75977 4.296875 C 173.196 2.8529255 168.99905 -0.14751331 164.05664 0.005859375 z M 348.38477 12.976562 C 345.84099 16.121775 342.28714 19.191558 346.05664 22.804688 C 351.25228 19.510966 356.47916 16.221939 368.81836 13.880859 C 366.0377 17.027932 360.28988 20.175193 363.77539 23.322266 C 370.29873 20.792761 377.51499 18.956937 385.50195 17.890625 C 381.6775 21.083981 378.48842 24.212055 381.62305 26.685547 C 388.60422 24.505323 398.22077 21.567293 407.61914 24.097656 L 401.66992 30.177734 C 401.00965 30.991204 415.58547 30.810247 425.20703 30.953125 C 421.69569 35.904831 418.11588 40.684565 416.02539 49.189453 C 416.97896 50.17028 421.7466 49.625378 426.24219 49.189453 C 421.63243 59.041645 413.62661 61.528181 411.75781 65.744141 C 414.57418 67.908742 418.48155 67.344895 422.75195 65.873047 C 419.43341 72.814163 412.47218 77.570256 406.97266 83.203125 C 408.36331 84.204902 410.79149 84.803644 416.54297 84.109375 C 411.46178 89.591876 405.32402 94.604074 398.04883 99.111328 C 399.33719 100.62269 403.76708 100.56346 407.87695 100.66406 C 401.28708 107.21173 392.80647 110.60694 384.85742 114.89062 C 388.81964 117.63868 391.65151 116.99648 394.68555 116.95898 C 389.06356 121.64786 379.50364 124.08752 370.62891 126.91797 C 372.31673 129.58082 374.00494 130.30909 377.61328 131.05664 C 368.21992 136.33384 354.76531 133.92043 350.9707 136.61719 C 351.88678 139.26966 354.47006 140.99627 357.56641 142.4375 C 342.44375 143.32884 301.08579 141.87828 293.1582 110.10352 C 308.63854 92.834737 336.89665 72.569657 385.49805 47.507812 C 347.68371 60.35613 313.56465 77.483118 285.00977 101.05078 C 251.43839 85.182725 274.58087 45.161009 290.95898 29.271484 C 291.78944 33.467271 292.73043 36.120172 293.80469 36.902344 C 299.13768 31.099363 303.49437 25.156706 310.35938 19.572266 C 310.3817 22.852181 308.72928 26.411272 312.81641 29.013672 C 316.49692 23.986854 321.47237 19.499041 328.07812 15.691406 C 324.89642 21.26161 327.53163 22.955141 329.24219 25.263672 C 334.28761 20.872091 339.08083 16.422441 348.38477 12.976562 z M 164.71289 12.980469 C 174.01684 16.426347 178.81006 20.874045 183.85547 25.265625 C 185.56604 22.957095 188.20123 21.265518 185.01953 15.695312 C 191.62529 19.502947 196.60074 23.990759 200.28125 29.017578 C 204.36838 26.415178 202.71596 22.856087 202.73828 19.576172 C 209.60328 25.160612 213.95998 31.103269 219.29297 36.90625 C 220.36722 36.124078 221.30821 33.471178 222.13867 29.275391 C 238.51679 45.164916 261.65927 85.186599 228.08789 101.05469 C 199.53233 77.503825 165.43137 60.381319 127.64258 47.535156 C 176.21662 72.582017 204.46094 92.844707 219.93555 110.10352 C 212.00795 141.87828 170.65 143.32884 155.52734 142.4375 C 158.6237 140.99627 161.20696 139.26966 162.12305 136.61719 C 158.32843 133.92043 144.87383 136.33384 135.48047 131.05664 C 139.0888 130.30909 140.77703 129.58082 142.46484 126.91797 C 133.59012 124.08752 124.0302 121.64786 118.4082 116.95898 C 121.44225 116.99648 124.27411 117.63869 128.23633 114.89062 C 120.28727 110.60694 111.80668 107.21173 105.2168 100.66406 C 109.32668 100.56346 113.75656 100.62269 115.04492 99.111328 C 107.76973 94.604074 101.63197 89.591876 96.550781 84.109375 C 102.30226 84.803644 104.73044 84.204902 106.12109 83.203125 C 100.62156 77.570256 93.660341 72.814163 90.341797 65.873047 C 94.612196 67.344895 98.519552 67.908742 101.33594 65.744141 C 99.467115 61.528181 91.461329 59.041645 86.851562 49.189453 C 91.347156 49.625378 96.114787 50.17028 97.068359 49.189453 C 94.98166 40.688142 91.400363 35.908737 87.888672 30.957031 C 97.510233 30.813959 112.088 30.99305 111.42773 30.179688 L 105.47852 24.101562 C 114.87689 21.571199 124.49343 24.509228 131.47461 26.689453 C 134.60923 24.21596 131.42016 21.087888 127.5957 17.894531 C 135.58267 18.960843 142.79892 20.796668 149.32227 23.326172 C 152.80778 20.179099 147.05997 17.031839 144.2793 13.884766 C 156.61851 16.225845 161.84538 19.514872 167.04102 22.808594 C 170.81053 19.195465 167.25668 16.125682 164.71289 12.980469 z M 253.29102 143.86523 C 254.12653 143.84634 254.96436 143.84733 255.80273 143.86914 L 255.80273 143.86719 C 279.6084 143.60537 309.08276 161.63069 308.96484 178.61328 C 308.86112 193.60289 288.26541 205.73902 255.98633 205.50781 C 224.37753 205.13082 203.09122 190.25899 203.16602 175.73438 C 203.22631 164.15431 227.39005 144.45094 253.29102 143.86523 z M 174.79297 153.97266 C 180.1148 153.87346 185.61524 154.28759 191.23438 155.23633 C 207.7949 158.01908 111.87122 241.7789 110.39258 223.09375 C 109.07184 180.4486 137.54017 154.66706 174.79297 153.97266 z M 331.86914 155.4043 C 369.12023 156.09766 397.59221 181.87453 396.27148 224.52344 C 394.7929 243.2093 298.8672 159.44805 315.42773 156.66602 C 321.04642 155.71727 326.54756 155.30524 331.86914 155.4043 z M 313.71094 207.41016 A 61.613523 52.22028 55.965775 0 1 315.99023 207.44141 A 61.613523 52.22028 55.965775 0 1 356.54688 317.64258 A 61.613523 52.22028 55.965775 1 1 288.61133 214.83789 A 61.613523 52.22028 55.965775 0 1 313.71094 207.41016 z M 196.11719 210.30273 A 52.22028 61.613523 34.034225 0 1 223.49609 217.69922 A 52.22028 61.613523 34.034225 0 1 155.56055 320.50391 A 52.22028 61.613523 34.034225 0 1 196.11719 210.30273 z M 401.60938 241.80273 C 402.34003 241.79062 403.11175 241.89126 403.92578 242.10938 C 447.14483 266.78922 439.63558 321.70535 416.32422 340.45703 C 395.79401 349.57694 378.95909 242.17838 401.60938 241.80273 z M 105.24023 243.23438 C 127.88807 243.60772 111.0556 350.99882 90.525391 341.87891 C 67.21403 323.12938 59.704772 268.2189 102.92383 243.53906 C 103.73777 243.32088 104.50966 243.22233 105.24023 243.23438 z M 258.57812 317.11133 A 58.222915 53.688598 0 0 1 315.4082 371.06836 A 58.222915 53.688598 0 1 1 198.96289 371.06836 A 58.222915 53.688598 0 0 1 258.57812 317.11133 z M 385.87305 337.36133 C 390.42089 337.24277 394.67701 338.51919 398.51562 341.48828 C 408.85198 351.788 414.916 390.57279 396.82031 413.79688 C 371.89939 448.37584 338.16115 449.72338 325.59375 440.0918 C 312.44977 427.69465 322.48424 389.20214 340.50195 368.09766 L 340.50195 368.0918 C 355.96548 350.63183 372.22952 337.71699 385.87305 337.36133 z M 122.68945 345.58203 C 137.69674 345.27391 156.11797 357.13308 171.04883 374.45703 L 171.04688 374.45703 C 187.69968 394.51995 195.29178 429.76763 181.39453 440.1582 C 168.24697 448.09008 136.31901 444.82408 113.625 412.22266 C 98.319924 384.86595 100.29094 357.02758 111.03711 348.84961 C 114.55238 346.70827 118.48741 345.6683 122.68945 345.58203 z M 261.91016 441.63477 C 284.63131 441.77502 312.21967 449.95849 312.27734 460.59766 C 312.66557 471.61774 283.81337 496.51659 255.88867 496.03516 C 226.9689 497.28267 198.61115 472.34484 198.98242 463.70117 C 198.54958 451.0279 234.19729 441.13325 257.44141 441.71484 C 258.90328 441.65104 260.39541 441.62542 261.91016 441.63477 z "
       id="path4342" />
  </g>
</svg>
