<svg width="512" height="512" version="1.1" xmlns="http://www.w3.org/2000/svg"><path d="m164 0.00586 0.00977 0.00195c-2.59 0.0803-5.38 1.04-8.54 3.53-7.75-2.99-15.3-4.03-22 2.06-10.4-1.35-13.7 1.43-16.3 4.67-2.28-0.0472-17-2.34-23.8 7.76-17-2.01-22.4 10-16.3 21.2-3.47 5.38-7.07 10.7 1.05 20.9-2.87 5.71-1.09 11.9 5.68 19.4-1.79 8.03 1.73 13.7 8.03 18.1-1.18 11 10.1 17.4 13.4 19.7 1.29 6.4 3.98 12.4 16.8 15.8 2.12 9.54 9.85 11.2 17.3 13.2-24.7 14.4-45.9 33.3-45.8 79.7l-3.62 6.46c-28.3 17.2-53.9 72.7-14 118 2.61 14.1 6.97 24.2 10.9 35.4 5.82 45.2 43.8 66.3 53.8 68.8 14.7 11.2 30.3 21.8 51.5 29.2 19.9 20.6 41.5 28.4 63.3 28.4 0.318-2e-4 0.642 4e-3 0.961 0 21.7 0.0135 43.3-7.82 63.3-28.4 21.2-7.43 36.8-18 51.5-29.2 10-2.5 48-23.6 53.8-68.8 3.89-11.2 8.26-21.3 10.9-35.4 39.9-45 14.4-100-14-118l-3.63-6.46c0.144-46.4-21.1-65.3-45.8-79.7 7.48-2 15.2-3.65 17.3-13.2 12.9-3.34 15.5-9.38 16.8-15.8 3.36-2.28 14.6-8.66 13.4-19.7 6.3-4.41 9.81-10.1 8.03-18.1 6.77-7.5 8.55-13.7 5.68-19.4 8.13-10.2 4.52-15.6 1.05-20.9 6.09-11.2 0.716-23.2-16.3-21.2-6.77-10.1-21.5-7.8-23.8-7.76-2.55-3.24-5.92-6.02-16.3-4.67-6.72-6.08-14.2-5.04-22-2.06-9.2-7.26-15.3-1.44-22.2 0.76-11.1-3.64-13.7 1.35-19.2 3.38-12.1-2.57-15.8 3.02-21.7 8.92l-6.78-0.135c-18.3 10.8-27.4 32.8-30.6 44.1-3.23-11.3-12.3-33.3-30.6-44.1l-6.77 0.135c-5.83-5.9-9.52-11.5-21.7-8.92-5.47-2.03-8.01-7.02-19.2-3.38-4.56-1.44-8.76-4.44-13.7-4.29zm184 13c-2.54 3.15-6.1 6.21-2.33 9.83 5.2-3.29 10.4-6.58 22.8-8.92-2.78 3.15-8.53 6.29-5.04 9.44 6.52-2.53 13.7-4.37 21.7-5.43-3.82 3.19-7.01 6.32-3.88 8.79 6.98-2.18 16.6-5.12 26-2.59l-5.95 6.08c-0.66 0.813 13.9 0.633 23.5 0.775-3.51 4.95-7.09 9.73-9.18 18.2 0.954 0.981 5.72 0.436 10.2 0-4.61 9.85-12.6 12.3-14.5 16.6 2.82 2.16 6.72 1.6 11 0.129-3.32 6.94-10.3 11.7-15.8 17.3 1.39 1 3.82 1.6 9.57 0.906-5.08 5.48-11.2 10.5-18.5 15 1.29 1.51 5.72 1.45 9.83 1.55-6.59 6.55-15.1 9.94-23 14.2 3.96 2.75 6.79 2.11 9.83 2.07-5.62 4.69-15.2 7.13-24.1 9.96 1.69 2.66 3.38 3.39 6.98 4.14-9.39 5.28-22.8 2.86-26.6 5.56 0.916 2.65 3.5 4.38 6.6 5.82-15.1 0.891-56.5-0.559-64.4-32.3 15.5-17.3 43.7-37.5 92.3-62.6-37.8 12.8-71.9 30-100 53.5-33.6-15.9-10.4-55.9 5.95-71.8 0.83 4.2 1.77 6.85 2.85 7.63 5.33-5.8 9.69-11.7 16.6-17.3 0.0223 3.28-1.63 6.84 2.46 9.44 3.68-5.03 8.66-9.51 15.3-13.3-3.18 5.57-0.546 7.26 1.16 9.57 5.05-4.39 9.84-8.84 19.1-12.3zm-184 0.00391c9.3 3.45 14.1 7.89 19.1 12.3 1.71-2.31 4.35-4 1.16-9.57 6.61 3.81 11.6 8.3 15.3 13.3 4.09-2.6 2.43-6.16 2.46-9.44 6.86 5.58 11.2 11.5 16.6 17.3 1.07-0.782 2.02-3.44 2.85-7.63 16.4 15.9 39.5 55.9 5.95 71.8-28.6-23.6-62.7-40.7-100-53.5 48.6 25 76.8 45.3 92.3 62.6-7.93 31.8-49.3 33.2-64.4 32.3 3.1-1.44 5.68-3.17 6.6-5.82-3.79-2.7-17.2-0.283-26.6-5.56 3.61-0.748 5.3-1.48 6.98-4.14-8.87-2.83-18.4-5.27-24.1-9.96 3.03 0.0375 5.87 0.68 9.83-2.07-7.95-4.28-16.4-7.68-23-14.2 4.11-0.101 8.54-0.0414 9.83-1.55-7.28-4.51-13.4-9.52-18.5-15 5.75 0.694 8.18 0.0955 9.57-0.906-5.5-5.63-12.5-10.4-15.8-17.3 4.27 1.47 8.18 2.04 11-0.129-1.87-4.22-9.87-6.7-14.5-16.6 4.5 0.436 9.26 0.981 10.2 0-2.09-8.5-5.67-13.3-9.18-18.2 9.62-0.143 24.2 0.036 23.5-0.777l-5.95-6.08c9.4-2.53 19 0.408 26 2.59 3.13-2.47-0.0544-5.6-3.88-8.79 7.99 1.07 15.2 2.9 21.7 5.43 3.49-3.15-2.26-6.29-5.04-9.44 12.3 2.34 17.6 5.63 22.8 8.92 3.77-3.61 0.216-6.68-2.33-9.83zm88.6 131c0.836-0.0189 1.67-0.0179 2.51 0.00391v-0.00195c23.8-0.262 53.3 17.8 53.2 34.7-0.104 15-20.7 27.1-53 26.9-31.6-0.377-52.9-15.2-52.8-29.8 0.0603-11.6 24.2-31.3 50.1-31.9zm-78.5 10.1c5.32-0.0992 10.8 0.315 16.4 1.26 16.6 2.78-79.4 86.5-80.8 67.9-1.32-42.6 27.1-68.4 64.4-69.1zm157 1.43c37.3 0.693 65.7 26.5 64.4 69.1-1.48 18.7-97.4-65.1-80.8-67.9 5.62-0.949 11.1-1.36 16.4-1.26zm-18.2 52a61.6 52.2 56 0 1 2.28 0.0312 61.6 52.2 56 0 1 40.6 110 61.6 52.2 56 1 1-67.9-103 61.6 52.2 56 0 1 25.1-7.43zm-118 2.89a52.2 61.6 34 0 1 27.4 7.4 52.2 61.6 34 0 1-67.9 103 52.2 61.6 34 0 1 40.6-110zm205 31.5c0.731-0.0121 1.5 0.0885 2.32 0.307 43.2 24.7 35.7 79.6 12.4 98.3-20.5 9.12-37.4-98.3-14.7-98.7zm-296 1.43c22.6 0.373 5.82 108-14.7 98.6-23.3-18.7-30.8-73.7 12.4-98.3 0.814-0.218 1.59-0.317 2.32-0.305zm153 73.9a58.2 53.7 0 0 1 56.8 54 58.2 53.7 0 1 1-116 0 58.2 53.7 0 0 1 59.6-54zm127 20.2c4.55-0.119 8.8 1.16 12.6 4.13 10.3 10.3 16.4 49.1-1.7 72.3-24.9 34.6-58.7 35.9-71.2 26.3-13.1-12.4-3.11-50.9 14.9-72v-0.00586c15.5-17.5 31.7-30.4 45.4-30.7zm-263 8.22c15-0.308 33.4 11.6 48.4 28.9h-0.00195c16.7 20.1 24.2 55.3 10.3 65.7-13.1 7.93-45.1 4.67-67.8-27.9-15.3-27.4-13.3-55.2-2.59-63.4 3.52-2.14 7.45-3.18 11.7-3.27zm139 96.1c22.7 0.14 50.3 8.32 50.4 19 0.388 11-28.5 35.9-56.4 35.4-28.9 1.25-57.3-23.7-56.9-32.3-0.433-12.7 35.2-22.6 58.5-22 1.46-0.0638 2.95-0.0894 4.47-0.0801z"/></svg>
