<svg width="571" height="571" version="1.1" viewBox="0 0 151.04 151.04" xmlns="http://www.w3.org/2000/svg"><path d="m37.761 10.12-37.76 65.4 37.759 65.404h75.52l37.761-65.402-37.76-65.402h-75.52zm72.593 5.06 15.774 27.32-15.588 9-10.578-18.3h-21.147v-18l31.539-0.019633zm-38.127 0.00775v18h-21.147l-10.578 18.312-15.588-9 15.774-27.3 31.539-0.011883zm-0.008783 23.498v15.54h-9l-4.5052 7.8024-13.457-7.7704 9-15.57 17.962-0.002067zm6.5981 0.002067 17.962 0.002066 9 15.57-13.457 7.7699-4.5047-7.8019h-9v-15.54zm-57.197 9.5389 15.589 8.9881-10.57 18.305 10.578 18.322-15.587 9-15.774-27.32 15.764-27.295zm107.8 0 15.766 27.307-15.774 27.32-15.588-9 10.578-18.322-10.57-18.305 15.588-9zm-87.453 11.739 13.477 7.7673-4.4954 7.7848 4.5052 7.8019-13.457 7.7704-9-15.57 8.97-15.554zm67.1 0 8.9902 15.557-9 15.57-13.457-7.7699 4.5052-7.8019-4.4954-7.7848 13.457-7.7704zm-42.478 0.090414h17.858l8.9297 15.465-8.9297 15.465h-17.858l-8.9297-15.465 8.9297-15.465zm-7.8598 28.974 4.4928 7.7864h9v15.54h-17.97l-8.9804-15.556 13.457-7.7704zm33.578 0 13.455 7.7693-8.9799 15.556h-17.97v-15.54h9l4.4948-7.7854zm-51.81 10.52 10.58 18.305h21.135v18h-31.538l-15.765-27.305 15.588-9zm70.02 0 15.6 9-15.764 27.305h-31.54v-18h21.134l10.57-18.305z"/></svg>
