<?xml version="1.0" encoding="UTF-8" standalone="no"?>
<svg
   xmlns:dc="http://purl.org/dc/elements/1.1/"
   xmlns:cc="http://creativecommons.org/ns#"
   xmlns:rdf="http://www.w3.org/1999/02/22-rdf-syntax-ns#"
   xmlns:svg="http://www.w3.org/2000/svg"
   xmlns="http://www.w3.org/2000/svg"
   width="512"
   height="512"
   id="svg3037"
   version="1.1">
  <defs
     id="defs5498" />
  <metadata
     id="metadata5594">
    <rdf:RDF>
      <cc:Work
         rdf:about="">
        <dc:format>image/svg+xml</dc:format>
        <dc:type
           rdf:resource="http://purl.org/dc/dcmitype/StillImage" />
        <dc:title />
      </cc:Work>
    </rdf:RDF>
  </metadata>
  <g
     id="layer5"
     style="display:inline" />
  <g
     id="layer3"
     style="display:inline">
    <g
       id="layer1"
       transform="matrix(13.837443,0,0,13.837448,-8102.5345,-13390.135)">
      <path
         transform="matrix(0.11364173,0,0,0.11364173,585.55144,967.78872)"
         id="path3248"
         d="M 162.78125,0.0625 C 72.902383,0.0625 0,72.962243 0,162.84375 c 0,18.19138 3.0218302,35.63338 8.53125,51.96875 l 11.25,0 c 10.033902,0 19.421274,-2.52473 27.25,-6.59375 1.980962,-1.01934 4.212142,-1.65625 6.59375,-1.65625 4.994556,0 9.370543,2.12039 12.09375,6.59375 2.352745,4.05291 4.460585,6.28637 7.15625,8 2.317987,1.48123 5.370504,2.68223 9.90625,2.46875 2.132403,-0.10032 5.498714,-0.51843 6.3125,-2.75 0.931172,-2.55962 -0.190407,-4.48806 -3.3125,-5.78125 -4.39988,-1.83982 -5.630964,-4.37353 -7.96875,-8.53125 -2.339634,-4.15499 -7.455926,-6.46537 -8.25,-14.28125 -0.782283,-7.69902 5.15851,-17.39719 17.0625,-14.3125 8.606346,2.22524 14.14002,12.85935 16.21875,16.5 1.0937,1.91233 5.13064,4.23003 8.25,1.375 3.11936,-2.86048 5.91169,-2.83044 8.25,0.8125 1.99865,3.10212 16.58822,22.6133 32.4375,23.125 16.11107,0.51742 24.60548,-3.85026 31.625,-3.59375 4.9312,0.18919 7.36327,2.8639 10.1875,3.3125 4.93789,0.78052 8.57093,-3.85431 14.03125,-3.59375 4.4115,0.21647 9.06071,3.3125 14,3.3125 4.93657,0 15.54995,-6.02278 15.40625,-3.5625 -0.25519,4.34171 -3.58974,12.10958 -4.40625,15.65625 -0.56933,2.45887 -0.14403,8.45545 -1.625,13.21875 -1.32143,4.8762 -5.98661,10.86975 -7.15625,12.625 -3.98718,5.98134 -6.65507,7.76119 -9.90625,14.03125 -3.63528,7.0182 -9.71677,13.60464 -11.28125,15.6875 -1.99557,2.66187 11.26854,-0.22391 15.96875,-4.6875 4.00733,-3.80186 10.91411,-15.15908 22,-17.59375 7.4734,-1.64376 9.16322,-4.5067 8.25,-7.15625 -0.13991,-0.31063 -0.28125,-0.72681 -0.28125,-1.09375 0,-1.01257 0.52188,-1.7645 1.375,-2.1875 7.72586,-3.21502 18.17993,-5.25 29.6875,-5.25 6.72939,0 13.54104,0.7765 19.8125,2.21875 16.52069,-25.46591 26.125,-55.66964 26.125,-88.28125 0,-89.881507 -72.93583,-162.78125 -162.8125,-162.78125 z m 27.1875,33.5 c 10.1618,0.162254 19.74903,3.383973 25.90625,9.71875 9.27828,9.551949 22.06774,38.976136 28.1875,61 3.11013,11.19254 2.28191,16.57339 0.71875,20.34375 -1.11728,2.5803 -1.81145,4.20848 -5.65625,10.75 -0.68487,1.16788 -0.105,2.41389 1.375,1.65625 10.17531,-5.22299 12.45508,-12.12681 14.0625,-17.53125 27.64821,6.23398 44.03734,20.63206 40.5,40.09375 -7.79159,42.83805 -77.8804,57.23054 -146.03125,36.59375 -64.942341,-19.66179 -121.972224,-58.83651 -115.375,-81.78125 3.842691,-13.3656 25.013102,-19.083562 53.25,-16.03125 -4.278006,8.72584 -3.941989,19.04407 14.75,30.46875 22.84759,12.98255 61.45833,24.05383 71.90625,22.96875 3.89047,-0.39757 7.41262,-2.34813 3.90625,-4.6875 -3.50373,-2.33541 -6.61656,-7.01242 -8.5625,-15.1875 -1.0864,-4.56258 -2.34105,-10.88913 -26.875,-15.5625 -52.668769,-10.03065 -50.621874,-24.936244 -49.0625,-33.5 0,0 4.645082,-21.037049 6.59375,-28.4375 1.94568,-7.397987 6.98772,-24.387247 40.90625,-16.75 19.60134,4.414312 30.16264,-1.053325 35.5625,-2.4375 4.58359,-1.176229 9.3185,-1.761252 13.9375,-1.6875 z m 0.28125,7.59375 c -1.75525,0.01496 -3.57084,0.120669 -5.4375,0.3125 -6.22447,0.632778 -11.66648,2.168489 -15.3125,4.09375 -0.17423,0.0792 -0.28125,0.240389 -0.28125,0.4375 0,0.268387 0.20961,0.5 0.5,0.5 0.0264,0 0.0674,-0.02852 0.0937,-0.03125 l 0,0.03125 c 1.04205,-0.162792 2.11484,-0.326625 3.21875,-0.4375 10.08934,-1.01512 18.62031,0.667506 19.03125,3.75 0.31019,2.325994 -4.08452,4.773705 -10.59375,6.28125 -0.32646,0.0792 -0.5625,0.361035 -0.5625,0.6875 0,0.325585 0.24308,0.599504 0.5625,0.6875 2.72752,0.788267 5.8699,1.264554 9.25,1.34375 10.43191,0.234245 19.00181,-3.527584 19.125,-8.40625 0.12627,-4.876554 -8.22707,-9.014171 -18.65625,-9.25 -0.31555,-0.0054 -0.62687,0 -0.9375,0 z M 112.90625,60.75 c -1.66695,0.06467 -3.45447,1.077702 -4.71875,4 -2.56842,5.911297 2.17054,12.237979 6.09375,13.0625 0,0 6.56617,12.163462 11.53125,6.875 3.52063,-3.749503 5.45162,-5.796362 24.25,-7.15625 8.95745,-0.647913 9.88547,-2.702394 9.625,-4.90625 -0.30482,-2.580302 -5.73579,-5.59375 -13.78125,-5.59375 -7.93811,0 -13.62813,1.026016 -18.5625,1.15625 -4.93226,0.131818 -8.71967,-3.472469 -10.5,-5.6875 -0.73147,-0.909525 -2.27055,-1.814666 -3.9375,-1.75 z m 85.15625,175.46875 c -0.0184,0.005 -0.0387,0.037 -0.0625,0.0625 -2.11111,2.44144 -3.16464,3.4368 -4.6875,4.65625 -3.67022,2.95437 -7.74764,-0.60797 -10.4375,-2.1875 -5.97738,-3.50505 -10.95395,-1.06722 -12.125,1.65625 -1.16832,2.73289 0.0566,5.92572 3.3125,5.5 4.55519,-0.58957 4.95042,0.0941 8.25,2.1875 6.13718,3.89188 10.64917,1.83577 12.9375,0 1.90423,-1.51881 2.85538,-2.841 3.84375,-4.6875 1.76326,-3.48622 0.27434,-6.30849 -0.5625,-7.125 -0.0924,-0.0792 -0.14838,0 -0.28125,0 -0.11285,0 -0.13219,-0.0769 -0.1875,-0.0625 z m 122.03125,3.625 c -2.47092,0 -4.40625,2.21244 -4.40625,4.6875 0,2.47356 1.93533,4.375 4.40625,4.375 2.47497,0 4.375,-1.90144 4.375,-4.375 0,-2.47506 -1.89994,-4.6875 -4.375,-4.6875 z m 0,0.8125 c 2.03314,0 3.5625,1.84045 3.5625,3.875 0,2.03323 -1.52927,3.5625 -3.5625,3.5625 -2.03587,0 -3.875,-1.52927 -3.875,-3.5625 0,-2.03455 1.83913,-3.875 3.875,-3.875 z m -1.65625,1.375 0,4.6875 0.8125,0 0,-1.9375 0.84375,0 1.09375,1.9375 0.8125,0 -1.375,-1.9375 c 0.67581,-0.088 1.375,-0.55884 1.375,-1.375 0,-0.90513 -0.57566,-1.375 -1.65625,-1.375 l -1.90625,0 z m 0.8125,0.5625 0.84375,0 c 0.48046,0 1.09375,0.24933 1.09375,0.8125 0,0.70485 -0.50858,0.84375 -1.09375,0.84375 l -0.84375,0 0,-1.65625 z" />
    </g>
  </g>
</svg>
