<svg fill="none" version="1.1" viewBox="0 0 450 382.77" xmlns="http://www.w3.org/2000/svg"><path d="m240.47 0a191.39 191.39 0 0 0-191.38 191.38c0.12 12.004 1.37 23.97 3.732 35.741l-1.289-5.251c-70.546 49.084-76.455 98.024 31.602 78.473l0.045-0.018a1483.8 1483.8 0 0 0 25.999-7.942c3.633-1.145 7.254-2.309 10.87-3.487a1334.7 1334.7 0 0 0 24.652-8.271l0.748-0.254a1193.6 1193.6 0 0 0 58.988-22.201c0.377-0.15 0.76-0.287 1.137-0.44 0.018 0 0.03 0 0.051-6e-3l-0.024-0.03c32.466-13.268 63.306-27.655 93.069-43.411a41.867 41.867 0 0 0 23.953 7.539 41.868 41.868 0 0 0 41.866-41.866c0-1.234-0.055-2.467-0.165-3.696 28.618-18.044 56.593-37.652 84.509-59.096 3.827-7.248-1.534-24.608-18.316-20.29-24.952 20.251-50.777 38.334-77.179 54.638a41.874 41.874 0 0 0-30.715-13.421 41.866 41.866 0 0 0-41.865 41.865c9e-3 3.667 0.5 7.317 1.459 10.855-31.889 15.784-64.212 29.599-96.505 42.045a142.04 142.04 0 0 1-23.31-77.11 142.04 142.04 0 0 1 142.04-142.04c2.553 0 5.106 0.07 7.655 0.21a191.38 191.38 0 0 0-71.625-13.918zm188.49 223.93a142.04 142.04 0 0 1-124.51 73.871 142.04 142.04 0 0 1-81.769-25.944l-0.018 0.036c-36.946 15.098-75.51 30.212-126.31 45.415a191.39 191.39 0 0 0 144.13 65.468 191.38 191.38 0 0 0 188.49-158.85zm-371.29 22.864a191.38 191.38 0 0 0 10.377 26.845l-0.329 0.105c-54.951 13.301-23.998-7.273-8.744-21.651z" fill="#010101"/></svg>
