<svg version="1.1" viewBox="0 0 48 48" xmlns="http://www.w3.org/2000/svg">
 <path d="m23.659 0s5.4086 2.6093 8.4845 6.5712c3.0758 3.9614 2.7379 11.483-1.6334 14.889s-6.7574 2.7437-9.0293 6.0101c-2.2723 3.2664 1.9162 5.8483 4.8307 7.6656 2.9146 1.8168 7.055 5.2627 8.9246 7.884 1.2845 1.8014 2.0563 3.84 2.4336 4.9805h10.33v-48zm-23.659 3.6024v44.398h16.128c2.2454-2.8219 3.2333-5.9246 1.3594-8.5776-2.0146-2.8512-3.2357-4.2096-4.8288-7.5038-1.2744-2.6362-0.3288-6.1334 1.2696-8.039 1.5979-1.9056 2.7235-2.6587 3.9298-3.3408 3.445-1.9488 8.184-3.5856 7.8106-7.248-0.37344-3.6619-2.4019-5.0438-7.332-6.9955-4.9301-1.9522-18.336-2.6928-18.336-2.6928z" stroke-width=".48"/>
</svg>
