<?xml version="1.0" standalone="no"?>
<!DOCTYPE svg PUBLIC "-//W3C//DTD SVG 20010904//EN" "http://www.w3.org/TR/2001/REC-SVG-20010904/DTD/svg10.dtd">
<!-- Created using Karbon, part of Calligra: http://www.calligra.org/karbon -->
<svg xmlns="http://www.w3.org/2000/svg" xmlns:xlink="http://www.w3.org/1999/xlink" width="76.8pt" height="76.8pt">
<defs>
  <linearGradient id="gradient0" gradientTransform="matrix(1.02381 0 0 1.0119 -3.11161 -3.04018)" gradientUnits="objectBoundingBox" x1="0.35031673048" y1="0.06733516102" x2="0.35031673048" y2="0.99095246671" spreadMethod="pad">
   <stop stop-color="#000000" offset="0.00000000000" stop-opacity="1.00000000000"/>
   <stop stop-color="#000000" offset="1.00000000000" stop-opacity="0.58823529412"/>
  </linearGradient>
  <linearGradient id="gradient1" gradientTransform="matrix(1.02381 0 0 1.0119 -4.11161 -4.04018)" gradientUnits="objectBoundingBox" x1="0.35809614434" y1="0.06884724884" x2="0.35809614434" y2="1.01320543439" spreadMethod="pad">
   <stop stop-color="#000000" offset="0.00000000000" stop-opacity="1.00000000000"/>
   <stop stop-color="#000000" offset="1.00000000000" stop-opacity="0.58823529412"/>
  </linearGradient>
  <linearGradient id="gradient2" gradientTransform="matrix(1.02381 0 0 1.0119 -5.14286 -5.07143)" gradientUnits="objectBoundingBox" x1="0.36648902273" y1="0.07047940345" x2="0.36648902273" y2="1.03722539080" spreadMethod="pad">
   <stop stop-color="#000000" offset="0.00000000000" stop-opacity="1.00000000000"/>
   <stop stop-color="#000000" offset="1.00000000000" stop-opacity="0.58823529412"/>
  </linearGradient>
  <linearGradient id="gradient3" gradientTransform="matrix(1.02381 0 0 1.0119 -6.14286 -6.07143)" gradientUnits="objectBoundingBox" x1="0.37501202326" y1="0.07213774235" x2="0.37501202326" y2="1.06163069412" spreadMethod="pad">
   <stop stop-color="#000000" offset="0.00000000000" stop-opacity="1.00000000000"/>
   <stop stop-color="#000000" offset="1.00000000000" stop-opacity="0.58823529412"/>
  </linearGradient>
  <linearGradient id="gradient4" gradientTransform="translate(-6, -6)" gradientUnits="objectBoundingBox" x1="0.38394088095" y1="0.07299652500" x2="0.38394088095" y2="1.07426915476" spreadMethod="pad">
   <stop stop-color="#000000" offset="0.00000000000" stop-opacity="1.00000000000"/>
   <stop stop-color="#000000" offset="1.00000000000" stop-opacity="0.58823529412"/>
  </linearGradient>
  <linearGradient id="gradient5" gradientTransform="matrix(0.449308 0 0 0.447415 -131.854 -182.732)" gradientUnits="objectBoundingBox" x1="5.69721469070" y1="7.16485175439" x2="5.70447259620" y2="9.12580526316" spreadMethod="pad">
   <stop stop-color="#000000" offset="0.00000000000" stop-opacity="0.00000000000"/>
   <stop stop-color="#000000" offset="1.00000000000" stop-opacity="0.00000000000"/>
  </linearGradient>
 </defs>
<g id="layer3">
  <path id="path3786" transform="matrix(1 0 0 -1 1.96875 95.0313)" fill="url(#gradient0)" opacity="0.07999998000" d="M10.0312 0C4.52016 0 0 4.52016 0 10.0312L0 81.0312C0 86.5423 4.52016 91.0625 10.0312 91.0625L82.0312 91.0625C87.5423 91.0625 92.0625 86.5423 92.0625 81.0312L92.0625 10.0312C92.0625 4.52016 87.5423 0 82.0312 0Z"/>
  <path id="path3778" transform="matrix(1 0 0 -1 2.96875 94.0312)" fill="url(#gradient1)" opacity="0.10000000000" d="M9.03125 0C4.05962 0 0 4.05962 0 9.03125L0 80.0312C0 85.0029 4.05962 89.0625 9.03125 89.0625L81.0312 89.0625C86.0029 89.0625 90.0625 85.0029 90.0625 80.0312L90.0625 9.03125C90.0625 4.05962 86.0029 0 81.0312 0Z"/>
  <path id="path3770" transform="matrix(1 0 0 -1 4 93)" fill="url(#gradient2)" opacity="0.20000000000" d="M8 0C3.59087 0 0 3.59087 0 8L0 79C0 83.4091 3.59087 87 8 87L80 87C84.4091 87 88 83.4091 88 79L88 8C88 3.59087 84.4091 0 80 0Z"/>
  <rect id="rect3723" transform="matrix(1 0 0 -1 5 92)" fill="url(#gradient3)" opacity="0.30000000000" width="68.80000000000pt" height="68.00000000000pt" rx="5.60000000000pt" ry="5.60000000000pt"/>
  <rect id="rect3716" transform="matrix(1 0 0 -1 6 91)" fill="url(#gradient4)" opacity="0.45000000000" width="67.20000000000pt" height="67.20000000000pt" rx="4.80000000000pt" ry="4.80000000000pt"/>
 </g><g id="layer4">
  <path id="path4020" transform="translate(12.9374, 19.0937)" fill="#ffffff" opacity="0.05000000000" d="M35.1876 0C30.4845 0 24.8693 1.0526 20.0939 3.65625C15.2843 6.27851 11.2189 10.8457 11.2189 17.1562C11.2189 23.259 15.1638 27.6129 19.7814 30C24.3575 32.3657 29.6789 33.1875 33.9689 33.1875C37.7631 33.1875 41.3858 33.725 43.6251 34.7188C44.7756 35.2293 45.5409 35.7926 46.0001 36.375C46.4711 36.9724 46.6876 37.5407 46.6876 38.5625C46.6876 39.5673 46.4661 40.2902 46.0001 40.9375C45.5341 41.5848 44.7862 42.1596 43.6564 42.75C41.4804 43.8872 37.9506 44.625 34.1251 44.625C30.0372 44.625 27.2584 43.2954 25.4376 41.75C24.556 41.0017 23.9114 40.1461 23.5001 39.4062C23.3014 39.0489 23.1804 38.7049 23.0939 38.4375C23.0074 38.1701 22.9689 37.9285 22.9689 38C22.9689 36.0512 21.6784 34.694 20.5001 33.9375C19.3053 33.1704 17.8441 32.75 16.2814 32.75C14.7668 32.75 13.2985 33.1277 12.1251 34.0312C10.9055 34.9704 10.1564 36.4314 10.1564 38L10.1564 48.2188C10.1543 48.3584 10.1543 48.1103 10.1564 48.25C10.1564 48.2698 10.1564 48.3132 10.1564 48.3125C10.2095 49.846 10.5367 51.5947 11.6251 53.125C12.182 53.9079 12.929 54.5315 13.8126 55L7.96887 55L7.96887 43.9062C7.97017 44.0241 7.96884 43.8982 7.96887 43.875C7.96889 43.8576 7.96936 43.8054 7.96887 43.7812C7.9689 43.7697 7.96887 43.7296 7.96887 43.7188C7.96886 43.7079 7.96895 43.6258 7.96887 43.625C7.96886 43.625 7.94251 43.5902 7.93762 43.5625C7.93762 43.5562 7.93773 43.5415 7.93762 43.5312C7.93756 43.5262 7.93803 43.513 7.93762 43.5C7.93741 43.4935 7.93862 43.4853 7.93762 43.4688C7.93735 43.4647 7.93932 43.4508 7.93762 43.4375C7.93382 43.4246 7.93922 43.4113 7.93762 43.4062C7.93332 43.375 7.93763 43.3438 7.93762 43.3438C7.93754 43.3434 7.9086 43.2256 7.90637 43.2188C7.90417 43.2118 7.87694 43.2242 7.87512 43.2188C7.87152 43.2079 7.87902 43.1991 7.87512 43.1875C7.87473 43.186 7.85163 43.1169 7.84387 43.0938C7.83607 43.0706 7.84432 43.064 7.84387 43.0625C7.84296 43.0595 7.78242 42.9404 7.78137 42.9375C7.78127 42.9372 7.76264 42.8732 7.75012 42.8438C7.75782 42.867 7.74952 42.8111 7.75012 42.8125C7.75071 42.8139 7.71101 42.7657 7.71887 42.7812C7.7186 42.7805 7.73004 42.7463 7.71887 42.7188C7.71697 42.713 7.72167 42.6958 7.71887 42.6875C7.71816 42.6854 7.68861 42.6903 7.68762 42.6875C7.68662 42.6847 7.68942 42.6611 7.68762 42.6562C7.68412 42.6465 7.65646 42.5314 7.65637 42.5312C7.65635 42.5312 7.61747 42.5042 7.59387 42.4688C7.58977 42.459 7.56266 42.4376 7.56262 42.4375C7.5626 42.4375 7.54735 42.4033 7.53137 42.375C7.53121 42.3748 7.50674 42.3511 7.50012 42.3438C7.49602 42.3366 7.50012 42.3125 7.50012 42.3125C7.50007 42.3124 7.42891 42.2477 7.40637 42.2188C7.40639 42.2188 7.41267 42.1951 7.40637 42.1875C7.40127 42.1798 7.38724 42.1734 7.37512 42.1562C7.36042 42.1386 7.34634 42.1276 7.34387 42.125C7.33747 42.1182 7.31394 42.0951 7.31262 42.0938C7.31213 42.0931 7.25758 42.0075 7.25012 42C7.24262 41.9925 7.22663 41.9765 7.21887 41.9688C7.21677 41.9665 7.12728 41.8772 7.12512 41.875C7.03819 41.7854 7.10934 41.8592 7.09387 41.8438C7.0784 41.8283 7.0325 41.7823 7.03137 41.7813C7.02108 41.7709 6.99207 41.7406 6.96887 41.7188C6.98429 41.7343 6.93644 41.6865 6.93762 41.6875C6.93222 41.6821 6.84418 41.594 6.84387 41.5938C6.84137 41.5919 6.72141 41.5018 6.71887 41.5C6.71871 41.4999 6.63512 41.4741 6.62512 41.4688C6.61512 41.4633 6.59797 41.4396 6.59387 41.4375C6.58184 41.4304 6.55638 41.4344 6.56262 41.4375C6.52929 41.416 6.46995 41.3756 6.46887 41.375C6.46787 41.3744 6.46647 41.3585 6.43762 41.3438C6.42607 41.3359 6.41739 41.3199 6.40637 41.3125C6.40087 41.3088 6.3823 41.3172 6.37512 41.3125C6.37092 41.3099 6.35494 41.2879 6.34387 41.2812C6.3328 41.2746 6.25021 41.25 6.25012 41.25C6.24892 41.2495 6.16522 41.202 6.12512 41.1875C6.1127 41.1822 6.09329 41.1873 6.09387 41.1875C6.0617 41.1741 6.00041 41.1251 6.00012 41.125C5.95472 41.1097 5.8781 41.0946 5.87512 41.0938C5.87507 41.0937 5.71895 41.0625 5.71887 41.0625C5.72097 41.0632 5.69079 41.0636 5.68762 41.0625C5.66471 41.0605 5.63395 41.0629 5.62512 41.0625C5.61912 41.0605 5.63422 41.0342 5.62512 41.0312C5.62062 41.0297 5.60512 41.0346 5.59387 41.0312C5.58827 41.0296 5.57724 41.0353 5.56262 41.0312C5.548 41.0273 5.43771 41 5.43762 41C5.43742 41 5.35287 41.0002 5.34387 41C5.33487 40.9998 5.31653 41 5.31262 41C5.31112 40.9999 5.17955 40.9999 5.15637 41L3.12512 40.9375L3.06262 40.9375C3.04626 40.9369 3.04444 40.9379 3.03137 40.9375C3.0183 40.9371 3.00227 40.9374 3.00012 40.9375C2.99682 40.9373 2.78287 40.9375 2.81262 40.9375C2.83642 40.9375 2.73184 40.9371 2.68762 40.9375C2.68302 40.9375 2.66727 40.9372 2.65637 40.9375C2.61277 40.9388 2.53269 40.9374 2.53137 40.9375C2.47937 40.9333 2.42711 40.9333 2.37512 40.9375C2.37477 40.9376 2.28998 40.9661 2.28137 40.9688C2.27277 40.9715 2.25494 40.9671 2.25012 40.9688C2.24052 40.9719 2.22872 40.9967 2.21887 41C2.19916 41.0066 2.17951 40.9922 2.15637 41C2.11009 41.0156 2.12785 41.0305 2.12512 41.0312C2.10576 41.035 2.08061 41.0277 2.06262 41.0312C2.05362 41.0331 2.0423 41.029 2.03137 41.0312C2.02587 41.0325 2.01154 41.0599 2.00012 41.0625C1.9887 41.0651 1.87545 41.0936 1.87512 41.0938C1.79779 41.1229 1.85889 41.0878 1.84387 41.0938C1.82885 41.0998 1.80071 41.1173 1.78137 41.125C1.7427 41.1404 1.65893 41.1863 1.65637 41.1875C1.65621 41.1876 1.54547 41.2408 1.53137 41.25C1.51726 41.2592 1.50584 41.246 1.50012 41.25C1.48867 41.258 1.47394 41.2775 1.46887 41.2812C1.45874 41.2887 1.47637 41.3068 1.46887 41.3125C1.45381 41.3238 1.42179 41.3321 1.40637 41.3438C1.39459 41.3507 1.39445 41.3634 1.37512 41.375C1.33647 41.3981 1.22118 41.4671 1.21887 41.4688C1.14847 41.5191 1.19974 41.4909 1.18762 41.5C1.1755 41.509 1.14061 41.5196 1.12512 41.5312C1.09414 41.5545 1.03353 41.5919 1.03137 41.5938C1.02917 41.5956 0.937235 41.6878 0.906365 41.7188C0.875495 41.7497 0.893885 41.7303 0.843865 41.7813C1.01477 41.607 0.659977 41.9644 0.656365 41.9688C0.652765 41.9731 0.503333 42.1516 0.500115 42.1562C0.498515 42.1586 0.460765 42.2426 0.437615 42.2812C0.426035 42.3006 0.415355 42.3287 0.406365 42.3438C0.397365 42.3588 0.433635 42.3029 0.375115 42.4063C0.37494 42.4066 0.316405 42.4911 0.312615 42.5C0.308815 42.5093 0.316015 42.5227 0.312615 42.5312C0.312012 42.5322 0.316515 42.5561 0.312615 42.5625C0.305115 42.577 0.288945 42.5792 0.281365 42.5938C0.266025 42.6325 0.282565 42.6224 0.281365 42.625C0.274365 42.6365 0.256495 42.6456 0.250115 42.6562C0.244815 42.6651 0.225085 42.6769 0.218865 42.6875C0.215765 42.6928 0.225265 42.7073 0.218865 42.7188C0.215665 42.7245 0.195105 42.7356 0.187615 42.75C0.180115 42.7644 0.156425 42.8748 0.156365 42.875C0.156246 42.8753 0.127445 42.9585 0.125115 42.9688C0.122815 42.979 0.0949351 42.9949 0.0938651 43C0.0917651 43.0102 0.0956651 43.0224 0.0938651 43.0313C0.0903651 43.0489 0.0976651 43.0744 0.0938651 43.0938C0.0931491 43.0964 0.0703351 43.1801 0.0626151 43.2188C0.0587151 43.2381 0.0656151 43.266 0.0626151 43.2812C0.0596151 43.2965 0.0517251 43.2236 0.0313651 43.3438C0.0301651 43.3507 0.000575137 43.5881 0.000115137 43.5938C-0.000113863 43.5966 6.01368e-05 43.7425 0.000115137 43.7812C0.000170137 43.82 -5.28632e-05 43.8157 0.000115137 43.8438L0.156365 59.9063C0.154965 59.7828 0.156394 59.9143 0.156365 59.9375C0.156336 59.9607 0.156271 60.0609 0.156365 60.0625C0.156353 60.0683 0.156364 60.0883 0.156365 60.0938C0.156367 60.1047 0.15628 60.1867 0.156365 60.1875C0.15637 60.1875 0.182775 60.2228 0.187615 60.25C0.187609 60.2564 0.187491 60.2707 0.187615 60.2812C0.187677 60.2866 0.187167 60.2991 0.187615 60.3125C0.189515 60.3221 0.186763 60.3405 0.187615 60.3438C0.192015 60.3607 0.185715 60.3685 0.187615 60.375C0.191415 60.388 0.186015 60.4012 0.187615 60.4062C0.18847 60.41 0.218005 60.4025 0.218865 60.4062C0.223065 60.4357 0.218856 60.4687 0.218865 60.4688C0.219847 60.4716 0.219865 60.5031 0.218865 60.5C0.226465 60.5289 0.217165 60.5887 0.218865 60.5938C0.221065 60.6005 0.248305 60.5884 0.250115 60.5938C0.253715 60.6046 0.246215 60.6134 0.250115 60.625C0.250908 60.6281 0.280425 60.747 0.281365 60.75C0.282305 60.753 0.342785 60.9033 0.343865 60.9062C0.351565 60.9295 0.374505 61.0298 0.375115 61.0312C0.376915 61.0367 0.372715 61.0555 0.375115 61.0625C0.377515 61.0695 0.437445 61.1559 0.437615 61.1563C0.483965 61.253 0.461075 61.2032 0.468865 61.2188C0.476665 61.2343 0.499365 61.2799 0.500115 61.2813C0.500867 61.2827 0.547135 61.3831 0.562615 61.4062C0.562644 61.4063 0.600945 61.4349 0.625115 61.4688C0.632015 61.4785 0.618915 61.4914 0.625115 61.5C0.625125 61.5 0.649245 61.5199 0.656365 61.5312C0.669705 61.5469 0.682115 61.5565 0.687615 61.5625C0.709775 61.598 0.718845 61.6562 0.718865 61.6562C0.718924 61.6563 0.731955 61.6659 0.750115 61.6875C0.755015 61.6949 0.773685 61.7071 0.781365 61.7188C0.794335 61.736 0.812865 61.7503 0.812615 61.75C0.814915 61.7533 0.807515 61.7739 0.812615 61.7813C0.816615 61.7853 0.839975 61.7773 0.843865 61.7813C0.863825 61.8066 0.906255 61.8749 0.906365 61.875C0.908465 61.8773 1.02003 61.9887 1.00012 61.9688C0.980205 61.9488 1.09153 62.0604 1.09387 62.0625C1.09401 62.0626 1.18025 62.1511 1.18762 62.1562C1.19162 62.1603 1.21486 62.1523 1.21887 62.1562C1.22187 62.1593 1.24284 62.1806 1.25012 62.1875C1.26173 62.1952 1.27396 62.2138 1.28137 62.2188C1.30302 62.2369 1.31254 62.2499 1.31262 62.25C1.31264 62.25 1.37091 62.2591 1.40637 62.2812C1.41237 62.2867 1.42196 62.2992 1.43762 62.3125C1.44901 62.3196 1.46885 62.3437 1.46887 62.3438C1.47747 62.35 1.49046 62.3369 1.50012 62.3438C1.53392 62.3679 1.56257 62.4062 1.56262 62.4063C1.58575 62.4217 1.68622 62.468 1.68762 62.4688C1.68902 62.4695 1.73453 62.4922 1.75012 62.5C1.76571 62.5078 1.71585 62.4849 1.81262 62.5313C1.81297 62.5314 1.89934 62.5914 1.90637 62.5938C1.91337 62.5962 1.93212 62.5919 1.93762 62.5938C1.93912 62.5944 2.03942 62.6173 2.06262 62.625C2.06562 62.6261 2.21584 62.6866 2.21887 62.6875C2.22187 62.6884 2.3408 62.718 2.34387 62.7188C2.35545 62.7227 2.36426 62.7152 2.37512 62.7188C2.38052 62.7206 2.36832 62.7478 2.37512 62.75C2.38192 62.7522 2.49973 62.7499 2.50012 62.75C2.50882 62.7527 2.62531 62.7813 2.62512 62.7812C2.62497 62.7812 2.68172 62.778 2.71887 62.7812C2.74605 62.7861 2.78133 62.8125 2.78137 62.8125C2.78215 62.8126 2.86419 62.8125 2.87512 62.8125C2.88605 62.8125 2.92602 62.8125 2.93762 62.8125C2.96227 62.813 3.01397 62.8125 3.03137 62.8125C3.05456 62.8125 3.18606 62.8139 3.06262 62.8125L67.0626 62.8125C66.9392 62.8139 67.0707 62.8125 67.0939 62.8125C67.1171 62.8125 67.2173 62.8126 67.2189 62.8125C67.2247 62.8125 67.2447 62.8125 67.2501 62.8125C67.261 62.8125 67.3431 62.8126 67.3439 62.8125C67.3439 62.8125 67.3792 62.7861 67.4064 62.7812C67.4435 62.778 67.5003 62.7812 67.5001 62.7812C67.5081 62.7807 67.5327 62.7855 67.5626 62.7812C67.5728 62.778 67.5563 62.7521 67.5626 62.75C67.5921 62.7458 67.6251 62.75 67.6251 62.75C67.6338 62.7473 67.6548 62.7505 67.6564 62.75C67.6852 62.7424 67.745 62.7517 67.7501 62.75C67.7569 62.7478 67.7447 62.7206 67.7501 62.7188C67.761 62.7152 67.7698 62.7227 67.7814 62.7188C67.7845 62.718 67.9033 62.6884 67.9064 62.6875C67.9094 62.6866 68.0596 62.6261 68.0626 62.625C68.0858 62.6173 68.1862 62.5944 68.1876 62.5938C68.1931 62.5919 68.2118 62.5962 68.2189 62.5938C68.2259 62.5914 68.3123 62.5314 68.3126 62.5313C68.4094 62.4849 68.3595 62.5078 68.3751 62.5C68.3907 62.4922 68.4362 62.4695 68.4376 62.4688C68.439 62.468 68.5395 62.4217 68.5626 62.4063C68.5627 62.4062 68.5913 62.3679 68.6251 62.3438C68.638 62.3363 68.6493 62.3478 68.6564 62.3438C68.6564 62.3437 68.6762 62.3196 68.6876 62.3125C68.6944 62.3074 68.7059 62.2911 68.7189 62.2812C68.7543 62.2591 68.8126 62.25 68.8126 62.25C68.8128 62.2499 68.8678 62.1944 68.8751 62.1875C68.8924 62.1745 68.9067 62.156 68.9064 62.1562C68.9052 62.1573 68.953 62.1094 68.9376 62.125C68.963 62.105 69.0312 62.0626 69.0314 62.0625C69.0337 62.0604 69.145 61.9488 69.1251 61.9688C69.1052 61.9887 69.2167 61.8773 69.2189 61.875C69.219 61.8749 69.2614 61.8066 69.2814 61.7813C69.2892 61.7736 69.3046 61.758 69.3126 61.75C69.3156 61.747 69.3369 61.726 69.3439 61.7188C69.3568 61.7015 69.3776 61.6838 69.3751 61.6875C69.3933 61.6659 69.4063 61.6563 69.4064 61.6562C69.4064 61.6562 69.4155 61.598 69.4376 61.5625C69.4475 61.5496 69.4637 61.538 69.4689 61.5312C69.476 61.5199 69.5001 61.5 69.5001 61.5C69.5002 61.4999 69.4948 61.4806 69.5001 61.4688C69.5243 61.4349 69.5626 61.4063 69.5626 61.4062C69.5781 61.3831 69.6244 61.2826 69.6251 61.2813C69.6259 61.2798 69.6486 61.2343 69.6564 61.2188C69.6642 61.2032 69.6413 61.253 69.6876 61.1563C69.6878 61.1559 69.7477 61.0695 69.7501 61.0625C69.7525 61.0555 69.7483 61.0367 69.7501 61.0312C69.7495 61.0328 69.7577 60.9768 69.7501 61C69.7601 60.9726 69.7755 60.924 69.7814 60.9062C69.7825 60.9032 69.8429 60.753 69.8439 60.75C69.8448 60.747 69.8743 60.6281 69.8751 60.625C69.879 60.6134 69.8715 60.6046 69.8751 60.5938C69.8769 60.5884 69.9042 60.6005 69.9064 60.5938C69.9081 60.5887 69.8988 60.5289 69.9064 60.5C69.9069 60.4985 69.9037 60.4774 69.9064 60.4688C69.9103 60.4572 69.9022 60.4188 69.9064 60.4062C69.9142 60.3722 69.9376 60.3437 69.9376 60.3438C69.9376 60.3439 69.9343 60.2871 69.9376 60.25C69.9424 60.2228 69.9689 60.1875 69.9689 60.1875C69.969 60.1867 69.9689 60.1047 69.9689 60.0938C69.9689 60.0828 69.9689 60.0429 69.9689 60.0313C69.9694 60.0066 69.9689 59.9549 69.9689 59.9375C69.9688 59.9143 69.9703 59.7828 69.9689 59.9063L69.9689 57.9062C69.9703 58.0297 69.9688 57.8982 69.9689 57.875C69.9689 57.8576 69.9694 57.8059 69.9689 57.7812C69.9688 57.8044 69.9688 57.7484 69.9689 57.75C69.9689 57.7442 69.9689 57.7242 69.9689 57.7188C69.9689 57.7078 69.969 57.6258 69.9689 57.625C69.9689 57.625 69.9425 57.5897 69.9376 57.5625C69.9376 57.5561 69.9377 57.5418 69.9376 57.5313C69.9376 57.5259 69.9381 57.5134 69.9376 57.5C69.9374 57.4933 69.9387 57.4858 69.9376 57.4688C69.9374 57.4648 69.9392 57.4498 69.9376 57.4375C69.9338 57.4245 69.9392 57.4113 69.9376 57.4063C69.9368 57.4025 69.9072 57.4101 69.9064 57.4063C69.9022 57.3937 69.9103 57.3553 69.9064 57.3438C69.9063 57.3434 69.9086 57.2255 69.9064 57.2188C69.9042 57.212 69.8769 57.2241 69.8751 57.2188C69.8715 57.2079 69.879 57.1991 69.8751 57.1875C69.8743 57.1844 69.8448 57.0655 69.8439 57.0625C69.8429 57.0595 69.7825 56.9092 69.7814 56.9063C69.7755 56.8885 69.7601 56.8399 69.7501 56.8125C69.7577 56.8357 69.7495 56.7798 69.7501 56.7813C69.7483 56.7758 69.7525 56.757 69.7501 56.75C69.7477 56.743 69.6878 56.6566 69.6876 56.6562C69.6413 56.5595 69.6642 56.6093 69.6564 56.5938C69.6486 56.5782 69.6259 56.5326 69.6251 56.5312C69.6244 56.5299 69.5781 56.4294 69.5626 56.4062C69.5626 56.4062 69.5243 56.3776 69.5001 56.3438C69.4948 56.3319 69.5002 56.3126 69.5001 56.3125C69.4954 56.3061 69.4725 56.3175 69.4689 56.3125C69.4689 56.3125 69.4718 56.2851 69.4689 56.2813C69.4555 56.2656 69.4431 56.256 69.4376 56.25C69.4155 56.2145 69.4064 56.1563 69.4064 56.1563C69.4063 56.1562 69.3933 56.1466 69.3751 56.125C69.3776 56.1287 69.3568 56.111 69.3439 56.0938C69.3362 56.0821 69.3198 56.0733 69.3126 56.0625C69.3103 56.0592 69.3177 56.0386 69.3126 56.0312C69.3018 56.0188 69.2736 56.0236 69.2814 56.0312C69.2614 56.0059 69.219 55.9376 69.2189 55.9375C69.2168 55.9352 69.1052 55.8238 69.1251 55.8438C69.145 55.8637 69.0337 55.7521 69.0314 55.75C69.0312 55.7499 68.963 55.7075 68.9376 55.6875C68.9453 55.6953 68.9501 55.6671 68.9376 55.6563C68.9336 55.6522 68.9104 55.6603 68.9064 55.6563C68.9034 55.6533 68.8824 55.6319 68.8751 55.625C68.8678 55.6181 68.8128 55.5626 68.8126 55.5625C68.8126 55.5625 68.7543 55.5534 68.7189 55.5313C68.7129 55.5258 68.7033 55.5133 68.6876 55.5C68.6851 55.4979 68.663 55.5049 68.6564 55.5C68.6448 55.4914 68.642 55.4808 68.6251 55.4688C68.5913 55.4446 68.5627 55.4063 68.5626 55.4062C68.5395 55.3908 68.439 55.3445 68.4376 55.3438C68.4362 55.343 68.3907 55.3203 68.3751 55.3125C68.3595 55.3047 68.4094 55.3276 68.3126 55.2812C68.3123 55.2811 68.2259 55.2211 68.2189 55.2188C68.2119 55.2164 68.1931 55.2206 68.1876 55.2188C68.1891 55.2194 68.1332 55.2112 68.1564 55.2188C68.1289 55.2087 68.0804 55.1934 68.0626 55.1875C68.0596 55.1864 67.9094 55.1259 67.9064 55.125C67.9034 55.1241 67.7844 55.0945 67.7814 55.0938C67.7698 55.0898 67.761 55.0974 67.7501 55.0938C67.7447 55.0919 67.7569 55.0647 67.7501 55.0625C67.745 55.0608 67.6852 55.0701 67.6564 55.0625C67.6549 55.062 67.6338 55.0652 67.6251 55.0625C67.621 55.0612 67.5929 55.0694 67.5626 55.0625C67.5563 55.0604 67.5728 55.0345 67.5626 55.0313C67.5326 55.0245 67.5 55.0312 67.5001 55.0313C67.4903 55.0286 67.4434 55.0379 67.4064 55.0313C67.3792 55.0265 67.3439 55 67.3439 55C67.3431 54.9999 67.261 55 67.2501 55C67.2446 55 67.2246 55 67.2189 55C67.2173 54.9999 67.1171 55 67.0939 55C67.0707 55 66.9392 54.9986 67.0626 55L43.0626 55C46.753 54.242 50.0406 52.9992 52.7189 51.1875C57.1449 48.1935 60.0007 43.7043 59.9689 38.625C59.9209 30.9759 54.9683 26.1508 49.4689 23.875C44.0279 21.6234 37.9689 21.3125 34.0626 21.3125C30.683 21.2771 28.2728 20.434 26.8126 19.4688C25.348 18.5005 24.9689 17.4536 24.9689 17.0938C24.9689 15.5513 26.882 11.1875 34.9376 11.1875C39.565 11.1875 42.0288 12.3798 43.4064 13.5313C44.774 14.6744 45.1127 15.9543 45.1564 16.1875C45.166 16.2087 45.1765 16.2295 45.1876 16.25C45.1872 16.2483 45.2194 16.3454 45.2189 16.3438C45.2183 16.3421 45.2508 16.4391 45.2501 16.4375C45.3183 16.6831 45.2977 16.5729 45.2814 16.5C45.2744 16.4688 45.3075 16.62 45.2814 16.5312C46.1353 19.4278 49.0202 20.7812 51.6876 20.7812C53.0845 20.7812 54.5332 20.4735 55.7189 19.5938C56.9684 18.6666 57.7189 17.1767 57.7189 15.5625L57.7189 6.03125C57.7189 4.11434 56.5356 2.71164 55.4064 1.84375C54.2277 0.937813 52.6801 0.3125 50.9376 0.3125C49.7898 0.3125 48.46 0.460499 47.1876 1.15625C46.756 1.39226 46.5794 1.66418 46.3439 1.9375C45.3897 1.54414 44.4372 1.15661 43.1251 0.875C40.69 0.352372 37.8712 0 35.1876 0ZM22.7814 53.2812C24.5742 53.9907 26.3856 54.5844 28.2501 55L21.0314 55C21.331 54.8492 21.6529 54.8226 21.9376 54.5938C22.4134 54.2114 22.5441 53.7384 22.7814 53.2812Z"/>
  <path id="path4016" transform="translate(13.906, 20.0625)" fill="#ffffff" opacity="0.08000000000" d="M34.219 0C29.6625 0 24.1819 1.02979 19.594 3.53125C14.9939 6.03928 11.219 10.2924 11.219 16.1875C11.219 21.8758 14.8528 25.8829 19.2502 28.1563C23.633 30.422 28.8394 31.25 33.0002 31.25C36.8833 31.25 40.5987 31.7816 43.0627 32.875C44.3116 33.4292 45.1958 34.0697 45.7815 34.8125C46.3671 35.5553 46.6877 36.398 46.6877 37.5938C46.6877 39.9211 45.5476 41.3903 43.1252 42.6562C40.727 43.9096 37.0996 44.625 33.1565 44.625C28.8564 44.625 25.8325 43.219 23.844 41.5312C22.8586 40.6949 22.1501 39.738 21.6877 38.9062C21.2253 38.0745 21.0315 37.3216 21.0315 37.0312C21.0315 35.5199 20.0125 34.4312 19.0002 33.7812C17.9725 33.1214 16.702 32.75 15.3127 32.75C13.9652 32.75 12.72 33.097 11.7502 33.8438C10.7595 34.6066 10.1565 35.7738 10.1565 37.0312L10.1565 47.25C10.1564 47.2519 10.1564 47.2793 10.1565 47.2812C10.1563 47.2917 10.1563 47.3021 10.1565 47.3125C10.2058 48.7359 10.5011 50.277 11.4377 51.5938C12.4003 52.9471 14.0641 53.875 16.0315 53.875C17.5908 53.875 19.0934 53.8799 20.344 52.875C20.9184 52.4134 21.2135 51.7923 21.4377 51.1563C25.5974 52.8993 29.9173 53.875 34.469 53.875C41.2189 53.875 47.0087 52.2543 51.219 49.4063C55.4344 46.5547 58.061 42.3705 58.0315 37.6562C57.986 30.4176 53.3787 25.9865 48.1252 23.8125C42.8923 21.647 36.9439 21.3125 33.094 21.3125C29.5596 21.2754 26.9653 20.405 25.3127 19.3125C23.6576 18.2184 23.0315 16.9672 23.0315 16.125C23.0315 13.8591 25.5579 9.25 33.969 9.25C38.7655 9.25 41.493 10.5004 43.0627 11.8125C44.6325 13.1246 45.0707 14.5733 45.1565 15.0312C45.1651 15.0631 45.1755 15.0944 45.1877 15.125C45.1887 15.1284 45.2033 15.1718 45.219 15.2188C45.2257 15.2427 45.2432 15.2576 45.2502 15.2813C45.9586 17.6843 48.3721 18.8438 50.719 18.8438C51.9707 18.8438 53.1862 18.5637 54.1565 17.8438C55.1573 17.1012 55.7815 15.8973 55.7815 14.5938L55.7815 5.0625C55.7815 3.54745 54.843 2.42411 53.844 1.65625C52.8159 0.866084 51.4726 0.3125 49.969 0.3125C48.9021 0.3125 47.7587 0.445614 46.6877 1.03125C46.2519 1.26954 45.948 1.6874 45.6252 2.0625C44.559 1.59931 43.4236 1.16265 41.9377 0.84375C39.5678 0.335116 36.819 0 34.219 0ZM1.59396 40.9375C1.58836 40.9386 1.41193 40.9985 1.40646 41C1.40096 41.0015 1.25553 41.0292 1.25021 41.0312C1.24491 41.0333 1.09908 41.0913 1.09396 41.0938C1.08886 41.0963 0.973851 41.1846 0.968962 41.1875C0.964062 41.1904 0.817332 41.2779 0.812712 41.2812C0.808112 41.2846 0.692028 41.3713 0.687712 41.375C0.683412 41.3787 0.566691 41.4959 0.562712 41.5C0.558712 41.5041 0.441324 41.6206 0.437712 41.625C0.434112 41.6294 0.347182 41.7453 0.343962 41.75C0.340762 41.7547 0.253012 41.9013 0.250212 41.9062C0.247412 41.9111 0.190072 42.0573 0.187712 42.0625C0.185312 42.0677 0.0958618 42.2134 0.0939618 42.2188C0.0920618 42.2242 0.0641418 42.3695 0.0627118 42.375C0.0613118 42.3805 0.0324118 42.5256 0.0314618 42.5312C0.0305128 42.5369 0.000671768 42.7131 0.000211768 42.7188C-0.000247232 42.7245 0.000177768 42.8693 0.000211768 42.875L0.156462 58.9375C0.156498 58.9407 0.156273 59.0281 0.156462 59.0312C0.156651 59.0345 0.156121 59.1219 0.156462 59.125C0.156803 59.1281 0.187222 59.2156 0.187712 59.2188C0.188205 59.2219 0.187068 59.3094 0.187712 59.3125C0.188356 59.3156 0.218172 59.4032 0.218962 59.4063C0.219755 59.4094 0.249272 59.497 0.250212 59.5C0.251152 59.503 0.280382 59.5908 0.281462 59.5938C0.282562 59.5968 0.311482 59.6846 0.312712 59.6875C0.313912 59.6904 0.342592 59.7784 0.343962 59.7812C0.345362 59.7841 0.373712 59.841 0.375212 59.8438C0.376712 59.8466 0.436072 59.9348 0.437712 59.9375C0.439312 59.9402 0.498442 59.9974 0.500212 60C0.502012 60.0026 0.529572 60.0912 0.531462 60.0938C0.533362 60.0962 0.591952 60.1538 0.593962 60.1562C0.595962 60.1586 0.654332 60.2477 0.656462 60.25C0.658562 60.2523 0.716722 60.3103 0.718962 60.3125C0.721162 60.3147 0.779122 60.3729 0.781462 60.375C0.783762 60.3771 0.872772 60.4355 0.875212 60.4375C0.877612 60.4395 0.935172 60.4981 0.937712 60.5C0.940212 60.5019 1.02883 60.5295 1.03146 60.5313C1.03406 60.5331 1.09125 60.5921 1.09396 60.5938C1.09666 60.5954 1.18493 60.6548 1.18771 60.6563C1.19051 60.6577 1.24736 60.6861 1.25021 60.6875C1.25311 60.6889 1.34104 60.7175 1.34396 60.7188C1.34686 60.72 1.43474 60.7489 1.43771 60.75C1.44071 60.7511 1.52844 60.7803 1.53146 60.7812C1.53446 60.7822 1.62215 60.8117 1.62521 60.8125C1.62831 60.8133 1.71586 60.8431 1.71896 60.8438C1.72206 60.8444 1.80958 60.8433 1.81271 60.8438C1.81581 60.8442 1.90331 60.8747 1.90646 60.875C1.90956 60.8753 1.99705 60.8748 2.00021 60.875C2.00341 60.8752 2.0908 60.875 2.09396 60.875L66.094 60.875C66.0972 60.875 66.1846 60.8752 66.1877 60.875C66.1909 60.8748 66.2783 60.8753 66.2815 60.875C66.2846 60.8747 66.3721 60.8442 66.3752 60.8438C66.3783 60.8433 66.4659 60.8444 66.469 60.8438C66.4721 60.8431 66.5597 60.8133 66.5627 60.8125C66.5658 60.8117 66.6534 60.7822 66.6565 60.7812C66.6595 60.7803 66.7472 60.7511 66.7502 60.75C66.7532 60.7489 66.841 60.72 66.844 60.7188C66.8469 60.7176 66.9349 60.6889 66.9377 60.6875C66.9406 60.6861 66.9974 60.6577 67.0002 60.6563C67.003 60.6548 67.0913 60.5954 67.094 60.5938C67.0967 60.5922 67.1538 60.533 67.1565 60.5313C67.1591 60.5295 67.2477 60.5019 67.2502 60.5C67.2527 60.4981 67.3103 60.4395 67.3127 60.4375C67.3151 60.4355 67.4041 60.3771 67.4065 60.375C67.4088 60.3729 67.4667 60.3147 67.469 60.3125C67.4712 60.3103 67.5293 60.2523 67.5315 60.25C67.5336 60.2477 67.592 60.1587 67.594 60.1562C67.596 60.1539 67.6546 60.0963 67.6565 60.0938C67.6584 60.0913 67.6859 60.0026 67.6877 60C67.6895 59.9974 67.7486 59.9402 67.7502 59.9375C67.7518 59.9348 67.8112 59.8465 67.8127 59.8438C67.8142 59.841 67.8426 59.7841 67.844 59.7812C67.8454 59.7784 67.874 59.6904 67.8752 59.6875C67.8764 59.6846 67.9054 59.5967 67.9065 59.5938C67.9076 59.5907 67.9368 59.503 67.9377 59.5C67.9387 59.497 67.9682 59.4093 67.969 59.4063C67.9698 59.4031 67.9996 59.3156 68.0002 59.3125C68.0009 59.3094 67.9997 59.2219 68.0002 59.2188C68.0007 59.2157 68.0311 59.1282 68.0315 59.125C68.0318 59.1219 68.0313 59.0344 68.0315 59.0312C68.0317 59.0281 68.0314 58.9407 68.0315 58.9375L68.0315 56.9375C68.0314 56.9343 68.0317 56.8469 68.0315 56.8438C68.0313 56.8406 68.0318 56.7532 68.0315 56.75C68.0311 56.7469 68.0007 56.6594 68.0002 56.6562C67.9997 56.6531 68.0009 56.5656 68.0002 56.5625C67.9996 56.5594 67.9698 56.4718 67.969 56.4688C67.9682 56.4656 67.9387 56.378 67.9377 56.375C67.9368 56.372 67.9076 56.2842 67.9065 56.2813C67.9054 56.2783 67.8764 56.1904 67.8752 56.1875C67.874 56.1846 67.8453 56.0966 67.844 56.0938C67.8426 56.0909 67.8142 56.034 67.8127 56.0312C67.8112 56.0285 67.7519 55.9402 67.7502 55.9375C67.7486 55.9348 67.6895 55.8776 67.6877 55.875C67.6859 55.8724 67.6584 55.7838 67.6565 55.7812C67.6546 55.7788 67.596 55.7212 67.594 55.7188C67.592 55.7164 67.5336 55.6273 67.5315 55.625C67.5294 55.6227 67.4712 55.5647 67.469 55.5625C67.4668 55.5603 67.4088 55.5021 67.4065 55.5C67.4042 55.4979 67.3152 55.4395 67.3127 55.4375C67.3103 55.4355 67.2528 55.3769 67.2502 55.375C67.2477 55.3731 67.1591 55.3455 67.1565 55.3438C67.1539 55.342 67.0967 55.2829 67.094 55.2812C67.0913 55.2797 67.003 55.2202 67.0002 55.2188C66.9974 55.2173 66.9406 55.1889 66.9377 55.1875C66.9348 55.1861 66.8469 55.1575 66.844 55.1562C66.8411 55.1551 66.7532 55.1261 66.7502 55.125C66.7472 55.1239 66.6595 55.0947 66.6565 55.0938C66.6535 55.0928 66.5658 55.0633 66.5627 55.0625C66.5596 55.0617 66.4721 55.0319 66.469 55.0313C66.4659 55.0306 66.3783 55.0317 66.3752 55.0313C66.3721 55.0308 66.2846 55.0003 66.2815 55C66.2784 54.9997 66.1909 55.0002 66.1877 55C66.1845 54.9998 66.0971 55 66.094 55L6.03146 55L6.03146 42.9375C6.03143 42.9344 6.03164 42.8469 6.03146 42.8438C6.03128 42.8406 6.03179 42.7531 6.03146 42.75C6.03113 42.7469 6.00068 42.6593 6.00021 42.6562C5.99974 42.6532 6.00083 42.5655 6.00021 42.5625C5.99959 42.5595 5.96972 42.4718 5.96896 42.4688C5.9682 42.4657 5.93861 42.378 5.93771 42.375C5.93681 42.372 5.90751 42.2842 5.90646 42.2812C5.90546 42.2784 5.87639 42.2216 5.87521 42.2188C5.87401 42.2159 5.84528 42.1278 5.84396 42.125C5.84266 42.1222 5.81416 42.034 5.81271 42.0312C5.81131 42.0286 5.75179 41.9714 5.75021 41.9688C5.74861 41.9661 5.72066 41.8776 5.71896 41.875C5.71726 41.8724 5.65829 41.815 5.65646 41.8125C5.65466 41.81 5.5959 41.7212 5.59396 41.7188C5.59206 41.7164 5.53351 41.6586 5.53146 41.6562C5.52936 41.654 5.47112 41.596 5.46896 41.5938C5.46676 41.5915 5.40873 41.5334 5.40646 41.5312C5.40416 41.5292 5.34633 41.4708 5.34396 41.4688C5.34156 41.4668 5.28392 41.4081 5.28146 41.4062C5.27896 41.4044 5.19026 41.3455 5.18771 41.3438C5.18521 41.3419 5.12784 41.3142 5.12521 41.3125C5.12261 41.3108 5.03416 41.2515 5.03146 41.25C5.02876 41.2485 4.97173 41.2202 4.96896 41.2188C4.96616 41.2174 4.87805 41.1575 4.87521 41.1563C4.87241 41.1549 4.78435 41.1261 4.78146 41.125C4.77856 41.1239 4.7219 41.0947 4.71896 41.0938C4.71606 41.0928 4.6282 41.0634 4.62521 41.0625C4.62221 41.0616 4.53448 41.0632 4.53146 41.0625C4.52846 41.0618 4.44076 41.0318 4.43771 41.0312C4.43461 41.0307 4.34704 41.0004 4.34396 41C4.34086 40.9996 4.2533 41.0003 4.25021 41C4.24711 40.9997 4.15956 41.0001 4.15646 41L2.06271 40.9375C2.06051 40.9373 2.02888 40.9397 2.00021 40.9375C1.98587 40.9364 1.97007 40.9376 1.96896 40.9375C1.96566 40.9373 1.8473 40.9375 1.84396 40.9375C1.84066 40.9375 1.75354 40.9373 1.75021 40.9375C1.74691 40.9377 1.65978 40.9372 1.65646 40.9375C1.63564 40.9368 1.61479 40.9368 1.59396 40.9375Z"/>
  <path id="path4012" transform="translate(14.7812, 20.9375)" fill="#ffffff" opacity="0.15000000000" d="M33.3438 0C28.9237 0 23.542 1.02925 19.125 3.4375C14.708 5.84575 11.2188 9.78733 11.2188 15.3125C11.2188 20.6312 14.5751 24.3255 18.7813 26.5C22.9874 28.6745 28.0838 29.5 32.125 29.5C36.0831 29.5 39.87 30.0066 42.5313 31.1875C45.1925 32.3684 46.6875 34.0047 46.6875 36.7187C46.6875 39.3643 45.2502 41.2069 42.6563 42.5625C40.0623 43.9181 36.3268 44.625 32.2813 44.625C27.7863 44.625 24.5469 43.1293 22.4063 41.3125C20.2657 39.4957 19.2813 37.2595 19.2813 36.1562C19.2813 35.0338 18.536 34.221 17.6563 33.6562C16.7766 33.0915 15.6637 32.75 14.4375 32.75C13.2387 32.75 12.1879 33.0544 11.4063 33.6562C10.6247 34.2581 10.1563 35.1798 10.1563 36.1562L10.1563 46.375C10.1561 46.3854 10.1561 46.3958 10.1563 46.4062C10.202 47.7256 10.4843 49.0983 11.2813 50.2188C12.0782 51.3392 13.4602 52.125 15.1563 52.125C16.7062 52.125 17.9261 52.1001 18.9063 51.3125C19.3963 50.9187 19.7035 50.3628 19.875 49.75C19.9262 49.5672 19.9059 49.3203 19.9375 49.125C24.2947 51.1011 28.8074 52.125 33.5938 52.125C40.203 52.125 45.8161 50.537 49.8438 47.8125C53.8715 45.088 56.3088 41.1667 56.2813 36.7812C56.2381 29.9057 51.9496 25.837 46.9063 23.75C41.863 21.663 36.0146 21.3125 32.2188 21.3125C28.5439 21.274 25.7629 20.363 23.9375 19.1562C22.1121 17.9495 21.2813 16.486 21.2813 15.25C21.2813 12.3607 24.3568 7.5 33.0938 7.5C42.9936 7.5 44.91 12.6842 45.1563 14C45.1652 14.0317 45.1757 14.063 45.1875 14.0937C45.7421 16.0898 47.7553 17.0938 49.8438 17.0938C50.9564 17.0938 51.9689 16.8296 52.75 16.25C53.5312 15.6704 54.0313 14.7337 54.0313 13.7188L54.0313 4.1875C54.0313 3.02858 53.3266 2.15209 52.4375 1.46875C51.5484 0.785405 50.3824 0.3125 49.0938 0.3125C48.1096 0.3125 47.1078 0.451377 46.2188 0.9375C45.729 1.20531 45.2868 1.64605 44.9688 2.15625C43.8579 1.62718 42.5418 1.17023 40.875 0.8125C38.5671 0.317185 35.8702 0 33.3438 0ZM0.87502 40.9375C0.365084 41.034 -0.00308656 41.481 1.95056e-05 42L0.15627 58.0625C0.162914 58.6465 0.634742 59.1184 1.21877 59.125L65.2188 59.125C65.8028 59.1184 66.2746 58.6465 66.2813 58.0625L66.2813 56.0625C66.2746 55.4785 65.8028 55.0066 65.2188 55L4.28127 55L4.28127 42.0625C4.27519 41.4903 3.82181 41.0232 3.25002 41L1.09377 40.9375C1.02104 40.9301 0.947746 40.9301 0.87502 40.9375Z"/>
  <path id="path4006" transform="translate(15.8438, 22)" fill="#ffffff" opacity="0.20000000000" d="M32.2812 0C23.7856 0 11.2188 4.08544 11.2188 14.25C11.2188 24.0003 23.2912 27.375 31.0625 27.375C39.1552 27.375 46.6875 29.3697 46.6875 35.6562C46.6875 41.7817 39.5542 44.625 31.2188 44.625C21.7517 44.625 17.1562 38.3206 17.1562 35.0938C17.1562 33.9629 15.3978 32.75 13.375 32.75C11.3506 32.75 10.1562 33.8046 10.1562 35.0938L10.1562 45.3125C10.2372 47.649 11.3058 50 14.0938 50C17.0961 50 17.9688 49.5911 17.9688 46.5938C22.5922 48.9575 27.3843 50 32.5312 50C45.3986 50 54.2063 43.695 54.1562 35.7188C54.0753 22.8271 38.6022 21.3125 31.1562 21.3125C23.4697 21.2319 19.1562 17.5724 19.1562 14.1875C19.1562 10.5609 22.8879 5.375 32.0312 5.375C42.3158 5.375 44.8095 10.898 45.1562 12.75C45.5608 14.2062 46.9994 14.9688 48.7813 14.9688C50.644 14.9688 51.9063 14.0259 51.9063 12.6562L51.9063 3.125C51.9063 1.91645 50.035 0.3125 48.0313 0.3125C46.3321 0.3125 44.5809 0.951094 44.5 2.5625C42.8009 1.27338 37.1467 0 32.2812 0ZM0 40.9375L0.15625 57L64.1562 57L64.1562 55L2.15625 55L2.15625 41Z"/>
  <path id="path3052" transform="translate(15.8438, 21)" fill="url(#gradient5)" d="M32.2812 0C23.7856 0 11.2188 4.08544 11.2188 14.25C11.2188 24.0003 23.2912 27.375 31.0625 27.375C39.1552 27.375 46.6875 29.3697 46.6875 35.6562C46.6875 41.7817 39.5542 44.625 31.2188 44.625C21.7517 44.625 17.1562 38.3206 17.1562 35.0938C17.1562 33.9629 15.3978 32.75 13.375 32.75C11.3506 32.75 10.1562 33.8046 10.1562 35.0938L10.1562 45.3125C10.2372 47.649 11.3058 50 14.0938 50C17.0961 50 17.9688 49.5911 17.9688 46.5938C22.5922 48.9575 27.3843 50 32.5312 50C45.3986 50 54.2063 43.695 54.1562 35.7188C54.0753 22.8271 38.6022 21.3125 31.1562 21.3125C23.4697 21.2319 19.1562 17.5724 19.1562 14.1875C19.1562 10.5609 22.8879 5.375 32.0312 5.375C42.3158 5.375 44.8095 10.898 45.1562 12.75C45.5608 14.2062 46.9994 14.9688 48.7813 14.9688C50.644 14.9688 51.9063 14.0259 51.9063 12.6562L51.9063 3.125C51.9063 1.91645 50.035 0.3125 48.0313 0.3125C46.3321 0.3125 44.5809 0.951094 44.5 2.5625C42.8009 1.27338 37.1467 0 32.2812 0ZM0 40.9375L0.15625 57L64.1562 57L64.1562 55L2.15625 55L2.15625 41Z"/>
  <path id="path4022" transform="translate(15.8438, 21)" fill="#000000" opacity="0.50000000000" d="M32.2812 0C23.7856 0 11.2188 4.08544 11.2188 14.25C11.2188 14.4183 11.2429 14.5855 11.25 14.75C11.6578 4.95392 23.9273 1 32.2812 1C37.1467 1 42.8009 2.27338 44.5 3.5625C44.5809 1.95109 46.3321 1.3125 48.0313 1.3125C50.035 1.3125 51.9063 2.91645 51.9063 4.125L51.9063 3.125C51.9063 1.91645 50.035 0.3125 48.0313 0.3125C46.3321 0.3125 44.5809 0.951094 44.5 2.5625C42.8009 1.27338 37.1467 0 32.2812 0ZM19.1875 14.5C19.1579 14.7372 19.1562 14.9608 19.1562 15.1875C19.1562 18.5724 23.4697 22.2319 31.1562 22.3125C38.5164 22.3125 53.6974 23.796 54.125 36.2812C54.1335 36.0961 54.1574 35.9058 54.1562 35.7188C54.0753 22.8271 38.6022 21.3125 31.1562 21.3125C23.7099 21.2344 19.4478 17.7921 19.1875 14.5ZM13.375 32.75C11.3506 32.75 10.1562 33.8046 10.1562 35.0938L10.1562 36.0937C10.1562 34.8046 11.3506 33.75 13.375 33.75C15.3978 33.75 17.1562 34.9629 17.1562 36.0937C17.1562 39.3206 21.7517 45.625 31.2188 45.625C39.5542 45.625 46.6875 42.7817 46.6875 36.6562C46.6875 36.4819 46.6677 36.324 46.6562 36.1562C46.276 41.9352 39.323 44.625 31.2188 44.625C21.7517 44.625 17.1562 38.3206 17.1562 35.0938C17.1562 33.9629 15.3978 32.75 13.375 32.75ZM0 40.9375L0 41.9375L2.15625 42L2.15625 41ZM2.15625 55L2.15625 56L64.1562 56L64.1562 55Z"/>
 </g>
</svg>
