<?xml version="1.0" encoding="UTF-8" standalone="no"?>
<!-- Created with Inkscape (http://www.inkscape.org/) -->

<svg
   xmlns:dc="http://purl.org/dc/elements/1.1/"
   xmlns:cc="http://creativecommons.org/ns#"
   xmlns:rdf="http://www.w3.org/1999/02/22-rdf-syntax-ns#"
   xmlns:svg="http://www.w3.org/2000/svg"
   xmlns="http://www.w3.org/2000/svg"
   xmlns:xlink="http://www.w3.org/1999/xlink"
   xmlns:sodipodi="http://sodipodi.sourceforge.net/DTD/sodipodi-0.dtd"
   xmlns:inkscape="http://www.inkscape.org/namespaces/inkscape"
   width="512"
   height="512"
   id="svg3037"
   version="1.1"
   inkscape:version="0.48.5 r10040"
   sodipodi:docname="slackware-1.svg">
  <defs
     id="defs5498">
    <inkscape:perspective
       sodipodi:type="inkscape:persp3d"
       inkscape:vp_x="0 : 526.18109 : 1"
       inkscape:vp_y="0 : 1000 : 0"
       inkscape:vp_z="744.09448 : 526.18109 : 1"
       inkscape:persp3d-origin="372.04724 : 350.78739 : 1"
       id="perspective2752" />
    <inkscape:perspective
       sodipodi:type="inkscape:persp3d"
       inkscape:vp_x="0 : 526.18109 : 1"
       inkscape:vp_y="0 : 1000 : 0"
       inkscape:vp_z="744.09448 : 526.18109 : 1"
       inkscape:persp3d-origin="372.04724 : 350.78739 : 1"
       id="perspective2624" />
    <inkscape:perspective
       id="perspective2460"
       inkscape:persp3d-origin="512 : 108 : 1"
       inkscape:vp_z="1024 : 162 : 1"
       inkscape:vp_y="0 : 1000 : 0"
       inkscape:vp_x="0 : 162 : 1"
       sodipodi:type="inkscape:persp3d" />
    <linearGradient
       y2="375.87961"
       x2="113.64215"
       y1="416.38858"
       x1="70.491508"
       spreadMethod="pad"
       gradientTransform="translate(0,80)"
       gradientUnits="userSpaceOnUse"
       id="linearGradient3050"
       xlink:href="#linearGradient3431"
       inkscape:collect="always" />
    <linearGradient
       y2="408.57144"
       x2="116.42857"
       y1="362.14285"
       x1="61.42857"
       gradientTransform="matrix(2.7085493,0,0,2.7085493,543.08426,-420.26637)"
       gradientUnits="userSpaceOnUse"
       id="linearGradient3048"
       xlink:href="#linearGradient3312"
       inkscape:collect="always" />
    <linearGradient
       id="linearGradient3312">
      <stop
         id="stop3314"
         offset="0"
         style="stop-color:#c7f994;stop-opacity:1;" />
      <stop
         id="stop3316"
         offset="1"
         style="stop-color:#87cf3e;stop-opacity:1;" />
    </linearGradient>
    <linearGradient
       id="linearGradient3431">
      <stop
         style="stop-color:#3d3d3d;stop-opacity:1;"
         offset="0"
         id="stop3433" />
      <stop
         style="stop-color:#000000;stop-opacity:0.11400651;"
         offset="1"
         id="stop3435" />
    </linearGradient>
    <inkscape:perspective
       sodipodi:type="inkscape:persp3d"
       inkscape:vp_x="0 : 0.5 : 1"
       inkscape:vp_y="0 : 1000 : 0"
       inkscape:vp_z="1 : 0.5 : 1"
       inkscape:persp3d-origin="0.5 : 0.33333333 : 1"
       id="perspective2955" />
    <inkscape:perspective
       id="perspective2988"
       inkscape:persp3d-origin="372.04724 : 350.78739 : 1"
       inkscape:vp_z="744.09448 : 526.18109 : 1"
       inkscape:vp_y="0 : 1000 : 0"
       inkscape:vp_x="0 : 526.18109 : 1"
       sodipodi:type="inkscape:persp3d" />
    <linearGradient
       y2="375.87961"
       x2="113.64215"
       y1="416.38858"
       x1="70.491508"
       spreadMethod="pad"
       gradientTransform="translate(0,80)"
       gradientUnits="userSpaceOnUse"
       id="linearGradient3050-0"
       xlink:href="#linearGradient3431-9"
       inkscape:collect="always" />
    <linearGradient
       y2="408.57144"
       x2="116.42857"
       y1="362.14285"
       x1="61.42857"
       gradientTransform="matrix(2.7085493,0,0,2.7085493,543.08426,-420.26637)"
       gradientUnits="userSpaceOnUse"
       id="linearGradient3048-0"
       xlink:href="#linearGradient3312-3"
       inkscape:collect="always" />
    <linearGradient
       id="linearGradient3312-3">
      <stop
         id="stop3314-0"
         offset="0"
         style="stop-color:#c7f994;stop-opacity:1;" />
      <stop
         id="stop3316-1"
         offset="1"
         style="stop-color:#87cf3e;stop-opacity:1;" />
    </linearGradient>
    <linearGradient
       id="linearGradient3431-9">
      <stop
         style="stop-color:#3d3d3d;stop-opacity:1;"
         offset="0"
         id="stop3433-5" />
      <stop
         style="stop-color:#000000;stop-opacity:0.11400651;"
         offset="1"
         id="stop3435-9" />
    </linearGradient>
    <inkscape:perspective
       sodipodi:type="inkscape:persp3d"
       inkscape:vp_x="0 : 0.5 : 1"
       inkscape:vp_y="0 : 1000 : 0"
       inkscape:vp_z="1 : 0.5 : 1"
       inkscape:persp3d-origin="0.5 : 0.33333333 : 1"
       id="perspective2955-8" />
    <inkscape:perspective
       id="perspective2988-4"
       inkscape:persp3d-origin="372.04724 : 350.78739 : 1"
       inkscape:vp_z="744.09448 : 526.18109 : 1"
       inkscape:vp_y="0 : 1000 : 0"
       inkscape:vp_x="0 : 526.18109 : 1"
       sodipodi:type="inkscape:persp3d" />
  </defs>
  <sodipodi:namedview
     inkscape:window-height="1030"
     inkscape:window-width="1920"
     inkscape:pageshadow="2"
     inkscape:pageopacity="0.0"
     borderopacity="1.0"
     bordercolor="#666666"
     pagecolor="#ffffff"
     id="base"
     showgrid="false"
     showguides="true"
     inkscape:guide-bbox="true"
     inkscape:zoom="1"
     inkscape:cx="130.04248"
     inkscape:cy="140.64247"
     inkscape:window-x="0"
     inkscape:window-y="0"
     inkscape:current-layer="layer5"
     inkscape:snap-global="false"
     inkscape:window-maximized="1"
     fit-margin-top="0"
     fit-margin-left="0"
     fit-margin-right="0"
     fit-margin-bottom="0">
    <sodipodi:guide
       orientation="0,1"
       position="-34.980469,63.996094"
       id="guide3111" />
  </sodipodi:namedview>
  <metadata
     id="metadata5594">
    <rdf:RDF>
      <cc:Work
         rdf:about="">
        <dc:format>image/svg+xml</dc:format>
        <dc:type
           rdf:resource="http://purl.org/dc/dcmitype/StillImage" />
        <dc:title></dc:title>
      </cc:Work>
    </rdf:RDF>
  </metadata>
  <g
     inkscape:groupmode="layer"
     id="layer5"
     inkscape:label="Layer#1"
     style="display:inline">
    <path
       style="fill:#000000;fill-opacity:1;stroke:none"
       d="M 256,0 C 114.60936,0 0,114.60936 0,256 0,397.39064 114.60936,512 256,512 397.39064,512 512,397.39064 512,256 512,114.60936 397.39064,0 256,0 z m -12.99571,91.784224 c 12.92084,0 26.71405,1.631658 38.51743,4.164884 8.52457,1.829565 15.26821,4.152142 20.94972,6.857992 1.62637,-2.60935 3.88325,-4.862011 6.38825,-6.231683 4.54664,-2.48618 9.6532,-3.194132 14.68673,-3.194132 6.59033,0 12.58214,2.423654 17.1293,5.91853 4.54715,3.494835 8.14189,7.976755 8.14189,13.903855 l 0,48.72611 c 0,5.19054 -2.54951,10.00013 -6.54483,12.96441 -3.99479,2.96426 -9.18441,4.32147 -14.87461,4.32147 -10.6813,0 -20.99431,-5.13562 -23.83071,-15.34435 -0.0604,-0.157 -0.11058,-0.3389 -0.15657,-0.50104 -1.25967,-6.72943 -11.05964,-33.22519 -61.69053,-33.22519 -44.68394,0 -60.4066,24.83661 -60.4066,39.61345 0,6.32132 4.255,13.8075 13.59071,19.97896 9.3357,6.17198 23.54319,10.85728 42.33785,11.05419 19.413,0 49.33153,1.78974 75.12465,12.46337 25.79312,10.67361 47.72231,31.47467 47.94325,66.63828 0.14065,22.42892 -12.31304,42.4956 -32.91205,56.42961 -20.59902,13.93401 -49.30831,22.04575 -83.10997,22.04575 -24.47925,0 -47.54825,-5.23791 -69.83242,-15.34435 -0.16162,0.99883 -0.0826,2.25924 -0.34447,3.19413 -0.87709,3.13406 -2.44174,5.9713 -4.94777,7.98532 -5.01307,4.02806 -11.23806,4.1649 -19.16477,4.1649 -8.67442,0 -15.74676,-4.00886 -19.82238,-9.73896 -4.07612,-5.73062 -5.52823,-12.76139 -5.76196,-19.50924 -10e-4,-0.0532 -10e-4,-0.10341 0,-0.15657 l 0,-52.26471 c 0,-4.99364 2.39089,-9.69821 6.38827,-12.77652 3.99736,-3.0778 9.36984,-4.63462 15.50091,-4.63462 6.27119,0 11.97259,1.74654 16.47168,4.63462 4.49907,2.88858 8.32979,7.03618 8.32979,12.77652 0,5.64265 5.02289,17.07549 15.97064,26.36721 10.94773,9.29172 27.52213,16.94141 50.51106,16.94141 20.69004,0 39.781,-3.62015 53.04759,-10.55315 13.26607,-6.93299 20.60527,-16.34401 20.60527,-29.8745 0,-13.8803 -7.62129,-22.26923 -21.23157,-28.30874 -13.61077,-6.03953 -32.99242,-8.61162 -53.23547,-8.61162 -20.66805,0 -46.72395,-4.22322 -68.23535,-15.34434 -21.51191,-11.12113 -38.67401,-30.01087 -38.67401,-57.21248 0,-28.25758 17.83763,-48.43447 40.42765,-60.75108 22.59002,-12.316578 50.10752,-17.567696 72.7134,-17.567696 z M 77.504587,301.12489 c 0.186718,0 0.377764,0.0135 0.56367,0.0313 l 11.022875,0.31315 c 2.924315,0.11864 5.261568,2.49106 5.292233,5.41749 l 0,66.16856 311.646725,0 c 2.98677,0.0338 5.41304,2.46204 5.44881,5.44881 l 0,10.24 c -0.0342,2.98676 -2.46204,5.38172 -5.44881,5.41749 l -327.304219,0 c -2.986925,-0.0338 -5.413003,-2.43073 -5.448807,-5.41749 l -0.782875,-82.17052 c -0.0159,-2.65434 1.838724,-4.92396 4.446728,-5.41749 0.185983,-0.0179 0.376953,-0.0313 0.56367,-0.0313 z"
       id="path3822"
       inkscape:connector-curvature="0" />
  </g>
  <g
     inkscape:groupmode="layer"
     id="layer3"
     inkscape:label="Layer"
     style="display:inline" />
</svg>
