<?xml version="1.0" standalone="no"?>
<!DOCTYPE svg PUBLIC "-//W3C//DTD SVG 20010904//EN"
 "http://www.w3.org/TR/2001/REC-SVG-20010904/DTD/svg10.dtd">
<svg version="1.0" xmlns="http://www.w3.org/2000/svg"
 width="40.000000pt" height="40.000000pt" viewBox="0 0 40.000000 40.000000"
 preserveAspectRatio="xMidYMid meet">

<g transform="translate(0.000000,40.000000) scale(0.100000,-0.100000)"
fill="#000000" stroke="none">
<path d="M131 304 c-24 -30 -26 -45 -9 -62 15 -15 3 -16 -22 -2 -15 8 -17 15
-10 40 11 38 5 38 -15 0 -21 -40 -19 -49 10 -56 35 -9 31 -22 -10 -30 -35 -6
-35 -7 -34 -58 l1 -51 11 45 c10 37 17 46 37 48 l25 3 -24 -20 c-23 -18 -24
-21 -13 -59 7 -22 19 -45 27 -52 12 -10 11 -5 -2 29 -17 44 -11 61 29 82 18 9
19 7 12 -25 -7 -42 15 -86 44 -86 27 0 60 40 69 83 8 37 8 37 31 21 26 -18 23
-39 -11 -89 l-21 -30 26 24 c15 12 33 37 42 55 14 28 14 32 -1 43 -20 15 -11
28 13 19 13 -5 15 -15 11 -49 -5 -38 -4 -40 9 -23 8 11 14 28 14 37 0 10 3 24
6 32 4 10 -5 16 -31 21 -41 8 -39 21 5 31 29 6 30 9 24 43 -3 21 -10 41 -15
47 -6 5 -7 -4 -3 -24 6 -27 3 -37 -11 -48 -11 -7 -26 -13 -34 -13 -13 1 -13 3
2 15 15 10 17 21 12 44 -4 17 -10 33 -15 36 -5 3 -5 -8 0 -25 7 -26 5 -32 -20
-50 -35 -25 -36 -25 -43 0 -7 26 -41 26 -58 -1 l-14 -21 -25 21 c-24 20 -25
21 -8 50 21 38 16 40 -11 5z"/>
</g>
</svg>
