<svg clip-rule="evenodd" fill-rule="evenodd" stroke-linejoin="round" stroke-miterlimit="1.4142" version="1.1" viewBox="0 0 512 512" xml:space="preserve" xmlns="http://www.w3.org/2000/svg"><path d="m256 6a250 250 0 0 0-250 250 250 250 0 0 0 250 250 250 250 0 0 0 250-250 250 250 0 0 0-250-250zm104.94 116.99 64.375 32.188-64.375 32.186-32.48-16.312-2.498-1.1777-2.498-1.3223-9.4062-4.7031-2.793-1.3223-2.793-1.4688-11.904-5.8789 11.904-6.0273 2.793-1.3223 2.793-1.4687 46.883-23.369zm-104.79 0.14649 46.885 23.516-13.08 6.4668h-0.29492l-0.58789 0.58789s-0.14648-5.1e-4 -0.14648 0.14649-0.14649 0.2944-0.14649 0.4414c-0.147 0-0.14648 0.14649-0.14648 0.14649-0.147 0.147-0.14844 0.29389-0.14844 0.58789v16.021l-32.334 16.461-64.373-32.188 64.373-32.188zm-70.105 34.832 22.193 11.17 11.611 5.7324 30.568 15.285-61.875 31.012-2.498 1.1758-2.498-1.1758-0.73438-0.29492-61.289-30.717 62.023-31.012 2.498-1.1758zm107.44 1.0293 9.4062 4.7031 2.793 1.4707 2.791 1.4687 14.992 7.4961 4.9961 2.6445 29.982 14.992v64.373l-29.982-14.99v-14.697l0.14649-1.6172c0-0.294-0.14649-0.58738-0.14649-0.73438-0.147 0-0.14648-0.14648-0.14648-0.14648 0-0.147-0.00144-0.29441-0.14844-0.44141l-0.43945-0.44141c0 1e-5 5.1e-4 -0.14648-0.14649-0.14648 0 0 5.2e-4 -0.14844-0.14648-0.14844h-0.29492l-1.1758-0.58789-2.498-1.3223-29.982-14.99v-46.885zm134.92 0.14648v64.521l-49.971 24.984-2.791 1.3242-2.793 1.4688-9.4062 4.7031v-64.373l64.961-32.629zm-139.92 17.637v26.896l-26.895-13.521 26.895-13.375zm-32.48 16.168 2.498 1.3223 29.982 14.992 2.498 1.1758 2.5 1.3223 26.895 13.375-11.904 6.0254-2.791 1.3223-2.793 1.4687-44.387 22.193-2.498 1.1758-2.498-1.1758-32.48-16.314-29.395-14.695 61.875-30.865 2.498-1.3223zm-137.57 1.3223 61.875 30.865 2.9395 1.4688 0.29492 0.14648v2.5 61.875l-62.023-31.012-2.791-1.3223-0.29493-0.14649v-64.375zm70.105 34.98 31.307 15.578 30.568 15.285 2.793 1.4707 0.29492 0.14648v2.498 61.875l-32.48-16.312-29.395-14.697-2.793-1.3242-0.29492-0.14648v-64.373zm134.92 0v9.4043 2.793 2.793 46.885 2.498l-0.29492 0.14648-2.793 1.3242-61.875 31.01v-64.373l0.29492-0.14648 2.793-1.4707 46.883-23.369 2.793-1.4688 2.793-1.3242 9.4062-4.7012zm5.1426 17.342 31.305 15.727c0.147 0.147 0.14794 0.14649 0.29492 0.14649h0.14649c0.147 0.147 0.44089 0.14648 0.58789 0.14648s0.44181 0.00103 0.88281-0.29297h0.14649c0.147-0.147 0.14792-0.14648 0.29492-0.14648l16.312-8.2324 11.906 6.0273-61.877 31.01v-44.385zm-210.17 17.637 65.109 32.48v64.375l-65.109-32.482v-64.373zm274.99 0v64.373l-64.963 32.482v-64.375l64.963-32.48zm-204.88 34.98 61.875 30.863 2.793 1.4707 0.29492 0.14649v2.498 61.875l-61.875-30.865-2.793-1.4688-0.29492-0.14649v-64.373zm134.92 0v61.875 2.498l-0.29492 0.14649-2.793 1.4688-61.875 30.865v-64.373l0.29492-0.14649 2.793-1.4707 61.875-30.863z"/></svg>
