<?xml version="1.0" encoding="UTF-8" standalone="no"?><!DOCTYPE svg PUBLIC "-//W3C//DTD SVG 1.1//EN" "http://www.w3.org/Graphics/SVG/1.1/DTD/svg11.dtd"><svg width="100%" height="100%" viewBox="0 0 512 512" version="1.1" xmlns="http://www.w3.org/2000/svg" xmlns:xlink="http://www.w3.org/1999/xlink" xml:space="preserve" style="fill-rule:evenodd;clip-rule:evenodd;stroke-linejoin:round;stroke-miterlimit:1.41421;"><circle cx="256" cy="256" r="250" style="fill:#e95420;"/><path d="M288.481,176.782l-26.896,13.374l26.896,13.522l0,-26.896Z" style="fill:#fff;fill-rule:nonzero;"/><path d="M288.481,171.05l0,-16.02c0,-0.294 0,-0.441 0.147,-0.588c0,0 0,-0.147 0.147,-0.147c0,-0.147 0.147,-0.294 0.147,-0.441c0,-0.147 0.147,-0.147 0.147,-0.147l0.294,-0.294l0.147,-0.147l0.147,-0.147l0.294,0l13.08,-6.466l-46.884,-23.516l-64.374,32.187l64.374,32.187l32.334,-16.461l0,0Z" style="fill:#fff;fill-rule:nonzero;"/><path d="M118.434,328.604l65.109,32.481l0,-64.374l-65.109,-32.481l0,64.374Z" style="fill:#fff;fill-rule:nonzero;"/><path d="M180.309,225.136l-61.875,-30.864l0,64.374l0.294,0.146l2.792,1.323l62.023,31.011l0,-61.875l0,-2.499l-0.294,-0.146l-2.94,-1.47Z" style="fill:#fff;fill-rule:nonzero;"/><path d="M250.415,190.156l-30.57,-15.285l-11.611,-5.732l-22.193,-11.17l-2.498,1.176l-62.023,31.011l61.288,30.718l0.735,0.294l2.498,1.175l2.499,-1.175l61.875,-31.012Z" style="fill:#fff;fill-rule:nonzero;"/><path d="M328.457,361.085l64.962,-32.481l0,-64.374l-64.962,32.481l0,64.374Z" style="fill:#fff;fill-rule:nonzero;"/><path d="M360.938,262.614c-0.147,0 -0.441,0 -0.588,-0.147l-0.147,0c-0.147,0 -0.147,0 -0.294,-0.147l-31.305,-15.726l0,44.385l61.876,-31.011l-11.905,-6.026l-16.314,8.231c-0.147,0 -0.147,0 -0.294,0.147l-0.147,0c-0.441,0.294 -0.735,0.294 -0.882,0.294l0,0Z" style="fill:#fff;fill-rule:nonzero;"/><path d="M258.792,331.544l-0.293,0.147l0,64.374l61.875,-30.865l2.792,-1.469l0.294,-0.147l0,-2.499l0,-61.875l-61.875,30.864l-2.793,1.47Z" style="fill:#fff;fill-rule:nonzero;"/><path d="M250.415,330.074l-61.875,-30.864l0,64.374l0.294,0.147l2.792,1.469l61.875,30.865l0,-61.876l0,-2.498l-0.293,-0.147l-2.793,-1.47Z" style="fill:#fff;fill-rule:nonzero;"/><path d="M363.437,191.773l0,64.374l9.406,-4.703l2.793,-1.47l2.792,-1.323l49.971,-24.985l0,-64.521l-64.962,32.628Z" style="fill:#fff;fill-rule:nonzero;"/><path d="M328.457,226.459l0,14.697l29.983,14.991l0,-64.374l-29.983,-14.991l-2.498,-1.323l-2.499,-1.323l-14.991,-7.495l-2.792,-1.47l-2.793,-1.47l-9.406,-4.703l0,46.884l29.982,14.992l2.499,1.322l1.176,0.588l0.294,0c0.147,0 0.147,0.147 0.147,0.147c0.147,0 0.147,0.147 0.147,0.147l0.44,0.441c0.147,0.147 0.147,0.294 0.147,0.441c0,0 0,0.147 0.147,0.147c0,0.147 0.147,0.441 0.147,0.735l-0.147,1.617l0,0Z" style="fill:#fff;fill-rule:nonzero;"/><path d="M308.469,161.056l2.793,1.47l2.792,1.322l9.406,4.703l2.499,1.323l2.498,1.176l32.481,16.314l64.374,-32.187l-64.374,-32.187l-46.884,23.369l-2.792,1.469l-2.793,1.323l-11.905,6.026l11.905,5.879Z" style="fill:#fff;fill-rule:nonzero;"/><path d="M311.262,235.277l-2.793,1.47l-46.884,23.368l-2.793,1.47l-0.293,0.147l0,64.374l61.875,-31.011l2.792,-1.323l0.294,-0.147l0,-2.499l0,-46.884l0,-2.792l0,-2.793l0,-9.406l-9.406,4.703l-2.792,1.323Z" style="fill:#fff;fill-rule:nonzero;"/><path d="M253.208,261.585l-2.793,-1.47l-30.57,-15.285l-31.305,-15.579l0,64.374l0.294,0.147l2.792,1.323l29.395,14.697l32.48,16.314l0,-61.876l0,-2.498l-0.293,-0.147Z" style="fill:#fff;fill-rule:nonzero;"/><path d="M302.884,233.954l2.793,-1.47l2.792,-1.322l11.905,-6.026l-26.896,-13.375l-2.499,-1.322l-2.498,-1.176l-29.982,-14.991l-2.499,-1.323l-2.499,1.323l-61.875,30.864l29.395,14.697l32.48,16.314l2.499,1.176l2.499,-1.176l44.385,-22.193Z" style="fill:#fff;fill-rule:nonzero;"/></svg>
