<svg version="1.1" viewBox="0 0 571.37 518.26" xmlns="http://www.w3.org/2000/svg"><path d="m241.14 511.18c3.7832-3.9875 7.6248-8.0018 8.537-8.9206 5.0909-5.1278 21.031-27.158 26.468-36.579 1.0315-1.7875 2.2284-3.25 2.6599-3.25 0.43141 0 0.78439-0.48186 0.78439-1.0708 0-0.58894 2.025-3.9086 4.5-7.377 2.475-3.4684 4.5-6.8115 4.5-7.4292 0-0.61766 0.44143-1.123 0.98095-1.123s1.2633-1.125 1.6084-2.5c0.3451-1.375 0.99835-2.5 1.4517-2.5s1.1251-0.9481 1.4929-2.1069c0.36778-1.1588 1.3018-2.8463 2.0756-3.75 0.77378-0.9037 1.3648-2.0428 1.3133-2.5313-0.0515-0.4885 0.32753-1.1635 0.84223-1.5 0.5147-0.33649 2.4028-3.3118 4.1958-6.6118 1.793-3.3 3.9713-6.5625 4.8407-7.25s1.2391-1.25 0.82149-1.25c-0.41758 0 0.22051-1.3759 1.418-3.0576 1.1974-1.6817 2.4031-2.8316 2.6793-2.5554 0.27617 0.27616 1.6181-0.82413 2.9821-2.4451s2.9584-2.6515 3.5433-2.29c0.60496 0.37388 0.77214 0.18599 0.38782-0.43586-0.37155-0.60118-0.10358-1.4582 0.59549-1.9045 1.7569-1.1217 12.724-15.706 16.495-21.934 5.0204-8.2933 12.317-24.899 14.226-32.377 0.63189-2.475 1.4323-5.175 1.7788-6 0.70451-1.6776 0.64447-1.3179 2.1655-12.974 2.8072-21.511-0.61307-37.993-10.732-51.718-3.7289-5.0577-11.932-11.242-18.408-13.877-2.6104-1.0622-4.7479-2.2601-4.75-2.6622-7e-3 -1.4126 5.5896-2.1993 14.996-2.1081 8.183 0.0794 10.511 0.51253 16.795 3.1246 27.203 11.308 46.362 41.062 49.62 77.056 1.9251 21.271-6.8006 50.237-22.142 73.504-8.4579 12.827-15.122 20.756-27.684 32.938-12.435 12.059-43.225 35.717-46.484 35.717-0.51596 0-1.0881 0.36341-1.2714 0.80758-0.6266 1.5181-25.311 14.983-44.333 24.183-10.45 5.0541-20.194 9.8238-21.654 10.599-4.7449 2.5208-4.2846 1.5268 2.7046-5.8399zm207.1-43.283c-0.3578-2.6104-0.65055-6.8107-0.65055-9.3338s-0.65228-7.9729-1.4495-12.11c-0.79722-4.1376-2.3988-12.923-3.5592-19.523-4.241-24.123-10.157-45.471-19.042-68.708-4.7735-12.485-5.1317-14.29-6.3261-31.885-0.1715-2.5263-0.54787-5.0013-0.83638-5.5-0.2885-0.49871-0.83809-2.7068-1.2213-4.9068-5.2832-30.331-26.474-59.375-53.099-72.78-7.5322-3.7921-19.928-7.5847-29.145-8.9174-10.465-1.5131-25.621 0.0839-34.313 3.6159l-6.0085 2.4415 9e-3 -2.68c0.0129-3.6844 5.0492-12.146 9.6152-16.155 9.9547-8.7403 24.178-12.422 45.375-11.745 18.916 0.60428 32.985 4.1471 50.419 12.697 14.424 7.0734 24.763 14.554 37.581 27.191 18.98 18.714 30.731 41.485 37.582 72.832 2.4779 11.337 2.733 14.407 2.7419 33 0.0164 34.158-5.8774 61.999-22.701 107.23-3.833 10.306-4.2217 10.715-4.9728 5.2352zm-286.65-36.425c-15.214-1.4102-29.394-3.0668-34.5-4.0304-2.75-0.51902-7.025-1.2053-9.5-1.525-7.9356-1.0251-20.029-3.4326-21.791-4.3381-0.93985-0.48291-2.3153-0.66167-3.0565-0.39726-0.74121 0.26442-5.0162-0.45036-9.5-1.5884-8.3593-2.1217-20.555-4.9759-31.112-7.2813-3.2781-0.71584-6.7374-2.0788-7.6875-3.0289-1.1225-1.1225-1.8606-1.3278-2.1077-0.58646-0.42075 1.2622-11.403-0.90472-12.35-2.4368-0.28183-0.45601-1.4609-0.82911-2.6201-0.82911-4.0606 0-0.79907-1.2575 5.4338-2.095 12.175-1.636 29.313-4.9506 31.213-6.0369 1.0564-0.60409 3.9814-1.2391 6.5-1.4112 2.5186-0.17205 5.9173-1.0078 7.5526-1.8571 1.6354-0.84936 4.9034-1.8337 7.2623-2.1874 2.3589-0.35374 4.5394-1.0486 4.8457-1.5441 0.30625-0.49551 0.97571-0.64203 1.4877-0.32559 0.51199 0.31643 0.9309 0.14685 0.9309-0.37684 0-0.5237 2.7058-1.4288 6.0128-2.0113 3.3071-0.58253 7.0072-1.7556 8.2225-2.6068s3.208-1.5477 4.4281-1.5477 2.5011-0.45734 2.8466-1.0163 1.047-0.75742 1.559-0.44098c0.51199 0.31643 0.9309 0.10408 0.9309-0.47188s1.8-1.335 4-1.6868 4-0.96088 4-1.3535c0-0.98548 7.1179-3.0305 10.548-3.0305 1.5487 0 6.2215 0.86004 10.384 1.9112 17.755 4.4837 45.672 6.607 65.279 4.965 34.597-2.8973 56.762-11.174 80.006-29.876 3.076-2.475 6.0918-5.4 6.7018-6.5s2.9117-4.25 5.1149-7c7.0635-8.8165 13.149-23.13 14.557-34.237 0.63624-5.0206 0.77211-5.2129 3.2866-4.6518 10.194 2.2752 18.078 18.581 16.848 34.847-1.4385 19.021-10.718 37.61-26.899 53.884-7.2019 7.2435-8.4467 8.2284-21.775 17.228-17.508 11.822-40.102 19.686-70.05 24.382-9.3037 1.4588-45.546 2.1521-57 1.0904zm9.4141-65.52c-12.865-1.9674-24.187-4.9369-34.771-9.1198-46.946-18.552-87.201-59.281-115.54-116.9-7.755-15.768-17.449-39.502-18.622-45.593-0.21888-1.1365-0.71218-3.043-1.0962-4.2366-1.0363-3.2208-1.3052-6.6701-0.51999-6.6701 0.37934 0 1.432 0.86697 2.3393 1.9266 2.1343 2.4927 16.402 13.051 35.295 26.12 8.25 5.7066 15.225 10.651 15.5 10.988 0.275 0.33657 1.175 0.88587 2 1.2207 0.825 0.33478 9.3532 5.927 18.952 12.427l17.452 11.818 4.0651 8c6.8744 13.529 11.349 19.567 23.122 31.208 17.794 17.594 39.663 30.873 63.943 38.826 15.386 5.04 26.672 6.87 42.467 6.886 22.988 0.0232 37.519-4.4293 55.878-17.122l6.3785-4.4098-0.4585 5.3063c-1.8208 21.072-26.462 40.518-60.69 47.893-12.58 2.7107-42.339 3.4773-55.695 1.4347zm395.56-41.349c-14.894-15.72-56.776-51.142-76.721-64.887-2.8875-1.9898-5.25-3.9931-5.25-4.4517s-0.61364-0.83378-1.3636-0.83378-2.4375-1.0311-3.75-2.2914-5.021-3.8478-8.2411-5.75-8.3466-5.6292-11.392-8.2821c-32.321-28.154-85.358-45.317-128.82-41.687-20.289 1.6944-37.169 7.8865-49.52 18.165-6.2963 5.2398-14.022 14.875-16.485 20.558-0.78361 1.8083-2.1677 4.9753-3.0757 7.0378l-1.651 3.75-1.8244-4.1069c-12.768-28.741 0.30939-54.425 36.606-71.893 13.509-6.5016 22.561-9.6094 37.52-12.883 42.395-9.2765 83.822-1.9562 118.5 20.939 14.095 9.3061 34.542 27.957 47.563 43.385 2.9902 3.543 6.4338 7.3233 7.6525 8.4007s2.0088 2.294 1.7558 2.7035c-0.25309 0.4095 0.13945 0.97463 0.8723 1.2558 0.73286 0.28122 4.6495 5.1659 8.7037 10.855 4.0542 5.6889 8.852 12.19 10.662 14.446 1.8098 2.2566 3.2906 4.346 3.2906 4.643 0 0.29697 3.2625 5.4344 7.25 11.416 10.35 15.528 13.154 20.037 17.334 27.886 2.0368 3.8236 4.2415 7.627 4.8994 8.452 2.0609 2.5842 10.632 17.218 10.287 17.563-0.18073 0.18072-2.3405-1.795-4.7996-4.3905zm-361.97-6.0926c-46.773-6.8152-89.053-42.775-102.5-87.181-7.049-23.272-7.891-60.116-1.9516-85.398 0.77523-3.3 1.6216-7.125 1.8809-8.5 0.84167-4.4636 1.3759-6.4473 2.5585-9.5 0.63919-1.65 1.3132-4.35 1.4979-6s1.0316-4.9125 1.8823-7.25c0.85062-2.3375 1.2864-4.25 0.96849-4.25-0.31795 0-0.0769-0.6039 0.53568-1.342 0.61257-0.7381 0.81767-1.6381 0.45578-2-0.3619-0.36189-0.0848-0.65799 0.61566-0.65799 0.7213 0 1.024-0.65052 0.69805-1.5-0.31658-0.825-0.13972-1.5 0.39301-1.5 0.53274 0 0.96862-0.641 0.96862-1.4244s1.4042-4.9312 3.1204-9.2172c1.7162-4.286 3.2003-8.2575 3.2981-8.8256 0.0977-0.56806 0.73443-2.0453 1.4148-3.2828s0.88375-2.2569 0.4519-2.2653c-0.43185-0.0084-0.32276-0.34592 0.24242-0.75 1.2421-0.88803 5.0743-9.3799 4.7224-10.464-0.1375-0.42369 0.22656-0.77035 0.80902-0.77035s0.7809-0.45 0.44098-1-0.14148-1 0.44098-1 1.059-0.9 1.059-2 0.47656-2 1.059-2 0.80332-0.41372 0.49081-0.91938c-0.31252-0.50566 0.0895-1.5771 0.89336-2.381 0.80386-0.80386 1.183-1.7401 0.84252-2.0806-0.34047-0.34048-0.0675-0.61905 0.60664-0.61905 0.67413 0 0.94757-0.45 0.60765-1s-0.0665-1 0.60765-1c0.67413 0 0.96408-0.2616 0.64435-0.58134-0.31974-0.31973 0.39276-2.0204 1.5833-3.7792s3.2897-5.4347 4.6647-8.1687 2.7354-5.1958 3.0231-5.4708c0.98644-0.94289 3.6954-5.4998 3.7696-6.3411 0.0408-0.46259 0.79786-1.3703 1.6824-2.017 1.5512-1.1343 3.0213-3.354 5.7232-8.6419 0.70257-1.375 1.9579-3.0482 2.7896-3.7182 0.83171-0.67001 1.2088-1.2325 0.83787-1.25-0.37089-0.01749 0.17907-1.0443 1.2221-2.2818 1.043-1.2375 3.484-4.2051 5.4243-6.5946 1.9403-2.3895 3.5253-3.9645 3.5221-3.5-3e-3 0.46454-0.47035 3.5446-1.0381 6.8446-0.56779 3.3-1.2392 8.025-1.492 10.5-0.25282 2.475-0.90802 7.875-1.456 12-0.54797 4.125-2.5684 24.825-4.49 46-1.9215 21.175-4.1946 42.325-5.0514 47-0.85675 4.675-2.2046 12.1-2.9951 16.5-2.1074 11.729-4.4716 38.271-4.4716 50.2 0 19.003 3.4704 41.485 8.4692 54.867 15.574 41.691 49.989 65.215 95.832 65.504l11.199 0.0706-4.5 2.0056c-9.8261 4.3793-21.999 6.8893-35.5 7.3197-7.15 0.22796-15.475 0.0538-18.5-0.38691zm30.5-28.54c-26.624-6.8724-49.643-25.937-63.829-52.865-14.201-26.957-17.129-58.891-7.9932-87.175 2.2319-6.9094 9.7122-22.999 11.388-24.495 0.31124-0.27782 2.2254-2.9801 4.2536-6.0051 5.2236-7.7907 6.2448-9 7.5998-9 0.65933 0 0.92066-0.45 0.58074-1s-0.14148-1 0.44098-1 1.059-0.9 1.059-2 0.57566-2 1.2792-2 1.9411-0.98126 2.75-2.1806 3.3833-4.1362 5.7208-6.5263c2.3375-2.3902 4.25-4.7839 4.25-5.3194 0-0.53552 0.57499-0.97368 1.2778-0.97368s1.9682-0.7875 2.8121-1.75 3.8273-3.775 6.6298-6.25c21.974-19.406 58.134-38.704 98.474-52.556 29.754-10.217 76.807-23.327 76.807-21.402 0 0.4221-2.0859 2.0477-4.6354 3.6125-2.5494 1.5648-5.812 3.6276-7.25 4.584-1.438 0.95644-3.2896 2.0563-4.1146 2.444-0.825 0.38778-2.0946 1.2927-2.8214 2.011-0.72678 0.71828-2.1342 1.306-3.1276 1.306s-2.3519 0.65757-3.0189 1.4613-2.0549 1.7286-3.0842 2.0552c-1.5009 0.47637-11.08 6.5116-22.948 14.458-6.4449 4.3152-24.47 17.1-27.529 19.526-10.718 8.4993-17.428 14.105-21.649 18.087-2.5728 2.4273-4.8979 4.4132-5.1669 4.4132s-3.339 2.9826-6.8222 6.628c-3.4832 3.6454-10.756 9.9886-16.162 14.096-20.234 15.374-39.655 37.837-48.947 56.612-5.021 10.145-10.111 25.682-11.685 35.664-1.5273 9.6897-1.2818 31.718 0.44503 39.927 4.828 22.952 17.819 41.945 36.257 53.007 7.1183 4.2709 6.9094 4.7091-1.2419 2.605zm0.89264-29.961c-10.9-7.3408-19.471-19.722-22.871-33.039-1.7577-6.8848-1.973-21.138-0.46143-30.54 0.5748-3.575 2.5695-11 4.4326-16.5 2.9971-8.8476 5.4835-14.045 13.815-28.876 3.3303-5.9286 16.851-21.697 23.668-27.603 6.7488-5.8466 24.739-18.021 26.629-18.021 0.66386 0 2.937-0.86233 5.0515-1.9163 10.173-5.0708 39.994-12.293 56.844-13.767 16.303-1.4263 71.54-0.6098 73.232 1.0825 0.33062 0.33062 1.9112 0.60113 3.5125 0.60113 3.2966 0 22.785 3.3302 31.813 5.4363 3.2901 0.76753 6.0856 1.3881 6.2124 1.379 0.43271-0.031 12.224 3.3147 14.73 4.1796 22.85 7.8856 38.232 15.109 49.323 23.162 7.9783 5.7934 13.208 10.646 12.373 11.481-0.55234 0.55235-14.507-0.93804-24.695-2.6376-3.025-0.50459-10.225-1.3951-16-1.9788s-17.25-1.7616-25.5-2.6174c-30.237-3.1365-79.754-2.8434-98 0.5802-2.75 0.516-8.6 1.4344-13 2.041-30.992 4.2723-72.201 20.825-91.5 36.754-21.714 17.922-30.937 35.755-30.983 59.905-0.0187 9.9182 1.727 19.989 4.923 28.401 1.1067 2.9125 1.8855 5.4222 1.7307 5.5769s-2.5301-1.2329-5.2785-3.0838z"/></svg>
