<?xml version="1.0" encoding="UTF-8"?>
<svg version="1.1" viewBox="0 0 48 48" xmlns="http://www.w3.org/2000/svg">
 <path d="m27.6 1.6c-0.133 0.00392-0.248 0.0113-0.34 0.0215-1.51 0.152-2.97 0.619-4.42 1.04-1.48 0.444-2.92 1.04-4.3 1.78-1.04 0.549-2.47 1.53-3.07 2.55-0.386 0.619-0.361 1.53 0.234 1.95 0.14 0.117 0.338 0.199 0.526 0.246 1.74 0.421 4.68-1.59 6-2.23 1.69-0.829 3.46-1.46 5.17-2.23 0.654-0.292 2.8-0.97 2.82-1.93 0.041-1.04-1.7-1.22-2.63-1.19zm13 1.23c-1.59-0.0132-3.21 0.205-4.74 0.322-2.79 0.21-5.63 1.17-8.1 2.34-0.292 0.152-0.597 0.292-0.889 0.467-0.678 0.386-1.3 0.806-1.76 1.33-1.57 1.85-0.592 3.2 1.08 3.98 0.013 2.17-1.35 3.86-3.11 5.19-2.37 1.8-5.1 3.07-7.7 4.53-4 2.28-8.13 5.67-9.2 10.3-1.38 0.593-2.87 1.04-4.29 1.56-0.302 0.105-1.87 0.714-1.88 0.721-1e-4 2.3e-5 -0.01 0.0039-0.01 0.0039l0.01 0.0039v3.66l24 9.16 24-9.16v-3.67c-0.103-0.0451-0.183-0.0556-0.287-0.102-3.52-1.34-6.93-2.57-10.4-3.95-2.56-1.02-5.22-1.81-7.94-1.85-0.909-0.0124-1.83 0.0592-2.75 0.234-2.04 0.409-4 1.17-6.03 1.51-1.75 0.269-3.43-0.279-5.23-0.256-2.32 0.0347-4.65 0.487-6.87 1.24 1.27-3.22 4.33-5.55 7.44-7.42 0.093 0.061 0.205 0.109 0.338 0.137 5.33 1.11 10.9 0.0452 15.4-2.85 1.08-0.162 2.14-0.437 3.16-0.822 0.514-0.187 1.04-0.443 1.25-0.957 0.049-0.123 0.071-0.256 0.068-0.387 1.35-0.39 2.65-0.989 3.81-1.74 0.362-0.234 0.76-0.595 0.701-1.04-0.082-0.526-0.76-0.701-1.32-0.678-3.14 0.0467-6.32 0.829-9.05 2.42-0.028 0.0154-0.056 0.0317-0.084 0.0488-1 0.315-1.98 0.728-2.89 1.21-0.514 0.28-1.09 0.748-0.936 1.3 0.125 0.427 0.612 0.611 1.06 0.688-2.84 1.13-5.94 1.57-9 1.23 0.288-0.158 0.585-0.326 0.863-0.479 3.79-2.07 8.4-4.68 8.78-9.15 0.76 0.152 1.53 0.218 2.2 0.184 0.223-0.0115 0.447-0.0267 0.672-0.043 0 0.0105 0 0.0206 0.01 0.0312 0.222 0.759 0.899 1.34 1.66 1.59 0.759 0.245 1.59 0.234 2.37 0.188 2.85-0.187 5.67-0.853 8.29-1.95 0.537-0.21 1.04-0.443 1.43-0.863 0.35-0.432 0.55-1.04 0.293-1.55-0.315-0.619-1.1-0.781-1.78-0.805-0.46-0.02-0.913 0.00579-1.36 0.0527 0.061-0.0415 0.124-0.0806 0.184-0.123 0.876-0.643 2.86-1.81 3.35-2.68 0.654-1.16-0.725-2.37-1.97-2.71-0.907-0.245-1.85-0.338-2.81-0.346zm-19 7.25c-1.95-0.0317-4.89 2.17-5.57 3.49-0.911 1.8 1.57 2.9 3.05 2.37 1.53-0.526 3.82-2.4 4.08-4.09 0.082-0.549-0.105-1.19-0.596-1.51-0.272-0.179-0.598-0.262-0.959-0.268zm-7.88 1.86c-1.19-0.0201-3.07 1.76-3.62 2.28-0.97 0.888-0.934 1.67 0.654 1.67 1.32-0.0234 2.7-0.9 3.48-1.85 0.292-0.362 0.548-0.806 0.42-1.23-0.158-0.624-0.5-0.868-0.932-0.875zm26.9 7.17c-2.28 0.0612-5.54 1.59-6.52 2.22-0.526 0.339-1.09 0.852-0.969 1.46 0.105 0.654 0.887 0.959 1.56 1.04 1.65 0.21 9.35-0.631 8.12-3.67-0.325-0.803-1.16-1.08-2.2-1.05z"/>
</svg>
