<?xml version="1.0" encoding="UTF-8"?>
<svg width="48" height="48" enable-background="new 1589.1 -0.1 410.9 383.1" version="1.1" viewBox="1589.1 -.1 77.165 77.165" xmlns="http://www.w3.org/2000/svg">
 <g transform="matrix(1.995 0 0 1.995 -1952.5 -343.46)" fill="#000000">
  <polygon transform="matrix(.09413 0 0 .09413 1625.6 173.42)" points="1794.4 383 1589.1 304.6 1589.1 273.2 1794.4 291.5 1999.9 273.2 1999.9 304.6"/>
  <path d="m1794.5 206.5-19.325-7.361s1.2802-0.49889 1.5249-0.58361c1.1484-0.42359 2.3533-0.78128 3.464-1.2614 2.3062-1.026 4.8383-1.6755 7.361-1.7132 1.4496-0.0188 2.8051 0.42359 4.2171 0.20709 1.6378-0.27298 3.2098-0.88483 4.8571-1.2143 2.9745-0.56478 5.8643 0.20708 8.6129 1.299 2.8239 1.1107 5.5725 2.0991 8.4059 3.1816 0.085 0.0376 0.1506 0.0471 0.2353 0.0847z" stroke-width=".09413"/>
  <g transform="matrix(.09413 0 0 .09413 1625.6 173.42)">
   <g fill="#000000">
    <path d="m1656.3 277.2c-2.5-57 55.2-87.7 97.8-111.1 37.2-20.3 83.7-46.8 74.1-96.4-2-10.3-17.8-6-15.8 4.4 4.4 22.7-8.5 39.9-25.8 53-20.3 15.4-43.7 26.3-65.9 38.8-40.8 23.2-83.1 59.9-81 111.3 0.8 10.5 17.1 10.5 16.6 0z" fill="#000000"/>
   </g>
  </g>
  <g transform="matrix(.09413 0 0 .09413 1625.6 173.42)">
   <g fill="#000000">
    <path d="m1728 183.7c56.6 11.8 116.4-5.1 158.3-45 7.6-7.3-4-18.9-11.6-11.6-37.4 35.8-91.7 51.4-142.3 40.8-10.4-2-14.8 13.6-4.4 15.8z" fill="#000000"/>
   </g>
  </g>
  <g transform="matrix(.09413 0 0 .09413 1625.6 173.42)">
   <path d="m1727.8 64.8c14.9 3.6 40.1-13.6 51.4-19.1 14.5-7.1 29.6-12.5 44.3-19.1 5.6-2.5 24-8.3 24.1-16.5 0.4-10.2-19.1-10.7-25.4-10-12.9 1.3-25.4 5.3-37.8 8.9-12.7 3.8-25 8.9-36.8 15.2-8.9 4.7-21.1 13.1-26.3 21.8-3.3 5.3-3.1 13.1 2 16.7 1.2 1 2.9 1.7 4.5 2.1z"/>
   <path d="m1819.1 37.2c2.5-1.5 5.1-2.7 7.6-4 21.1-10 45.4-18.2 69.3-20 20.9-1.6 43.9-5.4 64.6 0.2 10.7 2.9 22.5 13.3 16.9 23.2-4.2 7.4-21.2 17.4-28.7 22.9-27.4 19.4-65.7 28-100.7 29.8-25.4 1.3-67.3-13.3-44.1-40.7 4-4.5 9.3-8.1 15.1-11.4z"/>
   <path d="m1958.9 60.1c5.8 0.2 12.5 1.6 15.2 6.9 2.2 4.4 0.5 9.6-2.5 13.3-3.3 3.6-7.6 5.6-12.2 7.4-22.5 9.4-46.6 15.1-71 16.7-6.7 0.4-13.8 0.5-20.3-1.6s-12.3-7.1-14.2-13.6c-4-15.1 29-20 37.9-21.6s17.8-2.7 26.7-3.1c13.5-1 26.6-5 40.4-4.4z"/>
   <path d="m1955.6 158.8c-8.9-22-62.4 2.2-74.6 10-4.5 2.9-9.3 7.3-8.3 12.5 0.9 5.6 7.6 8.2 13.4 8.9 14.1 1.8 80-5.4 69.5-31.4z"/>
   <path d="m1787.5 87.7c-2.2 14.5-21.8 30.5-34.9 35-12.7 4.5-33.9-4.9-26.1-20.3 6.9-13.4 41-37.4 55.9-27.6 4.2 2.7 5.8 8.2 5.1 12.9z"/>
   <path d="m1825.1 159.9c20.9 2.5 42.3-0.2 61.9-7.6 4.4-1.6 8.9-3.8 10.7-8.2 1.3-3.3 0.4-7.3-2.2-9.6-2.5-2.4-6.5-3.1-9.6-1.6-5.8-6.4-16-5.8-24.5-4.2-13.4 2.7-26.7 7.6-38.8 14-4.4 2.4-9.3 6.4-8 11.1 1.2 4.1 6.3 5.6 10.5 6.1z"/>
   <path d="m1849.4 143c27.6 6.2 57.9-1.8 81.5-17.1 3.1-2 6.5-5.1 6-8.9-0.7-4.5-6.5-6-11.3-5.8-26.9 0.4-54.1 7.1-77.5 20.7-2.7 1.5-5.6 4-4.9 6.9 0.8 2.6 3.7 3.7 6.2 4.2z"/>
   <path d="m1711.1 106.4c2.5-3.1 4.7-6.9 3.6-10.5-5.1-20.1-32.5 6-39 12-8.3 7.6-8 14.3 5.6 14.3 11.3-0.2 23.1-7.7 29.8-15.8z" fill="#000000"/>
  </g>
 </g>
</svg>
