<?xml version="1.0" encoding="UTF-8"?>
<svg version="1.1" viewBox="0 0 48 48" xmlns="http://www.w3.org/2000/svg">
 <g transform="matrix(.476 0 0 .476 .575 -4.7)" fill="#000000">
  <path d="m88.3 56.7v16.7c0 0.51-0.341 0.644-0.761 0.297l-8.5-7.04c-0.419-0.347-0.76-1.04-0.76-1.55v-2.1l-2.66-2.16c-2.85-2.32-5.13-7.02-5.13-10.5 0-3.44 2.3-4.34 5.13-2l2.66 2.16v-2.1c0-0.51 0.341-0.644 0.76-0.297l8.5 7.04c0.421 0.346 0.761 1.04 0.761 1.55zm-12.5-5.3c-1.5-1.24-2.72-0.762-2.72 1.06 0 1.82 1.22 4.3 2.72 5.54l2.51 2.04v-6.6l-2.51-2.04z"/>
  <g transform="matrix(.464 .927 -.927 .464 77.3 -14.9)">
   <path d="m98 37.8c-4e-3 -0.021-8e-3 -0.042-0.013-0.063-0.016-0.068-0.036-0.135-0.062-0.199-3e-3 -8e-3 -5e-3 -0.016-8e-3 -0.023-0.03-0.069-0.067-0.135-0.107-0.198-0.011-0.018-0.024-0.034-0.036-0.051-0.035-0.05-0.074-0.097-0.116-0.141-0.011-0.012-0.021-0.024-0.033-0.036-0.053-0.052-0.111-0.1-0.173-0.143-0.015-0.011-0.032-0.019-0.048-0.029-0.031-0.019-0.06-0.04-0.092-0.057l-0.545-0.284-24.9 11.1-46.6-23.4-0.666 0.33c-6e-3 3e-3 -0.01 7e-3 -0.016 0.01-0.047 0.024-0.09 0.055-0.134 0.084-0.029 0.019-0.06 0.036-0.087 0.057-0.034 0.027-0.063 0.059-0.094 0.09-0.031 0.03-0.065 0.059-0.093 0.092-0.022 0.026-0.039 0.056-0.06 0.084-0.031 0.043-0.063 0.086-0.088 0.132-3e-3 5e-3 -7e-3 0.01-0.01 0.015-0.015 0.028-0.022 0.057-0.035 0.085-0.02 0.046-0.041 0.09-0.056 0.138-0.013 0.041-0.02 0.082-0.029 0.123-9e-3 0.043-0.019 0.085-0.024 0.128s-4e-3 0.085-5e-3 0.127c-1e-3 0.044-3e-3 0.087 1e-3 0.13 2e-3 0.023 5e-3 0.046 9e-3 0.069-6e-3 0.051-0.015 0.1-0.015 0.152l4e-3 15.6 3.36-1.57 36.4 18.1-25.1 11.1-35.9-18c-0.012-6e-3 -0.025-9e-3 -0.038-0.014-0.042-0.02-0.086-0.035-0.131-0.05-0.04-0.014-0.08-0.028-0.121-0.038-0.038-9e-3 -0.078-0.014-0.117-0.019-0.049-7e-3 -0.098-0.014-0.148-0.015-0.013 0-0.024-4e-3 -0.037-4e-3 -0.025 0-0.049 6e-3 -0.074 7e-3 -0.05 4e-3 -0.099 7e-3 -0.148 0.016-0.04 7e-3 -0.079 0.017-0.118 0.027-0.043 0.011-0.085 0.024-0.127 0.039-0.039 0.015-0.077 0.032-0.114 0.051-0.039 0.019-0.077 0.039-0.115 0.062-0.035 0.022-0.068 0.045-0.1 0.07-0.035 0.027-0.07 0.054-0.103 0.085-0.031 0.029-0.059 0.059-0.087 0.09-0.028 0.032-0.056 0.064-0.082 0.099-0.028 0.038-0.052 0.079-0.076 0.12-0.013 0.023-0.03 0.042-0.042 0.066-6e-3 0.012-8e-3 0.025-0.014 0.037-0.02 0.043-0.036 0.089-0.051 0.135-0.013 0.039-0.027 0.078-0.036 0.117-9e-3 0.04-0.014 0.081-0.02 0.122-7e-3 0.048-0.013 0.095-0.014 0.142 1e-3 0.014-3e-3 0.026-3e-3 0.039v19.5c0 0.026 6e-3 0.051 8e-3 0.077 3e-3 0.048 6e-3 0.096 0.014 0.143 7e-3 0.042 0.017 0.082 0.028 0.122 0.011 0.042 0.023 0.083 0.038 0.123s0.033 0.079 0.052 0.117 0.038 0.076 0.061 0.112c0.022 0.035 0.046 0.069 0.071 0.102 0.027 0.035 0.054 0.069 0.084 0.102 0.028 0.031 0.059 0.059 0.09 0.087 0.032 0.029 0.064 0.056 0.1 0.082 0.038 0.027 0.077 0.051 0.118 0.075 0.023 0.014 0.043 0.031 0.068 0.043l36.5 18.3c7e-3 4e-3 0.015 4e-3 0.022 8e-3 0.017 8e-3 0.032 0.017 0.049 0.025 0.01 4e-3 0.02 7e-3 0.03 0.011 0.056 0.022 0.113 0.041 0.171 0.055l0.036 9e-3c0.016 3e-3 0.032 5e-3 0.048 8e-3 0.077 0.014 0.154 0.024 0.232 0.024h3e-3 2e-3 3e-3c0.078 0 0.156-0.01 0.232-0.024 0.016-3e-3 0.032-5e-3 0.048-8e-3l0.036-9e-3c0.058-0.014 0.115-0.033 0.17-0.055 0.01-4e-3 0.021-7e-3 0.031-0.011 0.017-7e-3 0.032-0.017 0.049-0.024 7e-3 -3e-3 0.015-4e-3 0.022-8e-3l22.6-9.9 9.46 5.22c0.018 0.01 0.037 0.017 0.056 0.026 0.019 0.01 0.038 0.02 0.058 0.029 8e-3 3e-3 0.016 7e-3 0.024 0.01 0.031 0.013 0.063 0.023 0.095 0.033 0.019 6e-3 0.038 0.013 0.058 0.019 0.021 6e-3 0.043 0.011 0.064 0.015 0.015 3e-3 0.029 6e-3 0.044 8e-3 7e-3 1e-3 0.015 3e-3 0.022 4e-3 0.014 2e-3 0.028 6e-3 0.042 8e-3 0.059 8e-3 0.117 0.013 0.176 0.013h2e-3 3e-3c0.078 0 0.155-0.01 0.232-0.024 0.013-2e-3 0.026-3e-3 0.039-6e-3 0.01-2e-3 0.019-6e-3 0.029-8e-3 0.07-0.017 0.14-0.037 0.207-0.065 7e-3 -3e-3 0.014-7e-3 0.021-0.01l0.012-6e-3c6e-3 -3e-3 0.012-3e-3 0.018-6e-3l24.8-11.6c0.465-0.219 0.762-0.686 0.762-1.2v-36.1c0-6e-3 -2e-3 -0.011-2e-3 -0.017-1e-3 -0.074-9e-3 -0.146-0.022-0.217zm-60.8 40.6-7.61 3.67 3.97 1.99 3.64-1.99v6.29l-33.9-16.9v-9.83l8.68 4.24-7.26 3.35 3.97 1.99 7.27-3.38 4.31 2.05-7.49 3.46 3.97 1.99 7.5-3.48 4.62 2.34-7.38 3.41 3.97 1.99 7.4-3.43 4.3 2.11zm28-1.48-25.4 11.3v-16.6l25.4-11.3zm-61.9-18.4v-3.31l33.9 16.6v3.31z" fill="#000000"/>
  </g>
  <polygon transform="rotate(63.4 48.4 48.9)" points="33.1 56.2 39.4 53.3 45.4 56.2 39.1 59.2"/>
  <polygon transform="rotate(63.4 48.4 48.4)" points="28.8 53.6 22.9 50.6 29.1 47.6 35.1 50.6"/>
  <path d="m45.1 34.3c2.12 2.7 4.3 7.99 4.3 12.9 0 4.88-2.17 6.54-4.3 5.7v-18.6z"/>
 </g>
</svg>
