<svg version="1.1" viewBox="0 0 48 48" xmlns="http://www.w3.org/2000/svg">
 <path d="m14.6 0.0566c-1.09 0.362-2.08 1.02-3.14 1.49-1.97 1.02-4.01 1.94-5.95 3.03-0.369 0.609-0.0847 1.4-0.175 2.08 0.00897 6.22-0.0348 12.5 0.00697 18.7 0.319 0.646 1.08 0.954 1.57 1.47 2.68 2.23 5.36 4.45 8.03 6.68-0.0471 1.85-0.203 3.7-0.186 5.54 0.361 0.637 1.13 0.942 1.64 1.45 3.12 2.44 6.19 4.94 9.33 7.35 0.786 0.0814 1.44-0.572 2.16-0.836 4.8-2.41 9.61-4.79 14.4-7.22 0.25-0.0667 0.462-0.87-0.0193-1l-10.1-8.3c0.0111-8.58 0.0221-17.2 0.0332-25.7-0.361-0.432-0.944-0.421-1.37-0.0888l-6.64 3.33c0.478 0.378 0.956 0.757 1.43 1.13 0.0176 6.69 0.0352 13.4 0.0527 20.1-3.48-2.88-6.96-5.75-10.4-8.62-0.00856-6.66 0.0354-13.3-0.00586-20-0.0635-0.289-0.341-0.503-0.635-0.502zm-0.9 1.8c0.0547 6.21 0.109 12.4 0.164 18.6-0.461 0.171-1.13 0.688-1.46 0.64-0.0538-6.18-0.108-12.4-0.161-18.5 0.486-0.243 0.973-0.487 1.46-0.73zm-2.83 1.42c0.0156 1.59 0.0312 3.18 0.0469 4.77l-3.08-2.46c-6.51e-4 0.73-0.0013 1.46-0.00195 2.19 1.03 0.82 2.07 1.64 3.1 2.46 0.0156 0.785 0.0312 1.57 0.0469 2.36-1.06-0.847-2.12-1.69-3.18-2.54v2.19c1.06 0.847 2.13 1.69 3.19 2.54-0.00391 0.852-0.00781 1.7-0.0117 2.55-1.04-0.834-2.09-1.67-3.13-2.5-6.51e-4 0.73-0.0013 1.46-0.00195 2.19 1.05 0.836 2.1 1.67 3.15 2.51-0.0285 0.795 0.0824 1.65-0.0293 2.41-1.1-0.849-2.2-1.7-3.3-2.55-6.51e-4 0.73-0.0013 1.46-0.00195 2.19 0.561 0.389 1.12 0.777 1.68 1.17-0.925 0.464-1.85 0.927-2.78 1.39-0.0104-6.23-0.0208-12.5-0.0312-18.7 1.45-0.724 2.89-1.45 4.34-2.17zm6.34 4.68c-0.00651 1.05-0.013 2.1-0.0195 3.15 0.873 0.68 1.75 1.36 2.62 2.04l-0.00195-3.19c-0.866-0.667-1.73-1.33-2.6-2zm4.8 3.67v8.85c1.66 0.538 2.17-1.7 2.04-2.93-0.0939-2.1-0.797-4.22-2.04-5.92zm-4.8 1.99 0.00195 3.19c0.873 0.681 1.75 1.36 2.62 2.04-0.015-1.06-0.0299-2.11-0.0449-3.17l-2.58-2.06zm18 4.07c-1.83 0.49-0.954 3.03-0.365 4.28 0.61 1.41 1.81 2.4 3 3.32-0.0472 0.749-0.053 1.62 0.711 2.03 1.28 1.04 2.53 2.14 3.84 3.14 0.453-0.285 0.116-1.15 0.221-1.68-0.0188-2.23 0.0376-4.46-0.0283-6.69-0.431-0.873-1.4-1.32-2.08-1.99-0.817-0.654-1.59-1.36-2.44-1.98-0.57-0.00368 0.155 1.67-0.503 0.993-0.736-0.536-1.38-1.35-2.35-1.42zm0.727 1.74c0.777 0.171 1.29 0.86 1.92 1.3v3.14c-1.19-0.89-2.47-1.99-2.49-3.61-0.0195-0.345 0.139-0.849 0.57-0.834zm-21.4 2.15c3.53 2.9 7.06 5.81 10.6 8.71-2.44 1.22-4.88 2.45-7.33 3.67-3.53-2.9-7.06-5.81-10.6-8.71 2.44-1.22 4.88-2.44 7.33-3.67z" stroke-width=".476"/>
</svg>
