<?xml version="1.0" encoding="UTF-8"?>
<svg fill="none" version="1.1" viewBox="0 0 48 48" xmlns="http://www.w3.org/2000/svg">
 <mask id="i" x="202" y="297" width="345" height="276" maskUnits="userSpaceOnUse">
  <path d="m547 363c0 77.6-77.1 140-172 140-4.59 0-12.3-1.18-15.1 3.4-2.81 4.56 3.38 11.6 6.95 15.6 37.2 42 91.1 47.3 105 48.7l2.23 0.22c-125 12.1-271-67.7-271-206-0.131-23.1 6.3-45.7 18.5-65.3l134 122c9.54 8.66 25.6 8.66 35.2 0l137-124c12.7 19.6 19.9 41.9 19.9 65.6z" fill="#ffffff"/>
 </mask>
 <path d="m34.7 1.02c-6.71 0-13.3 2.58-14.8 7.86h-0.0109c-3.84 1.58-4.25 5.1-3.63 7 0 0-0.0043 0.0408-0.0043 0.0461 2.22-1.57 5.07-2.41 7.75-2.41 6.52 0 11.8 4.31 11.8 9.63 0 5.32-5.28 9.63-11.8 9.63l-6.86e-4 -6.86e-4c-0.314 0-0.843-0.0802-1.04 0.233-0.193 0.313 0.232 0.796 0.477 1.07 2.71 3.07 6.72 3.28 7.37 3.36-8.56 0.828-18.6-4.64-18.6-14.2-1e-3 -2.24 0.831-4.15 2.15-5.66-0.0072-9.79e-4 -0.0133-5.48e-4 -0.0206-0.0016 0.29-4.87-1.58-10.7-5.07-11.8-0.248-0.0809-0.492 0.105-0.523 0.363-0.459 3.85-1.46 5.18-2.53 6.62-1.61 2.16-2.78 4.65-2.73 7.39-0.587-1.23-1.06-2.51-1.41-3.82-0.0473-0.179-0.342-0.729-0.666-0.544-0.259 0.147-0.453 0.55-0.593 0.97-0.533 2-0.807 4.13-0.807 6.2 0 13.1 10.9 24 24 24 13.3 0 24-10.7 24-24 0.0078-4.86-1.47-9.61-4.23-13.6 1.12-0.0219 2.25 0.0632 3.35 0.254-1.47-1.63-3.45-2.95-5.76-3.81 1.6-0.577 3.29-0.911 4.99-0.991-2.85-2.33-7.02-3.8-11.7-3.8zm-9.05 5.57c0.765 0.00212 1.15 0.456 1.15 0.456s0.111 1.25-1.15 1.65c-1.44 0.455-2.08-0.759-2.08-0.759s0.182-0.834 1.35-1.22c0.274-0.0901 0.518-0.125 0.732-0.124zm7.71 12.8-0.424 0.0336-7.99 6.07c-0.605 0.449-1.48 0.454-2.09 0.0102l-8.15-6.09-0.403-0.0178s5.21 6.01 6.94 7.82 3.22 1.91 5.15-0.0261c1.93-1.93 6.96-7.8 6.96-7.8z" fill="#000000" stroke-width=".0686"/>
</svg>
