<?xml version="1.0" encoding="UTF-8"?>
<svg version="1.1" viewBox="0 0 48 48" xmlns="http://www.w3.org/2000/svg">
 <path d="m24 43.6v-2.91c9.22-0.0266 16.7-7.5 16.7-16.7 0-9.22-7.46-16.7-16.7-16.7v-2.91c10.8 0.0273 19.6 8.81 19.6 19.6 0 10.8-8.76 19.6-19.6 19.6zm0-10.2c5.2-0.0273 9.41-4.25 9.41-9.45 0-5.2-4.21-9.42-9.41-9.45v-2.91c6.81 0.0266 12.3 5.55 12.3 12.4 0 6.81-5.51 12.3-12.3 12.4zm0-14.5c2.79 0.0266 5.04 2.29 5.04 5.09 0 2.8-2.25 5.06-5.04 5.09zm-24 5.09c0 13.3 10.7 24 24 24 13.3 0 24-10.7 24-24 0-13.3-10.7-24-24-24-13.3 0-24 10.7-24 24z"/>
</svg>
