<?xml version="1.0" encoding="UTF-8"?>
<svg version="1.1" viewBox="0 0 48 48" xmlns="http://www.w3.org/2000/svg" xmlns:xlink="http://www.w3.org/1999/xlink">
 <title>Trisquel logo</title>
 <g transform="matrix(1.11 0 0 1.11 19.1 19.6)">
  <path d="m16.9-17.5c-0.605-0.0049-1.01 0.0668-1.89 0.286-0.712 0.176-1.44 0.388-1.88 0.596-0.274 0.128-0.754 0.345-1.05 0.474-0.201 0.0879-0.38 0.184-0.541 0.297-0.136 0.0949-0.293 0.14-0.416 0.439-0.0132 0.0085-0.0243 0.0175-0.0332 0.0218-0.133 0.0632-0.248 0.131-0.362 0.219-0.0568 0.0436-0.113 0.0907-0.181 0.17-0.0082 0.0095-0.0159 0.0537-0.0258 0.0641-0.0217 0.0162-0.0811 0.0565-0.146 0.0898-0.205 0.105-0.433 0.266-0.601 0.473-0.169 0.206-0.282 0.425-0.414 0.702-0.147 0.308-0.433 0.76-0.418 0.742-0.317 0.387-0.394 0.717-0.478 1.13-0.0241 0.118-0.0571 0.246-0.0876 0.336-0.0304 0.0904-0.137 0.201 0.0195 0.016-0.409 0.484-0.355 0.883-0.355 1.4-2.29e-4 0.514 0.0662 1.12 0.191 1.78 0.201 1.07 0.352 1.49 0.793 2.26 0.57 0.994 1.27 1.72 2.26 2.34 0.971 0.609 2.27 0.836 3.43 0.637 1.25-0.215 2.18-0.661 2.96-1.46 0.965-0.987 1.42-1.96 1.5-3.24 0.073-1.15-0.127-2.05-0.682-2.82-0.254-0.35-0.581-0.616-0.908-0.855-0.164-0.119-0.316-0.221-0.488-0.305-0.0863-0.0421-0.166-0.087-0.342-0.113-0.088-0.0132-0.21-0.0293-0.396 0.0355-0.186 0.0648-0.415 0.28-0.485 0.49-0.153 0.457 0.0032 0.53 0.0452 0.621 0.042 0.0916 0.0817 0.156 0.126 0.223 0.0896 0.133 0.196 0.264 0.32 0.398 0.127 0.138 0.45 0.582 0.59 0.826a0.75 0.75 0 0 0 0 0.00172c0.263 0.46 0.232 0.352 0.264 1.03 0.032 0.678 0.0528 0.573-0.131 0.983-0.359 0.801-1.03 1.39-2.14 1.77-0.529 0.182-0.812 0.192-1.77 0.0235-0.76-0.134-0.98-0.26-1.35-0.728-0.324-0.406-0.35-0.461-0.693-1.28-0.293-0.705-0.434-1.19-0.467-1.53-0.0332-0.347 0.0109-0.575 0.168-0.929 0.142-0.321 0.248-0.573 0.248-0.998 0 0.261 0.0278-0.0304 0.119-0.182 0.0456-0.0758 0.0973-0.148 0.129-0.185 0.0315-0.0372 0.0853-0.0301-0.0973 0.0469 0.264-0.112 0.295-0.186 0.385-0.271 0.0902-0.086 0.175-0.18 0.258-0.276 0.0822-0.096 0.159-0.192 0.229-0.295 0.0348-0.0512 0.0678-0.101 0.104-0.172 0.0039-0.0076 7e-3 -0.0354 0.0114-0.0429 0.0287-0.0286 0.0782-0.0776 0.17-0.155 0.212-0.178 0.57-0.453 1.07-0.822 0.905-0.664 2.05-0.927 3.81-0.767 0.879 0.0796 0.918 0.0851 1.46 0.351 1.37 0.679 2.64 2.25 2.83 3.29 0.042 0.222 0.0964 0.448 0.154 0.652 0.0576 0.204 0.0974 0.356 0.199 0.553-0.061-0.118 0.0387 0.237 0.012 0.564-0.0267 0.327-0.127 0.699-0.182 0.807-0.193 0.38-0.299 0.81-0.365 1.24-0.0619 0.407-0.0764 0.416-0.166 0.514a0.75 0.75 0 0 0-0.0017 0c-0.44 0.48-0.897 1.29-1.26 2.06-0.16 0.34-0.908 1.12-1.37 1.36-0.325 0.17-0.587 0.301-0.864 0.549 0.082-0.0741-0.263 0.163-0.463 0.252-0.33 0.146-0.746 0.377-1.06 0.586-0.711 0.472-1.17 0.568-3.02 0.564-1.95-4e-3 -2.86-0.149-3.61-0.49-0.483-0.222-0.613-0.328-1.46-1.2-1.15-1.18-1.74-1.93-2.39-3.04-2.17-3.69-4.07-5.25-8.29-6.81-0.767-0.284-1.74-0.38-3.47-0.426-1.61-0.0428-1.82-0.0188-3.13 0.322-1.96 0.51-3.23 1.18-4.94 2.6-0.569 0.473-1 0.982-1.57 1.83-0.466 0.691-0.727 1.08-0.912 1.46s-0.258 0.734-0.324 1.15c-0.0848 0.526-0.164 1.25-0.216 1.87-0.0259 0.313-0.0448 0.599-0.0532 0.826-0.0042 0.114-0.0061 0.211-0.0034 0.304 0.0014 0.0467 4e-3 0.0911 0.0114 0.151 0.0048 0.0383 0.0088 0.0906 0.0378 0.172 0.0019 0.0028 0.0047 0.0013 0.0052 0.0034 2.47e-4 0.0013 8.75e-4 0.0075 0.0011 0.0092 0.0166 0.0438 0.0244 0.0778 0.0732 0.157-0.056-0.0906-0.0611-0.11-0.0704-0.134 0.0033 0.024 0.0064 0.05 0.0114 0.0938 0.0134 0.117 0.028 0.285 0.0355 0.455 0.02 0.455 0.117 1.25 0.224 1.9 0.284 1.73 0.73 2.49 2.18 3.72 0.845 0.713 1.29 1.07 1.85 1.22 0.194 0.0554 0.793 0.254 1.25 0.416 1.14 0.406 2.12 0.513 3.57 0.404 1.29-0.0979 1.86-0.252 2.84-0.771 1.38-0.726 2.24-1.35 2.75-2.15 0.528-0.828 0.905-1.99 1.09-3.17 0.0785-0.514 0.105-0.975-0.0057-1.46-0.111-0.484-0.326-0.94-0.664-1.6-0.581-1.13-1.17-1.71-2.35-2.3-0.985-0.493-1.53-0.592-2.66-0.479-0.961 0.0958-1.78 0.41-2.52 0.975a0.75 0.75 0 0 0-0.00229 0c-0.659 0.505-1.09 1.13-1.4 2.01-0.131 0.363-0.201 0.733-0.221 1.07-0.01 0.168-0.0138 0.32 0.0275 0.514 0.0206 0.0967 0.0458 0.209 0.151 0.361 0.105 0.152 0.38 0.355 0.672 0.355 6.66e-4 0 0.131-0.0102 0.184-0.0235 0.0526-0.0132 0.0963-0.0279 0.133-0.0446 0.0729-0.0335 0.121-0.0682 0.156-0.0961 0.0713-0.0559 0.103-0.0947 0.129-0.126 0.0524-0.0636 0.0741-0.103 0.0979-0.143 0.0476-0.0802 0.0853-0.155 0.127-0.244 0.0836-0.178 0.177-0.402 0.27-0.648 0.0805-0.214 0.174-0.44 0.256-0.619 0.0674-0.148 0.116-0.229 0.117-0.239 0.0306-0.0254 0.11-0.102 0.201-0.162 0.154-0.101 0.359-0.22 0.559-0.32 0.816-0.41 1.5-0.474 1.91-0.343v-0.0023c-0.0158-0.0051 0.487 0.236 0.896 0.482 0.409 0.246 0.85 0.554 0.934 0.629 0.407 0.363 0.718 1.07 0.72 1.9 0.0036 1.45-0.44 2.31-1.25 2.79-0.254 0.149-0.651 0.399-0.922 0.576-0.522 0.343-0.88 0.411-2.3 0.343-1.05-0.0501-1.15-0.0658-1.86-0.322-1.4-0.508-2.71-1.65-3.11-2.54-0.622-1.37-0.622-1.37-0.555-2.77 0.0569-1.18 0.281-2.11 0.545-2.61 0.153-0.286 0.758-1.04 1.81-2.11 0.229-0.234 0.953-0.612 1.69-0.758 0.422-0.0831 1.25-0.167 2.03-0.207 0.775-0.0401 1.57-0.0251 1.76 4e-3 0.701 0.109 1.9 0.669 2.98 1.42 1.08 0.751 2.07 1.7 2.51 2.42 0.498 0.806 0.988 1.79 1.15 2.26 0.0737 0.211 0.183 0.905 0.209 1.55 0.0258 0.649-0.0355 1.34-0.0801 1.5-0.106 0.365-0.187 0.731-0.188 1.1-8.25e-4 0.28-0.134 0.794-0.508 1.55-0.206 0.418-0.428 0.976-0.547 1.39-0.0418 0.147-0.0938 0.3-0.137 0.412-0.043 0.112-0.161 0.258-0.0154 0.0784-0.142 0.176-0.169 0.275-0.217 0.401-0.0479 0.125-0.0868 0.255-0.115 0.396-0.0373 0.187-0.137 0.553-0.236 0.876-0.0995 0.322-0.246 0.682-0.219 0.631-0.101 0.189-0.136 0.323-0.193 0.517-0.0574 0.195-0.117 0.424-0.176 0.674-0.118 0.5-0.234 1.08-0.312 1.6-0.144 0.946-0.148 2.6-0.02 3.59 0.0744 0.578 0.207 1.34 0.338 2.01 0.0658 0.333 0.13 0.637 0.189 0.885 0.059 0.247 0.0495 0.343 0.195 0.627 1.09 2.13 1.73 3.04 2.72 3.82 0.173 0.136 0.465 0.441 0.478 0.459 0.623 0.844 1.84 1.61 3.17 2.23 0.728 0.34 1.92 0.607 3.09 0.766a0.75 0.75 0 0 0 0.0023 0.0023c0.0025 3.44e-4 0.0031-3.43e-4 0.0057 0 0.469 0.0636 0.837 0.115 1.07 0.13 0.234 0.0153 0.355-0.0159 0.539-0.0486 0.184-0.0327 0.393-0.0774 0.612-0.131 0.438-0.107 0.909-0.244 1.28-0.386 0.136-0.0518 0.293-0.101 0.418-0.135 0.125-0.0336 0.273-0.0406 0.155-0.0406 0.279 0 0.41-0.0656 0.578-0.131 0.168-0.0654 0.341-0.148 0.517-0.242 0.353-0.189 0.714-0.418 1.01-0.674 0.1-0.0861 0.41-0.293 0.516-0.347 0.211-0.109 0.368-0.232 0.586-0.399 0.218-0.166 0.46-0.362 0.686-0.56 0.498-0.438 0.886-0.865 1.18-1.43 0.292-0.563 0.486-1.22 0.731-2.19 0.309-1.23 0.342-1.59 0.259-2.38-0.0466-0.451-0.114-1.14-0.148-1.53-0.0931-1.05-0.633-2.26-1.38-3.35a0.75 0.75 0 0 0 0-5.72e-4 0.75 0.75 0 0 0 0-5.73e-4 0.75 0.75 0 0 0 0-5.72e-4c-0.519-0.758-1.51-1.54-2.68-2.29-1.49-0.949-3.64-1.07-5.49-0.431-0.639 0.221-1.07 0.487-1.56 0.955-0.364 0.351-0.7 0.732-0.918 1.16-0.119 0.233-0.35 0.68-0.51 0.992-0.143 0.279-0.267 0.541-0.322 0.864-0.0552 0.322-0.0526 0.636-0.0526 1.18 0 0.547-0.0023 0.863 0.0549 1.19 0.0572 0.328 0.177 0.591 0.328 0.898 0.497 1.02 1.39 1.84 2.45 2.27 0.542 0.222 1.15 0.342 1.74 0.385 0.586 0.0428 1.12 0.0398 1.64-0.193 0.138-0.0622 0.258-0.128 0.369-0.207 0.111-0.0782 0.213-0.132 0.342-0.358 0.0641-0.113 0.168-0.325 0.0721-0.633-0.0958-0.307-0.402-0.486-0.566-0.527-0.327-0.0812-0.429-0.0095-0.572 0.0332-0.459 0.135-0.956 0.131-1.54-0.0412-0.914-0.272-1.04-0.343-1.4-0.732-0.445-0.492-0.538-0.731-0.629-1.78-0.0785-0.903-0.0966-0.75 0.125-1.45 0.185-0.586 0.187-0.592 0.502-0.91 0.336-0.34 0.957-0.804 1.36-1.02 0.0102-0.0054 0.308-0.0963 0.625-0.119 0.317-0.0228 0.679-0.0044 0.918 0.0452 0.186 0.0388 0.378 0.0745 0.545 0.101 0.167 0.0268 0.269 0.0474 0.441 0.0509-0.0415-8.16e-4 0.155 0.033 0.377 0.142 0.222 0.11 0.492 0.276 0.752 0.465 0.52 0.377 1.01 0.922 1.06 1.03 0.125 0.26 0.326 0.671 0.46 0.932 0.124 0.243 0.177 0.449 0.234 1.14 0.153 1.84-0.0226 2.86-0.141 3.05-0.181 0.296-0.247 0.534-0.347 0.846-0.104 0.322-0.792 1.28-1.02 1.45-0.541 0.405-1.8 1.12-2.1 1.23-0.311 0.118-0.825 0.235-1.3 0.295-0.478 0.0599-0.959 0.0505-1.09 0.0235-0.112-0.0232-0.242-0.0574-0.344-0.0898-0.102-0.0324-0.207-0.0921-0.121-0.0389-0.197-0.122-0.311-0.146-0.462-0.188-0.151-0.0416-0.311-0.0747-0.477-0.0956a0.75 0.75 0 0 0-0.0023 0c-0.18-0.0227-0.613-0.171-0.975-0.367-0.362-0.196-0.686-0.489-0.697-0.506-0.225-0.325-0.541-0.65-0.856-0.914-0.189-0.159-0.354-0.447-0.33-0.373-0.203-0.616-0.682-1.45-1.08-1.99v-0.0017c-0.15-0.204-0.386-0.714-0.494-1.15 0.0291 0.118-0.0208-0.188-0.0372-0.502-0.0164-0.313-0.0308-0.727-0.0412-1.18-0.0208-0.898-0.0254-1.95-0.0057-2.69 0.0118-0.441 0.275-1.08 0.371-1.19 0.22-0.247 0.35-0.486 0.496-0.767 0.729-1.4 1.7-2.61 2.38-3.1 0.46-0.328 0.568-0.371 1.42-0.588 2.44-0.623 2.5-0.635 4.63-0.635 2.22 0 3.68-0.185 4.76-0.752a0.75 0.75 0 0 0 0.0017 0c0.27-0.142 0.849-0.433 1.26-0.629 1.2-0.576 2.18-1.25 3.01-2.08 0.369-0.367 0.895-0.87 1.13-1.09 2.21-2.01 3.38-4.68 3.54-7.97 0.0495-1.03 0.0137-1.47-0.16-2.08-0.0996-0.349-0.25-0.919-0.326-1.23-0.291-1.2-1.04-2.58-1.89-3.45-0.186-0.191-0.387-0.381-0.572-0.545-0.185-0.164-0.323-0.286-0.516-0.402-0.106-0.0639-0.608-0.403-1-0.687-0.223-0.16-0.46-0.315-0.676-0.444-0.216-0.128-0.365-0.224-0.609-0.303-0.0213-0.0069-0.475-0.217-0.736-0.377-0.274-0.168-0.531-0.313-0.854-0.391-0.323-0.0781-0.639-0.0941-1.18-0.126-0.271-0.0161-0.495-0.0264-0.697-0.028zm-34 15.6c-7.84e-4 -0.0057-0.0022-0.0183-0.0029-0.0223-0.0013-0.0036-0.0051-0.0092-0.0063-0.0126-0.0081-0.0118-0.0036 0.0012 0.0092 0.0349zm28.3-13.5c-0.0038 0.0034-0.016 0.0101-0.0258 0.0166 0.02-0.026 0.0308-0.0211 0.0258-0.0166zm-0.633 0.498c-0.0542 0.0572-0.129 0.114-0.163 0.272 0.0368-0.202 0.124-0.23 0.148-0.256 0.0227-0.025 0.0184-0.019 0.0154-0.016z" color="#000000" fill="#000000" style="-inkscape-stroke:none"/>
 </g>
</svg>
