<?xml version="1.0" encoding="UTF-8"?>
<svg version="1.1" viewBox="0 0 181.1 179.1" xmlns="http://www.w3.org/2000/svg">
 <title>Trisquel logo</title>
 <path d="m141.97 3.877c-2.245-0.041998-3.427 0.20885-7.0664 1.1094-2.8072 0.6948-6.0639 1.7116-7.2344 2.2598-1.1726 0.5486-3.1563 1.4493-4.4121 2-1.3477 0.5908-2.362 1.2999-2.4746 1.7305-0.1052 0.40162-0.79312 1.0162-1.5293 1.3672-0.73618 0.35115-1.3379 0.81483-1.3379 1.0293s-0.7005 0.74565-1.5547 1.1816c-1.2567 0.6414-1.7914 1.2961-2.8066 3.4297-0.69029 1.45-1.65 3.1178-2.1328 3.707-0.48279 0.5892-1.0867 2.0854-1.3398 3.3242-0.25341 1.2388-0.68268 2.5173-0.95508 2.8398-0.9809 1.1593-0.98147 5.394-0.00391 10.582 0.8207 4.357 1.1531 5.3152 2.9277 8.4102 2.1613 3.7678 4.5283 6.2112 8.3301 8.5957 3.1388 1.9671 8.1041 2.8797 12.016 2.209 4.807-0.8239 7.6878-2.2357 10.555-5.168 3.7168-3.8013 5.0316-6.6165 5.3379-11.428 0.2791-4.3847-0.33408-7.022-2.2383-9.6504-1.2421-1.7138-5.1738-4.5821-5.3906-3.9316-0.0749 0.224 0.5481 1.1483 1.3828 2.0547 0.83469 0.9068 2.1186 2.7011 2.8535 3.9863 1.1706 2.0462 1.3544 2.7473 1.4922 5.668 0.13704 2.9041 0.03429 3.6076-0.80664 5.4824-1.8671 4.1653-5.4814 7.213-10.678 9-2.6292 0.90407-4.7086 0.95818-8.8574 0.22656-3.5691-0.6285-5.5826-1.7418-7.498-4.1445-1.4288-1.7928-1.8696-2.6015-3.3106-6.0625-2.5327-6.0865-2.8141-9.0199-1.2109-12.645 0.42031-0.9506 0.76367-2.2467 0.76367-2.8789 0-1.0653 1.6612-3.8233 2.5195-4.1855 0.6198-0.2612 2.5645-2.5336 2.5645-2.9961 0-0.4389 1.8216-1.9658 6.0449-5.0625 4.468-3.2767 10.14-4.4733 17.887-3.7715 3.7276 0.3375 4.7388 0.58838 7.125 1.7676 6.5794 3.25 12.314 10.008 13.408 15.805 0.30848 1.6309 0.83487 3.4966 1.1699 4.1445 0.82233 1.59 0.43839 6.2856-0.69531 8.5078-0.45094 0.886-0.99647 2.7753-1.2129 4.1992-0.2944 1.9356-0.66692 2.8848-1.4727 3.7617-1.1804 1.2876-3.3129 4.8014-4.707 7.7598-1.1552 2.4553-4.3269 5.6326-7.043 7.0586-1.183 0.6211-2.5048 1.4489-2.9375 1.8379-0.4331 0.3888-1.6655 1.0943-2.7383 1.5684-1.0728 0.4741-2.8412 1.4552-3.9297 2.1777-3.424 2.2723-6.3958 2.8653-14.246 2.8496-8.2436-0.017-12.541-0.62739-16.215-2.3047-2.2772-1.0434-3.4196-1.9609-6.9883-5.623-4.8486-4.9769-7.5332-8.3916-10.344-13.174-8.791-14.951-15.555-20.508-32.709-26.852-2.534-0.93819-6.2942-1.3789-13.35-1.5664-6.6741-0.1773-6.6867-0.17557-12.123 1.2363-7.838 2.037-12.346 4.4141-19.248 10.145-2.1344 1.7721-3.6376 3.5235-5.9219 6.9062-3.8482 5.6994-4.0941 6.2058-4.6328 9.543-0.65341 4.0489-1.304 11.909-1.0234 12.363 0.13415 0.217 0.29941 1.6595 0.36719 3.2051 0.0679 1.5444 0.4686 4.9212 0.89258 7.502 1.1428 6.9564 2.0871 8.5634 7.9707 13.52 3.4271 2.8884 5.164 4.079 6.5059 4.4629 1.0061 0.2877 3.4139 1.0875 5.3496 1.7773 4.3892 1.5641 7.7391 1.9387 13.49 1.5039 5.2541-0.3975 6.6033-0.76261 10.557-2.8457 5.5151-2.9066 8.5808-5.2571 10.227-7.8379 1.8052-2.8284 3.3571-7.3983 4.0469-11.924 0.607-3.9789 0.27-5.4453-2.4668-10.762-2.2897-4.4539-3.6923-5.8258-8.3379-8.1523-3.9914-1.9998-4.7115-2.1295-9.3281-1.6699-3.5484 0.3536-6.175 1.3671-8.8535 3.4141-2.3741 1.8176-3.5778 3.5515-4.7773 6.8887-0.8384 2.3328-1.0189 5.3711-0.31836 5.3711 0.1764 0 0.91042-1.567 1.6309-3.4824 0.7205-1.9149 1.6433-3.938 2.0508-4.4961 0.4083-0.5581 2.2783-1.7873 4.1543-2.7305 3.8546-1.9379 7.4639-2.5048 10.264-1.6113 1.6065 0.5134 7.1355 3.8413 8.7031 5.2383 2.5207 2.2484 4.0079 6.0198 4.0195 10.193 0.016499 6.737-2.2891 11.628-6.707 14.223-0.968 0.568-2.6264 1.6017-3.6855 2.2969-2.7206 1.7849-5.3033 2.2245-11.369 1.9336-4.4013-0.2107-5.5606-0.41559-8.6055-1.5215-6.521-2.3684-12.451-7.2817-14.656-12.143-2.6127-5.7634-2.8593-6.9929-2.5762-12.885 0.2492-5.1839 1.157-9.3792 2.6211-12.115 1.0144-1.8963 3.5904-4.9314 8-9.4238 1.7183-1.7522 5.0698-3.3096 8.6289-4.0098 4.157-0.81804 13.83-1.3193 16.752-0.86719 7.622 1.18 20.432 10.1 24.912 17.35 2.1622 3.4987 4.2215 7.5438 5.0645 9.9531 1.1096 3.172 1.4435 11.553 0.57812 14.529-0.35339 1.2156-0.64408 2.8876-0.64648 3.7148-0.0058 1.9667-0.78139 4.452-2.4297 7.7871-0.7362 1.4901-1.6625 3.8522-2.0605 5.25-0.39792 1.3978-0.93779 2.8063-1.1992 3.1289-0.26126 0.3225-0.59987 1.2023-0.75 1.9551-0.3975 1.9915-1.6748 6.1304-2.1895 7.0918-0.6111 1.1426-1.8725 6.4918-2.4902 10.559-0.49802 3.275-0.5363 10.436-0.074219 14.02 0.5846 4.5379 2.1751 12.568 2.6836 13.561 4.4761 8.7319 6.67 11.848 10.426 14.807 0.9448 0.744 2.0979 1.8663 2.5625 2.4961 1.776 2.4056 6.7488 5.8506 11.949 8.2773 2.2487 1.05 7.3175 2.2877 11.926 2.9121h-0.02539c1.934 0.26209 3.8448 0.49734 4.2441 0.52344 1.1634 0.0762 6.1019-1.1348 8.7617-2.1484 1.3465-0.513 2.9076-0.93164 3.4707-0.93164 1.1634 0 4.7919-1.9413 6.7031-3.5859 0.7052-0.607 1.9379-1.4384 2.7383-1.8496 0.8012-0.4115 2.8855-2.0049 4.6328-3.541 3.866-3.396 4.9539-5.4942 6.9434-13.398 1.2738-5.0605 1.3303-5.5634 0.99609-8.7988-0.19502-1.8881-0.47172-4.7521-0.61523-6.3652-0.2981-3.3499-2.345-8.2516-5.1758-12.4-1.5448-2.2566-5.594-5.67-10.215-8.6035-5.052-3.208-13.274-3.8143-20.031-1.4766-2.4541 0.8492-3.4554 1.4632-5.3203 3.2598-1.2632 1.2173-2.7032 3.0035-3.1992 3.9707-0.496 0.9672-1.4457 2.8149-2.1094 4.1055-1.1511 2.24-1.207 2.5632-1.207 7.0391 0 4.5024 0.052985 4.8001 1.2715 7.291 1.6893 3.4573 4.8709 6.4069 8.5215 7.9004 3.652 1.493 9.1824 1.8976 11.523 0.84179 1.6574-0.74738 2.1607-1.636 0.67969-1.1992-2.5215 0.74347-5.2405 0.68662-8.1152-0.16796-3.9562-1.1767-5.4512-1.9902-7.2051-3.9316-2.199-2.4346-2.9871-4.5724-3.3887-9.1973-0.32875-3.7819-0.28618-4.2436 0.65039-7.209 0.8157-2.5849 1.3393-3.5111 2.834-5.0215 1.6851-1.7009 4.3102-3.6685 6.3672-4.7695 1.6727-0.89546 5.7148-1.1853 8.4844-0.60938 1.4421 0.30006 3.0234 0.5525 3.5137 0.5625 2.9435 0.058 10.276 5.3698 11.799 8.543 0.4977 1.0367 1.3421 2.7378 1.875 3.7812 0.72993 1.4326 1.049 2.8774 1.2969 5.8672 0.6467 7.8009 0.32901 12.31-1.0254 14.525-0.26254 0.4298-0.77651 1.7053-1.1406 2.834-0.7743 2.389-3.3954 6.1143-5.3203 7.5527-2.5671 1.9191-7.391 4.7369-9.4356 5.5137-3.3251 1.2636-9.0888 1.988-11.635 1.4609-1.1742-0.24304-2.4947-0.66526-2.9336-0.9375-0.4389-0.27244-1.6296-0.6-2.6465-0.72852-2.9024-0.3644-7.7476-2.9937-9.0879-4.9277-0.6165-0.8898-1.9596-2.3198-2.9844-3.1777-1.1196-0.9375-2.0463-2.1148-2.3223-2.9512-0.5143-1.5568-2.7184-5.5842-4.0371-7.375-1.0173-1.3829-2.0203-3.6819-2.5586-5.8672-0.34701-1.408-0.60568-12.591-0.4375-18.896 0.0684-2.5588 1.0541-5.4842 2.3281-6.9102 0.3842-0.4302 1.1091-1.5753 1.6113-2.543 3.1837-6.1362 7.2637-11.39 10.799-13.912 2.091-1.4918 3.2806-1.9945 6.9023-2.9199 10.123-2.5862 11.105-2.7188 19.924-2.7188 9.0176 0 14.602-0.84512 18.254-2.7617 1.1937-0.6273 3.5804-1.8206 5.3008-2.6504 4.6999-2.2649 8.4709-4.857 11.631-7.998 1.5618-1.5539 3.7196-3.6262 4.7949-4.6055 8.5794-7.809 13.011-17.837 13.639-30.863 0.20164-4.1843 0.12253-5.2827-0.54492-7.625-0.42934-1.5047-1.0512-3.8578-1.3828-5.2266-1.0144-4.1988-4.103-9.8226-7.0469-12.84-1.4185-1.4537-3.168-2.9988-3.8867-3.4336-0.7187-0.4348-2.6819-1.7775-4.3633-2.9844-1.6794-1.207-3.692-2.4008-4.4688-2.6523-0.7767-0.2513-2.4486-1.0928-3.7148-1.8691-2.1986-1.3476-2.5122-1.4233-6.9922-1.6895-1.1148-0.066257-1.9821-0.11295-2.7305-0.12695z" fill="#000000"/>
</svg>
