<svg version="1.1" viewBox="0 0 48 48" xmlns="http://www.w3.org/2000/svg">
 <title>Trisquel logo</title>
 <path d="m37.9 0.175c-2.18 0.111-4.33 0.871-6.19 1.99-0.96 0.942-2.2 1.66-2.65 3.08-0.75 1.54-1.23 2.75-0.88 4.64 0.263 3.39 3.21 6.74 6.8 6.41 3.11-0.114 5.82-3.04 5.44-6.19 0.119-1.63-2.13-4.76-3.67-3.05-0.0537 1.48 2.03 2.39 1.51 4.1-0.66 2.31-3.79 3.28-5.71 1.94-1.06-1.33-2.11-3.32-1.19-4.99 0.0114-1.02 1.16-1.79 2.16-2.79 1.65-1.52 4.17-1.59 6.2-0.976 1.88 0.889 3.32 2.7 3.61 4.78 0.314 1.44-0.286 3.29-1.2 4.51-0.698 1.73-1.99 3.05-3.65 3.86-1.7 1.26-3.75 1.58-5.82 1.35-1.96 0.102-3.82-0.729-4.98-2.33-2.28-2.29-3.31-5.58-5.95-7.57-2.04-1.56-4.44-2.77-6.98-3.23-2.45-0.27-4.99-0.284-7.31 0.688-3.09 1.17-5.74 3.61-6.96 6.69-0.251 1.43-0.513 2.91-0.371 4.36 0.0977 0.845 0.183 3.22 0.784 4.53 0.838 1.62 2.35 2.93 3.99 3.69 1.86 0.722 3.85 1.19 5.85 0.866 2.07-0.243 4.06-1.35 5.47-2.87 1.09-1.63 1.73-3.72 1.38-5.66-0.582-1.86-1.78-3.63-3.68-4.31-2.87-1.28-6.82 0.592-7.14 3.87-0.583 1.93 2.14 2.11 2.13 0.181 0.576-2.13 3.62-2.49 5.03-0.915 1.61 1.06 1.48 3.61 0.391 5-1.35 1.41-3.27 1.79-5.13 1.44-2.88-0.461-5.61-3.11-5.18-6.19-0.0299-1.77 0.669-3.45 2.01-4.61 1.51-1.93 4.23-1.66 6.41-1.72 2.39 0.43 4.45 2.03 6.03 3.81 1.23 1.65 2.09 3.64 1.83 5.74-0.093 1.81-0.778 3.45-1.45 5.11-0.479 1.13-0.918 2.77-1.4 4.22-0.887 3.24-0.559 6.69 0.384 9.87 0.858 1.8 1.97 3.51 3.55 4.75 2.08 2.42 5.38 3.34 8.47 3.47 1.95-0.495 4.08-0.795 5.63-2.18 1.71-0.987 3.26-2.49 3.63-4.52 0.649-1.71 0.549-3.53 0.294-5.31-0.398-2.39-1.93-4.5-4-5.73-2.32-1.68-5.83-1.67-8.1 0.0833-1.21 1.14-2.19 2.74-2.2 4.43-0.315 2.14 0.963 4.29 2.93 5.15 1.41 0.553 3.26 0.942 4.56-0.0593 1.16-1.79-1.39-1.47-2.46-1.49-2.01-0.142-2.84-2.27-2.49-4.02 0.294-1.53 1.86-2.84 3.44-2.72 1.65 0.0189 3.29 0.827 4.12 2.28 0.94 1.62 0.841 3.67 0.496 5.44-0.51 1.83-1.96 3.13-3.68 3.84-1.7 0.833-3.51 0.314-5.16-0.284-1.83-0.852-2.62-2.73-3.6-4.35-1.05-1.74-0.501-3.88-0.649-5.81 0.129-1.84 1.52-3.31 2.48-4.81 1.08-1.66 3.13-1.89 4.9-2.3 2.94-0.468 6.2 0.324 8.87-1.34 2.08-0.849 3.82-2.28 5.35-3.89 3.01-2.68 4.35-6.97 3.82-10.9-0.508-2.66-1.75-5.36-4.17-6.78-1.46-0.972-2.99-2.1-4.77-2.27-0.387 0.00505-0.867-0.113-1.21-0.00873zm-37.7 17.3c0.0087-0.0178-0.0356-0.0851 0 0zm31.4-15-0.0286 0.0184zm-0.703 0.553c-0.267 0.431-0.255 0.337 0 0z" color="#000000" stroke-width="1.11" style="-inkscape-stroke:none"/>
</svg>
