<svg version="1.1" viewBox="0 0 43 56.5" xmlns="http://www.w3.org/2000/svg"><circle cx="21.5" cy="35" r="21" fill="none" stroke="#000"/><path d="m24.5 0s1 2.8 1 5.6c0 4.3025-4.1455 6.5808-7 9.8-4.2 4.7365-4 9.6-5.4 9.6-2.8 0-4.2-4-4.2-4s0.19802 4.0975 1.4 5.6c5.6 7 1.4 8.4 1.4 8.4s-5.6 0.75083-5.6-4.2c0-2.8 1.4-3.6759 1.4-5.6 0-1.4-2.0535-2.8-2.0535-2.8s1.0535 1.4 1.0535 2.8-3 1.4-3 8.4c0 4.2 5.4 5.6 6.8 7 1.0435 1.0435 1.4 4.2-1.4 4.2-1.0435 0-1.4-1.4-1.4-2.8v-2s-1.4209 1.9982-1.4 3.4c0.08336 5.6 9.4 9.6 9.4 9.6s-1-4-1-6.8c0-5.6 3-4.4808 3-8.4 0-5.6-1.6-7-1.6-7s3.5558 2.8 3.6295 7c0.04266 2.4319-2.8303 4.6431-2.2295 7 0.32602 1.279 1.4 2.8 2.8 2.8 2.8 0 3.2149-1.331 3.5383-2.8 0.5621-2.5534-3.1322-4.3854-3.138-7-0.0024-1.0435 2.0535-2.8 2.0535-2.8s-0.65352 1.4-0.65352 2.8c0 2.9881 5.1998 3.5672 5.1998 7 0 3.2366-4.7439 5-4.67 7.8 0.01372 0.51726 0.1646 1.2887 0.66992 1.4 6.5589 0.5017 15.2-6.4 15.2-13.4s-5.6-10.361-5.6-10.361 4.2-2.2395 4.2-6.4395c0-2.8-2.1499-4.4496-4.4-11.2-1.4-4.2 1-6.6 1-6.6s-4 2.4-4 5.2c0 5.6 2.4945 5.6 2.4945 9.8 0 1.6826-0.69453 4.2-2.0945 4.2-0.97786 0-1.478-1-1.629-2.4-0.10486-0.97222 1.229-2.8 1.229-2.8s-2.9991 1.4-3 4.2c-2.86e-4 0.93333 2 2.4-0.8 2.4s-4.2-1.4-4.2-4.2c0-3.1305 4.2-8.4 4.2-8.4s2.8-4.0485 2.8-7c0-2.8-4-7-4-7zm4 29.4s4.2 2.8 4.2 7c0 1.3199-1.4 2.8-2.8 2.8-2.0268 0-4.4-1.1174-4.4-2.8 0-2.8 2.4134-4.2 3.6754-4.2 0.72414-1.4-0.67539-2.8-0.67539-2.8z"/></svg>
