<svg enable-background="new 0 0 101.4 102.5" version="1.1" viewBox="0 0 101.4 102.5" xml:space="preserve" xmlns="http://www.w3.org/2000/svg">
<style type="text/css">
	.st0{fill:none;}
	.st1{fill:#F7BC60;}
	.st2{fill:#FFFFFF;}
	.st3{fill:#333333;}
</style>

<path class="st3" d="m84.8 45c-0.1-0.1-0.2-0.2-0.3-0.2h-0.1c-0.2 0.1-0.3 0.3-0.2 0.5 0 0 1.1 3.8 1.3 7.5 0 1.7-0.3 3.1-1 4-0.6 0.9-1.6 1.3-2.9 1.3-1.4 0-3.3-0.6-5.4-1.7-0.2-0.2-6.8-4.2-13-9.8-3.7-3.3-6.6-6.6-8.5-9.6-2.4-3.7-3.4-7.2-3-10.2 0.9-4.8 4.8-9.2 11.5-12.8 0.2-0.1 0.2-0.3 0.2-0.4-0.1-0.2-0.2-0.3-0.4-0.3h-0.1c-11.6 1.6-19.8 5.7-24.4 12.3-2.3 3.3-3.8 7.1-4.3 11.4-0.4 3.6 0 6.7 0.3 8.7v0.5c0.2 2.2 0.6 6.2-1.6 8.6-1.2 1.3-3 1.9-5.3 1.9h-0.3c-3.3-0.2-8.7-1.6-8.5-7.8 0-0.4 0.1-0.8 0.1-1.1 1.2-7.1 6.6-14.9 6.6-15 0.1-0.2 0.1-0.4-0.1-0.5-0.1-0.1-0.2-0.1-0.2-0.1-0.1 0-0.2 0-0.2 0.1l-0.4 0.4c-0.8 0.8-2.4 2.4-4.2 4.9-4.7 6.2-9.5 16.8-5.7 32.2 0 0 0 0.1 0.1 0.2 0.8 2.6 1.9 5 3.4 7.1 2.8 4 6.6 6.8 11.2 8.1 1 0.3 2 0.5 2.9 0.6 1 0.1 2 0.2 3 0.2 6.7 0 12-3.5 17.7-11.9 0 0 1.5-2.6 3.9-5.2 2.2-2.3 5.6-5.1 9.5-5.1 2.4 0 4.8 1.1 7.1 3.3 5.2 5.7 4 14.2-3.3 21.6-0.1 0.1-0.2 0.2-0.2 0.3-0.1 0.1-0.3 0.2-0.4 0.3-0.2 0.1-0.2 0.3-0.1 0.5 0.1 0.1 0.2 0.2 0.3 0.2s0.1 0 0.2-0.1h0.1c0.2-0.1 0.4-0.2 0.5-0.4 0.6-0.4 1.2-0.8 1.8-1.3 5.4-4 9.4-8.8 11.9-14.2 2-4.3 3.1-9 3.2-14 0.1-8.5-2.7-14.9-2.7-15z" fill="#050000"/><path class="st3" d="m65.6 14.7c0.2-0.4 0.4-0.7 0.7-1s0.6-0.5 1-0.6c0.4-0.2 0.8-0.2 1.2-0.2s0.8 0.1 1.2 0.2c0.4 0.2 0.7 0.4 1 0.6 0.3 0.3 0.5 0.6 0.7 1s0.2 0.8 0.2 1.2-0.1 0.9-0.2 1.2c-0.2 0.4-0.4 0.7-0.7 1s-0.6 0.5-1 0.6c-0.4 0.2-0.8 0.2-1.2 0.2s-0.8-0.1-1.2-0.2c-0.4-0.2-0.7-0.4-1-0.6-0.3-0.3-0.5-0.6-0.7-1s-0.2-0.8-0.2-1.2 0-0.8 0.2-1.2zm0.5 2.3c0.1 0.3 0.3 0.6 0.5 0.8s0.5 0.4 0.8 0.6c0.3 0.1 0.6 0.2 1 0.2s0.7-0.1 1-0.2 0.6-0.3 0.8-0.6c0.2-0.2 0.4-0.5 0.5-0.8s0.2-0.7 0.2-1c0-0.4-0.1-0.7-0.2-1s-0.3-0.6-0.5-0.8-0.5-0.4-0.8-0.5-0.6-0.2-1-0.2-0.7 0.1-1 0.2-0.6 0.3-0.8 0.5-0.4 0.5-0.5 0.8-0.2 0.7-0.2 1 0.1 0.7 0.2 1z" fill="#030303"/><path class="st3" d="m68.5 14.4c0.4 0 0.7 0.1 0.8 0.2 0.2 0.2 0.3 0.4 0.3 0.7s-0.1 0.5-0.2 0.6c-0.2 0.1-0.4 0.2-0.6 0.2l0.9 1.4h-0.5l-0.9-1.4h-0.5v1.4h-0.5v-3.2h1.2zm-0.2 1.4h0.3c0.1 0 0.2 0 0.3-0.1 0.1 0 0.1-0.1 0.2-0.2 0-0.1 0.1-0.2 0.1-0.3s0-0.2-0.1-0.3c0-0.1-0.1-0.1-0.2-0.1s-0.1-0.1-0.2-0.1h-0.3-0.7v1h0.6z" fill="#020000"/>
</svg>
