<svg version="1.1" viewBox="0 0 48 48" xmlns="http://www.w3.org/2000/svg">
 <path d="m36.858 12.785c-2.1997 0-4.3383 0.63568-6.2428 1.7211-1.8524 1.055-3.4667 2.4864-4.9046 4.0498a34.993 34.993 0 0 0-1.6389 1.923 55.486 55.486 0 0 0-1.47 1.948c-0.24308 0.33488-0.48465 0.67072-0.72672 1.0069-0.48264 0.67056-0.9738 1.3416-1.5356 1.9491a42.973 42.973 0 0 1-1.6008 1.6403c-1.3652 1.3267-2.8222 2.5878-4.4315 3.611-1.2725 0.80896-2.761 1.5798-4.3062 1.5798-4.1433 0-7.8576-3.2853-7.8576-8.2856 0-4.9998 3.5714-7.7142 7.8576-7.7142 2.4834 0 4.6791 1.0595 6.8096 2.8928l-1.1402 1.1728 2.7886 0.7048 2.7881 0.70448-1.5677-5.5341-1.2474 1.2835c-2.1797-1.9496-4.8886-3.5102-8.2881-3.5102-5.5722 0-10.143 4-10.143 10.143 0 5.8573 4.5713 10.142 9.715 10.142 2.128 0 4.1884-0.63392 6.0152-1.7096 1.6379-0.9656 3.0678-2.2392 4.3804-3.6056 0.44305-0.46064 0.87357-0.93312 1.3011-1.4077 0.55381-0.61584 1.074-1.2269 1.5381-1.9261l0.61195-0.92112c0.37539-0.5648 0.72221-1.1246 1.1247-1.6739 0.74125-1.0125 1.5181-1.9998 2.3541-2.9355 1.4023-1.5702 2.9911-3.0312 4.863-4.0224 1.485-0.7864 3.1284-1.2269 4.8114-1.2269 5.8579 0 9.1431 4.0715 9.1431 9.2858 0 4.8574-3.1429 8.8574-8.5718 8.8574-3.1028 0-5.8233-0.84144-8.689-3.3192l1.3276-1.6144-2.8367-0.47152-2.8372-0.47168 1.0099 2.6928 1.0109 2.6928 1.1282-1.3712c2.7771 2.499 5.8047 4.1483 9.7435 4.1483 6.571 0 10.857-5.0003 10.857-11.286 0-6.5717-4.428-11.143-11.142-11.143"/>
</svg>
