<svg width="512" height="512" version="1.1" xmlns="http://www.w3.org/2000/svg"><path d="m201 23.4c-14.2 17-17 40.2-16.2 61.6 0.881 17.8 1.62 35.5 1.84 53.3 0.0205 10.6 2.35 21.3 1.19 31.9-2.79 7.39-7.23 13.9-12.4 19.8-10.2 13.2-21.1 25.8-30.9 39.3-7.75 10.3-10.3 23-13.7 35.1-5.84 20-16.7 38-25.8 56.5-3.46 7.28-4.11 16-1.78 23.6-6.62 5.79-8.09 15.6-14.9 21.1-11.4 3.5-24.9-0.526-35.1 6.96-7.17 4.83-10.5 13.9-8.78 22.3 2.28 14 6.81 29.4-0.0276 42.9-4.57 8.57-10 18.7-5.89 28.5 2.93 7.12 9.97 11.7 17.5 12.6 16.4 4.8 32.7 10.3 49.4 14 13 3.37 26.3 5.85 38.8 10.9 9.78 4.53 20.5 9.78 31.5 6.73 16.5-3.25 32.7-14.6 36.7-31.7 1.55-5.6 11.1-4.18 16.2-4.43 8.87-0.436 17.2 0.0927 25.9 0.201 20.2 0.252 40.3 3.7 59.8 8.85 1.64 11.2 10.4 19.9 20.7 23.8 14.2 6.42 31.4 6.31 44.8-1.76 13-7.45 21.8-20.2 34.2-28.5 14.3-10.5 31.8-15.6 46.5-25.6 5.86-4.17 10.7-9.9 13.3-16.6 1.82-5.08 0.334-13.4-4.36-17.8-5.45-5.28-12.4-8.64-18-13.9-6.7-5.49-14.7-12-14.5-21.6-0.112-9.9-2.75-20.8-10.3-25.6-0.788-0.503-3.82-2.5-6.28-3.31 0.983-2.6 3.24-8.2 3.58-10.7 2.79-20.3-0.505-40.6-5.76-60-6.08-19.9-13.2-40.1-26-56.8-9.05-11.1-19.2-21.3-27.1-33.4-3.94-6.06-7.48-12.2-10.4-18.8-4.73-10.5-9.15-21.1-15.3-30.9-1.51-16-2.63-32.1-2.73-48.2-0.273-17.8-2.67-36.1-11.7-51.8-10.2-19-27.9-34-48.9-39.4-6.96-1.91-14.2-2.9-27.9-2.98s-34.5 7.82-47.2 23.8zm81.7 37.2c7.5 0.44 12.7 7.64 15.3 14.1 1.47 3.31 0.311 5.63-1.22 1.28-4.09-6.93-10.7-12.8-18.7-14.5 1.32-1.42 3.13-0.967 4.62-0.88zm-72 3.9c5.76 0.211 11.1 3.42 15.1 7.38 2.09 2.65 4.81 11.6 0.998 4.77-3.51-6.32-10.2-11.3-17.6-12.1 0.5-0.0403 1-0.0417 1.5-0.05zm63.9 7.06c12.9 0.249 21.9 12.5 23.6 24.4 1.38 9.9 0.84 21.3-5.92 29.2-3.39-1.49-11-2.13-11.6-3.83 11.7-5.32 11.1-24 0.208-30.2-6.72-3.84-15.4 0.0662-17.5 7.26-1.77 5.18-1.78 11.1 0.552 16.1-6.11-2.35-10.9-6.21-12.5-12.8-1.95-10.2 2.93-21 11.7-26.5 3.74-2.24 8.09-3.8 11.5-3.63zm-65 3.74c9.7-0.0683 16.3 9.17 19.1 17.5 1.59 5.56 4.68 15-2.93 17.2-6.04 4.35-4.28-5.09-4.73-9.43-0.726-7.04-12.8-14-17.2-5.32-3.79 8.47-2.22 19.9 5.92 25.3-3.03 2.86-7.67 9.93-9.9 2.82-4.46-8.55-4.11-18.6-4.51-28-0.105-8.73 4.33-19.4 14.2-20.1zm67.3 18.5c5.16 0.0318 10.2 7.33 7.18 11.7-3.67-0.961-2.61-8.32-8.08-8.16-1.86-0.948-1.36-3.75 0.9-3.5zm-63.6 1.28c4.9 0.543 8.12 8.93 3.91 11.8-2.51-2.36-0.525-7.84-4.99-9.71-0.446-0.858-0.0417-2.16 1.08-2.06zm27.9 14.4c12.7-0.382 22.6 9.07 34 13.1 5.98 2.75 12.7 3.3 18.7 5.97 4.28 2.74 5.44 8.56 3.97 13.2-1.22 5.55-0.626 13.2-7.78 14.8-11.3 2.76-19.2 11.8-28.9 17.5-11.4 6.2-26.3 10.1-38.3 3.15-9.34-5.75-13.2-17-21.9-23.4 5.56 2.82 8.92 9.02 15.3 10.6 12.2 4.08 25-0.0754 37-3.13 10.1-2.86 18.8-9.17 26.4-16.3 2.69-2.81 13.4-4.99 9.94-8.8-7.06-1.86-10.5 5.94-15.8 8.9-8.96 7.19-19.4 12.7-30.9 14.5-11.7 2.56-25.5 3.25-35.2-4.94-3.29-4.01-10.8-5.24-12.9-5.52-1.78-4.94 0.662-10.8 3.68-14.8 3.59-4.96 9.06-7.92 13-12.5 8.01-7.41 18.7-12.2 29.7-12.3zm6.57 5.6c-5.35 0.114-1.97 3.28 1.1 4.19 8.17 2.62 7.44-4.09-1.1-4.19zm-22.9 0.891c-5.98 1.57-0.633 7.21 0.803 0.92 0.00985-0.422-0.327-0.964-0.803-0.92zm72.4 41.8c4.48 12 10.6 23.2 16.2 34.6 5.84 12.4 9.84 25.7 11.8 39.3 17.3 17.5 26.6 41.6 28.7 65.9 1.71 17.3 0.613 34.7-1.55 51.8-8.1-1.12-17.5-3.55-24.5 2.01-7.2 5.46-7.15 15.3-6.23 23.5 0.823 13.6 0.809 27.2-0.534 40.8-15.6 15.4-32.8 30.9-54.8 36.1-12.4 2.98-25.3 3.91-37.9 1.66-7.09-1.11-14.1-2.97-20.7-5.7-4.51-8.55-11-15.8-16.9-23.4 7.52-0.00261 14.7-6.4 14-14.3-0.889-11.6-10.8-19.3-19.4-25.9-15.5-12.2-30.8-24.7-44.7-38.7-8.42-9.29-9.51-22.7-9.56-34.6 0.00378-13.1 5.02-25.3 10.8-36.8 3.54-7.39 6.78-15.1 11.8-21.6-4.06 12.7-9.38 25-14.7 37.3-6.7 16.9-6.58 37.1 3.35 52.7-0.463-36.2 12.6-71.6 32.7-101-1.85-14.8 4.65-29 13.1-40.7 6.04-8.82 13.8-17.6 13.8-28.9 0.698-3.41-1.53-13.8 3.29-6.9 6.43 7.17 12.1 16.3 22.1 18.7 13.8 3.57 28.5-0.987 40.2-8.54 7.27-4.93 14.3-10.9 23.1-12.6 2.47-0.812 4.89-2.09 6.45-4.23zm8.97 20.2c-1.45-2.9-1.45-2.9 0 0zm34.3 56.8c10.4 5.91 22 10.3 30.4 19.2 14 13.5 18.7 34.5 15.1 53.3-1.65 9.88-4.86 19.4-8.53 28.7-4.01 1.4-4.74 0.602-2.81-3.13 6.51-18.8 11.5-39.9 4.43-59.3-4.17-12.3-13.3-22.4-24.6-28.7-4.9-3.03-9.88-6.05-14-10.1zm31.7 104c7.51 0.6 15.1 0.603 22.6 1.6 8.37 1.41-3.83 0.299-7.42 0.571-8.28 0.628-17.4 0.684-24 6.4-2.33 1.83-4.9 3.11-1.87-0.45 2.61-3.74 6.36-6.73 10.7-8.12zm-252 4.45c11.5 0.83 18.4 11.3 24.5 19.8 11 15 20.7 31 30 47.1 8.2 14.9 21.9 26 28.8 41.7 7.08 15.8 1.67 36.3-13.2 45.6-10.2 6.99-23.6 6.81-34.7 2.11-11.8-4.96-23.6-9.99-36.2-12.8-17.5-4.19-35.3-7.57-52.3-13.7-7.44-2.73-17.7-3-21.4-11.3-3.23-8.95 3.71-16.9 6.57-24.9 5.52-15.6-0.0348-32.1 0.184-48.1-0.126-7.53 4.95-15.1 12.7-16.1 9.62-1.95 21 2.28 29.1-4.85 7.97-6.91 9.42-20 20.1-23.9 1.82-0.627 3.77-0.862 5.69-0.763zm236 12.8c-2.06 8.75-2.28 19.3 3.97 26.5 8.63 8.06 22.4 8.04 32.6 3.12 11-5.17 21-14.3 24.6-26.2 6.25 1.18 10.9 6.43 12 12.6 1.78 7.09 0.203 15.1 4.69 21.4 5.64 8.66 14.3 14.7 22.4 21 5.26 3.37 11.9 7.56 11.4 14.7-1.58 9.03-9.66 15.4-17.3 19.6-16.4 8.74-34.2 15.6-48.2 28.3-11 9.32-20.1 21.9-34.7 25.9-13.1 3.76-27.9 0.163-38.5-8.24-8.83-7.39-8.48-19.9-7.6-30.4 2.18-20 7.39-39.6 8.11-59.7 0.822-13.2 0.0196-26.4-0.648-39.6-0.308-5.53 3.41-11.5 9.4-11.7 5.58 0.378 13.8-0.277 17.8 2.72z"/></svg>
