<svg clip-rule="evenodd" fill-rule="evenodd" version="1.1" viewBox="0 0 664.78 664.78" xml:space="preserve" xmlns="http://www.w3.org/2000/svg"><defs><clipPath id="a"><rect width="906.67" height="1351.1"/></clipPath></defs><path transform="translate(-120.55 -146.88)" d="m452.93 146.88c-106.82 0.085-207.29 51.654-269.63 138.39 160.66-0.313 221.37-0.722 423.77-0.722l-116.95 178.18 87.385 141.5h-66.693l-55.83-93.532-82.408 120.98 375.98-0.896c24.094-46.873 36.698-98.812 36.768-151.52-2e-3 -182.34-150.05-332.38-332.39-332.38h-8e-3zm-45.204 178.88c-88.711 0.087-137.41 0.833-249.79 0.822-24.491 47.17-37.314 99.534-37.39 152.68v8e-3c0 182.34 150.04 332.38 332.38 332.39 107.2-0.078 207.99-52.011 270.28-139.26-161.23 0.834-222.38 1.594-425.02 1.594l136.67-194.32-77.182-126.63h66.494l45.329 77.829 66.332-104.83c-53.02-0.254-93.657-0.321-128.11-0.286z" clip-path="url(#a)"/></svg>
