<?xml version="1.0" encoding="UTF-8" standalone="no"?>
<svg
   xmlns:dc="http://purl.org/dc/elements/1.1/"
   xmlns:cc="http://creativecommons.org/ns#"
   xmlns:rdf="http://www.w3.org/1999/02/22-rdf-syntax-ns#"
   xmlns:svg="http://www.w3.org/2000/svg"
   xmlns="http://www.w3.org/2000/svg"
   width="512"
   height="512"
   id="svg3037"
   version="1.1">
  <defs
     id="defs5498" />
  <metadata
     id="metadata5594">
    <rdf:RDF>
      <cc:Work
         rdf:about="">
        <dc:format>image/svg+xml</dc:format>
        <dc:type
           rdf:resource="http://purl.org/dc/dcmitype/StillImage" />
        <dc:title />
      </cc:Work>
    </rdf:RDF>
  </metadata>
  <g
     id="layer1"
     transform="translate(-100.75915,-484.95513)">
    <g
       id="g3159"
       transform="matrix(1.8062188,0,0,1.8062258,100.75924,484.95513)">
      <path
         style="fill:#000000;fill-opacity:1"
         id="path8"
         d="m 23.405256,117.6034 c -13.330689,0 -24.1324631,10.80178 -24.1324631,24.13247 0,13.32559 10.8017741,24.12863 24.1324631,24.12863 13.325588,0 24.128637,-10.80304 24.128637,-24.12863 0,-13.33197 -10.801774,-24.13247 -24.128637,-24.13247 z M 195.70694,227.28158 c -11.54273,6.66343 -15.4936,21.41608 -8.83272,32.9537 6.66471,11.54272 21.41608,15.49614 32.9588,8.83271 11.5389,-6.66216 15.49232,-21.4148 8.82889,-32.95625 -6.66216,-11.53762 -21.41608,-15.49232 -32.95497,-8.83016 z M 75.822552,141.73204 c 0,-23.84935 11.851344,-44.914717 29.974608,-57.670247 L 88.154683,54.509314 C 67.035749,68.61921 51.326629,90.1896 44.80093,115.45325 c 7.622455,6.21325 12.492818,15.67469 12.492818,26.28134 0,10.6041 -4.870363,20.06554 -12.494094,26.27752 6.524425,25.2662 22.23482,46.83659 43.353754,60.94521 L 105.79716,199.40229 C 87.673896,186.64931 75.822552,165.58521 75.822552,141.73204 z M 146.31465,71.239948 c 36.82677,0 67.03476,28.236371 70.20132,64.240582 l 34.39224,-0.50247 c -1.69232,-26.58231 -13.30391,-50.453334 -31.14916,-67.997608 -9.17449,3.46626 -19.77349,2.940838 -28.93396,-2.349098 -9.17194,-5.295037 -14.92736,-14.227224 -16.50363,-23.920764 -8.91688,-2.467701 -18.3018,-3.813141 -28.00554,-3.813141 -16.68855,0 -32.45506,3.917715 -46.460378,10.855336 l 16.765068,30.04602 c 9.02528,-4.199556 19.08228,-6.558857 29.69404,-6.558857 z m 0,140.985462 c -10.61303,0 -20.66876,-2.3593 -29.69532,-6.55886 l -16.767614,30.04857 c 14.006594,6.93507 29.774384,10.85406 46.462934,10.85406 9.70374,0 19.08866,-1.34543 28.00681,-3.81314 1.57627,-9.69354 7.33297,-18.62572 16.50619,-23.92459 9.16046,-5.28738 19.75946,-5.8128 28.93396,-2.34527 17.84396,-17.54555 29.45555,-41.41657 31.14532,-67.99889 l -34.39223,-0.50246 c -3.16402,36.00931 -33.37328,64.24058 -70.20005,64.24058 z M 195.70311,56.181229 c 11.54145,6.665983 26.29537,2.711284 32.95625,-8.826337 6.66471,-11.542721 2.71383,-26.295368 -8.82889,-32.960075 -11.54017,-6.6621565 -26.29282,-2.708733 -32.95752,8.833989 -6.66216,11.53762 -2.70874,26.291542 8.83016,32.952423 z" />
    </g>
  </g>
</svg>
