<svg fill="none" version="1.1" viewBox="0 0 512 512" xmlns="http://www.w3.org/2000/svg"><path d="m256 0c-141.38 0-256 114.62-256 256s114.62 256 256 256 256-114.62 256-256-114.62-256-256-256zm88 300-0.00781 0.00391c41.974 0 76.012 34.888 76 78-3e-3 12.698-1.1848 26.914-6.0078 38.004-5.3 12.188-10.755 19.162-18 28-19.808 24.166-55.01 39.996-92.992 39.996-51.238 0-94.692-31.712-106-72-5.681-20.239-4.192-24.452-5-36 5.66 10.82 8.1 14.56 15.5 18.82 4.643 2.671 9.2833 3.4009 11.902 3.7949 10.061 1.516 16.793-2.2241 24.605-6.6191 9.603-5.402 16.569-14.028 20-20 2.661-4.632 4.022-7.022 6-14 9.37-33.056 38.888-58 74-58z" fill="#030303"/></svg>
