<?xml version="1.0" encoding="UTF-8"?>
<svg width="500" height="500" data-name="Layer 1" version="1.1" viewBox="0 0 500 500" xmlns="http://www.w3.org/2000/svg">
 <script/>
 <path d="m250.33 1.3466a250.11 250.11 0 0 0-250.11 250.11 250.11 250.11 0 0 0 250.11 250.11 250.11 250.11 0 0 0 250.11-250.11 250.11 250.11 0 0 0-250.11-250.11zm74.042 63.404a55.592 55.592 0 0 1 55.59 55.594 55.592 55.592 0 0 1-55.59 55.588 55.592 55.592 0 0 1-55.592-55.588 55.592 55.592 0 0 1 55.592-55.594zm-76.477 5.6396c4.3464 0.02471 8.7075 0.20618 13.077 0.55189-7.425 9.5312-12.639 20.66-15.192 32.574-0.89356 4.106-1.4447 8.316-1.6787 12.507-43.763 0.78718-84.143 22.404-109.18 58.401-7.7866-4.8294-16.317-8.2766-25.38-10.213-5.5528-1.1914-11.171-1.787-16.787-1.787-1.4041 0-2.83 0.0231-4.2341 0.10825 32.431-57.223 94.184-92.513 159.38-92.143zm150.43 81.417c26.892 40.635 36.445 90.738 26.212 138.48-5.87 27.393-18.037 53.152-35.325 74.933v0.0213h-0.0209c9e-3 -6e-3 9e-3 -0.0149 0.0173-0.0213-4.2999-16.246-13.531-30.686-26.61-41.404 8.1908-13.233 14.001-27.721 17.299-43.081 6.7228-31.402 2.1456-64.035-12.853-92.31 13.999-8.7653 24.873-21.533 31.277-36.616zm-305.51 34.851a55.592 55.592 0 0 1 55.59 55.588 55.592 55.592 0 0 1-55.59 55.594 55.592 55.592 0 0 1-55.592-55.594 55.592 55.592 0 0 1 55.592-55.588zm33.06 128.26c18.807 36.252 52.295 61.846 92.334 70.42l0.0213 0.0213c4.489 0.95736 9.0635 1.7041 13.638 2.2147 0.38294 16.871 6.0626 33.06 16.275 46.485-13.212 0.0851-26.487-1.2768-39.486-4.0638-59.251-12.701-107.55-53.316-130.31-109.23 16.041 2.9572 32.7 0.89338 47.528-5.8508zm185.96 15.151a55.592 55.592 0 0 1 55.594 55.588 55.592 55.592 0 0 1-55.594 55.594 55.592 55.592 0 0 1-55.594-55.594 55.592 55.592 0 0 1 55.594-55.588z" fill-rule="evenodd"/>
</svg>
