<svg width="135.61mm" height="135.63mm" version="1.1" viewBox="0 0 135.61 135.63" xmlns="http://www.w3.org/2000/svg"><g transform="translate(-30.024 -75.121)"><path d="m90.109 210.3c-55.811-6.3701-80.025-74.338-40.884-114.76 35.193-36.344 97.233-22.055 112.98 26.021 15.363 46.9-23.167 94.322-72.098 88.737zm37.115-16.769c5.9446-2.9396 7.2615-10.819 2.5884-15.488-5.8589-5.8526-15.826-2.041-16.363 6.2577-0.47036 7.265 7.2659 12.449 13.775 9.2299zm-23.224-7.5612c5.0935-0.68869 5.9531-1.0093 5.9531-2.2201 0-8.2162 10.325-14.467 18.166-10.999 2.8187 1.2468 10.024-10.733 12.089-20.1 1.4654-6.6459 1.4065-6.8792-1.736-6.8792-10.761 0-12.309 0.23964-12.501 1.9363-1.9312 17.07-22.475 28.673-38.341 21.655-1.0188-0.45066-9.1608 11.771-8.3326 12.507 3.3704 2.9989 16.601 5.1944 24.701 4.0992zm-26.257-13.638c3.5662-6.3811 3.5662-6.3811 1.5091-8.2627-12.368-11.313-12.112-31.348 0.53838-42.09 0.94588-0.80326 1.7041-1.6075 1.6849-1.7872-0.04147-0.38799-7.2431-12.52-7.4319-12.52-1.5393 0-9.7427 8.5843-12.516 13.097-4.321 7.0316-5.314 10.897-3.319 12.919 5.2592 5.3313 5.2285 13.313-0.07174 18.683-2.2157 2.2448-0.74386 7.1874 4.4423 14.917 2.6425 3.9386 10.908 12.181 11.53 11.498 0.03706-0.0407 1.6722-2.9455 3.6335-6.4551zm30.007-13.023c-0.16146-1.5447-0.16146-1.5447 1.9425-3.4538s2.104-1.909 1.0858-3.9454c-2.7336-5.4671-0.4894-10.718 4.2255-9.8874 3.1193 0.54972 7.2136-4.9757 5.1879-7.0014-0.79874-0.79873-4.8242 1.5173-6.2464 3.5938-3.9807 5.812-9.2023 5.8747-16.972 0.20376-3.1102-2.2701-3.0456-1.941-0.93057-4.745 1.7005-2.2544 1.7005-2.2544 1.041-4.8516-0.65949-2.5972-0.65949-2.5972 0.42657-5.6573s1.0861-3.0601-1.5463-0.44301c-3.0691 3.0513-3.8663 3.296-2.9235 0.8971 0.54925-1.3976 0.54925-1.3976-1.9187 1.0056-1.5174 1.4775-3.3117 2.9043-4.6584 3.7042-2.1904 1.301-2.1904 1.301-4.6964 5.9742-2.9519 5.5048-2.8101 4.4915-1.1827 8.4505 0.91097 2.2162 1.4507 4.0119 1.7322 5.7634 0.22493 1.3993 0.71485 3.3352 1.0887 4.302 0.67975 1.7578 0.67975 1.7578-1.204 3.9688-1.8838 2.2109-1.8838 2.2109 0.53214 2.2874 2.8913 0.0916 2.5649 0.37194 3.009-2.5842 0.44113-2.9359 2.1173-5.9809 3.1525-5.7272 2.8536 0.69951 4.9359 0.26402 8.7636-1.8328 1.5964-0.87453 1.5964-0.87453 3.2526 0.17843 1.9419 1.2347 1.9488 1.2196-2.7279 5.9866-2.6606 2.712-2.6606 2.712-0.0757 2.712 2.5849 0 2.5849 0 2.5849-1.1292 0-2.0546 4.2718-5.0489 5.3204-3.7294 1.0056 1.2654 1.0713 1.0451-1.3403 4.4938-2.1053 3.0107-2.1053 3.0107 0.56686 3.0107s2.6722 0 2.5107-1.5447zm-54.88-7.5198c9.4132-4.3095 6.4275-18.32-3.9041-18.32-11.08 0-13.286 15.358-2.7024 18.814 1.7402 0.56829 4.7829 0.34068 6.6065-0.49421zm81.999-11.838c6.3222 0 6.3222 0 6.1549-1.3891-1.0482-8.7046-4.7049-16.978-10.466-23.68-1.8465-2.1481-1.6864-2.0875-3.672-1.3891-7.1306 2.5083-15.503-2.4585-16.933-10.045-0.3503-1.8585-0.23127-1.7742-3.4581-2.448-7.8194-1.6327-19.555-0.25441-26.104 3.0659-1.1061 0.56078 0.21898 3.3193 6.3971 13.317 0.01836 0.0297 1.0557-0.29838 2.3052-0.72907 16.281-5.6117 34.896 5.5287 36.881 22.071 0.1863 1.5526 0.1863 1.5526 1.3795 1.3891 0.65624-0.0899 4.0382-0.16354 7.5154-0.16354zm-7.8973-30.261c6.0618-2.9658 7.446-10.468 2.8317-15.347-5.4738-5.7877-14.965-2.8483-16.403 5.0798-1.3494 7.4415 6.7787 13.591 13.571 10.268z"/></g></svg>
