<?xml version="1.0" encoding="UTF-8"?>
<svg width="500" height="500" data-name="Layer 1" version="1.1" viewBox="0 0 500 500" xmlns="http://www.w3.org/2000/svg">
 <script/>
 <path d="m346.17 26.146a66.417 66.417 0 0 0-66.419 66.419 66.417 66.417 0 0 0 66.419 66.414 66.417 66.417 0 0 0 66.414-66.414 66.417 66.417 0 0 0-66.414-66.419zm-91.371 6.7368c-77.892-0.44222-151.67 41.72-190.42 110.09 1.6776-0.1017 3.3812-0.12912 5.0588-0.12912 6.7103 0 13.422 0.7113 20.056 2.1347 10.828 2.313 21.02 6.4328 30.323 12.203 29.917-43.007 78.161-68.835 130.45-69.775 0.2796-5.0073 0.93807-10.037 2.0056-14.943 3.0502-14.234 9.2792-27.529 18.15-38.916-5.2202-0.41304-10.43-0.6308-15.623-0.66028zm179.72 97.273c-7.6508 18.021-20.642 33.274-37.367 43.747 17.92 33.78 23.387 72.768 15.355 110.29-3.9398 18.352-10.881 35.661-20.667 51.471 15.625 12.805 26.655 30.056 31.792 49.466 20.654-26.023 35.19-56.796 42.203-89.524 12.226-57.038 0.81256-116.9-31.316-165.45zm-10.887 254.97c-8e-3 8e-3 -0.0127 0.0178-0.0204 0.0254h0.0254c-2e-3 -8e-3 -2e-3 -0.0178-5e-3 -0.0254zm-354.11-213.33a66.417 66.417 0 0 0-66.419 66.414 66.417 66.417 0 0 0 66.419 66.419 66.417 66.417 0 0 0 66.414-66.419 66.417 66.417 0 0 0-66.414-66.414zm39.497 153.24c-17.716 8.0575-37.618 10.523-56.783 6.9899 27.197 66.798 84.896 115.32 155.69 130.5 15.53 3.3298 31.393 4.9569 47.177 4.8552-12.201-16.039-18.988-35.381-19.446-55.537-5.4649-0.61003-10.93-1.5022-16.293-2.646l-0.0254-0.0254c-47.837-10.243-87.846-40.82-110.32-84.133zm222.18 18.1a66.417 66.417 0 0 0-66.419 66.414 66.417 66.417 0 0 0 66.419 66.419 66.417 66.417 0 0 0 66.419-66.419 66.417 66.417 0 0 0-66.419-66.414z" fill-rule="evenodd"/>
</svg>
