<svg width="135.15mm" height="135.47mm" version="1.1" viewBox="0 0 135.15 135.47" xmlns="http://www.w3.org/2000/svg"><path d="m64.912 0.0699c-13.189 0.6567-24.918 4.5074-35.314 11.593-35.148 23.958-39.784 73.963-9.6472 104.06 30.132 30.091 80.151 25.112 103.76-10.33 22.61-33.936 10.503-80.044-25.786-98.201-10.165-5.0858-22.117-7.6634-33.017-7.1207zm19.881 10.735c9.42 2.722 18.058 7.8092 24.59 14.482 1.5129 1.546 2.1156 2.7702 2.1878 4.4447 0.195 4.523-5.0707 7.5068-8.8249 4.9996-0.22939-0.15319-1.0083-0.85566-1.7309-1.5616-5.8928-5.7534-11.57-9.1072-19.37-11.443-0.71093-0.21273-1.4526-0.46726-1.6481-0.56568-4.7551-2.3865-3.6118-9.7832 1.6349-10.578 1.4256-0.2159 1.7156-0.19579 3.161 0.22225zm-14.971 17.349c25.195 1.6526 42.392 25.444 36.121 49.972-6.2272 24.354-33.354 36.958-55.994 26.018-5.2956-2.559-10.973-7.0289-12.183-9.5919-1.6237-3.4383 0.77602-7.1123 4.7376-7.2544 1.8293-0.0659 2.8448 0.35613 4.4106 1.8338 12.844 12.116 32.393 10.853 43.279-2.799 13.011-16.316 5.1186-40.885-14.97-46.604-10.211-2.9067-20.401-0.2286-28.634 7.5253-3.057 2.8792-7.0554 2.3498-8.7815-1.1628-1.0885-2.2156-0.56753-5.5078 0.99774-6.3029 0.16378-0.0831 0.66172-0.50139 1.107-0.93028 7.702-7.4142 18.909-11.424 29.91-10.703zm-0.77152 18.656c11.32 1.0279 19.723 10.521 19.37 21.883-0.35984 11.556-9.6467 20.62-21.128 20.62-13.652 0-23.657-12.716-20.584-26.161 2.3299-10.193 12.018-17.279 22.342-16.342zm-51.464 2.0733c2.4516 0.60192 4.1521 3.1768 3.8074 5.7655-0.04418 0.33232-0.21775 1.1427-0.3855 1.801-2.01 7.878-2.0074 14.909 0.0087 22.939 0.48048 1.9143 0.4789 2.9117-0.0079 4.1225-1.5817 3.9328-7.0289 4.6852-9.7383 1.3457-1.5491-1.9095-3.0623-10.291-3.0639-16.971-0.0016-5.8965 1.3944-14.416 2.6564-16.211 1.6999-2.418 4.1317-3.4279 6.7231-2.7919zm16.641 4.6628c3.6155 0.57044 5.5869 3.7531 4.6466 7.502-1.2414 4.9512-1.2533 8.826-0.0418 13.846 0.63341 2.6255 0.2876 4.2204-1.2695 5.8515-3.0448 3.1911-7.8875 1.7132-9.0416-2.7596-1.5425-5.9783-1.7097-11.934-0.49768-17.717 0.66834-3.1904 1.1303-4.4543 1.9137-5.2377 1.124-1.124 2.8318-1.715 4.2902-1.4851zm31.912 3.6457c-8.1042 1.1269-12.327 10.288-7.8438 17.017 5.91 8.8699 19.837 4.6043 19.837-6.0756 0-6.3-6.0013-11.775-11.994-10.942zm39.935 43.624c4.3566 0.96335 6.1542 6.132 3.28 9.4332-2.4524 2.8168-7.8065 6.9932-12.179 9.5001-4.7419 2.7189-12.722 5.8214-15.293 5.9457-4.8215 0.23362-7.7502-5.2062-4.8009-8.9173 0.83079-1.0456 1.6669-1.5301 3.6965-2.1413 8.0052-2.4106 13.341-5.5875 19.702-11.732 2.0405-1.9709 3.5597-2.5379 5.5944-2.0884z" clip-rule="evenodd" fill="#010101" fill-rule="evenodd" stroke-width=".26458"/></svg>
