<svg width="135.39mm" height="135.47mm" version="1.1" viewBox="0 0 135.39 135.47" xmlns="http://www.w3.org/2000/svg"><g transform="translate(-37.306 -80.962)"><path d="m103.14 80.981c-36.597 0.87471-65.802 30.812-65.831 67.483-0.03836 48.063 48.029 80.775 92.735 63.112 31.116-12.294 48.583-45.95 40.815-78.642-0.46937-1.9756-0.81757-3.2232-1.5462-5.5414-4.4715-14.222-15.256-27.926-28.481-36.192-1.5661-0.97869-2.3545-1.4203-5.5684-3.1184-8.945-4.7255-20.903-7.3692-32.123-7.1009zm18.301 21.301a14293 14293 0 0 0 12.395 7.3208c6.4685 3.8185 7.5147 4.4368 8.1402 4.8112 0.7194 0.43048 1.1412 0.11827-5.2237 3.865a20542 20542 0 0 0-17.868 10.529c-1.0856 0.64082-2.119 1.2435-2.2966 1.3388l-0.32332 0.17277v-31.099l0.54663 0.32411c0.30083 0.17806 2.3842 1.4102 4.6299 2.7376zm-12.712 5.1488c2.1516 0.19579 1.9894-0.0532 1.9894 3.0467 0 3.2186 0.21035 2.9697-2.2651 2.6808-14.733-1.7185-29.5 6.7011-35.983 20.517l-0.75539 1.6095-1.3121-0.78713a226.86 226.86 0 0 0-2.3696-1.4004c-1.2703-0.73687-1.2589-0.58817-0.2032-2.7339 1.9325-3.9264 6.1751-9.7687 8.3032-11.435 0.21696-0.16959 0.75512-0.65008 1.1962-1.0671 7.8766-7.4512 19.975-11.47 31.4-10.431zm0.17092 14.198c0.72178 0.12568 1.3944 0.25797 1.4946 0.29422 0.13732 0.0492 0.1823 0.77073 0.1823 2.9313v2.8665l-0.47387-0.0974c-11.176-2.2953-21.8 3.416-25.415 13.663-0.50615 1.434-0.39211 1.4047-1.9108 0.49795a227.11 227.11 0 0 0-2.4172-1.4202c-1.2872-0.74268-1.2562-0.66542-0.7575-1.8928 4.7326-11.648 17.382-18.92 29.297-16.843zm30.018 3.3216c8.7151 12.235 9.8946 28.785 3.0165 42.322-1.6981 3.3425-3.7714 6.4437-4.1982 6.2799-1.2504-0.47969-4.6964-2.7644-4.5257-3.0006 5.3422-7.3917 7.3403-13.395 7.3274-22.014-0.0122-7.9055-2.957-16.896-6.9612-21.253-0.37597-0.40904-0.50403-0.2958 2.1275-1.887 2.6503-1.6031 2.4138-1.5703 3.2136-0.44688zm-12.562 6.7807c0.55801 0.59373 1.8722 2.5802 2.6352 3.982 5.0602 9.2975 4.2267 20.757-2.1267 29.24l-1.1377 1.5192-0.47757-0.2548c-1.4023-0.74771-4.4611-2.604-4.4627-2.7083-1e-3 -0.0667 0.38259-0.59161 0.85249-1.1666 6.5048-7.9618 6.5349-19.642 0.0706-27.317-0.83079-0.98637-0.95409-0.81307 1.6632-2.3442 2.6077-1.5258 2.4805-1.4854 2.9832-0.94986zm-66.261 3.1927c1.579 0.93371 3.7237 2.204 4.7662 2.8228a1357.8 1357.8 0 0 0 4.4476 2.6223c1.4036 0.82339 2.8472 1.678 3.2083 1.8986 0.36089 0.2204 1.9357 1.1544 3.4996 2.0757 6.2884 3.7031 7.1453 4.2217 7.1453 4.3196 0 0.0561-0.60695 0.45879-1.3488 0.89429a973.56 973.56 0 0 0-2.7342 1.6137c-2.5045 1.4843-7.0091 4.1399-10.864 6.4045-2.0854 1.2253-4.0868 2.4074-4.4476 2.6273-1.6838 1.0266-6.431 3.8068-6.6305 3.883-0.23416 0.0899-0.35983-30.529-0.12594-30.763 0.14578-0.14631 0.01905-0.21219 3.0837 1.6007zm24.373 20.503c3.017 10.072 14.752 16.794 25.015 14.329 0.48128-0.11563 0.92419-0.21247 0.98452-0.21538 0.2659-0.0124 0.12197 5.8042-0.14605 5.8872-1.67 0.51699-6.3997 0.6723-9.0808 0.29818-9.6441-1.3449-18.049-7.8766-21.583-16.773-0.56198-1.4147-0.7403-1.1655 1.9756-2.7633 2.7101-1.5941 2.5945-1.5629 2.8345-0.76279zm-12.036 8.1322c6.4751 14.241 21.633 22.524 37.452 20.465l0.69268-0.09v2.8527c0 2.59-0.0233 2.8591-0.25532 2.9292-0.14023 0.0418-1.2393 0.15293-2.4424 0.24632-16.463 1.2772-32.563-7.9356-39.99-22.884-1.1594-2.3336-1.2885-2.0172 1.4928-3.6687 2.5913-1.5383 2.2762-1.5536 3.0501 0.1487zm51.05 8.1677a4919.2 4919.2 0 0 1 8.1661 4.8099 2437.5 2437.5 0 0 0 4.3746 2.5823c1.3637 0.80275 3.3486 1.9719 4.4114 2.5982 1.8635 1.0988 2.1863 1.397 1.7087 1.5804-0.12303 0.0468-1.5174 0.85117-3.0988 1.7867a11016 11016 0 0 1-6.4479 3.811 10286 10286 0 0 0-6.3434 3.7486c-1.524 0.90117-3.919 2.3151-5.3226 3.1414a893.78 893.78 0 0 0-3.4906 2.0627c-0.5162 0.30798-0.99192 0.56039-1.0573 0.56039-0.0651 0-0.11827-6.9612-0.11827-15.469v-15.469l0.47387 0.28469c0.26061 0.15637 3.2956 1.9439 6.7442 3.9719z" clip-rule="evenodd" fill="#010000" fill-rule="evenodd" stroke-width=".26458"/></g></svg>
