<svg version="1.1" viewBox="0 0 56 56" xmlns="http://www.w3.org/2000/svg"><path d="m28 0a28 28 0 0 0-28 28 28 28 0 0 0 28 28 28 28 0 0 0 28-28 28 28 0 0 0-28-28zm0 6.0527a22 22 0 0 1 16.947 8h-16.947a14 14 0 0 0-13.246 9.5098l-4.3398-8.6816a22 22 0 0 1 17.586-8.8281zm8.4355 10.85h10.498a22 22 0 0 1 3.0664 11.15 22 22 0 0 1-20.473 21.947l4.709-9.4199a14 14 0 0 0 7.7637-12.527 14 14 0 0 0-5.5645-11.15zm-27.725 0.57422 5.2891 10.576a14 14 0 0 0 14 14 14 14 0 0 0 2.6289-0.25976l-4.0918 8.1875a22 22 0 0 1-20.537-21.928 22 22 0 0 1 2.7109-10.576zm9.2891 3.5762h3v12h3v-12h3v12c0 3-3 3-3 3h-3s-3-6e-6 -3-3zm11 0h9v3h-6v3h6v3h-6v3h6v3h-9z"/></svg>
