<svg clip-rule="evenodd" fill-rule="evenodd" version="1.1" viewBox="0 0 658.95 658.95" xml:space="preserve" xmlns="http://www.w3.org/2000/svg"><defs><clipPath id="a"><rect width="906.67" height="1351.1"/></clipPath></defs><path transform="translate(-123.77 -151.1)" d="m453.24 151.1c-181.97 0-329.47 147.5-329.47 329.47 1e-5 181.97 147.5 329.47 329.47 329.47 181.97-1e-5 329.47-147.5 329.47-329.47 0-181.97-147.5-329.47-329.47-329.47zm-46.322 254.28c84.798 1.004 118.73 89.291 194.44 133.35 32.79 19.092 80.759 35.858 129.82 47.141-42.557 112.25-150.78 192.18-277.94 192.18-129.86 0-239.99-83.352-280.57-199.37 113.57-11.194 281.34-47.333 181.32-164.04 19.781-6.6358 37.228-9.4437 52.932-9.2578z" clip-path="url(#a)"/></svg>
