<?xml version="1.0" encoding="UTF-8"?>
<svg clip-rule="evenodd" fill-rule="evenodd" stroke-linecap="round" stroke-miterlimit="1" version="1.1" viewBox="0 0 48 48" xmlns="http://www.w3.org/2000/svg">
 <path d="m24.016 1.6556c-2.0696 2.0573-3.666 3.8963-4.7896 5.5173-2.0947 3.0219-2.8097 6.3632-2.9555 7.3052-0.06869 0.4437-0.01615 1.4776 0.33621 2.9253-3.344-2.7437-7.5677-2.6519-12.223-1.7822-1.4751 0.27566-2.9365 0.36716-4.3841 0.27467 0.74443 2.8214 1.5368 5.1243 2.3774 6.9086 1.5669 3.3264 4.101 5.6184 4.8434 6.2162 0.50225 0.40456 2.174 1.2023 4.8594 1.6725-0.30126 0.09959-0.59003 0.20422-0.85506 0.31826-4.115 1.7706-5.9133 5.6893-7.1758 10.367-0.39103 1.4487-0.94202 2.8053-1.6528 4.0699 2.8653 0.55191 5.2842 0.83595 7.2564 0.85192 3.6769 0.02961 6.8406-1.2604 7.7012-1.6702 0.86062-0.40986 3.6012-2.7414 5.9105-7.5738 0.27549-0.57652 0.52526-1.1979 0.75476-1.854 1.1322 3.2237 2.3299 5.5758 3.594 7.0447 2.9221 3.3954 7.1997 3.9373 12.04 3.7405 1.4994-0.06104 2.9587 0.05823 4.3781 0.35758-0.3319-2.8992-0.78562-5.292-1.3614-7.1784-1.0733-3.5168-3.2517-6.1487-3.9006-6.847-0.39504-0.42502-1.6836-1.3013-3.8234-2.0925 1.2447-0.12637 2.3072-0.34163 3.1869-0.64564 4.2339-1.4631 6.3158-5.2388 7.9189-9.8105 0.49649-1.416 1.1459-2.7285 1.9477-3.9374-2.817-0.76118-5.2084-1.2224-7.1741-1.3833-3.6648-0.30004-6.9148 0.75375-7.8032 1.0992-0.37482 0.14575-1.1109 0.61266-2.0335 1.4474 0.809-4.3604-1.4054-8.03-4.54-11.683-0.97706-1.139-1.7882-2.3582-2.433-3.6576z" clip-rule="evenodd" fill="#000000" fill-rule="nonzero" stroke-linecap="round" stroke-miterlimit="1" stroke-width=".13387"/>
</svg>
