<?xml version="1.0" encoding="UTF-8"?>
<svg version="1.1" viewBox="0 0 48 48" xmlns="http://www.w3.org/2000/svg">
 <path d="m24.016 1.6556c-2.0695 2.0573-3.666 3.8963-4.7896 5.5173-2.0947 3.0219-2.8097 6.3632-2.9555 7.3052-0.06874 0.44399-0.01596 1.479 0.33706 2.9282-2.0616-1.6922-4.4567-2.3091-7.0824-2.327-1.6336-0.011078-3.3559 0.20832-5.1417 0.54192-1.4751 0.27566-2.9365 0.36717-4.3841 0.27467 0.74443 2.8214 1.5368 5.1243 2.3774 6.9086 1.5669 3.3264 4.101 5.6184 4.8434 6.2162 0.50183 0.40422 2.1715 1.201 4.8528 1.6714-0.3006 0.09942-0.584 0.20559-0.8485 0.3194-4.115 1.7706-5.9133 5.6893-7.1758 10.367-0.39102 1.4487-0.94202 2.8053-1.6528 4.0699 2.8653 0.55191 5.2842 0.83595 7.2564 0.85192 3.6769 0.02961 6.8406-1.2604 7.7012-1.6702 0.86062-0.40986 3.6012-2.7414 5.9105-7.5738 0.27553-0.57661 0.52524-1.198 0.75476-1.8543 1.1322 3.2238 2.3299 5.5761 3.594 7.045 2.922 3.3954 7.1997 3.9373 12.04 3.7405 1.4994-0.06104 2.9587 0.05823 4.3781 0.35758-0.3319-2.8991-0.78562-5.292-1.3614-7.1784-1.0733-3.5168-3.2517-6.1487-3.9006-6.847-0.39512-0.4251-1.684-1.3015-3.8245-2.0928 1.2452-0.12638 2.308-0.34125 3.188-0.64535 4.2339-1.4631 6.3158-5.2388 7.9189-9.8105 0.49649-1.416 1.1459-2.7285 1.9477-3.9374-2.817-0.76118-5.2084-1.2224-7.1741-1.3833-0.4581-0.0375-0.90978-0.05378-1.3511-0.05299-3.0893 0.0054-5.6748 0.84994-6.4521 1.1522-0.37482 0.14576-1.1109 0.61262-2.0335 1.4474 0.809-4.3604-1.4054-8.03-4.54-11.683-0.97706-1.1389-1.7882-2.3582-2.433-3.6576zm-0.54563 6.1413 0.43422 15.091c1.1574-0.14221 2.3908-0.84429 3.4544-0.28891 1.1421 0.59638 0.9435 2.1234 1.6033 3.1618 0.01577 0.02475 0.03524 0.04469 0.05158 0.06867 3.9246-2.6025 7.7105-4.8827 13.096-7.3137l-12.875 7.6072c0.67605 0.77913 1.6143 1.1888 1.662 2.3142 0.0546 1.2873-1.8613 1.376-1.8742 2.9481-0.0054 0.67468-0.07497 1.3086-0.27353 1.8614l10.678 9.3019c-4.9242-3.3689-7.4008-5.7081-10.806-9.0084-0.20933 0.43863-0.51386 0.81764-0.96561 1.1047-1.0875 0.69091-2.4837-0.0371-3.7128 0.01502-1.2292 0.05207-2.1421 0.87808-3.284 0.28179-0.66825-0.34887-0.94895-0.82826-1.2007-1.3673-3.5767 3.2884-6.9784 5.9755-11.942 8.8235l11.699-9.3444c-0.10535-0.2271-0.22169-0.46119-0.37382-0.70063-0.65977-1.0384-1.9368-1.796-1.9913-3.0832-0.045477-1.0728 0.83336-1.6818 1.4582-2.4854-4.5128-2.1555-8.5347-4.608-12.995-7.5134l13.277 7.096c0.01765-0.03089 0.03988-0.05866 0.05642-0.09031 0.56939-1.0905 0.41186-2.7627 1.4993-3.4536 1.0266-0.65218 2.143 0.04857 3.2988 0.08633-0.41668-4.985-0.54104-9.9359 0.02706-15.112zm0.63139 15.411c-1.0189 0.0034-1.1373 2.135-1.9782 2.6244-0.84102 0.48935-2.6802-0.46152-3.1866 0.42254-0.50645 0.88423 1.6878 1.5901 1.7155 2.8472 0.02766 1.2569-1.9737 1.2899-1.4805 2.4409 0.47411 1.1062 2.3508-0.1058 3.1951 0.37781 0.8442 0.48352 0.53437 2.2941 1.5517 2.3512 1.1161 0.06254 1.1981-1.0201 1.8098-1.911 0.59849-0.87174 2.4413 0.16934 2.9769-0.87472 0.46506-0.9066-1.827-1.786-1.8304-2.7589-0.0034-0.97308 2.6956-1.6958 2.1831-2.5766-0.51258-0.88059-2.4853 0.19286-3.3296-0.29062-0.84424-0.48365-0.60798-2.6558-1.6269-2.6524z"/>
</svg>
