<?xml version="1.0" encoding="UTF-8"?>
<svg version="1.1" viewBox="0 0 48 48" xmlns="http://www.w3.org/2000/svg">
 <path d="m23.2 1.08c-1.37 0.879-1.76 2.7-0.882 4.06 4.85 7.51 6 13.2 5.5 18.1-2.01 9.51-6.37 11.4-10.2 11.4-3.72 0-2.73-6.13 0.0725-7.92 1.67-1.04 3.81-1.72 5.46-1.72 1.63 0 2.95-1.32 2.95-2.94 0-1.62-1.32-2.94-2.95-2.94-1.92 0-3.8 0.403-5.56 1.09 0.359-1.69 0.492-3.52 0.0274-5.47-0.705-2.95-2.73-5.78-6.26-8.51-0.617-0.48-1.4-0.696-2.18-0.6s-1.48 0.495-1.96 1.11c-0.999 1.28-0.768 3.13 0.517 4.13 2.87 2.23 3.82 3.88 4.14 5.24 0.324 1.36 0.0634 2.81-0.588 4.82-0.832 2.7-1.8 5.11-2.22 7.42-0.208 1.14-0.226 2.37-0.28 3.36-2.07-2.01-2.88-4.67-2.88-8.56-4.8e-4 -1.62-1.32-2.94-2.95-2.94-1.63 0.00144-2.94 1.32-2.95 2.94 0 5.31 1.55 10.4 5.71 13.7 3.77 3.59 13.3 2.26 13.3 8.02 0 1.63 2.38 2.42 4.01 2.42 1.67 0 3.77-1.12 3.77-2.42 0-6.53 6.89-10.5 18.2-10.5 1.63 0.0024 2.95-1.31 2.95-2.94 0.0029-1.62-1.31-2.94-2.94-2.95-0.775-9.6e-4 -1.53 0.0254-2.28 0.0696 1.27-2.98 1.83-6.26 1.71-9.81-0.0538-1.62-1.42-2.89-3.04-2.84-1.63 0.0528-2.9 1.41-2.85 3.04 0.154 4.64-0.0202 8.78-3.48 11-0.983 0.621-2.13 1.16-3.21 1.16 0.841-2.29 1.48-4.7 1.74-7.31 0.166-1.66 0.184-3.64-0.0058-5.17-0.294-2.38-0.649-5.07 0.252-7.1 0.81-1.75 2.63-2.48 5.29-2.48 1.63-0.00144 2.94-1.32 2.95-2.94 9.6e-4 -1.62-1.32-2.94-2.95-2.94-3.96 0-6.96 2.08-8.67 4.6-0.89-1.9-1.97-3.86-3.28-5.89-0.423-0.655-1.09-1.12-1.85-1.28-0.378-0.0821-0.769-0.0893-1.15-0.0211-0.381 0.0686-0.745 0.211-1.07 0.42z" fill="#000000" stroke-width=".48"/>
</svg>
