<?xml version="1.0" encoding="UTF-8" standalone="no"?>
<svg width="70.506836mm" height="70.651756mm" viewBox="0 0 70.506836 70.651756" version="1.1" id="svg1" inkscape:version="1.3.2 (091e20ef0f, 2023-11-25)" sodipodi:docname="vxlinux.svg" xmlns:inkscape="http://www.inkscape.org/namespaces/inkscape" xmlns:sodipodi="http://sodipodi.sourceforge.net/DTD/sodipodi-0.dtd" xmlns="http://www.w3.org/2000/svg" xmlns:svg="http://www.w3.org/2000/svg">
  <sodipodi:namedview id="namedview1" pagecolor="#ffffff" bordercolor="#000000" borderopacity="0.25" inkscape:showpageshadow="2" inkscape:pageopacity="0.0" inkscape:pagecheckerboard="0" inkscape:deskcolor="#d1d1d1" inkscape:document-units="mm" inkscape:zoom="0.92381453" inkscape:cx="132.60237" inkscape:cy="134.22608" inkscape:window-width="1853" inkscape:window-height="650" inkscape:window-x="0" inkscape:window-y="0" inkscape:window-maximized="1" inkscape:current-layer="layer1" />
  <defs id="defs1" />
  <g inkscape:label="Layer 1" inkscape:groupmode="layer" id="layer1" transform="translate(-69.85,-113.24167)">
    <path style="fill:#000000" d="m 101.50963,183.64224 c -23.748923,-2.2627 -38.577929,-28.25739 -28.403848,-49.79087 2.251825,-4.766 3.227604,-4.25629 3.712788,1.93939 0.679238,8.67371 3.182812,20.44959 5.192361,24.42294 8.92102,17.63894 33.540879,19.12155 44.701099,2.6919 2.25173,-3.31492 2.62771,-3.15656 2.55539,1.07633 -0.21635,12.66208 -6.24753,18.27789 -21.14728,19.69081 -3.15447,0.29913 -3.15062,0.29915 -6.61051,-0.0305 z m 1.43093,-16.37874 c -12.779333,-1.48896 -20.218484,-15.26332 -14.496904,-26.84253 6.819447,-13.80104 26.692654,-13.819 33.448114,-0.0302 6.53159,13.33181 -4.22756,28.58825 -18.95121,26.87275 z m 31.55033,-1.5592 c 0,-0.28246 -0.10972,-0.58137 -0.24382,-0.66425 -0.13411,-0.0829 -0.31758,-0.95311 -0.40771,-1.93384 -0.73194,-7.96389 -1.20156,-10.81306 -3.03713,-18.42593 -5.78811,-24.0058 -33.654034,-30.04586 -47.371509,-10.26799 -1.590543,2.29324 -1.964261,2.15963 -2.072945,-0.74112 -0.118035,-3.15034 0.638673,-9.03036 1.276483,-9.91895 0.104453,-0.14552 0.275465,-0.62122 0.380027,-1.05712 0.644741,-2.68779 6.305128,-6.37784 12.39031,-8.07733 26.660714,-7.44594 50.787684,16.50618 43.699394,43.38271 -1.26165,4.78379 -4.6131,10.38066 -4.6131,7.70382 z" id="path1" inkscape:export-filename="vxlinux2.svg" inkscape:export-xdpi="17.291939" inkscape:export-ydpi="17.291939" />
  </g>
</svg>
