<?xml version="1.0" encoding="UTF-8"?>
<svg role="img" version="1.1" viewBox="0 0 48 48" xmlns="http://www.w3.org/2000/svg">
 <path d="m48 24c0 18.5-20 30-36 20.8-7.43-4.29-12-12.2-12-20.8 0-6.78 2.7-12.6 6.9-16.9v1.35l1.11 6.84v2.14l0.154 2.73c-0.461 0-0.689 0.106-0.689 0.318v0.18l0.689-0.18h0.152v4.74c0.357 3.16 1.02 5.97 1.99 8.43 0.1 1.73 0.292 2.6 0.573 2.6 0.459 1.73 0.789 2.6 0.993 2.6 1.23 1.68 2.91 2.97 4.85 3.74 0.689 0 1.26-0.865 1.72-2.6 0.585-3.74 1.06-6.02 1.41-6.84 0.33 0.335 0.903 0.563 1.72 0.685v-0.182c0-0.304-0.521-0.623-1.57-0.957 0.28-1.46 0.661-2.7 1.15-3.74 0.0761-1.76 0.981-4.21 2.71-7.34l0.689 0.18c0.1 1.43 0.292 2.61 0.573 3.56 1.04 2.13 1.57 4.13 1.57 6.02 0 0.729 0.815 3.17 2.44 7.34 0.409 2.74 0.931 4.35 1.57 4.83h0.304c0.841 0 1.83-1.08 2.98-3.23 1.12-2.43 2.03-3.78 2.71-4.06 0-0.212-0.24-0.32-0.725-0.32v-0.18c0.381 0 0.573-0.108 0.573-0.32v-0.136l-0.152-0.182 1.6-0.639c0-0.547-0.19-0.821-0.573-0.821v-0.18h1.15v-0.32c-0.585 0-0.967-0.318-1.15-0.955h0.266v-0.639l-0.152-0.182c0.865 0 1.3-0.166 1.3-0.501v-0.138h-0.268v-0.18c0.306 0 0.535-0.32 0.687-0.957-0.841-0.274-1.26-0.547-1.26-0.821l1.11-3.23c0-1.64 0.292-3.44 0.879-5.38 0.661-1.88 1.13-3.94 1.41-6.15 0.609-2.13 1.24-3.58 1.88-4.35 3.07 4.14 4.72 9.15 4.72 14.3zm-12-20.8c1.18 0.681 2.28 1.45 3.3 2.3-0.135 1.16-0.24 2.32-0.314 3.48-0.917 2.16-1.92 5.2-3.02 9.11h-2.83l-1.45 0.14v0.363h0.725l0.573-0.18 2.41 0.316v0.184c-0.687 2.37-1.11 3.55-1.26 3.55-0.891 4.44-1.6 6.65-2.14 6.65h-0.459c-0.637-0.577-1.35-1.76-2.14-3.55 0.0032-0.419-0.146-0.825-0.421-1.14l-2.14-4.74c-0.433-2-1.01-3.51-1.72-4.51-0.23-0.669-0.611-1-1.15-1h-0.268c-0.841 0-1.65 0.591-2.44 1.78l0.152 0.501c-0.357 1.22-0.931 2.63-1.72 4.24-1.22 3.56-2.02 5.33-2.41 5.33h-0.306l-0.573-0.455c-0.967-2.61-1.63-6.46-1.99-11.5h-0.268v-0.32h0.116c0.157-0.606 0.522-1.14 1.03-1.5v-0.138l-0.154-0.18-0.152 0.18-0.152-0.18-0.689 0.18h-0.304c-0.18 0-0.461-0.697-0.841-2.1v-0.367h0.993v-0.32h-1.3c-0.278-1.4-1.09-3.06-2.44-5 0.593-0.413 1.2-0.797 1.83-1.16h0.032l0.154 0.136 0.877-0.136h1.57c0.457 0 0.929 0.166 1.41 0.501 0.23-0.304 0.661-0.471 1.3-0.501v-0.32h-4.77c6.23-3.34 13.9-3.99 21.1-0.785 0.225 0.103 0 0 0.0781 0.0361 0.737 0.332 1.47 0.709 2.19 1.13z"/>
</svg>
