<?xml version="1.0" encoding="UTF-8"?>
<svg version="1.1" viewBox="0 0 48 48" xmlns="http://www.w3.org/2000/svg">
 <title>Wayland logo</title>
 <g transform="matrix(2.1 0 0 2.1 -463 -723)">
  <circle cx="233" cy="356" r="10" fill="none" stroke="#000000" stroke-width=".48"/>
  <g transform="matrix(.078 0 0 .093 203 316)" fill="#ffffff">
   <path d="m444 315h2.4l-1.5 1.5h-0.85v-1.5m-173 3.6v1.7l-5.6 6.8h-0.85l-0.85-5.3c3.3-2.1 5.7-3.2 7.3-3.2m202 2.4c4.8 1.9e-4 7.5 3.1 8.1 9.2l-4.1 29h1.5l3.2-2.1h0.85v0.64c-4.4 2.7-8.7 10-13 22-1.6 10-4.2 20-7.9 29-3.3 9.1-4.9 18-4.9 25l-6.2 15c-1.7e-4 1.3 2.4 2.6 7 3.8-0.85 3-2.1 4.5-3.8 4.5v0.85h1.5v0.64c-1.7e-4 1.6-2.4 2.4-7.3 2.4l0.85 0.85v3h-1.5c1 3 3.1 4.5 6.4 4.5v1.5h-6.4v0.85c2.1 4e-5 3.2 1.3 3.2 3.8l-9 3 0.85 0.85v0.64c-1.6e-4 1-1.1 1.5-3.2 1.5v0.85c2.7 3e-5 4.1 0.5 4.1 1.5-3.8 1.3-8.9 7.6-15 19-6.4 10-12 15-17 15h-1.7c-3.6-2.3-6.5-9.8-8.8-23-9.1-20-14-31-14-34-1e-4 -8.8-2.9-18-8.8-28-1.6-4.4-2.6-10-3.2-17l-3.8-0.85c-9.7 15-15 26-15 34-2.7 4.8-4.8 11-6.4 18 5.8 1.6 8.8 3.1 8.8 4.5v0.85c-4.6-0.57-7.8-1.6-9.6-3.2-2 3.8-4.6 15-7.9 32-2.6 8.1-5.8 12-9.6 12-11-3.6-20-9.4-27-18-1.1 2e-5 -3-4.1-5.6-12-1.6 3e-5 -2.6-4.1-3.2-12-5.4-12-9.1-25-11-40v-22h-0.85l-3.8 0.85v-0.85c1e-5 -1 1.3-1.5 3.8-1.5l-0.85-13v-10l-6.2-32v-14c2.7-8.5 7.4-13 14-13h45v1.5c-3.6 0.14-6 0.93-7.3 2.4-2.7-1.6-5.3-2.4-7.9-2.4h-8.8l-4.9 0.64-0.85-0.64h-0.64l-6.4 0.64-3.2-0.64-2.4 0.64-2.6-0.64c10 11 17 21 18 29h7.3v1.5h-5.6v1.7c2.1 6.6 3.7 9.8 4.7 9.8h1.7l3.8-0.85 0.85 0.85 0.85-0.85 0.85 0.85v0.64c-2.8 1.7-4.8 4.1-5.8 7h-0.64v1.5h1.5c2 24 5.7 42 11 54l3.2 2.1h1.7c2.1 8e-5 6.6-8.3 13-25 4.4-7.5 7.6-14 9.6-20l-0.85-2.4c4.4-5.6 9-8.3 14-8.3h1.5c3 1.4e-4 5.1 1.6 6.4 4.7 4 4.7 7.2 12 9.6 21l12 22c1.6 1.6 2.4 3.3 2.4 5.3 4.4 8.4 8.4 14 12 17h2.6c3 6e-5 7-10 12-31 0.85 9e-5 3.2-5.6 7-17v-0.85l-13-1.5-3.2 0.85h-4.1v-1.7l8.1-0.64h16c6.1-18 12-33 17-43 1.7-21 4.1-31 7-31l9.6-3.8m-46 2.4c-0.85 2-2.7 3-5.6 3v-1.5l5.6-1.5m-81 3.8h22v1.5l-4.9 0.64-4.7-0.64-4.1 1.5-1.5-1.5h-6.4v-1.5m-112 3h2.4l1.5 1.5v0.85l-4.7 4.5v3.8h-1.7v-2.4l0.85-0.64v-0.85l-4.1-3.8c1-2 2.9-3 5.8-3m157 9.2h2.4v0.64c-1.1e-4 1-0.78 1.5-2.4 1.5l-0.85 0.85v0.85l-2.4-0.85v-1.5l3.2-1.5m-12 8.3v0.85c-1e-4 1.1-3.4 2.4-10 3.6v-1.5l4.7-2.1 0.85 0.64h0.64l4.1-1.5m-140 7.7v0.64l-1.7 1.5-0.64-0.64v-0.85l0.64-0.64h1.7m116 0v0.64c-3 2.3-7.8 4.3-15 6.2v-1.5c1.1 1.5e-4 1.7-0.78 1.7-2.4l13-3m41 7.5 0.85 0.85v0.64l-1.5 1.7h-0.85l-1.7-1.7v-0.64l3.2-0.85m29 0.85h0.85v0.64l-1.5 1.7h-0.85v-0.85l1.5-1.5m-13 11 3.2 2.1c-0.57 1.6-2.1 2.4-4.7 2.4l-1.7-2.4c-1.3e-4 -0.71 1.1-1.4 3.2-2.1m19 9.8 0.64 0.85v0.64l-0.64 0.85h-1.7v-0.85l1.7-1.5m-30 7.7v0.64l-4.1 3.2h-2.4v-0.85c-1.1e-4 -1.3 2.1-2.3 6.4-3m-132 30h0.85v0.64c-2.1 4.7-4 7.5-5.6 8.5h-1.7v-3.2l6.4-6m104 36h0.85v1.5l-6.4 3.2-0.85-0.85v-1.5l6.4-2.4m-88 10h1.5l2.6 8.3h-1.7l-2.4-7.7v-0.64m85 9.8h0.64l2.6 2.4-0.85 0.64h-0.85l-1.5-2.1v-0.85" fill="#000000"/>
  </g>
 </g>
</svg>
