<?xml version="1.0" encoding="UTF-8"?>
<svg version="1.1" viewBox="0 0 48 48" xmlns="http://www.w3.org/2000/svg">
 <path d="m24 6.32c-0.0188 3.47e-5 -0.0376 3.38e-4 -0.056 4.82e-4 -1.62 0.0178-3.22 0.517-4.59 1.39-3.73 2.37-5.59 6.99-5.63 11.5-4.82e-4 0.0533-1.78e-4 0.107 0.0014 0.16h-0.0207c0.0057 5.05 1.28 10.2 3.98 14.4 1.86 2.9 4.45 5.4 7.63 6.79 3.54 1.54 7.7 1.5 11.2-0.141 3.97-1.84 7.01-5.43 8.88-9.52 3.2-7 3.27-15.4 0.238-22.5-2.28 0.911-4.3-0.54-4.3-0.54s0.0048 2.23-2.16 3.35c2.22 5.2 2.17 11.4-0.0584 16.4-1.07 2.44-2.71 4.71-4.97 5.99-1.83 1.03-4.06 1.24-6.07 0.363-2.67-1.16-4.56-3.71-5.75-6.48-1.06-2.47-1.57-5.17-1.61-7.86 0.0057-0.0533 0.0099-0.107 0.0132-0.161l0.0029-0.138c0.0024-1.05 0.163-2.12 0.525-3.11 0.417-1.14 1.08-2.29 2.14-2.74 0.189-0.0798 0.387-0.113 0.585-0.11 0.198-0.0035 0.397 0.0299 0.585 0.11 1.06 0.447 1.72 1.59 2.14 2.74 0.362 0.993 0.522 2.06 0.525 3.11l0.0033 0.138c0.0033 0.0536 0.0076 0.107 0.0132 0.161-0.0387 2.69-0.544 5.39-1.61 7.86-0.242 0.563-0.513 1.12-0.814 1.65 1.06 1.64 2.35 2.85 3.83 3.5 0.654 0.285 1.35 0.427 2.05 0.43 2.43-4.08 3.58-8.95 3.59-13.7h-0.0212c0.0017-0.0532 0.0024-0.106 2e-3 -0.16-0.0411-4.54-1.9-9.16-5.63-11.5-1.37-0.871-2.97-1.37-4.59-1.39-0.0185-1.44e-4 -0.0377-4.34e-4 -0.0565-4.82e-4 -6e-3 -1.1e-5 -0.012 0-0.0179 0zm-17.3 1.57s-2.03 1.45-4.3 0.54c-3.03 7.11-2.96 15.5 0.238 22.5 1.87 4.09 4.91 7.68 8.88 9.52 3.45 1.6 7.5 1.68 11 0.247-2.34-1.49-4.37-3.59-5.99-6.11-0.0034-0.0053-0.0065-0.0107-0.0099-0.016-0.914-0.111-1.8-0.407-2.61-0.865-2.27-1.28-3.9-3.55-4.97-5.99-2.22-5.07-2.28-11.2-0.0579-16.4-2.16-1.12-2.16-3.35-2.16-3.35z" fill="#000000" stroke-width=".241"/>
</svg>
