<?xml version="1.0" encoding="UTF-8"?>
<svg version="1.1" viewBox="0 0 48 48" xmlns="http://www.w3.org/2000/svg">
 <path d="m24.1 0.032a7.96 7.96 0 0 0-7.96 7.96 7.96 7.96 0 0 0 7.96 7.96 7.96 7.96 0 0 0 7.96-7.96 7.96 7.96 0 0 0-7.96-7.96zm15.8 6.78c-3e-3 5e-3 -2.4 2.4-4.14 4.14 0.305 0.266 0.604 0.537 0.888 0.826 3.34 3.34 5.21 7.86 5.21 12.6s-1.88 9.22-5.21 12.6c-3.34 3.34-7.86 5.21-12.6 5.21-4.72 0-9.22-1.87-12.6-5.21-3.34-3.34-5.21-7.86-5.21-12.6 0-4.7 1.88-9.22 5.21-12.6 0.287-0.287 0.584-0.557 0.888-0.821l-4.15-4.14c-0.298 0.269-0.589 0.546-0.871 0.831-4.43 4.43-6.92 10.4-6.92 16.7 0 6.27 2.49 12.3 6.92 16.7 4.43 4.43 10.4 6.92 16.7 6.92 6.27 0 12.3-2.49 16.7-6.92 4.44-4.42 6.92-10.4 6.92-16.7 0-6.27-2.49-12.3-6.92-16.7-0.287-0.287-0.581-0.564-0.879-0.835zm-6.46 6.46c-3.65 3.64-7.31 7.31-7.31 7.31h0.119v18.1a14.5 14.5 0 0 0 12.4-14.3 14.5 14.5 0 0 0-5.15-11.1zm-18.7 8e-3a14.5 14.5 0 0 0-5.15 11.1 14.5 14.5 0 0 0 12.5 14.3v-18.1z"/>
</svg>
