<?xml version="1.0" encoding="UTF-8"?>
<svg width="48" height="48" version="1.1" viewBox="-599 -599 56.2 56.2" xmlns="http://www.w3.org/2000/svg">
 <path d="m-571-599a9.32 9.32 0 0 0-9.32 9.32 9.32 9.32 0 0 0 9.32 9.32 9.32 9.32 0 0 0 9.32-9.32 9.32 9.32 0 0 0-9.32-9.32zm18.5 7.94c-3e-3 6e-3 -2.81 2.81-4.85 4.85 0.357 0.311 0.707 0.629 1.04 0.967 3.91 3.91 6.1 9.21 6.1 14.7s-2.2 10.8-6.1 14.7c-3.91 3.91-9.2 6.1-14.7 6.1-5.53 0-10.8-2.19-14.7-6.1-3.91-3.91-6.1-9.2-6.1-14.7s2.2-10.8 6.1-14.7c0.336-0.336 0.684-0.652 1.04-0.962l-4.86-4.85c-0.349 0.315-0.69 0.64-1.02 0.973-5.19 5.19-8.1 12.2-8.1 19.6 0 7.34 2.92 14.4 8.1 19.6 5.19 5.19 12.2 8.1 19.6 8.1 7.34 0 14.4-2.92 19.6-8.1s8.1-12.2 8.1-19.6c0-7.34-2.92-14.4-8.1-19.6-0.336-0.336-0.68-0.661-1.03-0.978zm-7.57 7.57c-4.27 4.26-8.56 8.56-8.56 8.56h0.139v21.2a17 17 0 0 0 14.5-16.8 17 17 0 0 0-6.03-13zm-21.9 9e-3a17 17 0 0 0-6.03 13 17 17 0 0 0 14.6 16.8v-21.2z" fill="#000000"/>
</svg>
