<svg
   viewBox="0 0 32 32"
   version="1.1"
   xmlns="http://www.w3.org/2000/svg"
   xmlns:svg="http://www.w3.org/2000/svg">
  <path
     id="path37"
     class="a"
     d="M 15.779297 6.0019531 C 6.3486988 6.0019531 6.0546875 15.308594 6.0546875 15.308594 C 6.0546875 15.308594 4.6683299 25.998047 15.998047 25.998047 C 26.86443 25.998047 25.980469 15.703125 25.980469 15.703125 C 25.980469 15.703125 26.443021 6.0019531 15.779297 6.0019531 z M 15.691406 6.3085938 C 16.41827 6.2857959 17.108633 6.358789 17.771484 6.6816406 C 18.020181 6.802776 18.281153 6.9026567 18.519531 7.0410156 C 18.635801 7.1085006 18.713208 7.2422776 18.808594 7.3457031 C 18.884364 7.4278581 18.945971 7.5364312 19.039062 7.5859375 C 19.392339 7.7738056 19.781527 7.7828483 20.177734 7.7734375 C 20.180534 7.7283085 20.182647 7.6860824 20.185547 7.640625 C 20.584294 7.7652227 21.033939 8.2247239 21.033203 8.5605469 C 20.387226 8.5605469 19.741077 8.5581831 19.095703 8.5644531 C 19.026723 8.5652753 18.957389 8.6152671 18.888672 8.6425781 C 18.953992 8.6806331 19.019321 8.7495056 19.085938 8.7519531 L 19.085938 8.75 C 19.459878 8.76373 19.83282 8.7587001 20.207031 8.7675781 A 1.9365121 1.9365121 0 0 1 20.486328 8.8066406 A 2.7067308 2.7067308 0 0 1 20.203125 9.1679688 C 20.069349 9.2926267 19.919306 9.4160444 19.726562 9.2265625 C 19.680193 9.1809855 19.568942 9.1904831 19.488281 9.1894531 C 19.116183 9.1845331 18.744592 9.173566 18.373047 9.1875 A 6.9349689 6.9349689 0 0 0 17.412109 9.2851562 C 17.411178 9.2853242 17.407195 9.2868512 17.40625 9.2871094 C 17.346885 9.3085646 17.264486 9.4956623 17.291016 9.5664062 C 17.355626 9.7387305 17.44827 9.928843 17.587891 10.039062 C 18.103835 10.446333 18.653552 10.812326 19.171875 11.216797 C 19.675531 11.609847 20.143995 12.039902 20.429688 12.632812 C 20.801918 13.405366 20.812868 14.215614 20.652344 15.029297 C 20.384362 16.387625 19.697085 17.512668 18.583984 18.330078 C 18.135464 18.659427 17.580131 18.847362 17.066406 19.083984 C 16.614607 19.292122 16.150129 19.471811 15.697266 19.677734 C 14.880785 20.048978 14.42166 20.934076 14.556641 21.855469 C 14.680522 22.70101 15.421742 23.407089 16.271484 23.552734 C 17.2908 23.727484 18.342433 23.065391 18.591797 22.029297 C 18.872204 20.86427 18.239527 19.823099 17.054688 19.507812 C 17.002517 19.493932 16.950638 19.481195 16.841797 19.453125 C 17.158743 19.311514 17.432816 19.211331 17.685547 19.072266 C 18.126429 18.829662 18.557611 18.571969 18.982422 18.300781 C 19.107349 18.220861 19.174706 18.2203 19.28125 18.3125 C 20.096129 19.017064 20.582439 19.894174 20.71875 20.96875 C 20.944349 22.747417 20.103718 24.381272 18.515625 25.21875 C 16.058659 26.514486 13.050466 25.040374 12.507812 22.316406 C 12.04296 19.983218 13.690034 17.865637 15.671875 17.457031 C 16.524214 17.281299 17.304248 16.927881 17.910156 16.271484 C 18.301112 15.847942 18.490112 15.484285 18.554688 15.320312 A 2.6372744 2.6372744 0 0 0 18.736328 14.355469 A 2.2574645 2.2574645 0 0 0 18.539062 13.529297 C 18.332158 13.057702 17.539986 12.306683 17.34375 12.148438 L 15.476562 10.6875 C 15.410732 10.63334 15.336321 10.637577 15.175781 10.648438 C 14.985068 10.661418 14.497479 10.687933 14.287109 10.632812 C 14.457285 10.50402 14.921871 10.316787 15.121094 10.166016 C 14.516289 9.7574181 13.82538 9.9052051 13.191406 9.7832031 C 13.338003 9.5101809 14.064028 9.0896962 14.476562 9.0429688 A 6.1012932 6.1012932 0 0 0 14.363281 8.359375 C 14.33809 8.2666095 14.234862 8.176017 14.144531 8.1230469 C 13.9255 7.9946139 13.693341 7.8874794 13.441406 7.7597656 A 1.4621826 1.4621826 0 0 1 14.197266 7.5273438 A 2.8206473 2.8206473 0 0 1 14.953125 7.6015625 C 15.402536 7.7042527 15.761594 7.6355705 16.119141 7.3300781 C 15.837712 7.2167479 15.556126 7.1146496 15.283203 6.9921875 A 8.2014471 8.2014471 0 0 1 14.498047 6.5800781 C 15.206075 6.6784401 15.891275 6.9446496 16.615234 6.8476562 C 16.621434 6.8147543 16.626679 6.7829013 16.632812 6.75 C 16.091591 6.6240291 15.550418 6.4969075 14.951172 6.3574219 C 15.201801 6.3344766 15.449118 6.316193 15.691406 6.3085938 z M 18.375 7.7304688 C 18.331576 7.7360012 18.291749 7.7644749 18.251953 7.7949219 A 0.09869199 0.09869199 0 0 0 18.238281 7.953125 A 0.14881787 0.14881787 0 0 0 18.443359 8.0078125 C 18.505529 7.9764575 18.56744 7.9420255 18.642578 7.9023438 C 18.582058 7.8506778 18.532383 7.8087512 18.482422 7.7675781 C 18.443983 7.7359053 18.408774 7.7261657 18.375 7.7304688 z M 14.769531 11.716797 C 16.239144 11.663629 17.65402 12.412182 18.3125 13.677734 C 18.494026 14.0266 18.515357 14.563678 18.400391 14.929688 C 18.003478 16.193234 17.067593 16.902103 15.78125 17.203125 C 16.160478 16.878459 16.462541 16.510611 16.558594 16.001953 A 1.7598716 1.7598716 0 0 0 16.255859 14.605469 A 1.7837348 1.7837348 0 0 0 14.201172 13.978516 C 13.409222 14.279214 12.976501 15.002155 13.054688 15.890625 C 13.127337 16.715901 13.7522 17.251906 14.923828 17.455078 C 14.748721 17.547748 14.614378 17.615943 14.482422 17.689453 A 4.2605668 4.2605668 0 0 0 13.113281 18.880859 C 12.99437 19.041397 12.911552 19.054087 12.730469 18.943359 C 10.374954 17.502905 10.224512 13.888151 12.796875 12.314453 C 13.422137 11.931927 14.101525 11.740964 14.769531 11.716797 z M 12.611328 19.251953 C 12.691765 19.250398 12.7706 19.253337 12.849609 19.261719 A 3.2582489 3.2582489 0 0 0 12.234375 20.988281 C 11.814307 21.065641 11.417544 21.117283 11.033203 21.214844 C 10.654798 21.310894 10.289156 21.45321 9.9023438 21.580078 C 10.079726 20.383322 11.404778 19.27528 12.611328 19.251953 z " />
</svg>
