<svg
   viewBox="0 0 32 32"
   version="1.1"
   xmlns="http://www.w3.org/2000/svg"
   xmlns:svg="http://www.w3.org/2000/svg">
  <defs
     id="defs1" />
  <path
     class="a"
     d="m 25.981409,15.704045 c 0,0 0.462571,-9.7025586 -10.201153,-9.7025586 -9.4305981,0 -9.7252211,9.3072856 -9.7252211,9.3072856 0,0 -1.3871949,10.689742 9.9425221,10.689742 10.866383,0 9.983852,-10.294469 9.983852,-10.294469 z M 12.7967,12.31368 c 2.000837,-1.224085 4.557058,-0.475936 5.514847,1.364868 0.181526,0.348866 0.204596,0.885934 0.08963,1.251943 -0.396913,1.263546 -1.334069,1.972175 -2.620412,2.273197 0.379228,-0.324666 0.681099,-0.692831 0.777152,-1.201489 A 1.7598716,1.7598716 0 0 0 16.25513,14.605341 1.7837348,1.7837348 0 0 0 14.201369,13.979485 c -0.79195,0.300698 -1.225748,1.023449 -1.147561,1.911919 0.07265,0.825276 0.698827,1.36013 1.870455,1.563302 -0.175107,0.09267 -0.309972,0.160933 -0.441928,0.234443 a 4.2605668,4.2605668 0 0 0 -1.369398,1.191023 c -0.118911,0.160538 -0.20066,0.173468 -0.381743,0.06274 -2.355515,-1.440454 -2.506893,-5.055516 0.06547,-6.629214 z m -1.763005,8.90068 c -0.378405,0.09605 -0.745087,0.238241 -1.1318991,0.365109 0.1892081,-1.27654 1.6840821,-2.452168 2.9482291,-2.318054 a 3.2582489,3.2582489 0 0 0 -0.616042,1.725944 c -0.420068,0.07736 -0.815947,0.129403 -1.200288,0.226964 z M 19.085164,8.7508769 c 0.37394,0.01373 0.748556,0.00806 1.122767,0.016938 a 1.9365121,1.9365121 0 0 1 0.277785,0.038712 2.7067308,2.7067308 0 0 1 -0.282338,0.3621586 c -0.133776,0.1246579 -0.284924,0.2465349 -0.477667,0.057053 -0.04637,-0.045577 -0.155886,-0.035131 -0.236547,-0.036161 -0.372098,-0.00492 -0.744688,-0.016774 -1.116233,-0.00284 a 6.9349689,6.9349689 0 0 0 -0.961522,0.098183 c -0.05958,0.01075 -0.148639,0.2087349 -0.121254,0.2817609 0.06461,0.1723242 0.15886,0.3623621 0.298481,0.4725816 0.515944,0.40727 1.064644,0.772951 1.582967,1.177422 0.503656,0.39305 0.972453,0.823747 1.258146,1.416657 0.372231,0.772553 0.383077,1.582631 0.222553,2.396314 -0.267982,1.358328 -0.955393,2.483697 -2.068494,3.301107 -0.44852,0.329349 -1.003847,0.516263 -1.517572,0.752885 -0.451799,0.208138 -0.916866,0.38738 -1.369729,0.593303 -0.816481,0.371244 -1.275346,1.25748 -1.140365,2.178873 0.123881,0.845541 0.86567,1.551171 1.715412,1.696816 1.019316,0.17475 2.07109,-0.487682 2.320454,-1.523776 0.280407,-1.165027 -0.3526,-2.205205 -1.537439,-2.520491 -0.05217,-0.01388 -0.104541,-0.02704 -0.213382,-0.05511 0.316946,-0.141611 0.590676,-0.242508 0.843407,-0.381573 q 0.661323,-0.363906 1.29854,-0.770687 c 0.124927,-0.07992 0.192427,-0.07996 0.298971,0.01224 0.814879,0.704564 1.301007,1.580965 1.437318,2.655541 0.225599,1.778667 -0.616377,3.41269 -2.20447,4.250168 -2.456966,1.295736 -5.46352,-0.179069 -6.006174,-2.903037 -0.464852,-2.333188 1.181824,-4.449605 3.163665,-4.858211 0.852339,-0.175732 1.631756,-0.53056 2.237664,-1.186957 0.390956,-0.423542 0.580476,-0.78695 0.645052,-0.950923 a 2.6372744,2.6372744 0 0 0 0.181379,-0.96446 2.2574645,2.2574645 0 0 0 -0.197662,-0.826411 c -0.206905,-0.471595 -0.99952,-1.221814 -1.195756,-1.38006 L 15.47673,10.68771 c -0.06583,-0.05416 -0.139938,-0.05023 -0.300478,-0.03937 -0.190713,0.01298 -0.678233,0.03991 -0.888603,-0.01521 0.170176,-0.128792 0.63412,-0.316292 0.833343,-0.467063 C 14.516187,9.7574695 13.825851,9.9050415 13.191877,9.7830395 13.338474,9.5100173 14.063816,9.0904759 14.476351,9.0437484 A 6.1012932,6.1012932 0 0 0 14.363856,8.3584665 C 14.338665,8.265701 14.235125,8.1757724 14.144794,8.1228023 13.925763,7.9943693 13.693567,7.8883919 13.441632,7.7606781 a 1.4621826,1.4621826 0 0 1 0.755357,-0.2336674 2.8206473,2.8206473 0 0 1 0.756421,0.073693 c 0.449411,0.1026902 0.808147,0.035668 1.165694,-0.2698244 C 15.837675,7.2175491 15.556283,7.1140086 15.28336,6.9915465 A 8.2014471,8.2014471 0 0 1 14.498207,6.5810546 c 0.708028,0.098362 1.392863,0.3638465 2.116822,0.2668531 q 0.0093,-0.049353 0.0185,-0.098705 c -0.541221,-0.1259709 -1.082447,-0.251946 -1.681693,-0.3914316 1.002518,-0.091781 1.935846,-0.1069132 2.819648,0.3235556 0.248697,0.1211354 0.508913,0.221403 0.747291,0.3597619 0.11627,0.067485 0.194542,0.2004891 0.289928,0.3039146 0.07577,0.082155 0.136611,0.1922168 0.229702,0.2417231 0.353276,0.1878681 0.742155,0.1952448 1.138362,0.185834 0.0028,-0.045129 0.0058,-0.087408 0.0087,-0.1328654 0.398747,0.1245977 0.847544,0.5844391 0.846808,0.9202621 -0.645977,0 -1.291406,-0.00254 -1.93678,0.00373 -0.06898,8.222e-4 -0.137491,0.051039 -0.206208,0.07835 0.06532,0.038055 0.129507,0.1066147 0.196124,0.1090622 z"
     id="path37" />
  <path
     d="m 18.251892,7.7949533 a 0.09869199,0.09869199 0 0 0 -0.01269,0.1578834 0.14881787,0.14881787 0 0 0 0.204798,0.054785 c 0.06217,-0.031355 0.123165,-0.064739 0.198303,-0.1044208 -0.06052,-0.051666 -0.109062,-0.094304 -0.159023,-0.1354771 -0.08786,-0.072395 -0.160712,-0.026922 -0.231461,0.027206 z"
     id="path38" />
</svg>
