<svg width="300" height="300" version="1.1" viewBox="0 0 300 300" xmlns="http://www.w3.org/2000/svg"><path class="a" d="m146.7 0.004405c-141.5 0-145.9 139.6-145.9 139.6s-20.8 160.4 149.2 160.4c163 0 149.8-154.4 149.8-154.4s6.939-145.5-153-145.5zm-1.319 4.6c10.9-0.342 21.26 0.7531 31.21 5.597 3.731 1.817 7.646 3.316 11.22 5.392 1.744 1.012 2.906 3.019 4.337 4.571 1.137 1.233 2.061 2.861 3.458 3.604 5.3 2.818 11.14 2.954 17.08 2.813 0.04201-0.677 0.07371-1.311 0.1172-1.993 5.982 1.869 12.73 8.763 12.72 13.8-9.691 0-19.39-0.03546-29.07 0.0586-1.035 0.01234-2.075 0.7623-3.106 1.172 0.98 0.5709 1.96 1.604 2.959 1.641v-0.0293c5.61 0.206 11.21 0.1305 16.82 0.2637a29.05 29.05 0 0 1 4.19 0.586 40.61 40.61 0 0 1-4.249 5.421c-2.007 1.87-4.258 3.722-7.15 0.8791-0.6956-0.6838-2.365-0.5413-3.575-0.5567-5.582-0.07381-11.16-0.2383-16.73-0.0293a104 104 0 0 0-14.42 1.465c-0.01397 0.00252-0.07372 0.02543-0.0879 0.0293-0.8906 0.3219-2.127 3.129-1.729 4.19 0.9693 2.585 2.359 5.437 4.454 7.091 7.74 6.11 15.99 11.6 23.76 17.67 7.556 5.897 14.58 12.35 18.87 21.24 5.584 11.59 5.749 23.75 3.34 35.95-4.02 20.38-14.33 37.26-31.03 49.52-6.729 4.941-15.06 7.761-22.77 11.31-6.778 3.123-13.75 5.818-20.54 8.908-12.25 5.57-19.14 18.85-17.11 32.67 1.859 12.69 12.98 23.28 25.73 25.46 15.29 2.622 31.07-7.311 34.81-22.86 4.207-17.48-5.285-33.1-23.06-37.83-0.7827-0.2082-1.561-0.3993-3.194-0.8204 4.755-2.125 8.867-3.628 12.66-5.714 6.614-3.64 13.08-7.506 19.46-11.57 1.874-1.199 2.885-1.207 4.483 0.1758 12.23 10.57 19.52 23.73 21.57 39.85 3.385 26.68-9.227 51.2-33.05 63.76-36.86 19.44-81.99-2.676-90.13-43.54-6.974-35 17.74-66.77 47.47-72.9 12.79-2.636 24.49-7.939 33.58-17.79 5.865-6.354 8.701-11.81 9.67-14.27a39.57 39.57 0 0 0 2.725-14.48 33.87 33.87 0 0 0-2.959-12.39c-3.104-7.075-14.99-18.34-17.93-20.72l-28.01-21.92c-0.9876-0.8125-2.104-0.749-4.512-0.586-2.861 0.1947-10.18 0.5925-13.33-0.2344 2.553-1.932 9.523-4.741 12.51-7.003-9.074-6.13-19.44-3.913-28.95-5.743 2.199-4.096 13.09-10.4 19.28-11.11a91.53 91.53 0 0 0-1.7-10.26c-0.3779-1.392-1.927-2.751-3.282-3.546-3.286-1.927-6.769-3.534-10.55-5.45a21.94 21.94 0 0 1 11.34-3.487 42.32 42.32 0 0 1 11.34 1.113c6.742 1.541 12.13 0.5102 17.49-4.073-4.222-1.7-8.447-3.232-12.54-5.069a123 123 0 0 1-11.78-6.183c10.62 1.476 20.9 5.469 31.76 4.014 0.09302-0.4936 0.1717-0.9715 0.2637-1.465-8.12-1.89-16.24-3.797-25.23-5.89 3.76-0.3442 7.47-0.6185 11.11-0.7325zm40.26 21.33c-0.6515 0.083-1.249 0.5102-1.846 0.967a1.481 1.481 0 0 0-0.2051 2.373 2.233 2.233 0 0 0 3.077 0.8204c0.9327-0.4704 1.862-0.987 2.989-1.582-0.908-0.7751-1.653-1.404-2.403-2.022-0.5767-0.4752-1.105-0.6213-1.612-0.5567zm-54.09 59.8c22.05-0.7977 43.27 10.43 53.15 29.42 2.723 5.234 3.043 13.29 1.319 18.78-5.955 18.96-20 29.59-39.29 34.11 5.689-4.871 10.22-10.39 11.66-18.02a26.4 26.4 0 0 0-4.542-20.95 26.76 26.76 0 0 0-30.83-9.406c-11.88 4.511-18.37 15.36-17.2 28.69 1.09 12.38 10.46 20.42 28.04 23.47-2.627 1.39-4.643 2.413-6.622 3.516a63.92 63.92 0 0 0-20.54 17.87c-1.784 2.408-3.026 2.599-5.743 0.9377-35.34-21.61-37.6-75.84 0.9963-99.45 9.38-5.739 19.57-8.604 29.59-8.966zm-32.38 113c1.207-0.02332 2.389 0.02077 3.575 0.1465a48.88 48.88 0 0 0-9.23 25.9c-6.302 1.161-12.25 1.935-18.02 3.399-5.677 1.441-11.16 3.576-16.97 5.479 2.661-17.95 22.54-34.58 40.64-34.93z"/></svg>
