<svg viewBox="0 0 512 512" xmlns="http://www.w3.org/2000/svg"><path d="M314.066 402.345c18.257-33.185 46.143-45.821 69.305-51.943 35.905-9.486 67.765-22.266 91.285-43.136 1.897-1.719 1.682-4.762-.358-6.3-21.085-15.824-41.598-36.98-59.103-59.748-1.647-2.112-4.976-.716-4.618 1.97.501 3.615.752 7.302.752 11.06 0 44.82-36.442 81.262-81.226 81.262-1.145 0-2.29-.036-3.4-.071-3.222-.144-6.373.859-8.986 2.72l-6.229 4.368c-9.057 6.407-19.545 9.808-31.144 10.095h-48.685c-11.599-.287-22.088-3.688-31.144-10.095l-6.23-4.368c-2.613-1.861-5.763-2.864-8.985-2.72-1.11.035-2.255.071-3.4.071-44.784 0-81.226-36.442-81.226-81.261 0-3.759.25-7.446.752-11.062.358-2.685-2.972-4.08-4.618-1.969-17.506 22.768-38.018 43.924-59.103 59.747-2.04 1.54-2.255 4.582-.358 6.3 23.52 20.87 55.38 33.65 91.285 43.137 23.161 6.122 52.695 19.796 69.305 51.943.072.107.107.25.143.358 8.556 21.228-19.724 37.839-41.418 45.141a170.445 170.445 0 01-23.734 6.158c-18.042 4.295-36.084 8.627-55.415 18.615-8.664 4.51-15.358 12.028-19.224 21.013l-7.84 18.364h411.105l-7.84-18.364c-3.866-8.985-10.56-16.503-19.224-21.013-19.33-9.988-37.373-14.32-55.415-18.615-8.341-1.54-16.217-3.652-23.734-6.158-21.694-7.302-49.974-23.913-41.418-45.14.035-.108.071-.252.143-.359z"/><path d="M330.103 314.031c33.006 0 59.747-26.776 59.747-59.782s-26.741-59.783-59.747-59.783c-28.137 0-51.692 19.403-58.064 45.535-3.902-4.439-9.666-7.231-16.038-7.231s-12.135 2.792-16.037 7.231c-6.372-26.132-29.927-45.535-58.064-45.535-33.006 0-59.747 26.777-59.747 59.783s26.74 59.782 59.747 59.782c4.653 0 9.164-.537 13.495-1.539a59.454 59.454 0 0027.959-15.178 56.186 56.186 0 007.589-8.878c2.22-3.186 4.152-6.587 5.692-10.203a56.77 56.77 0 003.329-9.737 60.182 60.182 0 001.718-14.247c0-7.912 6.408-14.32 14.32-14.32s14.319 6.408 14.319 14.32c0 4.904.608 9.701 1.718 14.247a56.77 56.77 0 003.33 9.737c1.538 3.616 3.472 7.017 5.691 10.203a56.186 56.186 0 007.59 8.878 59.454 59.454 0 0027.957 15.178 59.758 59.758 0 0013.496 1.54z"/><path d="M104.683 213.582c2.363 2.005 6.014 1.468 7.625-1.217 14.248-23.59 40.094-39.378 69.592-39.378 27.17 0 51.692 13.317 66.548 34.474 1.683 2.434 4.546 3.83 7.518 3.83h.071c2.971 0 5.835-1.396 7.518-3.83 14.856-21.157 39.378-34.474 66.548-34.474 29.498 0 55.344 15.787 69.592 39.378 1.61 2.685 5.262 3.222 7.625 1.217 45.893-38.805 32.003-76.572 28.244-84.698a74.844 74.844 0 01-1.897-4.296l-49.401-122.5c-.895-2.184-3.688-2.793-5.406-1.182-7.732 7.267-16.61 16.432-33.22 38.841 0 .287-27.028 36.12-37.839 61.895a6.451 6.451 0 01-6.98 3.902c-12.78-2.005-28.532-3.043-44.82-2.936-16.288-.107-32.039.931-44.819 2.936a6.451 6.451 0 01-6.98-3.902c-10.811-25.775-37.839-61.608-37.839-61.895-16.61-22.41-25.488-31.574-33.22-38.84-1.719-1.612-4.51-1.003-5.406 1.18L78.336 124.589a74.844 74.844 0 01-1.897 4.296c-3.76 8.126-17.649 45.893 28.244 84.698zM222.208 318.614c-.107-.86-.394-1.29-.93-2.04-1.468-1.576-3.938-1.504-5.442.035-1.826 1.897-3.938 3.33-6.229 4.367-2.183.967-3.365 3.365-2.613 5.62h.036c.43 1.36 1.825 2.256 3.15 1.826 2.72-.859 3.043-1.467 4.976-1.467.859 0 1.289.214 2.005.536.071.072.107.072.143.072 4.045 2.005 8.162 3.043 12.207 3.4 1.253 3.545 3.365 8.771 5.907 10.883 0 0 .5-2.828 1.396-5.978.859-2.971 3.365-5.119 6.408-5.727a57.245 57.245 0 008.842-2.506c.787-.287 1.503-.573 2.148-.824.572-.25 1.18-.393 1.79-.393s1.217.143 1.79.393c.644.25 1.36.537 2.147.824a57.245 57.245 0 008.842 2.506c3.043.608 5.549 2.756 6.408 5.727a68.105 68.105 0 011.396 5.978c2.542-2.112 4.654-7.338 5.907-10.882 4.045-.358 8.162-1.396 12.207-3.4.036 0 .072 0 .143-.073.716-.322 1.146-.536 2.005-.536 1.933 0 2.255.608 4.976 1.467 1.324.43 2.72-.465 3.15-1.79h.036c.752-2.29-.43-4.69-2.613-5.656-2.291-1.038-4.404-2.47-6.23-4.367-1.503-1.54-3.973-1.611-5.44-.036-.538.752-.824 1.181-.931 2.04-.108 1.397.286 2.65-.215 3.15-.609.681-1.468.86-2.971 1.182-8.162 1.718-18.293-.358-24.45-2.398-1.54-.502-2.578-1.97-2.578-3.58v.501c0-1.289.358-1.933.967-2.255 2.076-1.146 4.725-2.613 6.408-3.687 4.26-2.721 7.911-5.8 9.88-9.773 1.682-3.365-.072-7.518-3.58-8.914-5.763-2.255-11.491-3.4-17.255-3.365-5.763-.036-11.49 1.11-17.254 3.365-3.508 1.396-5.263 5.549-3.58 8.914 1.969 3.973 5.62 7.052 9.88 9.773 1.683 1.074 4.332 2.541 6.408 3.687.609.322.967.966.967 2.255v-.501c0 1.61-1.039 3.078-2.578 3.58-6.157 2.04-16.288 4.116-24.45 2.398-1.503-.322-2.363-.501-2.971-1.181-.501-.501-.108-1.754-.215-3.15z"/></svg>