<?xml version="1.0" encoding="UTF-8"?>
<svg width="48" height="48" version="1.1" viewBox="0 0 12.7 12.7" xmlns="http://www.w3.org/2000/svg">
 <path d="m6.33 0c-0.301 0.829-0.666 1.64-1.03 2.44-0.117 0.258-0.438 0.707-0.362 0.998 0.0559 0.215 0.28 0.397 0.428 0.551 0.327 0.339 0.639 0.692 0.964 1.03h0.0344c0.325-0.341 0.637-0.693 0.964-1.03 0.148-0.154 0.372-0.335 0.428-0.551 0.0737-0.284-0.232-0.712-0.346-0.964-0.366-0.808-0.636-1.71-1.08-2.48m-5.54 3.41v0.0344c0.471 0.0101 0.945 0.0801 1.41 0.14 0.285 0.0365 0.605 0.0598 0.86 0.2 0.576 0.316 1.05 0.973 1.49 1.45 0.233 0.253 0.473 0.5 0.702 0.757 0.0891 0.1 0.225 0.232 0.21 0.379-0.0163 0.165-0.194 0.304-0.302 0.413-0.274 0.277-0.55 0.551-0.826 0.826l-1.1 1.1c-0.202 0.202-0.401 0.449-0.654 0.589-0.263 0.146-0.602 0.168-0.895 0.213-0.523 0.0799-1.05 0.171-1.58 0.196v0.0344c0.824 0.0682 1.65 0.0153 2.48 0.0363 0.348 0.0088 0.804 0.124 1.14-0.0155 0.333-0.14 0.61-0.527 0.86-0.778 0.586-0.586 1.23-1.15 1.76-1.79h0.0344c0.526 0.641 1.17 1.2 1.76 1.79 0.25 0.25 0.527 0.638 0.86 0.778 0.332 0.139 0.787 0.0244 1.14 0.0155 0.826-0.0209 1.65 0.0319 2.48-0.0363v-0.0344c-0.529-0.0247-1.06-0.116-1.58-0.196-0.292-0.0447-0.632-0.0672-0.895-0.213-0.253-0.14-0.452-0.387-0.654-0.589l-1.1-1.1c-0.275-0.275-0.552-0.549-0.826-0.826-0.108-0.109-0.286-0.248-0.302-0.413-0.0146-0.147 0.121-0.279 0.21-0.379 0.229-0.257 0.468-0.504 0.702-0.757 0.44-0.477 0.914-1.13 1.49-1.45 0.256-0.14 0.576-0.164 0.86-0.2 0.466-0.0599 0.941-0.13 1.41-0.14v-0.0344l-2.37-0.0344-1.05 0.00646-0.714 0.716-1.4 1.55-1.41-1.51-0.751-0.75-1.04-0.00684-2.37 0.0344m3.2 1.82-1.11 2.24-0.779 1.55c0.404-0.0827 0.648-0.373 0.929-0.654l1.27-1.27c0.174-0.174 0.626-0.487 0.627-0.757 2.62e-4 -0.149-0.147-0.277-0.239-0.379-0.224-0.248-0.451-0.497-0.698-0.723m4.68 0c-0.215 0.246-0.444 0.48-0.663 0.723-0.0915 0.101-0.239 0.23-0.239 0.379 3.84e-4 0.271 0.452 0.583 0.627 0.757l1.27 1.27c0.281 0.281 0.525 0.571 0.929 0.654l-0.903-1.79-1.02-2m-3.79 3.99c-0.296 0.296-0.71 0.859-1.14 0.947-0.492 0.102-1.08 0.0172-1.58 0.0172-0.203 1e-6 -0.487-0.0471-0.668 0.0639-0.218 0.134-0.331 0.477-0.449 0.693-0.317 0.583-0.656 1.16-0.948 1.76 0.714-0.00262 1.37-0.511 2-0.816 0.91-0.441 1.87-0.742 2.86-0.939l-0.0688-1.72m2.89 0c0.0858 0.58 0.0977 1.15-0.0344 1.72 0.99 0.197 1.95 0.498 2.86 0.939 0.629 0.305 1.28 0.814 2 0.816-0.292-0.596-0.631-1.17-0.948-1.76-0.118-0.216-0.231-0.559-0.449-0.693-0.181-0.111-0.465-0.0639-0.668-0.0639-0.502-4e-6 -1.09 0.0843-1.58-0.0172-0.444-0.0916-0.83-0.668-1.17-0.947z" fill="#000000"/>
</svg>
