<?xml version="1.0" encoding="UTF-8"?>
<svg version="1.1" viewBox="0 0 48 48" xmlns="http://www.w3.org/2000/svg">
 <path d="m1.2222 12.038c-0.24446 0.13414 1.9564 1.5682 6.073 3.2633 4.1128 1.6951 9.8014 5.9962 9.3402 6.688-1.3376 1.8834-2.1256 4.1512-1.5798 7.9949 0.09801 0.68033-2.0103 1.8565-1.8565 2.8828 0.12838 0.78027 2.3562-0.77258 2.6022-0.46509 0.14914 0.54965-1.1915 3.3325-0.64958 3.5324 0.3959 0.118 3.8821-3.3094 4.0743-3.2518 5.7655 1.7374 13.222 0.42665 13.376 0.37168-0.01345-0.03037 5.3812 2.5368 5.8424 2.2293 1.1839-1.2838-2.2447-3.0865-1.672-3.8091 0.25061-0.37784 4.1896 1.4183 4.3818 0.93017 0.28136-0.84946-1.8219-2.6329-2.1371-3.1595-0.27521-0.48815-0.33402-1.2723 0.3713-1.7643 0.70724-0.49199 7.918-3.2518 7.6105-5.3812-0.52274-3.8821-9.148-4.1512-9.3017-4.4587-0.06534-0.15336 0.38091-5.5349-2.1371-4.5356-1.549 0.57656-0.28597 3.9974-0.18604 4.4587 0.09263 0.40743-0.68802 0.36554-0.83408 0.18604-0.32902-0.39974-1.4145-3.9974-2.6944-3.344-1.795 0.99167-0.10608 4.0743-0.46509 4.1896-0.66496 0.37207-0.62652 1.28-1.1608 2.0179-0.88021 1.2607-7.4568-0.59193-9.6092-0.71877-1.5567-0.09186-3.0442 1.1839-3.1864 1.0224-1.8949-1.8988-5.804-5.189-10.109-6.3037-2.41-0.65343-5.9962-2.5484-6.1499-2.5215zm43.818 3.4709c-0.13145-0.03421-0.73415 3.0442-0.44971 3.1826 0.2483 0.18565 0.68033-3.0135 0.45356-3.1787-0.0018-0.0021-0.0042-0.0037-0.0061-0.0042zm2.1256 0.40743c-0.32556-0.0061-2.0679 2.7675-1.6643 3.0634 0.2483 0.18565 1.7988-2.952 1.6912-3.0557-0.0073-0.0061-0.01653-0.0092-0.02729-0.0096zm-8.4177 3.3786a0.74568 0.84946 0 0 1 0.74568 0.84946 0.74568 0.84946 0 0 1-0.74568 0.84946 0.74568 0.84946 0 0 1-0.74568-0.84946 0.74568 0.84946 0 0 1 0.74568-0.84946zm-1.672 0.51505c0.31634 1.3684 0.81102 1.8027 2.2947 1.7566-1.8873 1.7297-3.0327-1.2338-2.2947-1.7566zm4.0359 3.5708c0.09648-0.0026 0.17104 0.015 0.21602 0.05843 0.74183 0.26944-3.1941 1.6874-3.221 1.4875-0.03959-0.13799 2.1409-1.476 2.9635-1.5413 0.0146-0.0012 0.02921-0.0017 0.04266-0.0021zm0.43818 0.90711c0.04075-0.0032 0.07648 0.0022 0.10647 0.01768 0.7034 0.69571-2.2217 2.2447-2.1909 2.1909-0.23562-0.14222 1.4721-2.1602 2.0833-2.2063z"/>
</svg>
