<?xml version="1.0" encoding="UTF-8"?>
<svg version="1.1" viewBox="0 0 176 91" xmlns="http://www.w3.org/2000/svg">
 <path d="m1.6211 0.91602c-0.915 0.501 7.3191 5.8711 22.709 12.207 15.391 6.336 36.651 22.39 34.984 24.982-4.999 7.041-7.9432 15.463-5.9082 29.887 0.367 2.539-7.5252 6.9444-6.9512 10.775 0.48 2.915 8.8185-2.8843 9.7305-1.7383 0.558 2.057-4.4626 12.463-2.4336 13.207 1.484 0.441 14.535-12.38 15.293-12.166 21.514 6.504 49.505 1.5966 50.047 1.3906-0.051-0.113 20.14 9.4898 21.895 8.3418 4.427-4.794-8.3929-11.549-6.2559-14.248 0.937-1.413 15.613 5.3086 16.336 3.4746 1.052-3.175-6.8112-9.8414-7.9941-11.816-1.029-1.821-1.2503-4.7635 1.3887-6.6035 2.64-1.84 29.63-12.168 28.498-20.158-1.957-14.518-34.233-15.46-34.754-16.682-0.245-0.574 1.4248-20.758-7.9922-17.029-5.798 2.158-1.0703 15.019-0.69531 16.682 0.346 1.531-2.576 1.3673-3.127 0.69531-1.23-1.502-5.2901-14.906-10.08-12.512-6.718 3.704-0.39633 15.266-1.7363 15.641-2.489 1.391-2.3468 4.7867-4.3418 7.5547-3.29 4.715-27.913-2.2094-35.871-2.6914-5.826-0.344-11.394 4.4322-11.92 3.8242-7.094-7.104-21.771-19.471-37.85-23.58-9.017-2.447-22.433-9.5275-22.971-9.4375zm164.24 12.994c-0.49125-0.12851-2.7409 11.392-1.6758 11.91 0.929 0.695 2.5472-11.277 1.6992-11.895-0.00689-8e-3 -0.01564-0.013585-0.02344-0.015625zm7.9531 1.5254c-1.2184-0.02235-7.7272 10.357-6.2305 11.465 0.929 0.695 6.73-11.037 6.332-11.43-0.02785-0.023031-0.06226-0.034435-0.10157-0.035156zm-31.5 12.641a2.787 3.1732 0 0 1 2.7871 3.1719 2.787 3.1732 0 0 1-2.7871 3.1738 2.787 3.1732 0 0 1-2.7871-3.1738 2.787 3.1732 0 0 1 2.7871-3.1719zm-6.2559 1.9277c1.184 5.111 3.0341 6.7353 8.5801 6.5723-7.059 6.473-11.351-4.6133-8.5801-6.5723zm15.115 13.359c0.36133-0.0096 0.63961 0.05644 0.80859 0.21875 2.781 1.008-11.951 6.3095-12.049 5.5605-0.14787-0.51624 8.0047-5.5221 11.08-5.7715 0.0549-0.0045 0.10854-0.006413 0.16016-0.007813zm1.6465 3.3965c0.15222-0.01181 0.28607 0.008496 0.39844 0.066406 2.625 2.608-8.3105 8.3905-8.1875 8.1875-0.88125-0.5325 5.5058-8.0768 7.7891-8.2539z" fill="#020202" stroke="#000002" stroke-width="1pt"/>
</svg>
