<?xml version="1.0" encoding="UTF-8"?>
<svg role="img" version="1.1" viewBox="0 0 48 48" xmlns="http://www.w3.org/2000/svg">
 <path d="m39.9 3.8-18.2 23.7 9.2 12.8a28.6 28.6 0 0 1-5.12 0.456c-4.77 0-9.16-1.15-12.6-3.08l13.1-17.3-12.1-16.6-9.73-8e-3 15.1 21.1-8.66 11.3c-3.38-2.53-5.46-5.93-5.46-9.66 0-4.26 2.7-8.08 6.96-10.7l-1.31-2c-6.69 2.84-11.1 7.82-11.1 13.5 0 4.86 3.27 9.22 8.42 12.2l-3.53 4.61h3.32l2.6-3.42c3.78 1.66 8.32 2.63 13.2 2.63a34.9 34.9 0 0 0 8.38-1l1.3 1.81h9.73l-3.46-4.84c4.94-2.93 8.05-7.19 8.05-11.9 0-5.88-4.78-11-11.9-13.8l-0.434 0.622c6.2 2.43 10.4 7.06 10.4 12.4 0 4.4-2.88 8.34-7.4 10.9l-10.3-14.4 14.8-19.3zm-15.9 7.71c-1.17 0-2.42 0.092-3.55 0.2 2.01 2.62 3.67 4.83 5.59 7.35-1.08-2.31-3.29-4.54-2.52-5.68 0.756-1.13 2.15-0.94 2.26-0.94 2.24 0 4.39 0.254 6.4 0.72l0.47-0.648c-2.68-0.696-5.6-1.01-8.64-1.01z"/>
</svg>
