<svg width="135.47mm" height="135.47mm" version="1.1" viewBox="0 0 135.47 135.47" xmlns="http://www.w3.org/2000/svg"><defs><clipPath id="a"><path d="m0 0h512v512h-512z" fill="#fff"/></clipPath></defs><path transform="scale(.26458)" d="m239.57 0.29c-142.82 9.198-250.5 133.78-238.93 276.43 11.332 139.74 132.83 244.37 272.74 234.88 142.46-9.67 249.51-133.97 237.96-276.31-11.298-139.31-132.35-243.97-271.78-234.99zm94.483 95.912c4.939 2.554 5.226 21.425 0.859 56.43-5.84 46.801-13.293 66.462-21.385 56.415-4.923-6.111-1.938-40.945 7.149-83.393 5.46-25.514 8.414-32.018 13.377-29.452zm73.359 14.147c4.236 2.967 0.068 14.771-17.682 50.077-25.961 51.639-39.507 68.594-45.897 57.444-5.084-8.87 7.55-39.534 30.961-75.15 16.854-25.641 27.352-36.06 32.618-32.371zm-192.35 11.078c16.442 4.83 24.119 24.731 24.939 64.644 0.126 6.194 0.339 13.783 0.472 16.864l0.242 5.6 4.759 0.3c29.974 1.88 55.21 7.068 87.319 17.949 50.26 17.033 73.356 34.977 79.608 61.856 5.385 23.153-21.927 47.763-90.914 81.919-55.977 27.713-86.77 38.703-121.24 43.269-79.235 10.493-113.1-30.227-100.57-120.92 2.02-14.619 6.819-32.734 15.257-57.6l4.054-11.946-1.688-5.546c-12.341-40.571-7.422-65.745 14.084-72.067 13.494-3.965 28.439 12.878 41.416 46.679 6.661 17.348 7.209 18.079 13.581 18.116 5.089 0.03 5.235-0.593 2.437-10.39-12.252-42.89-11.171-65.213 3.62-74.717 5.971-3.838 16.727-5.742 22.631-4.008z" clip-path="url(#a)" clip-rule="evenodd" fill="#030303" fill-rule="evenodd"/></svg>
